<?xml version="1.0" encoding="UTF-8" standalone="no"?>
<svg
   height="24"
   version="1.2"
   width="24"
   id="svg2"
   sodipodi:docname="appbar.menu2.svg"
   inkscape:version="1.4 (e7c3feb100, 2024-10-09)"
   xmlns:inkscape="http://www.inkscape.org/namespaces/inkscape"
   xmlns:sodipodi="http://sodipodi.sourceforge.net/DTD/sodipodi-0.dtd"
   xmlns="http://www.w3.org/2000/svg"
   xmlns:svg="http://www.w3.org/2000/svg">
  <sodipodi:namedview
     id="namedview2"
     pagecolor="#ffffff"
     bordercolor="#666666"
     borderopacity="1.0"
     inkscape:showpageshadow="2"
     inkscape:pageopacity="0.0"
     inkscape:pagecheckerboard="0"
     inkscape:deskcolor="#d1d1d1"
     inkscape:zoom="21.913043"
     inkscape:cx="7.1646826"
     inkscape:cy="13.736111"
     inkscape:window-width="1430"
     inkscape:window-height="824"
     inkscape:window-x="0"
     inkscape:window-y="0"
     inkscape:window-maximized="0"
     inkscape:current-layer="svg2" />
  <defs
     id="defs1" />
  <path
     id="path1"
     style="fill:#434343;fill-opacity:1;stroke-width:1.426;stroke-dasharray:none"
     d="m 15.920105,9.4265809 -0.03229,0.035324 h -0.02998 l -0.06227,0.065937 v 0.032969 l -0.02998,0.032969 v 0.068292 l -0.02998,0.032969 v 0.098906 l -0.03229,0.035324 v 0.131876 l -0.02998,0.03297 v 0.1342291 l -0.02998,0.03297 v 0.13423 l -0.03229,0.03297 v 0.101261 l -0.02998,0.03297 v 0.06594 l -0.02998,0.03297 v 0.06829 l -0.03229,0.03297 v 0.03297 l -0.09225,0.0989 h -0.02998 l -0.02998,0.03533 h -0.06227 l -0.02998,0.03297 h -0.06227 l -0.02998,0.03297 h -0.06227 l -0.02998,0.03297 h -0.02998 l -0.03229,0.03297 h -0.05997 l -0.03229,0.03533 h -0.02998 l -0.02998,0.03297 h -0.03229 l -0.02998,0.03297 h -0.02998 l -0.03229,0.03297 h -0.02998 l -0.02998,0.03297 h -0.03229 l -0.02998,0.03297 h -0.02998 l -0.02998,0.03533 h -0.216807 l -0.02998,-0.03533 h -0.02998 l -0.03229,-0.03297 h -0.02998 l -0.02998,-0.03297 h -0.03229 l -0.02998,-0.03297 h -0.02998 l -0.03229,-0.03297 h -0.02998 l -0.02998,-0.03297 h -0.03229 l -0.02998,-0.03533 h -0.02998 l -0.03229,-0.03297 h -0.02998 l -0.02998,-0.03297 h -0.02998 l -0.03229,-0.03297 h -0.02998 l -0.02998,-0.03297 h -0.03229 l -0.05997,-0.06829 h -0.03229 l -0.02998,-0.03297 h -0.214579 l -0.892608,0.967861 v 0.03297 l -0.02998,0.03533 v 0.0989 l 0.02998,0.03297 v 0.03297 l 0.03229,0.03533 v 0.03297 l 0.02998,0.03297 v 0.03297 l 0.06227,0.06594 v 0.03533 l 0.02998,0.03297 v 0.03297 l 0.06227,0.06594 v 0.03297 l 0.02998,0.03532 v 0.03297 l 0.06227,0.06594 v 0.03297 l 0.02998,0.03297 v 0.03533 l 0.06227,0.06594 v 0.03297 l 0.02998,0.03297 v 0.03533 l 0.06227,0.06594 v 0.06593 l 0.02998,0.03297 v 0.03533 l -0.02998,0.03297 v 0.03297 l -0.03229,0.03297 v 0.03297 l -0.02998,0.03297 v 0.03533 l -0.02998,0.03297 v 0.03297 l -0.03229,0.03297 v 0.03297 l -0.02998,0.03297 v 0.03532 l -0.02998,0.03297 v 0.06594 l -0.03229,0.03297 v 0.06829 l -0.02998,0.03297 v 0.06594 l -0.02998,0.03297 v 0.06829 l -0.03229,0.03297 v 0.06594 l -0.02998,0.03297 v 0.06829 l -0.154535,0.167197 h -0.02998 l -0.02998,0.03297 h -0.09226 l -0.03229,0.03297 h -0.09226 l -0.02998,0.03297 h -0.09226 l -0.02998,0.03297 h -0.06227 l -0.02998,0.03297 h -0.09226 l -0.02998,0.03533 h -0.09225 l -0.03229,0.03297 h -0.05997 l -0.03229,0.03297 h -0.02998 l -0.09226,0.0989 v 1.403528 l 0.02998,0.03297 v 0.03297 l 0.09225,0.101259 h 0.06227 l 0.02998,0.03297 h 0.09226 l 0.03229,0.03297 h 0.05997 l 0.03229,0.03297 h 0.09226 l 0.02998,0.03297 h 0.09226 l 0.02998,0.03297 h 0.06227 l 0.02998,0.03533 h 0.09226 l 0.02998,0.03297 h 0.09225 l 0.03229,0.03297 h 0.02998 l 0.09225,0.101259 v 0.06594 l 0.02998,0.03297 v 0.03297 l 0.03229,0.03297 v 0.0683 l 0.02998,0.03297 v 0.06594 l 0.02998,0.03297 v 0.06829 l 0.03229,0.03297 v 0.03297 l 0.02998,0.03297 v 0.03297 l 0.02998,0.03532 v 0.03297 l 0.03229,0.03297 v 0.06594 l 0.02998,0.03532 v 0.03297 l 0.02998,0.03297 v 0.03297 l 0.03229,0.03297 v 0.06594 l 0.02998,0.03533 v 0.03297 l -0.02998,0.03297 v 0.06594 l -0.06227,0.06829 v 0.03297 l -0.02998,0.03297 v 0.03297 l -0.03229,0.03297 v 0.03533 l -0.05997,0.06594 v 0.03297 l -0.03229,0.03297 v 0.03297 l -0.05997,0.06829 v 0.03297 l -0.03229,0.03297 v 0.03297 l -0.05997,0.06829 v 0.03297 l -0.03229,0.03297 v 0.03297 l -0.05997,0.06829 v 0.03297 l -0.03229,0.03297 v 0.06594 l -0.02998,0.03297 v 0.06829 l 0.02998,0.03297 v 0.06594 l 0.830333,0.901932 h 0.02998 l 0.03229,0.03297 h 0.05997 l 0.03229,0.03297 h 0.02998 l 0.02998,-0.03297 h 0.06227 l 0.02998,-0.03297 h 0.03229 l 0.02998,-0.03297 h 0.02998 l 0.06227,-0.06829 h 0.02998 l 0.03229,-0.03297 h 0.02998 l 0.02998,-0.03297 h 0.02998 l 0.03229,-0.03297 h 0.02998 l 0.02998,-0.03297 h 0.03229 l 0.02998,-0.03297 h 0.02998 l 0.03229,-0.03533 h 0.02998 l 0.02998,-0.03297 h 0.03229 l 0.02998,-0.03297 h 0.02998 l 0.03229,-0.03297 h 0.02998 l 0.02998,-0.03297 h 0.03229 l 0.02998,-0.03533 h 0.09226 l 0.02998,0.03533 h 0.03229 l 0.02998,0.03297 h 0.02998 l 0.02998,0.03297 h 0.03229 l 0.02998,0.03297 h 0.02998 l 0.03229,0.03297 h 0.02998 l 0.02998,0.03533 h 0.03229 l 0.02998,0.03297 h 0.02998 l 0.03229,0.03297 h 0.05997 l 0.03229,0.03297 h 0.05997 l 0.03229,0.03297 h 0.02998 l 0.02998,0.03297 h 0.06227 l 0.02998,0.03533 h 0.06227 l 0.02998,0.03297 h 0.02998 l 0.09226,0.0989 v 0.03297 l 0.03229,0.03532 v 0.06594 l 0.02998,0.03297 v 0.101258 l 0.02998,0.03297 v 0.13423 l 0.03229,0.03297 v 0.131874 l 0.02998,0.03533 v 0.09891 l 0.02998,0.03297 v 0.101259 l 0.03229,0.03297 v 0.06594 l 0.02998,0.03297 v 0.06829 l 0.02998,0.03297 v 0.03297 l 0.06227,0.06593 h 0.02998 l 0.03229,0.03533 h 1.289322 l 0.02998,-0.03533 h 0.03229 l 0.05997,-0.06593 v -0.03297 l 0.03229,-0.03297 v -0.06829 l 0.02998,-0.03297 v -0.0989 l 0.02998,-0.03297 v -0.101259 l 0.03229,-0.03297 v -0.13423 l 0.02998,-0.03297 v -0.134232 l 0.02998,-0.03297 v -0.0989 l 0.03229,-0.03533 v -0.0989 l 0.02998,-0.03297 v -0.03297 l 0.02998,-0.03532 v -0.03297 l 0.09226,-0.0989 h 0.03229 l 0.02998,-0.03297 h 0.06227 l 0.02998,-0.03533 h 0.02998 l 0.02998,-0.03297 h 0.06227 l 0.02998,-0.03297 h 0.06227 l 0.02998,-0.03297 h 0.03229 l 0.02998,-0.03297 h 0.06227 l 0.05997,-0.06829 h 0.03229 l 0.02998,-0.03297 h 0.02998 l 0.03229,-0.03297 h 0.02998 l 0.02998,-0.03297 h 0.03229 l 0.02998,-0.03297 h 0.02998 l 0.03229,-0.03533 h 0.122242 l 0.02998,0.03533 h 0.02998 l 0.03229,0.03297 h 0.02998 l 0.02998,0.03297 h 0.03229 l 0.02998,0.03297 h 0.02998 l 0.03229,0.03297 h 0.02998 l 0.02998,0.03533 h 0.03229 l 0.02998,0.03297 h 0.02998 l 0.03229,0.03297 h 0.02998 l 0.02998,0.03297 h 0.03229 l 0.02998,0.03297 h 0.02998 l 0.06227,0.06829 h 0.02998 l 0.03229,0.03297 h 0.02998 l 0.02998,0.03297 h 0.06227 l 0.02998,0.03297 h 0.154533 l 0.02998,-0.03297 h 0.02998 l 0.830332,-0.901932 v -0.03297 l 0.02998,-0.03297 v -0.16716 l -0.02998,-0.03297 v -0.03297 l -0.02998,-0.03297 v -0.03533 l -0.03229,-0.03297 v -0.03297 l -0.05997,-0.06593 v -0.03533 l -0.03229,-0.03297 v -0.03297 l -0.02998,-0.03297 v -0.03297 l -0.06227,-0.06829 v -0.03297 l -0.02998,-0.03297 v -0.03297 l -0.02998,-0.03297 v -0.03297 l -0.06227,-0.06829 v -0.03297 l -0.02998,-0.03297 v -0.03297 l -0.02998,-0.03297 v -0.03533 l -0.03229,-0.03297 v -0.167199 l 0.03229,-0.03297 v -0.06594 l 0.02998,-0.03297 v -0.03297 l 0.02998,-0.03532 v -0.03297 l 0.03229,-0.03297 v -0.03297 l 0.02998,-0.03297 v -0.03532 l 0.02998,-0.03297 v -0.06594 l 0.02998,-0.03297 v -0.03297 l 0.03229,-0.03532 v -0.06594 l 0.02998,-0.03297 v -0.06594 l 0.02998,-0.03533 v -0.06594 l 0.03229,-0.03297 v -0.03297 l 0.02998,-0.03297 v -0.03533 l 0.06227,-0.06594 h 0.02998 l 0.02998,-0.03297 h 0.06227 l 0.02998,-0.03297 h 0.09226 l 0.03229,-0.03533 h 0.09226 l 0.02998,-0.03297 h 0.09226 l 0.02998,-0.03297 h 0.06227 l 0.02998,-0.03297 h 0.122243 l 0.03229,-0.03297 h 0.05997 l 0.03229,-0.03297 h 0.05997 l 0.09226,-0.101259 v -0.03297 l 0.03229,-0.03297 v -1.368205 l -0.03229,-0.03533 v -0.03297 l -0.09226,-0.0989 h -0.02998 l -0.02998,-0.03297 h -0.09226 l -0.03229,-0.03533 h -0.05997 l -0.03229,-0.03297 h -0.09226 l -0.02998,-0.03297 h -0.09226 l -0.02998,-0.03297 h -0.09226 l -0.02998,-0.03297 h -0.06227 l -0.02998,-0.03297 h -0.09226 l -0.03229,-0.03533 h -0.02998 l -0.02998,-0.03297 h -0.03229 l -0.05997,-0.06594 v -0.03297 l -0.03229,-0.03297 v -0.06829 l -0.02998,-0.03297 v -0.06594 l -0.02998,-0.03297 v -0.101259 l -0.03229,-0.03297 v -0.06594 l -0.02998,-0.03533 v -0.03297 l -0.02998,-0.03297 v -0.03297 l -0.02998,-0.03297 v -0.06829 l -0.03229,-0.03297 v -0.03297 l -0.02998,-0.03297 v -0.03297 l -0.02998,-0.03533 v -0.03297 l -0.03229,-0.03297 v -0.06594 l -0.02998,-0.03297 v -0.06829 l 0.02998,-0.03297 v -0.03297 l 0.03229,-0.03297 v -0.03297 l 0.05997,-0.06829 v -0.03297 l 0.03229,-0.03297 v -0.03297 l 0.05997,-0.06829 v -0.03297 l 0.02998,-0.03297 v -0.03297 l 0.03229,-0.03297 v -0.03532 l 0.05997,-0.06594 v -0.03297 l 0.03229,-0.03297 v -0.03297 l 0.02998,-0.03533 v -0.03297 l 0.06227,-0.06594 v -0.03297 l 0.02998,-0.03297 v -0.03533 l 0.02998,-0.03297 v -0.16722 l -0.0298,-0.03297 v -0.03297 L 19.82019,10.761847 h -0.02998 l -0.02998,-0.03297 h -0.184517 l -0.02998,0.03297 h -0.03229 l -0.05997,0.06829 h -0.03229 l -0.02998,0.03297 h -0.02998 l -0.03229,0.03297 h -0.02998 l -0.02998,0.03297 h -0.03229 l -0.02998,0.03297 h -0.02998 l -0.03229,0.03533 h -0.02998 l -0.02998,0.03297 h -0.03229 l -0.02998,0.03297 h -0.02998 l -0.03229,0.03297 h -0.02998 l -0.02998,0.03297 h -0.03229 l -0.02998,0.03297 h -0.02998 l -0.03229,0.03533 h -0.02998 l -0.02998,0.03297 h -0.09226 l -0.02998,-0.03297 h -0.03229 l -0.02998,-0.03533 h -0.02998 l -0.03229,-0.03297 h -0.02998 l -0.02998,-0.03297 h -0.03229 l -0.02998,-0.03297 h -0.02998 l -0.03229,-0.03297 h -0.02998 l -0.02998,-0.03297 h -0.03229 l -0.02998,-0.03533 h -0.02998 l -0.03229,-0.03297 h -0.05997 l -0.03229,-0.03297 h -0.05997 l -0.03229,-0.03297 h -0.02998 l -0.02998,-0.03297 h -0.09226 l -0.02998,-0.03533 h -0.03229 l -0.09226,-0.0989 v -0.03297 l -0.02998,-0.03297 v -0.03297 l -0.02998,-0.03532 v -0.06594 l -0.03229,-0.03297 v -0.134221 l -0.02998,-0.03297 v -0.101261 l -0.02998,-0.03297 v -0.09891 l -0.03229,-0.03297 V 9.8952353 l -0.02998,-0.03297 V 9.761005 l -0.02998,-0.03297 V 9.662098 L 17.331673,9.626774 V 9.560837 l -0.09226,-0.098906 h -0.02998 l -0.02998,-0.035324 z m 0.761138,3.0095801 a 2.7817902,2.7234871 0 0 1 2.781612,2.72228 2.7817902,2.7234871 0 0 1 -2.781612,2.724635 2.7817902,2.7234871 0 0 1 -2.781612,-2.724635 2.7817902,2.7234871 0 0 1 2.781612,-2.72228 z M 4.6737205,2.7197867 4.6437365,2.7527557 H 3.9056636 l -0.029984,0.032969 H 3.7534362 l -0.032291,0.032969 h -0.059968 l -0.03229,0.032969 h -0.059969 l -0.032291,0.035324 h -0.029984 l -0.029984,0.032969 h -0.032291 l -0.029984,0.032969 h -0.029984 l -0.062275,0.065938 H 3.2921421 L 3.1998832,3.1201219 H 3.1675908 L 3.0453475,3.254352 v 0.032969 l -0.092259,0.098907 v 0.032969 l -0.059968,0.068292 v 0.032969 l -0.032291,0.032969 v 0.032969 l -0.029985,0.032969 v 0.035324 l -0.029984,0.032969 v 0.032969 l -0.03229,0.032966 V 3.81953 L 2.7385865,3.854854 V 3.953761 L 2.7086025,3.98673 v 12.116031 l 0.029984,0.03297 v 0.101259 l 0.029984,0.03297 v 0.06594 l 0.032291,0.03297 v 0.06829 l 0.029984,0.03297 v 0.03297 l 0.029985,0.03297 v 0.03297 l 0.032291,0.03533 v 0.03297 l 0.029985,0.03297 v 0.03297 l 0.062274,0.06594 v 0.03532 l 0.3067615,0.332044 h 0.029985 l 0.029984,0.03532 h 0.032291 l 0.059968,0.06594 h 0.032291 l 0.029984,0.03297 h 0.029984 l 0.032291,0.03297 h 0.059968 l 0.032291,0.03297 h 0.092259 l 0.029984,0.03297 h 0.1222433 l 0.029985,0.03533 H 11.987559 V 17.20489 l -0.12455,-0.134229 h -0.05997 l -0.03229,-0.03297 h -0.05997 l -0.03229,-0.03297 h -0.05997 l -0.03229,-0.03532 h -0.05997 l -0.03229,-0.03297 h -0.05997 l -0.03229,-0.03297 h -0.09226 l -0.02999,-0.03297 h -0.05997 l -0.03229,-0.03297 h -0.02998 l -0.02998,-0.03297 h -0.06227 l -0.06228,-0.06829 h -0.03 l -0.06228,-0.06594 h -0.02998 l -0.154511,-0.167225 v -0.03297 l -0.09226,-0.10126 v -0.03297 l -0.02998,-0.03297 v -0.03297 l -0.02998,-0.03297 v -0.03533 l -0.03229,-0.03297 v -0.06594 l -0.02998,-0.03297 v -0.1672 l -0.02998,-0.03297 v -1.302267 l 0.02998,-0.03297 v -0.200168 l 0.02998,-0.03297 v -0.06829 l 0.03229,-0.03297 v -0.03297 l 0.02998,-0.03297 v -0.03297 l 0.06227,-0.06829 v -0.03297 l 0.244487,-0.266104 h 0.03229 l 0.09226,-0.101259 h 0.02998 l 0.02998,-0.03297 h 0.03229 l 0.02998,-0.03297 h 0.02998 l 0.03229,-0.03297 h 0.05997 l 0.02998,-0.03297 h 0.06227 l 0.02998,-0.03533 h 0.06227 l 0.02998,-0.03297 h 0.06227 l 0.02998,-0.03297 h 0.06227 l 0.02998,-0.03297 h 0.06227 l 0.02998,-0.03297 h 0.03229 l 0.02998,-0.03532 h 0.06227 l 0.05997,-0.06594 v -0.03297 l 0.03229,-0.03297 v -0.167197 l -0.03229,-0.03297 v -0.03297 l -0.02998,-0.03533 v -0.03297 l -0.02998,-0.03297 v -0.03297 l -0.03229,-0.03297 v -0.03297 l -0.02998,-0.03533 v -0.03297 l -0.06227,-0.06593 v -0.03297 l -0.02998,-0.03533 v -0.03297 l -0.02998,-0.03297 v -0.03297 l -0.03229,-0.03297 v -0.03297 l -0.02998,-0.03532 v -0.03297 l -0.02998,-0.03297 v -0.03297 l -0.03229,-0.03297 v -0.03297 l -0.02998,-0.03533 v -0.06594 l -0.02998,-0.03297 v -0.06585 l -0.03229,-0.03533 v -0.367367 l 0.03229,-0.03297 v -0.0989 l 0.02998,-0.03297 v -0.03533 l 0.02998,-0.03297 v -0.03297 l 0.03229,-0.03297 v -0.03297 l 0.02998,-0.03297 v -0.03533 l 0.09226,-0.09891 v -0.03297 L 12.75559,9.9281943 h 0.02998 l 0.06227,-0.06594 h 0.02998 l 0.02998,-0.03297 h 0.03229 l 0.02998,-0.035324 h 0.02998 l 0.02998,-0.032969 h 0.06227 l 0.02998,-0.03297 h 0.461295 l 0.03229,0.03297 h 0.09225 l 0.02998,0.032969 h 0.02998 l 0.03229,0.035324 h 0.02998 l 0.02998,0.03297 h 0.02998 l 0.03229,0.03297 h 0.02998 l 0.02998,0.03297 h 0.06227 l 0.02998,0.03297 h 0.03229 l 0.02998,0.03297 h 0.02998 l 0.03229,0.03532 h 0.02998 l 0.02998,0.03297 h 0.03229 l 0.02998,0.03297 h 0.02998 l 0.03229,0.03297 h 0.09226 l 0.02998,0.03297 0.02998,-0.03297 h 0.154534 l 0.02998,-0.03297 v -0.03297 l 0.02998,-0.03297 v -0.06829 l 0.03229,-0.03297 v -0.09891 l 0.02998,-0.035324 v -0.065938 l 0.02998,-0.032969 V 9.5937806 l 0.03229,-0.032969 v -0.065937 l 0.02998,-0.032969 v -0.068294 l 0.02998,-0.032969 v -0.098907 l 0.03229,-0.035324 v -0.065937 l 0.02998,-0.032969 v -0.065937 l 0.02998,-0.035324 v -0.032969 l 0.03229,-0.032969 v -0.032969 l 0.02998,-0.032969 v -0.032969 l 0.09226,-0.1012611 v -0.032971 l 0.122309,-0.1342297 h 0.03229 l 0.05997,-0.065937 h 0.02998 l 0.03229,-0.032969 h 0.02998 l 0.02998,-0.035324 h 0.03229 l 0.02998,-0.032969 h 0.06227 l 0.02998,-0.032969 h 0.122243 l 0.03229,-0.032969 h 1.443855 l 0.02998,0.032969 h 0.122244 l 0.03229,0.032969 h 0.05997 l 0.03229,0.032969 h 0.02998 l 0.02998,0.035324 h 0.03229 l 0.02998,0.032969 h 0.02998 l 0.30676,0.3343978 v 0.032969 l 0.03229,0.032969 v 0.032969 l 0.02998,0.032969 v 0.032969 l 0.02998,0.035324 v 0.032969 l 0.03229,0.032969 v 0.065937 l 0.02998,0.032969 v 0.101261 l 0.02998,0.032969 v 0.101261 l 0.03229,0.032969 v 0.065937 l 0.02998,0.032969 v 0.068292 l 0.02998,0.032969 v 0.098906 l 0.03229,0.035324 v 0.06594 l 0.02998,0.03297 v 0.06594 l 0.02998,0.03532 v 0.03297 l 0.06227,0.06594 h 0.336747 l 0.03229,-0.03297 h 0.02998 l 0.02998,-0.03297 h 0.03229 l 0.02998,-0.03297 h 0.02998 l 0.03229,-0.03532 h 0.02998 l 0.02998,-0.03297 h 0.03229 l 0.02998,-0.03297 h 0.02998 l 0.03229,-0.03297 h 0.02998 l 0.02998,-0.03297 h 0.03229 l 0.02998,-0.03297 h 0.02998 l 0.03229,-0.035324 h 0.05997 l 0.03229,-0.032969 h 0.05997 l 0.03229,-0.03297 h 0.152228 l 0.02998,-0.032969 h 0.154534 l 0.02998,0.032969 h 0.124549 l 0.02998,0.03297 h 0.02998 l 0.03229,0.032969 h 0.05997 l 0.06227,0.068291 h 0.02998 l 0.03229,0.03297 h 0.02998 l 0.613524,0.6664414 h 0.03229 V 5.7905941 l -0.03229,-0.035324 v -0.131875 l -0.0299,-0.032969 v -0.068292 l -0.02998,-0.032969 v -0.065937 l -0.03229,-0.032969 v -0.035325 l -0.02999,-0.032969 v -0.032969 l -0.02998,-0.032969 v -0.032969 l -0.06227,-0.068292 V 5.1217987 L 20.496157,4.8556934 h -0.02998 l -0.06227,-0.068292 h -0.02998 l -0.02998,-0.032969 h -0.02998 l -0.03229,-0.032969 h -0.02998 l -0.02998,-0.032969 h -0.03229 l -0.02998,-0.032969 h -0.09226 l -0.02998,-0.032969 h -0.09225 l -0.03229,-0.035324 H 17.05494 l -0.02998,0.035324 h -5.037347 l -0.03229,-0.035324 h -0.152227 l -0.03229,-0.032969 h -0.05997 l -0.03229,-0.032969 h -0.02998 l -0.02998,-0.032969 h -0.03229 l -0.02998,-0.032969 h -0.02998 l -0.06227,-0.068292 h -0.02998 l -0.0923,-0.098908 h -0.03229 L 10.695934,3.6193637 v -0.032969 h -0.02998 l -0.06228,-0.065938 v -0.032969 l -0.276777,-0.301429 h -0.02998 L 10.142379,3.0188608 h -0.02998 L 10.05012,2.952923 H 10.02014 L 9.9578608,2.8869858 H 9.927876 L 9.8978924,2.851662 H 9.8656018 L 9.8356182,2.8186934 H 9.7733424 L 9.7433583,2.7857242 H 9.6810833 L 9.6510992,2.7527554 H 9.5288557 l -0.029984,-0.032969 z" />
</svg>
