<?xml version="1.0" encoding="UTF-8"?>
<svg version="1.1" xmlns="http://www.w3.org/2000/svg" width="143" height="200">
<path d="M0 0 C2.31 0 4.62 0 7 0 C7 3.3 7 6.6 7 10 C8.381875 9.855625 9.76375 9.71125 11.1875 9.5625 C14.99816443 9.17667683 18.80337935 8.87635492 22.625 8.625 C30.182243 8.06852843 37.67579078 7.05773825 45.18945312 6.08862305 C51.47931935 5.28661581 57.74172655 4.6573679 64.0703125 4.24609375 C68.57286669 3.8678792 73.01841202 3.14855872 77.484375 2.47265625 C82.13017822 1.84805382 86.77537585 1.52561778 91.453125 1.24609375 C93.98951635 1.15487363 93.98951635 1.15487363 96 0 C99.47209812 -0.31780298 102.95263925 -0.32412612 106.4375 -0.375 C107.88866211 -0.43107422 107.88866211 -0.43107422 109.36914062 -0.48828125 C111.99912965 -0.5211333 114.41351735 -0.47948381 117 0 C119.00390625 2.11328125 119.00390625 2.11328125 120 5 C120.4228125 6.01191406 120.845625 7.02382812 121.28125 8.06640625 C123.80249869 15.29883437 125.65660889 22.43242126 126.875 30 C127.00712891 30.76900635 127.13925781 31.5380127 127.27539062 32.33032227 C128.28069543 39.26333503 127.76891833 45.97437594 127.17425537 52.93170166 C126.99684084 55.03749723 126.83621663 57.14398356 126.68017578 59.25146484 C124.44198352 89.3127531 124.44198352 89.3127531 122.625 102.9375 C122.53557129 103.70989014 122.44614258 104.48228027 122.35400391 105.27807617 C121.60757314 110.31272273 119.97832504 112.85305868 116 116 C115.34 116 114.68 116 114 116 C114.20625 117.093125 114.4125 118.18625 114.625 119.3125 C115.07403681 122.82482902 114.7950116 125.66734037 114.0625 129.125 C112.13488191 138.5926208 112.63298832 147.64929048 114.44287109 157.07421875 C114.99442741 159.97073535 115.48698094 162.87174954 115.96484375 165.78125 C116.20557617 167.19664062 116.20557617 167.19664062 116.45117188 168.640625 C116.78044996 170.57662146 117.1004975 172.51420665 117.41210938 174.453125 C117.57388672 175.38640625 117.73566406 176.3196875 117.90234375 177.28125 C118.04148193 178.11720703 118.18062012 178.95316406 118.32397461 179.81445312 C119.09288637 182.30029569 120.11938422 183.26198562 122 185 C122.125 187 122.125 187 121 189 C115.31175468 192.11243612 115.31175468 192.11243612 111.8125 191.8125 C109.84158968 190.92898848 107.90421481 190.02011508 106 189 C106.04125 189.78375 106.0825 190.5675 106.125 191.375 C106 194 106 194 104 196 C101.28515625 196.44921875 101.28515625 196.44921875 98.0625 196.6875 C97.00160156 196.77386719 95.94070312 196.86023438 94.84765625 196.94921875 C92 197 92 197 89 196 C85.90680532 195.64350154 82.79684022 195.52546102 79.6875 195.375 C78.29917969 195.30744507 78.29917969 195.30744507 76.8828125 195.23852539 C68.22413047 194.88818672 59.66084585 195.25690381 51.015625 195.74609375 C45.75440144 196.03893544 40.5344385 196.04784164 35.265625 195.9375 C32.96533165 195.8413429 32.96533165 195.8413429 31 197 C26.59985089 197.45524906 22.18385025 197.70725508 17.76928711 197.98486328 C15.57413481 198.12426116 13.37991401 198.27458145 11.18554688 198.42578125 C9.79170971 198.51629029 8.39783055 198.60615542 7.00390625 198.6953125 C5.73361572 198.77797363 4.4633252 198.86063477 3.15454102 198.94580078 C-0 199 -0 199 -3 198 C-4.1875 194.9375 -4.1875 194.9375 -5 192 C-5.928125 192.061875 -6.85625 192.12375 -7.8125 192.1875 C-11 192 -11 192 -12.9375 190.875 C-14.54126193 188.04483189 -13.61378058 186.21107807 -13 183 C-12.68398473 181.17247938 -12.37188206 179.34428025 -12.0625 177.515625 C-11.88976562 176.49726563 -11.71703125 175.47890625 -11.5390625 174.4296875 C-11.36117188 173.38039062 -11.18328125 172.33109375 -11 171.25 C-10.82210938 170.21617187 -10.64421875 169.18234375 -10.4609375 168.1171875 C-9.64513094 163.28322921 -8.91721499 158.49518207 -8.5 153.609375 C-8.15349197 149.79968227 -7.29456047 146.61437504 -6 143 C-5.20219153 139.74700497 -4.53698652 136.47046279 -3.875 133.1875 C-3.69324219 132.33607422 -3.51148438 131.48464844 -3.32421875 130.60742188 C-2.18169469 124.96782001 -1.65041165 119.75693066 -2 114 C-2.66 113.34 -3.32 112.68 -4 112 C-4.046875 109.43359375 -4.046875 109.43359375 -3.75 106.4375 C-3.61851563 104.95056641 -3.61851563 104.95056641 -3.484375 103.43359375 C-3.32453125 102.63050781 -3.1646875 101.82742187 -3 101 C-2.01 100.505 -2.01 100.505 -1 100 C0.23284802 92.79587939 0.61270492 85.14197891 -1 78 C-3.37402417 76.19212694 -3.37402417 76.19212694 -6 75 C-7.54268029 72.26524858 -8.12967623 70.79967011 -7.625 67.6875 C-7.41875 67.130625 -7.2125 66.57375 -7 66 C-6.34 66 -5.68 66 -5 66 C-5.00523682 65.3294458 -5.01047363 64.6588916 -5.01586914 63.96801758 C-5.03671605 60.916188 -5.04968469 57.86437344 -5.0625 54.8125 C-5.07087891 53.75740234 -5.07925781 52.70230469 -5.08789062 51.61523438 C-5.09111328 50.59365234 -5.09433594 49.57207031 -5.09765625 48.51953125 C-5.10289307 47.58214111 -5.10812988 46.64475098 -5.11352539 45.67895508 C-5.00058139 43.01371959 -4.54955513 40.60519989 -4 38 C-3.88177478 35.34130737 -3.81496785 32.72037814 -3.8125 30.0625 C-3.80025391 29.37220703 -3.78800781 28.68191406 -3.77539062 27.97070312 C-3.76287165 23.56819767 -4.47133575 20.10641182 -6 16 C-6.125 13.125 -6.125 13.125 -6 11 C-4.35 10.34 -2.7 9.68 -1 9 C-0.67 6.03 -0.34 3.06 0 0 Z M69.9375 11.375 C68.57443397 11.51410549 67.2113147 11.65269026 65.84814453 11.79077148 C63.81030793 11.99756319 61.77256768 12.20510353 59.73510742 12.41557312 C55.73051509 12.828947 51.72463203 13.21492811 47.71484375 13.57421875 C46.79904541 13.65816895 45.88324707 13.74211914 44.93969727 13.82861328 C43.28571474 13.97944767 41.63126943 14.12532915 39.97631836 14.26513672 C36.97696245 14.54768715 34.36665262 14.84014659 31.58984375 16.05078125 C27.52306184 17.54132123 23.47841874 17.20819455 19.1875 17.125 C18.30384766 17.11597656 17.42019531 17.10695313 16.50976562 17.09765625 C14.33972641 17.07419637 12.16982753 17.03832865 10 17 C10 17.66 10 18.32 10 19 C9.34 19 8.68 19 8 19 C7.67 18.34 7.34 17.68 7 17 C4.87034593 36.849203 2.83419178 56.27474525 5.875 76.1027832 C8.00168787 91.25912641 7.24859243 106.73260011 7 122 C6.34 122 5.68 122 5 122 C3.62339974 128.84985242 2.26311107 135.70258873 0.9375 142.5625 C0.76412109 143.44357422 0.59074219 144.32464844 0.41210938 145.23242188 C-0.39292965 149.41183901 -1.09791926 153.54934853 -1.52734375 157.78515625 C-1.97733815 162.22095525 -3.06106237 166.3343289 -4.28125 170.6171875 C-5.28474088 175.34013916 -5.56285889 180.19144783 -6 185 C12.48 185 30.96 185 50 185 C50.33 184.34 50.66 183.68 51 183 C51.62003906 183.0721875 52.24007812 183.144375 52.87890625 183.21875 C62.48539448 184.22554353 72.15601276 184.5652128 81.76953125 183.49609375 C87.23230314 182.91378629 92.63630625 182.88739254 98.125 182.9375 C99.55972656 182.94426758 99.55972656 182.94426758 101.0234375 182.95117188 C103.34902758 182.96279983 105.6744776 182.97913898 108 183 C107.93941406 182.1234375 107.87882812 181.246875 107.81640625 180.34375 C107.17612515 170.65087916 106.72600362 160.9605086 106.39282227 151.25195312 C106.21114952 146.4020461 105.85235666 141.78376918 105 137 C104.74262425 134.12849409 104.58605411 131.25396036 104.4375 128.375 C104.3950415 127.58754395 104.35258301 126.80008789 104.30883789 125.98876953 C103.98803059 119.65653689 103.88811439 113.34018466 104 107 C104.66 107 105.32 107 106 107 C106.74663778 100.10551493 107.2528859 93.22231626 107.62109375 86.296875 C108.00565885 82.95076214 108.9271627 80.17973466 110 77 C110.23773983 74.48636986 110.23773983 74.48636986 110.125 72.125 C110.10695313 71.34382813 110.08890625 70.56265625 110.0703125 69.7578125 C110.04710938 69.17773438 110.02390625 68.59765625 110 68 C110.99 67.67 111.98 67.34 113 67 C114.21212774 64.77977039 114.21212774 64.77977039 115.125 62.125 C115.62386719 60.79855469 115.62386719 60.79855469 116.1328125 59.4453125 C118.27503302 53.40463663 118.14381118 48.39021853 118 42 C117.98211426 41.15211914 117.96422852 40.30423828 117.94580078 39.43066406 C117.87709751 36.55716223 117.78497601 33.68516127 117.6875 30.8125 C117.65390381 29.42357544 117.65390381 29.42357544 117.61962891 28.0065918 C117.37809752 21.8803286 116.26712903 16.69803344 114 11 C112.1746875 11.2784375 112.1746875 11.2784375 110.3125 11.5625 C105.74109154 12.13594523 102.35585753 11.45195251 98 10 C88.59954948 9.4735959 79.27695951 10.39579727 69.9375 11.375 Z " fill="#111111" transform="translate(14,0)"/>
<path d="M0 0 C2.31 0 4.62 0 7 0 C7 3.3 7 6.6 7 10 C8.381875 9.855625 9.76375 9.71125 11.1875 9.5625 C14.99816443 9.17667683 18.80337935 8.87635492 22.625 8.625 C30.182243 8.06852843 37.67579078 7.05773825 45.18945312 6.08862305 C51.49101559 5.28512445 57.76470753 4.6532986 64.10546875 4.24609375 C67.25042261 3.97870901 70.32156624 3.50162506 73.4375 3 C83.22434798 1.51142153 93.11824973 1.33019703 103 1 C103 1.99 103 2.98 103 4 C103.99 4 104.98 4 106 4 C106 4.99 106 5.98 106 7 C107.32 6.67 108.64 6.34 110 6 C110 7.32 110 8.64 110 10 C107.41704631 10.92986333 105.8528405 10.97653403 103.109375 10.5390625 C97.70223565 9.70995374 92.27081816 9.8157587 86.8125 9.8125 C85.22211914 9.79413086 85.22211914 9.79413086 83.59960938 9.77539062 C77.13567094 9.76357355 71.05113674 10.31117621 64.69946289 11.52026367 C62.00609904 11.99891611 59.35068451 12.28163596 56.625 12.5 C53.84173716 12.74661823 51.78731359 13.07397788 49.125 14 C45.06431961 15.29941772 41.14565026 15.43780436 36.90234375 15.65625 C34.01694336 15.86053007 34.01694336 15.86053007 31.6015625 17.01953125 C28.13047998 18.32770199 25.13559074 18.22789622 21.4375 18.1875 C20.13683594 18.18105469 18.83617187 18.17460937 17.49609375 18.16796875 C14.77479165 18.03722463 12.57254097 17.81823822 10 17 C10 17.66 10 18.32 10 19 C9.34 19 8.68 19 8 19 C5.62869403 38.52298506 4.02061461 57.50351406 6.87280273 77.04492188 C8.96840594 91.90044724 8.60182969 107.09726307 7 122 C6.34 122 5.68 122 5 122 C4.95681641 122.72268066 4.91363281 123.44536133 4.86914062 124.18994141 C4.33852239 131.7585534 3.14142358 138.97452453 1.5 146.375 C1.05109395 148.4450982 0.60314663 150.51540458 0.15625 152.5859375 C-0.05 153.53662109 -0.25625 154.48730469 -0.46875 155.46679688 C-1.06285029 158.29969422 -1.54815521 161.14121277 -2 164 C-2.32714796 165.58462291 -2.66024837 167.16803148 -3 168.75 C-4.03237072 173.81940249 -4.55833668 178.84726124 -5 184 C-0.38 184.33 4.24 184.66 9 185 C9.495 186.98 9.495 186.98 10 189 C5.38 189 0.76 189 -4 189 C-4 188.34 -4 187.68 -4 187 C-4.66 187 -5.32 187 -6 187 C-5.67 188.32 -5.34 189.64 -5 191 C-10.41139241 192.32278481 -10.41139241 192.32278481 -12.9375 190.9375 C-14.52048232 188.05088518 -13.622808 186.25478758 -13 183 C-12.68395566 181.17248441 -12.37185681 179.34428452 -12.0625 177.515625 C-11.88976562 176.49726563 -11.71703125 175.47890625 -11.5390625 174.4296875 C-11.36117188 173.38039062 -11.18328125 172.33109375 -11 171.25 C-10.82210938 170.21617187 -10.64421875 169.18234375 -10.4609375 168.1171875 C-9.64513094 163.28322921 -8.91721499 158.49518207 -8.5 153.609375 C-8.15349197 149.79968227 -7.29456047 146.61437504 -6 143 C-5.20219153 139.74700497 -4.53698652 136.47046279 -3.875 133.1875 C-3.69324219 132.33607422 -3.51148438 131.48464844 -3.32421875 130.60742188 C-2.18169469 124.96782001 -1.65041165 119.75693066 -2 114 C-2.66 113.34 -3.32 112.68 -4 112 C-4.046875 109.43359375 -4.046875 109.43359375 -3.75 106.4375 C-3.61851563 104.95056641 -3.61851563 104.95056641 -3.484375 103.43359375 C-3.32453125 102.63050781 -3.1646875 101.82742187 -3 101 C-2.01 100.505 -2.01 100.505 -1 100 C0.23284802 92.79587939 0.61270492 85.14197891 -1 78 C-3.37402417 76.19212694 -3.37402417 76.19212694 -6 75 C-7.54268029 72.26524858 -8.12967623 70.79967011 -7.625 67.6875 C-7.41875 67.130625 -7.2125 66.57375 -7 66 C-6.34 66 -5.68 66 -5 66 C-5.00523682 65.3294458 -5.01047363 64.6588916 -5.01586914 63.96801758 C-5.03671605 60.916188 -5.04968469 57.86437344 -5.0625 54.8125 C-5.07087891 53.75740234 -5.07925781 52.70230469 -5.08789062 51.61523438 C-5.09111328 50.59365234 -5.09433594 49.57207031 -5.09765625 48.51953125 C-5.10289307 47.58214111 -5.10812988 46.64475098 -5.11352539 45.67895508 C-5.00058139 43.01371959 -4.54955513 40.60519989 -4 38 C-3.88177478 35.34130737 -3.81496785 32.72037814 -3.8125 30.0625 C-3.80025391 29.37220703 -3.78800781 28.68191406 -3.77539062 27.97070312 C-3.76287165 23.56819767 -4.47133575 20.10641182 -6 16 C-6.125 13.125 -6.125 13.125 -6 11 C-4.35 10.34 -2.7 9.68 -1 9 C-0.67 6.03 -0.34 3.06 0 0 Z " fill="#131313" transform="translate(14,0)"/>
<path d="M0 0 C0.33 0 0.66 0 1 0 C1.18175781 1.26457031 1.36351562 2.52914062 1.55078125 3.83203125 C1.8040405 5.49228632 2.05798239 7.15243737 2.3125 8.8125 C2.48942383 10.06256836 2.48942383 10.06256836 2.66992188 11.33789062 C2.85844727 12.54155273 2.85844727 12.54155273 3.05078125 13.76953125 C3.16075439 14.50792236 3.27072754 15.24631348 3.3840332 16.00708008 C4.1147819 18.37136927 5.22163964 19.32954622 7 21 C7.125 23 7.125 23 6 25 C0.31175468 28.11243612 0.31175468 28.11243612 -3.1875 27.8125 C-5.15841032 26.92898848 -7.09578519 26.02011508 -9 25 C-8.95875 25.78375 -8.9175 26.5675 -8.875 27.375 C-9 30 -9 30 -11 32 C-13.71484375 32.44921875 -13.71484375 32.44921875 -16.9375 32.6875 C-17.99839844 32.77386719 -19.05929688 32.86023438 -20.15234375 32.94921875 C-23 33 -23 33 -26 32 C-29.09319468 31.64350154 -32.20315978 31.52546102 -35.3125 31.375 C-36.23804687 31.32996338 -37.16359375 31.28492676 -38.1171875 31.23852539 C-46.77586953 30.88818672 -55.33915415 31.25690381 -63.984375 31.74609375 C-69.24559856 32.03893544 -74.4655615 32.04784164 -79.734375 31.9375 C-82.03466835 31.8413429 -82.03466835 31.8413429 -84 33 C-88.40014911 33.45524906 -92.81614975 33.70725508 -97.23071289 33.98486328 C-99.42586519 34.12426116 -101.62008599 34.27458145 -103.81445312 34.42578125 C-105.20829029 34.51629029 -106.60216945 34.60615542 -107.99609375 34.6953125 C-109.26638428 34.77797363 -110.5366748 34.86063477 -111.84545898 34.94580078 C-115 35 -115 35 -118 34 C-118.94921875 31.49609375 -118.94921875 31.49609375 -119.6875 28.4375 C-119.93886719 27.42558594 -120.19023438 26.41367188 -120.44921875 25.37109375 C-120.63097656 24.58863281 -120.81273438 23.80617187 -121 23 C-120.34 23 -119.68 23 -119 23 C-119 23.66 -119 24.32 -119 25 C-118.175 24.814375 -117.35 24.62875 -116.5 24.4375 C-112.38073281 23.9225916 -109.09176645 24.36507072 -105 25 C-105.33 23.68 -105.66 22.36 -106 21 C-104.21384277 20.970271 -104.21384277 20.970271 -102.39160156 20.93994141 C-97.97081468 20.86383005 -93.55035457 20.77512106 -89.12988281 20.68261719 C-87.21718805 20.64435032 -85.30442189 20.60949342 -83.39160156 20.578125 C-80.64101658 20.53242473 -77.89092217 20.47443855 -75.140625 20.4140625 C-73.85916595 20.39673569 -73.85916595 20.39673569 -72.55181885 20.37905884 C-71.75129089 20.35918915 -70.95076294 20.33931946 -70.12597656 20.31884766 C-69.07340668 20.29886215 -69.07340668 20.29886215 -67.99957275 20.2784729 C-65.92369911 20.10218117 -65.92369911 20.10218117 -63.98040771 18.95663452 C-61.17003006 17.59908362 -58.82660819 18.28641075 -55.8203125 18.703125 C-48.4031246 19.48388162 -40.71534533 19.41879286 -33.3125 18.5 C-24.94996536 17.4850599 -16.40822732 17.92653005 -8 18 C-8.495 12.06 -8.495 12.06 -9 6 C-7.68 5.67 -6.36 5.34 -5 5 C-4.01 7.97 -4.01 7.97 -3 11 C-1.95550089 7.86650268 -2.06576355 7.01031744 -3 4 C-3.66 4 -4.32 4 -5 4 C-5 3.34 -5 2.68 -5 2 C-3.35 2.33 -1.7 2.66 0 3 C0 2.01 0 1.02 0 0 Z " fill="#101010" transform="translate(129,164)"/>
<path d="M0 0 C0.96744141 -0.03287109 1.93488281 -0.06574219 2.93164062 -0.09960938 C5.56498066 -0.11971121 7.9764146 -0.06107496 10.5625 0.4375 C12.56640625 2.5546875 12.56640625 2.5546875 13.5625 5.4375 C13.9853125 6.44941406 14.408125 7.46132812 14.84375 8.50390625 C17.36499869 15.73633437 19.21910889 22.86992126 20.4375 30.4375 C20.56962891 31.20650635 20.70175781 31.9755127 20.83789062 32.76782227 C21.84096685 39.68546579 21.33974579 46.38195858 20.7432251 53.32391357 C20.55543868 55.52008238 20.3815265 57.71702022 20.21044922 59.91455078 C19.90464907 63.81743012 19.58546365 67.71905484 19.26025391 71.62036133 C19.06012376 74.02859403 18.86400095 76.43713378 18.66796875 78.84570312 C18.53930473 80.39845759 18.4104072 81.95119273 18.28125 83.50390625 C18.223927 84.21333878 18.166604 84.9227713 18.10754395 85.65370178 C17.77220517 89.62323584 17.27478057 93.51804624 16.5625 97.4375 C16.2325 97.4375 15.9025 97.4375 15.5625 97.4375 C15.8925 90.5075 16.2225 83.5775 16.5625 76.4375 C15.2425 76.7675 13.9225 77.0975 12.5625 77.4375 C12.0675 78.9225 12.0675 78.9225 11.5625 80.4375 C13.5425 80.9325 13.5425 80.9325 15.5625 81.4375 C15.5625 82.0975 15.5625 82.7575 15.5625 83.4375 C13.5825 83.4375 11.6025 83.4375 9.5625 83.4375 C8.76296862 80.15053767 8.46591064 78.72726808 9.5625 75.4375 C12.27129335 74.08310332 14.57183268 74.37248549 17.5625 74.4375 C17.5625 71.7975 17.5625 69.1575 17.5625 66.4375 C14.59184491 66.77977572 14.59184491 66.77977572 11.5625 67.4375 C11.2325 68.0975 10.9025 68.7575 10.5625 69.4375 C9.9025 70.0975 9.2425 70.7575 8.5625 71.4375 C8.5625 72.7575 8.5625 74.0775 8.5625 75.4375 C7.5725 75.9325 7.5725 75.9325 6.5625 76.4375 C6.76875 77.22125 6.975 78.005 7.1875 78.8125 C7.31125 79.67875 7.435 80.545 7.5625 81.4375 C6.9025 82.0975 6.2425 82.7575 5.5625 83.4375 C3.64070978 87.95935934 3.24855029 92.25724837 2.84765625 97.08984375 C2.52083767 99.78050083 1.77371027 102.01507946 0.5625 104.4375 C-1.7705951 96.07568717 0.01580485 87.80320151 1.5625 79.4375 C2.22395737 75.693835 2.67442009 72.24278308 2.5625 68.4375 C4.5425 67.9425 4.5425 67.9425 6.5625 67.4375 C6.76746094 66.58285156 6.97242188 65.72820312 7.18359375 64.84765625 C7.45300781 63.74292969 7.72242188 62.63820312 8 61.5 C8.26683594 60.39785156 8.53367188 59.29570313 8.80859375 58.16015625 C9.5625 55.4375 9.5625 55.4375 10.5625 54.4375 C11.08643884 46.74792698 10.48361139 38.88062777 10.1875 31.1875 C10.14133545 29.78624878 10.14133545 29.78624878 10.09423828 28.35668945 C9.85526015 22.77739304 9.11245783 17.80564664 7.5625 12.4375 C5.7371875 12.7159375 5.7371875 12.7159375 3.875 13 C-0.69640846 13.57344523 -4.08164247 12.88945251 -8.4375 11.4375 C-18.93329017 10.8047786 -29.3489228 12.11438713 -39.75610352 13.30664062 C-41.80916703 13.53919669 -43.86331145 13.75861196 -45.91796875 13.9765625 C-47.12348389 14.11271973 -48.32899902 14.24887695 -49.57104492 14.38916016 C-50.5169751 14.4051123 -51.46290527 14.42106445 -52.4375 14.4375 C-53.0975 13.7775 -53.7575 13.1175 -54.4375 12.4375 C-53.15875 12.30472656 -51.88 12.17195312 -50.5625 12.03515625 C-48.85416223 11.8568133 -47.14582915 11.67842549 -45.4375 11.5 C-44.59832031 11.41298828 -43.75914063 11.32597656 -42.89453125 11.23632812 C-39.06575552 10.83564229 -35.24964248 10.41582773 -31.4375 9.87890625 C-26.77334786 9.2859361 -22.1331625 9.29115608 -17.4375 9.3125 C-16.58671875 9.30863281 -15.7359375 9.30476562 -14.859375 9.30078125 C-9.6295697 9.30880242 -4.61296723 9.68274436 0.5625 10.4375 C0.5625 9.7775 0.5625 9.1175 0.5625 8.4375 C1.5525 8.4375 2.5425 8.4375 3.5625 8.4375 C2.2425 8.1075 0.9225 7.7775 -0.4375 7.4375 C-0.4375 6.4475 -0.4375 5.4575 -0.4375 4.4375 C-1.4275 4.4375 -2.4175 4.4375 -3.4375 4.4375 C-3.4375 3.4475 -3.4375 2.4575 -3.4375 1.4375 C-7.8925 1.9325 -7.8925 1.9325 -12.4375 2.4375 C-9.07189666 -0.92810334 -4.56823796 0.02728211 0 0 Z " fill="#232223" transform="translate(120.4375,-0.4375)"/>
<path d="M0 0 C2.31 0 4.62 0 7 0 C7 3.3 7 6.6 7 10 C8.381875 9.855625 9.76375 9.71125 11.1875 9.5625 C14.99816443 9.17667683 18.80337935 8.87635492 22.625 8.625 C30.182243 8.06852843 37.67579078 7.05773825 45.18945312 6.08862305 C51.49101559 5.28512445 57.76470753 4.6532986 64.10546875 4.24609375 C67.25042261 3.97870901 70.32156624 3.50162506 73.4375 3 C83.22434798 1.51142153 93.11824973 1.33019703 103 1 C103 1.99 103 2.98 103 4 C103.99 4 104.98 4 106 4 C106 4.99 106 5.98 106 7 C107.32 6.67 108.64 6.34 110 6 C110 7.32 110 8.64 110 10 C107.41704631 10.92986333 105.8528405 10.97653403 103.109375 10.5390625 C97.70223565 9.70995374 92.27081816 9.8157587 86.8125 9.8125 C85.22211914 9.79413086 85.22211914 9.79413086 83.59960938 9.77539062 C77.13567094 9.76357355 71.05113674 10.31117621 64.69946289 11.52026367 C62.00609904 11.99891611 59.35068451 12.28163596 56.625 12.5 C53.84173716 12.74661823 51.78731359 13.07397788 49.125 14 C45.06431961 15.29941772 41.14565026 15.43780436 36.90234375 15.65625 C34.01745846 15.86111908 34.01745846 15.86111908 31.6015625 17.015625 C28.13591975 18.32694928 25.13255207 18.26467747 21.4375 18.25 C19.48650391 18.25773437 19.48650391 18.25773437 17.49609375 18.265625 C14.33170587 18.02520223 12.62642478 17.68411971 10 16 C13.47325181 14.8422494 16.36067448 14.93133348 20 15 C20 14.01 20 13.02 20 12 C16.04 11.67 12.08 11.34 8 11 C8 11.66 8 12.32 8 13 C5.69 12.67 3.38 12.34 1 12 C1 12.99 1 13.98 1 15 C1.99 15 2.98 15 4 15 C4 15.66 4 16.32 4 17 C2.02 17.33 0.04 17.66 -2 18 C-2 18.66 -2 19.32 -2 20 C-1.34 20 -0.68 20 0 20 C0 20.66 0 21.32 0 22 C-0.66 22 -1.32 22 -2 22 C-2.33 23.32 -2.66 24.64 -3 26 C-3.19916016 25.04287109 -3.19916016 25.04287109 -3.40234375 24.06640625 C-3.57894531 23.24011719 -3.75554688 22.41382812 -3.9375 21.5625 C-4.11152344 20.73878906 -4.28554687 19.91507813 -4.46484375 19.06640625 C-4.80752994 17.02338796 -4.80752994 17.02338796 -6 16 C-6.04063832 14.33382885 -6.042721 12.66611905 -6 11 C-4.35 10.34 -2.7 9.68 -1 9 C-0.67 6.03 -0.34 3.06 0 0 Z " fill="#1F1E1E" transform="translate(14,0)"/>
<path d="M0 0 C1.23169922 -0.00128906 2.46339844 -0.00257813 3.73242188 -0.00390625 C5.63411133 0.00189453 5.63411133 0.00189453 7.57421875 0.0078125 C8.86134766 0.00394531 10.14847656 0.00007812 11.47460938 -0.00390625 C13.31249023 -0.00197266 13.31249023 -0.00197266 15.1875 0 C16.86453003 0.00169189 16.86453003 0.00169189 18.57543945 0.00341797 C21.26171875 0.1328125 21.26171875 0.1328125 23.26171875 1.1328125 C23.26171875 2.7828125 23.26171875 4.4328125 23.26171875 6.1328125 C22.57658203 6.12757568 21.89144531 6.12233887 21.18554688 6.11694336 C18.04428038 6.09599805 14.90302864 6.0830969 11.76171875 6.0703125 C10.14523438 6.05774414 10.14523438 6.05774414 8.49609375 6.04492188 C1.7502457 6.01853573 1.7502457 6.01853573 -4.95703125 6.640625 C-9.27094594 7.20214695 -13.39968193 7.15983772 -17.73828125 7.0703125 C-25.26104573 6.98886236 -32.42039829 7.55907195 -39.859375 8.625 C-45.14066864 9.31640803 -50.40977101 9.60986138 -55.7265625 9.88671875 C-58.78579514 10.01647493 -58.78579514 10.01647493 -61.73828125 11.1328125 C-65.36328125 11.2578125 -65.36328125 11.2578125 -68.73828125 11.1328125 C-69.73828125 10.1328125 -69.73828125 10.1328125 -69.80078125 7.5703125 C-69.78015625 6.7659375 -69.75953125 5.9615625 -69.73828125 5.1328125 C-61.93846963 3.32071259 -54.21870763 2.53889678 -46.23828125 2.0078125 C-44.39520386 1.87934937 -44.39520386 1.87934937 -42.51489258 1.74829102 C-34.7784618 1.2408428 -27.08422282 0.93967217 -19.33203125 1.11865234 C-16.28563031 1.18325915 -13.45077683 1.08990551 -10.43212891 0.6394043 C-6.90053274 0.15506444 -3.56123855 0.00357477 0 0 Z " fill="#595859" transform="translate(89.73828125,171.8671875)"/>
<path d="M0 0 C1.29429932 -0.009104 2.58859863 -0.01820801 3.92211914 -0.02758789 C5.14020264 -0.02364014 6.35828613 -0.01969238 7.61328125 -0.015625 C8.71067627 -0.01336914 9.80807129 -0.01111328 10.9387207 -0.00878906 C13.6875 0.25 13.6875 0.25 16.6875 2.25 C16.3575 3.9 16.0275 5.55 15.6875 7.25 C14.64916016 7.23428955 14.64916016 7.23428955 13.58984375 7.21826172 C-7.13624218 6.94860414 -27.43551593 7.74103071 -47.89379883 11.20751953 C-54.01344517 12.24361476 -60.11353687 12.89117778 -66.3125 13.25 C-66.6425 10.94 -66.9725 8.63 -67.3125 6.25 C-66.43513184 6.16435791 -65.55776367 6.07871582 -64.65380859 5.99047852 C-61.37727829 5.66967054 -58.10093808 5.34703765 -54.82470703 5.02319336 C-53.41071575 4.88379714 -51.99665397 4.74511407 -50.58251953 4.60717773 C-48.54179933 4.40799539 -46.50135223 4.20619104 -44.4609375 4.00390625 C-42.62281494 3.82323608 -42.62281494 3.82323608 -40.74755859 3.63891602 C-37.57531044 3.2797553 -34.45531218 2.80683375 -31.3125 2.25 C-20.86400823 0.42650526 -10.60062018 0.03711291 0 0 Z " fill="#7B7A7B" transform="translate(103.3125,77.75)"/>
<path d="M0 0 C0.79019531 -0.01853027 1.58039063 -0.03706055 2.39453125 -0.05615234 C3.09771484 -0.07653564 3.80089844 -0.09691895 4.52539062 -0.11791992 C6.89637116 0.12357942 8.49355691 0.91690393 10.55078125 2.08837891 C10.22078125 3.73837891 9.89078125 5.38837891 9.55078125 7.08837891 C8.87200928 7.07790527 8.1932373 7.06743164 7.49389648 7.05664062 C-9.65535624 6.79291507 -9.65535624 6.79291507 -26.68359375 8.51416016 C-32.29163022 9.36932754 -37.92865446 9.86256645 -43.57543945 10.390625 C-47.90636384 10.80400188 -52.16046883 11.34062856 -56.44921875 12.08837891 C-58.82902191 12.35403135 -61.20969104 12.58349859 -63.59375 12.80712891 C-65.46109211 12.90253599 -65.46109211 12.90253599 -66.44921875 14.08837891 C-69.88671875 14.33837891 -69.88671875 14.33837891 -73.44921875 14.08837891 C-75.44921875 11.08837891 -75.44921875 11.08837891 -75.07421875 8.90087891 C-74.86796875 8.30275391 -74.66171875 7.70462891 -74.44921875 7.08837891 C-71.65977438 6.32536646 -69.00589426 5.8896637 -66.125 5.65869141 C-64.84870728 5.5512561 -64.84870728 5.5512561 -63.54663086 5.44165039 C-62.62760986 5.3663208 -61.70858887 5.29099121 -60.76171875 5.21337891 C-52.44112358 4.50351577 -44.16994665 3.5822589 -35.88671875 2.52587891 C-23.92169865 1.02503692 -12.03822514 0.43439369 0 0 Z " fill="#878586" transform="translate(110.44921875,25.91162109375)"/>
<path d="M0 0 C1.00546875 0.00902344 2.0109375 0.01804688 3.046875 0.02734375 C3.77390625 0.03894531 4.5009375 0.05054688 5.25 0.0625 C6.3125 1.9375 6.3125 1.9375 7.25 4.0625 C6.92 4.7225 6.59 5.3825 6.25 6.0625 C1.69055118 7.12798576 -2.90249141 7.2557697 -7.5625 7.4375 C-22.90490766 8.15405444 -38.22438995 10.25698598 -53.390625 12.6328125 C-55.17726563 12.90738281 -55.17726563 12.90738281 -57 13.1875 C-58.20140625 13.37570313 -59.4028125 13.56390625 -60.640625 13.7578125 C-63.75 14.0625 -63.75 14.0625 -66.75 13.0625 C-66.79254356 11.06295254 -66.79080783 9.06208364 -66.75 7.0625 C-64.92598975 5.23848975 -62.35873639 5.89041514 -59.921875 5.82226562 C-49.26899363 5.51999829 -38.90947468 4.21478491 -28.39306641 2.5222168 C-18.96200227 1.01519108 -9.56733118 -0.1138968 0 0 Z " fill="#828182" transform="translate(108.75,51.9375)"/>
<path d="M0 0 C0.82360016 -0.00570007 1.64720032 -0.01140015 2.49575806 -0.01727295 C4.21835067 -0.02663898 5.94096053 -0.03322305 7.66357422 -0.03710938 C10.30336724 -0.04692821 12.94241652 -0.07807329 15.58203125 -0.109375 C17.26301625 -0.11589595 18.94400676 -0.12114997 20.625 -0.125 C21.8062294 -0.1435202 21.8062294 -0.1435202 23.01132202 -0.16241455 C28.39409746 -0.14033122 28.39409746 -0.14033122 30.93212891 1.53613281 C31.9140625 3.203125 31.9140625 3.203125 31.9140625 6.203125 C30.85662842 6.19526978 30.85662842 6.19526978 29.77783203 6.18725586 C26.53158487 6.16625229 23.2853521 6.15339131 20.0390625 6.140625 C18.93046875 6.13224609 17.821875 6.12386719 16.6796875 6.11523438 C11.64289699 6.10042029 6.72181955 6.15956798 1.71875 6.76953125 C-1.61461191 7.16285323 -4.49806595 7.10916478 -7.8203125 6.6484375 C-14.45100022 5.84228274 -20.78391018 7.0366975 -27.3359375 8.078125 C-28.57601562 8.26503906 -29.81609375 8.45195312 -31.09375 8.64453125 C-36.43202618 9.4538828 -41.76122072 10.30901215 -47.0859375 11.203125 C-48.02017395 8.19280756 -48.13043661 7.33662232 -47.0859375 4.203125 C-44.45344885 2.88688067 -42.24124584 2.90273529 -39.30078125 2.703125 C-37.54411133 2.579375 -37.54411133 2.579375 -35.75195312 2.453125 C-34.52154297 2.370625 -33.29113281 2.288125 -32.0234375 2.203125 C-29.61577524 2.03805764 -27.2082199 1.87142219 -24.80078125 1.703125 C-23.72948975 1.6309375 -22.65819824 1.55875 -21.55444336 1.484375 C-18.93172954 1.27170756 -16.34451139 0.99994349 -13.73413086 0.68457031 C-9.14840984 0.16397008 -4.6122848 0.02528133 0 0 Z " fill="#080708" transform="translate(71.0859375,140.796875)"/>
<path d="M0 0 C-0.66 0.33 -1.32 0.66 -2 1 C-2 1.66 -2 2.32 -2 3 C-0.68 3 0.64 3 2 3 C2.99 3.495 2.99 3.495 4 4 C3.67 4.66 3.34 5.32 3 6 C6.63 6 10.26 6 14 6 C14 6.66 14 7.32 14 8 C12.06325815 8.19517554 10.12555991 8.38087873 8.1875 8.5625 C7.10855469 8.66691406 6.02960938 8.77132812 4.91796875 8.87890625 C2 9 2 9 -1 8 C-4.09319468 7.64350154 -7.20315978 7.52546102 -10.3125 7.375 C-11.23804688 7.32996338 -12.16359375 7.28492676 -13.1171875 7.23852539 C-21.77975602 6.88802947 -30.34695095 7.25760914 -38.99609375 7.74609375 C-44.15637378 8.0331544 -49.27365378 8.04969001 -54.44140625 7.9375 C-57.07056473 8.00172372 -59.44203003 8.40792015 -62 9 C-61.67 7.68 -61.34 6.36 -61 5 C-62.98 5 -64.96 5 -67 5 C-67 4.34 -67 3.68 -67 3 C-44.71255822 0.893593 -22.3927391 -0.30862887 0 0 Z " fill="#212122" transform="translate(104,188)"/>
<path d="M0 0 C7.26 0 14.52 0 22 0 C22.495 2.475 22.495 2.475 23 5 C23.99 5.33 24.98 5.66 26 6 C22.04 6 18.08 6 14 6 C14 6.66 14 7.32 14 8 C15.98 8 17.96 8 20 8 C19.67 9.32 19.34 10.64 19 12 C15.06787028 12.31090196 11.1352156 12.61383478 7.2019043 12.90942383 C5.20654378 13.06105285 3.21166459 13.21897295 1.21679688 13.37695312 C-0.03681641 13.47041016 -1.29042969 13.56386719 -2.58203125 13.66015625 C-4.31803589 13.79369507 -4.31803589 13.79369507 -6.08911133 13.92993164 C-9 14 -9 14 -12 13 C-12.94921875 10.49609375 -12.94921875 10.49609375 -13.6875 7.4375 C-13.93886719 6.42558594 -14.19023437 5.41367188 -14.44921875 4.37109375 C-14.63097656 3.58863281 -14.81273437 2.80617187 -15 2 C-14.34 2 -13.68 2 -13 2 C-13 2.66 -13 3.32 -13 4 C-12.175 3.814375 -11.35 3.62875 -10.5 3.4375 C-6.38073281 2.9225916 -3.09176645 3.36507072 1 4 C0.67 2.68 0.34 1.36 0 0 Z " fill="#161617" transform="translate(23,185)"/>
<path d="M0 0 C-0.33 1.65 -0.66 3.3 -1 5 C-4.59290338 5.82163136 -7.9149269 6.12845755 -11.59765625 6.1328125 C-12.64630859 6.13410156 -13.69496094 6.13539063 -14.77539062 6.13671875 C-15.86013672 6.13285156 -16.94488281 6.12898437 -18.0625 6.125 C-19.15111328 6.12886719 -20.23972656 6.13273438 -21.36132812 6.13671875 C-22.93237305 6.13478516 -22.93237305 6.13478516 -24.53515625 6.1328125 C-25.487854 6.13168457 -26.44055176 6.13055664 -27.42211914 6.12939453 C-29.76713305 6.01168856 -31.75655305 5.6651409 -34 5 C-34 5.66 -34 6.32 -34 7 C-34.66 7 -35.32 7 -36 7 C-36 6.34 -36 5.68 -36 5 C-36.99 5.495 -36.99 5.495 -38 6 C-40.37402501 6.07116382 -42.75000677 6.08409085 -45.125 6.0625 C-46.40632813 6.05347656 -47.68765625 6.04445312 -49.0078125 6.03515625 C-49.99523438 6.02355469 -50.98265625 6.01195312 -52 6 C-52 6.66 -52 7.32 -52 8 C-53.6260287 7.93999894 -55.25101549 7.8512115 -56.875 7.75 C-58.23238281 7.68039063 -58.23238281 7.68039063 -59.6171875 7.609375 C-62 7 -62 7 -63.3203125 4.953125 C-63.54460938 4.30859375 -63.76890625 3.6640625 -64 3 C-60.94030176 0.96020118 -59.72359972 0.64383961 -56.1875 0.3125 C-55.35605469 0.22613281 -54.52460937 0.13976562 -53.66796875 0.05078125 C-51 0 -51 0 -48.046875 0.5078125 C-44.85565514 1.02331725 -42.27205976 0.8903365 -39.0625 0.5625 C-31.24979583 -0.10044697 -23.4815887 -0.05691745 -15.64477539 0.03735352 C-14.2041272 0.04980103 -14.2041272 0.04980103 -12.734375 0.0625 C-11.87038086 0.07410156 -11.00638672 0.08570313 -10.11621094 0.09765625 C-1.5267809 -0.298718 -1.5267809 -0.298718 0 0 Z " fill="#090909" transform="translate(90,160)"/>
<path d="M0 0 C0.33 1.32 0.66 2.64 1 4 C1.66 4 2.32 4 3 4 C3 4.99 3 5.98 3 7 C2.34 7 1.68 7 1 7 C0.67 8.65 0.34 10.3 0 12 C0.99 12 1.98 12 3 12 C3 12.66 3 13.32 3 14 C3.99 14 4.98 14 6 14 C6.33 12.02 6.66 10.04 7 8 C7.33 8 7.66 8 8 8 C8.31032174 16.01664496 7.76078707 23.89250934 7.0625 31.875 C6.97564941 32.87345947 6.88879883 33.87191895 6.79931641 34.90063477 C6.36826841 39.63937405 5.88069109 44.31884917 5 49 C4.67 49 4.34 49 4 49 C4.33 42.07 4.66 35.14 5 28 C3.68 28.33 2.36 28.66 1 29 C0.67 29.99 0.34 30.98 0 32 C1.32 32.33 2.64 32.66 4 33 C4 33.66 4 34.32 4 35 C2.02 35 0.04 35 -2 35 C-2.79953138 31.71303767 -3.09658936 30.28976808 -2 27 C0.70879335 25.64560332 3.00933268 25.93498549 6 26 C6 23.36 6 20.72 6 18 C3.02934491 18.34227572 3.02934491 18.34227572 0 19 C-0.33 19.66 -0.66 20.32 -1 21 C-1.66 21.66 -2.32 22.32 -3 23 C-3 24.32 -3 25.64 -3 27 C-3.66 27.33 -4.32 27.66 -5 28 C-4.79375 28.78375 -4.5875 29.5675 -4.375 30.375 C-4.25125 31.24125 -4.1275 32.1075 -4 33 C-4.66 33.66 -5.32 34.32 -6 35 C-7.92179022 39.52185934 -8.31394971 43.81974837 -8.71484375 48.65234375 C-9.04166233 51.34300083 -9.78878973 53.57757946 -11 56 C-13.3330951 47.63818717 -11.54669515 39.36570151 -10 31 C-9.33854263 27.256335 -8.88807991 23.80528308 -9 20 C-7.68 19.67 -6.36 19.34 -5 19 C-4.80664062 18.21496094 -4.61328125 17.42992188 -4.4140625 16.62109375 C-3.03346779 11.0508725 -1.62611553 5.50377563 0 0 Z " fill="#434243" transform="translate(132,48)"/>
<path d="M0 0 C0 0.66 0 1.32 0 2 C0.66 2 1.32 2 2 2 C2 1.34 2 0.68 2 0 C3.98 0 5.96 0 8 0 C8.495 2.97 8.495 2.97 9 6 C6.15687833 6.94770722 4.56283013 7.09550502 1.6328125 7.02734375 C0.75641113 7.01380859 -0.11999023 7.00027344 -1.02294922 6.98632812 C-2.43471436 6.9621582 -2.43471436 6.9621582 -3.875 6.9375 C-15.02264023 6.82589339 -25.93376554 7.73270117 -37 9 C-37.33 7.02 -37.66 5.04 -38 3 C-34.50666507 1.83555502 -31.20167798 1.66564037 -27.55859375 1.46484375 C-26.83511246 1.42186661 -26.11163116 1.37888947 -25.3662262 1.33460999 C-23.05685581 1.19842022 -20.7472001 1.06796574 -18.4375 0.9375 C-16.878234 0.84606406 -15.31898888 0.75427134 -13.75976562 0.66210938 C-2.45202995 0 -2.45202995 0 0 0 Z " fill="#080708" transform="translate(69,110)"/>
<path d="M0 0 C0.33 0.99 0.66 1.98 1 3 C1.66 3 2.32 3 3 3 C3 5.64 3 8.28 3 11 C0.36 11.33 -2.28 11.66 -5 12 C-4.67 14.31 -4.34 16.62 -4 19 C-2.35 19.33 -0.7 19.66 1 20 C1 19.34 1 18.68 1 18 C-0.65 17.67 -2.3 17.34 -4 17 C-3.34 16.67 -2.68 16.34 -2 16 C-2.33 15.01 -2.66 14.02 -3 13 C-2.34 12.67 -1.68 12.34 -1 12 C-0.01 12.33 0.98 12.66 2 13 C2.09377123 20.41834582 2.17402193 27.66236293 1 35 C-0.65 34.67 -2.3 34.34 -4 34 C-3.34 31.03 -2.68 28.06 -2 25 C-2.99 25.33 -3.98 25.66 -5 26 C-5.33 25.67 -5.66 25.34 -6 25 C-6.33 25.66 -6.66 26.32 -7 27 C-6.34 27 -5.68 27 -5 27 C-5 27.99 -5 28.98 -5 30 C-6.98 30.66 -8.96 31.32 -11 32 C-12.10643764 26.16605611 -12.27137992 23.23420787 -9 18 C-8.34 18 -7.68 18 -7 18 C-7 16.68 -7 15.36 -7 14 C-7.66 13.67 -8.32 13.34 -9 13 C-8.01 12.67 -7.02 12.34 -6 12 C-6 10.68 -6 9.36 -6 8 C-6.66 7.67 -7.32 7.34 -8 7 C-7.01 7 -6.02 7 -5 7 C-4.67 6.34 -4.34 5.68 -4 5 C-1.9375 4.375 -1.9375 4.375 0 4 C0 2.68 0 1.36 0 0 Z " fill="#09090A" transform="translate(135,63)"/>
<path d="M0 0 C1.26908203 -0.00386719 2.53816406 -0.00773438 3.84570312 -0.01171875 C5.05291016 -0.01042969 6.26011719 -0.00914062 7.50390625 -0.0078125 C8.59646729 -0.00668457 9.68902832 -0.00555664 10.81469727 -0.00439453 C13.4375 0.125 13.4375 0.125 15.4375 1.125 C15.4375 2.775 15.4375 4.425 15.4375 6.125 C14.75236328 6.11976318 14.06722656 6.11452637 13.36132812 6.10913086 C10.22006163 6.08818555 7.07880989 6.0752844 3.9375 6.0625 C2.32101563 6.04993164 2.32101563 6.04993164 0.671875 6.03710938 C-3.96279854 6.02297927 -8.47598807 6.02502626 -13.06640625 6.70703125 C-17.95071232 7.29096505 -20.20125566 6.26736564 -24.5625 4.125 C-24.8925 3.135 -25.2225 2.145 -25.5625 1.125 C-17.02856547 0.15930925 -8.58310704 -0.02689224 0 0 Z " fill="#383738" transform="translate(97.5625,171.875)"/>
<path d="M0 0 C2.31 0 4.62 0 7 0 C7 3.3 7 6.6 7 10 C9.3203125 9.7215625 9.3203125 9.7215625 11.6875 9.4375 C15.35479593 9.06296765 18.42111097 8.92633329 22 10 C22 10.33 22 10.66 22 11 C17.38 11 12.76 11 8 11 C8 11.66 8 12.32 8 13 C5.69 12.67 3.38 12.34 1 12 C1 12.99 1 13.98 1 15 C1.99 15 2.98 15 4 15 C4 15.66 4 16.32 4 17 C2.02 17.33 0.04 17.66 -2 18 C-2 18.66 -2 19.32 -2 20 C-1.34 20 -0.68 20 0 20 C0 20.66 0 21.32 0 22 C-0.66 22 -1.32 22 -2 22 C-2.33 23.32 -2.66 24.64 -3 26 C-3.19916016 25.04287109 -3.19916016 25.04287109 -3.40234375 24.06640625 C-3.57894531 23.24011719 -3.75554688 22.41382812 -3.9375 21.5625 C-4.11152344 20.73878906 -4.28554687 19.91507813 -4.46484375 19.06640625 C-4.80752994 17.02338796 -4.80752994 17.02338796 -6 16 C-6.04063832 14.33382885 -6.042721 12.66611905 -6 11 C-4.35 10.34 -2.7 9.68 -1 9 C-0.67 6.03 -0.34 3.06 0 0 Z " fill="#2E2E2E" transform="translate(14,0)"/>
<path d="M0 0 C1.32 0.33 2.64 0.66 4 1 C4.05855176 4.52076232 4.0937806 8.0413976 4.125 11.5625 C4.14175781 12.55314453 4.15851563 13.54378906 4.17578125 14.56445312 C4.21274359 20.12728491 3.87082551 24.74843075 2 30 C1.01 29.67 0.02 29.34 -1 29 C-1 28.34 -1 27.68 -1 27 C-1.99 27 -2.98 27 -4 27 C-3.67 25.35 -3.34 23.7 -3 22 C-2.34 22 -1.68 22 -1 22 C-1 21.01 -1 20.02 -1 19 C-1.66 19 -2.32 19 -3 19 C-4.30503581 14.82388542 -3.66756459 11.93462385 -2.47265625 7.8671875 C-1.87730113 5.83630248 -1.87730113 5.83630248 -2 3 C-1.34 2.67 -0.68 2.34 0 2 C0 1.34 0 0.68 0 0 Z " fill="#0A090A" transform="translate(136,33)"/>
<path d="M0 0 C3.77068832 -0.086985 7.54111932 -0.14038579 11.3125 -0.1875 C12.38435547 -0.21263672 13.45621094 -0.23777344 14.56054688 -0.26367188 C15.58857422 -0.27333984 16.61660156 -0.28300781 17.67578125 -0.29296875 C19.0975769 -0.31653442 19.0975769 -0.31653442 20.5480957 -0.34057617 C23 0 23 0 24.83276367 1.33081055 C26 3 26 3 26 6 C24.94256592 5.99214478 24.94256592 5.99214478 23.86376953 5.98413086 C20.61752237 5.96312729 17.3712896 5.95026631 14.125 5.9375 C13.01640625 5.92912109 11.9078125 5.92074219 10.765625 5.91210938 C4.80907539 5.89459011 -0.97720036 6.07753972 -6.88330078 6.88110352 C-9.13742782 7.00771942 -10.85138682 6.65724792 -13 6 C-9.68629 3.79086 -8.6553979 3.77518447 -4.8125 3.875 C-3.91144531 3.89304688 -3.01039062 3.91109375 -2.08203125 3.9296875 C-1.39496094 3.95289063 -0.70789063 3.97609375 0 4 C0 2.68 0 1.36 0 0 Z " fill="#232224" transform="translate(77,141)"/>
<path d="M0 0 C-0.33 1.65 -0.66 3.3 -1 5 C-4.39576062 5.05830787 -7.7913915 5.09369946 -11.1875 5.125 C-12.14720703 5.14175781 -13.10691406 5.15851562 -14.09570312 5.17578125 C-15.02705078 5.18222656 -15.95839844 5.18867187 -16.91796875 5.1953125 C-17.77156982 5.20578613 -18.6251709 5.21625977 -19.50463867 5.22705078 C-22.37188175 4.9661628 -24.43633645 4.30583815 -27 3 C-27.66 2.01 -28.32 1.02 -29 0 C-5.7346604 -3.19720004 -5.7346604 -3.19720004 0 0 Z " fill="#262527" transform="translate(121,28)"/>
<path d="M0 0 C0.99 0 1.98 0 3 0 C4.32 5.61 5.64 11.22 7 17 C7.99 16.67 8.98 16.34 10 16 C10 13.03 10 10.06 10 7 C10.33 7 10.66 7 11 7 C13.14995663 18.96444789 14.523632 29.88437204 13 42 C12.67 42 12.34 42 12 42 C11.67 35.07 11.34 28.14 11 21 C10.01 20.67 9.02 20.34 8 20 C8 21.32 8 22.64 8 24 C7.7018576 25.34164079 7.37756808 26.67851173 7 28 C6.34 28 5.68 28 5 28 C5 29.98 5 31.96 5 34 C4.67 34 4.34 34 4 34 C3.24811926 30.61142314 2.85141186 27.41283517 2.75390625 23.9453125 C2.72103516 23.00042969 2.68816406 22.05554688 2.65429688 21.08203125 C2.59334491 19.1185998 2.53602339 17.15505212 2.48242188 15.19140625 C2.28747802 9.78447296 1.76267404 5.12388648 0 0 Z " fill="#646363" transform="translate(128,13)"/>
<path d="M0 0 C0 0.99 0 1.98 0 3 C0.99 3 1.98 3 3 3 C3 3.99 3 4.98 3 6 C4.32 5.67 5.64 5.34 7 5 C7 6.32 7 7.64 7 9 C4.32765087 9.96204569 2.7515311 9.96213509 -0.1015625 9.52734375 C-4.39473852 8.94660351 -8.49200572 8.92505647 -12.8125 9 C-20.73221586 9.13389207 -20.73221586 9.13389207 -23 8 C-22.67 6.35 -22.34 4.7 -22 3 C-21.01 2.67 -20.02 2.34 -19 2 C-18.67 2.99 -18.34 3.98 -18 5 C-16.68 5 -15.36 5 -14 5 C-14 4.34 -14 3.68 -14 3 C-12.68 3 -11.36 3 -10 3 C-10 3.66 -10 4.32 -10 5 C-7.03 5.495 -7.03 5.495 -4 6 C-4 5.01 -4 4.02 -4 3 C-6.475 2.505 -6.475 2.505 -9 2 C-5.86501708 0.14223235 -3.62528568 -0.20140476 0 0 Z " fill="#191819" transform="translate(117,1)"/>
<path d="M0 0 C-3.46604518 3.46604518 -7.31684438 3.15031543 -12.05371094 3.29711914 C-13.88515656 3.3570681 -13.88515656 3.3570681 -15.75360107 3.41822815 C-17.06725647 3.45681442 -18.38091187 3.4954007 -19.734375 3.53515625 C-21.09630516 3.57818837 -22.45822323 3.62160503 -23.82012939 3.66539001 C-27.39728831 3.77936327 -30.97458738 3.88812172 -34.55194092 3.99578857 C-38.20529937 4.10666856 -41.85850085 4.22248849 -45.51171875 4.33789062 C-52.67433482 4.56342405 -59.83710618 4.78344762 -67 5 C-67 4.34 -67 3.68 -67 3 C-44.71255822 0.893593 -22.3927391 -0.30862887 0 0 Z " fill="#BEBEBD" transform="translate(104,188)"/>
<path d="M0 0 C1.32 0.33 2.64 0.66 4 1 C3.34 3.97 2.68 6.94 2 10 C3.65 10.33 5.3 10.66 7 11 C6.78955924 24.06645806 6.78955924 24.06645806 3.5625 27.3125 C1 29 1 29 -1 29 C-1 28.01 -1 27.02 -1 26 C0.65 25.67 2.3 25.34 4 25 C4 24.01 4 23.02 4 22 C3.34 22.66 2.68 23.32 2 24 C1.67 22.68 1.34 21.36 1 20 C0.34 20.99 -0.32 21.98 -1 23 C-2.33257403 12.44191344 -2.33257403 12.44191344 -1 8 C-1.99 7.67 -2.98 7.34 -4 7 C-4 6.67 -4 6.34 -4 6 C-2.35 6 -0.7 6 1 6 C1 5.01 1 4.02 1 3 C0.34 3 -0.32 3 -1 3 C-0.67 2.01 -0.34 1.02 0 0 Z " fill="#353337" transform="translate(129,87)"/>
<path d="M0 0 C1.0625 1.875 1.0625 1.875 2 4 C1.67 4.66 1.34 5.32 1 6 C-3.956947 7.16542641 -9.05474607 7.34377874 -14.125 7.625 C-14.92292969 7.6765625 -15.72085938 7.728125 -16.54296875 7.78125 C-17.31511719 7.82507812 -18.08726563 7.86890625 -18.8828125 7.9140625 C-19.92526123 7.9752124 -19.92526123 7.9752124 -20.98876953 8.03759766 C-23.13167991 7.99753839 -24.9471283 7.59532704 -27 7 C-26.34 6.01 -25.68 5.02 -25 4 C-22.03 4.33 -19.06 4.66 -16 5 C-15.67 4.01 -15.34 3.02 -15 2 C-15.94875 2.165 -16.8975 2.33 -17.875 2.5 C-22.5763877 3.18541792 -27.26003286 3.08583441 -32 3 C-32 2.67 -32 2.34 -32 2 C-10.46808511 -0.38297872 -10.46808511 -0.38297872 0 0 Z " fill="#7E7D7E" transform="translate(114,52)"/>
<path d="M0 0 C-0.33 1.65 -0.66 3.3 -1 5 C-4.57350041 5.81898622 -7.85659479 6.11811958 -11.51953125 6.09765625 C-12.54111328 6.09443359 -13.56269531 6.09121094 -14.61523438 6.08789062 C-15.67033203 6.07951172 -16.72542969 6.07113281 -17.8125 6.0625 C-18.88693359 6.05798828 -19.96136719 6.05347656 -21.06835938 6.04882812 C-23.71229683 6.03707729 -26.35611952 6.02064787 -29 6 C-29 5.67 -29 5.34 -29 5 C-27.35 5 -25.7 5 -24 5 C-24 4.34 -24 3.68 -24 3 C-23.01 3 -22.02 3 -21 3 C-20.67 2.34 -20.34 1.68 -20 1 C-17.34765625 0.62109375 -17.34765625 0.62109375 -14.0625 0.4375 C-1.51065783 -0.29556349 -1.51065783 -0.29556349 0 0 Z " fill="#282729" transform="translate(90,160)"/>
<path d="M0 0 C0 1.65 0 3.3 0 5 C-5.28 5.66 -10.56 6.32 -16 7 C-16.33 4.69 -16.66 2.38 -17 0 C-11.06975197 -0.97040422 -5.93609666 -0.89316269 0 0 Z " fill="#181818" transform="translate(53,84)"/>
<path d="M0 0 C6.6 0 13.2 0 20 0 C20 0.66 20 1.32 20 2 C19.34 2 18.68 2 18 2 C17.67 2.99 17.34 3.98 17 5 C14.73052303 5.36275656 12.45935265 5.71493186 10.1875 6.0625 C8.29064453 6.35833984 8.29064453 6.35833984 6.35546875 6.66015625 C3 7 3 7 0 6 C0 4.02 0 2.04 0 0 Z " fill="#202020" transform="translate(42,59)"/>
<path d="M0 0 C1.08216797 -0.00128906 2.16433594 -0.00257812 3.27929688 -0.00390625 C4.41044922 -0.00003906 5.54160156 0.00382813 6.70703125 0.0078125 C7.81884766 0.00394531 8.93066406 0.00007812 10.07617188 -0.00390625 C14.77199391 0.00165423 19.38207907 0.02650649 24.0390625 0.66796875 C26.95129952 1.05692072 29.15279607 1.1560378 32.01953125 0.6953125 C33.75203125 0.416875 33.75203125 0.416875 35.51953125 0.1328125 C35.18953125 1.1228125 34.85953125 2.1128125 34.51953125 3.1328125 C28.47976418 4.0541329 24.35959165 4.0794993 18.51953125 2.1328125 C8.02374108 1.5000911 -2.39189155 2.80969963 -12.79907227 4.00195312 C-14.85213578 4.23450919 -16.9062802 4.45392446 -18.9609375 4.671875 C-20.76921021 4.87611084 -20.76921021 4.87611084 -22.61401367 5.08447266 C-23.55994385 5.1004248 -24.50587402 5.11637695 -25.48046875 5.1328125 C-26.14046875 4.4728125 -26.80046875 3.8128125 -27.48046875 3.1328125 C-26.92061279 3.07746338 -26.36075684 3.02211426 -25.78393555 2.96508789 C-23.2449107 2.7120543 -20.70644975 2.4537427 -18.16796875 2.1953125 C-17.28689453 2.10830078 -16.40582031 2.02128906 -15.49804688 1.93164062 C-14.22670898 1.80112305 -14.22670898 1.80112305 -12.9296875 1.66796875 C-11.75925903 1.55014038 -11.75925903 1.55014038 -10.56518555 1.42993164 C-0.53649402 0.00061701 -0.53649402 0.00061701 0 0 Z " fill="#686768" transform="translate(93.48046875,8.8671875)"/>
<path d="M0 0 C0.680625 0.03544922 1.36125 0.07089844 2.0625 0.10742188 C7.13044808 0.44294808 7.13044808 0.44294808 9.375 2.6875 C5.085 3.3475 0.795 4.0075 -3.625 4.6875 C-3.625 5.6775 -3.625 6.6675 -3.625 7.6875 C-7 7.875 -7 7.875 -10.625 7.6875 C-12.625 4.6875 -12.625 4.6875 -12.25 2.5 C-12.04375 1.901875 -11.8375 1.30375 -11.625 0.6875 C-7.76331932 -0.62943213 -3.99957903 -0.27966405 0 0 Z " fill="#292929" transform="translate(47.625,32.3125)"/>
<path d="M0 0 C0 1.32 0 2.64 0 4 C-5.49901323 6.09486218 -10.09133053 7.49238912 -16 7 C-17 6 -17 6 -17.0625 3.4375 C-17.041875 2.633125 -17.02125 1.82875 -17 1 C-10.90660831 -0.88341198 -6.27467799 -1.0748291 0 0 Z " fill="#090909" transform="translate(37,176)"/>
<path d="M0 0 C0.78375 0.185625 1.5675 0.37125 2.375 0.5625 C3.179375 0.7790625 3.179375 0.7790625 4 1 C3.67 1.66 3.34 2.32 3 3 C6.63 3 10.26 3 14 3 C14 3.66 14 4.32 14 5 C5.60106788 6.10198755 -1.71877177 5.77664648 -10 4 C-10 3.01 -10 2.02 -10 1 C-12.64 1.33 -15.28 1.66 -18 2 C-18 1.34 -18 0.68 -18 0 C-5.33029613 -1.33257403 -5.33029613 -1.33257403 0 0 Z " fill="#141315" transform="translate(104,191)"/>
<path d="M0 0 C4.95 0 9.9 0 15 0 C15 1.32 15 2.64 15 4 C12.02141273 4.33937108 9.04230315 4.67162259 6.0625 5 C5.23169922 5.09539062 4.40089844 5.19078125 3.54492188 5.2890625 C-2.00584043 5.89381481 -7.416351 6.09014973 -13 6 C-13.33 5.34 -13.66 4.68 -14 4 C-9.32798795 2.79431947 -4.78503708 2.90617574 0 3 C0 2.01 0 1.02 0 0 Z " fill="#242325" transform="translate(62,141)"/>
<path d="M0 0 C0.33 0.66 0.66 1.32 1 2 C1.99 2 2.98 2 4 2 C4 2.66 4 3.32 4 4 C3.01 4.495 3.01 4.495 2 5 C2.309375 6.175625 2.309375 6.175625 2.625 7.375 C2.74875 8.24125 2.8725 9.1075 3 10 C2.34 10.66 1.68 11.32 1 12 C-0.92179022 16.52185934 -1.31394971 20.81974837 -1.71484375 25.65234375 C-2.04166233 28.34300083 -2.78878973 30.57757946 -4 33 C-7.01223523 22.20414893 -4.26559775 10.08232196 0 0 Z " fill="#525152" transform="translate(125,71)"/>
<path d="M0 0 C0.33 0 0.66 0 1 0 C1.19425873 2.79134852 1.38069517 5.58283687 1.5625 8.375 C1.61857422 9.1690625 1.67464844 9.963125 1.73242188 10.78125 C2.11328125 16.7734375 2.11328125 16.7734375 1 19 C2.65 18.67 4.3 18.34 6 18 C5.814375 18.639375 5.62875 19.27875 5.4375 19.9375 C5.2209375 20.9584375 5.2209375 20.9584375 5 22 C5.33 22.33 5.66 22.66 6 23 C6.07258946 25.18639453 6.08373783 27.37500389 6.0625 29.5625 C6.05347656 30.76003906 6.04445313 31.95757812 6.03515625 33.19140625 C6.02355469 34.11824219 6.01195312 35.04507813 6 36 C5.67 36 5.34 36 5 36 C4.98582031 35.38511719 4.97164062 34.77023438 4.95703125 34.13671875 C4.8113579 31.66814607 4.60127183 29.40079253 4 27 C1.62597583 25.19212694 1.62597583 25.19212694 -1 24 C-2.54268029 21.26524858 -3.12967623 19.79967011 -2.625 16.6875 C-2.41875 16.130625 -2.2125 15.57375 -2 15 C-1.34 15 -0.68 15 0 15 C0 10.05 0 5.1 0 0 Z " fill="#545354" transform="translate(9,51)"/>
<path d="M0 0 C6.93 0 13.86 0 21 0 C21 0.99 21 1.98 21 3 C19.7934375 2.9690625 19.7934375 2.9690625 18.5625 2.9375 C16.06645115 2.70366379 16.06645115 2.70366379 15 4 C13 4 11 4 9 4 C8.67 4.33 8.34 4.66 8 5 C6.14712498 5.07226502 4.29166122 5.0838122 2.4375 5.0625 C1.42558594 5.05347656 0.41367188 5.04445313 -0.62890625 5.03515625 C-1.41136719 5.02355469 -2.19382812 5.01195313 -3 5 C-2.34 4.67 -1.68 4.34 -1 4 C-0.67 2.68 -0.34 1.36 0 0 Z " fill="#212022" transform="translate(73,80)"/>
<path d="M0 0 C0 0.99 0 1.98 0 3 C-0.66 3 -1.32 3 -2 3 C-2 3.66 -2 4.32 -2 5 C-6.95 5 -11.9 5 -17 5 C-17.33 3.35 -17.66 1.7 -18 0 C-5.33029613 -1.33257403 -5.33029613 -1.33257403 0 0 Z " fill="#0C0B0C" transform="translate(63,185)"/>
<path d="M0 0 C0 0.33 0 0.66 0 1 C-1.65 1.33 -3.3 1.66 -5 2 C-4.34 3.32 -3.68 4.64 -3 6 C-8.61 6 -14.22 6 -20 6 C-20.33 4.68 -20.66 3.36 -21 2 C-13.90673679 0.27669093 -7.29031024 -0.2494783 0 0 Z " fill="#5E5D5E" transform="translate(98,27)"/>
<path d="M0 0 C1.8871875 0.061875 1.8871875 0.061875 3.8125 0.125 C3.8125 0.455 3.8125 0.785 3.8125 1.125 C5.4625 1.455 7.1125 1.785 8.8125 2.125 C8.8125 2.785 8.8125 3.445 8.8125 4.125 C7.8225 4.125 6.8325 4.125 5.8125 4.125 C5.8125 4.785 5.8125 5.445 5.8125 6.125 C-2.61607143 8.55357143 -2.61607143 8.55357143 -7.1875 7.125 C-7.375 4.75 -7.375 4.75 -7.1875 2.125 C-4.09861478 0.06574319 -3.47814073 -0.1140374 0 0 Z " fill="#1A1A1A" transform="translate(30.1875,143.875)"/>
<path d="M0 0 C0.86931152 0.01047363 1.73862305 0.02094727 2.63427734 0.03173828 C3.57529297 0.03818359 4.51630859 0.04462891 5.48583984 0.05126953 C6.47068359 0.06802734 7.45552734 0.08478516 8.47021484 0.10205078 C9.46279297 0.11107422 10.45537109 0.12009766 11.47802734 0.12939453 C13.93399618 0.15300962 16.38948653 0.18594279 18.84521484 0.22705078 C19.50521484 1.54705078 20.16521484 2.86705078 20.84521484 4.22705078 C18.86521484 3.56705078 16.88521484 2.90705078 14.84521484 2.22705078 C15.17521484 3.54705078 15.50521484 4.86705078 15.84521484 6.22705078 C13.49082751 7.65650023 12.36489052 8.31366339 9.59521484 7.85205078 C9.01771484 7.64580078 8.44021484 7.43955078 7.84521484 7.22705078 C7.84521484 6.23705078 7.84521484 5.24705078 7.84521484 4.22705078 C6.85521484 4.22705078 5.86521484 4.22705078 4.84521484 4.22705078 C4.84521484 3.23705078 4.84521484 2.24705078 4.84521484 1.22705078 C0.39021484 1.72205078 0.39021484 1.72205078 -4.15478516 2.22705078 C-2.15478516 0.22705078 -2.15478516 0.22705078 0 0 Z " fill="#999899" transform="translate(112.15478515625,-0.22705078125)"/>
<path d="M0 0 C0.33 0.99 0.66 1.98 1 3 C-0.07121094 3.20496094 -1.14242187 3.40992188 -2.24609375 3.62109375 C-3.64326851 3.89302709 -5.04040181 4.16517352 -6.4375 4.4375 C-7.14455078 4.57220703 -7.85160156 4.70691406 -8.58007812 4.84570312 C-12.08429264 5.28406898 -12.08429264 5.28406898 -15 7 C-16.68183948 7.23287008 -18.3712416 7.41264166 -20.0625 7.5625 C-20.98160156 7.64628906 -21.90070312 7.73007812 -22.84765625 7.81640625 C-23.55792969 7.87699219 -24.26820312 7.93757813 -25 8 C-25 7.34 -25 6.68 -25 6 C-24.28972656 5.86722656 -23.57945313 5.73445313 -22.84765625 5.59765625 C-21.92855469 5.42105469 -21.00945313 5.24445312 -20.0625 5.0625 C-18.68771484 4.80146484 -18.68771484 4.80146484 -17.28515625 4.53515625 C-15.04710156 4.22285012 -15.04710156 4.22285012 -14 3 C-17.3 2.67 -20.6 2.34 -24 2 C-24 1.67 -24 1.34 -24 1 C-15.9874678 -0.03387512 -8.07094823 -0.10466648 0 0 Z " fill="#5D5C5D" transform="translate(69,31)"/>
<path d="M0 0 C0 0.33 0 0.66 0 1 C-5.36095333 2.12862175 -10.55306686 2.09688221 -16 2 C-16 2.66 -16 3.32 -16 4 C-8.74 4 -1.48 4 6 4 C6 4.33 6 4.66 6 5 C-2.91 5 -11.82 5 -21 5 C-20.34 4.67 -19.68 4.34 -19 4 C-19 2.35 -19 0.7 -19 -1 C-13.93728403 -3.53135799 -5.38133999 -1.01809135 0 0 Z " fill="#2A2A2C" transform="translate(82,184)"/>
<path d="M0 0 C1.62490954 -0.02698189 3.24994633 -0.04638757 4.875 -0.0625 C5.77992187 -0.07410156 6.68484375 -0.08570313 7.6171875 -0.09765625 C10 0 10 0 12 1 C12 1.99 12 2.98 12 4 C8.7 4.33 5.4 4.66 2 5 C2 5.99 2 6.98 2 8 C1.34 8 0.68 8 0 8 C-0.33 7.01 -0.66 6.02 -1 5 C-3.97 4.505 -3.97 4.505 -7 4 C-7 3.01 -7 2.02 -7 1 C-4.69 1.33 -2.38 1.66 0 2 C0 1.34 0 0.68 0 0 Z " fill="#080808" transform="translate(22,11)"/>
<path d="M0 0 C0 0.99 0 1.98 0 3 C-4.95697874 6.75528693 -10.81847989 8.37463758 -17 8 C-17 7.34 -17 6.68 -17 6 C-15.35 6 -13.7 6 -12 6 C-12 4.68 -12 3.36 -12 2 C-13.32 1.67 -14.64 1.34 -16 1 C-10.62915894 0.31798844 -5.41499441 -0.11521265 0 0 Z " fill="#3E3E3E" transform="translate(49,174)"/>
<path d="M0 0 C1.05345679 3.16037038 0.992818 4.83927096 0.6953125 8.11328125 C0.60636719 9.11423828 0.51742187 10.11519531 0.42578125 11.14648438 C0.32652344 12.19126953 0.22726563 13.23605469 0.125 14.3125 C0.03347656 15.34568359 -0.05804688 16.37886719 -0.15234375 17.44335938 C-0.59774131 22.33332278 -1.0856539 27.17059015 -2 32 C-2.33 32 -2.66 32 -3 32 C-2.67 25.07 -2.34 18.14 -2 11 C-3.32 11.33 -4.64 11.66 -6 12 C-6.33 12.99 -6.66 13.98 -7 15 C-5.68 15.33 -4.36 15.66 -3 16 C-3 16.66 -3 17.32 -3 18 C-4.98 18 -6.96 18 -9 18 C-9.79953138 14.71303767 -10.09658936 13.28976808 -9 10 C-6.29120665 8.64560332 -3.99066732 8.93498549 -1 9 C-1.020625 7.88625 -1.04125 6.7725 -1.0625 5.625 C-1 2 -1 2 0 0 Z " fill="#646364" transform="translate(139,65)"/>
<path d="M0 0 C0 0.66 0 1.32 0 2 C0.99 2.33 1.98 2.66 3 3 C3 3.33 3 3.66 3 4 C-3.27 4 -9.54 4 -16 4 C-16.33 3.01 -16.66 2.02 -17 1 C-10.91748904 -0.70366626 -6.22895086 -1.13253652 0 0 Z " fill="#1D1C1E" transform="translate(112,79)"/>
<path d="M0 0 C0 0.66 0 1.32 0 2 C0.66 2.33 1.32 2.66 2 3 C0.56465159 3.2226746 -0.87345525 3.42761906 -2.3125 3.625 C-3.11300781 3.74101563 -3.91351563 3.85703125 -4.73828125 3.9765625 C-7 4 -7 4 -10 2 C-10.66 3.32 -11.32 4.64 -12 6 C-14.64 5.67 -17.28 5.34 -20 5 C-20.33 4.01 -20.66 3.02 -21 2 C-18.81347261 1.66034526 -16.62571975 1.32857523 -14.4375 1 C-13.21933594 0.814375 -12.00117187 0.62875 -10.74609375 0.4375 C-7.12372152 0.01444923 -3.64287954 -0.07501425 0 0 Z " fill="#161617" transform="translate(99,54)"/>
<path d="M0 0 C0.33 0.33 0.66 0.66 1 1 C3.33297433 1.04092937 5.66705225 1.04241723 8 1 C8 1.99 8 2.98 8 4 C0.41 4 -7.18 4 -15 4 C-14.67 3.01 -14.34 2.02 -14 1 C-9.23258627 0.04651725 -4.84034716 -0.16407956 0 0 Z " fill="#101011" transform="translate(86,191)"/>
<path d="M0 0 C0.33 0.99 0.66 1.98 1 3 C1.66 3 2.32 3 3 3 C3 5.64 3 8.28 3 11 C-1.455 11.495 -1.455 11.495 -6 12 C-6 10.68 -6 9.36 -6 8 C-6.66 7.67 -7.32 7.34 -8 7 C-7.01 7 -6.02 7 -5 7 C-4.67 6.34 -4.34 5.68 -4 5 C-1.9375 4.375 -1.9375 4.375 0 4 C0 2.68 0 1.36 0 0 Z M-8 12 C-7.34 12.33 -6.68 12.66 -6 13 C-6.99 13 -7.98 13 -9 13 C-8.67 12.67 -8.34 12.34 -8 12 Z " fill="#0D0D0E" transform="translate(135,63)"/>
<path d="M0 0 C1.11084961 0.02707031 1.11084961 0.02707031 2.24414062 0.0546875 C4.0591571 0.10152663 5.87350166 0.17326211 7.6875 0.25 C8.0175 0.91 8.3475 1.57 8.6875 2.25 C7.32625 2.2190625 7.32625 2.2190625 5.9375 2.1875 C3.26077412 2.2389755 1.21761948 2.4715017 -1.3125 3.25 C-1.3125 3.91 -1.3125 4.57 -1.3125 5.25 C-4.97555234 5.99926071 -7.73605152 6.4880014 -11.3125 5.25 C-11.3125 5.91 -11.3125 6.57 -11.3125 7.25 C-11.9725 7.25 -12.6325 7.25 -13.3125 7.25 C-13.3125 4.25 -13.3125 4.25 -11.33203125 2.078125 C-7.37100958 -0.32000973 -4.5211502 -0.21009813 0 0 Z " fill="#373637" transform="translate(67.3125,159.75)"/>
<path d="M0 0 C2 1 2 1 3.0859375 3.19921875 C4.04508745 6.13815258 4.40246299 8.73407133 4.625 11.8125 C4.69976562 12.78832031 4.77453125 13.76414062 4.8515625 14.76953125 C4.90054688 15.50558594 4.94953125 16.24164062 5 17 C3.35 16.67 1.7 16.34 0 16 C-1.26305335 10.92523206 -2.27036084 6.27203646 -2 1 C-1.34 0.67 -0.68 0.34 0 0 Z " fill="#080708" transform="translate(134,14)"/>
<path d="M0 0 C0.33 0.99 0.66 1.98 1 3 C1.99 2.01 2.98 1.02 4 0 C3.67 4.62 3.34 9.24 3 14 C1.35 13.67 -0.3 13.34 -2 13 C-1.34 10.03 -0.68 7.06 0 4 C-0.99 4.33 -1.98 4.66 -3 5 C-5.6875 4.0625 -5.6875 4.0625 -8 3 C-8 2.67 -8 2.34 -8 2 C-2.25 0 -2.25 0 0 0 Z " fill="#0E0E0F" transform="translate(133,84)"/>
<path d="M0 0 C6.6 0 13.2 0 20 0 C20.33 0.99 20.66 1.98 21 3 C14.4 3 7.8 3 1 3 C0.67 2.01 0.34 1.02 0 0 Z " fill="#CECECD" transform="translate(9,190)"/>
<path d="M0 0 C0.9796875 -0.00257813 1.959375 -0.00515625 2.96875 -0.0078125 C5.5 0.125 5.5 0.125 7.5 1.125 C7.5 2.775 7.5 4.425 7.5 6.125 C3.54 6.125 -0.42 6.125 -4.5 6.125 C-4.5 5.465 -4.5 4.805 -4.5 4.125 C-2.52 4.125 -0.54 4.125 1.5 4.125 C-1.45664519 2.6466774 -4.24229737 3.06467217 -7.5 3.125 C-7.5 2.465 -7.5 1.805 -7.5 1.125 C-4.89080172 -0.17959914 -2.91057385 -0.0076594 0 0 Z " fill="#0F0E0F" transform="translate(105.5,171.875)"/>
<path d="M0 0 C0.99 0.66 1.98 1.32 3 2 C5.86900055 3.43450027 8.73472913 3.37911083 11.90625 3.62109375 C14 4 14 4 16 6 C14.54980469 5.98259766 14.54980469 5.98259766 13.0703125 5.96484375 C6.33661507 5.91817456 -0.26460719 5.94375334 -6.94921875 6.87890625 C-9.17483149 7.01032338 -10.87746568 6.64682197 -13 6 C-9.68629 3.79086 -8.6553979 3.77518447 -4.8125 3.875 C-3.91144531 3.89304688 -3.01039062 3.91109375 -2.08203125 3.9296875 C-1.39496094 3.95289063 -0.70789063 3.97609375 0 4 C0 2.68 0 1.36 0 0 Z " fill="#A7A6A6" transform="translate(77,141)"/>
<path d="M0 0 C2.10304477 -0.1080023 4.20766909 -0.18558987 6.3125 -0.25 C8.07013672 -0.31960937 8.07013672 -0.31960937 9.86328125 -0.390625 C13 0 13 0 14.91796875 2.015625 C15.27503906 2.67046875 15.63210937 3.3253125 16 4 C14.06325815 4.19517554 12.12555991 4.38087873 10.1875 4.5625 C9.10855469 4.66691406 8.02960937 4.77132812 6.91796875 4.87890625 C4 5 4 5 1 4 C0.3125 1.9375 0.3125 1.9375 0 0 Z " fill="#080707" transform="translate(10,194)"/>
<path d="M0 0 C0.33 0 0.66 0 1 0 C1.66 5.28 2.32 10.56 3 16 C1.68 16 0.36 16 -1 16 C-1 14.68 -1 13.36 -1 12 C-1.66 11.67 -2.32 11.34 -3 11 C-2.67 10.01 -2.34 9.02 -2 8 C-2.38932856 5.85744207 -2.38932856 5.85744207 -3 4 C-3.66 4 -4.32 4 -5 4 C-5 3.34 -5 2.68 -5 2 C-2.525 2.495 -2.525 2.495 0 3 C0 2.01 0 1.02 0 0 Z " fill="#1C1C1E" transform="translate(129,164)"/>
<path d="M0 0 C1.98 0 3.96 0 6 0 C6.33 1.98 6.66 3.96 7 6 C3.90521121 7.03159626 2.47368607 6.97482862 -0.6875 6.5625 C-1.89986328 6.40974609 -1.89986328 6.40974609 -3.13671875 6.25390625 C-3.75160156 6.17011719 -4.36648437 6.08632812 -5 6 C-4.67 5.01 -4.34 4.02 -4 3 C-1.9375 2.3125 -1.9375 2.3125 0 2 C0 1.34 0 0.68 0 0 Z " fill="#2E2D2E" transform="translate(71,110)"/>
<path d="M0 0 C0.66 0.33 1.32 0.66 2 1 C2 1.66 2 2.32 2 3 C3.32 3 4.64 3 6 3 C6 2.34 6 1.68 6 1 C7.32 1 8.64 1 10 1 C10.33 1.99 10.66 2.98 11 4 C7.03208747 5.8035966 3.33778271 6.59077522 -1 7 C-1.66 6.67 -2.32 6.34 -3 6 C-2.625 3.5625 -2.625 3.5625 -2 1 C-1.34 0.67 -0.68 0.34 0 0 Z " fill="#040404" transform="translate(97,3)"/>
<path d="M0 0 C3.73658685 0.42300983 7.37653234 0.98542905 11 2 C11 3.32 11 4.64 11 6 C9.3739713 5.93999894 7.74898451 5.8512115 6.125 5.75 C4.76761719 5.68039063 4.76761719 5.68039063 3.3828125 5.609375 C1 5 1 5 -0.3203125 2.953125 C-0.54460938 2.30859375 -0.76890625 1.6640625 -1 1 C-0.67 0.67 -0.34 0.34 0 0 Z " fill="#353535" transform="translate(27,162)"/>
<path d="M0 0 C1.41623216 -0.05447047 2.83308191 -0.09300508 4.25 -0.125 C5.03890625 -0.14820312 5.8278125 -0.17140625 6.640625 -0.1953125 C9.20731941 0.0171622 10.7916067 0.71345895 13 2 C12.67 3.65 12.34 5.3 12 7 C10.02 7 8.04 7 6 7 C6 5.68 6 4.36 6 3 C4.02 2.34 2.04 1.68 0 1 C0 0.67 0 0.34 0 0 Z " fill="#818081" transform="translate(108,26)"/>
<path d="M0 0 C5.28 0 10.56 0 16 0 C12.54175051 2.59368712 11.35777596 3.42747171 7.4375 4.25 C6.67308594 4.42015625 5.90867187 4.5903125 5.12109375 4.765625 C3 5 3 5 0 4 C0 2.68 0 1.36 0 0 Z " fill="#49484A" transform="translate(42,192)"/>
<path d="M0 0 C0.90105469 0.00902344 1.80210938 0.01804688 2.73046875 0.02734375 C3.41753906 0.03894531 4.10460938 0.05054688 4.8125 0.0625 C5.1425 1.3825 5.4725 2.7025 5.8125 4.0625 C1.1925 4.0625 -3.4275 4.0625 -8.1875 4.0625 C-8.1875 3.0725 -8.1875 2.0825 -8.1875 1.0625 C-5.17259443 0.05753148 -3.14568308 -0.04085303 0 0 Z " fill="#060506" transform="translate(18.1875,184.9375)"/>
<path d="M0 0 C1.32 0.33 2.64 0.66 4 1 C3.34 3.97 2.68 6.94 2 10 C3.65 10.33 5.3 10.66 7 11 C6.67 12.32 6.34 13.64 6 15 C6 14.01 6 13.02 6 12 C4.02 12 2.04 12 0 12 C-0.103125 11.360625 -0.20625 10.72125 -0.3125 10.0625 C-0.539375 9.381875 -0.76625 8.70125 -1 8 C-1.99 7.67 -2.98 7.34 -4 7 C-4 6.67 -4 6.34 -4 6 C-2.35 6 -0.7 6 1 6 C1 5.01 1 4.02 1 3 C0.34 3 -0.32 3 -1 3 C-0.67 2.01 -0.34 1.02 0 0 Z " fill="#666567" transform="translate(129,87)"/>
<path d="M0 0 C2.0622048 -0.054348 4.12482816 -0.09294961 6.1875 -0.125 C7.33605469 -0.14820312 8.48460938 -0.17140625 9.66796875 -0.1953125 C12.91740372 -0.00484152 15.08660521 0.60639873 18 2 C18 2.99 18 3.98 18 5 C15.03 4.505 15.03 4.505 12 4 C12 3.34 12 2.68 12 2 C10.68 2 9.36 2 8 2 C8 2.66 8 3.32 8 4 C6.68 4 5.36 4 4 4 C3.67 3.34 3.34 2.68 3 2 C2.01 1.34 1.02 0.68 0 0 Z " fill="#4C4B4D" transform="translate(95,2)"/>
<path d="M0 0 C1.77007714 -0.08114106 3.54122098 -0.13925505 5.3125 -0.1875 C6.29863281 -0.22230469 7.28476563 -0.25710937 8.30078125 -0.29296875 C11 0 11 0 12.85546875 1.38671875 C14 3 14 3 14 5 C9.64626484 6.49659646 6.80645562 5.50764155 2.671875 3.984375 C1 3 1 3 0 0 Z " fill="#1F1F20" transform="translate(72,173)"/>
<path d="M0 0 C1.60379341 -0.05416188 3.20811406 -0.09286638 4.8125 -0.125 C5.70582031 -0.14820312 6.59914063 -0.17140625 7.51953125 -0.1953125 C10 0 10 0 13 2 C12.67 3.65 12.34 5.3 12 7 C10.68 7 9.36 7 8 7 C7.67 6.01 7.34 5.02 7 4 C6.34 3.67 5.68 3.34 5 3 C5 2.34 5 1.68 5 1 C3.35 1 1.7 1 0 1 C0 0.67 0 0.34 0 0 Z " fill="#797879" transform="translate(107,78)"/>
<path d="M0 0 C0.99 0.66 1.98 1.32 3 2 C4.9896995 2.39013716 6.99019869 2.73202649 9 3 C9 3.66 9 4.32 9 5 C-0.41002278 7.48063781 -0.41002278 7.48063781 -5 6 C-4.34 5.01 -3.68 4.02 -3 3 C-2.01 3 -1.02 3 0 3 C0 2.01 0 1.02 0 0 Z " fill="#797879" transform="translate(49,174)"/>
<path d="M0 0 C3.96 0 7.92 0 12 0 C12 0.66 12 1.32 12 2 C11.34 2 10.68 2 10 2 C9.67 2.99 9.34 3.98 9 5 C3.58461538 5.36923077 3.58461538 5.36923077 0.625 3.5 C0.08875 3.005 -0.4475 2.51 -1 2 C-0.67 1.34 -0.34 0.68 0 0 Z " fill="#101010" transform="translate(50,59)"/>
<path d="M0 0 C3.62528568 -0.20140476 5.86501708 0.14223235 9 2 C8.67 2.99 8.34 3.98 8 5 C6.20866022 5.05391993 4.41686101 5.09275571 2.625 5.125 C1.62726563 5.14820313 0.62953125 5.17140625 -0.3984375 5.1953125 C-3 5 -3 5 -5 3 C-3.68 3 -2.36 3 -1 3 C-0.67 2.01 -0.34 1.02 0 0 Z " fill="#6B6A6B" transform="translate(102,28)"/>
<path d="M0 0 C1.79244141 0.01740234 1.79244141 0.01740234 3.62109375 0.03515625 C5.41740234 0.04869141 5.41740234 0.04869141 7.25 0.0625 C8.17683594 0.07410156 9.10367188 0.08570312 10.05859375 0.09765625 C10.05859375 1.08765625 10.05859375 2.07765625 10.05859375 3.09765625 C8.85203125 3.06671875 8.85203125 3.06671875 7.62109375 3.03515625 C5.1250449 2.80132004 5.1250449 2.80132004 4.05859375 4.09765625 C2.05901011 4.13846408 0.05814121 4.14019981 -1.94140625 4.09765625 C-1.94140625 3.43765625 -1.94140625 2.77765625 -1.94140625 2.09765625 C-2.60140625 1.76765625 -3.26140625 1.43765625 -3.94140625 1.09765625 C-2.94140625 0.09765625 -2.94140625 0.09765625 0 0 Z " fill="#1B1A1C" transform="translate(83.94140625,79.90234375)"/>
<path d="M0 0 C0.66 0 1.32 0 2 0 C2.33 0.99 2.66 1.98 3 3 C3.99 2.67 4.98 2.34 6 2 C6.33 1.34 6.66 0.68 7 0 C7 0.66 7 1.32 7 2 C7.99 2 8.98 2 10 2 C10 2.66 10 3.32 10 4 C8.02 4.33 6.04 4.66 4 5 C4 5.66 4 6.32 4 7 C4.66 7 5.32 7 6 7 C6 7.66 6 8.32 6 9 C5.34 9 4.68 9 4 9 C3.67 10.32 3.34 11.64 3 13 C2.86722656 12.39671875 2.73445312 11.7934375 2.59765625 11.171875 C2.42105469 10.37265625 2.24445312 9.5734375 2.0625 8.75 C1.88847656 7.96109375 1.71445313 7.1721875 1.53515625 6.359375 C1.052444 4.23121297 0.53836822 2.11467158 0 0 Z " fill="#595859" transform="translate(8,13)"/>
<path d="M0 0 C0 0.33 0 0.66 0 1 C-2.41696872 1.05411124 -4.83271787 1.09372278 -7.25 1.125 C-7.93191406 1.14175781 -8.61382812 1.15851562 -9.31640625 1.17578125 C-13.0608235 1.21213482 -15.82352727 1.07944349 -19 -1 C-17.41913952 -1.36504603 -15.83516093 -1.71660506 -14.25 -2.0625 C-13.36828125 -2.25972656 -12.4865625 -2.45695313 -11.578125 -2.66015625 C-7.23598947 -3.23252866 -3.97452909 -1.65605379 0 0 Z " fill="#7B7B7B" transform="translate(43,17)"/>
<path d="M0 0 C-0.33 0.99 -0.66 1.98 -1 3 C-1.66 3 -2.32 3 -3 3 C-3.33 3.66 -3.66 4.32 -4 5 C-4.66 5 -5.32 5 -6 5 C-6.33 5.66 -6.66 6.32 -7 7 C-7.33 5.68 -7.66 4.36 -8 3 C-8.66 3 -9.32 3 -10 3 C-9.67 2.01 -9.34 1.02 -9 0 C-5.8033 -1.37001429 -3.30096158 -0.8252404 0 0 Z " fill="#424143" transform="translate(18,10)"/>
<path d="M0 0 C3.63 0 7.26 0 11 0 C11.33 0.99 11.66 1.98 12 3 C10.58456585 3.19658808 9.16755969 3.38187546 7.75 3.5625 C6.96109375 3.66691406 6.1721875 3.77132812 5.359375 3.87890625 C2.99467126 4.00027349 1.2488963 3.69633257 -1 3 C-0.67 2.01 -0.34 1.02 0 0 Z " fill="#1C1C1D" transform="translate(56,82)"/>
<path d="M0 0 C2.97 0 5.94 0 9 0 C9 0.66 9 1.32 9 2 C7.68 2.33 6.36 2.66 5 3 C5.99 3.66 6.98 4.32 8 5 C2.72 5 -2.56 5 -8 5 C-8 4.67 -8 4.34 -8 4 C-6.35 4 -4.7 4 -3 4 C-3 3.34 -3 2.68 -3 2 C-2.01 2 -1.02 2 0 2 C0 1.34 0 0.68 0 0 Z " fill="#838283" transform="translate(69,161)"/>
<path d="M0 0 C0.94359375 0.10699219 1.8871875 0.21398437 2.859375 0.32421875 C4.33083984 0.48664063 4.33083984 0.48664063 5.83203125 0.65234375 C8.77309906 1.03290386 11.69513738 1.4603765 14.609375 2.01171875 C14.609375 2.34171875 14.609375 2.67171875 14.609375 3.01171875 C12.56936527 3.23569608 10.52721311 3.44020412 8.484375 3.63671875 C7.34742187 3.75273437 6.21046875 3.86875 5.0390625 3.98828125 C1.44425701 4.01284712 -1.071296 3.33339686 -4.390625 2.01171875 C-2.390625 0.01171875 -2.390625 0.01171875 0 0 Z " fill="#797879" transform="translate(67.390625,181.98828125)"/>
<path d="M0 0 C1.79240663 0.11389875 3.58394835 0.24147687 5.375 0.375 C6.87160156 0.47941406 6.87160156 0.47941406 8.3984375 0.5859375 C11 1 11 1 13 3 C8.71 3.66 4.42 4.32 0 5 C-0.33 4.01 -0.66 3.02 -1 2 C-0.67 1.34 -0.34 0.68 0 0 Z " fill="#060606" transform="translate(44,32)"/>
<path d="M0 0 C0 0.99 0 1.98 0 3 C-0.66 3 -1.32 3 -2 3 C-2.33 3.99 -2.66 4.98 -3 6 C-8.75 6.125 -8.75 6.125 -11 5 C-11 4.34 -11 3.68 -11 3 C-9.35 3 -7.7 3 -6 3 C-6 2.34 -6 1.68 -6 1 C-3.92446352 0.4465236 -2.15634036 0 0 0 Z " fill="#141315" transform="translate(69,110)"/>
<path d="M0 0 C0.66 1.32 1.32 2.64 2 4 C2.66 2.68 3.32 1.36 4 0 C4.33 1.98 4.66 3.96 5 6 C5.66 5.67 6.32 5.34 7 5 C6.67 6.32 6.34 7.64 6 9 C5.195625 9.12375 4.39125 9.2475 3.5625 9.375 C2.716875 9.58125 1.87125 9.7875 1 10 C0.67 10.66 0.34 11.32 0 12 C0 8.04 0 4.08 0 0 Z " fill="#343336" transform="translate(127,103)"/>
<path d="M0 0 C2.49374292 2.49374292 2.62814292 3.50454345 3 7 C2.78314543 11.97861953 2.19320675 16.46737271 0 21 C-1.95931839 14.0957352 -1.01855969 7.00259787 0 0 Z " fill="#919090" transform="translate(121,83)"/>
<path d="M0 0 C1.32 0 2.64 0 4 0 C3.67 1.65 3.34 3.3 3 5 C-2.61 5 -8.22 5 -14 5 C-14.33 4.01 -14.66 3.02 -15 2 C-14.34 2 -13.68 2 -13 2 C-13 2.66 -13 3.32 -13 4 C-12.175 3.814375 -11.35 3.62875 -10.5 3.4375 C-6.38073281 2.9225916 -3.09176645 3.36507072 1 4 C0.67 2.68 0.34 1.36 0 0 Z " fill="#414042" transform="translate(23,185)"/>
<path d="M0 0 C0.99 0.33 1.98 0.66 3 1 C2.67 2.65 2.34 4.3 2 6 C-1.40562852 6.77842938 -4.50765756 7.09978121 -8 7 C-7.67 5.68 -7.34 4.36 -7 3 C-4.69 3 -2.38 3 0 3 C0 2.01 0 1.02 0 0 Z " fill="#696869" transform="translate(87,159)"/>
<path d="M0 0 C0 0.66 0 1.32 0 2 C-2.52053595 3.26026798 -3.8542098 2.91874445 -6.625 2.5625 C-7.85089844 2.40974609 -7.85089844 2.40974609 -9.1015625 2.25390625 C-10.04128906 2.12822266 -10.04128906 2.12822266 -11 2 C-7.61000833 -3.0849875 -5.18660142 -1.95938276 0 0 Z " fill="#323133" transform="translate(75,59)"/>
<path d="M0 0 C-0.33 0.99 -0.66 1.98 -1 3 C-11.57931034 4.6137931 -11.57931034 4.6137931 -17 1 C-16.11248047 1.01740234 -16.11248047 1.01740234 -15.20703125 1.03515625 C-10.0291722 1.09428351 -5.09866535 0 0 0 Z " fill="#888787" transform="translate(129,9)"/>
<path d="M0 0 C4.95 0 9.9 0 15 0 C15 0.66 15 1.32 15 2 C13.06325815 2.19517554 11.12555991 2.38087873 9.1875 2.5625 C8.10855469 2.66691406 7.02960938 2.77132812 5.91796875 2.87890625 C3 3 3 3 0 2 C0 1.34 0 0.68 0 0 Z " fill="#C1C1C0" transform="translate(103,194)"/>
<path d="M0 0 C3.63 0 7.26 0 11 0 C10.67 1.32 10.34 2.64 10 4 C10.66 4.33 11.32 4.66 12 5 C10.68 5 9.36 5 8 5 C8 4.34 8 3.68 8 3 C7.01 3.33 6.02 3.66 5 4 C5 3.34 5 2.68 5 2 C3.68 2.33 2.36 2.66 1 3 C0.67 2.01 0.34 1.02 0 0 Z " fill="#232224" transform="translate(50,174)"/>
<path d="M0 0 C4.29 0 8.58 0 13 0 C13.33 0.66 13.66 1.32 14 2 C13.030625 1.979375 12.06125 1.95875 11.0625 1.9375 C8.12534105 1.64381501 8.12534105 1.64381501 7 3 C4.32941149 3.14115161 1.67567762 3.04247107 -1 3 C-0.67 2.01 -0.34 1.02 0 0 Z " fill="#272627" transform="translate(62,160)"/>
<path d="M0 0 C3.3 0 6.6 0 10 0 C10 0.66 10 1.32 10 2 C11.32 2.33 12.64 2.66 14 3 C13.01 3.99 12.02 4.98 11 6 C10.01 5.67 9.02 5.34 8 5 C8 3.68 8 2.36 8 1 C7.236875 1.20625 6.47375 1.4125 5.6875 1.625 C3 2 3 2 0 0 Z " fill="#6B6A6B" transform="translate(45,83)"/>
<path d="M0 0 C0.99 0 1.98 0 3 0 C2.09276387 4.68738665 1.0452733 9.34193744 0 14 C-0.33 14 -0.66 14 -1 14 C-1.93402724 8.58264203 -2.20808081 5.19548425 0 0 Z " fill="#353435" transform="translate(11,37)"/>
<path d="M0 0 C1.9375 0.75 1.9375 0.75 4 2 C4.75 4.125 4.75 4.125 5 6 C-1.625 6.25 -1.625 6.25 -5 4 C-3.35 3.67 -1.7 3.34 0 3 C0 2.01 0 1.02 0 0 Z " fill="#9B9A9B" transform="translate(98,141)"/>
<path d="M0 0 C1.35015859 4.05047576 0.62084998 6.7920168 0 11 C-1.65 10.67 -3.3 10.34 -5 10 C-5 9.34 -5 8.68 -5 8 C-4.34 8 -3.68 8 -3 8 C-2.67 6.02 -2.34 4.04 -2 2 C-1.34 2 -0.68 2 0 2 C0 1.34 0 0.68 0 0 Z " fill="#28272A" transform="translate(136,87)"/>
<path d="M0 0 C0.33 0.99 0.66 1.98 1 3 C1.66 3 2.32 3 3 3 C3 5.64 3 8.28 3 11 C1.68 10.67 0.36 10.34 -1 10 C-0.67 9.01 -0.34 8.02 0 7 C0.66 7 1.32 7 2 7 C2 6.34 2 5.68 2 5 C0.35 5.33 -1.3 5.66 -3 6 C-3 5.34 -3 4.68 -3 4 C-2.01 4 -1.02 4 0 4 C0 2.68 0 1.36 0 0 Z " fill="#080708" transform="translate(135,63)"/>
<path d="M0 0 C1.41623216 -0.05447047 2.83308191 -0.09300508 4.25 -0.125 C5.03890625 -0.14820312 5.8278125 -0.17140625 6.640625 -0.1953125 C9.20731941 0.0171622 10.7916067 0.71345895 13 2 C12.67 2.99 12.34 3.98 12 5 C11.01 5 10.02 5 9 5 C8.67 4.34 8.34 3.68 8 3 C7.01 3 6.02 3 5 3 C5 2.34 5 1.68 5 1 C3.35 1 1.7 1 0 1 C0 0.67 0 0.34 0 0 Z " fill="#414042" transform="translate(102,27)"/>
<path d="M0 0 C1.32 0 2.64 0 4 0 C4 1.32 4 2.64 4 4 C5.65 3.34 7.3 2.68 9 2 C9.33 2.66 9.66 3.32 10 4 C7.35261084 5.4606285 6.10551666 6 3 6 C3 5.34 3 4.68 3 4 C2.01 3.67 1.02 3.34 0 3 C0 2.01 0 1.02 0 0 Z " fill="#1E1D1E" transform="translate(83,172)"/>
<path d="M0 0 C0.66 0.33 1.32 0.66 2 1 C3.70363822 1.22622081 5.41328701 1.40888473 7.125 1.5625 C8.03507812 1.64628906 8.94515625 1.73007813 9.8828125 1.81640625 C10.58148438 1.87699219 11.28015625 1.93757812 12 2 C10 4 10 4 7.6171875 4.1953125 C6.71226563 4.17210937 5.80734375 4.14890625 4.875 4.125 C3.50988281 4.09792969 3.50988281 4.09792969 2.1171875 4.0703125 C1.41851562 4.04710937 0.71984375 4.02390625 0 4 C-0.33 3.01 -0.66 2.02 -1 1 C-0.67 0.67 -0.34 0.34 0 0 Z " fill="#252427" transform="translate(97,173)"/>
<path d="M0 0 C0 0.66 0 1.32 0 2 C-1.62463842 2.05395478 -3.24978541 2.09277195 -4.875 2.125 C-5.77992187 2.14820313 -6.68484375 2.17140625 -7.6171875 2.1953125 C-10 2 -10 2 -12 0 C-7.91556885 -1.53166168 -4.20544343 -0.63081652 0 0 Z " fill="#6A6969" transform="translate(104,183)"/>
<path d="M0 0 C2.31 0 4.62 0 7 0 C6.67 1.32 6.34 2.64 6 4 C4.02 4 2.04 4 0 4 C0 2.68 0 1.36 0 0 Z " fill="#0A090A" transform="translate(36,193)"/>
<path d="M0 0 C0 0.66 0 1.32 0 2 C0.66 2.33 1.32 2.66 2 3 C-3.61 3 -9.22 3 -15 3 C-15 2.34 -15 1.68 -15 1 C-13.06263299 0.83179449 -11.12510094 0.66548905 -9.1875 0.5 C-7.56908203 0.36078125 -7.56908203 0.36078125 -5.91796875 0.21875 C-3 0 -3 0 0 0 Z " fill="#38373A" transform="translate(101,190)"/>
<path d="M0 0 C1.98 0 3.96 0 6 0 C4.68 0.99 3.36 1.98 2 3 C2.66 3.66 3.32 4.32 4 5 C2.1875 6.0625 2.1875 6.0625 0 7 C-0.99 6.67 -1.98 6.34 -3 6 C-3 4 -3 4 -1.5 2.4375 C-0.7575 1.7259375 -0.7575 1.7259375 0 1 C0 0.67 0 0.34 0 0 Z " fill="#5A595A" transform="translate(63,57)"/>
<path d="M0 0 C2.31 0 4.62 0 7 0 C7 0.66 7 1.32 7 2 C7.66 2.33 8.32 2.66 9 3 C6.36 3.33 3.72 3.66 1 4 C0.67 2.68 0.34 1.36 0 0 Z " fill="#353436" transform="translate(92,54)"/>
<path d="M0 0 C3.3 0 6.6 0 10 0 C10.33 0.99 10.66 1.98 11 3 C6.70700357 4.26264601 4.12168689 3.62950412 0 2 C0 1.34 0 0.68 0 0 Z " fill="#222124" transform="translate(59,31)"/>
<path d="M0 0 C0 0.99 0 1.98 0 3 C-2.97 3 -5.94 3 -9 3 C-9 2.34 -9 1.68 -9 1 C-6.04335481 -0.4783226 -3.25770263 -0.06032783 0 0 Z " fill="#070607" transform="translate(94,192)"/>
<path d="M0 0 C0.33 0 0.66 0 1 0 C1.33 3.3 1.66 6.6 2 10 C0.68 10 -0.64 10 -2 10 C-2 8.68 -2 7.36 -2 6 C-2.66 5.67 -3.32 5.34 -4 5 C-3.01 4.67 -2.02 4.34 -1 4 C-0.26676204 1.98491642 -0.26676204 1.98491642 0 0 Z " fill="#3A393B" transform="translate(130,170)"/>
<path d="M0 0 C0.99 0.33 1.98 0.66 3 1 C4.89212737 1.22179785 6.78884472 1.40614015 8.6875 1.5625 C9.68136719 1.64628906 10.67523438 1.73007812 11.69921875 1.81640625 C12.83810547 1.90728516 12.83810547 1.90728516 14 2 C10.5233662 4.14336161 7.78770805 4.21277626 3.75 4.125 C2.67234375 4.10695313 1.5946875 4.08890625 0.484375 4.0703125 C-0.33546875 4.04710937 -1.1553125 4.02390625 -2 4 C-1.34 2.68 -0.68 1.36 0 0 Z " fill="#8D8C8D" transform="translate(89,56)"/>
<path d="M0 0 C0.33 1.32 0.66 2.64 1 4 C1.66 4 2.32 4 3 4 C3 4.99 3 5.98 3 7 C2.34 7 1.68 7 1 7 C0.67 8.65 0.34 10.3 0 12 C-0.66 12 -1.32 12 -2 12 C-2.26252625 7.66831683 -1.29243536 4.1196377 0 0 Z " fill="#676667" transform="translate(132,48)"/>
<path d="M0 0 C0.66 1.32 1.32 2.64 2 4 C0.02 3.34 -1.96 2.68 -4 2 C-3.67 3.32 -3.34 4.64 -3 6 C-3.66 6 -4.32 6 -5 6 C-5 5.01 -5 4.02 -5 3 C-5.99 3 -6.98 3 -8 3 C-8 2.34 -8 1.68 -8 1 C-5.07175348 0.02391783 -3.04386724 -0.08226668 0 0 Z " fill="#6F6E70" transform="translate(131,0)"/>
<path d="M0 0 C0.33 0.99 0.66 1.98 1 3 C1.99 3.33 2.98 3.66 4 4 C3.67 5.32 3.34 6.64 3 8 C2.34 8 1.68 8 1 8 C1 9.98 1 11.96 1 14 C0.67 14 0.34 14 0 14 C0 9.38 0 4.76 0 0 Z " fill="#403F41" transform="translate(132,33)"/>
<path d="M0 0 C0.33 0 0.66 0 1 0 C1.3125 2.6875 1.3125 2.6875 1 6 C-1.375 8.875 -1.375 8.875 -4 11 C-4.66 11 -5.32 11 -6 11 C-6 10.01 -6 9.02 -6 8 C-4.35 7.67 -2.7 7.34 -1 7 C-0.67 4.69 -0.34 2.38 0 0 Z " fill="#9E9D9D" transform="translate(134,105)"/>
<path d="M0 0 C-0.99 0.33 -1.98 0.66 -3 1 C-2.67 1.99 -2.34 2.98 -2 4 C-3.98 4 -5.96 4 -8 4 C-8.33 3.01 -8.66 2.02 -9 1 C-5.92677456 0.08941469 -3.19902639 -0.08886184 0 0 Z " fill="#232224" transform="translate(87,55)"/>
<path d="M0 0 C0.66 0.33 1.32 0.66 2 1 C1.67 2.65 1.34 4.3 1 6 C-0.98 6 -2.96 6 -5 6 C-4.67 5.01 -4.34 4.02 -4 3 C-3.01 3 -2.02 3 -1 3 C-0.67 2.01 -0.34 1.02 0 0 Z " fill="#A7A6A6" transform="translate(119,27)"/>
<path d="M0 0 C0.66 0 1.32 0 2 0 C2.33 1.98 2.66 3.96 3 6 C2.01 6.33 1.02 6.66 0 7 C-0.38133299 5.0085944 -0.71325582 3.00720923 -1 1 C-0.67 0.67 -0.34 0.34 0 0 Z " fill="#484749" transform="translate(75,110)"/>
<path d="M0 0 C0.66 0 1.32 0 2 0 C2 0.99 2 1.98 2 3 C3.65 3.33 5.3 3.66 7 4 C6.67 5.32 6.34 6.64 6 8 C6 7.01 6 6.02 6 5 C4.02 5 2.04 5 0 5 C-0.5625 3.0625 -0.5625 3.0625 -1 1 C-0.67 0.67 -0.34 0.34 0 0 Z " fill="#A2A2A1" transform="translate(129,94)"/>
<path d="M0 0 C1.65 0 3.3 0 5 0 C5.33 0.99 5.66 1.98 6 3 C5.67 3.66 5.34 4.32 5 5 C3.35 5 1.7 5 0 5 C0 3.35 0 1.7 0 0 Z " fill="#3C3A3C" transform="translate(76,80)"/>
<path d="M0 0 C0.99 0 1.98 0 3 0 C2.67 0.99 2.34 1.98 2 3 C3.32 3.33 4.64 3.66 6 4 C6 4.66 6 5.32 6 6 C4.02 6 2.04 6 0 6 C-0.38218767 4.34385343 -0.71395102 2.67542976 -1 1 C-0.67 0.67 -0.34 0.34 0 0 Z " fill="#39373B" transform="translate(130,77)"/>
<path d="M0 0 C0.33 0 0.66 0 1 0 C0.91253716 1.43861294 0.80434652 2.87597508 0.6875 4.3125 C0.62949219 5.11300781 0.57148438 5.91351563 0.51171875 6.73828125 C-0.08206694 9.36272334 -0.95780294 10.30820672 -3 12 C-3 10.35 -3 8.7 -3 7 C-2.34 7 -1.68 7 -1 7 C-0.67 5.68 -0.34 4.36 0 3 C-0.66 3 -1.32 3 -2 3 C-1 1 -1 1 0 0 Z " fill="#565457" transform="translate(134,99)"/>
<path d="M0 0 C1.98 0 3.96 0 6 0 C5.6875 1.9375 5.6875 1.9375 5 4 C4.01 4.33 3.02 4.66 2 5 C1.34 3.35 0.68 1.7 0 0 Z " fill="#2D2B2E" transform="translate(70,30)"/>
<path d="M0 0 C3.14737182 0.69941596 6.02588876 1.76078698 9 3 C9 3.33 9 3.66 9 4 C6.03 3.67 3.06 3.34 0 3 C0 2.01 0 1.02 0 0 Z " fill="#989797" transform="translate(34,14)"/>
<path d="M0 0 C-0.33 0.99 -0.66 1.98 -1 3 C-5.455 3.495 -5.455 3.495 -10 4 C-10 3.01 -10 2.02 -10 1 C-6.59437148 0.22157062 -3.49234244 -0.09978121 0 0 Z " fill="#302F31" transform="translate(97,172)"/>
<path d="M0 0 C1.32 0 2.64 0 4 0 C4.33 0.99 4.66 1.98 5 3 C4 4 4 4 1.4375 4.0625 C0.2309375 4.0315625 0.2309375 4.0315625 -1 4 C-0.67 2.68 -0.34 1.36 0 0 Z " fill="#525052" transform="translate(94,141)"/>
<path d="M0 0 C0 0.66 0 1.32 0 2 C-2.97 2 -5.94 2 -9 2 C-9.33 1.34 -9.66 0.68 -10 0 C-6.7169902 -1.6415049 -3.57454967 -0.51888624 0 0 Z " fill="#CECDCD" transform="translate(73,183)"/>
<path d="M0 0 C0.66 0.66 1.32 1.32 2 2 C-0.97 2 -3.94 2 -7 2 C-7.33 1.34 -7.66 0.68 -8 0 C-4.71303767 -0.79953138 -3.28976808 -1.09658936 0 0 Z " fill="#1A191A" transform="translate(56,145)"/>
<path d="M0 0 C0.66 0.33 1.32 0.66 2 1 C1.67 2.65 1.34 4.3 1 6 C1.99 6.33 2.98 6.66 4 7 C3.67 7.66 3.34 8.32 3 9 C1.68 8.34 0.36 7.68 -1 7 C-0.67 4.69 -0.34 2.38 0 0 Z " fill="#504F51" transform="translate(125,116)"/>
<path d="M0 0 C0.99 0.33 1.98 0.66 3 1 C2.67 3.97 2.34 6.94 2 10 C1.67 10 1.34 10 1 10 C0.67 6.7 0.34 3.4 0 0 Z " fill="#959495" transform="translate(127,100)"/>
<path d="M0 0 C1.98 0.495 1.98 0.495 4 1 C4 2.32 4 3.64 4 5 C2.35 5 0.7 5 -1 5 C-0.67 3.35 -0.34 1.7 0 0 Z " fill="#1E1D1F" transform="translate(125,68)"/>
<path d="M0 0 C2.31 0.33 4.62 0.66 7 1 C7 1.66 7 2.32 7 3 C2.25 4.125 2.25 4.125 0 3 C0 2.01 0 1.02 0 0 Z " fill="#676667" transform="translate(79,175)"/>
<path d="M0 0 C0 0.99 0 1.98 0 3 C0.66 3.33 1.32 3.66 2 4 C0.02 4 -1.96 4 -4 4 C-4.33 3.01 -4.66 2.02 -5 1 C-3 0 -3 0 0 0 Z " fill="#1B1A1C" transform="translate(87,159)"/>
<path d="M0 0 C-0.33 1.32 -0.66 2.64 -1 4 C-3.62113708 4 -5.50935112 3.68707555 -8 3 C-8 2.67 -8 2.34 -8 2 C-2.25 0 -2.25 0 0 0 Z " fill="#333235" transform="translate(133,84)"/>
<path d="M0 0 C0.66 0.33 1.32 0.66 2 1 C1.67 2.65 1.34 4.3 1 6 C-0.32 6 -1.64 6 -3 6 C-3 5.01 -3 4.02 -3 3 C-2.01 2.67 -1.02 2.34 0 2 C0 1.34 0 0.68 0 0 Z " fill="#969595" transform="translate(118,79)"/>
<path d="M0 0 C-3.06246747 1.78409802 -5.22079273 2.22880021 -8.75 2.125 C-9.54921875 2.10695313 -10.3484375 2.08890625 -11.171875 2.0703125 C-11.77515625 2.04710937 -12.3784375 2.02390625 -13 2 C-13 1.67 -13 1.34 -13 1 C-8.20862412 -0.6290678 -4.94367454 -1.20577428 0 0 Z " fill="#949393" transform="translate(64,13)"/>
<path d="M0 0 C0.66 0.33 1.32 0.66 2 1 C1.67 3.64 1.34 6.28 1 9 C0.67 9 0.34 9 0 9 C0 7.35 0 5.7 0 4 C-0.66 4 -1.32 4 -2 4 C-1 1 -1 1 0 0 Z " fill="#141415" transform="translate(131,9)"/>
<path d="M0 0 C-0.33 0.99 -0.66 1.98 -1 3 C-4.62326739 4.2077558 -5.64146369 3.54311128 -9 2 C-5.86501708 0.14223235 -3.62528568 -0.20140476 0 0 Z " fill="#151415" transform="translate(97,3)"/>
<path d="M0 0 C2.64 0 5.28 0 8 0 C8.33 0.66 8.66 1.32 9 2 C7.68 1.67 6.36 1.34 5 1 C4.67 1.99 4.34 2.98 4 4 C2.68 2.68 1.36 1.36 0 0 Z " fill="#A6A5A5" transform="translate(115,188)"/>
<path d="M0 0 C0 0.99 0 1.98 0 3 C-1.32 3.33 -2.64 3.66 -4 4 C-4 3.34 -4 2.68 -4 2 C-4.99 1.67 -5.98 1.34 -7 1 C-4 0 -4 0 0 0 Z " fill="#040404" transform="translate(63,185)"/>
<path d="M0 0 C1.32 0 2.64 0 4 0 C4 1.32 4 2.64 4 4 C2.35 3.67 0.7 3.34 -1 3 C-0.67 2.01 -0.34 1.02 0 0 Z " fill="#525152" transform="translate(34,164)"/>
<path d="M0 0 C-0.33 1.32 -0.66 2.64 -1 4 C-3.4375 3.625 -3.4375 3.625 -6 3 C-6.33 2.34 -6.66 1.68 -7 1 C-4 0 -4 0 0 0 Z " fill="#616061" transform="translate(73,80)"/>
<path d="M0 0 C2.3431213 0.25561323 4.67843403 0.59270772 7 1 C7.33 1.66 7.66 2.32 8 3 C5.36 2.67 2.72 2.34 0 2 C0 1.34 0 0.68 0 0 Z " fill="#0C0B0C" transform="translate(107,80)"/>
<path d="M0 0 C0.33 0 0.66 0 1 0 C1 1.98 1 3.96 1 6 C0.01 6.495 0.01 6.495 -1 7 C-1.66 6.34 -2.32 5.68 -3 5 C-2.03114628 3.31503702 -1.03013277 1.64821244 0 0 Z " fill="#0C0C0D" transform="translate(138,56)"/>
<path d="M0 0 C1.32 0.33 2.64 0.66 4 1 C4 1.99 4 2.98 4 4 C2.35 4 0.7 4 -1 4 C-1.33 3.34 -1.66 2.68 -2 2 C-1.34 2 -0.68 2 0 2 C0 1.34 0 0.68 0 0 Z " fill="#060607" transform="translate(136,33)"/>
<path d="M0 0 C-0.33 0.66 -0.66 1.32 -1 2 C-4.96 1.67 -8.92 1.34 -13 1 C-13 0.67 -13 0.34 -13 0 C-11.39679026 -0.19551338 -9.79237014 -0.38111983 -8.1875 -0.5625 C-7.29417969 -0.66691406 -6.40085937 -0.77132813 -5.48046875 -0.87890625 C-3 -1 -3 -1 0 0 Z " fill="#656465" transform="translate(58,32)"/>
<path d="M0 0 C2.64 0.33 5.28 0.66 8 1 C7.01 1.495 7.01 1.495 6 2 C6 2.66 6 3.32 6 4 C4.35 4 2.7 4 1 4 C0.67 2.68 0.34 1.36 0 0 Z " fill="#1B1A1C" transform="translate(77,29)"/>
<path d="M0 0 C-0.33 1.98 -0.66 3.96 -1 6 C-1.66 5.67 -2.32 5.34 -3 5 C-3 4.01 -3 3.02 -3 2 C-3.66 1.67 -4.32 1.34 -5 1 C-3 0 -3 0 0 0 Z " fill="#040404" transform="translate(13,11)"/>
<path d="M0 0 C0.99 0 1.98 0 3 0 C2.67 0.99 2.34 1.98 2 3 C1.34 2.67 0.68 2.34 0 2 C0 1.34 0 0.68 0 0 Z " fill="#ECECEB" transform="translate(110,179)"/>
<path d="M0 0 C0.66 0 1.32 0 2 0 C2 0.66 2 1.32 2 2 C1.34 2 0.68 2 0 2 C0 1.34 0 0.68 0 0 Z " fill="#EBEAE9" transform="translate(6,194)"/>
<path d="M0 0 C0.66 0 1.32 0 2 0 C2 0.66 2 1.32 2 2 C1.34 2 0.68 2 0 2 C0 1.34 0 0.68 0 0 Z " fill="#EFEEED" transform="translate(118,179)"/>
<path d="M0 0 C0.66 0 1.32 0 2 0 C2 0.66 2 1.32 2 2 C1.34 2 0.68 2 0 2 C0 1.34 0 0.68 0 0 Z " fill="#F1F1F0" transform="translate(24,114)"/>
</svg>
