<?xml version="1.0" encoding="UTF-8"?>
<svg version="1.1" xmlns="http://www.w3.org/2000/svg" width="200" height="191">
<path d="M0 0 C0.99602609 2.38745952 1.09683657 3.62890603 0.44140625 6.140625 C0.15136719 6.83671875 -0.13867188 7.5328125 -0.4375 8.25 C-0.72496094 8.95640625 -1.01242188 9.6628125 -1.30859375 10.390625 C-1.53675781 10.92171875 -1.76492187 11.4528125 -2 12 C-2.66 12 -3.32 12 -4 12 C-4.07476562 12.6290625 -4.14953125 13.258125 -4.2265625 13.90625 C-5 16 -5 16 -6.9609375 16.90625 C-7.75757813 17.1021875 -8.55421875 17.298125 -9.375 17.5 C-13.14651246 18.57738101 -13.14651246 18.57738101 -16.0625 21.1875 C-16.371875 21.785625 -16.68125 22.38375 -17 23 C-14.78071806 25.90802461 -13.07030857 27.95312762 -10 30 C-3.90748478 29.4155148 2.02093921 26.09214998 6.1875 21.6875 C8 20 8 20 11.25 19.75 C12.1575 19.8325 13.065 19.915 14 20 C14 19.34 14 18.68 14 18 C15.65 18.33 17.3 18.66 19 19 C20.7046754 30.93272783 22.59723203 44.74109271 15 55 C12.21910741 57.52619402 9.34229274 59.30580333 6 61 C5.06414062 61.50660156 5.06414062 61.50660156 4.109375 62.0234375 C-0.55268961 64.31246922 -5.01547142 65.01625826 -9.99609375 63.3203125 C-11.68968196 62.60471185 -13.34885235 61.80872538 -15 61 C-15.680625 61.70125 -16.36125 62.4025 -17.0625 63.125 C-21.6381191 67.687657 -26.3215868 71.86192955 -32 75 C-34.78190223 76.5605793 -36.92439586 77.92439586 -39.1875 80.1875 C-39.785625 80.785625 -40.38375 81.38375 -41 82 C-41.66 82 -42.32 82 -43 82 C-43.0825 82.763125 -43.165 83.52625 -43.25 84.3125 C-44.15269355 87.54715191 -45.13593461 88.35099265 -48 90 C-48.66 90 -49.32 90 -50 90 C-50.495 91.485 -50.495 91.485 -51 93 C-53.9375 94.125 -53.9375 94.125 -57 95 C-57.99 95.495 -57.99 95.495 -59 96 C-58.67 96.99 -58.34 97.98 -58 99 C-56.948125 99.37125 -56.948125 99.37125 -55.875 99.75 C-52.29191511 101.307863 -50.2918646 103.52090477 -47.6484375 106.34375 C-45.9001396 108.20988685 -45.9001396 108.20988685 -43 110 C-43 110.66 -43 111.32 -43 112 C-42.43925781 112.25394531 -41.87851563 112.50789063 -41.30078125 112.76953125 C-32.45197636 117.50191417 -25.38732986 125.51877561 -18.43310547 132.60327148 C-13.29887634 137.79760028 -7.97393371 142.45696577 -1.80859375 146.40234375 C0 148 0 148 0.671875 150.05078125 C0.75947807 152.58689023 0.71111212 154.55293769 0 157 C-1.87005066 158.96736099 -3.74423223 160.29485201 -6.0546875 161.7109375 C-8.28518053 163.00832024 -8.28518053 163.00832024 -10 166 C-14.20367866 165.51053057 -15.87602133 164.5423506 -18.5 161.25 C-19.098125 160.52554688 -19.69625 159.80109375 -20.3125 159.0546875 C-20.869375 158.37664062 -21.42625 157.69859375 -22 157 C-24.72352312 154.14030073 -27.53804936 151.53000754 -30.5625 149 C-33.44227883 146.56804854 -35.69657391 143.99445392 -38 141 C-41.52944226 137.37234717 -45.2029853 133.9141402 -48.9375 130.5 C-49.43701172 130.03980469 -49.93652344 129.57960937 -50.45117188 129.10546875 C-52.98612309 126.78312634 -55.55173496 124.51781322 -58.19921875 122.32421875 C-60.98207082 120.01487847 -63.55288749 117.6630342 -66 115 C-66 114.34 -66 113.68 -66 113 C-66.61875 112.896875 -67.2375 112.79375 -67.875 112.6875 C-70 112 -70 112 -72 109 C-75.37454638 109.58181834 -76.66767964 110.56627441 -79 113 C-80.34270852 114.24167302 -81.69744724 115.47043426 -83.0625 116.6875 C-83.75472656 117.31011719 -84.44695312 117.93273437 -85.16015625 118.57421875 C-87 120 -87 120 -89 120 C-89 120.66 -89 121.32 -89 122 C-90.4609375 123.33203125 -90.4609375 123.33203125 -92.375 124.8125 C-95.3899796 127.35143019 -97.25462149 128.99359051 -98 133 C-97.96936987 138.03355177 -96.8642252 142.63419182 -95.4375 147.4375 C-93.64877066 153.64133687 -92.93242221 159.79726663 -95 166 C-95.66 166.33 -96.32 166.66 -97 167 C-97.680625 168.175625 -97.680625 168.175625 -98.375 169.375 C-101.50399171 174.42952507 -105.39131515 175.61595747 -110.87890625 177.25390625 C-113.25506929 177.99152649 -113.25506929 177.99152649 -116 180 C-123.86521241 180.80305472 -132.54576442 180.49871752 -139.5625 176.5625 C-141 175 -141 175 -141 172 C-141.99 172.66 -142.98 173.32 -144 174 C-147.6875 173.625 -147.6875 173.625 -151 173 C-150.65930765 169.84859577 -150.41923159 168.39218439 -148.0625 166.1875 C-146 165 -146 165 -144 165 C-143.773125 164.4225 -143.54625 163.845 -143.3125 163.25 C-142 161 -142 161 -139.6875 159.25 C-136.22242832 156.34900976 -133.71668521 153.20837879 -132 149 C-132.4951208 146.04023328 -132.4951208 146.04023328 -134 144 C-138.54879212 146.15985813 -142.75158601 148.89036301 -147.02734375 151.5390625 C-150.07413785 153.03643568 -151.67131711 153.42323459 -155 153 C-157.4375 151.75 -157.4375 151.75 -160 150 C-160.99 149.484375 -161.98 148.96875 -163 148.4375 C-167.70683061 144.61320013 -170.35167446 139.65753462 -171.4140625 133.6640625 C-171.63034663 128.06033719 -170.05108066 123.16432809 -168 118 C-167.34 118 -166.68 118 -166 118 C-165.690625 117.21625 -165.38125 116.4325 -165.0625 115.625 C-164 113 -164 113 -163 111 C-162.34 111 -161.68 111 -161 111 C-161 110.34 -161 109.68 -161 109 C-150.93984154 104.01443474 -141.83001015 103.59500064 -131.18359375 107.12109375 C-129 108 -129 108 -125.6875 109.875 C-123.01424132 111.35388022 -123.01424132 111.35388022 -120.3125 110 C-117.90212463 108.13040173 -117.90212463 108.13040173 -116.5625 105.5625 C-114.05875996 101.45636633 -110.49185279 99.49728426 -106 98 C-106 97.34 -106 96.68 -106 96 C-106.57878906 95.74089844 -107.15757813 95.48179688 -107.75390625 95.21484375 C-110.16823238 93.90900822 -111.92129473 92.41900584 -113.9375 90.5625 C-116.82550836 87.96864064 -119.6625737 85.98441564 -123 84 C-125.54966101 81.57782204 -127.95323193 79.04922954 -130.375 76.5 C-132.8982673 74.09688829 -135.46461131 72.21697883 -138.31640625 70.2421875 C-140.80005832 68.40970175 -142.84642904 66.20609708 -145 64 C-149.6607209 59.52458687 -149.6607209 59.52458687 -155 56 C-155.103125 55.21625 -155.20625 54.4325 -155.3125 53.625 C-155.74740333 50.77854539 -155.74740333 50.77854539 -158.4375 49.375 C-159.283125 48.92125 -160.12875 48.4675 -161 48 C-161.66 47.01 -162.32 46.02 -163 45 C-163.845625 44.690625 -164.69125 44.38125 -165.5625 44.0625 C-168 43 -168 43 -168.8125 41.0625 C-169 39 -169 39 -169 36 C-169.639375 35.278125 -170.27875 34.55625 -170.9375 33.8125 C-173.5791746 30.21021646 -174.42002449 27.38225552 -174 23 C-172.06784562 16.30295641 -169.60678027 9.32658969 -165 4 C-158.76162869 0.82703528 -151.83759846 1.76748663 -145.32421875 3.859375 C-142.31838997 5.13845108 -139.76624663 6.226033 -137.44921875 8.56640625 C-135.93057163 10.27750989 -135.93057163 10.27750989 -132.875 11.0625 C-128.12042179 12.94221697 -125.39884991 16.75315215 -122.14453125 20.55078125 C-118.87610573 24.28357324 -115.78431121 27.4052296 -111 29 C-109.67578125 30.3828125 -109.67578125 30.3828125 -108.3125 32.125 C-104.12367644 37.19952008 -99.19866293 41.30519732 -94 45.3125 C-93.01 46.1478125 -93.01 46.1478125 -92 47 C-92 47.66 -92 48.32 -92 49 C-91.2575 49.24363281 -90.515 49.48726562 -89.75 49.73828125 C-85.90131255 51.50408529 -83.80303369 54.26303984 -81.0625 57.41796875 C-79.13389675 59.20354163 -79.13389675 59.20354163 -76.74609375 59.1328125 C-72.57303668 57.41135226 -69.47195867 54.60310951 -66.0625 51.6875 C-61.50791569 47.84736029 -57.0169274 44.21826602 -52 41 C-51.2575 40.4225 -50.515 39.845 -49.75 39.25 C-48 38 -48 38 -46 38 C-46.3609375 37.51273438 -46.721875 37.02546875 -47.09375 36.5234375 C-51.59658247 29.64411011 -52.43968539 23.0747572 -51 15 C-49.17204359 10.89315894 -47.02398635 7.33480293 -44 4 C-43.01 3.67 -42.02 3.34 -41 3 C-41 2.34 -41 1.68 -41 1 C-39.02678947 -0.3726682 -37.02456848 -1.70427617 -35 -3 C-34.34 -3.66 -33.68 -4.32 -33 -5 C-21.43142617 -9.33821518 -10.01561979 -6.88573861 0 0 Z M-13 2 C-12 4 -12 4 -12 4 Z M-33.625 8.25 C-37.82271809 13.5925503 -39.56178657 17.11811458 -39 24 C-36.69 24.66 -34.38 25.32 -32 26 C-32 26.99 -32 27.98 -32 29 C-33.65 29.33 -35.3 29.66 -37 30 C-35.96905133 32.57737166 -35.4891374 33.76284247 -32.9375 35 C-31 36 -31 36 -30.25 38.125 C-30.1675 38.74375 -30.085 39.3625 -30 40 C-30.66 40 -31.32 40 -32 40 C-32.33 40.99 -32.66 41.98 -33 43 C-34.75 43.88671875 -34.75 43.88671875 -37 44.6875 C-41.76559338 46.66310991 -44.98750358 49.38536493 -48.71484375 52.90234375 C-51.75435986 55.69246366 -55.02584694 58.1130157 -58.34765625 60.5546875 C-59.16556641 61.27011719 -59.16556641 61.27011719 -60 62 C-60 62.66 -60 63.32 -60 64 C-61.485 64.495 -61.485 64.495 -63 65 C-64.21869929 67.50447516 -64.21869929 67.50447516 -65 70 C-65.99 70 -66.98 70 -68 70 C-68.2475 71.093125 -68.495 72.18625 -68.75 73.3125 C-70.02002851 77.05908409 -70.65756352 78.10595266 -74 80 C-73.45015228 83.87511727 -71.72444669 85.59576506 -68.9375 88.25 C-67.83728516 89.30960938 -67.83728516 89.30960938 -66.71484375 90.390625 C-66.14894531 90.92171875 -65.58304688 91.4528125 -65 92 C-64.29875 91.2575 -63.5975 90.515 -62.875 89.75 C-60.08299984 87.07939115 -57.21514527 85.11907302 -54 83 C-53.67 82.34 -53.34 81.68 -53 81 C-51.515 80.505 -51.515 80.505 -50 80 C-48.31066078 78.3563186 -46.64740076 76.6857124 -45 75 C-43.90473419 74.0933059 -42.80060214 73.19720618 -41.6875 72.3125 C-40.800625 71.549375 -39.91375 70.78625 -39 70 C-39 69.34 -39 68.68 -39 68 C-37.35 67.34 -35.7 66.68 -34 66 C-34 65.34 -34 64.68 -34 64 C-33.44570312 63.74863281 -32.89140625 63.49726562 -32.3203125 63.23828125 C-29.6052873 61.78935366 -27.30085613 60.08111605 -24.875 58.1875 C-24.00617188 57.52105469 -23.13734375 56.85460937 -22.2421875 56.16796875 C-19.86504847 53.86951551 -18.97138994 52.12700244 -18 49 C-16.02 49 -14.04 49 -12 49 C-11.505 51.475 -11.505 51.475 -11 54 C-3.73669366 55.04365955 0.61229358 55.52108385 6.6875 51 C10.85941784 45.58778226 11.340478 39.54578021 10.625 32.875 C10.315625 30.956875 10.315625 30.956875 10 29 C3.92313186 30.43925824 -1.37361933 33.87023646 -6 38 C-6.84712982 40.11562685 -6.84712982 40.11562685 -7 42 C-10.1875 42.8125 -10.1875 42.8125 -14 43 C-18.08999936 39.6298915 -20.32424205 35.94465175 -22.6875 31.25 C-24.56646968 26.87618656 -24.56646968 26.87618656 -28 24 C-27.79738425 19.7450692 -26.95540744 17.63298922 -23.9375 14.75 C-23.38964844 14.27046875 -22.84179688 13.7909375 -22.27734375 13.296875 C-20.7660928 12.06589956 -20.7660928 12.06589956 -21 10 C-20.01 10 -19.02 10 -18 10 C-17.3185177 8.10820797 -17.3185177 8.10820797 -17 6 C-18.91554238 3.66033656 -18.91554238 3.66033656 -22.25 3.6875 C-26.88755272 4.07396273 -29.95208041 5.42467724 -33.625 8.25 Z M-160 15 C-162.64318615 17.95414923 -162.96407593 19.36534138 -163.1875 23.3125 C-163.125625 24.199375 -163.06375 25.08625 -163 26 C-162.443125 25.649375 -161.88625 25.29875 -161.3125 24.9375 C-158.33043496 23.72855471 -157.03249633 23.96451345 -154 25 C-149.29590434 28.29286696 -145.18626894 32.22059659 -142 37 C-141.01 37 -140.02 37 -139 37 C-139 37.66 -139 38.32 -139 39 C-137.4492093 40.56864082 -137.4492093 40.56864082 -135.4375 42.1875 C-130.52510285 46.36216966 -126.05927259 50.88792555 -121.5625 55.5 C-119.45130428 57.55970314 -117.30466457 59.46406429 -115.0625 61.375 C-111.84200565 64.15963797 -109.08081081 67.08786244 -106.375 70.3671875 C-104.39091732 72.72328568 -102.20619017 74.85343659 -100 77 C-99 78 -98 79 -97 80 C-96.484375 79.236875 -95.96875 78.47375 -95.4375 77.6875 C-93 75 -93 75 -89.375 73.5 C-85.87723855 72.32243099 -85.87723855 72.32243099 -84.4375 69.5 C-83.66177482 66.7600266 -83.66177482 66.7600266 -86 64 C-86.66 64 -87.32 64 -88 64 C-88.2371875 63.43796875 -88.474375 62.8759375 -88.71875 62.296875 C-90.28947697 59.48105958 -92.21471464 57.52044584 -94.5 55.25 C-95.2940625 54.45078125 -96.088125 53.6515625 -96.90625 52.828125 C-98.78783462 50.78076391 -98.78783462 50.78076391 -101 51 C-101 50.34 -101 49.68 -101 49 C-102.50787161 47.62508701 -104.08539761 46.32635538 -105.6875 45.0625 C-107.18990234 43.85980469 -107.18990234 43.85980469 -108.72265625 42.6328125 C-109.25777832 42.20516602 -109.79290039 41.77751953 -110.34423828 41.33691406 C-119.35854833 34.05847675 -128.52908386 26.60117605 -136.625 18.3125 C-144.59013024 10.55697845 -149.92516306 9.71286335 -160 15 Z M-160 32 C-160 32.66 -160 33.32 -160 34 C-159.34 34 -158.68 34 -158 34 C-157.814375 34.680625 -157.62875 35.36125 -157.4375 36.0625 C-155.40888466 40.20793136 -152.32982729 42.8643527 -149 46 C-144 51 -144 51 -142.3125 52.8125 C-141.04781729 54.22363777 -141.04781729 54.22363777 -139 54 C-138.731875 54.804375 -138.46375 55.60875 -138.1875 56.4375 C-137.795625 57.283125 -137.40375 58.12875 -137 59 C-136.01 59.33 -135.02 59.66 -134 60 C-133.34 60.99 -132.68 61.98 -132 63 C-131.34 63 -130.68 63 -130 63 C-130 63.66 -130 64.32 -130 65 C-129.34 65 -128.68 65 -128 65 C-128 65.66 -128 66.32 -128 67 C-123.51422537 71.63244846 -118.16091862 75.51564209 -113.04296875 79.41796875 C-111.35852147 80.72236865 -109.73265014 82.10204336 -108.125 83.5 C-107.42375 83.995 -106.7225 84.49 -106 85 C-105.01 84.67 -104.02 84.34 -103 84 C-103.66 82.68 -104.32 81.36 -105 80 C-105.66 80 -106.32 80 -107 80 C-107 79.34 -107 78.68 -107 78 C-107.66 78 -108.32 78 -109 78 C-109.23847656 77.27401611 -109.47695312 76.54803223 -109.72265625 75.80004883 C-111.19643446 72.56939854 -112.92540874 70.70201527 -115.4375 68.19921875 C-116.33339844 67.30396484 -117.22929688 66.40871094 -118.15234375 65.48632812 C-119.09207031 64.56271484 -120.03179687 63.63910156 -121 62.6875 C-121.90878906 61.77548828 -122.81757812 60.86347656 -123.75390625 59.92382812 C-128.86631866 54.85141325 -134.09112748 50.14659577 -139.80859375 45.76489258 C-142 44 -142 44 -144.16015625 41.77612305 C-145.81360665 39.76848724 -145.81360665 39.76848724 -148 40 C-148.226875 39.4225 -148.45375 38.845 -148.6875 38.25 C-150.38704547 35.33649348 -152.17907198 33.83688336 -155 32 C-157.7104607 31.66407492 -157.7104607 31.66407492 -160 32 Z M-81 89 C-80.67 89.66 -80.34 90.32 -80 91 C-79.34 90.67 -78.68 90.34 -78 90 C-78.99 89.67 -79.98 89.34 -81 89 Z M-117 119 C-120.03055529 122.09352787 -122.08272503 123.90344474 -126.5625 124.375 C-130 124 -130 124 -132.37109375 123.37890625 C-137.29694796 122.66893915 -141.64699788 124.82677187 -146 127 C-150.30932325 130.33996546 -152.03958797 134.71773382 -153 140 C-152.72265062 142.82144903 -152.72265062 142.82144903 -152 145 C-148.47761996 143.69933317 -145.48505871 142.16259119 -142.375 140.0625 C-141.61960937 139.55847656 -140.86421875 139.05445313 -140.0859375 138.53515625 C-137.98636011 137.08250283 -137.98636011 137.08250283 -136.39453125 135.3203125 C-135 134 -135 134 -132.3125 133.8125 C-131.1678125 133.9053125 -131.1678125 133.9053125 -130 134 C-129.6596875 135.299375 -129.6596875 135.299375 -129.3125 136.625 C-127.75974905 140.61778814 -125.85680105 142.84248305 -123 146 C-124.43099507 150.11317432 -126.45178101 153.21443825 -129.0625 156.6875 C-131.75920044 160.20307017 -131.75920044 160.20307017 -134 164 C-132.56879256 164.55808089 -131.12969645 165.09596462 -129.6875 165.625 C-128.88699219 165.92664063 -128.08648437 166.22828125 -127.26171875 166.5390625 C-126.51535156 166.69117188 -125.76898438 166.84328125 -125 167 C-123.515 166.01 -123.515 166.01 -122 165 C-120.38512663 164.52648628 -118.75849031 164.09214881 -117.125 163.6875 C-111.82961015 162.15909302 -108.7389423 159.94518044 -105.890625 155.12109375 C-104.89689466 152.7544465 -104.73248504 151.05718468 -104.75 148.5 C-104.74484375 147.7471875 -104.7396875 146.994375 -104.734375 146.21875 C-104.87276247 143.9672633 -104.87276247 143.9672633 -106.0078125 142.046875 C-107.25308001 139.47789794 -107.19968466 137.58801721 -107.125 134.75 C-107.10695312 133.85796875 -107.08890625 132.9659375 -107.0703125 132.046875 C-107.04710937 131.37140625 -107.02390625 130.6959375 -107 130 C-106.34 129.67 -105.68 129.34 -105 129 C-105.66 127.35 -106.32 125.7 -107 124 C-106.443125 123.773125 -105.88625 123.54625 -105.3125 123.3125 C-102.33840412 121.62449964 -100.27991135 119.53323483 -98 117 C-98 116.34 -98 115.68 -98 115 C-97.01 114.67 -96.02 114.34 -95 114 C-92.7914234 112.12491838 -92.7914234 112.12491838 -91 110 C-91 109.34 -91 108.68 -91 108 C-90.01 107.67 -89.02 107.34 -88 107 C-88 105.02 -88 103.04 -88 101 C-100.30689376 98.70549438 -109.09441332 110.92665551 -117 119 Z M-152 116 C-154.4056808 119.94075703 -154.4056808 119.94075703 -154.6875 124.375 C-154.460625 124.91125 -154.23375 125.4475 -154 126 C-153.443125 125.4225 -152.88625 124.845 -152.3125 124.25 C-149.98866639 121.9889727 -147.55774076 119.98935393 -145 118 C-147.31 117.34 -149.62 116.68 -152 116 Z " fill="#212021" transform="translate(178,8)"/>
<path d="M0 0 C1.36125 0.8353125 1.36125 0.8353125 2.75 1.6875 C5.62382615 3.36389858 7.73076081 3.22808645 11 3 C12.25955231 6.77865693 11.48087189 8.03411786 10.0625 11.6875 C9.49208984 13.17830078 9.49208984 13.17830078 8.91015625 14.69921875 C8.60980469 15.45847656 8.30945312 16.21773437 8 17 C6.60427948 17.02736707 5.20839779 17.04655989 3.8125 17.0625 C3.03519531 17.07410156 2.25789063 17.08570313 1.45703125 17.09765625 C-1 17 -1 17 -3.453125 16.39453125 C-8.3044309 15.64302528 -12.69241003 17.90603265 -17 20 C-20.80298685 23.43196374 -22.00296199 27.01480993 -23 32 C-22.73500396 34.33308448 -22.73500396 34.33308448 -22 36 C-18.95613276 36.08226668 -16.92824652 35.97608217 -14 35 C-14 36.32 -14 37.64 -14 39 C-15.175625 39.0928125 -15.175625 39.0928125 -16.375 39.1875 C-17.24125 39.455625 -18.1075 39.72375 -19 40 C-20.37466625 42.47636012 -20.37466625 42.47636012 -21 45 C-25.3397295 45.37197681 -27.43661287 44.43353267 -31 42 C-31.99 41.484375 -32.98 40.96875 -34 40.4375 C-38.70683061 36.61320013 -41.35167446 31.65753462 -42.4140625 25.6640625 C-42.63034663 20.06033719 -41.05108066 15.16432809 -39 10 C-38.34 10 -37.68 10 -37 10 C-36.690625 9.21625 -36.38125 8.4325 -36.0625 7.625 C-35 5 -35 5 -34 3 C-33.34 3 -32.68 3 -32 3 C-32 2.34 -32 1.68 -32 1 C-21.29077023 -4.30722891 -11.08328959 -4.5480412 0 0 Z M-23 8 C-25.4056808 11.94075703 -25.4056808 11.94075703 -25.6875 16.375 C-25.460625 16.91125 -25.23375 17.4475 -25 18 C-24.443125 17.4225 -23.88625 16.845 -23.3125 16.25 C-20.98866639 13.9889727 -18.55774076 11.98935393 -16 10 C-18.31 9.34 -20.62 8.68 -23 8 Z " fill="#0C0C0D" transform="translate(49,116)"/>
<path d="M0 0 C2.64 0 5.28 0 8 0 C7.67 0.66 7.34 1.32 7 2 C7.99 2.33 8.98 2.66 10 3 C10 2.01 10 1.02 10 0 C15.61717192 -0.58512207 18.6376024 0.53780536 23.3984375 3.515625 C25.36633591 5.33953084 25.76671409 6.33954791 26 9 C25.44140625 11.140625 25.44140625 11.140625 24.5625 13.25 C24.13130859 14.30960938 24.13130859 14.30960938 23.69140625 15.390625 C23.46324219 15.92171875 23.23507813 16.4528125 23 17 C22.34 17 21.68 17 21 17 C20.92523438 17.6290625 20.85046875 18.258125 20.7734375 18.90625 C20 21 20 21 18.0390625 21.90625 C17.24242187 22.1021875 16.44578125 22.298125 15.625 22.5 C11.85348754 23.57738101 11.85348754 23.57738101 8.9375 26.1875 C8.628125 26.785625 8.31875 27.38375 8 28 C10.21928194 30.90802461 11.92969143 32.95312762 15 35 C18.67112041 34.65321664 21.44152576 33.43006271 24.625 31.625 C25.75808594 30.99464844 25.75808594 30.99464844 26.9140625 30.3515625 C29.04002985 29.10790314 29.04002985 29.10790314 30.48046875 27.31640625 C32 26 32 26 34.26171875 25.92578125 C35.06222656 26.05339844 35.86273438 26.18101563 36.6875 26.3125 C37.49574219 26.43238281 38.30398437 26.55226563 39.13671875 26.67578125 C39.75160156 26.78277344 40.36648437 26.88976562 41 27 C44.03901852 32.82478551 44.3540919 37.48208608 44 44 C43.34 44 42.68 44 42 44 C42 45.32 42 46.64 42 48 C39.525 48.495 39.525 48.495 37 49 C37.08378906 48.32453125 37.16757813 47.6490625 37.25390625 46.953125 C37.35574219 46.06109375 37.45757812 45.1690625 37.5625 44.25 C37.71912109 42.92742188 37.71912109 42.92742188 37.87890625 41.578125 C37.99456676 39.11567549 37.73638695 37.33461936 37 35 C32.33814913 35.52411341 29.20226721 36.738891 25.25 39.25 C24.30640625 39.83265625 23.3628125 40.4153125 22.390625 41.015625 C19.76048704 43.19881141 18.96011393 44.7624065 18 48 C14.8125 48.8125 14.8125 48.8125 11 49 C5.63669604 45.1690686 2.67790756 38.77357987 0.04296875 32.84765625 C-1.00117085 30.67284345 -1.00117085 30.67284345 -4 29 C-3.85946133 23.37845302 -1.33705791 20.5701892 2.2109375 16.5390625 C4 15 4 15 7 15 C7 14.34 7 13.68 7 13 C8.79036458 12.0234375 10.58072917 11.046875 12.37109375 10.0703125 C14.16618315 9.08589976 14.16618315 9.08589976 15 7 C14.21625 6.855625 13.4325 6.71125 12.625 6.5625 C10 6 10 6 8 5 C8 5.66 8 6.32 8 7 C5.36 7 2.72 7 0 7 C0 4.69 0 2.38 0 0 Z " fill="#141415" transform="translate(153,3)"/>
<path d="M0 0 C2.475 0.495 2.475 0.495 5 1 C6.7046754 12.93272783 8.59723203 26.74109271 1 37 C-1.78089259 39.52619402 -4.65770726 41.30580333 -8 43 C-8.62390625 43.33773437 -9.2478125 43.67546875 -9.890625 44.0234375 C-14.55268961 46.31246922 -19.01547142 47.01625826 -23.99609375 45.3203125 C-25.68968196 44.60471185 -27.34885235 43.80872538 -29 43 C-29.680625 43.70125 -30.36125 44.4025 -31.0625 45.125 C-36.21422713 50.262133 -41.45766357 54.72883179 -48 58 C-47.938125 56.88625 -47.87625 55.7725 -47.8125 54.625 C-47.874375 53.42875 -47.93625 52.2325 -48 51 C-48.99 50.34 -49.98 49.68 -51 49 C-47.02616809 45.42777876 -43.06963338 42.00255433 -38.6875 38.9375 C-35.24405959 36.42764461 -33.54118508 34.04561084 -32 30 C-30.02 30.33 -28.04 30.66 -26 31 C-25.67 32.65 -25.34 34.3 -25 36 C-18.35054758 36.23240805 -13.44776353 36.36418071 -7.8125 32.5 C-3.59835988 26.68739294 -3.74310751 18.93609728 -4 12 C-3.34 12 -2.68 12 -2 12 C0.09972674 15.41205596 0.33083127 18.0300247 0 22 C-1 24.375 -1 24.375 -2 26 C-0.35 25.67 1.3 25.34 3 25 C3 23.68 3 22.36 3 21 C3.66 21 4.32 21 5 21 C4.54775239 15.08507728 3.8417395 9.64800112 2 4 C-0.64 3.67 -3.28 3.34 -6 3 C-6 2.67 -6 2.34 -6 2 C-4.02 2 -2.04 2 0 2 C0 1.34 0 0.68 0 0 Z " fill="#363637" transform="translate(192,26)"/>
<path d="M0 0 C0.99 0.33 1.98 0.66 3 1 C2.319375 1.495 2.319375 1.495 1.625 2 C-0.84319974 5.0377843 -1.18843144 8.19187061 -2 12 C-1.443125 11.484375 -0.88625 10.96875 -0.3125 10.4375 C2 9 2 9 4.375 9 C7.86537347 10.32966608 10.31823883 12.48012993 13 15 C13.928125 15.86625 14.85625 16.7325 15.8125 17.625 C18 20 18 20 19 23 C19.99 23 20.98 23 22 23 C22 23.66 22 24.32 22 25 C22.639375 25.268125 23.27875 25.53625 23.9375 25.8125 C26 27 26 27 27 30 C28.31719929 30.69800304 29.65337955 31.36059748 31 32 C32.921875 33.65625 32.921875 33.65625 34.75 35.5 C35.67039062 36.41265625 35.67039062 36.41265625 36.609375 37.34375 C38 39 38 39 38 41 C38.58007812 41.26296875 39.16015625 41.5259375 39.7578125 41.796875 C45.94041568 45.11436939 51.25064078 50.89443884 56 56 C56 56.66 56 57.32 56 58 C56.99 58.33 57.98 58.66 59 59 C62 62.44444444 62 62.44444444 62 65 C63.485 65.495 63.485 65.495 65 66 C65 66.33 65 66.66 65 67 C63.35 67.33 61.7 67.66 60 68 C59.505 69.485 59.505 69.485 59 71 C58.01 70.505 58.01 70.505 57 70 C56.375 67.9375 56.375 67.9375 56 66 C55.34 66 54.68 66 54 66 C54 65.34 54 64.68 54 64 C53.34 64 52.68 64 52 64 C51.12411993 62.64117853 50.25020562 61.28106892 49.38330078 59.91650391 C46.3858151 55.76361605 42.56925075 52.27971381 38.9375 48.6875 C38.08929688 47.84316406 37.24109375 46.99882813 36.3671875 46.12890625 C31.13615719 40.96975269 25.8497623 36.08652532 20.03125 31.59375 C18.19763183 30.15506498 16.61860602 28.67067914 15 27 C9.84282738 22.06274945 5.84505101 18.91663127 -1.3125 17.5625 C-1.869375 17.376875 -2.42625 17.19125 -3 17 C-4.38921267 12.83236198 -3.87429538 9.26686038 -3 5 C-1.4375 1.9375 -1.4375 1.9375 0 0 Z " fill="#434345" transform="translate(17,22)"/>
<path d="M0 0 C2.9375 0.375 2.9375 0.375 6 1 C6.33 1.66 6.66 2.32 7 3 C7.66 2.01 8.32 1.02 9 0 C13.84146109 1.46710942 17.55948972 4.3512744 21 8 C21 8.66 21 9.32 21 10 C21.56074219 10.25394531 22.12148437 10.50789063 22.69921875 10.76953125 C31.54589583 15.50077621 38.61584975 23.51623418 45.56469727 30.60327148 C49.56853907 34.6576317 53.63273774 38.36313651 58.265625 41.703125 C60.01302655 43.00974057 61.49662317 44.42238234 63 46 C55.36923077 44.52307692 55.36923077 44.52307692 53.5 41.875 C53.335 41.25625 53.17 40.6375 53 40 C52.01 40 51.02 40 50 40 C49.34 40 48.68 40 48 40 C48 38.35 48 36.7 48 35 C45.03 34.505 45.03 34.505 42 34 C43.09786425 39.40787385 43.09786425 39.40787385 47 43 C47 43.99 47 44.98 47 46 C46.34 46 45.68 46 45 46 C45 45.34 45 44.68 45 44 C44.34 44 43.68 44 43 44 C41.79149903 42.55651273 40.58759219 41.10877792 39.4140625 39.63671875 C37.68389223 37.63411835 35.67890436 36.06583345 33.61328125 34.421875 C31.01868686 32.13511384 28.84397223 29.50299247 26.61328125 26.8671875 C23.94332004 23.77701448 21.75593773 21.68369623 18 20 C18 19.34 18 18.68 18 18 C17.443125 17.773125 16.88625 17.54625 16.3125 17.3125 C13.32795251 15.61856764 11.37345955 13.48385302 9 11 C8.40445313 10.42507812 7.80890625 9.85015625 7.1953125 9.2578125 C6.57398437 8.65710938 5.95265625 8.05640625 5.3125 7.4375 C4.73113281 6.87933594 4.14976563 6.32117188 3.55078125 5.74609375 C1.94034139 3.93282771 0.98070516 2.20779436 0 0 Z " fill="#2C2B2C" transform="translate(114,110)"/>
<path d="M0 0 C0.33 0.66 0.66 1.32 1 2 C0.34 2 -0.32 2 -1 2 C-1.33 3.65 -1.66 5.3 -2 7 C-0.02 7.66 1.96 8.32 4 9 C2.73046875 10.59505208 1.4609375 12.19010417 0.19140625 13.78515625 C-2.91322841 19.55672297 -1.85157928 24.8288384 -0.0625 30.8125 C1.90245846 37.95127089 3.40739934 44.77780198 1 52 C0.34 52 -0.32 52 -1 52 C-1 50.68 -1 49.36 -1 48 C-2.32 48 -3.64 48 -5 48 C-5.268125 48.598125 -5.53625 49.19625 -5.8125 49.8125 C-7.0728941 52.1342786 -7.85873791 53.4494309 -10 55 C-13.6875 55.6875 -13.6875 55.6875 -17 56 C-11.85714286 51.57142857 -11.85714286 51.57142857 -8 51 C-8.33 49.02 -8.66 47.04 -9 45 C-9.66 45 -10.32 45 -11 45 C-11.33 45.99 -11.66 46.98 -12 48 C-14.06640625 48.73046875 -14.06640625 48.73046875 -16.5625 49.1875 C-17.38878906 49.34605469 -18.21507812 49.50460938 -19.06640625 49.66796875 C-19.70449219 49.77753906 -20.34257813 49.88710937 -21 50 C-19 48 -19 48 -16.5 47.625 C-13.88501027 47.27166143 -13.88501027 47.27166143 -12.8125 45.1875 C-12.4103125 44.1046875 -12.4103125 44.1046875 -12 43 C-11.65839844 42.38769531 -11.31679687 41.77539062 -10.96484375 41.14453125 C-9.88794945 38.75094837 -9.73211374 37.11139416 -9.75 34.5 C-9.74484375 33.7471875 -9.7396875 32.994375 -9.734375 32.21875 C-9.86958927 29.96184014 -9.86958927 29.96184014 -11.0390625 28.0390625 C-12.2804439 25.40491172 -12.00954009 23.73768732 -11.625 20.875 C-11.45871094 19.57175781 -11.45871094 19.57175781 -11.2890625 18.2421875 C-11.14597656 17.13230469 -11.14597656 17.13230469 -11 16 C-11 15.34 -11 14.68 -11 14 C-11 10 -11 10 -8.875 7.5625 C-5.96598964 4.96968642 -3.02194503 2.4597227 0 0 Z " fill="#2D2D2E" transform="translate(82,122)"/>
<path d="M0 0 C1.6875 0.125 1.6875 0.125 4 1 C5.19250258 2.39125302 6.37768113 3.7907053 7.49609375 5.2421875 C9.84768784 7.99080397 12.63573696 10.19457895 15.42578125 12.484375 C16.20501953 13.23460937 16.20501953 13.23460937 17 14 C17 14.66 17 15.32 17 16 C17.556875 16.2475 18.11375 16.495 18.6875 16.75 C23.9153962 19.57588984 27.24505085 23.47480487 31 28 C32.32901064 29.00573778 33.66073801 30.00795408 35 31 C35 31.66 35 32.32 35 33 C35.5775 33.268125 36.155 33.53625 36.75 33.8125 C39.12367963 35.06527536 41.06206571 36.13127765 43 38 C43.25 40.6875 43.25 40.6875 43 43 C39.98240576 43.44159916 37.83155689 43.54160613 35.21875 41.83984375 C33.40862631 40.28774208 31.69391745 38.67782322 30 37 C29.21625 36.2575 28.4325 35.515 27.625 34.75 C26.09223549 33.14424671 24.57807757 31.51955003 23.11328125 29.8515625 C16.3957627 22.20541032 9.23191905 14.44676603 0.69140625 8.8203125 C-2 7 -2 7 -2.875 4.75 C-2.91625 4.1725 -2.9575 3.595 -3 3 C-2.34 3 -1.68 3 -1 3 C-0.67 2.01 -0.34 1.02 0 0 Z " fill="#818183" transform="translate(33,26)"/>
<path d="M0 0 C1.65 0 3.3 0 5 0 C4.67 0.99 4.34 1.98 4 3 C4.66 3.33 5.32 3.66 6 4 C5.34 4 4.68 4 4 4 C4.515625 4.61875 5.03125 5.2375 5.5625 5.875 C7.63526479 10.38101042 6.77258127 14.20627283 6 19 C7.32 19.33 8.64 19.66 10 20 C10.33 23.3 10.66 26.6 11 30 C14.46941546 29.54177532 17.67395049 29.10868317 21 28 C21 29.32 21 30.64 21 32 C19.824375 32.0928125 19.824375 32.0928125 18.625 32.1875 C17.75875 32.455625 16.8925 32.72375 16 33 C14.62533375 35.47636012 14.62533375 35.47636012 14 38 C12.35 38 10.7 38 9 38 C9.495 35.03 9.495 35.03 10 32 C8.88625 32.185625 7.7725 32.37125 6.625 32.5625 C3 33 3 33 1 32 C1 31.34 1 30.68 1 30 C0.34 30 -0.32 30 -1 30 C-1.99 27.03 -2.98 24.06 -4 21 C-2.35 20.67 -0.7 20.34 1 20 C0.67 17.69 0.34 15.38 0 13 C-0.66 13 -1.32 13 -2 13 C-2 14.98 -2 16.96 -2 19 C-2.33 18.01 -2.66 17.02 -3 16 C-3.66 16 -4.32 16 -5 16 C-4.44687265 11.97007218 -3.8441938 7.97977076 -3 4 C-2.34 4 -1.68 4 -1 4 C-0.67 2.68 -0.34 1.36 0 0 Z " fill="#040405" transform="translate(14,123)"/>
<path d="M0 0 C3.56031652 1.61061938 4.60777218 3.85418402 6.48046875 7.1953125 C7.61372034 9.32314313 7.61372034 9.32314313 9.5625 11.375 C10.625 13.1875 10.625 13.1875 10.125 15.5 C8.20130186 18.94662584 5.98390539 22.02160065 3.625 25.1875 C3.295 23.8675 2.965 22.5475 2.625 21.1875 C0.645 22.1775 -1.335 23.1675 -3.375 24.1875 C-3.08625 23.65125 -2.7975 23.115 -2.5 22.5625 C-1.18609343 19.78869724 -0.13535792 17.16556852 0.625 14.1875 C-0.035 13.1975 -0.695 12.2075 -1.375 11.1875 C-4.67581791 12.80647259 -7.90057433 14.54674309 -11.125 16.3125 C-12.10984375 16.85132813 -13.0946875 17.39015625 -14.109375 17.9453125 C-14.85703125 18.35523438 -15.6046875 18.76515625 -16.375 19.1875 C-16.375 17.5375 -16.375 15.8875 -16.375 14.1875 C-14.395 14.1875 -12.415 14.1875 -10.375 14.1875 C-10.375 12.8675 -10.375 11.5475 -10.375 10.1875 C-11.365 10.8475 -12.355 11.5075 -13.375 12.1875 C-15.5625 11.8125 -15.5625 11.8125 -17.375 11.1875 C-10.95778146 6.53187086 -10.95778146 6.53187086 -7.625 4.5625 C-5.33322332 3.32086401 -5.33322332 3.32086401 -3.875 1.4375 C-2.375 0.1875 -2.375 0.1875 0 0 Z " fill="#464548" transform="translate(45.375,140.8125)"/>
<path d="M0 0 C2.97 0.495 2.97 0.495 6 1 C6 2.65 6 4.3 6 6 C6.66 6 7.32 6 8 6 C8.33 5.34 8.66 4.68 9 4 C11 5.3125 11 5.3125 13 7 C13 7.99 13 8.98 13 10 C17.455 10.99 17.455 10.99 22 12 C22.1953125 18.8359375 22.1953125 18.8359375 22 21 C20 23 20 23 16.125 23.25 C12.94603525 23.18064077 10.70382382 22.80254921 8 21 C8 20.34 8 19.68 8 19 C6.68 19 5.36 19 4 19 C3.67 17.35 3.34 15.7 3 14 C3.99 13.34 4.98 12.68 6 12 C6 11.01 6 10.02 6 9 C5.38125 8.87625 4.7625 8.7525 4.125 8.625 C2 8 2 8 0 6 C-0.125 2.875 -0.125 2.875 0 0 Z " fill="#151515" transform="translate(156,144)"/>
<path d="M0 0 C1.65 0 3.3 0 5 0 C6.10844919 3.32534757 5.84454356 5.62182575 5 9 C4.01 9.33 3.02 9.66 2 10 C1.401875 10.639375 0.80375 11.27875 0.1875 11.9375 C-2.38750415 14.36536105 -4.61963637 15.07808265 -8 16 C-8 16.66 -8 17.32 -8 18 C-8.66 18 -9.32 18 -10 18 C-10 18.66 -10 19.32 -10 20 C-10.99 20.66 -11.98 21.32 -13 22 C-13 22.66 -13 23.32 -13 24 C-17.95 24.495 -17.95 24.495 -23 25 C-20.52767528 17.33579336 -20.52767528 17.33579336 -17.9375 15.6875 C-17.298125 15.460625 -16.65875 15.23375 -16 15 C-15.34 14.01 -14.68 13.02 -14 12 C-13.01 12 -12.02 12 -11 12 C-10.75378906 11.40445313 -10.50757813 10.80890625 -10.25390625 10.1953125 C-8.79824025 7.6467633 -7.33672028 6.53834328 -4.9375 4.875 C-1.95372478 2.88925353 -1.95372478 2.88925353 0 0 Z " fill="#1C1C1D" transform="translate(139,76)"/>
<path d="M0 0 C7.04373029 3.19315773 12.78600997 9.39496072 18 15 C18 15.66 18 16.32 18 17 C18.99 17.33 19.98 17.66 21 18 C24 21.44444444 24 21.44444444 24 24 C24.99 24.33 25.98 24.66 27 25 C27 25.33 27 25.66 27 26 C25.35 26.33 23.7 26.66 22 27 C21.67 27.99 21.34 28.98 21 30 C20.34 29.67 19.68 29.34 19 29 C18.375 26.9375 18.375 26.9375 18 25 C17.34 25 16.68 25 16 25 C16 24.34 16 23.68 16 23 C15.34 23 14.68 23 14 23 C13.08222863 21.60618834 12.16871904 20.20940731 11.27539062 18.79980469 C8.84579806 15.37121427 5.75212532 12.54780087 2.75 9.625 C2.1003125 8.98433594 1.450625 8.34367187 0.78125 7.68359375 C-0.80800885 6.11770636 -2.40176417 4.55671491 -4 3 C-2.68 2.67 -1.36 2.34 0 2 C0 1.34 0 0.68 0 0 Z " fill="#929193" transform="translate(55,63)"/>
<path d="M0 0 C1.65 0.33 3.3 0.66 5 1 C6.761529 13.33070302 8.21484109 26.13401206 1 37 C0.01 37.495 0.01 37.495 -1 38 C-1.33 35.03 -1.66 32.06 -2 29 C-2.8353125 30.4540625 -2.8353125 30.4540625 -3.6875 31.9375 C-6 35 -6 35 -8.75 35.875 C-9.4925 35.91625 -10.235 35.9575 -11 36 C-10.21625 35.21625 -9.4325 34.4325 -8.625 33.625 C-3.61428847 27.60646831 -3.72276375 19.48537866 -4 12 C-3.34 12 -2.68 12 -2 12 C0.09972674 15.41205596 0.33083127 18.0300247 0 22 C-1 24.375 -1 24.375 -2 26 C-0.35 25.67 1.3 25.34 3 25 C3 23.68 3 22.36 3 21 C3.66 21 4.32 21 5 21 C4.54775239 15.08507728 3.8417395 9.64800112 2 4 C-0.64 3.67 -3.28 3.34 -6 3 C-6 2.67 -6 2.34 -6 2 C-4.02 2 -2.04 2 0 2 C0 1.34 0 0.68 0 0 Z " fill="#252427" transform="translate(192,26)"/>
<path d="M0 0 C1.32 0 2.64 0 4 0 C4.8125 1.6875 4.8125 1.6875 5 4 C3 6.375 3 6.375 0 9 C-0.85078125 9.76570313 -0.85078125 9.76570313 -1.71875 10.546875 C-5.55505093 13.94570301 -9.40093859 16.70046929 -14 19 C-13.9071875 17.329375 -13.9071875 17.329375 -13.8125 15.625 C-13.874375 14.42875 -13.93625 13.2325 -14 12 C-14.99 11.34 -15.98 10.68 -17 10 C-15.75482035 8.86966702 -14.50363348 7.74594964 -13.25 6.625 C-12.55390625 5.99851562 -11.8578125 5.37203125 -11.140625 4.7265625 C-9.15491312 3.12494817 -7.32045907 2.03479932 -5 1 C-3.68 1.99 -2.36 2.98 -1 4 C-0.67 2.68 -0.34 1.36 0 0 Z " fill="#343435" transform="translate(158,65)"/>
<path d="M0 0 C1.5 1.3125 1.5 1.3125 3 3 C3 3.99 3 4.98 3 6 C0.525 5.505 0.525 5.505 -2 5 C-2 6.32 -2 7.64 -2 9 C-3.375 10.75 -3.375 10.75 -5 12 C-5.66 12 -6.32 12 -7 12 C-7.2165625 12.8971875 -7.2165625 12.8971875 -7.4375 13.8125 C-7.8872439 15.56150404 -8.42892341 17.28677023 -9 19 C-13.05431692 20.15837626 -15.21812119 19.83691257 -19 18 C-18.34 16.35 -17.68 14.7 -17 13 C-16.34 13 -15.68 13 -15 13 C-14.67 11.35 -14.34 9.7 -14 8 C-12.68 8 -11.36 8 -10 8 C-10 7.34 -10 6.68 -10 6 C-8.375 3.875 -8.375 3.875 -6 2 C-2.75 1.75 -2.75 1.75 0 2 C0 1.34 0 0.68 0 0 Z " fill="#0F0F10" transform="translate(98,111)"/>
<path d="M0 0 C2.8125 0.1875 2.8125 0.1875 6 1 C7.375 3.0625 7.375 3.0625 9 6 C13.091164 10.67125442 17.71786369 14.63495315 22.5625 18.5 C33.8609088 27.58272641 33.8609088 27.58272641 36 34 C36.66 34 37.32 34 38 34 C39.65625 35.71484375 39.65625 35.71484375 41.5 37.9375 C43.88926999 40.92045179 43.88926999 40.92045179 47 43 C47 43.99 47 44.98 47 46 C46.34 46 45.68 46 45 46 C45 45.34 45 44.68 45 44 C44.34 44 43.68 44 43 44 C41.79149903 42.55651273 40.58759219 41.10877792 39.4140625 39.63671875 C37.68389223 37.63411835 35.67890436 36.06583345 33.61328125 34.421875 C31.01868686 32.13511384 28.84397223 29.50299247 26.61328125 26.8671875 C23.94332004 23.77701448 21.75593773 21.68369623 18 20 C18 19.34 18 18.68 18 18 C17.443125 17.773125 16.88625 17.54625 16.3125 17.3125 C13.32795251 15.61856764 11.37345955 13.48385302 9 11 C8.40445313 10.42507812 7.80890625 9.85015625 7.1953125 9.2578125 C6.57398437 8.65710938 5.95265625 8.05640625 5.3125 7.4375 C4.73113281 6.87933594 4.14976563 6.32117188 3.55078125 5.74609375 C1.94034139 3.93282771 0.98070516 2.20779436 0 0 Z " fill="#D8D8DA" transform="translate(114,110)"/>
<path d="M0 0 C5.20646637 0.08535191 5.20646637 0.08535191 8 1 C11.63746491 6.34252658 11.34199078 11.70483639 11 18 C10.34 18 9.68 18 9 18 C9 19.32 9 20.64 9 22 C7.35 22.33 5.7 22.66 4 23 C4.08378906 22.32453125 4.16757813 21.6490625 4.25390625 20.953125 C4.35574219 20.06109375 4.45757812 19.1690625 4.5625 18.25 C4.66691406 17.36828125 4.77132812 16.4865625 4.87890625 15.578125 C4.99456676 13.11567549 4.73638695 11.33461936 4 9 C3.34 9 2.68 9 2 9 C2 8.34 2 7.68 2 7 C0.35 6.67 -1.3 6.34 -3 6 C-2.01 4.02 -1.02 2.04 0 0 Z " fill="#060606" transform="translate(186,29)"/>
<path d="M0 0 C1.98 0.495 1.98 0.495 4 1 C4 1.66 4 2.32 4 3 C9.55053286 2.25640327 9.55053286 2.25640327 15 1 C14.40138258 3.35171131 13.73075648 5.6859378 13 8 C12.01 8.495 12.01 8.495 11 9 C10.27840576 10.64363134 9.60648579 12.31050386 9 14 C6.69 14.33 4.38 14.66 2 15 C-0.06154407 11.90768389 -0.22394445 11.39241113 -0.0625 7.9375 C0.29943567 4.21441073 0.29943567 4.21441073 -1 2 C-0.67 1.34 -0.34 0.68 0 0 Z " fill="#151516" transform="translate(162,37)"/>
<path d="M0 0 C3.78520613 0.54074373 5.59177555 2.07572746 8 5 C8 5.99 8 6.98 8 8 C8.86625 8.2475 9.7325 8.495 10.625 8.75 C14.21418695 10.0793285 16.89759992 11.77436516 20 14 C20.78375 14.474375 21.5675 14.94875 22.375 15.4375 C24 17 24 17 24.25 19.6875 C24.12625 20.8321875 24.12625 20.8321875 24 22 C20.98240576 22.44159916 18.83155689 22.54160613 16.21875 20.83984375 C14.40836715 19.28751986 12.69408645 17.67817954 11 16 C10.113125 15.154375 9.22625 14.30875 8.3125 13.4375 C4.23302257 9.13751028 1.61280313 5.77921123 0 0 Z " fill="#78777A" transform="translate(52,47)"/>
<path d="M0 0 C1 2 1 2 1 5 C1.99 5 2.98 5 4 5 C4 5.99 4 6.98 4 8 C6.64 7.67 9.28 7.34 12 7 C11.2575 7.515625 10.515 8.03125 9.75 8.5625 C5.84840379 12.02073301 2.51820392 16.64522619 2 22 C2.27050453 24.00946222 2.59367909 26.01354224 3 28 C2.01 27.67 1.02 27.34 0 27 C0 23.7 0 20.4 0 17 C-1.32 16.67 -2.64 16.34 -4 16 C-3.7834375 15.0409375 -3.7834375 15.0409375 -3.5625 14.0625 C-2.94649554 10.70869792 -2.64724972 7.38539538 -2.37890625 3.98828125 C-2 2 -2 2 0 0 Z " fill="#747476" transform="translate(24,126)"/>
<path d="M0 0 C0.33 0 0.66 0 1 0 C2.125 7.625 2.125 7.625 1 11 C-4.06104999 14.46282368 -9.96350596 15.1990053 -16 15 C-16.99 14.34 -17.98 13.68 -19 13 C-19 12.34 -19 11.68 -19 11 C-14.545 10.505 -14.545 10.505 -10 10 C-10 9.34 -10 8.68 -10 8 C-8.906875 7.608125 -7.81375 7.21625 -6.6875 6.8125 C-3.06913238 5.29205462 -1.73489657 3.56617628 0 0 Z " fill="#111112" transform="translate(190,54)"/>
<path d="M0 0 C1.33332095 2.6666419 0.67102033 4.16680303 0 7 C-0.99 6.67 -1.98 6.34 -3 6 C-3.144375 7.051875 -3.28875 8.10375 -3.4375 9.1875 C-3.87526966 12.15460549 -4.37804866 15.06794366 -5 18 C-4.34 18 -3.68 18 -3 18 C-2.67 17.01 -2.34 16.02 -2 15 C-1.34 15 -0.68 15 0 15 C0.33 17.31 0.66 19.62 1 22 C-0.65 22.33 -2.3 22.66 -4 23 C-3.505 23.928125 -3.01 24.85625 -2.5 25.8125 C-1 29 -1 29 -1 32 C-0.34 32 0.32 32 1 32 C1 32.66 1 33.32 1 34 C3.97 34 6.94 34 10 34 C9.67 35.65 9.34 37.3 9 39 C1.45668544 36.30169973 -2.55022463 33.13465276 -6.00390625 25.8359375 C-8.63050881 18.3578455 -6.84525846 12.16395433 -4 5 C-3.34 5 -2.68 5 -2 5 C-1.34 3.35 -0.68 1.7 0 0 Z " fill="#5A595C" transform="translate(14,121)"/>
<path d="M0 0 C0.66 0 1.32 0 2 0 C2 1.65 2 3.3 2 5 C4.97 5.33 7.94 5.66 11 6 C11 6.66 11 7.32 11 8 C5.06 9.32 -0.88 10.64 -7 12 C-7.33 10.68 -7.66 9.36 -8 8 C-6.0625 5.75 -6.0625 5.75 -4 4 C-4.66 3.34 -5.32 2.68 -6 2 C-4.02 2 -2.04 2 0 2 C0 1.34 0 0.68 0 0 Z " fill="#424143" transform="translate(35,123)"/>
<path d="M0 0 C3.3 0 6.6 0 10 0 C10.33 0.66 10.66 1.32 11 2 C13.34907875 2.68931344 13.34907875 2.68931344 16.0625 3.125 C16.98160156 3.29257813 17.90070313 3.46015625 18.84765625 3.6328125 C19.91306641 3.81457031 19.91306641 3.81457031 21 4 C20.21625 4.598125 19.4325 5.19625 18.625 5.8125 C15.85425677 7.91085249 15.85425677 7.91085249 14 11 C9.6913282 10.51796271 8.01157031 9.41662558 5.3125 6.0625 C4.73113281 5.35222656 4.14976562 4.64195312 3.55078125 3.91015625 C3.03902344 3.27980469 2.52726563 2.64945313 2 2 C1.34 1.34 0.68 0.68 0 0 Z " fill="#515053" transform="translate(154,163)"/>
<path d="M0 0 C3.52191627 0.26088269 4.21275268 1.24314592 6.625 4 C7.40875 4.99 8.1925 5.98 9 7 C9.66 7.33 10.32 7.66 11 8 C11.625 11.0625 11.625 11.0625 12 14 C10.68 13.67 9.36 13.34 8 13 C8 12.01 8 11.02 8 10 C6.6696875 10.12375 6.6696875 10.12375 5.3125 10.25 C1.26898131 9.94482878 -0.20614118 8.87603114 -3 6 C-3 5.01 -3 4.02 -3 3 C-2.34 3 -1.68 3 -1 3 C-0.67 2.01 -0.34 1.02 0 0 Z " fill="#333334" transform="translate(33,26)"/>
<path d="M0 0 C0.33 0.66 0.66 1.32 1 2 C1.60328125 2.30164062 2.2065625 2.60328125 2.828125 2.9140625 C5.23698086 4.11849043 6.82899763 5.49504469 8.75 7.375 C9.36359375 7.96023437 9.9771875 8.54546875 10.609375 9.1484375 C12 11 12 11 12 15 C9.86328125 15.3125 9.86328125 15.3125 7 15 C4.86417159 13.38587866 3.07253156 11.86238098 1.1875 10 C0.68541016 9.52304687 0.18332031 9.04609375 -0.33398438 8.5546875 C-1.5665673 7.380799 -2.78475789 6.19183114 -4 5 C-2.68 4.67 -1.36 4.34 0 4 C0 2.68 0 1.36 0 0 Z " fill="#929194" transform="translate(43,50)"/>
<path d="M0 0 C2.97 0.495 2.97 0.495 6 1 C6 2.65 6 4.3 6 6 C6.66 6 7.32 6 8 6 C8.33 5.34 8.66 4.68 9 4 C9.33 4.66 9.66 5.32 10 6 C9.67 6.99 9.34 7.98 9 9 C9.66 9 10.32 9 11 9 C12.33333333 10.33333333 13.66666667 11.66666667 15 13 C11.37 13.33 7.74 13.66 4 14 C4.66 13.34 5.32 12.68 6 12 C6 11.01 6 10.02 6 9 C5.38125 8.87625 4.7625 8.7525 4.125 8.625 C2 8 2 8 0 6 C-0.125 2.875 -0.125 2.875 0 0 Z M3 14 C3.99 14.33 4.98 14.66 6 15 C6.6875 17.0625 6.6875 17.0625 7 19 C6.01 19 5.02 19 4 19 C3.67 17.35 3.34 15.7 3 14 Z " fill="#111112" transform="translate(156,144)"/>
<path d="M0 0 C0 3 0 3 -1 6 C-3.0625 7.6875 -3.0625 7.6875 -5 9 C-4.67 9.99 -4.34 10.98 -4 12 C-4 12.99 -4 13.98 -4 15 C-7.8503105 17.56687367 -9.58569763 16.83288724 -14 16 C-13.65930765 12.84859577 -13.41923159 11.39218439 -11.0625 9.1875 C-9 8 -9 8 -7 8 C-6.773125 7.4225 -6.54625 6.845 -6.3125 6.25 C-4.66961977 3.4336339 -2.60466773 1.91922886 0 0 Z " fill="#1B1B1C" transform="translate(41,165)"/>
<path d="M0 0 C0.33 0.66 0.66 1.32 1 2 C0.01 3.485 0.01 3.485 -1 5 C0.32 5.99 1.64 6.98 3 8 C1.37829621 9.00533667 -0.24747237 10.00411907 -1.875 11 C-2.77992188 11.556875 -3.68484375 12.11375 -4.6171875 12.6875 C-7 14 -7 14 -9 14 C-8.67 12.35 -8.34 10.7 -8 9 C-8.515625 9.33 -9.03125 9.66 -9.5625 10 C-12.78026512 11.32010877 -15.5570528 11.13242105 -19 11 C-19.33 10.01 -19.66 9.02 -20 8 C-19.071875 8.309375 -18.14375 8.61875 -17.1875 8.9375 C-12.02005836 9.7422655 -8.44668454 6.54374548 -4.35546875 3.76171875 C-1.96914945 2.06430672 -1.96914945 2.06430672 0 0 Z " fill="#606061" transform="translate(185,29)"/>
<path d="M0 0 C1.3921875 1.2065625 1.3921875 1.2065625 2.8125 2.4375 C6.98950425 6.02511101 11.26563991 9.48715853 15.546875 12.94921875 C17.47712592 14.56288393 19.26762817 16.18100958 21 18 C13.36923077 16.52307692 13.36923077 16.52307692 11.5 13.875 C11.2525 12.946875 11.2525 12.946875 11 12 C10.01 12 9.02 12 8 12 C7.34 12 6.68 12 6 12 C6 10.35 6 8.7 6 7 C3.03 6.505 3.03 6.505 0 6 C0 7.65 0 9.3 0 11 C-2 9.625 -2 9.625 -4 8 C-4 7.34 -4 6.68 -4 6 C-4.66 5.67 -5.32 5.34 -6 5 C-4.68 5 -3.36 5 -2 5 C-1.34 3.35 -0.68 1.7 0 0 Z " fill="#39393C" transform="translate(156,138)"/>
<path d="M0 0 C0.99 0.66 1.98 1.32 3 2 C3 2.66 3 3.32 3 4 C3.99 4.33 4.98 4.66 6 5 C9 8.44444444 9 8.44444444 9 11 C9.99 11.33 10.98 11.66 12 12 C12 12.33 12 12.66 12 13 C10.35 13.33 8.7 13.66 7 14 C6.67 14.99 6.34 15.98 6 17 C5.34 16.67 4.68 16.34 4 16 C3.375 13.9375 3.375 13.9375 3 12 C2.34 12 1.68 12 1 12 C1 11.34 1 10.68 1 10 C0.34 10 -0.32 10 -1 10 C-2.8597711 7.40759181 -4.57205423 4.85589153 -6 2 C-3.0737247 3.31177858 -1.24710766 4.75289234 1 7 C3.09989652 8.17574711 3.09989652 8.17574711 5 9 C4.67 8.01 4.34 7.02 4 6 C2.68 6 1.36 6 0 6 C0 4.02 0 2.04 0 0 Z " fill="#6D6D6F" transform="translate(70,76)"/>
<path d="M0 0 C-0.6875 2.375 -0.6875 2.375 -2 5 C-3.64363134 5.72159424 -5.31050386 6.39351421 -7 7 C-7.33 7.99 -7.66 8.98 -8 10 C-10.75 11.0625 -10.75 11.0625 -14 12 C-15.67163195 12.65411685 -17.34015202 13.31653318 -19 14 C-19 13.01 -19 12.02 -19 11 C-20.32 11 -21.64 11 -23 11 C-23.33 9.68 -23.66 8.36 -24 7 C-23.01 7 -22.02 7 -21 7 C-18.32601524 5.06102121 -18.32601524 5.06102121 -16 3 C-16.66 4.98 -17.32 6.96 -18 9 C-15.03 9 -12.06 9 -9 9 C-9.33 8.01 -9.66 7.02 -10 6 C-8.68 5.67 -7.36 5.34 -6 5 C-6 4.34 -6 3.68 -6 3 C-5.34 3 -4.68 3 -4 3 C-4 2.34 -4 1.68 -4 1 C-2 0 -2 0 0 0 Z " fill="#6D6C6F" transform="translate(135,91)"/>
<path d="M0 0 C0.66 0.33 1.32 0.66 2 1 C1.67 2.32 1.34 3.64 1 5 C-0.65 5 -2.3 5 -4 5 C-4.433125 5.86625 -4.433125 5.86625 -4.875 6.75 C-5.24625 7.4925 -5.6175 8.235 -6 9 C-6.2475 9.721875 -6.495 10.44375 -6.75 11.1875 C-8 13 -8 13 -11.125 13.75 C-12.548125 13.87375 -12.548125 13.87375 -14 14 C-13.49614177 9.59124045 -12.0886933 7.17449034 -9 4 C-5.616593 2.22371132 -3.91065931 2 0 2 C0 1.34 0 0.68 0 0 Z " fill="#151516" transform="translate(119,57)"/>
<path d="M0 0 C2.64 0 5.28 0 8 0 C7.67 0.66 7.34 1.32 7 2 C7.99 2.33 8.98 2.66 10 3 C10 2.01 10 1.02 10 0 C11.32 0 12.64 0 14 0 C14 0.66 14 1.32 14 2 C15.32 2.33 16.64 2.66 18 3 C17.01 3.33 16.02 3.66 15 4 C15.33 4.66 15.66 5.32 16 6 C13.36 5.67 10.72 5.34 8 5 C8 5.66 8 6.32 8 7 C5.36 7 2.72 7 0 7 C0 4.69 0 2.38 0 0 Z " fill="#0A0A0B" transform="translate(153,3)"/>
<path d="M0 0 C1.5 1.3125 1.5 1.3125 3 3 C3 3.99 3 4.98 3 6 C1.35 5.67 -0.3 5.34 -2 5 C-2 6.32 -2 7.64 -2 9 C-5 11 -5 11 -8.1875 10.625 C-9.5796875 10.315625 -9.5796875 10.315625 -11 10 C-10.45738189 6.20167325 -9.04889927 4.30727513 -6 2 C-2.75 1.75 -2.75 1.75 0 2 C0 1.34 0 0.68 0 0 Z " fill="#060606" transform="translate(98,111)"/>
<path d="M0 0 C0.66 0.33 1.32 0.66 2 1 C1.34 1.66 0.68 2.32 0 3 C-0.6425235 5.06874034 -0.6425235 5.06874034 -1 7 C0.98 6.67 2.96 6.34 5 6 C5.33 4.68 5.66 3.36 6 2 C6.99 2 7.98 2 9 2 C8.34 3.65 7.68 5.3 7 7 C8.65 6.67 10.3 6.34 12 6 C12 6.66 12 7.32 12 8 C10.37373596 9.38232443 8.7074998 10.71937515 7 12 C6.67 10.68 6.34 9.36 6 8 C2.45481116 9.39759905 2.45481116 9.39759905 -1 11 C-2.5 9.6875 -2.5 9.6875 -4 8 C-4 7.01 -4 6.02 -4 5 C-5.32 5 -6.64 5 -8 5 C-7.67 4.34 -7.34 3.68 -7 3 C-5.33499557 2.65846063 -3.66821323 2.32550502 -2 2 C-1.34 1.34 -0.68 0.68 0 0 Z " fill="#949397" transform="translate(106,64)"/>
<path d="M0 0 C0.99 0.33 1.98 0.66 3 1 C2.319375 1.495 2.319375 1.495 1.625 2 C-0.84319974 5.0377843 -1.18843144 8.19187061 -2 12 C-1.443125 11.484375 -0.88625 10.96875 -0.3125 10.4375 C2 9 2 9 4.4375 9 C7.79135053 10.30881972 9.61908898 12.34698486 12 15 C10.35 14.67 8.7 14.34 7 14 C7 13.34 7 12.68 7 12 C5.35 12 3.7 12 2 12 C1.34 13.32 0.68 14.64 0 16 C2.31 16.33 4.62 16.66 7 17 C7 17.99 7 18.98 7 20 C6.0925 19.690625 5.185 19.38125 4.25 19.0625 C1.1871103 17.98404721 1.1871103 17.98404721 -1.3125 17.5625 C-1.869375 17.376875 -2.42625 17.19125 -3 17 C-4.38921267 12.83236198 -3.87429538 9.26686038 -3 5 C-1.4375 1.9375 -1.4375 1.9375 0 0 Z " fill="#A09FA2" transform="translate(17,22)"/>
<path d="M0 0 C0.66 0.66 1.32 1.32 2 2 C1.625 5.625 1.625 5.625 1 9 C-2.70066609 8.09539273 -4.56497978 7.56131642 -6.9375 4.5 C-7.288125 3.675 -7.63875 2.85 -8 2 C-6.17297827 -1.65404345 -3.39088524 -1.20321734 0 0 Z " fill="#151516" transform="translate(154,135)"/>
<path d="M0 0 C2.4375 0.75 2.4375 0.75 5 2 C5.33333333 3.33333333 5.66666667 4.66666667 6 6 C8.49034386 7.29660434 8.49034386 7.29660434 11 8 C11 11.3 11 14.6 11 18 C5.48585194 13.45893689 2.874146 7.43966732 0 1 C0 0.67 0 0.34 0 0 Z " fill="#28272A" transform="translate(152,33)"/>
<path d="M0 0 C1.67542976 0.28604898 3.34385343 0.61781233 5 1 C5 1.66 5 2.32 5 3 C6.65 3.33 8.3 3.66 10 4 C10 5.32 10 6.64 10 8 C10.66 8.33 11.32 8.66 12 9 C10.1875 9.6875 10.1875 9.6875 8 10 C7 9 6 8 5 7 C2.69011685 6.25613932 0.35684056 5.57809297 -2 5 C-1.125 1.125 -1.125 1.125 0 0 Z " fill="#0A090A" transform="translate(19,33)"/>
<path d="M0 0 C1.65 0.33 3.3 0.66 5 1 C5.82193253 6.75352769 6.13444304 12.44026326 6.1875 18.25 C6.20039063 18.93513672 6.21328125 19.62027344 6.2265625 20.32617188 C6.23438801 24.33674457 5.76937664 27.39131088 4 31 C3 28 3 28 4 25 C4.39074812 17.76661621 4.60176692 10.82963816 2 4 C-0.64 3.67 -3.28 3.34 -6 3 C-6 2.67 -6 2.34 -6 2 C-4.02 2 -2.04 2 0 2 C0 1.34 0 0.68 0 0 Z " fill="#767678" transform="translate(192,26)"/>
<path d="M0 0 C2.31 0.33 4.62 0.66 7 1 C6.67 2.98 6.34 4.96 6 7 C5.401875 7.0825 4.80375 7.165 4.1875 7.25 C1.400657 8.20548903 0.67123014 9.6450848 -1 12 C-1.66 12 -2.32 12 -3 12 C-3 12.66 -3 13.32 -3 14 C-3.66 13.67 -4.32 13.34 -5 13 C-4.54625 12.525625 -4.0925 12.05125 -3.625 11.5625 C-1.3298066 7.94315657 -0.75865335 4.1770561 0 0 Z " fill="#88888D" transform="translate(91,105)"/>
<path d="M0 0 C10.58552765 -0.49108118 19.41249024 0.44637413 28 7 C25.37886292 7 23.49064888 6.68707555 21 6 C21.33 7.65 21.66 9.3 22 11 C20.66144944 10.21718695 19.32926356 9.42348123 18 8.625 C17.2575 8.18414062 16.515 7.74328125 15.75 7.2890625 C15.1725 6.86367187 14.595 6.43828125 14 6 C14 5.34 14 4.68 14 4 C15.32 4.66 16.64 5.32 18 6 C18.33 5.01 18.66 4.02 19 3 C12.73 2.34 6.46 1.68 0 1 C0 0.67 0 0.34 0 0 Z " fill="#6E6E71" transform="translate(27,113)"/>
<path d="M0 0 C0.12543554 7.5261324 0.12543554 7.5261324 -0.5625 10.125 C-1.20609757 12.8832753 -0.56045077 15.26001843 0 18 C-0.99 17.67 -1.98 17.34 -3 17 C-3 13.7 -3 10.4 -3 7 C-4.32 6.67 -5.64 6.34 -7 6 C-6.75 4.125 -6.75 4.125 -6 2 C-3.85331506 0.61504198 -2.56128588 0 0 0 Z " fill="#1D1D1E" transform="translate(27,136)"/>
<path d="M0 0 C0.66 0 1.32 0 2 0 C4.08901197 3.39464446 4.34361606 6.04841529 4 10 C3.34 10.66 2.68 11.32 2 12 C1.67408429 13.46801351 1.40973201 14.95025501 1.1875 16.4375 C0.48424262 19.93128266 0.31950534 20.72842046 -2.5 23.125 C-3.325 23.41375 -4.15 23.7025 -5 24 C-5.66 23.67 -6.32 23.34 -7 23 C-6.21625 22.38125 -5.4325 21.7625 -4.625 21.125 C-0.00844086 16.50844086 0.09188715 9.58917841 0.125 3.375 C0.08375 2.26125 0.0425 1.1475 0 0 Z " fill="#858487" transform="translate(188,38)"/>
<path d="M0 0 C0.99 0.66 1.98 1.32 3 2 C3 3.32 3 4.64 3 6 C3.66 5.34 4.32 4.68 5 4 C5.66 4.33 6.32 4.66 7 5 C7.66 3.68 8.32 2.36 9 1 C9 4.63195496 8.04546845 5.74713911 6 8.6875 C5.443125 9.49574219 4.88625 10.30398437 4.3125 11.13671875 C3.879375 11.75160156 3.44625 12.36648437 3 13 C2.67 11.68 2.34 10.36 2 9 C0.02 9.99 -1.96 10.98 -4 12 C-3.71125 11.46375 -3.4225 10.9275 -3.125 10.375 C-1.56411033 7.07978847 0 3.68677886 0 0 Z " fill="#6D6D6E" transform="translate(46,153)"/>
<path d="M0 0 C7.72809205 5.40774679 7.72809205 5.40774679 10.75 9.1875 C12.70894642 11.63618303 14.41423607 13.27615738 17 15 C16.67 15.66 16.34 16.32 16 17 C15.21625 16.525625 14.4325 16.05125 13.625 15.5625 C12.11051322 14.66101977 10.5764103 13.78820515 9 13 C9 12.01 9 11.02 9 10 C8.01 9.67 7.02 9.34 6 9 C5.34 8.01 4.68 7.02 4 6 C3.01 5.67 2.02 5.34 1 5 C0.67 3.35 0.34 1.7 0 0 Z M-3 4 C-1.125 4.1875 -1.125 4.1875 1 5 C2.25 7.5625 2.25 7.5625 3 10 C0.97945196 8.35830472 -1.02043058 6.69088222 -3 5 C-3 4.67 -3 4.34 -3 4 Z " fill="#98989B" transform="translate(51,42)"/>
<path d="M0 0 C2.31 0.66 4.62 1.32 7 2 C6 5 6 5 2.9375 6.6875 C1.968125 7.120625 0.99875 7.55375 0 8 C-0.66 7.01 -1.32 6.02 -2 5 C-4.43693311 4.63583953 -4.43693311 4.63583953 -7.125 4.8125 C-8.03507813 4.83957031 -8.94515625 4.86664062 -9.8828125 4.89453125 C-10.58148438 4.92933594 -11.28015625 4.96414062 -12 5 C-12 4.34 -12 3.68 -12 3 C-9.11788698 2.03929566 -7.30149956 1.89418117 -4.3125 1.9375 C-3.10013672 1.95103516 -3.10013672 1.95103516 -1.86328125 1.96484375 C-0.94095703 1.98224609 -0.94095703 1.98224609 0 2 C0 1.34 0 0.68 0 0 Z " fill="#858587" transform="translate(161,8)"/>
<path d="M0 0 C0.804375 0.433125 0.804375 0.433125 1.625 0.875 C4.39880276 2.18890657 7.02193148 3.23964208 10 4 C10.99 3.34 11.98 2.68 13 2 C15.6875 1.875 15.6875 1.875 18 2 C14.93841678 4.04105548 12.19240849 5.05603816 8.7421875 6.21875 C6.80226108 6.86786272 6.80226108 6.86786272 6 9 C3.4375 9.625 3.4375 9.625 1 10 C0.67 9.01 0.34 8.02 0 7 C0.99 6.67 1.98 6.34 3 6 C3.33 5.34 3.66 4.68 4 4 C2.35 3.67 0.7 3.34 -1 3 C-0.67 2.01 -0.34 1.02 0 0 Z " fill="#727275" transform="translate(43,170)"/>
<path d="M0 0 C0.66 0 1.32 0 2 0 C2 0.66 2 1.32 2 2 C2.99 2.66 3.98 3.32 5 4 C4.401875 4.268125 3.80375 4.53625 3.1875 4.8125 C0.96675544 6.01804705 -0.2420106 7.20820312 -2 9 C-3.38731705 10.23877068 -4.7835192 11.46764783 -6.1875 12.6875 C-6.90292969 13.31011719 -7.61835937 13.93273437 -8.35546875 14.57421875 C-8.89816406 15.04472656 -9.44085938 15.51523438 -10 16 C-10.66 15.67 -11.32 15.34 -12 15 C-11.34 13.68 -10.68 12.36 -10 11 C-9.34 11 -8.68 11 -8 11 C-7.67 10.01 -7.34 9.02 -7 8 C-6.34 8 -5.68 8 -5 8 C-5 6.68 -5 5.36 -5 4 C-3.35 4.33 -1.7 4.66 0 5 C0 3.35 0 1.7 0 0 Z " fill="#4E4E51" transform="translate(101,112)"/>
<path d="M0 0 C3.78520613 0.54074373 5.59177555 2.07572746 8 5 C8 5.99 8 6.98 8 8 C9.98 8.66 11.96 9.32 14 10 C14 10.66 14 11.32 14 12 C12.68 12 11.36 12 10 12 C10 11.34 10 10.68 10 10 C9.278125 10.165 8.55625 10.33 7.8125 10.5 C5 10 5 10 3.5546875 8.2890625 C0 2.6625 0 2.6625 0 0 Z " fill="#363638" transform="translate(52,47)"/>
<path d="M0 0 C0.66 0 1.32 0 2 0 C2 0.99 2 1.98 2 3 C3.65 3 5.3 3 7 3 C6.67 3.99 6.34 4.98 6 6 C6.66 6.33 7.32 6.66 8 7 C8 8.65 8 10.3 8 12 C7.34 12 6.68 12 6 12 C6 12.66 6 13.32 6 14 C7.65 14 9.3 14 11 14 C11.33 15.32 11.66 16.64 12 18 C5.25684932 15.54794521 5.25684932 15.54794521 4.0625 13 C4.01043801 11.3340164 4 9.66679687 4 8 C3.34 7.175 2.68 6.35 2 5.5 C0 3 0 3 0 0 Z " fill="#605F61" transform="translate(5,36)"/>
<path d="M0 0 C0.93065133 2.60582371 1.14917407 3.64198224 0.0625 6.25 C-0.4634375 7.11625 -0.4634375 7.11625 -1 8 C-1.66 8 -2.32 8 -3 8 C-2.7711617 10.25225066 -2.51610777 12.50184817 -2.25 14.75 C-2.11078125 16.00296875 -1.9715625 17.2559375 -1.828125 18.546875 C-0.90963569 22.37680213 0.20585818 23.38759098 3 26 C3 27.32 3 28.64 3 30 C2.34 30 1.68 30 1 30 C-4.36940536 22.75130276 -5.19861281 15.86761334 -4 7 C-2.95144798 4.1738598 -1.84328177 2.41930732 0 0 Z " fill="#9F9EA2" transform="translate(131,16)"/>
<path d="M0 0 C1.65 0 3.3 0 5 0 C4.57847656 0.65226563 4.15695313 1.30453125 3.72265625 1.9765625 C-0.44023986 8.50098463 -0.44023986 8.50098463 -2 16 C-2.66 16 -3.32 16 -4 16 C-3.67 13.36 -3.34 10.72 -3 8 C-3.66 7.67 -4.32 7.34 -5 7 C-4.67 5.68 -4.34 4.36 -4 3 C-3.01 3 -2.02 3 -1 3 C-0.67 2.01 -0.34 1.02 0 0 Z " fill="#454547" transform="translate(141,15)"/>
<path d="M0 0 C1.1875 1.5 1.1875 1.5 2 4 C1.27101296 6.78824238 0.1843275 9.37665092 -1 12 C-1.66 12 -2.32 12 -3 12 C-3.33 12.99 -3.66 13.98 -4 15 C-4.103125 14.360625 -4.20625 13.72125 -4.3125 13.0625 C-4.539375 12.381875 -4.76625 11.70125 -5 11 C-5.99 10.67 -6.98 10.34 -8 10 C-7.3125 8.0625 -7.3125 8.0625 -6 6 C-3.375 5.25 -3.375 5.25 -1 5 C-0.67 3.35 -0.34 1.7 0 0 Z " fill="#929195" transform="translate(177,8)"/>
<path d="M0 0 C2.35964273 0.40683495 3.85934088 0.89814339 5.8125 2.3125 C7 4 7 4 6.6875 6.1875 C6.460625 6.785625 6.23375 7.38375 6 8 C7.32 7.67 8.64 7.34 10 7 C10.33 8.32 10.66 9.64 11 11 C10.01 11.33 9.02 11.66 8 12 C7 11 6 10 5 9 C4.113125 8.195625 3.22625 7.39125 2.3125 6.5625 C0 4 0 4 0 0 Z " fill="#1A191B" transform="translate(64,74)"/>
<path d="M0 0 C1.41702513 0.14230808 2.8336096 0.28900746 4.25 0.4375 C5.43335938 0.55931641 5.43335938 0.55931641 6.640625 0.68359375 C8.82364639 0.97634993 10.8773182 1.42064419 13 2 C7.13806131 4.87115365 2.52356506 6.19951151 -3.9375 4 C-4.618125 3.67 -5.29875 3.34 -6 3 C-6 2.67 -6 2.34 -6 2 C-4.02 2 -2.04 2 0 2 C0 1.34 0 0.68 0 0 Z " fill="#6C6C6F" transform="translate(171,67)"/>
<path d="M0 0 C1.32 0.33 2.64 0.66 4 1 C2.08356128 4.54541163 0.55826855 7.03358843 -3 9 C-5.97393513 9.82323464 -8.9648189 10.44873848 -12 11 C-12 10.34 -12 9.68 -12 9 C-10.02 8.67 -8.04 8.34 -6 8 C-6 7.34 -6 6.68 -6 6 C-4.68 6 -3.36 6 -2 6 C-1.67 5.01 -1.34 4.02 -1 3 C-0.67 2.01 -0.34 1.02 0 0 Z " fill="#737375" transform="translate(77,174)"/>
<path d="M0 0 C2.6875 0.3125 2.6875 0.3125 5 1 C5.66 2.98 6.32 4.96 7 7 C6.34 7 5.68 7 5 7 C5 6.01 5 5.02 5 4 C4.01 4 3.02 4 2 4 C1.67 4.66 1.34 5.32 1 6 C1 5.34 1 4.68 1 4 C0.01 4.66 -0.98 5.32 -2 6 C-2 6.66 -2 7.32 -2 8 C-4.31 8 -6.62 8 -9 8 C-7.62100451 5.24200902 -5.62327638 4.56147404 -3 3 C-2.505 2.4225 -2.01 1.845 -1.5 1.25 C-1.005 0.8375 -0.51 0.425 0 0 Z " fill="#5D5D5F" transform="translate(43,141)"/>
<path d="M0 0 C1.1725131 0.95117134 2.33787015 1.91117009 3.5 2.875 C4.1496875 3.40867188 4.799375 3.94234375 5.46875 4.4921875 C6.22671875 5.23855469 6.22671875 5.23855469 7 6 C7 6.66 7 7.32 7 8 C7.99 8 8.98 8 10 8 C10 8.66 10 9.32 10 10 C8.0625 9.625 8.0625 9.625 6 9 C5.67 8.34 5.34 7.68 5 7 C4.01 6.67 3.02 6.34 2 6 C2 6.99 2 7.98 2 9 C2.66 9 3.32 9 4 9 C4.33 9.99 4.66 10.98 5 12 C2.62051228 11.82374165 1.29774151 11.30280227 -0.37890625 9.59765625 C-1.62115486 8.09350908 -2.81376056 6.54870149 -4 5 C-2.68 4.67 -1.36 4.34 0 4 C0 2.68 0 1.36 0 0 Z " fill="#8E8D8F" transform="translate(29,37)"/>
<path d="M0 0 C0.99 0.33 1.98 0.66 3 1 C3 1.99 3 2.98 3 4 C4.98 4 6.96 4 9 4 C9 4.66 9 5.32 9 6 C8.38125 6.12375 7.7625 6.2475 7.125 6.375 C4.80879168 6.87197356 4.80879168 6.87197356 3 9 C2.34 8.34 1.68 7.68 1 7 C-1.06874034 6.3574765 -1.06874034 6.3574765 -3 6 C-1.125 1.125 -1.125 1.125 0 0 Z " fill="#141415" transform="translate(136,30)"/>
<path d="M0 0 C2 0.25 2 0.25 4 1 C4.33 1.99 4.66 2.98 5 4 C5.66 4.33 6.32 4.66 7 5 C4.78065836 8.32901247 3.65316671 8.75023244 0 10 C0.020625 9.2575 0.04125 8.515 0.0625 7.75 C0.10240811 5.05832211 0.10240811 5.05832211 -0.5625 2.75 C-0.706875 2.1725 -0.85125 1.595 -1 1 C-0.67 0.67 -0.34 0.34 0 0 Z " fill="#101011" transform="translate(48,150)"/>
<path d="M0 0 C2 1.375 2 1.375 4 3 C4 3.66 4 4.32 4 5 C4.66 5 5.32 5 6 5 C7.65625 6.71484375 7.65625 6.71484375 9.5 8.9375 C11.88926999 11.92045179 11.88926999 11.92045179 15 14 C15 14.99 15 15.98 15 17 C14.34 17 13.68 17 13 17 C13 16.34 13 15.68 13 15 C12.34 15 11.68 15 11 15 C9.79791145 13.564172 8.60053551 12.12389005 7.4375 10.65625 C5.98779403 8.9859366 4.48409384 7.6797663 2.75 6.3125 C0 4 0 4 -1 1 C-0.67 0.67 -0.34 0.34 0 0 Z " fill="#ABAAAE" transform="translate(146,139)"/>
<path d="M0 0 C-0.33 0.66 -0.66 1.32 -1 2 C-2.32 2 -3.64 2 -5 2 C-8.09681459 3.52388107 -8.09681459 3.52388107 -11.25 5.5 C-12.86648437 6.47453125 -12.86648437 6.47453125 -14.515625 7.46875 C-15.33546875 7.9740625 -16.1553125 8.479375 -17 9 C-17 7.35 -17 5.7 -17 4 C-15.02 4 -13.04 4 -11 4 C-11 2.68 -11 1.36 -11 0 C-6.98195309 -0.84098656 -3.98196457 -1.05404945 0 0 Z " fill="#707072" transform="translate(46,151)"/>
<path d="M0 0 C0.33 0.66 0.66 1.32 1 2 C1.66 2 2.32 2 3 2 C3 2.66 3 3.32 3 4 C1.7934375 4.7734375 1.7934375 4.7734375 0.5625 5.5625 C-2.73839843 8.702379 -2.69469751 10.77601238 -2.95703125 15.171875 C-2.97121094 15.77515625 -2.98539063 16.3784375 -3 17 C-3.33 17 -3.66 17 -4 17 C-5.12880057 13.68885166 -6.21302675 10.41021743 -7 7 C-6.01 6.67 -5.02 6.34 -4 6 C-3.34 5.01 -2.68 4.02 -2 3 C-1.34 3 -0.68 3 0 3 C0 2.01 0 1.02 0 0 Z " fill="#171719" transform="translate(25,120)"/>
<path d="M0 0 C-1.65 0.33 -3.3 0.66 -5 1 C-5 1.66 -5 2.32 -5 3 C-4.34 3.33 -3.68 3.66 -3 4 C-4.423125 4.2784375 -4.423125 4.2784375 -5.875 4.5625 C-9.38371699 5.73400805 -9.38371699 5.73400805 -10.375 9.625 C-10.58125 10.73875 -10.7875 11.8525 -11 13 C-11.66 13 -12.32 13 -13 13 C-12.52431821 8.00534117 -11.1835207 4.89096975 -8 1 C-4.62682123 -0.89227102 -3.72011775 -1.24003925 0 0 Z " fill="#7D7C7F" transform="translate(21,11)"/>
<path d="M0 0 C2.8125 0.1875 2.8125 0.1875 6 1 C7.6875 3.3125 7.6875 3.3125 9 6 C9.98244845 7.34631825 10.97676564 8.68441297 12 10 C11.34 10.66 10.68 11.32 10 12 C8.70212134 10.75645114 7.41193241 9.5048736 6.125 8.25 C5.40570313 7.55390625 4.68640625 6.8578125 3.9453125 6.140625 C2.13520321 4.14877783 1.05151914 2.4572342 0 0 Z " fill="#C3C3C6" transform="translate(114,110)"/>
<path d="M0 0 C0.85464844 -0.00515625 1.70929688 -0.0103125 2.58984375 -0.015625 C5.18224567 0.26286367 6.82764234 0.94330828 9.0625 2.25 C8.0725 2.25 7.0825 2.25 6.0625 2.25 C6.0625 3.24 6.0625 4.23 6.0625 5.25 C3.4225 5.25 0.7825 5.25 -1.9375 5.25 C-1.9375 4.92 -1.9375 4.59 -1.9375 4.25 C-0.2875 3.92 1.3625 3.59 3.0625 3.25 C-0.5675 2.92 -4.1975 2.59 -7.9375 2.25 C-4.71002945 0.09835297 -3.73244361 -0.02245079 0 0 Z " fill="#6A6A6C" transform="translate(156.9375,0.75)"/>
<path d="M0 0 C2.89932357 2.39509338 3.50168276 4.31245243 4 8 C4.66 8 5.32 8 6 8 C6 8.66 6 9.32 6 10 C8.97 10 11.94 10 15 10 C14.67 11.65 14.34 13.3 14 15 C3.97414212 11.02027015 3.97414212 11.02027015 1.375 5.8125 C0.48861766 3.68599559 0 2.30439025 0 0 Z " fill="#88878A" transform="translate(9,145)"/>
<path d="M0 0 C0.66 0 1.32 0 2 0 C0.08921424 5.73235729 -5.42772844 9.27838361 -10 13 C-10.66 12.67 -11.32 12.34 -12 12 C-9.32136594 6.64273188 -5.66014826 3.88671609 0 2 C0 1.34 0 0.68 0 0 Z " fill="#676769" transform="translate(72,104)"/>
<path d="M0 0 C0.33 0.66 0.66 1.32 1 2 C-4.6702363 3.54642808 -10.147205 4.48517081 -16 5 C-11.00650438 -0.52851301 -7.09792091 -0.11829868 0 0 Z " fill="#4A4A4C" transform="translate(44,148)"/>
<path d="M0 0 C0.33 0.99 0.66 1.98 1 3 C0.01 3.66 -0.98 4.32 -2 5 C-2.33 5.99 -2.66 6.98 -3 8 C-5.06640625 8.73046875 -5.06640625 8.73046875 -7.5625 9.1875 C-8.38878906 9.34605469 -9.21507813 9.50460938 -10.06640625 9.66796875 C-10.70449219 9.77753906 -11.34257813 9.88710938 -12 10 C-8.29909479 6.0747975 -4.45040344 3.05419844 0 0 Z " fill="#5B5B5D" transform="translate(125,50)"/>
<path d="M0 0 C0.66 0.33 1.32 0.66 2 1 C1.649375 1.5775 1.29875 2.155 0.9375 2.75 C-0.14917407 5.35801776 0.06934867 6.39417629 1 9 C-0.98 9.33 -2.96 9.66 -5 10 C-4.49701212 5.59885603 -2.91227269 3.28804981 0 0 Z " fill="#2F2E31" transform="translate(110,61)"/>
<path d="M0 0 C0.99 0 1.98 0 3 0 C3 1.98 3 3.96 3 6 C2.34 6 1.68 6 1 6 C1 7.32 1 8.64 1 10 C-0.65 10.33 -2.3 10.66 -4 11 C-3.37240135 8.07120629 -2.41377341 5.63904371 -1 3 C-0.67 3.66 -0.34 4.32 0 5 C0 3.35 0 1.7 0 0 Z " fill="#141415" transform="translate(194,41)"/>
<path d="M0 0 C0.33 0.66 0.66 1.32 1 2 C-3.77899344 8.70459519 -3.77899344 8.70459519 -8.875 9.9375 C-9.90625 9.958125 -10.9375 9.97875 -12 10 C-6.85714286 5.57142857 -6.85714286 5.57142857 -3 5 C-3 3.68 -3 2.36 -3 1 C-2.01 0.67 -1.02 0.34 0 0 Z " fill="#B2B1B4" transform="translate(77,168)"/>
<path d="M0 0 C0.33 0 0.66 0 1 0 C1 1.65 1 3.3 1 5 C0.01 5.33 -0.98 5.66 -2 6 C-1.34 6.66 -0.68 7.32 0 8 C0.71927295 10.31765729 1.3909893 12.65095874 2 15 C1.34 15 0.68 15 0 15 C0 14.34 0 13.68 0 13 C-0.66 13 -1.32 13 -2 13 C-2.99 10.03 -3.98 7.06 -5 4 C-3.35 3.67 -1.7 3.34 0 3 C0 2.01 0 1.02 0 0 Z " fill="#212123" transform="translate(15,140)"/>
<path d="M0 0 C0.66 0 1.32 0 2 0 C1.3125 2.875 1.3125 2.875 0 6 C-2.5625 7.25 -2.5625 7.25 -5 8 C-5.33 8.66 -5.66 9.32 -6 10 C-7.65 10 -9.3 10 -11 10 C-8.01861915 6.77017074 -6.2230623 5.01935987 -2 4 C-0.71563266 2.0162233 -0.71563266 2.0162233 0 0 Z " fill="#686869" transform="translate(130,84)"/>
<path d="M0 0 C7.06533193 2.04109589 7.06533193 2.04109589 9 5 C8.6875 7.1875 8.6875 7.1875 8 9 C3.96189555 7.65396518 2.52704924 5.34663277 0 2 C0 1.34 0 0.68 0 0 Z " fill="#0F0F10" transform="translate(55,66)"/>
<path d="M0 0 C0.66 0.33 1.32 0.66 2 1 C3.99021521 0.90276549 3.99021521 0.90276549 6.125 0.5625 C7.40375 0.376875 8.6825 0.19125 10 0 C8 2 8 2 4.6875 2.8125 C0.56805862 4.13909977 -1.19762947 5.77302788 -4 9 C-2.25 2.25 -2.25 2.25 0 0 Z " fill="#6F6E72" transform="translate(163,23)"/>
<path d="M0 0 C-0.6875 2.375 -0.6875 2.375 -2 5 C-4.625 6.3125 -4.625 6.3125 -7 7 C-7 7.66 -7 8.32 -7 9 C-7.66 9 -8.32 9 -9 9 C-9.33 8.01 -9.66 7.02 -10 6 C-8.68 5.67 -7.36 5.34 -6 5 C-6 4.34 -6 3.68 -6 3 C-5.34 3 -4.68 3 -4 3 C-4 2.34 -4 1.68 -4 1 C-2 0 -2 0 0 0 Z " fill="#5E5E60" transform="translate(135,91)"/>
<path d="M0 0 C0.99 0.33 1.98 0.66 3 1 C3 2.65 3 4.3 3 6 C0.25 6.3125 0.25 6.3125 -3 6 C-5.375 3.5 -5.375 3.5 -7 1 C-4.69 1.66 -2.38 2.32 0 3 C0 2.01 0 1.02 0 0 Z " fill="#8B8B8D" transform="translate(73,63)"/>
<path d="M0 0 C1.32 0.33 2.64 0.66 4 1 C3.0479279 2.00596297 2.08812654 3.00461563 1.125 4 C0.59132813 4.556875 0.05765625 5.11375 -0.4921875 5.6875 C-2 7 -2 7 -4 7 C-4.33 7.99 -4.66 8.98 -5 10 C-5.33 9.34 -5.66 8.68 -6 8 C-5.06553465 5.96855359 -4.06775224 3.96466413 -3 2 C-2.01 2 -1.02 2 0 2 C0 1.34 0 0.68 0 0 Z " fill="#717073" transform="translate(63,121)"/>
<path d="M0 0 C0.66 0 1.32 0 2 0 C2.75 2.6875 2.75 2.6875 3 6 C1.1875 8.875 1.1875 8.875 -1 11 C-1.66 11 -2.32 11 -3 11 C-3 11.66 -3 12.32 -3 13 C-3.66 12.67 -4.32 12.34 -5 12 C-4.2884375 11.2265625 -4.2884375 11.2265625 -3.5625 10.4375 C-1.57453282 7.3362712 -1.41016059 4.62308517 -1 1 C-0.67 0.67 -0.34 0.34 0 0 Z " fill="#C8C7C9" transform="translate(91,106)"/>
<path d="M0 0 C0.99 0.66 1.98 1.32 3 2 C3 2.66 3 3.32 3 4 C3.99 4.33 4.98 4.66 6 5 C6 5.33 6 5.66 6 6 C4.35 6.33 2.7 6.66 1 7 C0.67 7.99 0.34 8.98 0 10 C-0.66 9.67 -1.32 9.34 -2 9 C-2.20140476 5.37471432 -1.85776765 3.13498292 0 0 Z " fill="#616163" transform="translate(76,83)"/>
<path d="M0 0 C0 0.66 0 1.32 0 2 C-0.99 2 -1.98 2 -3 2 C-2.67 2.99 -2.34 3.98 -2 5 C-3.32 5 -4.64 5 -6 5 C-6 5.66 -6 6.32 -6 7 C-3.69 7 -1.38 7 1 7 C0.67 7.66 0.34 8.32 0 9 C-2.31 8.67 -4.62 8.34 -7 8 C-6.65930765 4.84859577 -6.41923159 3.39218439 -4.0625 1.1875 C-2 0 -2 0 0 0 Z " fill="#8E8E90" transform="translate(34,173)"/>
<path d="M0 0 C2.97 0 5.94 0 9 0 C8.21625 0.598125 7.4325 1.19625 6.625 1.8125 C3.85425677 3.91085249 3.85425677 3.91085249 2 7 C1.01 6.67 0.02 6.34 -1 6 C-0.34 5.01 0.32 4.02 1 3 C0.67 2.01 0.34 1.02 0 0 Z " fill="#99989C" transform="translate(166,167)"/>
<path d="M0 0 C2.97 0.495 2.97 0.495 6 1 C6 2.65 6 4.3 6 6 C3.69 5.67 1.38 5.34 -1 5 C-0.67 3.35 -0.34 1.7 0 0 Z " fill="#373739" transform="translate(166,156)"/>
<path d="M0 0 C0.66 0.33 1.32 0.66 2 1 C1.34 2.65 0.68 4.3 0 6 C1.65 5.67 3.3 5.34 5 5 C5 5.66 5 6.32 5 7 C3.37373596 8.38232443 1.7074998 9.71937515 0 11 C-0.103125 10.38125 -0.20625 9.7625 -0.3125 9.125 C-0.87525373 6.63473516 -0.87525373 6.63473516 -4 5 C-3.34 5 -2.68 5 -2 5 C-1.7834375 4.0409375 -1.7834375 4.0409375 -1.5625 3.0625 C-1 1 -1 1 0 0 Z " fill="#717174" transform="translate(113,65)"/>
<path d="M0 0 C0.33 1.32 0.66 2.64 1 4 C-2.61223321 6.43615728 -6.24436571 8.79080336 -10 11 C-9.02738378 7.72847271 -8.34232413 6.25454871 -5.5625 4.1875 C-3 3 -3 3 0 3 C0 2.01 0 1.02 0 0 Z " fill="#828183" transform="translate(92,77)"/>
<path d="M0 0 C1.33332095 2.6666419 0.67102033 4.16680303 0 7 C-0.99 6.67 -1.98 6.34 -3 6 C-3.33 8.31 -3.66 10.62 -4 13 C-4.66 13 -5.32 13 -6 13 C-5.125 7.25 -5.125 7.25 -4 5 C-3.34 5 -2.68 5 -2 5 C-1.34 3.35 -0.68 1.7 0 0 Z " fill="#838385" transform="translate(14,121)"/>
<path d="M0 0 C1.98 0.66 3.96 1.32 6 2 C6.33 3.65 6.66 5.3 7 7 C5.35 6.67 3.7 6.34 2 6 C2 5.01 2 4.02 2 3 C1.34 3 0.68 3 0 3 C0 2.01 0 1.02 0 0 Z " fill="#1D1D1F" transform="translate(45,40)"/>
<path d="M0 0 C0 0.66 0 1.32 0 2 C1.65 2.33 3.3 2.66 5 3 C5 3.99 5 4.98 5 6 C0.68607774 5.5206753 -1.16569547 4.2542015 -4 1 C-2 0 -2 0 0 0 Z " fill="#1F1F21" transform="translate(68,60)"/>
<path d="M0 0 C3.76127491 0.10165608 4.98989184 0.99079034 7.8125 3.5625 C8.534375 4.366875 9.25625 5.17125 10 6 C8.35 5.67 6.7 5.34 5 5 C5 4.34 5 3.68 5 3 C1.28263359 2.65099442 1.28263359 2.65099442 -1.8125 4.5 C-2.204375 4.995 -2.59625 5.49 -3 6 C-2.42655063 3.13275314 -2.1385485 2.1385485 0 0 Z " fill="#8A898B" transform="translate(19,31)"/>
<path d="M0 0 C0.99 0.33 1.98 0.66 3 1 C2.34 1 1.68 1 1 1 C1 2.98 1 4.96 1 7 C1.99 7.33 2.98 7.66 4 8 C4 8.66 4 9.32 4 10 C1.08482708 8.92598892 -0.77810176 8.22189824 -3 6 C-3 5.01 -3 4.02 -3 3 C-2.34 3 -1.68 3 -1 3 C-0.67 2.01 -0.34 1.02 0 0 Z " fill="#929294" transform="translate(33,26)"/>
<path d="M0 0 C0 1.32 0 2.64 0 4 C-3.69541586 4.95024979 -6.30458414 4.95024979 -10 4 C-7.25346796 1.25346796 -3.91404908 0 0 0 Z " fill="#141415" transform="translate(35,151)"/>
<path d="M0 0 C1.65 0.99 3.3 1.98 5 3 C4.67 3.99 4.34 4.98 4 6 C3.01 5.67 2.02 5.34 1 5 C0.67 3.35 0.34 1.7 0 0 Z M-3 4 C-1.125 4.1875 -1.125 4.1875 1 5 C2.25 7.5625 2.25 7.5625 3 10 C0.97945196 8.35830472 -1.02043058 6.69088222 -3 5 C-3 4.67 -3 4.34 -3 4 Z " fill="#929194" transform="translate(51,42)"/>
<path d="M0 0 C2.31 0.33 4.62 0.66 7 1 C7.33 2.32 7.66 3.64 8 5 C5.69 5.66 3.38 6.32 1 7 C1.33 6.01 1.66 5.02 2 4 C3.32 4 4.64 4 6 4 C6 3.34 6 2.68 6 2 C4.02 2 2.04 2 0 2 C0 1.34 0 0.68 0 0 Z " fill="#8B8B8D" transform="translate(139,32)"/>
<path d="M0 0 C2.31 0.33 4.62 0.66 7 1 C6.67 1.99 6.34 2.98 6 4 C5.01 4 4.02 4 3 4 C2.67 4.66 2.34 5.32 2 6 C1.34 4.02 0.68 2.04 0 0 Z " fill="#0F0F10" transform="translate(40,173)"/>
<path d="M0 0 C1.32 0 2.64 0 4 0 C4 1.32 4 2.64 4 4 C2.68 4 1.36 4 0 4 C-0.33 5.32 -0.66 6.64 -1 8 C-1.66 7.34 -2.32 6.68 -3 6 C-2.01 4.02 -1.02 2.04 0 0 Z " fill="#101011" transform="translate(77,170)"/>
<path d="M0 0 C0.66 0 1.32 0 2 0 C1.9278125 0.60328125 1.855625 1.2065625 1.78125 1.828125 C1.6884375 2.62734375 1.595625 3.4265625 1.5 4.25 C1.4071875 5.03890625 1.314375 5.8278125 1.21875 6.640625 C0.93845381 9.26890397 0.93845381 9.26890397 1 13 C0.01 12.67 -0.98 12.34 -2 12 C-1 3.42857143 -1 3.42857143 0 0 Z " fill="#656566" transform="translate(79,136)"/>
<path d="M0 0 C1.65 0 3.3 0 5 0 C2.33333333 2.66666667 -0.33333333 5.33333333 -3 8 C-3.66 7.67 -4.32 7.34 -5 7 C-4.34 5.68 -3.68 4.36 -3 3 C-2.34 3 -1.68 3 -1 3 C-0.67 2.01 -0.34 1.02 0 0 Z " fill="#7D7C7E" transform="translate(94,120)"/>
<path d="M0 0 C0.33 0.99 0.66 1.98 1 3 C4.00847418 4.22520264 4.00847418 4.22520264 7 5 C7 5.66 7 6.32 7 7 C5.68 7 4.36 7 3 7 C3 6.34 3 5.68 3 5 C1.68 5 0.36 5 -1 5 C-1.33 3.68 -1.66 2.36 -2 1 C-1.34 0.67 -0.68 0.34 0 0 Z " fill="#1B1B1C" transform="translate(59,52)"/>
<path d="M0 0 C1.32 0 2.64 0 4 0 C4 1.32 4 2.64 4 4 C4.66 4.33 5.32 4.66 6 5 C4.1875 5.6875 4.1875 5.6875 2 6 C0.25 4.5625 0.25 4.5625 -1 3 C-0.67 2.01 -0.34 1.02 0 0 Z " fill="#1B1B1C" transform="translate(25,37)"/>
<path d="M0 0 C1.65 0 3.3 0 5 0 C2.03 4.95 2.03 4.95 -1 10 C-2.31223496 6.06329512 -1.24296256 3.87511856 0 0 Z " fill="#858587" transform="translate(141,15)"/>
<path d="M0 0 C0 2.33333333 0 4.66666667 0 7 C-0.66 7 -1.32 7 -2 7 C-2 6.34 -2 5.68 -2 5 C-6.455 5.495 -6.455 5.495 -11 6 C-10.67 5.34 -10.34 4.68 -10 4 C-8.88625 3.855625 -7.7725 3.71125 -6.625 3.5625 C-3.06882192 3.01067926 -2.06625391 2.79551999 0 0 Z " fill="#323135" transform="translate(75,173)"/>
<path d="M0 0 C1.134375 0.020625 2.26875 0.04125 3.4375 0.0625 C3.4375 1.0525 3.4375 2.0425 3.4375 3.0625 C1.1275 3.3925 -1.1825 3.7225 -3.5625 4.0625 C-3.8925 3.0725 -4.2225 2.0825 -4.5625 1.0625 C-3.5625 0.0625 -3.5625 0.0625 0 0 Z " fill="#101012" transform="translate(44.5625,144.9375)"/>
<path d="M0 0 C1.65 0 3.3 0 5 0 C5 1.32 5 2.64 5 4 C3.02 4.33 1.04 4.66 -1 5 C-0.67 3.35 -0.34 1.7 0 0 Z " fill="#131314" transform="translate(28,130)"/>
<path d="M0 0 C2.91061051 1.06722385 3.82859029 1.63913745 5.1875 4.5 C5.455625 5.325 5.72375 6.15 6 7 C6.33 7.66 6.66 8.32 7 9 C4.625 8.6875 4.625 8.6875 2 8 C1.34 7.01 0.68 6.02 0 5 C0.66 5 1.32 5 2 5 C1.34 3.35 0.68 1.7 0 0 Z " fill="#454449" transform="translate(111,107)"/>
<path d="M0 0 C0.66 0.99 1.32 1.98 2 3 C1.34 3 0.68 3 0 3 C2.475 5.97 2.475 5.97 5 9 C4.67 9.66 4.34 10.32 4 11 C1.36 8.36 -1.28 5.72 -4 3 C-2.68 2.67 -1.36 2.34 0 2 C0 1.34 0 0.68 0 0 Z " fill="#807F82" transform="translate(55,63)"/>
<path d="M0 0 C2.475 0.99 2.475 0.99 5 2 C5.33 4.97 5.66 7.94 6 11 C3.2574043 8.2574043 2.49792802 7.25588615 1.3125 3.8125 C1.06113281 3.09707031 0.80976563 2.38164063 0.55078125 1.64453125 C0.36902344 1.10183594 0.18726563 0.55914062 0 0 Z " fill="#8F8F92" transform="translate(152,33)"/>
<path d="M0 0 C1.27310312 0.93441535 2.543388 1.87267111 3.8125 2.8125 C4.52019531 3.33457031 5.22789062 3.85664063 5.95703125 4.39453125 C7.78531393 5.83128877 9.39896688 7.31815763 11 9 C3.5210728 7.651341 3.5210728 7.651341 1 4.5 C0 2 0 2 0 0 Z " fill="#979699" transform="translate(166,147)"/>
<path d="M0 0 C1.485 0.99 1.485 0.99 3 2 C3 2.99 3 3.98 3 5 C4.32 5.33 5.64 5.66 7 6 C3.25 7.125 3.25 7.125 1 6 C1 5.34 1 4.68 1 4 C0.34 4 -0.32 4 -1 4 C-0.67 2.68 -0.34 1.36 0 0 Z " fill="#201F22" transform="translate(166,149)"/>
<path d="M0 0 C0.66 0 1.32 0 2 0 C1.814375 0.86625 1.62875 1.7325 1.4375 2.625 C0.99332067 6.05152628 1.28045508 8.64212371 2 12 C1.01 11.67 0.02 11.34 -1 11 C-1.125 3.375 -1.125 3.375 0 0 Z " fill="#88878A" transform="translate(25,142)"/>
<path d="M0 0 C0.33 0.66 0.66 1.32 1 2 C0.01 2.99 -0.98 3.98 -2 5 C-1.125 1.125 -1.125 1.125 0 0 Z M-4 5 C-1.69 5.66 0.62 6.32 3 7 C2.34 7.66 1.68 8.32 1 9 C-0.32 9 -1.64 9 -3 9 C-3.33 7.68 -3.66 6.36 -4 5 Z " fill="#4F4E50" transform="translate(185,29)"/>
<path d="M0 0 C0.33 0.66 0.66 1.32 1 2 C3.02463255 2.65213292 3.02463255 2.65213292 5 3 C5 4.32 5 5.64 5 7 C2.03 6.505 2.03 6.505 -1 6 C-0.67 4.02 -0.34 2.04 0 0 Z " fill="#121213" transform="translate(168,16)"/>
<path d="M0 0 C0.33 0.66 0.66 1.32 1 2 C1.66 2 2.32 2 3 2 C2.67 4.64 2.34 7.28 2 10 C1.67 9.01 1.34 8.02 1 7 C0.34 7 -0.32 7 -1 7 C-0.67 4.69 -0.34 2.38 0 0 Z " fill="#141415" transform="translate(10,132)"/>
<path d="M0 0 C0.99 0.33 1.98 0.66 3 1 C2.01 1.495 2.01 1.495 1 2 C1 2.66 1 3.32 1 4 C2.65 4 4.3 4 6 4 C6.33 5.32 6.66 6.64 7 8 C0.25806452 5.5483871 0.25806452 5.5483871 -1 2.875 C-1 1 -1 1 0 0 Z " fill="#8C8B8E" transform="translate(10,46)"/>
<path d="M0 0 C0.66 0.33 1.32 0.66 2 1 C1.34 2.65 0.68 4.3 0 6 C-2.31 6.33 -4.62 6.66 -7 7 C-7 6.01 -7 5.02 -7 4 C-4.69 4 -2.38 4 0 4 C0 2.68 0 1.36 0 0 Z " fill="#727174" transform="translate(171,45)"/>
<path d="M0 0 C1.67299959 0.65061095 3.33859237 1.32033324 5 2 C5.7425 2.268125 6.485 2.53625 7.25 2.8125 C9 4 9 4 9.75 6.625 C9.87375 7.800625 9.87375 7.800625 10 9 C8.8944811 8.06409496 7.79064547 7.12620142 6.6875 6.1875 C6.07261719 5.66542969 5.45773438 5.14335938 4.82421875 4.60546875 C3.14575321 3.12827531 1.56117966 1.59960869 0 0 Z " fill="#858587" transform="translate(46,31)"/>
<path d="M0 0 C1.65 0.33 3.3 0.66 5 1 C4.67 1.99 4.34 2.98 4 4 C2.35 4 0.7 4 -1 4 C-0.67 2.68 -0.34 1.36 0 0 Z " fill="#363638" transform="translate(24,157)"/>
<path d="M0 0 C0.66 0 1.32 0 2 0 C2.33 2.31 2.66 4.62 3 7 C1.35 7.33 -0.3 7.66 -2 8 C-1.34 5.36 -0.68 2.72 0 0 Z " fill="#717074" transform="translate(12,136)"/>
<path d="M0 0 C1.67542976 0.28604898 3.34385343 0.61781233 5 1 C3.35 2.65 1.7 4.3 0 6 C-0.38218767 4.34385343 -0.71395102 2.67542976 -1 1 C-0.67 0.67 -0.34 0.34 0 0 Z " fill="#414043" transform="translate(81,130)"/>
<path d="M0 0 C0.33 0.66 0.66 1.32 1 2 C1.66 2 2.32 2 3 2 C3 2.66 3 3.32 3 4 C1.03852126 5.38938077 -0.96166576 6.7260411 -3 8 C-3.33 7.34 -3.66 6.68 -4 6 C-3.34 5.01 -2.68 4.02 -2 3 C-1.34 3 -0.68 3 0 3 C0 2.01 0 1.02 0 0 Z " fill="#2B2B2C" transform="translate(25,120)"/>
<path d="M0 0 C0.53625 0.226875 1.0725 0.45375 1.625 0.6875 C-4 3.6875 -4 3.6875 -7.375 3.6875 C-7.375 4.3475 -7.375 5.0075 -7.375 5.6875 C-8.365 6.0175 -9.355 6.3475 -10.375 6.6875 C-10.375 6.0275 -10.375 5.3675 -10.375 4.6875 C-9.715 4.6875 -9.055 4.6875 -8.375 4.6875 C-8.375 4.0275 -8.375 3.3675 -8.375 2.6875 C-2.95961538 -0.38942308 -2.95961538 -0.38942308 0 0 Z " fill="#98979A" transform="translate(25.375,114.3125)"/>
<path d="M0 0 C0.33 1.32 0.66 2.64 1 4 C-5.625 7.125 -5.625 7.125 -9 6 C-7.88625 5.7525 -6.7725 5.505 -5.625 5.25 C-1.95384802 4.38994661 -1.95384802 4.38994661 -0.5625 1.875 C-0.376875 1.25625 -0.19125 0.6375 0 0 Z " fill="#828184" transform="translate(70,165)"/>
<path d="M0 0 C2.97 0.495 2.97 0.495 6 1 C5.67 1.99 5.34 2.98 5 4 C3.35 4.33 1.7 4.66 0 5 C0 3.35 0 1.7 0 0 Z " fill="#060606" transform="translate(156,144)"/>
<path d="M0 0 C0.33 0.66 0.66 1.32 1 2 C0.34 2 -0.32 2 -1 2 C-1.2475 2.804375 -1.495 3.60875 -1.75 4.4375 C-3 7 -3 7 -5.125 7.8125 C-5.74375 7.874375 -6.3625 7.93625 -7 8 C-5.50902342 4.2047869 -3.24299151 2.38957269 0 0 Z " fill="#88888A" transform="translate(82,122)"/>
<path d="M0 0 C-5 2.5 -5 2.5 -10 5 C-10 3.68 -10 2.36 -10 1 C-6.61981469 -0.04005702 -3.5219721 -0.08004482 0 0 Z " fill="#858487" transform="translate(127,100)"/>
<path d="M0 0 C2.475 0.495 2.475 0.495 5 1 C5 2.32 5 3.64 5 5 C3.68 5 2.36 5 1 5 C0.67 3.35 0.34 1.7 0 0 Z " fill="#2B2A2C" transform="translate(50,60)"/>
<path d="M0 0 C1.35158203 0.15275391 1.35158203 0.15275391 2.73046875 0.30859375 C3.41753906 0.39238281 4.10460938 0.47617188 4.8125 0.5625 C4.8125 0.8925 4.8125 1.2225 4.8125 1.5625 C3.87277344 1.65337891 3.87277344 1.65337891 2.9140625 1.74609375 C2.09679688 1.82988281 1.27953125 1.91367188 0.4375 2 C-0.37460937 2.08121094 -1.18671875 2.16242187 -2.0234375 2.24609375 C-4.23022805 2.45340114 -4.23022805 2.45340114 -6.1875 3.5625 C-6.8475 3.2325 -7.5075 2.9025 -8.1875 2.5625 C-8.1875 1.9025 -8.1875 1.2425 -8.1875 0.5625 C-4.98734144 -0.50421952 -3.30205706 -0.38595472 0 0 Z " fill="#161617" transform="translate(24.1875,11.4375)"/>
<path d="M0 0 C0 3 0 3 -1 6 C-4.0625 7.1875 -4.0625 7.1875 -7 8 C-5.50902342 4.2047869 -3.24299151 2.38957269 0 0 Z " fill="#848486" transform="translate(41,165)"/>
<path d="M0 0 C0.66 0 1.32 0 2 0 C2.1875 2.375 2.1875 2.375 2 5 C1.01 5.66 0.02 6.32 -1 7 C-1.625 5.1875 -1.625 5.1875 -2 3 C-1.34 2.01 -0.68 1.02 0 0 Z " fill="#3B3B3C" transform="translate(46,163)"/>
<path d="M0 0 C1.32 0.33 2.64 0.66 4 1 C3.01 2.32 2.02 3.64 1 5 C0.01 4.67 -0.98 4.34 -2 4 C-1.34 2.68 -0.68 1.36 0 0 Z " fill="#0F0F0F" transform="translate(141,76)"/>
<path d="M0 0 C3.375 0.625 3.375 0.625 7 2 C8.4375 5.125 8.4375 5.125 9 8 C7 8 7 8 4.5 5.6875 C2 3 2 3 0 0 Z " fill="#A7A7A9" transform="translate(31,69)"/>
<path d="M0 0 C0.99 0.33 1.98 0.66 3 1 C0.36 2.98 -2.28 4.96 -5 7 C-5 5.68 -5 4.36 -5 3 C-3.35 2.67 -1.7 2.34 0 2 C0 1.34 0 0.68 0 0 Z " fill="#7E7E80" transform="translate(127,60)"/>
<path d="M0 0 C0.66 0 1.32 0 2 0 C1.875 1.875 1.875 1.875 1 4 C-2.0625 5.25 -2.0625 5.25 -5 6 C-3.38405168 3.95880212 -1.7143618 1.95927063 0 0 Z " fill="#6F6F70" transform="translate(186,56)"/>
<path d="M0 0 C0.33 0.66 0.66 1.32 1 2 C1.66 2 2.32 2 3 2 C2.39816251 4.02045442 1.72693904 6.02111039 1 8 C0.01 8.495 0.01 8.495 -1 9 C-1.125 2.25 -1.125 2.25 0 0 Z " fill="#727275" transform="translate(192,55)"/>
<path d="M0 0 C0.639375 0.2475 1.27875 0.495 1.9375 0.75 C2.2675 1.74 2.5975 2.73 2.9375 3.75 C2.2775 4.41 1.6175 5.07 0.9375 5.75 C0.9375 5.09 0.9375 4.43 0.9375 3.75 C0.298125 3.62625 -0.34125 3.5025 -1 3.375 C-1.680625 3.16875 -2.36125 2.9625 -3.0625 2.75 C-3.3925 2.09 -3.7225 1.43 -4.0625 0.75 C-2.0625 -0.25 -2.0625 -0.25 0 0 Z " fill="#1F1F21" transform="translate(46.0625,54.25)"/>
<path d="M0 0 C0.66 0 1.32 0 2 0 C3.625 2 3.625 2 5 4 C4.67 4.66 4.34 5.32 4 6 C3.34 5.67 2.68 5.34 2 5 C1.67 5.66 1.34 6.32 1 7 C0.67 4.69 0.34 2.38 0 0 Z " fill="#575759" transform="translate(160,32)"/>
<path d="M0 0 C0.66 0.33 1.32 0.66 2 1 C1.67 3.64 1.34 6.28 1 9 C0.34 9 -0.32 9 -1 9 C-2.0326802 6.21176345 -2.04509293 5.1322726 -1.0625 2.25 C-0.711875 1.5075 -0.36125 0.765 0 0 Z " fill="#323134" transform="translate(13,26)"/>
<path d="M0 0 C0.53625 0.268125 1.0725 0.53625 1.625 0.8125 C0.820625 1.26625 0.01625 1.72 -0.8125 2.1875 C-3.46356572 3.55975665 -3.46356572 3.55975665 -4.375 5.8125 C-5.695 5.4825 -7.015 5.1525 -8.375 4.8125 C-2.95961538 -0.23365385 -2.95961538 -0.23365385 0 0 Z " fill="#A3A2A5" transform="translate(147.375,3.1875)"/>
<path d="M0 0 C1.67542976 0.28604898 3.34385343 0.61781233 5 1 C5 1.99 5 2.98 5 4 C4.34 4 3.68 4 3 4 C2.34 4.66 1.68 5.32 1 6 C1 4.68 1 3.36 1 2 C0.34 1.67 -0.32 1.34 -1 1 C-0.67 0.67 -0.34 0.34 0 0 Z " fill="#28272A" transform="translate(149,3)"/>
<path d="M0 0 C0.99 0.66 1.98 1.32 3 2 C2.67 2.99 2.34 3.98 2 5 C1.01 5.33 0.02 5.66 -1 6 C-1 5.34 -1 4.68 -1 4 C-1.66 3.67 -2.32 3.34 -3 3 C-2.01 2.01 -1.02 1.02 0 0 Z " fill="#3B3B3D" transform="translate(87,125)"/>
<path d="M0 0 C0.66 0.33 1.32 0.66 2 1 C1.34 3.31 0.68 5.62 0 8 C-1.32 7.67 -2.64 7.34 -4 7 C-3.67 6.34 -3.34 5.68 -3 5 C-2.34 5 -1.68 5 -1 5 C-0.67 3.35 -0.34 1.7 0 0 Z " fill="#464547" transform="translate(84,119)"/>
<path d="M0 0 C0.66 0 1.32 0 2 0 C2.99 2.31 3.98 4.62 5 7 C3 6 1 5 -1 4 C-0.67 2.68 -0.34 1.36 0 0 Z " fill="#949396" transform="translate(24,60)"/>
<path d="M0 0 C2.97 0.495 2.97 0.495 6 1 C6.33 2.65 6.66 4.3 7 6 C3.535 4.02 3.535 4.02 0 2 C0 1.34 0 0.68 0 0 Z " fill="#89898B" transform="translate(17,54)"/>
<path d="M0 0 C1.32 0 2.64 0 4 0 C4.33 2.31 4.66 4.62 5 7 C3.29115995 5.37660195 1.62553283 3.70680947 0 2 C0 1.34 0 0.68 0 0 Z " fill="#969599" transform="translate(158,44)"/>
<path d="M0 0 C1.53445094 3.06890187 0.54984289 5.70094266 0 9 C-0.99 8.67 -1.98 8.34 -3 8 C-2.25 2.25 -2.25 2.25 0 0 Z " fill="#9E9EA0" transform="translate(152,24)"/>
<path d="M0 0 C1.65 1.32 3.3 2.64 5 4 C4.67 4.66 4.34 5.32 4 6 C3.01 6.33 2.02 6.66 1 7 C0.67 4.69 0.34 2.38 0 0 Z " fill="#565558" transform="translate(161,143)"/>
<path d="M0 0 C0 2 0 4 0 6 C-2.31 6 -4.62 6 -7 6 C-5.62209707 3.24419414 -3.62850007 2.51138754 -1 1 C-0.67 0.67 -0.34 0.34 0 0 Z " fill="#868689" transform="translate(41,143)"/>
<path d="M0 0 C3.875 1.75 3.875 1.75 5 4 C4.34 4.66 3.68 5.32 3 6 C1.68 4.35 0.36 2.7 -1 1 C-0.67 0.67 -0.34 0.34 0 0 Z " fill="#BEBDC0" transform="translate(121,116)"/>
<path d="M0 0 C1.485 0.99 1.485 0.99 3 2 C3 2.66 3 3.32 3 4 C3.99 4.33 4.98 4.66 6 5 C5.67 5.66 5.34 6.32 5 7 C3.35 6.67 1.7 6.34 0 6 C0 4.02 0 2.04 0 0 Z " fill="#838385" transform="translate(70,76)"/>
<path d="M0 0 C2.31 0.33 4.62 0.66 7 1 C2.25 4.875 2.25 4.875 0 6 C0 4.02 0 2.04 0 0 Z " fill="#68686A" transform="translate(144,78)"/>
<path d="M0 0 C1.32 0.33 2.64 0.66 4 1 C4 2.32 4 3.64 4 5 C2.68 4.67 1.36 4.34 0 4 C0 2.68 0 1.36 0 0 Z " fill="#131314" transform="translate(64,74)"/>
<path d="" fill="#FEFEFE" transform="translate(0,0)"/>
</svg>
