<?xml version="1.0" encoding="UTF-8"?>
<svg version="1.1" xmlns="http://www.w3.org/2000/svg" width="200" height="213">
<path d="M0 0 C1.66015625 1.7578125 1.66015625 1.7578125 3.0625 4.125 C3.81080078 5.34896484 3.81080078 5.34896484 4.57421875 6.59765625 C5.04472656 7.39042969 5.51523438 8.18320313 6 9 C6.78330424 10.19303262 7.5735574 11.38157574 8.375 12.5625 C8.91125 13.366875 9.4475 14.17125 10 15 C10.70962891 14.34644531 10.70962891 14.34644531 11.43359375 13.6796875 C16.33351155 9.26689603 21.42836282 5.52096516 27 2 C28.9375 2.8125 28.9375 2.8125 31 4 C32.08899085 7.26697255 31.95955464 9.16722254 31.625 12.5625 C31.53476563 13.53316406 31.44453125 14.50382812 31.3515625 15.50390625 C31 18 31 18 30 20 C30.61875 20.309375 31.2375 20.61875 31.875 20.9375 C33.25 21.625 34.625 22.3125 36 23 C37.32 23 38.64 23 40 23 C41.125 29.625 41.125 29.625 40 33 C41.485 33.495 41.485 33.495 43 34 C45.18723558 38.29034672 46.64313324 42.14786417 47 47 C45.77734375 49.140625 45.77734375 49.140625 43.9375 51.25 C38.99878075 57.74623949 37.02167989 65.0223354 34.69726562 72.73095703 C33.53576576 76.51071184 32.26675593 80.25444812 31 84 C32.98 84.495 32.98 84.495 35 85 C35.33 86.65 35.66 88.3 36 90 C37.22976562 89.83242187 38.45953125 89.66484375 39.7265625 89.4921875 C41.35928575 89.28575123 42.9921035 89.08006142 44.625 88.875 C45.43324219 88.76285156 46.24148437 88.65070313 47.07421875 88.53515625 C52.05878445 87.92728238 55.2176334 88.25971187 60 90 C60.76022461 89.82694336 61.52044922 89.65388672 62.30371094 89.47558594 C65.59193769 88.89559085 67.66044822 89.48884649 70.8671875 90.3828125 C79.53551528 92.53584232 88.16835569 92.72256352 97.0625 92.99609375 C98.30257812 93.05667969 99.54265625 93.11726563 100.8203125 93.1796875 C101.93680176 93.21819824 103.05329102 93.25670898 104.20361328 93.29638672 C107 94 107 94 108.85644531 96.26977539 C109.95714411 98.89768203 110.40143111 100.68220322 110.4765625 103.50390625 C110.5075 104.32697266 110.5384375 105.15003906 110.5703125 105.99804688 C110.58835938 106.84431641 110.60640625 107.69058594 110.625 108.5625 C110.67621792 110.25141087 110.73078641 111.94022419 110.7890625 113.62890625 C110.80662598 114.37213135 110.82418945 115.11535645 110.84228516 115.88110352 C111.00162133 118.02178256 111.41852872 119.93743915 112 122 C112.66 122 113.32 122 114 122 C114 123.98 114 125.96 114 128 C113.01 128 112.02 128 111 128 C110.55011719 128.49113281 110.10023438 128.98226562 109.63671875 129.48828125 C107.35813044 131.59284849 105.85527438 131.30604965 102.8125 131.1875 C101.91144531 131.16042969 101.01039063 131.13335937 100.08203125 131.10546875 C99.39496094 131.07066406 98.70789063 131.03585938 98 131 C98.33 131.66 98.66 132.32 99 133 C99.77341937 136.98190126 100.36899055 140.99334648 101 145 C101.19142578 146.09248047 101.19142578 146.09248047 101.38671875 147.20703125 C102.12010362 151.57876702 102.12010362 151.57876702 101.4609375 153.890625 C100.89488466 156.48103628 101.29757926 158.19031704 101.9375 160.75 C102.13214844 161.54921875 102.32679688 162.3484375 102.52734375 163.171875 C102.68332031 163.77515625 102.83929688 164.3784375 103 165 C102.0409375 165.61875 102.0409375 165.61875 101.0625 166.25 C98.7381833 168.22214751 98.56682371 169.11218234 98 172 C91.28837062 172.88021369 84.76594019 173.11381955 78 173 C78.3609375 173.43828125 78.721875 173.8765625 79.09375 174.328125 C82.87390095 179.4943313 83.75842361 183.71027406 83.5 190.08203125 C82.75286866 194.44224304 80.95681207 197.72958665 78 201 C77.34 201.33 76.68 201.66 76 202 C76 204.97 76 207.94 76 211 C67.56706655 211.14293108 59.2574866 210.48450063 50.86328125 209.7109375 C33.16665961 208.21665099 15.35533662 208.98534037 -2.375 209.4375 C-3.19228577 209.4570575 -4.00957153 209.47661499 -4.85162354 209.49676514 C-7.17990593 209.55375537 -9.50789633 209.61755218 -11.8359375 209.68359375 C-12.89992767 209.7086776 -12.89992767 209.7086776 -13.9854126 209.73426819 C-17.27714228 209.56282546 -17.27714228 209.56282546 -20 211 C-22.21484375 211.203125 -22.21484375 211.203125 -24.9375 211.25 C-26.28134766 211.28867187 -26.28134766 211.28867187 -27.65234375 211.328125 C-28.81443359 211.16570312 -28.81443359 211.16570312 -30 211 C-32 208 -32 208 -32 205 C-36.33266589 205.47192443 -36.33266589 205.47192443 -40.0625 207.5625 C-42.54503746 209.40438263 -43.97516385 209.39800476 -47 209 C-49 207 -49 207 -49.125 204.375 C-49.08375 203.59125 -49.0425 202.8075 -49 202 C-49.98097656 202.02320313 -50.96195313 202.04640625 -51.97265625 202.0703125 C-63.24448458 202.25182116 -73.91398722 201.21720256 -85 199 C-85 189.43 -85 179.86 -85 170 C-81.535 169.01 -81.535 169.01 -78 168 C-76.78130071 165.49552484 -76.78130071 165.49552484 -76 163 C-74 162.125 -74 162.125 -72 162 C-71.34 162.33 -70.68 162.66 -70 163 C-69.375 165.5625 -69.375 165.5625 -69 168 C-66.24968413 167.85888117 -63.49984582 167.71228835 -60.75 167.5625 C-59.97269531 167.52318359 -59.19539063 167.48386719 -58.39453125 167.44335938 C-57.26337891 167.38051758 -57.26337891 167.38051758 -56.109375 167.31640625 C-55.41811523 167.27974854 -54.72685547 167.24309082 -54.01464844 167.20532227 C-51.93371671 166.99324476 -50.01427578 166.55491323 -48 166 C-48 165.34 -48 164.68 -48 164 C-42.72 163.67 -37.44 163.34 -32 163 C-31.979375 161.5975 -31.95875 160.195 -31.9375 158.75 C-31.92589844 157.96109375 -31.91429687 157.1721875 -31.90234375 156.359375 C-31.91741531 154.04471408 -31.91741531 154.04471408 -32.49609375 152.0390625 C-33.1186428 149.51991054 -33.13226386 147.21819914 -33.125 144.625 C-33.12886719 143.25214844 -33.12886719 143.25214844 -33.1328125 141.8515625 C-32.99232585 138.83523142 -32.51790705 135.97217961 -32 133 C-36.22892186 132.66351188 -40.45817353 132.33136068 -44.6875 132 C-45.88568359 131.90460938 -47.08386719 131.80921875 -48.31835938 131.7109375 C-49.47529297 131.62070313 -50.63222656 131.53046875 -51.82421875 131.4375 C-52.88729248 131.35371094 -53.95036621 131.26992187 -55.0456543 131.18359375 C-57.70764822 131.0181678 -60.33397837 130.96551629 -63 131 C-63.495 130.01 -63.495 130.01 -64 129 C-64.94875 128.731875 -65.8975 128.46375 -66.875 128.1875 C-70 127 -70 127 -71.65625 125.1484375 C-75.14447938 116.97543494 -74.71187177 104.24448733 -72.38037109 95.73974609 C-70.47819365 91.03764016 -68.07724622 87.18797883 -63.63671875 84.6484375 C-60.39034536 83.85007012 -58.24745528 84.26307745 -55 85 C-45.78444663 86.80361545 -36.87354698 87.18685032 -27.5 87.1875 C-25.7989209 87.18858765 -25.7989209 87.18858765 -24.06347656 87.18969727 C-18.90908071 87.15557489 -14.08052678 86.94249225 -9 86 C-9.845625 85.0925 -10.69125 84.185 -11.5625 83.25 C-21.35496707 71.67918396 -27.50980215 56.13123974 -29 41 C-28.625 37.375 -28.625 37.375 -28 35 C-27.34 35 -26.68 35 -26 35 C-25.835 34.319375 -25.67 33.63875 -25.5 32.9375 C-23.27293284 28.57616015 -20.05858945 25.70329746 -16 23 C-13.50466016 22.19943131 -11.64935269 22.05519485 -9 22 C-9.34224609 20.91332031 -9.34224609 20.91332031 -9.69140625 19.8046875 C-12.78332429 9.40586001 -12.78332429 9.40586001 -11 5 C-7.49012793 1.33058829 -5.15720963 -0.80960905 0 0 Z M-14 30 C-10.99382731 33.00617269 -8.17618402 32.59585316 -4 33 C-4.66 31.02 -5.32 29.04 -6 27 C-8.60939857 27 -11.6401989 28.97026861 -14 30 Z M31 37 C31 38.32 31 39.64 31 41 C29.35 41 27.7 41 26 41 C26.99 41.66 27.98 42.32 29 43 C28.67 44.32 28.34 45.64 28 47 C13.33337762 48.58864769 -2.76754252 49.75173711 -16 42 C-16.66 41.34 -17.32 40.68 -18 40 C-17.51630384 52.09240392 -11.65719091 62.05651414 -3.85546875 70.890625 C-0.55573533 74.64190089 -0.99368447 77.12087162 -1.2578125 81.90625 C-1.17273438 82.5971875 -1.08765625 83.288125 -1 84 C2.15314785 86.10209857 2.86103081 86.2434761 6.44921875 86.1953125 C7.29677734 86.18886719 8.14433594 86.18242188 9.01757812 86.17578125 C9.89865234 86.15902344 10.77972656 86.14226562 11.6875 86.125 C13.02651367 86.11146484 13.02651367 86.11146484 14.39257812 86.09765625 C16.59532314 86.07409748 18.79752588 86.04120329 21 86 C20.34 85.34 19.68 84.68 19 84 C18.35674292 77.03138159 20.79896244 72.05594537 24.51171875 66.3671875 C26.59131822 63.0594781 27.82513089 59.70752108 29 56 C29.26683594 55.20722656 29.53367188 54.41445313 29.80859375 53.59765625 C31.5974312 48.04284521 32.53098732 42.8157572 33 37 C32.34 37 31.68 37 31 37 Z M25 79 C24.01 80.98 23.02 82.96 22 85 C23.32 84.67 24.64 84.34 26 84 C26 82.35 26 80.7 26 79 C25.67 79 25.34 79 25 79 Z M-62 93 C-66.82116813 100.23175219 -66.73351596 108.52555267 -65.375 116.8125 C-61.37206775 122.18485644 -55.38180845 122.97096938 -49 124 C-40.21074469 125.1734401 -31.4038856 125.1276372 -22.5625 124.6875 C-21.83442139 124.65309814 -21.10634277 124.61869629 -20.35620117 124.58325195 C-16.22743903 124.40129565 -16.22743903 124.40129565 -13 122 C-8.75533582 121.4906403 -6.10060225 121.78611541 -2.53515625 124.00390625 C2.95749449 126.85429755 8.37949011 126.47447887 14.4375 126.3125 C15.51837891 126.30283203 16.59925781 126.29316406 17.71289062 126.28320312 C22.41541004 126.2176131 27.02495354 126.04908456 31.6875 125.421875 C36.41893373 124.83091629 40.8553243 125.31375079 45.5625 125.9375 C46.38041016 126.03740234 47.19832031 126.13730469 48.04101562 126.24023438 C50.02849254 126.48431049 52.01443534 126.74082705 54 127 C53.7834375 125.98421875 53.566875 124.9684375 53.34375 123.921875 C53.06189153 122.5313732 52.78067678 121.14074081 52.5 119.75 C52.35691406 119.08742188 52.21382813 118.42484375 52.06640625 117.7421875 C51.19693376 113.35342162 50.92680523 109.18627194 50.95898438 104.70800781 C50.96786682 103.10061737 50.96786682 103.10061737 50.97692871 101.46075439 C50.98454224 100.64870544 50.99215576 99.83665649 51 99 C49.8704187 99.00222061 48.7408374 99.00444122 47.57702637 99.00672913 C36.86865858 99.02710762 26.16029479 99.04204243 15.45191193 99.05181217 C9.94823897 99.05700391 4.44458183 99.06403322 -1.05908203 99.07543945 C-6.38240207 99.08640137 -11.70570701 99.09230468 -17.02903748 99.09487724 C-19.04772682 99.09670774 -21.06641545 99.10028153 -23.08509827 99.10573006 C-34.7696349 99.13597824 -46.3476019 98.91907945 -58 98 C-58.33 97.01 -58.66 96.02 -59 95 C-58.34 94.34 -57.68 93.68 -57 93 C-59.41619823 92.74969023 -59.41619823 92.74969023 -62 93 Z M67.25 102.5625 C65 103 65 103 62 103 C59.8543267 107.43439149 58.75937007 112.0715425 59 117 C60.61655833 120.088372 60.61655833 120.088372 63 122 C63.66 122 64.32 122 65 122 C65 122.99 65 123.98 65 125 C78.54499991 125.27442775 78.54499991 125.27442775 92 124 C92.495 123.505 92.495 123.505 93 123 C99.52542373 122.76271186 99.52542373 122.76271186 102 124 C101.97721619 120.72761969 101.89994236 117.45874097 101.8125 114.1875 C101.80669922 113.25873047 101.80089844 112.32996094 101.79492188 111.37304688 C101.73973373 106.12251498 101.73973373 106.12251498 99.015625 101.8828125 C94.91781363 100.68319415 91.18672034 100.59694834 86.9375 100.6875 C86.09638672 100.69587891 85.25527344 100.70425781 84.38867188 100.71289062 C78.56656026 100.82442533 72.96421028 101.39368426 67.25 102.5625 Z M-23 133 C-22.67 136.96 -22.34 140.92 -22 145 C-22.99 145.495 -22.99 145.495 -24 146 C-24 149.63 -24 153.26 -24 157 C-21.69 157.99 -19.38 158.98 -17 160 C-17 160.99 -17 161.98 -17 163 C-18.65 163.33 -20.3 163.66 -22 164 C-22 164.66 -22 165.32 -22 166 C-14.08 165.01 -14.08 165.01 -6 164 C-6 164.66 -6 165.32 -6 166 C1.70466404 166.02540322 9.40931724 166.04288929 17.11401367 166.05493164 C19.73380944 166.0599532 22.35360243 166.0667717 24.97338867 166.07543945 C28.74398489 166.08760036 32.51454397 166.09325018 36.28515625 166.09765625 C38.03554955 166.10539818 38.03554955 166.10539818 39.82130432 166.11329651 C46.49080399 166.13258697 46.49080399 166.13258697 53.1105957 165.43383789 C56.64527151 164.90311386 58.64645495 165.85928007 62 167 C64.69291978 166.98367927 67.21118606 166.88312151 69.875 166.625 C70.90753906 166.53992188 70.90753906 166.53992188 71.9609375 166.453125 C73.64157689 166.31307172 75.32096005 166.15807755 77 166 C76.34 165.01 75.68 164.02 75 163 C74.49755859 160.67163086 74.49755859 160.67163086 74.1484375 157.96484375 C74.01953125 156.99095703 73.890625 156.01707031 73.7578125 155.01367188 C73.63148438 153.99853516 73.50515625 152.98339844 73.375 151.9375 C73.17390625 150.40899414 73.17390625 150.40899414 72.96875 148.84960938 C72 141.3912229 72 141.3912229 72 139 C73.48011371 139.30798326 74.95907325 139.621518 76.4375 139.9375 C77.26121094 140.11152344 78.08492188 140.28554687 78.93359375 140.46484375 C81 141 81 141 82 142 C82.03189979 145.56366263 81.93128353 149.11719371 81.83984375 152.6796875 C81.72163225 156.13924753 81.72163225 156.13924753 84 159 C84.39013716 160.9896995 84.73202649 162.99019869 85 165 C90.445 165.495 90.445 165.495 96 166 C95.79503906 164.84242188 95.59007812 163.68484375 95.37890625 162.4921875 C95.10675544 160.95312772 94.83462088 159.41406507 94.5625 157.875 C94.42779297 157.11445313 94.29308594 156.35390625 94.15429688 155.5703125 C93.41440873 151.38362839 92.69026923 147.19522853 92 143 C91.34 143 90.68 143 90 143 C90 141.68 90 140.36 90 139 C84.95512632 137.35096506 80.74043562 136.75239838 75.375 136.8125 C74.10398437 136.81894531 72.83296875 136.82539063 71.5234375 136.83203125 C68.09451253 136.90629226 68.09451253 136.90629226 65.1640625 137.57421875 C63 138 63 138 61 137 C59.64126404 136.89763111 58.27781799 136.85419115 56.9152832 136.84228516 C56.06794617 136.8319072 55.22060913 136.82152924 54.34759521 136.81083679 C53.42464661 136.80365128 52.501698 136.79646576 51.55078125 136.7890625 C49.5781964 136.76303421 47.60562166 136.73623059 45.63305664 136.70874023 C44.59956085 136.69543671 43.56606506 136.68213318 42.50125122 136.66842651 C26.98702869 136.45714362 11.84180344 136.07410984 -3.5 133.6328125 C-9.99036474 132.62078398 -16.44972394 132.72060434 -23 133 Z M18.27856445 175.52734375 C13.91092355 176.15700737 9.6330429 176.12327561 5.2265625 176.09765625 C4.3028183 176.0962413 3.3790741 176.09482635 2.42733765 176.09336853 C-0.50680862 176.08779609 -3.44087701 176.07524869 -6.375 176.0625 C-8.37109264 176.05748144 -10.36718649 176.05291915 -12.36328125 176.04882812 C-17.24221725 176.03783569 -22.12109545 176.0205901 -27 176 C-26.83773926 176.93948486 -26.67547852 177.87896973 -26.50830078 178.84692383 C-26.07545329 181.53195044 -25.8655402 183.97726717 -25.875 186.6875 C-25.87242188 187.43386719 -25.86984375 188.18023437 -25.8671875 188.94921875 C-26 191 -26 191 -27 194 C-28.65 194 -30.3 194 -32 194 C-31.79375 192.783125 -31.5875 191.56625 -31.375 190.3125 C-30.88500723 186.54485289 -31.52408964 184.5052871 -33 181 C-32.625 177.6875 -32.625 177.6875 -32 175 C-34.31 175 -36.62 175 -39 175 C-38.67 175.763125 -38.34 176.52625 -38 177.3125 C-36.53452151 182.71645192 -35.72786667 189.07409334 -38.015625 194.3359375 C-38.34046875 194.88507813 -38.6653125 195.43421875 -39 196 C-37.453125 196.185625 -37.453125 196.185625 -35.875 196.375 C-32.36417115 196.94126272 -29.33830253 197.81304799 -26 199 C-22.16268895 200.19514636 -18.25322369 200.35123048 -14.265625 200.56640625 C-13.48350647 200.6090712 -12.70138794 200.65173615 -11.89556885 200.69569397 C-0.13243655 201.26351953 11.65281756 201.02807321 23.42480469 200.90405273 C44.8929157 200.69348353 44.8929157 200.69348353 55.24755859 202.55249023 C59.20882871 203.19653921 62.99653841 203.1380504 67 203 C68.73071042 187.91265293 68.73071042 187.91265293 67 173 C50.92017053 172.69564992 34.12791354 172.45615024 18.27856445 175.52734375 Z M-71 177 C-71 177.33 -71 177.66 -71 178 C-68.36 178 -65.72 178 -63 178 C-63 177.67 -63 177.34 -63 177 C-65.64 177 -68.28 177 -71 177 Z M-55 177 C-55 177.33 -55 177.66 -55 178 C-52.36 178 -49.72 178 -47 178 C-47.33 177.01 -47.66 176.02 -48 175 C-50.35287614 175 -52.79373224 176.24893012 -55 177 Z M-73 182 C-73 185.3 -73 188.6 -73 192 C-73.99 192.495 -73.99 192.495 -75 193 C-71.60418484 193.0291544 -68.20840214 193.04685068 -64.8125 193.0625 C-63.85279297 193.07087891 -62.89308594 193.07925781 -61.90429688 193.08789062 C-60.97294922 193.09111328 -60.04160156 193.09433594 -59.08203125 193.09765625 C-58.22843018 193.10289307 -57.3748291 193.10812988 -56.49536133 193.11352539 C-53.90753253 192.99579323 -51.52338047 192.57107044 -49 192 C-48.34 189.03 -47.68 186.06 -47 183 C-49.64 183 -52.28 183 -55 183 C-53.68 183.33 -52.36 183.66 -51 184 C-51.33 184.99 -51.66 185.98 -52 187 C-56.099361 187.9327418 -60.12043288 188.28825262 -64.3125 188.5625 C-65.56675781 188.64628906 -66.82101563 188.73007813 -68.11328125 188.81640625 C-69.06589844 188.87699219 -70.01851562 188.93757812 -71 189 C-70.67 187.35 -70.34 185.7 -70 184 C-70.99 183.34 -71.98 182.68 -73 182 Z M76 186 C75.67 187.98 75.34 189.96 75 192 C75.66 191.34 76.32 190.68 77 190 C76.6814823 187.89179203 76.6814823 187.89179203 76 186 Z " fill="#1A1A1A" transform="translate(86,2)"/>
<path d="M0 0 C1.67542976 0.28604898 3.34385343 0.61781233 5 1 C5.33 2.65 5.66 4.3 6 6 C8.75031587 5.85888117 11.50015418 5.71228835 14.25 5.5625 C15.02730469 5.52318359 15.80460937 5.48386719 16.60546875 5.44335938 C17.35957031 5.40146484 18.11367188 5.35957031 18.890625 5.31640625 C19.58188477 5.27974854 20.27314453 5.24309082 20.98535156 5.20532227 C23.06628329 4.99324476 24.98572422 4.55491323 27 4 C27 3.34 27 2.68 27 2 C28.49955885 1.9446884 29.99975484 1.90663168 31.5 1.875 C32.3353125 1.85179687 33.170625 1.82859375 34.03125 1.8046875 C37 2 37 2 40.59375 3 C46.01971842 4.44632602 51.42299654 4.21573973 57 4.125 C58.59134766 4.11146484 58.59134766 4.11146484 60.21484375 4.09765625 C62.81013638 4.07427524 65.40494465 4.04150556 68 4 C68 4.66 68 5.32 68 6 C70.97 5.505 70.97 5.505 74 5 C74.495 5.99 74.495 5.99 75 7 C75.99 7.33 76.98 7.66 78 8 C76.95125002 10.62187494 76.35068687 11.79371361 73.875 13.25 C73.25625 13.4975 72.6375 13.745 72 14 C71.01 12.515 71.01 12.515 70 11 C70.66 10.01 71.32 9.02 72 8 C71.01 8 70.02 8 69 8 C69 8.66 69 9.32 69 10 C68.34 10 67.68 10 67 10 C67 9.34 67 8.68 67 8 C66.12859375 8.01160156 65.2571875 8.02320313 64.359375 8.03515625 C56.51096562 8.0946139 48.8075765 7.80077708 41 7 C41 7.66 41 8.32 41 9 C43.475 9.495 43.475 9.495 46 10 C45.67 10.66 45.34 11.32 45 12 C42.93359375 12.4140625 42.93359375 12.4140625 40.4375 12.625 C39.19806641 12.73714844 39.19806641 12.73714844 37.93359375 12.8515625 C36.97646484 12.92503906 36.97646484 12.92503906 36 13 C36.495 13.763125 36.99 14.52625 37.5 15.3125 C39.52109197 20.28101775 39.25431356 24.70651036 39 30 C37.68 30.33 36.36 30.66 35 31 C35 32.32 35 33.64 35 35 C37.64 35.33 40.28 35.66 43 36 C43 36.66 43 37.32 43 38 C44.32 38.33 45.64 38.66 47 39 C47 39.33 47 39.66 47 40 C46.030625 40.12375 45.06125 40.2475 44.0625 40.375 C43.051875 40.58125 42.04125 40.7875 41 41 C40.505 41.99 40.505 41.99 40 43 C38.01679982 44.03291676 36.01652194 45.0337499 34 46 C33.67 46.33 33.34 46.66 33 47 C30.5625 47.1875 30.5625 47.1875 28 47 C26 45 26 45 25.875 42.375 C25.91625 41.59125 25.9575 40.8075 26 40 C24.52853516 40.03480469 24.52853516 40.03480469 23.02734375 40.0703125 C11.75551542 40.25182116 1.08601278 39.21720256 -10 37 C-10 27.43 -10 17.86 -10 8 C-7.69 7.34 -5.38 6.68 -3 6 C-1.54708727 3.53744315 -1.54708727 3.53744315 -1 1 C-0.67 0.67 -0.34 0.34 0 0 Z M4 15 C4 15.33 4 15.66 4 16 C6.64 16 9.28 16 12 16 C12 15.67 12 15.34 12 15 C9.36 15 6.72 15 4 15 Z M20 15 C20 15.33 20 15.66 20 16 C22.64 16 25.28 16 28 16 C27.67 15.01 27.34 14.02 27 13 C24.64712386 13 22.20626776 14.24893012 20 15 Z M2 20 C2 23.3 2 26.6 2 30 C1.01 30.495 1.01 30.495 0 31 C3.39581516 31.0291544 6.79159786 31.04685068 10.1875 31.0625 C11.14720703 31.07087891 12.10691406 31.07925781 13.09570312 31.08789062 C14.02705078 31.09111328 14.95839844 31.09433594 15.91796875 31.09765625 C16.77156982 31.10289307 17.6251709 31.10812988 18.50463867 31.11352539 C21.09246747 30.99579323 23.47661953 30.57107044 26 30 C26.66 27.03 27.32 24.06 28 21 C25.36 21 22.72 21 20 21 C21.32 21.33 22.64 21.66 24 22 C23.67 22.99 23.34 23.98 23 25 C18.900639 25.9327418 14.87956712 26.28825262 10.6875 26.5625 C9.43324219 26.64628906 8.17898437 26.73007813 6.88671875 26.81640625 C5.93410156 26.87699219 4.98148438 26.93757813 4 27 C4.33 25.35 4.66 23.7 5 22 C4.01 21.34 3.02 20.68 2 20 Z " fill="#131313" transform="translate(11,164)"/>
<path d="M0 0 C1.32 0.33 2.64 0.66 4 1 C5.125 6.75 5.125 6.75 4 9 C3.49969869 14.71274291 4.16049742 19.59646117 6 25 C7.010625 25.12375 8.02125 25.2475 9.0625 25.375 C13 26 13 26 16.25390625 26.99609375 C20.15122013 28.0405251 23.86652787 28.48530899 27.875 28.6875 C28.59953369 28.72657471 29.32406738 28.76564941 30.07055664 28.8059082 C35.5413917 29.04781387 40.96977992 28.97209372 46.4375 28.6875 C47.52877197 28.63565552 47.52877197 28.63565552 48.64208984 28.58276367 C52.77183648 28.40171652 52.77183648 28.40171652 56 26 C60.28343082 25.4859883 62.98077127 25.82558628 66.609375 28.01171875 C71.47937699 30.53832029 75.74048307 30.41600883 81.125 30.1875 C82.97908793 30.14723627 84.83326262 30.11078948 86.6875 30.078125 C87.58855469 30.05943359 88.48960938 30.04074219 89.41796875 30.02148438 C95.90706068 29.96749042 102.82016394 29.94005465 109 32 C110.56118428 32.06740865 112.1250252 32.08514456 113.6875 32.0625 C114.49574219 32.05347656 115.30398437 32.04445312 116.13671875 32.03515625 C116.75160156 32.02355469 117.36648437 32.01195312 118 32 C118 33.32 118 34.64 118 36 C116.35 36 114.7 36 113 36 C113 36.66 113 37.32 113 38 C113.99 38 114.98 38 116 38 C116 38.66 116 39.32 116 40 C112.04 40 108.08 40 104 40 C104 39.34 104 38.68 104 38 C103.01 38 102.02 38 101 38 C101.33 38.99 101.66 39.98 102 41 C90.77880188 42.16274587 80.46342923 41.78288198 69.30224609 40.12451172 C61.78605458 39.0264123 54.60438394 38.64416228 47 39 C47.495 44.445 47.495 44.445 48 50 C47.01 50.33 46.02 50.66 45 51 C45.495 56.445 45.495 56.445 46 62 C46.969375 62.28875 47.93875 62.5775 48.9375 62.875 C52 64 52 64 53 66 C50.57403312 68.95265705 48.76219014 69.50549918 45 69.875 C44.13375 69.97554688 43.2675 70.07609375 42.375 70.1796875 C40 70 40 70 38.1953125 68.75390625 C36.49469578 66.25855688 36.82292356 63.96342239 36.9921875 61.03515625 C37.08432031 58.99917436 37.08432031 58.99917436 36.515625 57.08203125 C35.88717106 54.54441041 35.8676816 52.2376687 35.875 49.625 C35.87113281 48.25214844 35.87113281 48.25214844 35.8671875 46.8515625 C36.00767415 43.83523142 36.48209295 40.97217961 37 38 C32.77107814 37.66351188 28.54182647 37.33136068 24.3125 37 C23.11431641 36.90460938 21.91613281 36.80921875 20.68164062 36.7109375 C18.94624023 36.57558594 18.94624023 36.57558594 17.17578125 36.4375 C16.11270752 36.35371094 15.04963379 36.26992187 13.9543457 36.18359375 C11.29235178 36.0181678 8.66602163 35.96551629 6 36 C5.67 35.34 5.34 34.68 5 34 C4.05125 33.731875 3.1025 33.46375 2.125 33.1875 C-1.70960062 31.73035177 -2.26922846 30.64263691 -4 27 C-4.34057617 24.22924805 -4.34057617 24.22924805 -4.29296875 21.26171875 C-4.28330078 20.19501953 -4.27363281 19.12832031 -4.26367188 18.02929688 C-4.23853516 16.92650391 -4.21339844 15.82371094 -4.1875 14.6875 C-4.17396484 13.56537109 -4.16042969 12.44324219 -4.14648438 11.28710938 C-4.1112138 8.52424771 -4.06192235 5.76237171 -4 3 C-3.01 2.67 -2.02 2.34 -1 2 C-0.67 1.34 -0.34 0.68 0 0 Z " fill="#191919" transform="translate(17,97)"/>
<path d="M0 0 C0.50041139 2.95874309 0.99614252 5.91812501 1.484375 8.87890625 C1.77844076 10.6588952 2.07727482 12.43814822 2.390625 14.21484375 C3.11795884 18.58841699 3.11795884 18.58841699 2.45703125 20.89453125 C1.89519964 23.48279825 2.32650987 25.14086545 3 27.6875 C3.37381554 29.11500808 3.71795166 30.55156426 4 32 C3 33 3 33 0.625 33.375 C-0.24125 33.25125 -1.1075 33.1275 -2 33 C-4.60042567 29.479522 -5.54132074 26.35379306 -6.1875 22.0625 C-6.34605469 21.06347656 -6.50460938 20.06445312 -6.66796875 19.03515625 C-7.00035662 15.9967401 -7.05916592 13.05387182 -7 10 C-7.66 10 -8.32 10 -9 10 C-9.2475 9.04480469 -9.2475 9.04480469 -9.5 8.0703125 C-10.94505455 5.58736628 -10.94505455 5.58736628 -14.625 5.2421875 C-16.08166372 5.10130579 -17.54028447 4.97962996 -19 4.875 C-26.76285714 4.23714286 -26.76285714 4.23714286 -29 2 C-28.67 1.34 -28.34 0.68 -28 0 C-19.69487052 -1.70940529 -8.04970418 -2.68323473 0 0 Z " fill="#242424" transform="translate(185,135)"/>
<path d="M0 0 C8.71700174 -0.14368684 17.31320899 0.28038418 26 1 C26 1.66 26 2.32 26 3 C26.66 3 27.32 3 28 3 C28 2.34 28 1.68 28 1 C28.99 1 29.98 1 31 1 C30.7215625 1.9590625 30.7215625 1.9590625 30.4375 2.9375 C30.293125 3.618125 30.14875 4.29875 30 5 C31.58272601 6.58272601 33.38034003 6.34735747 35.5625 6.5625 C36.38878906 6.64628906 37.21507812 6.73007813 38.06640625 6.81640625 C38.70449219 6.87699219 39.34257813 6.93757812 40 7 C40 7.33 40 7.66 40 8 C28.94005573 8.10611887 18.0239368 8.00708069 7 7 C7.32484375 7.89460937 7.6496875 8.78921875 7.984375 9.7109375 C8.87049545 12.58060448 9.27094412 14.66140752 9.25 17.625 C9.25515625 18.35976562 9.2603125 19.09453125 9.265625 19.8515625 C8.96781656 22.26030725 8.19513895 23.90376423 7 26 C5.33388095 26.042721 3.66617115 26.04063832 2 26 C1.67 25.67 1.34 25.34 1 25 C1.185625 23.7625 1.37125 22.525 1.5625 21.25 C2.10363363 17.50214859 1.5084579 15.4883089 0 12 C0.375 9.1875 0.375 9.1875 1 7 C-1.97 6.505 -1.97 6.505 -5 6 C-5 5.67 -5 5.34 -5 5 C-0.545 4.505 -0.545 4.505 4 4 C2.68 3.34 1.36 2.68 0 2 C0 1.34 0 0.68 0 0 Z " fill="#464545" transform="translate(52,171)"/>
<path d="M0 0 C0 1.98 0 3.96 0 6 C-1.65 6.33 -3.3 6.66 -5 7 C-4.67 7.99 -4.34 8.98 -4 10 C-6.96348429 11.9756562 -7.68020373 12.26376859 -11.01171875 12.4140625 C-12.14770508 12.47207031 -12.14770508 12.47207031 -13.30664062 12.53125 C-14.09232422 12.5621875 -14.87800781 12.593125 -15.6875 12.625 C-16.48478516 12.66367188 -17.28207031 12.70234375 -18.10351562 12.7421875 C-20.06863475 12.83632494 -22.0342854 12.91924632 -24 13 C-24.144375 12.360625 -24.28875 11.72125 -24.4375 11.0625 C-24.81007181 9.02454854 -24.81007181 9.02454854 -26 8 C-28.32817964 7.63239269 -30.6618385 7.29758419 -33 7 C-33.33 5.68 -33.66 4.36 -34 3 C-30.85221251 0.90147501 -29.94129 0.73083028 -26.32421875 0.62109375 C-25.41349609 0.58693359 -24.50277344 0.55277344 -23.56445312 0.51757812 C-22.61505859 0.49115234 -21.66566406 0.46472656 -20.6875 0.4375 C-0.60972969 -0.21106028 -0.60972969 -0.21106028 0 0 Z " fill="#2E2E2E" transform="translate(183,107)"/>
<path d="M0 0 C8.98464921 1.4076317 17.92321955 2.42704708 27 3 C27 3.33 27 3.66 27 4 C18.75 4 10.5 4 2 4 C2 4.99 2 5.98 2 7 C19.82 7 37.64 7 56 7 C56 7.33 56 7.66 56 8 C55.29093506 8.02505615 54.58187012 8.0501123 53.85131836 8.07592773 C37.91431254 8.60273608 37.91431254 8.60273608 22 9.5625 C13.66939222 10.17886867 5.34738641 10.08605553 -3 10 C-3 10.66 -3 11.32 -3 12 C-0.36 12.33 2.28 12.66 5 13 C5 13.33 5 13.66 5 14 C2.36 14 -0.28 14 -3 14 C-3.66 12.68 -4.32 11.36 -5 10 C-4.67 9.67 -4.34 9.34 -4 9 C-4.99 9 -5.98 9 -7 9 C-7.66 10.98 -8.32 12.96 -9 15 C-9.268125 14.360625 -9.53625 13.72125 -9.8125 13.0625 C-10.88667752 10.66868314 -10.88667752 10.66868314 -14 10 C-14.33 10.99 -14.66 11.98 -15 13 C-15.66 12.67 -16.32 12.34 -17 12 C-16.12349559 10.1987985 -15.22298105 8.40926765 -14.3125 6.625 C-13.81363281 5.62726563 -13.31476562 4.62953125 -12.80078125 3.6015625 C-9.27261925 -1.49552186 -5.6772937 -1.26002987 0 0 Z " fill="#414040" transform="translate(31,87)"/>
<path d="M0 0 C6.625 -0.125 6.625 -0.125 10 1 C12.73289293 1.22797562 15.45042204 1.41668187 18.1875 1.5625 C18.93708984 1.60568359 19.68667969 1.64886719 20.45898438 1.69335938 C22.30578375 1.79922685 24.15286834 1.9000976 26 2 C26.33 1.34 26.66 0.68 27 0 C28.59789351 4.95346987 27.28306814 9.13282415 26 14 C25.34 13.01 24.68 12.02 24 11 C24.33 10.01 24.66 9.02 25 8 C24.01 8 23.02 8 22 8 C21.67 9.32 21.34 10.64 21 12 C16.84373632 13.00926479 12.95634906 13.10239579 8.6875 13.0625 C7.43324219 13.05347656 6.17898437 13.04445312 4.88671875 13.03515625 C3.93410156 13.02355469 2.98148438 13.01195312 2 13 C2.020625 12.195625 2.04125 11.39125 2.0625 10.5625 C2.29633621 8.06645115 2.29633621 8.06645115 1 7 C0.34 8.32 -0.32 9.64 -1 11 C-0.67 7.37 -0.34 3.74 0 0 Z " fill="#646464" transform="translate(13,178)"/>
<path d="M0 0 C1.10085937 0.09925781 2.20171875 0.19851562 3.3359375 0.30078125 C5.40457062 0.54400533 7.46804247 0.84471603 9.515625 1.2265625 C13.37246316 1.79830484 17.10871515 1.79573843 21 1.75 C22.10408203 1.74323242 22.10408203 1.74323242 23.23046875 1.73632812 C25.02868158 1.72465142 26.82685197 1.70672011 28.625 1.6875 C28.295 3.3375 27.965 4.9875 27.625 6.6875 C23.07389889 8.45079032 19.30738499 8.93241558 14.4375 8.875 C13.22707031 8.86855469 12.01664063 8.86210937 10.76953125 8.85546875 C7.625 8.6875 7.625 8.6875 4.625 7.6875 C2.05865139 7.46031504 -0.49178107 7.27141816 -3.0625 7.125 C-4.1153418 7.06022461 -4.1153418 7.06022461 -5.18945312 6.99414062 C-6.91775206 6.8883264 -8.6463511 6.78743419 -10.375 6.6875 C-10.375 5.0375 -10.375 3.3875 -10.375 1.6875 C-6.79426355 -0.59194443 -4.15752069 -0.4021844 0 0 Z " fill="#6A6969" transform="translate(82.375,184.3125)"/>
<path d="M0 0 C0.99 0.33 1.98 0.66 3 1 C4.88582158 1.11508036 6.77501494 1.17829025 8.6640625 1.2109375 C10.34822266 1.25347656 10.34822266 1.25347656 12.06640625 1.296875 C14.41521577 1.34844052 16.76419443 1.39285971 19.11328125 1.4296875 C26.02054863 1.61871192 31.57084122 2.43656143 38 5 C37.125 8.875 37.125 8.875 36 10 C28.70916615 11.08958956 21.3544963 11.12802798 14 11 C15.26953125 9.51171875 15.26953125 9.51171875 17 8 C20.6875 7.8125 20.6875 7.8125 24 8 C24 7.34 24 6.68 24 6 C22.9378125 5.96261719 21.875625 5.92523438 20.78125 5.88671875 C13.33564535 5.56211713 6.82943725 5.27243868 0 2 C0 1.34 0 0.68 0 0 Z " fill="#343333" transform="translate(78,40)"/>
<path d="M0 0 C0.33 0.66 0.66 1.32 1 2 C1.81984375 1.97679687 2.6396875 1.95359375 3.484375 1.9296875 C5.10085937 1.90261719 5.10085937 1.90261719 6.75 1.875 C8.35101563 1.84019531 8.35101563 1.84019531 9.984375 1.8046875 C12.92470106 1.99512313 14.52361878 2.47329896 17 4 C16.01 4.495 16.01 4.495 15 5 C14.34786708 7.02463255 14.34786708 7.02463255 14 9 C7.28837062 9.88021369 0.76594019 10.11381955 -6 10 C-5.6390625 10.43828125 -5.278125 10.8765625 -4.90625 11.328125 C-0.57673735 17.24512562 0.05554411 22.77785612 -1 30 C-1.66 30.66 -2.32 31.32 -3 32 C-3 27.71 -3 23.42 -3 19 C-4.32 18.34 -5.64 17.68 -7 17 C-9 15 -9 15 -9.125 11.375 C-9.08375 10.26125 -9.0425 9.1475 -9 8 C-6.36 8 -3.72 8 -1 8 C-1 6.68 -1 5.36 -1 4 C-0.7018576 2.65835921 -0.37756808 1.32148827 0 0 Z " fill="#2C2C2C" transform="translate(170,165)"/>
<path d="M0 0 C0.66 0 1.32 0 2 0 C2 0.66 2 1.32 2 2 C2.78375 1.67 3.5675 1.34 4.375 1 C8.99361869 -0.27410171 13.24249356 -0.16923936 18 0 C18 0.66 18 1.32 18 2 C18.65954681 1.9830307 19.31909363 1.9660614 19.99862671 1.94857788 C26.84355759 1.77445742 33.68871402 1.61450279 40.53417969 1.46289062 C43.09123222 1.40437684 45.64820387 1.34221224 48.20507812 1.27636719 C51.87354811 1.18252261 55.54210568 1.1016746 59.2109375 1.0234375 C60.35992523 0.99124115 61.50891296 0.9590448 62.69271851 0.9258728 C63.7536673 0.90570099 64.81461609 0.88552917 65.90771484 0.86474609 C66.84481293 0.84253998 67.78191101 0.82033386 68.74740601 0.79745483 C71 1 71 1 73 3 C71.65252686 3.08302368 71.65252686 3.08302368 70.27783203 3.16772461 C66.9491461 3.37487829 63.62075248 3.58589839 60.29248047 3.79956055 C58.85117241 3.89128605 57.40976497 3.98146339 55.96826172 4.07006836 C53.89783171 4.19760001 51.82782145 4.33067155 49.7578125 4.46484375 C48.5114502 4.543396 47.26508789 4.62194824 45.98095703 4.70288086 C43.07573625 4.8136742 43.07573625 4.8136742 41 6 C41 5.34 41 4.68 41 4 C33.08 4 25.16 4 17 4 C17 3.34 17 2.68 17 2 C16.14341797 2.10828125 16.14341797 2.10828125 15.26953125 2.21875 C5.36113376 3.35293858 -4.38895766 4.01522897 -14 1 C-14 0.67 -14 0.34 -14 0 C-8.96263052 -1.13340813 -5.03781894 -0.75567284 0 0 Z " fill="#6D6D6D" transform="translate(62,166)"/>
<path d="M0 0 C0.72822464 0.00141495 1.45644928 0.0028299 2.20674133 0.00428772 C4.52979664 0.00987966 6.85275513 0.02243063 9.17578125 0.03515625 C10.75195173 0.04017229 12.32812373 0.04473502 13.90429688 0.04882812 C17.76566223 0.05984645 21.62695533 0.07710551 25.48828125 0.09765625 C25.15828125 1.74765625 24.82828125 3.39765625 24.48828125 5.09765625 C12.24405569 6.20229834 1.45462781 6.01909534 -10.51171875 3.09765625 C-10.51171875 2.43765625 -10.51171875 1.77765625 -10.51171875 1.09765625 C-6.9424449 -0.0921017 -3.71224903 -0.0271253 0 0 Z " fill="#040405" transform="translate(38.51171875,95.90234375)"/>
<path d="M0 0 C0.9075 0.12375 1.815 0.2475 2.75 0.375 C4.53736706 3.55002757 5.30199233 6.48358836 5.9375 10.0625 C6.20626953 11.52236328 6.20626953 11.52236328 6.48046875 13.01171875 C6.61388672 14.18154297 6.61388672 14.18154297 6.75 15.375 C5.75 16.375 5.75 16.375 3.5625 16.5625 C0.11109436 16.33240629 -2.17181243 16.01670004 -5.25 14.375 C-6.73762341 11.74907366 -7.26114961 9.38539377 -7.25 6.375 C-5.43460297 2.13907359 -4.6830454 0.54035139 0 0 Z " fill="#303030" transform="translate(75.25,141.625)"/>
<path d="M0 0 C0.33 1.65 0.66 3.3 1 5 C-1.96348429 6.9756562 -2.68020373 7.26376859 -6.01171875 7.4140625 C-7.14770508 7.47207031 -7.14770508 7.47207031 -8.30664062 7.53125 C-9.09232422 7.5621875 -9.87800781 7.593125 -10.6875 7.625 C-11.48478516 7.66367188 -12.28207031 7.70234375 -13.10351562 7.7421875 C-15.06863475 7.83632494 -17.0342854 7.91924632 -19 8 C-19.144375 7.360625 -19.28875 6.72125 -19.4375 6.0625 C-19.81007181 4.02454854 -19.81007181 4.02454854 -21 3 C-23.32817964 2.63239269 -25.6618385 2.29758419 -28 2 C-28 1.67 -28 1.34 -28 1 C-24.27091231 0.83153467 -20.54171841 0.66554419 -16.8125 0.5 C-15.75740234 0.45230469 -14.70230469 0.40460938 -13.61523438 0.35546875 C-12.08286133 0.28779297 -12.08286133 0.28779297 -10.51953125 0.21875 C-9.58214111 0.17685547 -8.64475098 0.13496094 -7.67895508 0.09179688 C-5.11673177 0.00399992 -2.56347632 -0.01626313 0 0 Z " fill="#8C8B8B" transform="translate(178,112)"/>
<path d="M0 0 C1.65 0 3.3 0 5 0 C5 0.66 5 1.32 5 2 C5.66 2 6.32 2 7 2 C7.82020418 4.88711871 8.16181621 7.50013311 8.1875 10.5 C8.20167969 11.2528125 8.21585938 12.005625 8.23046875 12.78125 C7.97417278 15.24864173 7.22845153 16.86356256 6 19 C4.33388095 19.042721 2.66617115 19.04063832 1 19 C0.67 18.67 0.34 18.34 0 18 C0.185625 16.7625 0.37125 15.525 0.5625 14.25 C1.10363363 10.50214859 0.5084579 8.4883089 -1 5 C-0.625 2.1875 -0.625 2.1875 0 0 Z " fill="#2F2F2F" transform="translate(53,178)"/>
<path d="M0 0 C0.66 0 1.32 0 2 0 C2 0.66 2 1.32 2 2 C23.92899837 8.42334421 46.36495438 7.13091991 69 7 C68.67 7.66 68.34 8.32 68 9 C65.09560239 9.96813254 63.2718176 10.12144834 60.25317383 10.11352539 C59.29240433 10.11344986 58.33163483 10.11337433 57.3417511 10.11329651 C56.30729355 10.10813522 55.272836 10.10297394 54.20703125 10.09765625 C52.61528328 10.09553383 52.61528328 10.09553383 50.99137878 10.09336853 C47.59839065 10.08776606 44.20546823 10.07521314 40.8125 10.0625 C38.51367283 10.05748532 36.21484462 10.05292236 33.91601562 10.04882812 C28.27732128 10.03779583 22.63866534 10.0210553 17 10 C17 9.34 17 8.68 17 8 C14.03 7.67 11.06 7.34 8 7 C8 6.34 8 5.68 8 5 C5.03 5 2.06 5 -1 5 C-0.67 3.35 -0.34 1.7 0 0 Z " fill="#5E5E5D" transform="translate(46,195)"/>
<path d="M0 0 C1.9375 0.8125 1.9375 0.8125 4 2 C5.08899085 5.26697255 4.95955464 7.16722254 4.625 10.5625 C4.53476563 11.53316406 4.44453125 12.50382812 4.3515625 13.50390625 C4 16 4 16 3 18 C4.32 18.66 5.64 19.32 7 20 C5.02 20.99 5.02 20.99 3 22 C3 23.65 3 25.3 3 27 C2.2575 27.12375 1.515 27.2475 0.75 27.375 C-1.80141485 27.95486701 -3.7267573 28.73708739 -6 30 C-6 29.34 -6 28.68 -6 28 C-4.66666667 26.66666667 -3.33333333 25.33333333 -2 24 C0.43921068 20.51541332 1 19.37927528 1 15 C-0.65 15.33 -2.3 15.66 -4 16 C-3.67 15.01 -3.34 14.02 -3 13 C-2.34 13 -1.68 13 -1 13 C-0.67 12.01 -0.34 11.02 0 10 C0.66 9.34 1.32 8.68 2 8 C-1.4352048 5.70986347 -2.985331 5.82157027 -7 6 C-4.74259377 3.66475218 -2.7194239 1.81294927 0 0 Z " fill="#595858" transform="translate(113,4)"/>
<path d="M0 0 C0.12375 0.639375 0.2475 1.27875 0.375 1.9375 C0.58125 2.618125 0.7875 3.29875 1 4 C1.66 4.33 2.32 4.66 3 5 C3 5.66 3 6.32 3 7 C-10.2 7 -23.4 7 -37 7 C-37 6.67 -37 6.34 -37 6 C-30.565 5.505 -30.565 5.505 -24 5 C-24 4.34 -24 3.68 -24 3 C-23.01 3 -22.02 3 -21 3 C-21 3.66 -21 4.32 -21 5 C-17.04 5 -13.08 5 -9 5 C-9 4.34 -9 3.68 -9 3 C-9.99 3 -10.98 3 -12 3 C-12 2.34 -12 1.68 -12 1 C-7.95858806 0.36605303 -4.0934693 -0.12404452 0 0 Z " fill="#504F4F" transform="translate(142,132)"/>
<path d="M0 0 C0.66 0.33 1.32 0.66 2 1 C0.02 1.66 -1.96 2.32 -4 3 C-3.67 3.99 -3.34 4.98 -3 6 C-0.49552484 7.21869929 -0.49552484 7.21869929 2 8 C1.23204965 11.95904503 0.35008694 15.88440841 -0.5625 19.8125 C-0.83191406 20.97394531 -1.10132813 22.13539063 -1.37890625 23.33203125 C-1.58386719 24.21246094 -1.78882813 25.09289062 -2 26 C-1.34 26.33 -0.68 26.66 0 27 C0 28.32 0 29.64 0 31 C-1.65 31 -3.3 31 -5 31 C-5 21.43 -5 11.86 -5 2 C-3.35 1.34 -1.7 0.68 0 0 Z " fill="#161617" transform="translate(6,170)"/>
<path d="M0 0 C6.625 -0.125 6.625 -0.125 10 1 C12.73289293 1.22797562 15.45042204 1.41668187 18.1875 1.5625 C18.93708984 1.60568359 19.68667969 1.64886719 20.45898438 1.69335938 C22.30578375 1.79922685 24.15286834 1.9000976 26 2 C26.33 1.34 26.66 0.68 27 0 C28.59789351 4.95346987 27.28306814 9.13282415 26 14 C25.34 13.01 24.68 12.02 24 11 C24.33 10.01 24.66 9.02 25 8 C19.72 7.67 14.44 7.34 9 7 C9 6.67 9 6.34 9 6 C13.62 6 18.24 6 23 6 C23 5.34 23 4.68 23 4 C15.74 4 8.48 4 1 4 C0.67 6.31 0.34 8.62 0 11 C-0.33 11 -0.66 11 -1 11 C-0.67 7.37 -0.34 3.74 0 0 Z " fill="#373737" transform="translate(13,178)"/>
<path d="M0 0 C1.68117668 0.00033989 1.68117668 0.00033989 3.39631653 0.00068665 C4.59544174 0.0161705 5.79456696 0.03165436 7.0300293 0.04760742 C8.26593307 0.05185226 9.50183685 0.05609711 10.77519226 0.06047058 C14.04850887 0.07439838 17.32137712 0.1013164 20.59454346 0.13458252 C23.93953319 0.1653637 27.28454251 0.17873699 30.62963867 0.1940918 C37.18384986 0.22714974 43.73776229 0.27734153 50.29174805 0.34057617 C50.29174805 0.67057617 50.29174805 1.00057617 50.29174805 1.34057617 C49.22815063 1.3781604 49.22815063 1.3781604 48.14306641 1.41650391 C32.20606058 1.94331225 32.20606058 1.94331225 16.29174805 2.90307617 C7.96114026 3.51944484 -0.36086554 3.4266317 -8.70825195 3.34057617 C-8.70825195 4.00057617 -8.70825195 4.66057617 -8.70825195 5.34057617 C-6.06825195 5.67057617 -3.42825195 6.00057617 -0.70825195 6.34057617 C-0.70825195 6.67057617 -0.70825195 7.00057617 -0.70825195 7.34057617 C-3.34825195 7.34057617 -5.98825195 7.34057617 -8.70825195 7.34057617 C-9.36825195 6.02057617 -10.02825195 4.70057617 -10.70825195 3.34057617 C-6.97760905 0.76663735 -4.51771134 -0.03059398 0 0 Z " fill="#777777" transform="translate(36.708251953125,93.659423828125)"/>
<path d="M0 0 C11.22 0.33 22.44 0.66 34 1 C34.495 1.99 34.495 1.99 35 3 C27.81917746 4.12866889 20.75794868 4.11434249 13.5 4.0625 C11.69402344 4.05573242 11.69402344 4.05573242 9.8515625 4.04882812 C6.90098927 4.0371195 3.95052141 4.02071995 1 4 C0.67 2.68 0.34 1.36 0 0 Z " fill="#060606" transform="translate(32,90)"/>
<path d="M0 0 C4.95 0 9.9 0 15 0 C14.67 1.65 14.34 3.3 14 5 C8.87080814 7.10428384 4.4389165 7.21755666 -1 7 C-1.66 5.68 -2.32 4.36 -3 3 C-2.01 2.67 -1.02 2.34 0 2 C0 1.34 0 0.68 0 0 Z " fill="#4E4E4D" transform="translate(96,186)"/>
<path d="M0 0 C8.25 0 16.5 0 25 0 C23.68 0.33 22.36 0.66 21 1 C21 1.66 21 2.32 21 3 C19.02 3.33 17.04 3.66 15 4 C15 4.33 15 4.66 15 5 C10.38 5 5.76 5 1 5 C1 4.34 1 3.68 1 3 C0.34 3 -0.32 3 -1 3 C-0.67 2.01 -0.34 1.02 0 0 Z " fill="#171717" transform="translate(81,45)"/>
<path d="M0 0 C1.23556641 0.01740234 1.23556641 0.01740234 2.49609375 0.03515625 C3.32238281 0.04417969 4.14867187 0.05320313 5 0.0625 C5.63808594 0.07410156 6.27617187 0.08570313 6.93359375 0.09765625 C6.93359375 1.41765625 6.93359375 2.73765625 6.93359375 4.09765625 C-1.97640625 4.09765625 -10.88640625 4.09765625 -20.06640625 4.09765625 C-19.73640625 5.41765625 -19.40640625 6.73765625 -19.06640625 8.09765625 C-20.05640625 8.09765625 -21.04640625 8.09765625 -22.06640625 8.09765625 C-22.39640625 7.10765625 -22.72640625 6.11765625 -23.06640625 5.09765625 C-24.71640625 4.76765625 -26.36640625 4.43765625 -28.06640625 4.09765625 C-28.06640625 3.43765625 -28.06640625 2.77765625 -28.06640625 2.09765625 C-22.55067123 1.15125668 -17.27926811 1.00709123 -11.69140625 1.09765625 C-8.81072559 1.1430213 -5.94826274 1.14519203 -3.06640625 1.09765625 C-2.06640625 0.09765625 -2.06640625 0.09765625 0 0 Z " fill="#656565" transform="translate(177.06640625,130.90234375)"/>
<path d="M0 0 C0.91007812 0.00902344 1.82015625 0.01804688 2.7578125 0.02734375 C3.45648438 0.03894531 4.15515625 0.05054688 4.875 0.0625 C4.875 0.7225 4.875 1.3825 4.875 2.0625 C6.855 1.7325 8.835 1.4025 10.875 1.0625 C11.205 1.7225 11.535 2.3825 11.875 3.0625 C12.865 3.3925 13.855 3.7225 14.875 4.0625 C13.82625002 6.68437494 13.22568687 7.85621361 10.75 9.3125 C10.13125 9.56 9.5125 9.8075 8.875 10.0625 C8.215 9.0725 7.555 8.0825 6.875 7.0625 C7.535 6.0725 8.195 5.0825 8.875 4.0625 C7.885 4.0625 6.895 4.0625 5.875 4.0625 C5.875 4.7225 5.875 5.3825 5.875 6.0625 C5.215 6.0625 4.555 6.0625 3.875 6.0625 C3.875 5.4025 3.875 4.7425 3.875 4.0625 C0.245 3.7325 -3.385 3.4025 -7.125 3.0625 C-7.125 2.4025 -7.125 1.7425 -7.125 1.0625 C-4.60024538 -0.19987731 -2.81299534 -0.03606404 0 0 Z " fill="#040304" transform="translate(74.125,167.9375)"/>
<path d="M0 0 C0.99 0.33 1.98 0.66 3 1 C4.93222649 1.13824523 6.86834034 1.22494168 8.8046875 1.28125 C9.94550781 1.31863281 11.08632812 1.35601562 12.26171875 1.39453125 C13.45410156 1.42933594 14.64648438 1.46414062 15.875 1.5 C18.22667799 1.56909174 20.5782512 1.64187102 22.9296875 1.71875 C23.97366699 1.74904297 25.01764648 1.77933594 26.09326172 1.81054688 C28.81628388 1.98802589 31.34263602 2.39546958 34 3 C30.94067053 6.05932947 27.86584946 5.29376202 23.68359375 5.32226562 C22.59175781 5.31904297 21.49992187 5.31582031 20.375 5.3125 C18.77205078 5.33666992 18.77205078 5.33666992 17.13671875 5.36132812 C10.6978393 5.36528808 5.86413067 4.69068465 0 2 C0 1.34 0 0.68 0 0 Z " fill="#C9C9C8" transform="translate(78,40)"/>
<path d="M0 0 C1.25955231 3.77865693 0.48087189 5.03411786 -0.9375 8.6875 C-1.31777344 9.68136719 -1.69804688 10.67523438 -2.08984375 11.69921875 C-2.39019531 12.45847656 -2.69054687 13.21773437 -3 14 C-2.34 14.33 -1.68 14.66 -1 15 C-3.64 15 -6.28 15 -9 15 C-9.31100973 9.81650457 -8.99283581 6.33445186 -6 2 C-3.375 1.1875 -3.375 1.1875 -1 1 C-0.67 0.67 -0.34 0.34 0 0 Z " fill="#4D4D4D" transform="translate(120,72)"/>
<path d="M0 0 C0.66 0.99 1.32 1.98 2 3 C1.34 3.66 0.68 4.32 0 5 C-0.7734375 5.86625 -0.7734375 5.86625 -1.5625 6.75 C-5.46192514 8.7497052 -8.95056556 7.20271664 -13 6 C-12.34 4.68 -11.68 3.36 -11 2 C-10.01 2 -9.02 2 -8 2 C-8 1.34 -8 0.68 -8 0 C-5.06791253 -1.46604374 -3.11702298 -0.77925574 0 0 Z " fill="#0C0C0C" transform="translate(114,10)"/>
<path d="M0 0 C8.71700174 -0.14368684 17.31320899 0.28038418 26 1 C24 3 24 3 22.12060547 3.22705078 C21.37697754 3.21657715 20.63334961 3.20610352 19.8671875 3.1953125 C18.65869141 3.18564453 18.65869141 3.18564453 17.42578125 3.17578125 C16.58402344 3.15902344 15.74226563 3.14226562 14.875 3.125 C13.60076172 3.11146484 13.60076172 3.11146484 12.30078125 3.09765625 C10.20040116 3.07405647 8.10016556 3.03818483 6 3 C6 3.99 6 4.98 6 6 C6.66 6.33 7.32 6.66 8 7 C7.34 7.66 6.68 8.32 6 9 C6 8.34 6 7.68 6 7 C2.37 6.67 -1.26 6.34 -5 6 C-5 5.67 -5 5.34 -5 5 C-0.545 4.505 -0.545 4.505 4 4 C2.68 3.34 1.36 2.68 0 2 C0 1.34 0 0.68 0 0 Z " fill="#717071" transform="translate(52,171)"/>
<path d="M0 0 C0.33 0.66 0.66 1.32 1 2 C1.66 1.67 2.32 1.34 3 1 C5.45417616 1.06512892 7.86680017 1.19151579 10.3125 1.375 C11.37597656 1.44835571 11.37597656 1.44835571 12.4609375 1.52319336 C14.64115907 1.6755456 16.82059145 1.83645789 19 2 C20.30324219 2.09667969 21.60648438 2.19335938 22.94921875 2.29296875 C25.96672205 2.52202016 28.98357295 2.7572396 32 3 C32 5.97 32 8.94 32 12 C31.67 12 31.34 12 31 12 C31 10.02 31 8.04 31 6 C26.77107814 5.66351188 22.54182647 5.33136068 18.3125 5 C17.11431641 4.90460938 15.91613281 4.80921875 14.68164062 4.7109375 C13.52470703 4.62070313 12.36777344 4.53046875 11.17578125 4.4375 C10.11270752 4.35371094 9.04963379 4.26992187 7.9543457 4.18359375 C5.29235178 4.0181678 2.66602163 3.96551629 0 4 C-0.33 3.01 -0.66 2.02 -1 1 C-0.67 0.67 -0.34 0.34 0 0 Z " fill="#767675" transform="translate(23,129)"/>
<path d="M0 0 C4.0713486 0.44414712 7.86522867 0.96603324 11.84375 1.96875 C18.49617482 3.47695317 25.27142857 3.71666549 32.0625 4.125 C33.41866113 4.21159453 34.77478154 4.29882935 36.13085938 4.38671875 C39.42022898 4.5974257 42.70986427 4.80167997 46 5 C46 5.99 46 6.98 46 8 C45.505 7.505 45.505 7.505 45 7 C43.19485977 6.85416046 41.38443728 6.77268788 39.57421875 6.71875 C37.91422852 6.66267578 37.91422852 6.66267578 36.22070312 6.60546875 C35.05474609 6.57066406 33.88878906 6.53585938 32.6875 6.5 C30.39961754 6.43101862 28.11184515 6.35825658 25.82421875 6.28125 C24.80416748 6.25095703 23.78411621 6.22066406 22.7331543 6.18945312 C20.33867374 6.02347573 18.30399528 5.62296464 16 5 C13.43940887 4.97168383 10.89850933 5.06396581 8.33984375 5.16015625 C6 5 6 5 3 3 C3 2.34 3 1.68 3 1 C1.68 1.33 0.36 1.66 -1 2 C-0.67 1.34 -0.34 0.68 0 0 Z " fill="#989897" transform="translate(147,91)"/>
<path d="M0 0 C1.98 0 3.96 0 6 0 C5.01 0.66 4.02 1.32 3 2 C3.3609375 2.43828125 3.721875 2.8765625 4.09375 3.328125 C8.42326265 9.24512562 9.05554411 14.77785612 8 22 C7.34 22.66 6.68 23.32 6 24 C6 19.71 6 15.42 6 11 C4.68 10.34 3.36 9.68 2 9 C0 7 0 7 -0.125 3.375 C-0.08375 2.26125 -0.0425 1.1475 0 0 Z " fill="#40403F" transform="translate(161,173)"/>
<path d="M0 0 C3.51098025 4.01254885 5.76537994 8.20983041 8 13 C6.68 13 5.36 13 4 13 C3.67 14.65 3.34 16.3 3 18 C0.86675182 15.86675182 0.46761655 14.8992226 0 12 C0.33 11.67 0.66 11.34 1 11 C-0.32 10.67 -1.64 10.34 -3 10 C-3 9.34 -3 8.68 -3 8 C-1.68 8.33 -0.36 8.66 1 9 C0.67 6.03 0.34 3.06 0 0 Z " fill="#474647" transform="translate(88,6)"/>
<path d="M0 0 C0.33 0 0.66 0 1 0 C1.18175781 0.83402344 1.36351563 1.66804688 1.55078125 2.52734375 C3.03542983 9.17400126 4.71624032 15.58372281 7 22 C4.625 21.75 4.625 21.75 2 21 C-0.18348023 18.08869303 -0.2601369 15.55520426 0 12 C0.29749946 10.32656552 0.62127066 8.65694085 1 7 C-0.32 7 -1.64 7 -3 7 C-2.67 6.01 -2.34 5.02 -2 4 C-2 4.66 -2 5.32 -2 6 C-1.34 6 -0.68 6 0 6 C0 4.02 0 2.04 0 0 Z " fill="#434343" transform="translate(67,40)"/>
<path d="M0 0 C2.39763185 2.39763185 2.34280586 3.33273498 2.625 6.625 C2.69976562 7.44226563 2.77453125 8.25953125 2.8515625 9.1015625 C2.92503906 10.04128906 2.92503906 10.04128906 3 11 C0.37493198 11.02690844 -2.24986173 11.04679404 -4.875 11.0625 C-5.62136719 11.07087891 -6.36773437 11.07925781 -7.13671875 11.08789062 C-12.7734375 11.11328125 -12.7734375 11.11328125 -15 10 C-16.70363822 9.77377919 -18.41328701 9.59111527 -20.125 9.4375 C-21.03507812 9.35371094 -21.94515625 9.26992187 -22.8828125 9.18359375 C-23.93082031 9.09271484 -23.93082031 9.09271484 -25 9 C-25 8.67 -25 8.34 -25 8 C-16.16186956 6.39306719 -7.80587322 7.77668122 1 9 C0.67 6.03 0.34 3.06 0 0 Z " fill="#828281" transform="translate(138,119)"/>
<path d="M0 0 C3.39914975 1.13304992 4.05254451 2.12518475 6 5 C5.67 5.66 5.34 6.32 5 7 C3.68 7 2.36 7 1 7 C2.52708963 10.43595166 4.59927045 13.11912454 7 16 C3.7 16 0.4 16 -3 16 C-3 15.67 -3 15.34 -3 15 C-1.02 14.67 0.96 14.34 3 14 C1.02 11.69 -0.96 9.38 -3 7 C-2.67 6.34 -2.34 5.68 -2 5 C-1.34 5.33 -0.68 5.66 0 6 C0 4.02 0 2.04 0 0 Z " fill="#898988" transform="translate(74,74)"/>
<path d="M0 0 C0 0.66 0 1.32 0 2 C-3.29119935 2.1964031 -6.58296934 2.38060745 -9.875 2.5625 C-10.81214844 2.61857422 -11.74929687 2.67464844 -12.71484375 2.73242188 C-13.61074219 2.78076172 -14.50664062 2.82910156 -15.4296875 2.87890625 C-16.25710449 2.9260376 -17.08452148 2.97316895 -17.93701172 3.02172852 C-20 3 -20 3 -22 2 C-22 1.34 -22 0.68 -22 0 C-19.27119539 -0.19555932 -16.54228931 -0.38170447 -13.8125 -0.5625 C-13.04357422 -0.61857422 -12.27464844 -0.67464844 -11.48242188 -0.73242188 C-7.45938647 -0.99141557 -3.93927628 -1.06573607 0 0 Z " fill="#0A0A0A" transform="translate(36,182)"/>
<path d="M0 0 C0.66 0.33 1.32 0.66 2 1 C0.02 1.66 -1.96 2.32 -4 3 C-3.67 3.99 -3.34 4.98 -3 6 C-2.34 6.33 -1.68 6.66 -1 7 C-1 9.31 -1 11.62 -1 14 C-1.33 14 -1.66 14 -2 14 C-2.33 17.96 -2.66 21.92 -3 26 C-3.33 26 -3.66 26 -4 26 C-4.90483637 20.63510405 -5.12303662 15.49682543 -5.0625 10.0625 C-5.05798828 9.28326172 -5.05347656 8.50402344 -5.04882812 7.70117188 C-5.03716908 5.80074732 -5.01923877 3.90036294 -5 2 C-2.625 0.9375 -2.625 0.9375 0 0 Z " fill="#807F7F" transform="translate(6,170)"/>
<path d="M0 0 C0 0.66 0 1.32 0 2 C-6.08251096 3.70366626 -10.77104914 4.13253652 -17 3 C-16.67 2.01 -16.34 1.02 -16 0 C-13.89651926 -0.19504458 -11.79217415 -0.38078496 -9.6875 -0.5625 C-8.51574219 -0.66691406 -7.34398437 -0.77132812 -6.13671875 -0.87890625 C-3 -1 -3 -1 0 0 Z " fill="#0C0C0C" transform="translate(177,115)"/>
<path d="M0 0 C0 0.33 0 0.66 0 1 C-4.33405956 2.11495149 -8.23710357 1.97954364 -12.6875 1.6875 C-13.36361328 1.65205078 -14.03972656 1.61660156 -14.73632812 1.58007812 C-19.75446429 1.24553571 -19.75446429 1.24553571 -22 -1 C-14.71883639 -3.42705454 -7.23484638 -1.66045655 0 0 Z " fill="#181818" transform="translate(56,100)"/>
<path d="M0 0 C1.07765625 0.10183594 2.1553125 0.20367187 3.265625 0.30859375 C4.08546875 0.39238281 4.9053125 0.47617188 5.75 0.5625 C5.75 1.2225 5.75 1.8825 5.75 2.5625 C3.8352312 2.92678777 1.91807707 3.27855306 0 3.625 C-1.06734375 3.82222656 -2.1346875 4.01945313 -3.234375 4.22265625 C-5.99771905 4.53406937 -7.65946617 4.4616416 -10.25 3.5625 C-10.25 2.5725 -10.25 1.5825 -10.25 0.5625 C-6.70049966 -0.60056443 -3.69176052 -0.36115049 0 0 Z " fill="#151515" transform="translate(68.25,173.4375)"/>
<path d="M0 0 C0.33 0.66 0.66 1.32 1 2 C2.88764903 2.68472665 2.88764903 2.68472665 5.0625 3.125 C5.79597656 3.29257812 6.52945313 3.46015625 7.28515625 3.6328125 C7.85105469 3.75398438 8.41695312 3.87515625 9 4 C9 4.33 9 4.66 9 5 C8.195625 5.12375 7.39125 5.2475 6.5625 5.375 C5.2940625 5.684375 5.2940625 5.684375 4 6 C3.67 6.66 3.34 7.32 3 8 C3.66 8.33 4.32 8.66 5 9 C0.43545749 8.45660208 -2.9728176 7.20536179 -7 5 C-4 4 -4 4 -1 5 C-0.67 3.35 -0.34 1.7 0 0 Z " fill="#545454" transform="translate(77,40)"/>
<path d="M0 0 C6.625 -0.125 6.625 -0.125 10 1 C11.39439664 1.06665376 12.79169875 1.08538199 14.1875 1.0625 C15.445625 1.041875 16.70375 1.02125 18 1 C17.67 1.66 17.34 2.32 17 3 C14.28553021 3.31241455 11.66090639 3.51336592 8.9375 3.625 C8.17888672 3.66367188 7.42027344 3.70234375 6.63867188 3.7421875 C4.75952805 3.83673562 2.87979664 3.91946756 1 4 C0.67 6.31 0.34 8.62 0 11 C-0.33 11 -0.66 11 -1 11 C-0.67 7.37 -0.34 3.74 0 0 Z " fill="#BCBCBB" transform="translate(13,178)"/>
<path d="M0 0 C2 0.3125 2 0.3125 4 1 C4.33 1.66 4.66 2.32 5 3 C3.68 3.33 2.36 3.66 1 4 C1 5.65 1 7.3 1 9 C0.2575 9.12375 -0.485 9.2475 -1.25 9.375 C-3.80141485 9.95486701 -5.7267573 10.73708739 -8 12 C-8 11.34 -8 10.68 -8 10 C-6.66666667 8.66666667 -5.33333333 7.33333333 -4 6 C-2.96642853 4.35394174 -1.95939668 2.69036558 -1 1 C-0.67 0.67 -0.34 0.34 0 0 Z " fill="#787877" transform="translate(115,22)"/>
<path d="M0 0 C4.62 0 9.24 0 14 0 C13.01 0.495 13.01 0.495 12 1 C12 1.66 12 2.32 12 3 C6.06 3.495 6.06 3.495 0 4 C0 2.68 0 1.36 0 0 Z " fill="#272727" transform="translate(72,186)"/>
<path d="M0 0 C0 0.66 0 1.32 0 2 C-2.64 2 -5.28 2 -8 2 C-8 1.34 -8 0.68 -8 0 C-11.3 -0.33 -14.6 -0.66 -18 -1 C-18 -1.33 -18 -1.66 -18 -2 C-11.50739893 -3.02514754 -5.73778841 -3.82519227 0 0 Z " fill="#4D4D4D" transform="translate(146,93)"/>
<path d="M0 0 C0.268125 0.556875 0.53625 1.11375 0.8125 1.6875 C1.97086497 4.07876612 1.97086497 4.07876612 3.6875 6.375 C5.34204971 9.68409942 4.89968746 11.48303994 4 15 C3.01 14.01 2.02 13.02 1 12 C0.01 12.66 -0.98 13.32 -2 14 C-1.125 9.25 -1.125 9.25 0 7 C0.04022391 4.6670134 0.04320247 2.33293334 0 0 Z " fill="#535353" transform="translate(128,36)"/>
<path d="M0 0 C0 0.33 0 0.66 0 1 C-1.98 1 -3.96 1 -6 1 C-6 1.66 -6 2.32 -6 3 C-5.34 3.33 -4.68 3.66 -4 4 C-8.29 4 -12.58 4 -17 4 C-16.67 3.01 -16.34 2.02 -16 1 C-10.61509359 0.08342019 -5.45769811 -0.11138159 0 0 Z " fill="#141414" transform="translate(167,109)"/>
<path d="M0 0 C0 0.66 0 1.32 0 2 C-2.31 2.33 -4.62 2.66 -7 3 C-7 3.66 -7 4.32 -7 5 C-11.95 4.67 -16.9 4.34 -22 4 C-21.67 3.34 -21.34 2.68 -21 2 C-19.19402344 1.90912109 -19.19402344 1.90912109 -17.3515625 1.81640625 C-15.77602923 1.73200268 -14.20050904 1.64735459 -12.625 1.5625 C-11.8309375 1.52318359 -11.036875 1.48386719 -10.21875 1.44335938 C-6.68012647 1.2484352 -3.35189233 0 0 0 Z " fill="#757474" transform="translate(38,168)"/>
<path d="M0 0 C1.2375 0.185625 2.475 0.37125 3.75 0.5625 C9.56653211 1.23042713 15.20254269 0.63762221 21 0 C21.33 0.99 21.66 1.98 22 3 C15.07 3 8.14 3 1 3 C0.67 2.01 0.34 1.02 0 0 Z " fill="#868585" transform="translate(143,167)"/>
<path d="M0 0 C2.83374881 3.20336822 3.5205537 5.78087253 4 10 C3.34 9.34 2.68 8.68 2 8 C-0.60280568 8.32041397 -0.60280568 8.32041397 -3 9 C-3 8.34 -3 7.68 -3 7 C-1.68 7 -0.36 7 1 7 C0.67 6.34 0.34 5.68 0 5 C-2.64 5 -5.28 5 -8 5 C-7.67 4.34 -7.34 3.68 -7 3 C-4.67843403 2.59270772 -2.3431213 2.25561323 0 2 C0 1.34 0 0.68 0 0 Z " fill="#888888" transform="translate(77,22)"/>
<path d="M0 0 C-0.33 0.99 -0.66 1.98 -1 3 C-0.67 3.33 -0.34 3.66 0 4 C-0.99 4.495 -0.99 4.495 -2 5 C-2.65555119 7.52733235 -2.65555119 7.52733235 -3 10 C-2.01 10.33 -1.02 10.66 0 11 C-1.98 11.99 -1.98 11.99 -4 13 C-5.80230168 9.17010894 -6.19622241 6.21878192 -6 2 C-2.25 0 -2.25 0 0 0 Z " fill="#1A1A1A" transform="translate(87,9)"/>
<path d="M0 0 C0.66 0 1.32 0 2 0 C2 0.66 2 1.32 2 2 C3.65 1.67 5.3 1.34 7 1 C7 1.66 7 2.32 7 3 C-0.35342179 3.20177072 -6.94887561 3.21211746 -14 1 C-14 0.67 -14 0.34 -14 0 C-8.96263052 -1.13340813 -5.03781894 -0.75567284 0 0 Z " fill="#969595" transform="translate(62,166)"/>
<path d="M0 0 C0.99 0.33 1.98 0.66 3 1 C5.22574335 1.22451458 7.45581519 1.40782878 9.6875 1.5625 C10.86699219 1.64628906 12.04648438 1.73007812 13.26171875 1.81640625 C14.61716797 1.90728516 14.61716797 1.90728516 16 2 C16 2.99 16 3.98 16 5 C9.79029227 5.33266291 5.71735105 4.45029331 0 2 C0 1.34 0 0.68 0 0 Z " fill="#C2C1C1" transform="translate(78,40)"/>
<path d="M0 0 C1.23556641 0.01740234 1.23556641 0.01740234 2.49609375 0.03515625 C3.32238281 0.04417969 4.14867187 0.05320313 5 0.0625 C5.63808594 0.07410156 6.27617187 0.08570313 6.93359375 0.09765625 C6.93359375 1.41765625 6.93359375 2.73765625 6.93359375 4.09765625 C0.33359375 3.76765625 -6.26640625 3.43765625 -13.06640625 3.09765625 C-13.06640625 2.76765625 -13.06640625 2.43765625 -13.06640625 2.09765625 C-12.35613281 2.03707031 -11.64585937 1.97648438 -10.9140625 1.9140625 C-9.53541016 1.78837891 -9.53541016 1.78837891 -8.12890625 1.66015625 C-7.21238281 1.57894531 -6.29585937 1.49773437 -5.3515625 1.4140625 C-2.82741659 1.06456537 -2.48526307 0.117451 0 0 Z " fill="#939392" transform="translate(177.06640625,130.90234375)"/>
<path d="M0 0 C0.33 0.66 0.66 1.32 1 2 C1.81984375 1.97679687 2.6396875 1.95359375 3.484375 1.9296875 C5.10085937 1.90261719 5.10085937 1.90261719 6.75 1.875 C8.35101563 1.84019531 8.35101563 1.84019531 9.984375 1.8046875 C12.92470106 1.99512313 14.52361878 2.47329896 17 4 C16.01 4.495 16.01 4.495 15 5 C14.34786708 7.02463255 14.34786708 7.02463255 14 9 C13.34 8.67 12.68 8.34 12 8 C12.33 6.68 12.66 5.36 13 4 C8.38 4 3.76 4 -1 4 C-0.67 2.68 -0.34 1.36 0 0 Z " fill="#989897" transform="translate(170,165)"/>
<path d="M0 0 C0.33 0 0.66 0 1 0 C1.04241723 2.33294775 1.04092937 4.66702567 1 7 C0.67 7.33 0.34 7.66 0 8 C-0.07179964 9.51928038 -0.08392007 11.04167482 -0.0625 12.5625 C-0.05347656 13.38878906 -0.04445312 14.21507812 -0.03515625 15.06640625 C-0.02355469 15.70449219 -0.01195312 16.34257813 0 17 C-1.62737868 14.09064546 -2.34972896 11.68626361 -2.6875 8.375 C-2.77386719 7.59898438 -2.86023437 6.82296875 -2.94921875 6.0234375 C-3 4 -3 4 -2 2 C-1.34 2 -0.68 2 0 2 C0 1.34 0 0.68 0 0 Z " fill="#696868" transform="translate(60,35)"/>
<path d="M0 0 C1.921875 1.3515625 1.921875 1.3515625 2.53125 3.515625 C2.57765625 4.32773438 2.6240625 5.13984375 2.671875 5.9765625 C2.72859375 6.79382813 2.7853125 7.61109375 2.84375 8.453125 C2.86953125 9.07960937 2.8953125 9.70609375 2.921875 10.3515625 C1.601875 10.0215625 0.281875 9.6915625 -1.078125 9.3515625 C-1.078125 6.7115625 -1.078125 4.0715625 -1.078125 1.3515625 C-2.068125 1.0215625 -3.058125 0.6915625 -4.078125 0.3515625 C-2.078125 -0.6484375 -2.078125 -0.6484375 0 0 Z " fill="#0A0A0A" transform="translate(165.078125,182.6484375)"/>
<path d="M0 0 C2.625 0.375 2.625 0.375 5 1 C5 2.65 5 4.3 5 6 C3.35 5.67 1.7 5.34 0 5 C0 5.66 0 6.32 0 7 C-0.66 7 -1.32 7 -2 7 C-2.125 4.625 -2.125 4.625 -2 2 C-1.34 1.34 -0.68 0.68 0 0 Z " fill="#636363" transform="translate(11,164)"/>
<path d="M0 0 C4.29 0 8.58 0 13 0 C13 2.97 13 5.94 13 9 C12.67 9 12.34 9 12 9 C12 7.02 12 5.04 12 3 C11.30132812 2.95101562 10.60265625 2.90203125 9.8828125 2.8515625 C8.97273438 2.77679688 8.06265625 2.70203125 7.125 2.625 C6.22007813 2.55539063 5.31515625 2.48578125 4.3828125 2.4140625 C2 2 2 2 0 0 Z " fill="#595958" transform="translate(42,132)"/>
<path d="M0 0 C0.90105469 0.00902344 1.80210938 0.01804687 2.73046875 0.02734375 C3.41753906 0.03894531 4.10460938 0.05054687 4.8125 0.0625 C1.98870539 3.17956705 0.04148513 3.71727672 -4.1875 4.0625 C-6.5625 3.625 -6.5625 3.625 -8.1875 3.0625 C-8.1875 2.4025 -8.1875 1.7425 -8.1875 1.0625 C-5.17259443 0.05753148 -3.14568308 -0.04085303 0 0 Z " fill="#0C0C0D" transform="translate(36.1875,95.9375)"/>
<path d="M0 0 C0.66 0.33 1.32 0.66 2 1 C1.2575 1.9075 0.515 2.815 -0.25 3.75 C-3.79812851 8.65268469 -5.31032649 14.25133426 -7 20 C-8.79341438 15.83326479 -7.01173384 12.25336659 -5.5625 8.25 C-5.19801758 7.20392578 -5.19801758 7.20392578 -4.82617188 6.13671875 C-4.22689752 4.42114902 -3.61470115 2.71010285 -3 1 C-2.01 1.33 -1.02 1.66 0 2 C0 1.34 0 0.68 0 0 Z " fill="#7E7D7D" transform="translate(129,51)"/>
<path d="M0 0 C1.58294782 -0.05437607 3.16644256 -0.09296271 4.75 -0.125 C5.63171875 -0.14820313 6.5134375 -0.17140625 7.421875 -0.1953125 C10.1135858 0.00860498 11.69904974 0.63448279 14 2 C11.02148438 2.34179688 11.02148438 2.34179688 8.04296875 2.68359375 C5.80603607 2.97170735 5.80603607 2.97170735 3 4 C2.01 3.67 1.02 3.34 0 3 C0 2.01 0 1.02 0 0 Z " fill="#393939" transform="translate(38,166)"/>
<path d="M0 0 C0.99 0 1.98 0 3 0 C3.05416188 1.60379341 3.09286638 3.20811406 3.125 4.8125 C3.14820313 5.70582031 3.17140625 6.59914062 3.1953125 7.51953125 C3 10 3 10 1 13 C0.34 13 -0.32 13 -1 13 C-0.835 12.401875 -0.67 11.80375 -0.5 11.1875 C0.1114124 8.88655664 0.1114124 8.88655664 0 6 C0 4 0 2 0 0 Z " fill="#6A6A69" transform="translate(161,184)"/>
<path d="M0 0 C1.08976144 3.26928433 0.84553434 3.85111347 0 7 C-0.06548492 8.58211573 -0.08578381 10.16670081 -0.0625 11.75 C-0.05347656 12.54921875 -0.04445313 13.3484375 -0.03515625 14.171875 C-0.02355469 14.77515625 -0.01195313 15.3784375 0 16 C-1.58620589 13.13438524 -2.40029731 10.68565716 -2.8125 7.4375 C-2.92207031 6.67308594 -3.03164062 5.90867187 -3.14453125 5.12109375 C-3 3 -3 3 -1.51171875 1.22265625 C-1.01285156 0.81917969 -0.51398438 0.41570313 0 0 Z " fill="#6C6B6B" transform="translate(77,6)"/>
<path d="M0 0 C0.66 0 1.32 0 2 0 C2 2.64 2 5.28 2 8 C1.34 8 0.68 8 0 8 C-0.12375 8.969375 -0.2475 9.93875 -0.375 10.9375 C-0.58125 11.948125 -0.7875 12.95875 -1 14 C-1.99 14.495 -1.99 14.495 -3 15 C-2.01 10.05 -1.02 5.1 0 0 Z " fill="#6D6C6C" transform="translate(118,43)"/>
<path d="M0 0 C2.31 0.33 4.62 0.66 7 1 C5.68 1.33 4.36 1.66 3 2 C2.67 3.32 2.34 4.64 2 6 C0.68 5.67 -0.64 5.34 -2 5 C-2 4.01 -2 3.02 -2 2 C-1.34 2 -0.68 2 0 2 C0 1.34 0 0.68 0 0 Z " fill="#111111" transform="translate(96,186)"/>
<path d="M0 0 C0 2.97 0 5.94 0 9 C-0.66 8.01 -1.32 7.02 -2 6 C-3.65 6.33 -5.3 6.66 -7 7 C-6.67 6.01 -6.34 5.02 -6 4 C-5.34 4 -4.68 4 -4 4 C-3.67 3.01 -3.34 2.02 -3 1 C-1 0 -1 0 0 0 Z " fill="#3D3D3E" transform="translate(116,13)"/>
<path d="M0 0 C0.268125 0.61875 0.53625 1.2375 0.8125 1.875 C1.95556848 4.2995233 1.95556848 4.2995233 5 6 C4.34 7.32 3.68 8.64 3 10 C1 9 1 9 -1 7 C-0.625 3.375 -0.625 3.375 0 0 Z " fill="#706F6F" transform="translate(105,79)"/>
<path d="M0 0 C1.65 0 3.3 0 5 0 C5.5625 1.9375 5.5625 1.9375 6 4 C5 5 5 5 1.9375 5.0625 C0.4834375 5.0315625 0.4834375 5.0315625 -1 5 C-0.67 3.35 -0.34 1.7 0 0 Z " fill="#393939" transform="translate(110,44)"/>
<path d="M0 0 C5.28 0 10.56 0 16 0 C14.68 0.33 13.36 0.66 12 1 C12 1.66 12 2.32 12 3 C10.35 3 8.7 3 7 3 C7 2.34 7 1.68 7 1 C4.69 1 2.38 1 0 1 C0 0.67 0 0.34 0 0 Z " fill="#212121" transform="translate(90,45)"/>
<path d="M0 0 C0.33 0.66 0.66 1.32 1 2 C1.66 2.33 2.32 2.66 3 3 C3 4.32 3 5.64 3 7 C1.35 7 -0.3 7 -2 7 C-2 5.35 -2 3.7 -2 2 C-1.34 2 -0.68 2 0 2 C0 1.34 0 0.68 0 0 Z " fill="#494949" transform="translate(3,194)"/>
<path d="M0 0 C0.763125 0.0825 1.52625 0.165 2.3125 0.25 C2.9725 1.57 3.6325 2.89 4.3125 4.25 C2.9925 3.92 1.6725 3.59 0.3125 3.25 C0.3125 3.58 0.3125 3.91 0.3125 4.25 C-1.6675 4.25 -3.6475 4.25 -5.6875 4.25 C-3.34903846 0.31153846 -3.34903846 0.31153846 0 0 Z " fill="#6F6E6E" transform="translate(83.6875,1.75)"/>
<path d="M0 0 C1.65 0.33 3.3 0.66 5 1 C5 1.66 5 2.32 5 3 C5.99 3.33 6.98 3.66 8 4 C5.69 4.66 3.38 5.32 1 6 C0.34 5.34 -0.32 4.68 -1 4 C-0.01 3.67 0.98 3.34 2 3 C1.34 2.01 0.68 1.02 0 0 Z " fill="#494949" transform="translate(100,173)"/>
<path d="M0 0 C5.61 0.33 11.22 0.66 17 1 C17 1.33 17 1.66 17 2 C14.54203147 2.19436491 12.08390706 2.3807742 9.625 2.5625 C8.92632812 2.61857422 8.22765625 2.67464844 7.5078125 2.73242188 C2.2265625 3.11328125 2.2265625 3.11328125 0 2 C0 1.34 0 0.68 0 0 Z " fill="#6C6B6B" transform="translate(60,133)"/>
<path d="M0 0 C0 0.66 0 1.32 0 2 C-0.99 2.33 -1.98 2.66 -3 3 C-3 3.99 -3 4.98 -3 6 C-3.33 6.66 -3.66 7.32 -4 8 C-4.99 7.67 -5.98 7.34 -7 7 C-7.99 7 -8.98 7 -10 7 C-8.71372289 5.82739389 -7.42080217 4.6620717 -6.125 3.5 C-5.04605469 2.52546875 -5.04605469 2.52546875 -3.9453125 1.53125 C-2 0 -2 0 0 0 Z " fill="#5D5C5C" transform="translate(106,10)"/>
<path d="M0 0 C1.98 0 3.96 0 6 0 C5.01 0.66 4.02 1.32 3 2 C3.66 3.32 4.32 4.64 5 6 C4.01 6.33 3.02 6.66 2 7 C0 4 0 4 0 0 Z " fill="#515151" transform="translate(161,173)"/>
<path d="M0 0 C2.31 0.33 4.62 0.66 7 1 C7.33 1.99 7.66 2.98 8 4 C5.03 3.67 2.06 3.34 -1 3 C-0.67 2.01 -0.34 1.02 0 0 Z " fill="#0D0D0D" transform="translate(111,134)"/>
<path d="M0 0 C0.66 0 1.32 0 2 0 C2.66 3.96 3.32 7.92 4 12 C1 10 1 10 0 7 C-0.03954234 4.66700175 -0.04401732 2.33291811 0 0 Z " fill="#5F5F5F" transform="translate(13,117)"/>
<path d="M0 0 C0 1.98 0 3.96 0 6 C-0.99 6.33 -1.98 6.66 -3 7 C-3 6.34 -3 5.68 -3 5 C-2.34 5 -1.68 5 -1 5 C-1.33 3.68 -1.66 2.36 -2 1 C-4.64 1 -7.28 1 -10 1 C-10 0.67 -10 0.34 -10 0 C-6.33694766 -0.74926071 -3.57644848 -1.2380014 0 0 Z " fill="#9E9E9D" transform="translate(183,107)"/>
<path d="M0 0 C2.64 0.33 5.28 0.66 8 1 C8.33 1.99 8.66 2.98 9 4 C8.01 4.33 7.02 4.66 6 5 C5.01 4.34 4.02 3.68 3 3 C3 2.34 3 1.68 3 1 C1.68 1.33 0.36 1.66 -1 2 C-0.67 1.34 -0.34 0.68 0 0 Z " fill="#616060" transform="translate(147,91)"/>
<path d="M0 0 C0 0.66 0 1.32 0 2 C-2.97 2 -5.94 2 -9 2 C-9 1.34 -9 0.68 -9 0 C-5.62182575 -0.84454356 -3.32534757 -1.10844919 0 0 Z " fill="#0C0C0C" transform="translate(33,187)"/>
<path d="M0 0 C2.35171131 0.59861742 4.6859378 1.26924352 7 2 C7.33 2.66 7.66 3.32 8 4 C7.67 4.66 7.34 5.32 7 6 C6.34 6 5.68 6 5 6 C5 5.01 5 4.02 5 3 C3.35 2.67 1.7 2.34 0 2 C0 1.34 0 0.68 0 0 Z " fill="#9B9B9A" transform="translate(62,159)"/>
<path d="M0 0 C0.33 0.66 0.66 1.32 1 2 C1.66 1.67 2.32 1.34 3 1 C5.3329866 0.95977609 7.66706666 0.95679753 10 1 C10 1.33 10 1.66 10 2 C8.35 2 6.7 2 5 2 C5 2.66 5 3.32 5 4 C3.35 4 1.7 4 0 4 C-0.33 3.01 -0.66 2.02 -1 1 C-0.67 0.67 -0.34 0.34 0 0 Z " fill="#5A5A5A" transform="translate(23,129)"/>
<path d="M0 0 C1.98 0 3.96 0 6 0 C6 0.99 6 1.98 6 3 C3.69 3 1.38 3 -1 3 C-0.67 2.01 -0.34 1.02 0 0 Z " fill="#212121" transform="translate(151,110)"/>
<path d="M0 0 C4.42857143 5.14285714 4.42857143 5.14285714 5 9 C3.68 8.67 2.36 8.34 1 8 C0.67 5.36 0.34 2.72 0 0 Z " fill="#727272" transform="translate(88,6)"/>
<path d="M0 0 C0.99 0.33 1.98 0.66 3 1 C2.67 1.33 2.34 1.66 2 2 C2.99 2.66 3.98 3.32 5 4 C2.69 4.33 0.38 4.66 -2 5 C-2.66 4.01 -3.32 3.02 -4 2 C-2.68 2 -1.36 2 0 2 C0 1.34 0 0.68 0 0 Z " fill="#636363" transform="translate(153,101)"/>
<path d="M0 0 C0 0.33 0 0.66 0 1 C-4.0527516 1.98248524 -7.83861737 2.08159574 -12 2 C-8.15820154 -2.0018734 -5.05897886 -0.92747946 0 0 Z " fill="#777777" transform="translate(56,100)"/>
<path d="M0 0 C-0.33 0.66 -0.66 1.32 -1 2 C-3.64 2 -6.28 2 -9 2 C-6.98558063 -2.02883874 -3.72407517 -0.90585612 0 0 Z " fill="#606060" transform="translate(78,25)"/>
<path d="M0 0 C0 0.66 0 1.32 0 2 C-2.64 2.33 -5.28 2.66 -8 3 C-8 2.01 -8 1.02 -8 0 C-4.94736336 -0.98120464 -3.05263664 -0.98120464 0 0 Z " fill="#0C0C0C" transform="translate(66,174)"/>
<path d="M0 0 C6.625 0.75 6.625 0.75 10 3 C10 3.66 10 4.32 10 5 C8.35 4.67 6.7 4.34 5 4 C5 3.34 5 2.68 5 2 C3.35 1.67 1.7 1.34 0 1 C0 0.67 0 0.34 0 0 Z " fill="#A3A2A2" transform="translate(136,90)"/>
<path d="M0 0 C-1 3 -1 3 -3.0625 4.1875 C-3.701875 4.455625 -4.34125 4.72375 -5 5 C-5 3.68 -5 2.36 -5 1 C-2 0 -2 0 0 0 Z " fill="#595959" transform="translate(87,9)"/>
<path d="M0 0 C1.11375 0.3403125 1.11375 0.3403125 2.25 0.6875 C2.25 1.3475 2.25 2.0075 2.25 2.6875 C-0.72 2.6875 -3.69 2.6875 -6.75 2.6875 C-4.29511132 0.41445492 -3.41240272 -0.38777304 0 0 Z " fill="#3D3D3D" transform="translate(142.75,136.3125)"/>
<path d="M0 0 C1.65 0 3.3 0 5 0 C4.67 2.31 4.34 4.62 4 7 C3.566875 6.0409375 3.566875 6.0409375 3.125 5.0625 C2.17176549 2.84793921 2.17176549 2.84793921 0 2 C0 1.34 0 0.68 0 0 Z " fill="#4B4B4A" transform="translate(18,95)"/>
<path d="M0 0 C0.66 0 1.32 0 2 0 C2 1.65 2 3.3 2 5 C0.68 5 -0.64 5 -2 5 C-1.125 1.125 -1.125 1.125 0 0 Z " fill="#131313" transform="translate(114,81)"/>
</svg>
