<?xml version="1.0" encoding="UTF-8"?>
<svg version="1.1" xmlns="http://www.w3.org/2000/svg" width="200" height="174">
<path d="M0 0 C2.8125 0.125 2.8125 0.125 6 1 C7.75 3.75 7.75 3.75 9 7 C9.33443115 7.77698242 9.6688623 8.55396484 10.01342773 9.35449219 C15.43782737 23.90009835 13.92961455 42.20371856 14.60180664 57.48535156 C14.26957098 81.51951061 14.26957098 81.51951061 21 104 C21.680625 104.495 22.36125 104.99 23.0625 105.5 C25 107 25 107 25.3125 109 C25.87414041 111.38420877 25.87414041 111.38420877 29.07739258 112.58422852 C32.87069552 114.11215924 36.35168564 114.48035887 40.44921875 114.65234375 C41.48776253 114.70079689 41.48776253 114.70079689 42.54728699 114.75022888 C44.69788043 114.84686648 46.84856878 114.92460327 49 115 C50.29244629 115.05430176 51.58489258 115.10860352 52.91650391 115.16455078 C56.88129479 115.32081107 60.84633528 115.44823323 64.8125 115.5625 C65.88792557 115.59476685 65.88792557 115.59476685 66.9850769 115.62768555 C79.08619015 115.98414141 91.17438675 116.04450182 103.27984619 115.99002075 C113.77837068 115.94562553 124.23291349 116.12871025 134.72167969 116.65112305 C139.14011029 116.86757399 143.52158774 117.03068109 147.9453125 116.92578125 C148.69208252 116.90902344 149.43885254 116.89226562 150.20825195 116.875 C152.1356094 116.81775397 154.06208386 116.7325509 155.98828125 116.64453125 C159 117 159 117 161.48046875 118.76171875 C163 121 163 121 162.80932617 123.03491211 C162 125 162 125 158.5703125 126.6796875 C153.7304401 128.26579202 148.93463747 128.75823659 143.875 129.125 C142.90449707 129.20210205 141.93399414 129.2792041 140.93408203 129.35864258 C132.25735162 130.00128795 123.56874833 130.37366247 114.875 130.6875 C113.57675293 130.73600098 112.27850586 130.78450195 110.94091797 130.83447266 C109.11004639 130.89127197 109.11004639 130.89127197 107.2421875 130.94921875 C106.1579248 130.98362061 105.07366211 131.01802246 103.95654297 131.0534668 C101.16570432 131.00299663 98.70881669 130.64601611 96 130 C95.11870073 133.59840403 94.99635055 136.4002797 95.55859375 140.0546875 C95.76645508 141.47201172 95.76645508 141.47201172 95.97851562 142.91796875 C96.12998047 143.89378906 96.28144531 144.86960938 96.4375 145.875 C98.32200285 158.23536366 98.32200285 158.23536366 98 164 C97 165 97 165 93.9375 165.0625 C92.968125 165.041875 91.99875 165.02125 91 165 C90.505 162.525 90.505 162.525 90 160 C89.01 162.97 89.01 162.97 88 166 C86.02 165.67 84.04 165.34 82 165 C82.45925342 157.84737232 82.9226375 150.70153729 83.5625 143.5625 C83.95613044 139.01729852 84.08770004 134.5604021 84 130 C82.2365625 130.0309375 82.2365625 130.0309375 80.4375 130.0625 C64.67944876 130.03787804 45.96331631 129.31032519 31 124 C30.34 123.01 29.68 122.02 29 121 C27.40732978 120.32226799 25.81182601 119.65046768 24.203125 119.01171875 C17.92169282 116.12716036 11.57837775 112.22170951 7 107 C7 106.34 7 105.68 7 105 C6.34 105 5.68 105 5 105 C2.36217721 98.7967684 1.30726923 93.19683885 0.75 86.5 C0.65976562 85.60152344 0.56953125 84.70304687 0.4765625 83.77734375 C-0.11315635 77.2428784 -0.15714588 71.26723542 2.0625 65 C3.2610592 61.16461056 3.06581429 58.01467144 3 54 C3.33 53.01 3.66 52.02 4 51 C4.03954234 48.66700175 4.04401732 46.33291811 4 44 C3.01 44.495 3.01 44.495 2 45 C-5.34989549 45.95254646 -12.78378298 46.11740843 -20.1875 46.1875 C-21.30137085 46.20695679 -21.30137085 46.20695679 -22.43774414 46.22680664 C-24.29336736 46.23003456 -26.14848389 46.12343441 -28 46 C-28.66 45.34 -29.32 44.68 -30 44 C-30 43.01 -30 42.02 -30 41 C-31.65 41 -33.3 41 -35 41 C-35.33 39.35 -35.66 37.7 -36 36 C-31.66437107 32.75108878 -27.86266307 32.6007911 -22.63671875 32.70703125 C-21.84473587 32.71127609 -21.05275299 32.71552094 -20.23677063 32.71989441 C-17.71999373 32.73661837 -15.20403276 32.77425775 -12.6875 32.8125 C-10.97592307 32.82755501 -9.26433351 32.84124199 -7.55273438 32.85351562 C-3.36817767 32.88650115 0.81577307 32.93823902 5 33 C4.87882812 32.41508789 4.75765625 31.83017578 4.6328125 31.22753906 C4.08447951 28.56917856 3.54218181 25.90962157 3 23.25 C2.80921875 22.32960938 2.6184375 21.40921875 2.421875 20.4609375 C2.24140625 19.57148438 2.0609375 18.68203125 1.875 17.765625 C1.62363281 16.54020996 1.62363281 16.54020996 1.3671875 15.29003906 C1 13 1 13 1 9 C0.34 9 -0.32 9 -1 9 C-0.67 6.03 -0.34 3.06 0 0 Z " fill="#202020" transform="translate(37,5)"/>
<path d="M0 0 C3.60331336 0.19734171 7.13842536 0.19526845 10.74291992 0.12792969 C19.60443047 -0.02983657 26.92858848 0.38284604 34.7890625 4.8984375 C38.88432472 9.49009514 40.10052154 15.20260979 40.8515625 21.2109375 C42.3365625 21.7059375 42.3365625 21.7059375 43.8515625 22.2109375 C43.779375 22.96375 43.7071875 23.7165625 43.6328125 24.4921875 C42.95969859 32.19560224 42.79026289 39.76237405 42.9140625 47.484375 C42.8515625 51.2109375 42.8515625 51.2109375 42.375 54.515625 C41.94827303 57.52819003 41.73369203 60.35156455 41.640625 63.3828125 C41.61226563 64.29417969 41.58390625 65.20554687 41.5546875 66.14453125 C41.50217658 68.03754979 41.45803819 69.93081736 41.421875 71.82421875 C41.3909375 72.73042969 41.36 73.63664062 41.328125 74.5703125 C41.30830566 75.38983398 41.28848633 76.20935547 41.26806641 77.05371094 C40.76671466 79.6503956 39.86238127 80.55606904 37.8515625 82.2109375 C36.16883264 81.58592355 34.50525607 80.90916367 32.8515625 80.2109375 C31.97371094 79.84613281 31.09585938 79.48132813 30.19140625 79.10546875 C27.8515625 77.2109375 27.8515625 77.2109375 27.3984375 73.9296875 C27.44331793 72.52252396 27.51306361 71.11603231 27.6015625 69.7109375 C27.65585928 68.10436182 27.70359148 66.49755596 27.74609375 64.890625 C27.7713916 63.99956055 27.79668945 63.10849609 27.82275391 62.19042969 C27.89026735 55.20793796 27.45065566 48.22477689 27.11816406 41.25195312 C27.0461377 39.58036133 27.0461377 39.58036133 26.97265625 37.875 C26.9255249 36.87936035 26.87839355 35.8837207 26.82983398 34.85791016 C26.84992091 32.41091683 27.19928848 30.54832941 27.8515625 28.2109375 C28.09943406 23.66662564 27.94833954 20.28800396 25.8515625 16.2109375 C22.17114759 12.53052259 16.723888 13.08051583 11.74609375 12.96484375 C10.59689453 12.93197266 9.44769531 12.89910156 8.26367188 12.86523438 C5.88354796 12.8045367 3.50333604 12.74718831 1.12304688 12.69335938 C-22.36016523 11.99920977 -22.36016523 11.99920977 -29.1484375 5.2109375 C-29.1484375 3.2109375 -29.1484375 3.2109375 -28.1484375 1.2109375 C-20.1311466 -3.12273326 -8.70706627 -0.71432694 0 0 Z " fill="#191818" transform="translate(89.1484375,34.7890625)"/>
<path d="M0 0 C19.68197058 -0.18375284 39.33037167 0.38578355 59 1 C59 1.66 59 2.32 59 3 C58.01 3.33 57.02 3.66 56 4 C57.43791516 3.85831863 58.8753237 3.71148957 60.3125 3.5625 C61.51326172 3.44068359 61.51326172 3.44068359 62.73828125 3.31640625 C65.16087179 3.04734307 65.16087179 3.04734307 68 2 C70.35188447 2.59793673 72.68925595 3.25881795 75 4 C75.12375 4.61875 75.2475 5.2375 75.375 5.875 C75.87197356 8.19120832 75.87197356 8.19120832 78 10 C74.45986775 12.36008817 72.98878045 12.23463644 68.80078125 12.1953125 C67.59228516 12.18886719 66.38378906 12.18242187 65.13867188 12.17578125 C63.2447168 12.15064453 63.2447168 12.15064453 61.3125 12.125 C60.03826172 12.11597656 58.76402344 12.10695312 57.45117188 12.09765625 C54.30059373 12.07405641 51.15039017 12.04113194 48 12 C48.11465421 14.22972273 48.24214766 16.45878753 48.375 18.6875 C48.47941406 20.54955078 48.47941406 20.54955078 48.5859375 22.44921875 C48.82582538 25.88484932 48.82582538 25.88484932 49.99609375 28.44140625 C51.38447266 31.97988168 51.5018396 35.49628425 51.6875 39.25 C51.75807617 40.34828125 51.75807617 40.34828125 51.83007812 41.46875 C51.93409919 43.31043451 51.97262852 45.15558328 52 47 C51 48 51 48 47.9375 48.0625 C46.968125 48.041875 45.99875 48.02125 45 48 C44.67 46.35 44.34 44.7 44 43 C43.34 44.98 42.68 46.96 42 49 C39.03 48.505 39.03 48.505 36 48 C36.45925342 40.84737232 36.9226375 33.70153729 37.5625 26.5625 C37.95613044 22.01729852 38.08770004 17.5604021 38 13 C37.443125 13.01160156 36.88625 13.02320313 36.3125 13.03515625 C31.10372458 13.0967465 26.14688693 12.82717826 21 12 C20.67 11.67 20.34 11.34 20 11 C17.30764224 10.76321284 14.63501844 10.57801975 11.9375 10.4375 C11.17888672 10.39431641 10.42027344 10.35113281 9.63867188 10.30664062 C7.75934562 10.20026367 5.87969756 10.09960066 4 10 C3.67 9.01 3.34 8.02 3 7 C4 6 4 6 5.84765625 5.90234375 C7.8984375 5.93489583 9.94921875 5.96744792 12 6 C12.33 5.34 12.66 4.68 13 4 C12.39671875 4.09539062 11.7934375 4.19078125 11.171875 4.2890625 C9.97304687 4.45535156 9.97304687 4.45535156 8.75 4.625 C7.96109375 4.74101563 7.1721875 4.85703125 6.359375 4.9765625 C3.67847541 5.00319395 2.27305911 4.36592084 0 3 C0 2.01 0 1.02 0 0 Z " fill="#141314" transform="translate(83,122)"/>
<path d="M0 0 C4.75 0.875 4.75 0.875 7 2 C9.3843567 2.22528917 11.7468486 2.39799597 14.13671875 2.52734375 C14.85163986 2.56866928 15.56656097 2.60999481 16.30314636 2.65257263 C23.80213385 3.07132235 31.30514655 3.34621018 38.8125 3.5625 C39.52945038 3.58401123 40.24640076 3.60552246 40.9850769 3.62768555 C53.08619015 3.98414141 65.17438675 4.04450182 77.27984619 3.99002075 C87.77837068 3.94562553 98.23291349 4.12871025 108.72167969 4.65112305 C113.14011029 4.86757399 117.52158774 5.03068109 121.9453125 4.92578125 C123.06546753 4.90064453 123.06546753 4.90064453 124.20825195 4.875 C126.1356094 4.81775397 128.06208386 4.7325509 129.98828125 4.64453125 C133 5 133 5 135.48046875 6.76171875 C137 9 137 9 136.80932617 11.03491211 C136 13 136 13 132.5703125 14.6796875 C127.7304401 16.26579202 122.93463747 16.75823659 117.875 17.125 C116.41924561 17.24065308 116.41924561 17.24065308 114.93408203 17.35864258 C106.25735162 18.00128795 97.56874833 18.37366247 88.875 18.6875 C87.57675293 18.73600098 86.27850586 18.78450195 84.94091797 18.83447266 C83.72033691 18.87233887 82.49975586 18.91020508 81.2421875 18.94921875 C80.1579248 18.98362061 79.07366211 19.01802246 77.95654297 19.0534668 C75.16570432 19.00299663 72.70881669 18.64601611 70 18 C68.70323188 22.61073111 69.28890861 26.33840089 70 31 C69.34 31 68.68 31 68 31 C67.80467039 29.2300132 67.61901118 27.45895721 67.4375 25.6875 C67.28087891 24.20830078 67.28087891 24.20830078 67.12109375 22.69921875 C67 20 67 20 68 17 C69.21115479 16.96241577 69.21115479 16.96241577 70.44677734 16.92407227 C74.08968917 16.80834513 77.73232726 16.68551365 81.375 16.5625 C82.64601563 16.52318359 83.91703125 16.48386719 85.2265625 16.44335938 C87.04414063 16.38051758 87.04414063 16.38051758 88.8984375 16.31640625 C90.57945557 16.26141968 90.57945557 16.26141968 92.29443359 16.20532227 C94.96712771 16.17403987 94.96712771 16.17403987 97 15 C96.01 14.01 96.01 14.01 95 13 C94.375 10.875 94.375 10.875 94 9 C90.00967159 8.39735687 90.00967159 8.39735687 86 8 C85.67 8.33 85.34 8.66 85 9 C83.48071962 9.07179964 81.95832518 9.08392007 80.4375 9.0625 C79.61121094 9.05347656 78.78492188 9.04445313 77.93359375 9.03515625 C77.29550781 9.02355469 76.65742188 9.01195313 76 9 C76.33 8.34 76.66 7.68 77 7 C77.99 7.495 77.99 7.495 79 8 C79 7.34 79 6.68 79 6 C77.85606781 6.00999275 77.85606781 6.00999275 76.68902588 6.02018738 C69.45244029 6.0806504 62.21597962 6.12615136 54.97920609 6.15543652 C51.25995229 6.17099914 47.54090966 6.19206198 43.82177734 6.22631836 C40.22316199 6.25925193 36.62474794 6.27692343 33.02599335 6.28463173 C31.00556287 6.29275785 28.98521179 6.31612094 26.96490479 6.33988953 C17.63516695 6.34156681 7.47438004 6.25488672 0 0 Z " fill="#5E5D5D" transform="translate(63,117)"/>
<path d="M0 0 C3.60353024 0.19735358 7.1389361 0.19512176 10.74365234 0.12817383 C25.67501888 -0.13928594 25.67501888 -0.13928594 31.8515625 3.2109375 C32.5115625 4.2009375 33.1715625 5.1909375 33.8515625 6.2109375 C32.8615625 6.2109375 31.8715625 6.2109375 30.8515625 6.2109375 C30.8515625 5.5509375 30.8515625 4.8909375 30.8515625 4.2109375 C30.1915625 4.5409375 29.5315625 4.8709375 28.8515625 5.2109375 C28.8515625 5.8709375 28.8515625 6.5309375 28.8515625 7.2109375 C28.1915625 7.2109375 27.5315625 7.2109375 26.8515625 7.2109375 C26.1915625 6.5509375 25.5315625 5.8909375 24.8515625 5.2109375 C24.8515625 5.8709375 24.8515625 6.5309375 24.8515625 7.2109375 C19.4065625 6.7159375 19.4065625 6.7159375 13.8515625 6.2109375 C13.5215625 6.8709375 13.1915625 7.5309375 12.8515625 8.2109375 C11.8821875 8.0253125 10.9128125 7.8396875 9.9140625 7.6484375 C5.46743044 6.99237703 1.27071267 7.55958884 -3.1484375 8.2109375 C-3.1484375 8.8709375 -3.1484375 9.5309375 -3.1484375 10.2109375 C-0.8384375 9.5509375 1.4715625 8.8909375 3.8515625 8.2109375 C3.8515625 8.8709375 3.8515625 9.5309375 3.8515625 10.2109375 C4.47200439 10.22552002 5.09244629 10.24010254 5.73168945 10.25512695 C8.54310883 10.32960338 11.35333999 10.42626314 14.1640625 10.5234375 C15.14052734 10.54599609 16.11699219 10.56855469 17.12304688 10.59179688 C18.06083984 10.62724609 18.99863281 10.66269531 19.96484375 10.69921875 C20.82891846 10.72540283 21.69299316 10.75158691 22.58325195 10.77856445 C25.25370237 11.28759122 26.16167433 12.13423658 27.8515625 14.2109375 C27.5215625 15.2009375 27.1915625 16.1909375 26.8515625 17.2109375 C26.4803125 16.7365625 26.1090625 16.2621875 25.7265625 15.7734375 C21.95100819 12.62714224 16.47837358 13.07481066 11.74609375 12.96484375 C10.59689453 12.93197266 9.44769531 12.89910156 8.26367188 12.86523438 C5.88354796 12.8045367 3.50333604 12.74718831 1.12304688 12.69335938 C-22.36016523 11.99920977 -22.36016523 11.99920977 -29.1484375 5.2109375 C-29.1484375 3.2109375 -29.1484375 3.2109375 -28.1484375 1.2109375 C-20.1311466 -3.12273326 -8.70706627 -0.71432694 0 0 Z " fill="#5A5959" transform="translate(89.1484375,34.7890625)"/>
<path d="M0 0 C0.99 0.33 1.98 0.66 3 1 C3 1.66 3 2.32 3 3 C3.66 3 4.32 3 5 3 C4.67 2.01 4.34 1.02 4 0 C4.99 0 5.98 0 7 0 C7 0.66 7 1.32 7 2 C8.98 2.33 10.96 2.66 13 3 C13.08099043 6.563579 12.8862416 9.56581379 12 13 C11.96213099 14.66623639 11.95372155 16.33397597 12 18 C11.34 18 10.68 18 10 18 C10.01160156 18.68707031 10.02320313 19.37414062 10.03515625 20.08203125 C10.04417969 20.98308594 10.05320313 21.88414063 10.0625 22.8125 C10.07410156 23.70582031 10.08570313 24.59914063 10.09765625 25.51953125 C10 28 10 28 9 31 C8.34 31 7.68 31 7 31 C6.29925156 27.846632 6 25.27275026 6 22 C5.55241281 15.87221064 5.55241281 15.87221064 4 10 C3.01 9.67 2.02 9.34 1 9 C1 8.34 1 7.68 1 7 C0.43490723 7.00523682 -0.13018555 7.01047363 -0.71240234 7.01586914 C-3.2665903 7.03662422 -5.82076053 7.0496554 -8.375 7.0625 C-9.70917969 7.07506836 -9.70917969 7.07506836 -11.0703125 7.08789062 C-12.34648438 7.09272461 -12.34648438 7.09272461 -13.6484375 7.09765625 C-14.82672119 7.10551147 -14.82672119 7.10551147 -16.02880859 7.11352539 C-18 7 -18 7 -20 6 C-20 5.34 -20 4.68 -20 4 C-20.66 4 -21.32 4 -22 4 C-22.33 4.66 -22.66 5.32 -23 6 C-24.32 6 -25.64 6 -27 6 C-27 5.34 -27 4.68 -27 4 C-25.27478537 3.60721909 -23.54453752 3.23650849 -21.8125 2.875 C-20.84957031 2.66617188 -19.88664062 2.45734375 -18.89453125 2.2421875 C-15.65447747 1.97108988 -13.88453715 2.57618825 -11 4 C-10.67 3.01 -10.34 2.02 -10 1 C-6.31733897 1.59950296 -2.65456815 2.24758891 1 3 C0.67 2.01 0.34 1.02 0 0 Z " fill="#0B0A0B" transform="translate(113,39)"/>
<path d="M0 0 C2.42130331 2.42130331 2.52840504 3.80111377 3.125 7.125 C3.29257813 8.03507812 3.46015625 8.94515625 3.6328125 9.8828125 C3.81457031 10.93082031 3.81457031 10.93082031 4 12 C4.99 12.33 5.98 12.66 7 13 C6.9278125 13.7528125 6.855625 14.505625 6.78125 15.28125 C6.10813609 22.98466474 5.93870039 30.55143655 6.0625 38.2734375 C6.00039337 41.97654505 5.60278809 45.3550158 5 49 C4.67 49 4.34 49 4 49 C3.97519938 44.67668037 3.95709242 40.35339894 3.94506836 36.0300293 C3.94005331 34.56062091 3.93323967 33.09121748 3.92456055 31.62182617 C3.91237072 29.50438205 3.90674331 27.38700417 3.90234375 25.26953125 C3.89448853 23.36071167 3.89448853 23.36071167 3.88647461 21.41333008 C3.98460394 18.4629081 4.30936165 15.86053325 5 13 C3.68 13 2.36 13 1 13 C-0.20205614 16.81577963 -0.22194982 20.64635989 -0.31640625 24.609375 C-0.33718735 25.33618469 -0.35796844 26.06299438 -0.37937927 26.81182861 C-0.44455512 29.12445991 -0.5036104 31.43720093 -0.5625 33.75 C-0.60571566 35.32162575 -0.64933092 36.89324056 -0.69335938 38.46484375 C-0.80020356 42.30978453 -0.90156024 46.15483524 -1 50 C-1.99 50.495 -1.99 50.495 -3 51 C-3.09087891 49.13794922 -3.09087891 49.13794922 -3.18359375 47.23828125 C-3.26803623 45.59634423 -3.35268236 43.95441768 -3.4375 42.3125 C-3.47681641 41.49587891 -3.51613281 40.67925781 -3.55664062 39.83789062 C-3.76898003 35.80344189 -4.04447922 31.94252691 -5 28 C-5 30.64 -5 33.28 -5 36 C-5.66 36 -6.32 36 -7 36 C-7.33 40.62 -7.66 45.24 -8 50 C-8.33 50 -8.66 50 -9 50 C-9.19688523 45.58369908 -9.38088923 41.16695334 -9.5625 36.75 C-9.61857422 35.49574219 -9.67464844 34.24148437 -9.73242188 32.94921875 C-9.78076172 31.74394531 -9.82910156 30.53867188 -9.87890625 29.296875 C-9.9260376 28.18666992 -9.97316895 27.07646484 -10.02172852 25.93261719 C-10.00266799 23.36008919 -9.70481825 21.44408457 -9 19 C-8.93311409 17.08438746 -8.91468281 15.16664408 -8.9375 13.25 C-8.94652344 12.26515625 -8.95554687 11.2803125 -8.96484375 10.265625 C-8.97644531 9.51796875 -8.98804687 8.7703125 -9 8 C-8.34 8.33 -7.68 8.66 -7 9 C-7 11.64 -7 14.28 -7 17 C-6.34 17.33 -5.68 17.66 -5 18 C-5.33 20.64 -5.66 23.28 -6 26 C-5.34 26 -4.68 26 -4 26 C-3.67 21.71 -3.34 17.42 -3 13 C-2.34 13 -1.68 13 -1 13 C-1.20625 11.783125 -1.4125 10.56625 -1.625 9.3125 C-2.09963844 5.65193227 -1.76581384 3.32388488 0 0 Z " fill="#686667" transform="translate(126,44)"/>
<path d="M0 0 C3.60353024 0.19735358 7.1389361 0.19512176 10.74365234 0.12817383 C25.67501888 -0.13928594 25.67501888 -0.13928594 31.8515625 3.2109375 C32.5115625 4.2009375 33.1715625 5.1909375 33.8515625 6.2109375 C32.8615625 6.2109375 31.8715625 6.2109375 30.8515625 6.2109375 C30.8515625 5.5509375 30.8515625 4.8909375 30.8515625 4.2109375 C30.1915625 4.5409375 29.5315625 4.8709375 28.8515625 5.2109375 C28.8515625 5.8709375 28.8515625 6.5309375 28.8515625 7.2109375 C28.1915625 7.2109375 27.5315625 7.2109375 26.8515625 7.2109375 C26.1915625 6.5509375 25.5315625 5.8909375 24.8515625 5.2109375 C24.8515625 5.8709375 24.8515625 6.5309375 24.8515625 7.2109375 C20.82163468 6.65781015 16.83133326 6.0551313 12.8515625 5.2109375 C12.8515625 4.5509375 12.8515625 3.8909375 12.8515625 3.2109375 C8.93491223 3.18140359 5.01829137 3.16396247 1.1015625 3.1484375 C-0.53619141 3.13586914 -0.53619141 3.13586914 -2.20703125 3.12304688 C-9.5731712 3.10125356 -16.81922525 3.4758616 -24.1484375 4.2109375 C-23.8184375 5.2009375 -23.4884375 6.1909375 -23.1484375 7.2109375 C-25.1284375 6.5509375 -27.1084375 5.8909375 -29.1484375 5.2109375 C-29.0234375 3.3359375 -29.0234375 3.3359375 -28.1484375 1.2109375 C-20.1311466 -3.12273326 -8.70706627 -0.71432694 0 0 Z " fill="#3A383B" transform="translate(89.1484375,34.7890625)"/>
<path d="M0 0 C2.42130331 2.42130331 2.52840504 3.80111377 3.125 7.125 C3.29257813 8.03507812 3.46015625 8.94515625 3.6328125 9.8828125 C3.81457031 10.93082031 3.81457031 10.93082031 4 12 C4.99 12.33 5.98 12.66 7 13 C6.9278125 13.7528125 6.855625 14.505625 6.78125 15.28125 C6.10813609 22.98466474 5.93870039 30.55143655 6.0625 38.2734375 C6.00039337 41.97654505 5.60278809 45.3550158 5 49 C4.67 49 4.34 49 4 49 C3.97519938 44.67668037 3.95709242 40.35339894 3.94506836 36.0300293 C3.94005331 34.56062091 3.93323967 33.09121748 3.92456055 31.62182617 C3.91237072 29.50438205 3.90674331 27.38700417 3.90234375 25.26953125 C3.89710693 23.99698486 3.89187012 22.72443848 3.88647461 21.41333008 C3.98460394 18.4629081 4.30936165 15.86053325 5 13 C3.68 13 2.36 13 1 13 C0.87625 13.5775 0.7525 14.155 0.625 14.75 C-0.00648824 17.02335767 -0.88858191 18.9253529 -2 21 C-2.33 21 -2.66 21 -3 21 C-3 18.36 -3 15.72 -3 13 C-2.34 13 -1.68 13 -1 13 C-1.20625 11.783125 -1.4125 10.56625 -1.625 9.3125 C-2.09963844 5.65193227 -1.76581384 3.32388488 0 0 Z " fill="#676667" transform="translate(126,44)"/>
<path d="M0 0 C0.99 1.485 0.99 1.485 2 3 C1.01 3 0.02 3 -1 3 C-1 2.34 -1 1.68 -1 1 C-1.99 1.495 -1.99 1.495 -3 2 C-3 2.66 -3 3.32 -3 4 C-3.66 4 -4.32 4 -5 4 C-5.66 3.34 -6.32 2.68 -7 2 C-7 2.66 -7 3.32 -7 4 C-11.02992782 3.44687265 -15.02022924 2.8441938 -19 2 C-19 1.34 -19 0.68 -19 0 C-21.97 0 -24.94 0 -28 0 C-28 -0.66 -28 -1.32 -28 -2 C-8.0276079 -3.94338634 -8.0276079 -3.94338634 0 0 Z " fill="#5D5A5D" transform="translate(121,38)"/>
<path d="M0 0 C7.42686315 -0.10331031 14.63512596 0.00137301 22 1 C22.33 1.99 22.66 2.98 23 4 C22.67 4.66 22.34 5.32 22 6 C21.01 5.814375 20.02 5.62875 19 5.4375 C16.13085596 5.01265717 13.67913692 5.07511385 10.8125 5.5 C7.62760448 5.91769122 5.92700138 6.09762552 3 5 C3 4.34 3 3.68 3 3 C2.01 2.67 1.02 2.34 0 2 C0 1.34 0 0.68 0 0 Z " fill="#1D1B1F" transform="translate(80,37)"/>
<path d="M0 0 C0.33 0 0.66 0 1 0 C1.06731323 1.61503418 1.06731323 1.61503418 1.13598633 3.26269531 C2.17055278 31.27191097 2.17055278 31.27191097 6 59 C4.5 57.6875 4.5 57.6875 3 56 C3 55.01 3 54.02 3 53 C1.68 52.34 0.36 51.68 -1 51 C-0.67 50.01 -0.34 49.02 0 48 C0.33 48.33 0.66 48.66 1 49 C1.33 48.34 1.66 47.68 2 47 C1.01 47 0.02 47 -1 47 C-0.67 46.34 -0.34 45.68 0 45 C0.08949417 43.54962893 0.1175844 42.09521371 0.11352539 40.64208984 C0.11344986 39.74130707 0.11337433 38.84052429 0.11329651 37.91244507 C0.10813522 36.93844757 0.10297394 35.96445007 0.09765625 34.9609375 C0.0962413 33.96494537 0.09482635 32.96895325 0.09336853 31.94277954 C0.08775936 28.75348947 0.0752053 25.56426894 0.0625 22.375 C0.05748618 20.21614685 0.05292307 18.05729259 0.04882812 15.8984375 C0.03778695 10.5989345 0.02103988 5.29947222 0 0 Z " fill="#797878" transform="translate(50,48)"/>
<path d="M0 0 C0.74362793 0.05236816 1.48725586 0.10473633 2.25341797 0.15869141 C3.05908203 0.21025391 3.86474609 0.26181641 4.69482422 0.31494141 C5.95746094 0.41162109 5.95746094 0.41162109 7.24560547 0.51025391 C8.09509766 0.56697266 8.94458984 0.62369141 9.81982422 0.68212891 C11.92073997 0.82376368 14.02077881 0.97829717 16.12060547 1.13525391 C16.12060547 1.46525391 16.12060547 1.79525391 16.12060547 2.13525391 C13.81060547 2.46525391 11.50060547 2.79525391 9.12060547 3.13525391 C9.45060547 3.79525391 9.78060547 4.45525391 10.12060547 5.13525391 C9.46060547 5.13525391 8.80060547 5.13525391 8.12060547 5.13525391 C7.96591797 6.09431641 7.96591797 6.09431641 7.80810547 7.07275391 C7.58123047 7.75337891 7.35435547 8.43400391 7.12060547 9.13525391 C6.13060547 9.46525391 5.14060547 9.79525391 4.12060547 10.13525391 C4.12060547 9.14525391 4.12060547 8.15525391 4.12060547 7.13525391 C1.48060547 6.80525391 -1.15939453 6.47525391 -3.87939453 6.13525391 C-3.87939453 0.2791874 -3.87939453 0.2791874 0 0 Z " fill="#111111" transform="translate(7.87939453125,38.86474609375)"/>
<path d="M0 0 C4.29 0 8.58 0 13 0 C13 0.66 13 1.32 13 2 C14.32 2 15.64 2 17 2 C17 2.66 17 3.32 17 4 C23.27 4.33 29.54 4.66 36 5 C35.67 5.66 35.34 6.32 35 7 C27.83475086 7.21600023 21.17618293 6.42731797 14.125 5.1875 C13.09375 5.02185547 12.0625 4.85621094 11 4.68554688 C10.01257813 4.51474609 9.02515625 4.34394531 8.0078125 4.16796875 C7.11723145 4.01610107 6.22665039 3.8642334 5.30908203 3.70776367 C3 3 3 3 0 0 Z " fill="#787777" transform="translate(67,127)"/>
<path d="M0 0 C0.91007812 0.00902344 1.82015625 0.01804688 2.7578125 0.02734375 C3.45648438 0.03894531 4.15515625 0.05054688 4.875 0.0625 C4.545 2.0425 4.215 4.0225 3.875 6.0625 C0.575 5.7325 -2.725 5.4025 -6.125 5.0625 C-6.455 3.7425 -6.785 2.4225 -7.125 1.0625 C-4.60024538 -0.19987731 -2.81299534 -0.03606404 0 0 Z " fill="#131214" transform="translate(72.125,37.9375)"/>
<path d="M0 0 C0.66 0.33 1.32 0.66 2 1 C3.55033393 5.80603519 3.0872355 11.00819059 3 16 C1.35 16.66 -0.3 17.32 -2 18 C-1.85831863 16.56208484 -1.71148957 15.1246763 -1.5625 13.6875 C-1.48128906 12.88699219 -1.40007812 12.08648437 -1.31640625 11.26171875 C-1 9 -1 9 0 6 C0.03920815 4.00038436 0.04443347 1.99950636 0 0 Z " fill="#0D0C0D" transform="translate(120,71)"/>
<path d="M0 0 C0 0.33 0 0.66 0 1 C-3.49944037 1.19907807 -6.9995493 1.38213327 -10.5 1.5625 C-11.97339844 1.64661133 -11.97339844 1.64661133 -13.4765625 1.73242188 C-19.14686761 2.01593713 -24.39194484 1.90129458 -30 1 C-30.33 2.65 -30.66 4.3 -31 6 C-31.66 5.67 -32.32 5.34 -33 5 C-32.875 3.125 -32.875 3.125 -32 1 C-23.1305248 -3.79431092 -9.59835125 -0.79512969 0 0 Z " fill="#B7B5B5" transform="translate(93,35)"/>
<path d="M0 0 C0.53625 0.37125 1.0725 0.7425 1.625 1.125 C1.295 2.115 0.965 3.105 0.625 4.125 C1.615 4.125 2.605 4.125 3.625 4.125 C3.625 4.785 3.625 5.445 3.625 6.125 C-0.005 5.795 -3.635 5.465 -7.375 5.125 C-7.705 3.805 -8.035 2.485 -8.375 1.125 C-2.95961538 -1.09038462 -2.95961538 -1.09038462 0 0 Z " fill="#09090A" transform="translate(151.375,124.875)"/>
<path d="M0 0 C0.66 0 1.32 0 2 0 C2.89500374 4.36314323 3.06174812 8.42522306 2.9375 12.8515625 C2.92193156 15.00877921 2.92193156 15.00877921 3.52734375 17.0703125 C4.2104387 19.85914642 3.56808342 22.22270328 3 25 C-0.22672632 19.40700771 -0.14188524 13.42696665 -0.0625 7.125 C-0.05798828 6.43664062 -0.05347656 5.74828125 -0.04882812 5.0390625 C-0.03716336 3.35933665 -0.01923271 1.67965625 0 0 Z " fill="#939392" transform="translate(38,81)"/>
<path d="M0 0 C0.66 0 1.32 0 2 0 C2 4.62 2 9.24 2 14 C1.67 13.34 1.34 12.68 1 12 C0.01 12 -0.98 12 -2 12 C-2 13.65 -2 15.3 -2 17 C-2.66 16.67 -3.32 16.34 -4 16 C-4 14.02 -4 12.04 -4 10 C-3.34 10 -2.68 10 -2 10 C-1.67 9.01 -1.34 8.02 -1 7 C-0.34 7 0.32 7 1 7 C0.67 6.01 0.34 5.02 0 4 C-0.66 4 -1.32 4 -2 4 C-1.34 2.68 -0.68 1.36 0 0 Z " fill="#2F2E30" transform="translate(49,77)"/>
<path d="M0 0 C9.9 0 19.8 0 30 0 C30 0.33 30 0.66 30 1 C29.30849854 1.02505615 28.61699707 1.0501123 27.90454102 1.07592773 C24.79032134 1.19152161 21.67643211 1.31441242 18.5625 1.4375 C16.92958008 1.49647461 16.92958008 1.49647461 15.26367188 1.55664062 C13.71196289 1.61948242 13.71196289 1.61948242 12.12890625 1.68359375 C11.17056885 1.72025146 10.21223145 1.75690918 9.22485352 1.79467773 C7.02861075 1.75834424 7.02861075 1.75834424 6 3 C4.48071962 3.07179964 2.95832518 3.08392007 1.4375 3.0625 C0.61121094 3.05347656 -0.21507812 3.04445313 -1.06640625 3.03515625 C-1.70449219 3.02355469 -2.34257812 3.01195313 -3 3 C-2.67 2.34 -2.34 1.68 -2 1 C-1.34 1.33 -0.68 1.66 0 2 C0 1.34 0 0.68 0 0 Z " fill="#363437" transform="translate(142,123)"/>
<path d="M0 0 C0 3 0 3 -1 6 C-0.030625 6.2475 0.93875 6.495 1.9375 6.75 C2.948125 7.1625 3.95875 7.575 5 8 C5.875 10.125 5.875 10.125 6 12 C8.31 12 10.62 12 13 12 C13 12.33 13 12.66 13 13 C11.54207116 13.05399736 10.08357288 13.09279177 8.625 13.125 C7.81289062 13.14820313 7.00078125 13.17140625 6.1640625 13.1953125 C4 13 4 13 2 11 C2 10.01 2 9.02 2 8 C0.35 8 -1.3 8 -3 8 C-3.33 6.35 -3.66 4.7 -4 3 C-2.68 2.01 -1.36 1.02 0 0 Z " fill="#A1A09F" transform="translate(5,38)"/>
<path d="M0 0 C0 1.65 0 3.3 0 5 C-1.98 5 -3.96 5 -6 5 C-6 5.66 -6 6.32 -6 7 C-6.99 7 -7.98 7 -9 7 C-8.625 4.0625 -8.625 4.0625 -8 1 C-5.29120665 -0.35439668 -2.99066732 -0.06501451 0 0 Z " fill="#090909" transform="translate(198,124)"/>
<path d="M0 0 C0 0.33 0 0.66 0 1 C-3.3 1.33 -6.6 1.66 -10 2 C-10 2.66 -10 3.32 -10 4 C-10.99 4 -11.98 4 -13 4 C-13 3.34 -13 2.68 -13 2 C-15.97 2 -18.94 2 -22 2 C-22 1.34 -22 0.68 -22 0 C-19.27119539 -0.19555932 -16.54228931 -0.38170447 -13.8125 -0.5625 C-13.04357422 -0.61857422 -12.27464844 -0.67464844 -11.48242188 -0.73242188 C-7.45938647 -0.99141557 -3.93927628 -1.06573607 0 0 Z " fill="#817F7F" transform="translate(115,36)"/>
<path d="M0 0 C0 0.66 0 1.32 0 2 C-0.66 2 -1.32 2 -2 2 C-2.33 4.64 -2.66 7.28 -3 10 C-3.33 10 -3.66 10 -4 10 C-4 7.36 -4 4.72 -4 2 C-4.8353125 2.01740234 -4.8353125 2.01740234 -5.6875 2.03515625 C-10.89778343 2.09676433 -15.8437951 1.74999344 -21 1 C-21 0.67 -21 0.34 -21 0 C-6.21867882 -1.33257403 -6.21867882 -1.33257403 0 0 Z " fill="#959594" transform="translate(125,133)"/>
<path d="M0 0 C1.32 0 2.64 0 4 0 C3.67 2.31 3.34 4.62 3 7 C1.68 7 0.36 7 -1 7 C-1 9.97 -1 12.94 -1 16 C-1.33 16 -1.66 16 -2 16 C-2.05423638 14.08364783 -2.09289963 12.16685075 -2.125 10.25 C-2.14820312 9.18265625 -2.17140625 8.1153125 -2.1953125 7.015625 C-2.00487687 4.07529894 -1.52670104 2.47638122 0 0 Z " fill="#0E0E0E" transform="translate(127,57)"/>
<path d="M0 0 C0.99 0 1.98 0 3 0 C3 0.66 3 1.32 3 2 C5.97 2.495 5.97 2.495 9 3 C9.08912219 6.83225427 8.87867729 10.26562152 8 14 C7.01 14 6.02 14 5 14 C5 12.35 5 10.7 5 9 C4.34 9 3.68 9 3 9 C3 8.34 3 7.68 3 7 C4.65 7 6.3 7 8 7 C8 6.01 8 5.02 8 4 C5.69 3.67 3.38 3.34 1 3 C0.67 2.01 0.34 1.02 0 0 Z " fill="#272628" transform="translate(117,39)"/>
<path d="M0 0 C8.25 0 16.5 0 25 0 C24.01 0.33 23.02 0.66 22 1 C22.33 2.32 22.66 3.64 23 5 C21.68 5 20.36 5 19 5 C19 3.68 19 2.36 19 1 C12.73 1 6.46 1 0 1 C0 0.67 0 0.34 0 0 Z " fill="#3C3A3C" transform="translate(113,123)"/>
<path d="M0 0 C0.99 0.33 1.98 0.66 3 1 C3 1.66 3 2.32 3 3 C4.670625 2.9690625 4.670625 2.9690625 6.375 2.9375 C10 3 10 3 12 4 C12 4.99 12 5.98 12 7 C11.05125 6.67 10.1025 6.34 9.125 6 C6.22937548 4.89840809 6.22937548 4.89840809 4 5 C3.67 5.99 3.34 6.98 3 8 C2.34 8 1.68 8 1 8 C0.34 6.68 -0.32 5.36 -1 4 C-0.34 4 0.32 4 1 4 C0.67 2.68 0.34 1.36 0 0 Z " fill="#050505" transform="translate(113,39)"/>
<path d="M0 0 C1.07765625 0.10183594 2.1553125 0.20367187 3.265625 0.30859375 C4.08546875 0.39238281 4.9053125 0.47617188 5.75 0.5625 C5.42 1.2225 5.09 1.8825 4.75 2.5625 C2.20058627 2.87491371 -0.25361513 3.07553421 -2.8125 3.1875 C-3.87887695 3.24550781 -3.87887695 3.24550781 -4.96679688 3.3046875 C-6.72742425 3.39921783 -8.48867728 3.48195817 -10.25 3.5625 C-10.25 2.5725 -10.25 1.5825 -10.25 0.5625 C-6.70049966 -0.60056443 -3.69176052 -0.36115049 0 0 Z " fill="#6B696A" transform="translate(168.25,126.4375)"/>
<path d="M0 0 C2.4375 0.375 2.4375 0.375 5 1 C5.33 1.66 5.66 2.32 6 3 C5.34 3 4.68 3 4 3 C3.896875 3.639375 3.79375 4.27875 3.6875 4.9375 C3.460625 5.618125 3.23375 6.29875 3 7 C2.01 7.33 1.02 7.66 0 8 C0 7.01 0 6.02 0 5 C-0.66 4.67 -1.32 4.34 -2 4 C-1.34 2.68 -0.68 1.36 0 0 Z " fill="#060506" transform="translate(12,41)"/>
<path d="M0 0 C4.62 0 9.24 0 14 0 C13.67 0.99 13.34 1.98 13 3 C10.36 3 7.72 3 5 3 C5 3.66 5 4.32 5 5 C4.01 5 3.02 5 2 5 C2 4.01 2 3.02 2 2 C1.34 2 0.68 2 0 2 C0 1.34 0 0.68 0 0 Z " fill="#312F32" transform="translate(82,126)"/>
<path d="M0 0 C5.94 0.99 5.94 0.99 12 2 C12 2.66 12 3.32 12 4 C4.57142857 5.28571429 4.57142857 5.28571429 1 4 C0.67 2.68 0.34 1.36 0 0 Z " fill="#515053" transform="translate(82,38)"/>
<path d="M0 0 C4.95 0 9.9 0 15 0 C15 0.99 15 1.98 15 3 C9.47322267 3.19392201 5.24385089 2.7479503 0 1 C0 0.67 0 0.34 0 0 Z " fill="#1A191C" transform="translate(151,124)"/>
<path d="M0 0 C3.00617269 3.00617269 2.59585316 5.82381598 3 10 C2.67 9.34 2.34 8.68 2 8 C1.01 8.33 0.02 8.66 -1 9 C-2.0326802 6.21176345 -2.04509293 5.1322726 -1.0625 2.25 C-0.711875 1.5075 -0.36125 0.765 0 0 Z " fill="#6D6C6D" transform="translate(126,44)"/>
<path d="M0 0 C0 0.66 0 1.32 0 2 C-0.99 2.33 -1.98 2.66 -3 3 C-3 3.99 -3 4.98 -3 6 C-4.98 6 -6.96 6 -9 6 C-8.01 5.67 -7.02 5.34 -6 5 C-6.33 3.68 -6.66 2.36 -7 1 C-4 0 -4 0 0 0 Z " fill="#19181B" transform="translate(142,123)"/>
<path d="M0 0 C0.66 0 1.32 0 2 0 C2.33 2.64 2.66 5.28 3 8 C2.34 8 1.68 8 1 8 C0.67 8.99 0.34 9.98 0 11 C0 7.37 0 3.74 0 0 Z " fill="#252425" transform="translate(118,72)"/>
<path d="M0 0 C0.763125 0.0825 1.52625 0.165 2.3125 0.25 C2.3125 1.58333333 2.3125 2.91666667 2.3125 4.25 C-0.3275 4.25 -2.9675 4.25 -5.6875 4.25 C-3.34903846 0.31153846 -3.34903846 0.31153846 0 0 Z " fill="#151416" transform="translate(111.6875,41.75)"/>
<path d="M0 0 C0.33 0.66 0.66 1.32 1 2 C3.64 1.34 6.28 0.68 9 0 C9 0.66 9 1.32 9 2 C9.66 2.33 10.32 2.66 11 3 C9.741875 3.185625 8.48375 3.37125 7.1875 3.5625 C6.12595703 3.71912109 6.12595703 3.71912109 5.04296875 3.87890625 C3 4 3 4 0 3 C0 2.01 0 1.02 0 0 Z " fill="#171718" transform="translate(84,43)"/>
<path d="M0 0 C0 1.32 0 2.64 0 4 C-1.65 4 -3.3 4 -5 4 C-5.33 3.01 -5.66 2.02 -6 1 C-4 0 -4 0 0 0 Z " fill="#050506" transform="translate(71,38)"/>
<path d="M0 0 C1.32 0.33 2.64 0.66 4 1 C3.67 2.32 3.34 3.64 3 5 C2.34 4.67 1.68 4.34 1 4 C1 5.65 1 7.3 1 9 C0.67 9 0.34 9 0 9 C0 6.03 0 3.06 0 0 Z " fill="#040304" transform="translate(121,52)"/>
<path d="M0 0 C0.66 0 1.32 0 2 0 C3.2380014 3.57644848 2.74926071 6.33694766 2 10 C-0.09350689 6.5980513 -0.17942163 3.94727588 0 0 Z " fill="#666564" transform="translate(39,96)"/>
<path d="M0 0 C0 2.62113708 -0.31292445 4.50935112 -1 7 C-1.99 7 -2.98 7 -4 7 C-3.6875 4.625 -3.6875 4.625 -3 2 C-2.01 1.34 -1.02 0.68 0 0 Z " fill="#8C8B8B" transform="translate(5,38)"/>
<path d="M0 0 C0.66 0.99 1.32 1.98 2 3 C1.67 3.66 1.34 4.32 1 5 C-0.98 4.34 -2.96 3.68 -5 3 C-5 2.34 -5 1.68 -5 1 C-3.68 1.33 -2.36 1.66 -1 2 C-0.67 1.34 -0.34 0.68 0 0 Z " fill="#2F2D31" transform="translate(101,38)"/>
<path d="M0 0 C0 0.33 0 0.66 0 1 C-3.3 0.67 -6.6 0.34 -10 0 C-10 -0.33 -10 -0.66 -10 -1 C-5.94568308 -2.15837626 -3.78187881 -1.83691257 0 0 Z " fill="#2A282C" transform="translate(76,43)"/>
</svg>
