<?xml version="1.0" encoding="UTF-8"?>
<svg version="1.1" xmlns="http://www.w3.org/2000/svg" width="200" height="133">
<path d="M0 0 C0 0.66 0 1.32 0 2 C1.98 2.99 1.98 2.99 4 4 C3.835 4.61875 3.67 5.2375 3.5 5.875 C2.92365356 7.96063386 2.92365356 7.96063386 3 10 C3 11.32 3 12.64 3 14 C1.64453125 15.30859375 1.64453125 15.30859375 -0.1875 16.4375 C-3.54474105 18.64407376 -6.22452759 21.07450205 -9 24 C-10.1446875 25.0828125 -10.1446875 25.0828125 -11.3125 26.1875 C-13.22713951 27.83122273 -13.22713951 27.83122273 -13 30 C-12.34 30 -11.68 30 -11 30 C-11.55023295 33.73665662 -12.94502744 35.18446617 -15.8125 37.5625 C-16.49957031 38.14128906 -17.18664062 38.72007813 -17.89453125 39.31640625 C-18.58933594 39.87199219 -19.28414062 40.42757812 -20 41 C-20.70511719 41.56589844 -21.41023437 42.13179687 -22.13671875 42.71484375 C-24 44 -24 44 -26 44 C-26 44.66 -26 45.32 -26 46 C-26.66 46 -27.32 46 -28 46 C-28 46.66 -28 47.32 -28 48 C-29.32 48.33 -30.64 48.66 -32 49 C-32 49.66 -32 50.32 -32 51 C-33.70534086 52.47012143 -35.46572059 53.87675878 -37.25 55.25 C-41.81898732 58.79363713 -41.81898732 58.79363713 -45.3125 63.3125 C-47.41204404 66.65621828 -49.68014292 67.87028036 -53 70 C-59.46308401 75.21181495 -59.46308401 75.21181495 -64 82 C-65.62890625 83.5703125 -65.62890625 83.5703125 -67.5625 85.125 C-72.7823934 89.53227263 -78.91150313 94.82300626 -82 101 C-82.66 101 -83.32 101 -84 101 C-84.37125 102.07507813 -84.37125 102.07507813 -84.75 103.171875 C-86.1360211 106.30774775 -87.83787825 108.59504167 -90 111.25 C-90.70125 112.12140625 -91.4025 112.9928125 -92.125 113.890625 C-94 116 -94 116 -96 117 C-96.46898963 119.8159849 -96.46898963 119.8159849 -96.625 123.0625 C-96.69976562 124.16722656 -96.77453125 125.27195312 -96.8515625 126.41015625 C-96.92503906 127.69212891 -96.92503906 127.69212891 -97 129 C-98.65 129.33 -100.3 129.66 -102 130 C-108.32083847 122.71885274 -113.33279829 115.43965491 -118 107 C-119.86367613 103.34333039 -119.86367613 103.34333039 -123 101 C-123 102.32 -123 103.64 -123 105 C-124.485 105.495 -124.485 105.495 -126 106 C-126.73323796 108.01508358 -126.73323796 108.01508358 -127 110 C-127.99 110 -128.98 110 -130 110 C-130.391875 110.969375 -130.78375 111.93875 -131.1875 112.9375 C-133 116 -133 116 -135.6875 116.875 C-136.450625 116.91625 -137.21375 116.9575 -138 117 C-138.33 118.65 -138.66 120.3 -139 122 C-139.99 122.33 -140.98 122.66 -142 123 C-145 121 -145 121 -145.84375 117.9453125 C-146.0603125 116.68460937 -146.276875 115.42390625 -146.5 114.125 C-146.74620292 112.75605935 -146.99493335 111.38757103 -147.24609375 110.01953125 C-147.36968262 109.33842285 -147.49327148 108.65731445 -147.62060547 107.95556641 C-148.15330791 105.20978357 -148.84979139 102.51649499 -149.5625 99.8125 C-150.85475541 94.80585598 -151.77803026 89.79954176 -152.5703125 84.69140625 C-152.85115944 82.93228317 -153.16879354 81.17853809 -153.52734375 79.43359375 C-153.97799853 77.11328032 -154.23449667 74.85318146 -154.4375 72.5 C-154.71670317 69.73543096 -155.06101835 67.85084404 -156.125 65.25 C-157.57535869 61.52050622 -156.22153492 58.66460476 -155 55 C-156.65 55.66 -158.3 56.32 -160 57 C-162.3748869 54.78624112 -164.0755539 52.48700598 -165.8125 49.75 C-168.2453982 46.01223911 -170.87775704 42.68643274 -173.8984375 39.41015625 C-175 38 -175 38 -175 36 C-175.99 36.495 -175.99 36.495 -177 37 C-179.3329866 37.04022391 -181.66706666 37.04320247 -184 37 C-184.99 33.535 -184.99 33.535 -186 30 C-185.67 29.67 -185.34 29.34 -185 29 C-184.95936168 27.33382885 -184.957279 25.66611905 -185 24 C-185.33 24.66 -185.66 25.32 -186 26 C-187.98 25.67 -189.96 25.34 -192 25 C-192.33 23.35 -192.66 21.7 -193 20 C-192.34 19.67 -191.68 19.34 -191 19 C-190.34786708 16.97536745 -190.34786708 16.97536745 -190 15 C-184.90546328 14.3824804 -182.11633454 16.22939021 -178 19 C-177.67 19.99 -177.34 20.98 -177 22 C-177.33 22.66 -177.66 23.32 -178 24 C-177.24501221 23.87665283 -176.49002441 23.75330566 -175.7121582 23.6262207 C-167.59985716 22.3355017 -159.47401793 21.33109961 -151.31170654 20.42468262 C-133.7861604 18.46783199 -116.39770082 15.86950472 -99 13 C-99 12.34 -99 11.68 -99 11 C-88.50055632 8.62421347 -78.14132608 7.28348523 -67.42843628 6.34896851 C-54.1307218 5.18259155 -41.05472827 3.68373134 -27.9375 1.1875 C-18.32291725 -0.63882625 -9.70348506 -1.6926632 0 0 Z M-21 10 C-21.33 11.65 -21.66 13.3 -22 15 C-17.69235185 13.43358249 -13.93828536 11.31663844 -10 9 C-10 8.67 -10 8.34 -10 8 C-14.08718695 7.75957724 -17.17679443 8.57741188 -21 10 Z M-45.25 9.5 C-45.99507813 9.64308594 -46.74015625 9.78617188 -47.5078125 9.93359375 C-49.33917615 10.28577907 -51.16967648 10.64244843 -53 11 C-53.33 11.99 -53.66 12.98 -54 14 C-57.46035083 16.30690055 -59.31841508 16.0366783 -63.3515625 15.9453125 C-68.30855735 16.04766933 -73.13553641 17.10279028 -78 18 C-84.40005753 19.1275133 -90.75310022 20.12114694 -97.22265625 20.734375 C-108.46985883 21.81005682 -119.24371242 23.60842334 -130.26025391 26.10571289 C-137.43358379 27.71426695 -144.60540198 28.99630855 -151.88598633 30.01147461 C-156.11649911 30.61826969 -159.99144457 31.51183171 -164 33 C-162.68 34.32 -161.36 35.64 -160 37 C-160.66 37.66 -161.32 38.32 -162 39 C-161.67 39.66 -161.34 40.32 -161 41 C-160.34 41 -159.68 41 -159 41 C-159 41.66 -159 42.32 -159 43 C-157.16666667 45.16666667 -157.16666667 45.16666667 -155 47 C-154.34 47 -153.68 47 -153 47 C-152.34 48.32 -151.68 49.64 -151 51 C-150.34 51 -149.68 51 -149 51 C-149 50.34 -149 49.68 -149 49 C-147.35 49 -145.7 49 -144 49 C-144 49.99 -144 50.98 -144 52 C-145.65 52 -147.3 52 -149 52 C-148.67 53.32 -148.34 54.64 -148 56 C-132.83216487 51.0881811 -118.41203115 44.90193728 -103.90283203 38.31396484 C-94.2475865 33.94352486 -84.44840852 29.9476746 -74.60083008 26.03466797 C-68.43878223 23.58528172 -62.30822969 21.06749082 -56.18823242 18.51513672 C-50.49088762 16.15794267 -44.72739939 13.99879876 -38.91113281 11.95263672 C-35.26009563 10.84124214 -35.26009563 10.84124214 -33 8 C-37.23430062 8 -41.11889402 8.68983611 -45.25 9.5 Z M-39.6953125 25.75 C-40.76845703 26.29140625 -40.76845703 26.29140625 -41.86328125 26.84375 C-42.98283203 27.41609375 -42.98283203 27.41609375 -44.125 28 C-44.87910156 28.3815625 -45.63320312 28.763125 -46.41015625 29.15625 C-48.27524766 30.10060008 -50.13786055 31.04984228 -52 32 C-48.92003309 33.38935448 -48.92003309 33.38935448 -45.6796875 31.63671875 C-44.40621225 30.99732252 -43.13811495 30.34712669 -41.875 29.6875 C-41.22917969 29.36587891 -40.58335937 29.04425781 -39.91796875 28.71289062 C-36.32958681 27.03738568 -36.32958681 27.03738568 -34 24 C-36.40059817 24 -37.56072417 24.66576466 -39.6953125 25.75 Z M-53 25 C-53 25.66 -53 26.32 -53 27 C-52.01 26.67 -51.02 26.34 -50 26 C-50.99 25.67 -51.98 25.34 -53 25 Z M-55 26 C-72.2062605 30.57739098 -72.2062605 30.57739098 -88.75170898 37.0078125 C-90.88925917 37.95112925 -93.00072861 38.69711652 -95.2265625 39.40234375 C-99.78749065 40.89854839 -104.20559516 42.63014087 -108.625 44.5 C-109.42115723 44.83531738 -110.21731445 45.17063477 -111.03759766 45.51611328 C-120.71621843 49.65133796 -130.17039551 54.26572142 -139.62255859 58.89013672 C-142.04942938 60.02307516 -144.50452576 61.02876742 -147 62 C-146.67 64.31 -146.34 66.62 -146 69 C-135.17673745 64.79997202 -124.60124966 60.17847485 -114.0625 55.3125 C-111.89258046 54.31183839 -109.72215114 53.31235615 -107.55015564 52.31620789 C-106.21653073 51.70448848 -104.88403818 51.09029089 -103.55299377 50.47297668 C-99.70183297 48.70551919 -95.81846938 47.13929595 -91.83175659 45.7024231 C-88.79905168 44.53947274 -85.94830811 43.04672433 -83.0625 41.5625 C-78.54879371 39.26525508 -74.02193238 37.05839965 -69.375 35.04296875 C-64.2137192 32.77641945 -59.11385257 30.37118357 -54 28 C-54.495 27.01 -54.495 27.01 -55 26 Z M-174 30 C-169.545 29.505 -169.545 29.505 -165 29 C-165 28.67 -165 28.34 -165 28 C-170.0205829 27.49708619 -170.0205829 27.49708619 -174 30 Z M-59.66796875 34.96875 C-61.00698242 35.57783203 -61.00698242 35.57783203 -62.37304688 36.19921875 C-63.30181641 36.62847656 -64.23058594 37.05773438 -65.1875 37.5 C-66.12787109 37.92925781 -67.06824219 38.35851563 -68.03710938 38.80078125 C-70.36041769 39.86219114 -72.68120906 40.92876607 -75 42 C-71.48281298 43.17239567 -70.88165762 42.81331475 -67.5859375 41.41796875 C-66.32136719 40.88526367 -66.32136719 40.88526367 -65.03125 40.34179688 C-64.1546875 39.96087891 -63.278125 39.57996094 -62.375 39.1875 C-61.04855469 38.63352539 -61.04855469 38.63352539 -59.6953125 38.06835938 C-55.05793435 36.44295584 -55.05793435 36.44295584 -52 33 C-55.24619345 33 -56.75000673 33.63057634 -59.66796875 34.96875 Z M-48.33203125 36.79296875 C-49.21439453 37.17646484 -50.09675781 37.55996094 -51.00585938 37.95507812 C-51.93205078 38.36177734 -52.85824219 38.76847656 -53.8125 39.1875 C-60.63806354 42.17959605 -67.50144387 44.981586 -74.46704102 47.6315918 C-81.21184455 50.24403211 -87.88131872 53.04229727 -94.5625 55.8125 C-111.30269537 62.74594507 -111.30269537 62.74594507 -118.625 65.62109375 C-119.5627124 65.98936279 -120.5004248 66.35763184 -121.46655273 66.73706055 C-123.15118208 67.39440346 -124.83808436 68.04596182 -126.52758789 68.69067383 C-130.47954602 69.97182812 -130.47954602 69.97182812 -133 73 C-131.68 73 -130.36 73 -129 73 C-129 73.66 -129 74.32 -129 75 C-128.278125 75.433125 -127.55625 75.86625 -126.8125 76.3125 C-121.39576704 79.56253977 -118.87125119 82.75376786 -116.87890625 88.7421875 C-114.78896052 94.11102586 -111.55518369 100.33450062 -107 104 C-106.01 104 -105.02 104 -104 104 C-103.67 105.65 -103.34 107.3 -103 109 C-98.54436369 105.36274587 -94.67321107 101.64626829 -90.94921875 97.26953125 C-88.68346238 94.63144618 -86.34644463 92.06653475 -84 89.5 C-80.40713761 85.56209138 -76.86200685 81.59044542 -73.375 77.55859375 C-72.2934584 76.33264177 -71.156004 75.156004 -70 74 C-70.020625 72.865625 -70.04125 71.73125 -70.0625 70.5625 C-70 67 -70 67 -68.5 65.1875 C-68.005 64.795625 -67.51 64.40375 -67 64 C-67 63.34 -67 62.68 -67 62 C-66.34 61.814375 -65.68 61.62875 -65 61.4375 C-60.68238241 59.36864157 -57.47000394 56.25948069 -54 53 C-53.13761719 52.20916016 -53.13761719 52.20916016 -52.2578125 51.40234375 C-50.77743215 50.06582238 -50.77743215 50.06582238 -51 48 C-50.34 48 -49.68 48 -49 48 C-47.43711967 45.85535214 -47.43711967 45.85535214 -45.9375 43.1875 C-45.41027344 42.29417969 -44.88304687 41.40085937 -44.33984375 40.48046875 C-42.89810305 37.98203483 -42.89810305 37.98203483 -42 35 C-44.50956143 35 -46.03093975 35.78301514 -48.33203125 36.79296875 Z M-83.04296875 44.77734375 C-83.75066406 45.16019531 -84.45835938 45.54304688 -85.1875 45.9375 C-85.90292969 46.31777344 -86.61835937 46.69804688 -87.35546875 47.08984375 C-88.16951172 47.54037109 -88.16951172 47.54037109 -89 48 C-86.14697801 49.30263511 -86.14697801 49.30263511 -83.95703125 48.22265625 C-83.24933594 47.83980469 -82.54164062 47.45695312 -81.8125 47.0625 C-81.09707031 46.68222656 -80.38164063 46.30195312 -79.64453125 45.91015625 C-79.10183594 45.60980469 -78.55914062 45.30945312 -78 45 C-80.85302199 43.69736489 -80.85302199 43.69736489 -83.04296875 44.77734375 Z M-133 84 C-135.45723962 86.45723962 -134.98617404 92.39079353 -135.0625 95.75390625 C-135.0625 98.17012365 -135.04455326 100.58422331 -135 103 C-129.63009169 100.55227026 -129.63009169 100.55227026 -126.125 96.0625 C-125.96977048 93.50121292 -126.68498637 92.16590481 -128 90 C-128.66 90 -129.32 90 -130 90 C-130.66 88.02 -131.32 86.04 -132 84 C-132.33 84 -132.66 84 -133 84 Z " fill="#121213" transform="translate(194,2)"/>
<path d="M0 0 C-0.33 0.99 -0.66 1.98 -1 3 C-1.99 3.33 -2.98 3.66 -4 4 C-2.68 4.33 -1.36 4.66 0 5 C0 4.34 0 3.68 0 3 C4.95 3.495 4.95 3.495 10 4 C10 3.34 10 2.68 10 2 C11.65 1.67 13.3 1.34 15 1 C13.96461386 3.82378039 13.33380245 4.8243145 10.625 6.25 C8 7 8 7 4 7 C4.495 9.97 4.495 9.97 5 13 C1.7 14.65 -1.6 16.3 -5 18 C-0.71 16.02 3.58 14.04 8 12 C6.74646003 15.13384992 5.53924548 18.03145514 4 21 C7.69418201 19.768606 9.35109746 17.79208646 12 15 C12.99 15.495 12.99 15.495 14 16 C13.04882866 17.1725131 12.08882991 18.33787015 11.125 19.5 C10.59132813 20.1496875 10.05765625 20.799375 9.5078125 21.46875 C9.01023437 21.9740625 8.51265625 22.479375 8 23 C7.34 23 6.68 23 6 23 C5.731875 23.5775 5.46375 24.155 5.1875 24.75 C3.9402597 27.11319214 2.82496349 29.03985403 1 31 C-1.6875 31.75 -1.6875 31.75 -4 32 C-4 32.66 -4 33.32 -4 34 C-5.485 34.495 -5.485 34.495 -7 35 C-5.99598555 31.25776432 -4.69674911 28.38120517 -2.41796875 25.28515625 C-1.96574951 24.66648682 -1.51353027 24.04781738 -1.04760742 23.41040039 C-0.70189697 22.94496826 -0.35618652 22.47953613 0 22 C-0.62865967 22.27674561 -1.25731934 22.55349121 -1.9050293 22.83862305 C-4.8311808 24.12465231 -7.75932591 25.40608303 -10.6875 26.6875 C-11.67556641 27.12255859 -12.66363281 27.55761719 -13.68164062 28.00585938 C-19.87655157 30.71237386 -26.11706391 33.22243665 -32.4362793 35.62280273 C-38.75978466 38.06651677 -45.02115212 40.66235088 -51.28735352 43.2487793 C-53.58972513 44.19873303 -55.89343288 45.14539299 -58.19726562 46.09179688 C-59.67455903 46.70032698 -61.1517755 47.30904393 -62.62890625 47.91796875 C-63.3111879 48.19819382 -63.99346954 48.47841888 -64.69642639 48.76713562 C-67.27094346 49.83171714 -69.80488627 50.89763392 -72.27319336 52.19262695 C-74 53 -74 53 -77 53 C-77 52.34 -77 51.68 -77 51 C-78.65 51 -80.3 51 -82 51 C-81.01 49.68 -80.02 48.36 -79 47 C-79.5775 47.350625 -80.155 47.70125 -80.75 48.0625 C-83.39786506 49.16577711 -84.33185326 48.80156509 -87 48 C-83.05426813 46.21914891 -79.10727862 44.44112234 -75.15917969 42.66552734 C-73.82062782 42.06308261 -72.48240231 41.45991214 -71.14453125 40.85595703 C-64.19414289 37.71891797 -57.23828249 34.65567166 -50.13671875 31.87207031 C-46.97305743 30.5808685 -43.97632029 29.06383734 -40.9375 27.5 C-36.42183888 25.20105152 -31.89111616 22.99402211 -27.2421875 20.9765625 C-24.45986456 19.76474937 -21.69926927 18.50790509 -18.9375 17.25 C-17.99777344 16.82203125 -17.05804688 16.3940625 -16.08984375 15.953125 C-15.40019531 15.63859375 -14.71054688 15.3240625 -14 15 C-33.37780909 18.07416275 -33.37780909 18.07416275 -50 27 C-51.01126953 27.19916016 -51.01126953 27.19916016 -52.04296875 27.40234375 C-56.33884052 28.27059789 -60.25516803 29.92871379 -64.3125 31.5625 C-65.19534668 31.91675049 -66.07819336 32.27100098 -66.98779297 32.63598633 C-76.29913371 36.43480543 -85.17398875 40.93874981 -94.0703125 45.61328125 C-95.39675781 46.29970703 -95.39675781 46.29970703 -96.75 47 C-97.85601562 47.5878125 -97.85601562 47.5878125 -98.984375 48.1875 C-101 49 -101 49 -105 49 C-104.690625 49.9075 -104.38125 50.815 -104.0625 51.75 C-103.2727737 54.16563338 -102.57050703 56.52780285 -102 59 C-100.35 59.33 -98.7 59.66 -97 60 C-97.33 60.66 -97.66 61.32 -98 62 C-98.2275074 69.05272946 -97.66506558 75.98118286 -97 83 C-97.66 82.67 -98.32 82.34 -99 82 C-99.33 84.97 -99.66 87.94 -100 91 C-100.61875 90.34 -101.2375 89.68 -101.875 89 C-103.75637427 86.7715451 -103.75637427 86.7715451 -106 87 C-105.67 88.65 -105.34 90.3 -105 92 C-104.01 92.33 -103.02 92.66 -102 93 C-102.33 93.99 -102.66 94.98 -103 96 C-102.34 96 -101.68 96 -101 96 C-101.33 99.63 -101.66 103.26 -102 107 C-100.68 107.33 -99.36 107.66 -98 108 C-98 106.35 -98 104.7 -98 103 C-97.34 103.33 -96.68 103.66 -96 104 C-96.33 105.65 -96.66 107.3 -97 109 C-98.485 109.495 -98.485 109.495 -100 110 C-103 108 -103 108 -103.84375 104.9453125 C-104.0603125 103.68460937 -104.276875 102.42390625 -104.5 101.125 C-104.74620292 99.75605935 -104.99493335 98.38757103 -105.24609375 97.01953125 C-105.36968262 96.33842285 -105.49327148 95.65731445 -105.62060547 94.95556641 C-106.15330791 92.20978357 -106.84979139 89.51649499 -107.5625 86.8125 C-108.85475541 81.80585598 -109.77803026 76.79954176 -110.5703125 71.69140625 C-110.85115944 69.93228317 -111.16879354 68.17853809 -111.52734375 66.43359375 C-111.97799853 64.11328032 -112.23449667 61.85318146 -112.4375 59.5 C-112.71670317 56.73543096 -113.06101835 54.85084404 -114.125 52.25 C-115.23394137 49.39843649 -114.91165929 47.88692108 -114 45 C-113.34 44.01 -112.68 43.02 -112 42 C-112.061875 43.175625 -112.12375 44.35125 -112.1875 45.5625 C-112.19551559 50.06726361 -111.10475982 53.03333725 -109 57 C-108.34 57.33 -107.68 57.66 -107 58 C-107 58.66 -107 59.32 -107 60 C-106.505 59.505 -106.505 59.505 -106 59 C-106.23234041 56.97148953 -106.53746021 54.95117914 -106.875 52.9375 C-107.68569895 47.96375236 -108.41125613 43.00432288 -109 38 C-108.34 38 -107.68 38 -107 38 C-107 37.34 -107 36.68 -107 36 C-105.35 36 -103.7 36 -102 36 C-102 36.99 -102 37.98 -102 39 C-103.65 39 -105.3 39 -107 39 C-106.67 39.99 -106.34 40.98 -106 42 C-90.83216487 37.0881811 -76.41203115 30.90193728 -61.90283203 24.31396484 C-52.25479093 19.94678593 -42.46311802 15.95335479 -32.62280273 12.04345703 C-26.24210832 9.50726659 -19.88848959 6.91096809 -13.55541992 4.25805664 C-3.31894432 0 -3.31894432 0 0 0 Z M-11 12 C-11 12.66 -11 13.32 -11 14 C-10.01 13.67 -9.02 13.34 -8 13 C-8.99 12.67 -9.98 12.34 -11 12 Z M-17.66796875 21.96875 C-19.00698242 22.57783203 -19.00698242 22.57783203 -20.37304688 23.19921875 C-21.30181641 23.62847656 -22.23058594 24.05773437 -23.1875 24.5 C-24.12787109 24.92925781 -25.06824219 25.35851562 -26.03710938 25.80078125 C-28.36041769 26.86219114 -30.68120906 27.92876607 -33 29 C-29.48281298 30.17239567 -28.88165762 29.81331475 -25.5859375 28.41796875 C-24.32136719 27.88526367 -24.32136719 27.88526367 -23.03125 27.34179688 C-22.1546875 26.96087891 -21.278125 26.57996094 -20.375 26.1875 C-19.04855469 25.63352539 -19.04855469 25.63352539 -17.6953125 25.06835938 C-13.05793435 23.44295584 -13.05793435 23.44295584 -10 20 C-13.24619345 20 -14.75000673 20.63057634 -17.66796875 21.96875 Z M-41.04296875 31.77734375 C-41.75066406 32.16019531 -42.45835938 32.54304688 -43.1875 32.9375 C-43.90292969 33.31777344 -44.61835937 33.69804688 -45.35546875 34.08984375 C-46.16951172 34.54037109 -46.16951172 34.54037109 -47 35 C-44.14697801 36.30263511 -44.14697801 36.30263511 -41.95703125 35.22265625 C-41.24933594 34.83980469 -40.54164062 34.45695312 -39.8125 34.0625 C-39.09707031 33.68222656 -38.38164063 33.30195312 -37.64453125 32.91015625 C-37.10183594 32.60980469 -36.55914062 32.30945312 -36 32 C-38.85302199 30.69736489 -38.85302199 30.69736489 -41.04296875 31.77734375 Z " fill="#3D3C40" transform="translate(152,15)"/>
<path d="M0 0 C0 0.99 0 1.98 0 3 C0.99 3.33 1.98 3.66 3 4 C2.67 4.99 2.34 5.98 2 7 C-0.94140625 8.38671875 -0.94140625 8.38671875 -4.5625 9.6875 C-5.76003906 10.12449219 -6.95757812 10.56148437 -8.19140625 11.01171875 C-9.11824219 11.33785156 -10.04507813 11.66398437 -11 12 C-10.01 12.33 -9.02 12.66 -8 13 C-8 13.66 -8 14.32 -8 15 C-7.278125 15.226875 -6.55625 15.45375 -5.8125 15.6875 C-0.98494999 17.94035667 1.77955101 21.27546803 4 26 C5.14116657 28.35657772 6.28711664 30.7104423 7.4375 33.0625 C7.73720703 33.68705078 8.03691406 34.31160156 8.34570312 34.95507812 C10.54679345 39.46333464 10.54679345 39.46333464 14 43 C14.99 43.33 15.98 43.66 17 44 C17.66 44.99 18.32 45.98 19 47 C22.89089761 44.17025628 25.87746483 40.97015552 28.98046875 37.33984375 C31.27405907 34.68247314 33.63177307 32.09103432 36 29.5 C39.59286239 25.56209138 43.13799315 21.59044542 46.625 17.55859375 C47.7065416 16.33264177 48.843996 15.156004 50 14 C50.16677282 10.41656024 50.16677282 10.41656024 50 7 C51.98 6.34 53.96 5.68 56 5 C56.495 5.99 56.495 5.99 57 7 C57.66 7 58.32 7 59 7 C59 6.34 59 5.68 59 5 C62 3 62 3 66 3 C66 3.66 66 4.32 66 5 C66.99 5.495 66.99 5.495 68 6 C67.38125 6.0825 66.7625 6.165 66.125 6.25 C63.86719166 6.8129497 63.86719166 6.8129497 62.75 8.8125 C61.78378378 11.24521396 61.78378378 11.24521396 62 15 C58.75649814 19.68505824 54.53708246 23.50554849 50.46484375 27.46484375 C45.02974208 32.66309365 45.02974208 32.66309365 40.5 38.625 C40.005 39.40875 39.51 40.1925 39 41 C38.34 41 37.68 41 37 41 C36.7525 41.71671875 36.505 42.4334375 36.25 43.171875 C34.8639789 46.30774775 33.16212175 48.59504167 31 51.25 C29.948125 52.55710937 29.948125 52.55710937 28.875 53.890625 C27 56 27 56 25 57 C24.53101037 59.8159849 24.53101037 59.8159849 24.375 63.0625 C24.30023438 64.16722656 24.22546875 65.27195312 24.1484375 66.41015625 C24.09945312 67.26480469 24.05046875 68.11945313 24 69 C21.525 69.495 21.525 69.495 19 70 C12.67916153 62.71885274 7.66720171 55.43965491 3 47 C1.13632387 43.34333039 1.13632387 43.34333039 -2 41 C-2 42.32 -2 43.64 -2 45 C-3.485 45.495 -3.485 45.495 -5 46 C-5.73323796 48.01508358 -5.73323796 48.01508358 -6 50 C-6.99 50 -7.98 50 -9 50 C-9.99 51.98 -10.98 53.96 -12 56 C-14.31 56 -16.62 56 -19 56 C-19 57.65 -19 59.3 -19 61 C-20.32 60.67 -21.64 60.34 -23 60 C-23.0270043 58.54176788 -23.04639787 57.08339325 -23.0625 55.625 C-23.07410156 54.81289062 -23.08570313 54.00078125 -23.09765625 53.1640625 C-23 51 -23 51 -22 49 C-22.66 49 -23.32 49 -24 49 C-24 48.01 -24 47.02 -24 46 C-24.66 45.67 -25.32 45.34 -26 45 C-26.625 42.4375 -26.625 42.4375 -27 40 C-26.34 40 -25.68 40 -25 40 C-24.67 39.34 -24.34 38.68 -24 38 C-23.34 38.99 -22.68 39.98 -22 41 C-21.67 38.36 -21.34 35.72 -21 33 C-20.34 33.33 -19.68 33.66 -19 34 C-19.0721875 33.38253906 -19.144375 32.76507813 -19.21875 32.12890625 C-19.84868198 26.38077691 -20.18359293 20.78317744 -20 15 C-19.67 14.67 -19.34 14.34 -19 14 C-20.32 13.34 -21.64 12.68 -23 12 C-23 10.35 -23 8.7 -23 7 C-5.47328244 0 -5.47328244 0 0 0 Z M-12 24 C-14.45723962 26.45723962 -13.98617404 32.39079353 -14.0625 35.75390625 C-14.0625 38.17012365 -14.04455326 40.58422331 -14 43 C-8.63009169 40.55227026 -8.63009169 40.55227026 -5.125 36.0625 C-4.96977048 33.50121292 -5.68498637 32.16590481 -7 30 C-7.66 30 -8.32 30 -9 30 C-9.66 28.02 -10.32 26.04 -11 24 C-11.33 24 -11.66 24 -12 24 Z " fill="#1D1D1E" transform="translate(73,62)"/>
<path d="M0 0 C5.09453672 -0.6175196 7.88366546 1.22939021 12 4 C12.33 4.99 12.66 5.98 13 7 C12.67 7.66 12.34 8.32 12 9 C12.77601562 8.87447754 13.55203125 8.74895508 14.3515625 8.61962891 C22.54896367 7.32227768 30.74928483 6.26746146 39 5.375 C40.16789062 5.2409375 41.33578125 5.106875 42.5390625 4.96875 C50.39032203 4.11573067 58.10492481 3.83770506 66 4 C66.495 4.99 66.495 4.99 67 6 C66.1028125 6.12375 66.1028125 6.12375 65.1875 6.25 C62.82699387 6.80383041 62.82699387 6.80383041 61.71875 9.03125 C60 11 60 11 57.30078125 11.390625 C56.31464844 11.34421875 55.32851563 11.2978125 54.3125 11.25 C53.31863281 11.21390625 52.32476562 11.1778125 51.30078125 11.140625 C50.54152344 11.09421875 49.78226563 11.0478125 49 11 C48.67 11.66 48.34 12.32 48 13 C45.875 13.5625 45.875 13.5625 43 14 C41.824375 14.226875 40.64875 14.45375 39.4375 14.6875 C36 15 36 15 34.23828125 13.99609375 C30.97082192 12.54198881 28.27865899 13.04827232 24.75 13.375 C22.5225 13.58125 20.295 13.7875 18 14 C22.95 14 27.9 14 33 14 C31.02 14.99 31.02 14.99 29 16 C27.29078411 17.5412312 27.29078411 17.5412312 26 19 C28.475 19.99 28.475 19.99 31 21 C30.34 22.65 29.68 24.3 29 26 C29.66 26 30.32 26 31 26 C31 26.66 31 27.32 31 28 C31.99 28.33 32.98 28.66 34 29 C41.6069218 34.98252704 41.75356 45.15375565 42.81982422 54.04223633 C43 56 43 56 43 59 C42.01 58.505 42.01 58.505 41 58 C41 57.34 41 56.68 41 56 C40.36707031 55.75894531 39.73414063 55.51789063 39.08203125 55.26953125 C37 54 37 54 36.13671875 52.01171875 C34.63373621 44.23541776 34.63373621 44.23541776 36 40 C34.02 40.66 32.04 41.32 30 42 C27.6251131 39.78624112 25.9244461 37.48700598 24.1875 34.75 C21.7546018 31.01223911 19.12224296 27.68643274 16.1015625 24.41015625 C15 23 15 23 15 21 C14.34 21.33 13.68 21.66 13 22 C10.6670134 22.04022391 8.33293334 22.04320247 6 22 C5.34 19.69 4.68 17.38 4 15 C4.33 14.67 4.66 14.34 5 14 C5.04063832 12.33382885 5.042721 10.66611905 5 9 C4.67 9.66 4.34 10.32 4 11 C1.03 10.505 1.03 10.505 -2 10 C-2.33 8.35 -2.66 6.7 -3 5 C-2.34 4.67 -1.68 4.34 -1 4 C-0.34786708 1.97536745 -0.34786708 1.97536745 0 0 Z " fill="#121214" transform="translate(4,17)"/>
<path d="M0 0 C0 0.66 0 1.32 0 2 C1.32 2.66 2.64 3.32 4 4 C0.04 5.98 0.04 5.98 -4 8 C0.29 6.02 4.58 4.04 9 2 C7.74646003 5.13384992 6.53924548 8.03145514 5 11 C8.69418201 9.768606 10.35109746 7.79208646 13 5 C13.99 5.495 13.99 5.495 15 6 C14.04882866 7.1725131 13.08882991 8.33787015 12.125 9.5 C11.59132813 10.1496875 11.05765625 10.799375 10.5078125 11.46875 C10.01023437 11.9740625 9.51265625 12.479375 9 13 C8.34 13 7.68 13 7 13 C6.731875 13.5775 6.46375 14.155 6.1875 14.75 C4.9402597 17.11319214 3.82496349 19.03985403 2 21 C-0.6875 21.75 -0.6875 21.75 -3 22 C-3 22.66 -3 23.32 -3 24 C-4.485 24.495 -4.485 24.495 -6 25 C-4.99598555 21.25776432 -3.69674911 18.38120517 -1.41796875 15.28515625 C-0.96574951 14.66648682 -0.51353027 14.04781738 -0.04760742 13.41040039 C0.29810303 12.94496826 0.64381348 12.47953613 1 12 C0.37134033 12.27674561 -0.25731934 12.55349121 -0.9050293 12.83862305 C-3.8311808 14.12465231 -6.75932591 15.40608303 -9.6875 16.6875 C-10.67556641 17.12255859 -11.66363281 17.55761719 -12.68164062 18.00585938 C-18.87655157 20.71237386 -25.11706391 23.22243665 -31.4362793 25.62280273 C-37.75978466 28.06651677 -44.02115212 30.66235088 -50.28735352 33.2487793 C-52.58972513 34.19873303 -54.89343288 35.14539299 -57.19726562 36.09179688 C-58.67455903 36.70032698 -60.1517755 37.30904393 -61.62890625 37.91796875 C-62.3111879 38.19819382 -62.99346954 38.47841888 -63.69642639 38.76713562 C-66.27094346 39.83171714 -68.80488627 40.89763392 -71.27319336 42.19262695 C-73 43 -73 43 -76 43 C-76 42.34 -76 41.68 -76 41 C-77.65 41 -79.3 41 -81 41 C-80.01 39.68 -79.02 38.36 -78 37 C-78.5775 37.350625 -79.155 37.70125 -79.75 38.0625 C-82.39786506 39.16577711 -83.33185326 38.80156509 -86 38 C-82.05426813 36.21914891 -78.10727862 34.44112234 -74.15917969 32.66552734 C-72.82062782 32.06308261 -71.48240231 31.45991214 -70.14453125 30.85595703 C-63.19414289 27.71891797 -56.23828249 24.65567166 -49.13671875 21.87207031 C-45.97305743 20.5808685 -42.97632029 19.06383734 -39.9375 17.5 C-35.42183888 15.20105152 -30.89111616 12.99402211 -26.2421875 10.9765625 C-23.45986456 9.76474937 -20.69926927 8.50790509 -17.9375 7.25 C-16.99777344 6.82203125 -16.05804688 6.3940625 -15.08984375 5.953125 C-14.40019531 5.63859375 -13.71054688 5.3240625 -13 5 C-16.72837646 5.71973876 -20.37227817 6.60396457 -24.03515625 7.59765625 C-26 8 -26 8 -30 8 C-30 7.34 -30 6.68 -30 6 C-28.17662109 5.58427734 -28.17662109 5.58427734 -26.31640625 5.16015625 C-24.73172693 4.79446102 -23.14709388 4.42856525 -21.5625 4.0625 C-20.76005859 3.88009766 -19.95761719 3.69769531 -19.13085938 3.50976562 C-15.25047271 2.90338992 -15.25047271 2.90338992 -12 1 C-9.96994518 1 -7.93935573 1.00357588 -5.91015625 1.0625 C-3.64392847 0.9883494 -2.28251638 0 0 0 Z M-10 2 C-10 2.66 -10 3.32 -10 4 C-9.01 3.67 -8.02 3.34 -7 3 C-7.99 2.67 -8.98 2.34 -10 2 Z M-16.66796875 11.96875 C-18.00698242 12.57783203 -18.00698242 12.57783203 -19.37304688 13.19921875 C-20.30181641 13.62847656 -21.23058594 14.05773437 -22.1875 14.5 C-23.12787109 14.92925781 -24.06824219 15.35851562 -25.03710938 15.80078125 C-27.36041769 16.86219114 -29.68120906 17.92876607 -32 19 C-28.48281298 20.17239567 -27.88165762 19.81331475 -24.5859375 18.41796875 C-23.32136719 17.88526367 -23.32136719 17.88526367 -22.03125 17.34179688 C-21.1546875 16.96087891 -20.278125 16.57996094 -19.375 16.1875 C-18.04855469 15.63352539 -18.04855469 15.63352539 -16.6953125 15.06835938 C-12.05793435 13.44295584 -12.05793435 13.44295584 -9 10 C-12.24619345 10 -13.75000673 10.63057634 -16.66796875 11.96875 Z M-40.04296875 21.77734375 C-40.75066406 22.16019531 -41.45835938 22.54304688 -42.1875 22.9375 C-42.90292969 23.31777344 -43.61835937 23.69804688 -44.35546875 24.08984375 C-45.16951172 24.54037109 -45.16951172 24.54037109 -46 25 C-43.14697801 26.30263511 -43.14697801 26.30263511 -40.95703125 25.22265625 C-40.24933594 24.83980469 -39.54164062 24.45695312 -38.8125 24.0625 C-38.09707031 23.68222656 -37.38164063 23.30195312 -36.64453125 22.91015625 C-36.10183594 22.60980469 -35.55914062 22.30945313 -35 22 C-37.85302199 20.69736489 -37.85302199 20.69736489 -40.04296875 21.77734375 Z " fill="#5F5E62" transform="translate(151,25)"/>
<path d="M0 0 C0 0.66 0 1.32 0 2 C0.66 2.33 1.32 2.66 2 3 C1.38125 3.0825 0.7625 3.165 0.125 3.25 C-2.13280834 3.8129497 -2.13280834 3.8129497 -3.25 5.8125 C-4.21621622 8.24521396 -4.21621622 8.24521396 -4 12 C-7.24350186 16.68505824 -11.46291754 20.50554849 -15.53515625 24.46484375 C-20.97025792 29.66309365 -20.97025792 29.66309365 -25.5 35.625 C-25.995 36.40875 -26.49 37.1925 -27 38 C-27.66 38 -28.32 38 -29 38 C-29.37318359 39.07507813 -29.37318359 39.07507813 -29.75390625 40.171875 C-31.12854353 43.29174142 -32.80397289 45.59600352 -34.9375 48.25 C-35.97197266 49.55710937 -35.97197266 49.55710937 -37.02734375 50.890625 C-39 53 -39 53 -42 54 C-42 53.34 -42 52.68 -42 52 C-42.99 52 -43.98 52 -45 52 C-44.01 49.03 -44.01 49.03 -43 46 C-43.66 46 -44.32 46 -45 46 C-45 42 -45 42 -43.0625 39.8125 C-42.04592789 38.87038106 -41.02437053 37.93363374 -40 37 C-34.23980953 31.48492401 -29.04096919 25.75420061 -24.0859375 19.50390625 C-22.30538084 17.36657138 -20.51767076 15.58113623 -18.4375 13.75 C-15.62860742 11.12404782 -15.62860742 11.12404782 -15.625 7.125 C-15.74875 6.09375 -15.8725 5.0625 -16 4 C-14.02 3.34 -12.04 2.68 -10 2 C-9.505 2.99 -9.505 2.99 -9 4 C-8.34 4 -7.68 4 -7 4 C-7 3.34 -7 2.68 -7 2 C-4 0 -4 0 0 0 Z " fill="#121213" transform="translate(139,65)"/>
<path d="M0 0 C1.65 0 3.3 0 5 0 C5 0.99 5 1.98 5 3 C3.35 3 1.7 3 0 3 C0.33 3.99 0.66 4.98 1 6 C2.65 5.67 4.3 5.34 6 5 C5.01 6.485 5.01 6.485 4 8 C3.34 7.67 2.68 7.34 2 7 C1.67 8.65 1.34 10.3 1 12 C2.98 11.67 4.96 11.34 7 11 C6.67 11.66 6.34 12.32 6 13 C4.68 13 3.36 13 2 13 C2.309375 13.9075 2.61875 14.815 2.9375 15.75 C3.7272263 18.16563338 4.42949297 20.52780285 5 23 C6.65 23.33 8.3 23.66 10 24 C9.67 24.66 9.34 25.32 9 26 C8.7724926 33.05272946 9.33493442 39.98118286 10 47 C9.34 46.67 8.68 46.34 8 46 C7.67 48.97 7.34 51.94 7 55 C6.38125 54.34 5.7625 53.68 5.125 53 C3.24362573 50.7715451 3.24362573 50.7715451 1 51 C1.33 52.65 1.66 54.3 2 56 C2.99 56.33 3.98 56.66 5 57 C4.67 57.99 4.34 58.98 4 60 C4.66 60 5.32 60 6 60 C5.67 63.63 5.34 67.26 5 71 C6.32 71.33 7.64 71.66 9 72 C9 70.35 9 68.7 9 67 C9.66 67.33 10.32 67.66 11 68 C10.67 69.65 10.34 71.3 10 73 C8.515 73.495 8.515 73.495 7 74 C4 72 4 72 3.15625 68.9453125 C2.9396875 67.68460937 2.723125 66.42390625 2.5 65.125 C2.25379708 63.75605935 2.00506665 62.38757103 1.75390625 61.01953125 C1.63031738 60.33842285 1.50672852 59.65731445 1.37939453 58.95556641 C0.84669209 56.20978357 0.15020861 53.51649499 -0.5625 50.8125 C-1.85475541 45.80585598 -2.77803026 40.79954176 -3.5703125 35.69140625 C-3.85115944 33.93228317 -4.16879354 32.17853809 -4.52734375 30.43359375 C-4.97799853 28.11328032 -5.23449667 25.85318146 -5.4375 23.5 C-5.71670317 20.73543096 -6.06101835 18.85084404 -7.125 16.25 C-8.23394137 13.39843649 -7.91165929 11.88692108 -7 9 C-6.34 8.01 -5.68 7.02 -5 6 C-5.061875 7.175625 -5.12375 8.35125 -5.1875 9.5625 C-5.19551559 14.06726361 -4.10475982 17.03333725 -2 21 C-1.34 21.33 -0.68 21.66 0 22 C0 22.66 0 23.32 0 24 C0.33 23.67 0.66 23.34 1 23 C0.76765959 20.97148953 0.46253979 18.95117914 0.125 16.9375 C-0.68569895 11.96375236 -1.41125613 7.00432288 -2 2 C-1.34 2 -0.68 2 0 2 C0 1.34 0 0.68 0 0 Z " fill="#49484C" transform="translate(45,51)"/>
<path d="M0 0 C0.99 0.33 1.98 0.66 3 1 C1.625 3 1.625 3 0 5 C-0.66 5 -1.32 5 -2 5 C-2 5.66 -2 6.32 -2 7 C-1.278125 6.38125 -0.55625 5.7625 0.1875 5.125 C2.80409849 3.14801447 4.87289305 1.92968044 8 1 C8.66 1.33 9.32 1.66 10 2 C10 2.99 10 3.98 10 5 C11.32 5.66 12.64 6.32 14 7 C13.52949219 7.37511719 13.05898437 7.75023437 12.57421875 8.13671875 C8.52939622 11.45212873 8.52939622 11.45212873 5.4375 15.625 C3.51958197 18.79373413 1.12551736 20.06217924 -2 22 C-3.68083079 23.31543279 -5.3524116 24.64316249 -7 26 C-7 25.34 -7 24.68 -7 24 C-7.66 23.67 -8.32 23.34 -9 23 C-6.25 18.125 -6.25 18.125 -4 17 C-4 16.34 -4 15.68 -4 15 C-6.31 15.66 -8.62 16.32 -11 17 C-11 17.66 -11 18.32 -11 19 C-11.99 19.33 -12.98 19.66 -14 20 C-14 19.01 -14 18.02 -14 17 C-15.32 17.33 -16.64 17.66 -18 18 C-16.57781759 14.47840547 -15.06022349 13.15056108 -11.8125 11.25 C-6.95427861 8.18413213 -3.5396835 4.48435788 0 0 Z " fill="#2F2E31" transform="translate(143,50)"/>
<path d="M0 0 C2.475 0.99 2.475 0.99 5 2 C4.34 3.65 3.68 5.3 3 7 C3.66 7 4.32 7 5 7 C5 7.66 5 8.32 5 9 C5.99 9.33 6.98 9.66 8 10 C15.6069218 15.98252704 15.75356 26.15375565 16.81982422 35.04223633 C17 37 17 37 17 40 C16.34 39.67 15.68 39.34 15 39 C15 38.34 15 37.68 15 37 C14.36707031 36.75894531 13.73414062 36.51789063 13.08203125 36.26953125 C11 35 11 35 10.13671875 33.01171875 C8.63373621 25.23541776 8.63373621 25.23541776 10 21 C8.02 21.66 6.04 22.32 4 23 C1.6251131 20.78624112 -0.0755539 18.48700598 -1.8125 15.75 C-4.2453982 12.01223911 -6.87775704 8.68643274 -9.8984375 5.41015625 C-11 4 -11 4 -11 2 C-9.68 2.33 -8.36 2.66 -7 3 C-7 3.99 -7 4.98 -7 6 C-6.34 5.67 -5.68 5.34 -5 5 C-5 4.34 -5 3.68 -5 3 C-4.34 3 -3.68 3 -3 3 C-3 3.66 -3 4.32 -3 5 C-2.34 5 -1.68 5 -1 5 C-1.33 5.66 -1.66 6.32 -2 7 C-0.71034824 8.37562854 0.62689293 9.70766393 2 11 C2.66 11 3.32 11 4 11 C3.34 10.113125 2.68 9.22625 2 8.3125 C0.01139933 5.01888014 -0.43735074 3.71748127 0 0 Z " fill="#6B6B6F" transform="translate(30,36)"/>
<path d="M0 0 C1.02577148 0.07831055 1.02577148 0.07831055 2.07226562 0.15820312 C3.73621169 0.28619898 5.3994473 0.42337719 7.0625 0.5625 C7.0625 1.2225 7.0625 1.8825 7.0625 2.5625 C8.3825 3.2225 9.7025 3.8825 11.0625 4.5625 C10.8975 5.18125 10.7325 5.8 10.5625 6.4375 C9.98615356 8.52313386 9.98615356 8.52313386 10.0625 10.5625 C10.0625 11.8825 10.0625 13.2025 10.0625 14.5625 C7.7525 15.8825 5.4425 17.2025 3.0625 18.5625 C3.0625 17.5725 3.0625 16.5825 3.0625 15.5625 C1.4125 15.8925 -0.2375 16.2225 -1.9375 16.5625 C-1.9375 17.2225 -1.9375 17.8825 -1.9375 18.5625 C-3.2575 18.8925 -4.5775 19.2225 -5.9375 19.5625 C-4.9475 17.5825 -3.9575 15.6025 -2.9375 13.5625 C-5.2475 13.8925 -7.5575 14.2225 -9.9375 14.5625 C-10.2675 15.5525 -10.5975 16.5425 -10.9375 17.5625 C-12.2575 17.5625 -13.5775 17.5625 -14.9375 17.5625 C-14.9375 16.9025 -14.9375 16.2425 -14.9375 15.5625 C-12.40527927 13.89846924 -9.7732279 12.47123772 -7.125 11 C-6.0421875 10.2884375 -6.0421875 10.2884375 -4.9375 9.5625 C-4.9375 8.9025 -4.9375 8.2425 -4.9375 7.5625 C-4.36 7.76875 -3.7825 7.975 -3.1875 8.1875 C-0.41782433 8.64911261 0.70811267 7.99194945 3.0625 6.5625 C2.0725 6.2325 1.0825 5.9025 0.0625 5.5625 C0.0625 4.9025 0.0625 4.2425 0.0625 3.5625 C-7.3625 2.5725 -7.3625 2.5725 -14.9375 1.5625 C-14.9375 1.2325 -14.9375 0.9025 -14.9375 0.5625 C-9.79660079 -0.33999856 -5.24023626 -0.41736395 0 0 Z " fill="#535355" transform="translate(186.9375,1.4375)"/>
<path d="M0 0 C-0.66 0.66 -1.32 1.32 -2 2 C-2.99 2 -3.98 2 -5 2 C-5 3.65 -5 5.3 -5 7 C-4.34 7.33 -3.68 7.66 -3 8 C-18.94981953 11.39979088 -34.8566351 14.64540638 -51 17 C-53.00089696 17.32790619 -55.00128253 17.65906071 -57 18 C-56.01 17.01 -55.02 16.02 -54 15 C-56.97 15 -59.94 15 -63 15 C-63 14.67 -63 14.34 -63 14 C-61.35 14 -59.7 14 -58 14 C-57.67 13.34 -57.34 12.68 -57 12 C-51.45925926 11.74814815 -51.45925926 11.74814815 -49.0625 13.0625 C-45.15383093 14.83916776 -41.13012194 13.41095343 -37.25 12 C-33.30290366 10.78550882 -29.60145025 10.66422117 -25.48828125 10.5390625 C-22.85090421 10.22253238 -22.85090421 10.22253238 -21.23046875 8.0234375 C-20.82441406 7.35570312 -20.41835937 6.68796875 -20 6 C-19.67 5.67 -19.34 5.34 -19 5 C-21.475 4.505 -21.475 4.505 -24 4 C-24 3.67 -24 3.34 -24 3 C-21.31374546 2.49236135 -18.62631617 1.99372803 -15.9375 1.5 C-15.18533203 1.35691406 -14.43316406 1.21382812 -13.65820312 1.06640625 C-9.02259825 0.223569 -4.7110385 -0.15015262 0 0 Z " fill="#18181B" transform="translate(87,17)"/>
<path d="M0 0 C0 0.66 0 1.32 0 2 C0.66 2.33 1.32 2.66 2 3 C1.38125 3.0825 0.7625 3.165 0.125 3.25 C-2.13280834 3.8129497 -2.13280834 3.8129497 -3.25 5.8125 C-4.21621622 8.24521396 -4.21621622 8.24521396 -4 12 C-5.3125 13.75 -5.3125 13.75 -7 15 C-7.99 15 -8.98 15 -10 15 C-10 15.99 -10 16.98 -10 18 C-13.62326739 19.2077558 -14.64146369 18.54311128 -18 17 C-17.86722656 16.40832031 -17.73445313 15.81664063 -17.59765625 15.20703125 C-16.68994822 11.14553475 -15.7908887 7.08625829 -15 3 C-13.35 2.67 -11.7 2.34 -10 2 C-9.67 2.66 -9.34 3.32 -9 4 C-8.34 4 -7.68 4 -7 4 C-7 3.34 -7 2.68 -7 2 C-4 0 -4 0 0 0 Z " fill="#080809" transform="translate(139,65)"/>
<path d="M0 0 C5.09453672 -0.6175196 7.88366546 1.22939021 12 4 C12.33 4.99 12.66 5.98 13 7 C12.67 7.66 12.34 8.32 12 9 C10.68 9 9.36 9 8 9 C8.33 10.65 8.66 12.3 9 14 C8.34 14 7.68 14 7 14 C7 14.66 7 15.32 7 16 C8.65 16 10.3 16 12 16 C12 16.66 12 17.32 12 18 C12.99 18.33 13.98 18.66 15 19 C15 19.66 15 20.32 15 21 C12.04335481 22.4783226 9.25770263 22.06032783 6 22 C5.34 19.69 4.68 17.38 4 15 C4.33 14.67 4.66 14.34 5 14 C5.04063832 12.33382885 5.042721 10.66611905 5 9 C4.67 9.66 4.34 10.32 4 11 C1.03 10.505 1.03 10.505 -2 10 C-2.33 8.35 -2.66 6.7 -3 5 C-2.34 4.67 -1.68 4.34 -1 4 C-0.34786708 1.97536745 -0.34786708 1.97536745 0 0 Z " fill="#2B2B2E" transform="translate(4,17)"/>
<path d="M0 0 C0.33 0 0.66 0 1 0 C0.94199219 0.75925781 0.88398437 1.51851563 0.82421875 2.30078125 C0.68939597 5.27073446 0.62993041 8.04815079 1 11 C3.30317533 13.30487721 3.30317533 13.30487721 6 14 C5.34 16.97 4.68 19.94 4 23 C2.02 23 0.04 23 -2 23 C-2 24.65 -2 26.3 -2 28 C-3.32 27.67 -4.64 27.34 -6 27 C-6.0270043 25.54176788 -6.04639787 24.08339325 -6.0625 22.625 C-6.07410156 21.81289062 -6.08570313 21.00078125 -6.09765625 20.1640625 C-6 18 -6 18 -5 16 C-5.66 16 -6.32 16 -7 16 C-7 15.01 -7 14.02 -7 13 C-7.66 12.67 -8.32 12.34 -9 12 C-9.625 9.4375 -9.625 9.4375 -10 7 C-9.34 7 -8.68 7 -8 7 C-7.67 6.34 -7.34 5.68 -7 5 C-6.34 7.97 -5.68 10.94 -5 14 C-4.34 14 -3.68 14 -3 14 C-2.814375 12.4840625 -2.814375 12.4840625 -2.625 10.9375 C-2.01914665 7.12062388 -1.12806088 3.68499888 0 0 Z " fill="#131314" transform="translate(56,95)"/>
<path d="M0 0 C0 3.55955169 -0.89341295 4.27899173 -3 7 C-3 7.66 -3 8.32 -3 9 C0.69418201 7.768606 2.35109746 5.79208646 5 3 C5.66 3.33 6.32 3.66 7 4 C6.04882866 5.1725131 5.08882991 6.33787015 4.125 7.5 C3.59132812 8.1496875 3.05765625 8.799375 2.5078125 9.46875 C2.01023438 9.9740625 1.51265625 10.479375 1 11 C0.34 11 -0.32 11 -1 11 C-1.268125 11.5775 -1.53625 12.155 -1.8125 12.75 C-3.0597403 15.11319214 -4.17503651 17.03985403 -6 19 C-8.6875 19.75 -8.6875 19.75 -11 20 C-11 20.66 -11 21.32 -11 22 C-11.99 22.33 -12.98 22.66 -14 23 C-12.58832253 17.73829306 -10.25149768 14.27828642 -7 10 C-8.98 10.66 -10.96 11.32 -13 12 C-13.33 11.01 -13.66 10.02 -14 9 C-14.99 9.66 -15.98 10.32 -17 11 C-19.1875 10.625 -19.1875 10.625 -21 10 C-20.39937744 9.7326001 -19.79875488 9.4652002 -19.17993164 9.18969727 C-16.47305806 7.98299972 -13.76776528 6.77279859 -11.0625 5.5625 C-9.64420898 4.93118164 -9.64420898 4.93118164 -8.19726562 4.28710938 C-6.84858398 3.68286133 -6.84858398 3.68286133 -5.47265625 3.06640625 C-4.64000244 2.69459229 -3.80734863 2.32277832 -2.94946289 1.93969727 C-1.04272188 1.15269891 -1.04272188 1.15269891 0 0 Z " fill="#67676B" transform="translate(159,27)"/>
<path d="M0 0 C0 0.66 0 1.32 0 2 C1.32 2.66 2.64 3.32 4 4 C-4.61340216 7.80443073 -13.21630152 11.60053977 -22 15 C-22 13.68 -22 12.36 -22 11 C-22.66 10.67 -23.32 10.34 -24 10 C-20.37 8.35 -16.74 6.7 -13 5 C-16.74478762 5.74895752 -20.35941982 6.60047627 -24.03515625 7.59765625 C-26 8 -26 8 -30 8 C-30 7.34 -30 6.68 -30 6 C-28.78441406 5.72285156 -27.56882812 5.44570313 -26.31640625 5.16015625 C-24.73172693 4.79446102 -23.14709388 4.42856525 -21.5625 4.0625 C-20.76005859 3.88009766 -19.95761719 3.69769531 -19.13085938 3.50976562 C-15.25047271 2.90338992 -15.25047271 2.90338992 -12 1 C-9.96994518 1 -7.93935573 1.00357588 -5.91015625 1.0625 C-3.64392847 0.9883494 -2.28251638 0 0 0 Z M-10 2 C-10 2.66 -10 3.32 -10 4 C-9.01 3.67 -8.02 3.34 -7 3 C-7.99 2.67 -8.98 2.34 -10 2 Z " fill="#6D6D70" transform="translate(151,25)"/>
<path d="M0 0 C0.99 0 1.98 0 3 0 C3.33 0.99 3.66 1.98 4 3 C4.66 3 5.32 3 6 3 C5.34 4.98 4.68 6.96 4 9 C4.99 9 5.98 9 7 9 C7 13.62 7 18.24 7 23 C5.35 23.33 3.7 23.66 2 24 C1.67 23.67 1.34 23.34 1 23 C1.28730055 20.66055264 1.61936779 18.3260857 2 16 C1.34 15.67 0.68 15.34 0 15 C0.33 14.67 0.66 14.34 1 14 C0.34 13.67 -0.32 13.34 -1 13 C-1.93393441 11.344389 -2.80102783 9.65049478 -3.625 7.9375 C-4.07101563 7.01839844 -4.51703125 6.09929687 -4.9765625 5.15234375 C-5.31429687 4.44207031 -5.65203125 3.73179688 -6 3 C-3 3 -3 3 0 4 C0 2.68 0 1.36 0 0 Z " fill="#151416" transform="translate(90,108)"/>
<path d="M0 0 C-1.5811292 0.50692692 -3.16501383 1.00526443 -4.75 1.5 C-5.63171875 1.7784375 -6.5134375 2.056875 -7.421875 2.34375 C-10 3 -10 3 -14 3 C-14 3.66 -14 4.32 -14 5 C-11.69 5 -9.38 5 -7 5 C-7 5.33 -7 5.66 -7 6 C-12.28 6.66 -17.56 7.32 -23 8 C-23.33 9.32 -23.66 10.64 -24 12 C-27.17242144 14.11494763 -27.78780305 14.21553741 -31.375 14.0625 C-34.74496639 13.98003753 -37.71222436 14.15154177 -41 15 C-41.33 14.01 -41.66 13.02 -42 12 C-40.02 12 -38.04 12 -36 12 C-36 11.34 -36 10.68 -36 10 C-30.06 9.505 -30.06 9.505 -24 9 C-24 8.34 -24 7.68 -24 7 C-22.68 7 -21.36 7 -20 7 C-19.67 6.01 -19.34 5.02 -19 4 C-21.475 3.505 -21.475 3.505 -24 3 C-24 3.66 -24 4.32 -24 5 C-28.95 5 -33.9 5 -39 5 C-35.90275887 2.93517258 -34.8481806 2.69601309 -31.28125 2.4375 C-29.88966675 2.32692261 -29.88966675 2.32692261 -28.4699707 2.21411133 C-27.48988037 2.14345459 -26.50979004 2.07279785 -25.5 2 C-18.54238472 1.44657256 -11.74669626 0.82126151 -4.92578125 -0.73046875 C-3 -1 -3 -1 0 0 Z " fill="#38383A" transform="translate(164,5)"/>
<path d="M0 0 C1.175625 0.00644531 2.35125 0.01289062 3.5625 0.01953125 C6.78705469 0.17709472 9.83179074 0.58380159 13 1.1875 C12.67 2.1775 12.34 3.1675 12 4.1875 C13.32 4.5175 14.64 4.8475 16 5.1875 C15.34 6.1775 14.68 7.1675 14 8.1875 C14 7.5275 14 6.8675 14 6.1875 C13.34 6.1875 12.68 6.1875 12 6.1875 C11.67 6.8475 11.34 7.5075 11 8.1875 C8.525 7.6925 8.525 7.6925 6 7.1875 C6 6.5275 6 5.8675 6 5.1875 C4.081875 5.249375 4.081875 5.249375 2.125 5.3125 C-0.0546875 5.3828125 -0.0546875 5.3828125 -2 5.1875 C-2.66 4.5275 -3.32 3.8675 -4 3.1875 C-2.68 3.1875 -1.36 3.1875 0 3.1875 C0 2.5275 0 1.8675 0 1.1875 C-2.64 1.8475 -5.28 2.5075 -8 3.1875 C-8.33 4.5075 -8.66 5.8275 -9 7.1875 C-14.28 7.1875 -19.56 7.1875 -25 7.1875 C-25 6.5275 -25 5.8675 -25 5.1875 C-24.20335937 4.99414062 -23.40671875 4.80078125 -22.5859375 4.6015625 C-21.52632812 4.34117187 -20.46671875 4.08078125 -19.375 3.8125 C-18.33085937 3.55726562 -17.28671875 3.30203125 -16.2109375 3.0390625 C-13.01129285 2.24394243 -13.01129285 2.24394243 -10.0390625 1.09765625 C-6.55613165 0.05456771 -3.63004908 -0.04378349 0 0 Z " fill="#050505" transform="translate(175,2.8125)"/>
<path d="M0 0 C-0.33 1.65 -0.66 3.3 -1 5 C-1.680625 5.103125 -2.36125 5.20625 -3.0625 5.3125 C-6.59122311 6.13837137 -9.67371048 7.56625452 -13 9 C-17.50706714 10.50235571 -21.24844989 11.23178293 -26 11 C-26 11.66 -26 12.32 -26 13 C-28.31 13 -30.62 13 -33 13 C-33 13.66 -33 14.32 -33 15 C-34.32 14.67 -35.64 14.34 -37 14 C-35.58480285 11.9656541 -34.45017877 11.09589607 -32.01953125 10.578125 C-30.01823046 10.33726048 -28.0090056 10.16467259 -26 10 C-26 9.34 -26 8.68 -26 8 C-5.82608696 0 -5.82608696 0 0 0 Z " fill="#0C0C0E" transform="translate(147,20)"/>
<path d="M0 0 C7.42857143 -0.28571429 7.42857143 -0.28571429 11 2 C10.01 2 9.02 2 8 2 C8 2.66 8 3.32 8 4 C7.34 4 6.68 4 6 4 C7.39195915 6.7839183 9.15575779 6.97898997 12 8 C11.01 8.495 11.01 8.495 10 9 C10 9.66 10 10.32 10 11 C12.64 10.67 15.28 10.34 18 10 C18.268125 11.051875 18.53625 12.10375 18.8125 13.1875 C19.8676829 16.57519246 21.04726378 19.07089567 23 22 C19.12867972 21.42647107 16.91827204 19.51295648 14 17 C14.99 16.34 15.98 15.68 17 15 C16.34 15 15.68 15 15 15 C15 14.34 15 13.68 15 13 C14.34 13 13.68 13 13 13 C13.33 13.99 13.66 14.98 14 16 C13.01 16 12.02 16 11 16 C11 15.01 11 14.02 11 13 C10.1028125 12.8453125 10.1028125 12.8453125 9.1875 12.6875 C6.68741714 11.90175967 5.62464918 11.03081147 4 9 C4 8.34 4 7.68 4 7 C2.35 7 0.7 7 -1 7 C-1 6.34 -1 5.68 -1 5 C-0.34 5 0.32 5 1 5 C0.67 3.35 0.34 1.7 0 0 Z " fill="#0A0A0B" transform="translate(12,26)"/>
<path d="M0 0 C0 0.66 0 1.32 0 2 C0.66 2.33 1.32 2.66 2 3 C1.03320312 3.12117188 0.06640625 3.24234375 -0.9296875 3.3671875 C-9.75584261 4.49533915 -9.75584261 4.49533915 -18.5 6.125 C-22.3936205 6.95934725 -26.00965071 7.07980699 -30 7 C-32.31036915 7.42854995 -32.31036915 7.42854995 -34 8 C-34 6.35 -34 4.7 -34 3 C-30.53456547 2.49868012 -27.06864204 2.00155664 -23.6015625 1.51171875 C-21.63659247 1.23253103 -19.67213597 0.94908596 -17.7109375 0.64453125 C-11.82067176 -0.22020989 -5.93607115 -0.08904107 0 0 Z " fill="#302F34" transform="translate(120,17)"/>
<path d="M0 0 C0 0.66 0 1.32 0 2 C1.65 1.67 3.3 1.34 5 1 C4.67 1.66 4.34 2.32 4 3 C6.64 2.01 9.28 1.02 12 0 C12 1.65 12 3.3 12 5 C8.87745057 6.33912585 5.75157642 7.67030658 2.625 9 C1.73554687 9.3815625 0.84609375 9.763125 -0.0703125 10.15625 C-0.92109375 10.5171875 -1.771875 10.878125 -2.6484375 11.25 C-3.43395996 11.58515625 -4.21948242 11.9203125 -5.02880859 12.265625 C-7 13 -7 13 -9 13 C-9 12.01 -9 11.02 -9 10 C-13.95 11.485 -13.95 11.485 -19 13 C-18 11 -18 11 -15 10 C-14.67 9.34 -14.34 8.68 -14 8 C-13.2575 8.0825 -12.515 8.165 -11.75 8.25 C-8.18757321 7.92614302 -7.42504449 6.50327173 -5 4 C-3.68 4 -2.36 4 -1 4 C-1 3.34 -1 2.68 -1 2 C-1.99 1.67 -2.98 1.34 -4 1 C-2 0 -2 0 0 0 Z " fill="#7B7B7F" transform="translate(104,47)"/>
<path d="M0 0 C0 0.66 0 1.32 0 2 C0.99 2 1.98 2 3 2 C7 19.14285714 7 19.14285714 7 26 C6.34 25.67 5.68 25.34 5 25 C5 24.34 5 23.68 5 23 C4.36449219 22.75636719 3.72898437 22.51273438 3.07421875 22.26171875 C1 21 1 21 0.20703125 19.08203125 C0.07683594 18.33308594 -0.05335937 17.58414063 -0.1875 16.8125 C-0.33703125 16.01070312 -0.4865625 15.20890625 -0.640625 14.3828125 C-0.95113754 12.32397938 -1.20012634 10.2560419 -1.4375 8.1875 C-2.01557935 4.91171699 -2.77681383 3.41650671 -5 1 C-2 0 -2 0 0 0 Z " fill="#0C0B0D" transform="translate(40,50)"/>
<path d="M0 0 C0 0.33 0 0.66 0 1 C-1.7015625 1.2165625 -1.7015625 1.2165625 -3.4375 1.4375 C-6.80777201 1.61171478 -6.80777201 1.61171478 -8 3 C-7.01 3.66 -6.02 4.32 -5 5 C-9.29 5.66 -13.58 6.32 -18 7 C-13.05 7 -8.1 7 -3 7 C-4.98 7.99 -4.98 7.99 -7 9 C-7.4125 9.515625 -7.825 10.03125 -8.25 10.5625 C-11.13252959 12.93029216 -14.34155006 12.70012705 -18 13 C-17.67 12.01 -17.34 11.02 -17 10 C-19.475 9.01 -19.475 9.01 -22 8 C-22 7.34 -22 6.68 -22 6 C-21.34 6 -20.68 6 -20 6 C-20.2784375 5.0409375 -20.2784375 5.0409375 -20.5625 4.0625 C-20.7790625 3.0415625 -20.7790625 3.0415625 -21 2 C-17.17469916 -1.82530084 -5.11817709 -0.08610018 0 0 Z " fill="#303032" transform="translate(40,24)"/>
<path d="M0 0 C0.33 0.99 0.66 1.98 1 3 C-1 6 -1 6 -2 7 C-1.01 7.33 -0.02 7.66 1 8 C-2.24477096 12.96259088 -4.85269416 15.89016939 -10 19 C-11.68083079 20.31543279 -13.3524116 21.64316249 -15 23 C-15 22.34 -15 21.68 -15 21 C-15.66 20.67 -16.32 20.34 -17 20 C-14.25 15.125 -14.25 15.125 -12 14 C-12 13.34 -12 12.68 -12 12 C-11.34 12 -10.68 12 -10 12 C-10 11.34 -10 10.68 -10 10 C-9.34 10 -8.68 10 -8 10 C-7.79375 9.46375 -7.5875 8.9275 -7.375 8.375 C-5.42003056 4.9982346 -2.81776305 2.69525161 0 0 Z " fill="#7E7D81" transform="translate(151,53)"/>
<path d="M0 0 C0.0625 2.25 0.0625 2.25 -1 5 C-4.31079993 7.02398511 -8.06322849 9 -12 9 C-12.33 9.66 -12.66 10.32 -13 11 C-15.72265625 11.6328125 -15.72265625 11.6328125 -19.0625 12.125 C-20.16722656 12.29257812 -21.27195312 12.46015625 -22.41015625 12.6328125 C-23.69212891 12.81457031 -23.69212891 12.81457031 -25 13 C-24.71606445 11.11572266 -24.71606445 11.11572266 -24 9 C-21.38403563 7.59890722 -18.92966737 6.45939165 -16.1875 5.375 C-14.74321446 4.77931245 -13.29919578 4.1829774 -11.85546875 3.5859375 C-11.17661621 3.31233398 -10.49776367 3.03873047 -9.79833984 2.75683594 C-7.89257808 1.98763143 -7.89257808 1.98763143 -5.73828125 0.7890625 C-4 0 -4 0 0 0 Z " fill="#58575B" transform="translate(129,36)"/>
<path d="M0 0 C2.2476599 3.37148985 2.79798837 5.9237222 3.625 9.875 C3.88539062 11.08929688 4.14578125 12.30359375 4.4140625 13.5546875 C4.91001844 16.47090842 5.12312593 19.05617097 5 22 C4.38125 21.34 3.7625 20.68 3.125 20 C1.24362573 17.7715451 1.24362573 17.7715451 -1 18 C-0.67 19.65 -0.34 21.3 0 23 C0.99 23.33 1.98 23.66 3 24 C2.67 24.99 2.34 25.98 2 27 C2.66 27 3.32 27 4 27 C3.67 30.63 3.34 34.26 3 38 C4.32 38.33 5.64 38.66 7 39 C7 37.35 7 35.7 7 34 C7.66 34.33 8.32 34.66 9 35 C8.505 37.475 8.505 37.475 8 40 C6.515 40.495 6.515 40.495 5 41 C2 39 2 39 1.15625 35.9453125 C0.9396875 34.68460938 0.723125 33.42390625 0.5 32.125 C0.25655627 30.76384629 0.01042389 29.40317095 -0.23828125 28.04296875 C-0.36154785 27.36282715 -0.48481445 26.68268555 -0.61181641 25.98193359 C-1.35910547 22.16652944 -2.41330596 18.4288169 -3.44921875 14.68359375 C-4.05576935 11.72827274 -4.09278516 9.00889023 -4 6 C-3.67 6 -3.34 6 -3 6 C-2.67 8.64 -2.34 11.28 -2 14 C-1.01 14 -0.02 14 1 14 C0.67 9.38 0.34 4.76 0 0 Z " fill="#929194" transform="translate(47,84)"/>
<path d="M0 0 C0 0.99 0 1.98 0 3 C-0.639375 3.103125 -1.27875 3.20625 -1.9375 3.3125 C-2.618125 3.539375 -3.29875 3.76625 -4 4 C-4.33 4.99 -4.66 5.98 -5 7 C-7.36328125 8.16796875 -7.36328125 8.16796875 -10.3125 9.1875 C-11.27800781 9.53167969 -12.24351563 9.87585937 -13.23828125 10.23046875 C-16 11 -16 11 -20 11 C-19.67 9.35 -19.34 7.7 -19 6 C-18.01 5.67 -17.02 5.34 -16 5 C-15.67 4.34 -15.34 3.68 -15 3 C-12.890625 2.1484375 -12.890625 2.1484375 -10.25 1.375 C-8.95835938 0.98441406 -8.95835938 0.98441406 -7.640625 0.5859375 C-5.00270994 0.00060132 -2.69198424 -0.10651736 0 0 Z " fill="#39393C" transform="translate(66,52)"/>
<path d="M0 0 C1.32 0.33 2.64 0.66 4 1 C4 1.66 4 2.32 4 3 C3.67 3.33 3.34 3.66 3 4 C3.33773437 4.48984375 3.67546875 4.9796875 4.0234375 5.484375 C5.42458167 9.09372237 4.95852024 12.47455089 4.625 16.25 C4.56828125 16.99507812 4.5115625 17.74015625 4.453125 18.5078125 C4.31223742 20.33935108 4.15748116 22.16981352 4 24 C3.34 23.67 2.68 23.34 2 23 C2 21.35 2 19.7 2 18 C0.0549 20.91765 -0.45276317 22.62537285 -1 26 C-1.66 26 -2.32 26 -3 26 C-3.33 24.02 -3.66 22.04 -4 20 C-3.67 20 -3.34 20 -3 20 C-2.67 17.36 -2.34 14.72 -2 12 C-1.34 12.33 -0.68 12.66 0 13 C0 8.71 0 4.42 0 0 Z " fill="#202022" transform="translate(54,83)"/>
<path d="M0 0 C0.66 0.33 1.32 0.66 2 1 C-0.24887569 4.37331354 -1.2387963 4.8358179 -5 6 C-6.32 6 -7.64 6 -9 6 C-8.67 7.98 -8.34 9.96 -8 12 C-10.64 12 -13.28 12 -16 12 C-15.34 11.67 -14.68 11.34 -14 11 C-14.33 10.34 -14.66 9.68 -15 9 C-19.455 9.495 -19.455 9.495 -24 10 C-22.68 9.34 -21.36 8.68 -20 8 C-18.9790625 6.948125 -18.9790625 6.948125 -17.9375 5.875 C-16 4 -16 4 -13 4 C-13 3.34 -13 2.68 -13 2 C-9.7 2.33 -6.4 2.66 -3 3 C-3 2.34 -3 1.68 -3 1 C-2.01 0.67 -1.02 0.34 0 0 Z " fill="#1F1F21" transform="translate(165,16)"/>
<path d="M0 0 C-0.66 0 -1.32 0 -2 0 C-2 0.66 -2 1.32 -2 2 C-3.65 2 -5.3 2 -7 2 C-7.66 3.32 -8.32 4.64 -9 6 C-8.01 6.33 -7.02 6.66 -6 7 C-8.41695751 9.41695751 -9.68050247 9.45961668 -13 10 C-13.845625 10.20625 -14.69125 10.4125 -15.5625 10.625 C-18 11 -18 11 -19.9375 10.375 C-22.2375 9.74375 -22.2375 9.74375 -25 11.5 C-28.26594121 13.13297061 -28.74195318 13.0672912 -32 12 C-28.85432856 10.58297367 -25.70843249 9.16644667 -22.5625 7.75 C-21.24475586 7.15638672 -21.24475586 7.15638672 -19.90039062 6.55078125 C-18.13687784 5.75687512 -16.37206309 4.96585472 -14.60595703 4.17773438 C-12.87458489 3.39525927 -11.15135086 2.59451095 -9.43701172 1.77539062 C-8.24422607 1.21368164 -8.24422607 1.21368164 -7.02734375 0.640625 C-6.322146 0.30063477 -5.61694824 -0.03935547 -4.89038086 -0.38964844 C-3 -1 -3 -1 0 0 Z " fill="#606063" transform="translate(110,33)"/>
<path d="M0 0 C-3.47774426 2.03038735 -6.78626064 2.6176476 -10.7421875 3.25390625 C-11.38817902 3.35968491 -12.03417053 3.46546356 -12.69973755 3.57444763 C-14.7572193 3.90993259 -16.81601689 4.2363698 -18.875 4.5625 C-20.25139963 4.78520528 -21.62770294 5.00850669 -23.00390625 5.23242188 C-25.54485425 5.64506313 -28.08633973 6.05352689 -30.62841797 6.45922852 C-33.75442516 6.960612 -36.87770581 7.47604726 -40 8 C-39.01 7.01 -38.02 6.02 -37 5 C-39.97 5 -42.94 5 -46 5 C-46 4.67 -46 4.34 -46 4 C-44.35 4 -42.7 4 -41 4 C-40.67 3.34 -40.34 2.68 -40 2 C-34.45925926 1.74814815 -34.45925926 1.74814815 -32.0625 3.0625 C-28.15383093 4.83916776 -24.13012194 3.41095343 -20.25 2 C-13.77137194 0.00657598 -6.74977179 -0.18242626 0 0 Z " fill="#59595C" transform="translate(70,27)"/>
<path d="M0 0 C0.7425 0.0825 1.485 0.165 2.25 0.25 C2.25 0.91 2.25 1.57 2.25 2.25 C1.26 2.745 1.26 2.745 0.25 3.25 C2.89 3.58 5.53 3.91 8.25 4.25 C8.25 4.91 8.25 5.57 8.25 6.25 C5.34399739 7.50664978 3.45395416 8.25 0.25 8.25 C0.25 8.91 0.25 9.57 0.25 10.25 C-1.4 10.25 -3.05 10.25 -4.75 10.25 C-5.41 8.27 -6.07 6.29 -6.75 4.25 C-3.42692308 0.31153846 -3.42692308 0.31153846 0 0 Z " fill="#3B3B3E" transform="translate(172.75,3.75)"/>
<path d="M0 0 C-2.40804568 2.40804568 -4.42203775 3.00768759 -7.625 4.125 C-8.62789063 4.47820312 -9.63078125 4.83140625 -10.6640625 5.1953125 C-11.82035156 5.59363281 -11.82035156 5.59363281 -13 6 C-12.01 6.33 -11.02 6.66 -10 7 C-10 7.66 -10 8.32 -10 9 C-8.8553125 9.3403125 -8.8553125 9.3403125 -7.6875 9.6875 C-4.45263699 11.26731682 -3.58358642 12.83282717 -2 16 C-2.66 16 -3.32 16 -4 16 C-4.33 16.99 -4.66 17.98 -5 19 C-5.474375 18.030625 -5.94875 17.06125 -6.4375 16.0625 C-7.70193947 13.19522563 -7.70193947 13.19522563 -9 12 C-9 11.34 -9 10.68 -9 10 C-9.66 10 -10.32 10 -11 10 C-11 9.34 -11 8.68 -11 8 C-12.32 8 -13.64 8 -15 8 C-15.33 7.01 -15.66 6.02 -16 5 C-9.80228139 -0.02517725 -7.7719882 -1.27409643 0 0 Z " fill="#49484C" transform="translate(75,68)"/>
<path d="M0 0 C1.01423522 3.04270565 1.47379119 4.84139207 1 8 C-1.3832946 9.81883009 -2.95818337 11 -6 11 C-6 11.66 -6 12.32 -6 13 C-6.99 13.33 -7.98 13.66 -9 14 C-9 13.01 -9 12.02 -9 11 C-10.32 11.33 -11.64 11.66 -13 12 C-11.551082 8.36195588 -9.79639934 6.91919569 -6.5 4.875 C-4.05297382 3.34163619 -2.04652463 2.04652463 0 0 Z " fill="#424146" transform="translate(138,56)"/>
<path d="M0 0 C0.33 0 0.66 0 1 0 C0.94199219 0.75925781 0.88398437 1.51851563 0.82421875 2.30078125 C0.68939597 5.27073446 0.62993041 8.04815079 1 11 C3.30317533 13.30487721 3.30317533 13.30487721 6 14 C5.67 14.99 5.34 15.98 5 17 C4.34 17 3.68 17 3 17 C3 18.65 3 20.3 3 22 C2.01 21.67 1.02 21.34 0 21 C0 19.68 0 18.36 0 17 C-0.66 17 -1.32 17 -2 17 C-3.25 9.375 -3.25 9.375 -1 6 C-0.60986284 4.0103005 -0.26797351 2.00980131 0 0 Z " fill="#040404" transform="translate(56,95)"/>
<path d="M0 0 C0.66 0 1.32 0 2 0 C3.34495828 7.09705662 4.24091535 13.7725395 4 21 C3.01 21 2.02 21 1 21 C-0.88838257 14.74473275 -3.06813187 6.13626374 0 0 Z " fill="#121214" transform="translate(44,77)"/>
<path d="M0 0 C1.02577148 0.07831055 1.02577148 0.07831055 2.07226562 0.15820312 C3.73621169 0.28619898 5.3994473 0.42337719 7.0625 0.5625 C7.0625 1.2225 7.0625 1.8825 7.0625 2.5625 C7.7225 2.5625 8.3825 2.5625 9.0625 2.5625 C8.7325 4.2125 8.4025 5.8625 8.0625 7.5625 C6.7425 7.5625 5.4225 7.5625 4.0625 7.5625 C4.0625 6.9025 4.0625 6.2425 4.0625 5.5625 C2.7425 5.5625 1.4225 5.5625 0.0625 5.5625 C0.0625 4.9025 0.0625 4.2425 0.0625 3.5625 C-7.3625 2.5725 -7.3625 2.5725 -14.9375 1.5625 C-14.9375 1.2325 -14.9375 0.9025 -14.9375 0.5625 C-9.79660079 -0.33999856 -5.24023626 -0.41736395 0 0 Z " fill="#434346" transform="translate(186.9375,1.4375)"/>
<path d="M0 0 C0 0.66 0 1.32 0 2 C-0.66 2 -1.32 2 -2 2 C-2.33 2.99 -2.66 3.98 -3 5 C-3.66 5.66 -4.32 6.32 -5 7 C-8.9795702 6.64626043 -12.35688886 5.60725491 -16 4 C-14 1 -14 1 -10.8125 0.3125 C-7.18514304 0.01517566 -3.63746198 -0.07423392 0 0 Z " fill="#09090A" transform="translate(47,24)"/>
<path d="M0 0 C0 3 0 3 -2.4375 5.5 C-3.283125 6.325 -4.12875 7.15 -5 8 C-5.33 8.99 -5.66 9.98 -6 11 C-5.01 11.33 -4.02 11.66 -3 12 C-3.639375 12.28875 -4.27875 12.5775 -4.9375 12.875 C-7.15206079 13.82823451 -7.15206079 13.82823451 -8 16 C-8 15.01 -8 14.02 -8 13 C-10.88575819 13.39803561 -11.82189513 13.79009069 -13.75 16.0625 C-14.1625 16.701875 -14.575 17.34125 -15 18 C-15.99 17.67 -16.98 17.34 -18 17 C-12.65671903 10.45448081 -6.79794974 5.01537626 0 0 Z " fill="#A3A2A6" transform="translate(175,32)"/>
<path d="M0 0 C-0.515625 0.391875 -1.03125 0.78375 -1.5625 1.1875 C-2.036875 1.785625 -2.51125 2.38375 -3 3 C-2.76956136 5.65466049 -2.76956136 5.65466049 -2 8 C-2.721875 7.95875 -3.44375 7.9175 -4.1875 7.875 C-7.0365789 7.84491096 -7.0365789 7.84491096 -9.625 9.0625 C-12 10 -12 10 -15 9 C-14.34 9 -13.68 9 -13 9 C-12.67 8.01 -12.34 7.02 -12 6 C-9.9375 4.8125 -9.9375 4.8125 -8 4 C-8 3.34 -8 2.68 -8 2 C-10.31 2 -12.62 2 -15 2 C-15 1.67 -15 1.34 -15 1 C-9.91913204 0.15318867 -5.15171623 -0.09038099 0 0 Z " fill="#212022" transform="translate(55,22)"/>
<path d="M0 0 C-0.66 0.66 -1.32 1.32 -2 2 C-2.99 2 -3.98 2 -5 2 C-5 3.65 -5 5.3 -5 7 C-4.34 7.33 -3.68 7.66 -3 8 C-5.475 7.505 -5.475 7.505 -8 7 C-8.33 6.01 -8.66 5.02 -9 4 C-13.64569382 3.84301468 -13.64569382 3.84301468 -18.1875 4.625 C-20.67074537 5.1387749 -21.82541523 4.17958843 -24 3 C-21.31374546 2.49236135 -18.62631617 1.99372803 -15.9375 1.5 C-15.18533203 1.35691406 -14.43316406 1.21382812 -13.65820312 1.06640625 C-9.02259825 0.223569 -4.7110385 -0.15015262 0 0 Z " fill="#4D4D50" transform="translate(87,17)"/>
<path d="M0 0 C0.33 0 0.66 0 1 0 C1 2.64 1 5.28 1 8 C1.61875 7.505 2.2375 7.01 2.875 6.5 C5 5 5 5 7 5 C7 7 7 7 5.5 8.625 C5.005 9.07875 4.51 9.5325 4 10 C5.65 10.33 7.3 10.66 9 11 C9 12.32 9 13.64 9 15 C8.01 15 7.02 15 6 15 C5.01 16.98 4.02 18.96 3 21 C2.67 21 2.34 21 2 21 C1.92572162 17.65747276 1.93453047 15.1964086 3 12 C2.01 11.67 1.02 11.34 0 11 C0 7.37 0 3.74 0 0 Z " fill="#6A696D" transform="translate(58,97)"/>
<path d="M0 0 C0.78375 0.04125 1.5675 0.0825 2.375 0.125 C1.385 0.62 1.385 0.62 0.375 1.125 C-0.28055119 3.65233235 -0.28055119 3.65233235 -0.625 6.125 C-1.945 6.455 -3.265 6.785 -4.625 7.125 C-4.625 7.785 -4.625 8.445 -4.625 9.125 C-6 10.75 -6 10.75 -7.625 12.125 C-8.285 12.125 -8.945 12.125 -9.625 12.125 C-9.955 9.815 -10.285 7.505 -10.625 5.125 C-9.305 5.455 -7.985 5.785 -6.625 6.125 C-6.33625 5.50625 -6.0475 4.8875 -5.75 4.25 C-4.16515329 1.25640067 -3.47581022 0.16551477 0 0 Z " fill="#5B5A5E" transform="translate(166.625,43.875)"/>
<path d="M0 0 C-1 3 -1 3 -4 5 C-6.0859375 5.16015625 -6.0859375 5.16015625 -8.375 5.0625 C-11.74496639 4.98003753 -14.71222436 5.15154177 -18 6 C-18.33 5.01 -18.66 4.02 -19 3 C-17.02 3 -15.04 3 -13 3 C-13 2.34 -13 1.68 -13 1 C-8.60563789 0.14256349 -4.47427924 -0.08948558 0 0 Z " fill="#3B3B3E" transform="translate(141,14)"/>
<path d="M0 0 C2.475 0.99 2.475 0.99 5 2 C4.34 3.65 3.68 5.3 3 7 C3.66 7 4.32 7 5 7 C5 7.66 5 8.32 5 9 C5.99 9.33 6.98 9.66 8 10 C9.38576923 11.62332967 10.72641268 13.28724465 12 15 C11.01 15.495 11.01 15.495 10 16 C10 15.34 10 14.68 10 14 C8.02 14.33 6.04 14.66 4 15 C3.34 14.01 2.68 13.02 2 12 C2.66 11.67 3.32 11.34 4 11 C3.34 10.113125 2.68 9.22625 2 8.3125 C0.01139933 5.01888014 -0.43735074 3.71748127 0 0 Z " fill="#38383A" transform="translate(30,36)"/>
<path d="M0 0 C0.99 0 1.98 0 3 0 C3.33 0.99 3.66 1.98 4 3 C4.66 3 5.32 3 6 3 C5.34 4.65 4.68 6.3 4 8 C3.67 7.01 3.34 6.02 3 5 C2.01 5.495 2.01 5.495 1 6 C1 8.31 1 10.62 1 13 C0.34 13 -0.32 13 -1 13 C-2.65 9.7 -4.3 6.4 -6 3 C-3 3 -3 3 0 4 C0 2.68 0 1.36 0 0 Z " fill="#6C6B70" transform="translate(90,108)"/>
<path d="M0 0 C0.144375 0.61875 0.28875 1.2375 0.4375 1.875 C0.93152225 4.03258322 0.93152225 4.03258322 2 6 C3.64363134 6.72159424 5.31050386 7.39351421 7 8 C7 9.32 7 10.64 7 12 C5.68 11.67 4.36 11.34 3 11 C3 10.01 3 9.02 3 8 C-0.50061082 8.64826126 -2.98810679 10.14652725 -6 12 C-6.99 12.33 -7.98 12.66 -9 13 C-9 11 -9 11 -7.0625 9 C-6.381875 8.34 -5.70125 7.68 -5 7 C-4.67 6.34 -4.34 5.68 -4 5 C-3.34 5 -2.68 5 -2 5 C-2 4.34 -2 3.68 -2 3 C-1.34 3 -0.68 3 0 3 C0 2.01 0 1.02 0 0 Z " fill="#0E0E10" transform="translate(150,44)"/>
<path d="M0 0 C0.99 0 1.98 0 3 0 C3 0.99 3 1.98 3 3 C1.2984375 3.433125 1.2984375 3.433125 -0.4375 3.875 C-1.613125 4.24625 -2.78875 4.6175 -4 5 C-4.33 5.66 -4.66 6.32 -5 7 C-6.32 7 -7.64 7 -9 7 C-9 7.66 -9 8.32 -9 9 C-8.34 9.33 -7.68 9.66 -7 10 C-7.66 10 -8.32 10 -9 10 C-9 10.66 -9 11.32 -9 12 C-10.32 11.67 -11.64 11.34 -13 11 C-13 9.35 -13 7.7 -13 6 C-8.63799813 3.55302334 -4.97306516 2.49730652 0 2 C0 1.34 0 0.68 0 0 Z " fill="#131315" transform="translate(95,13)"/>
<path d="M0 0 C1.65 0 3.3 0 5 0 C3.68 0.33 2.36 0.66 1 1 C1 1.99 1 2.98 1 4 C2.32 4.33 3.64 4.66 5 5 C4.67 6.98 4.34 8.96 4 11 C1.03 10.505 1.03 10.505 -2 10 C-2.33 8.35 -2.66 6.7 -3 5 C-2.34 4.67 -1.68 4.34 -1 4 C-0.34786708 1.97536745 -0.34786708 1.97536745 0 0 Z " fill="#5D5C5F" transform="translate(4,17)"/>
<path d="M0 0 C-0.33 0.66 -0.66 1.32 -1 2 C0.32 2.33 1.64 2.66 3 3 C2.01 4.485 2.01 4.485 1 6 C1 5.34 1 4.68 1 4 C0.34 4 -0.32 4 -1 4 C-1.33 4.66 -1.66 5.32 -2 6 C-3.65 5.67 -5.3 5.34 -7 5 C-7 4.34 -7 3.68 -7 3 C-9.64 3 -12.28 3 -15 3 C-10.42919136 0.44034716 -5.14097791 -2.05639116 0 0 Z " fill="#020202" transform="translate(188,5)"/>
<path d="M0 0 C0.33 0.99 0.66 1.98 1 3 C-1 6 -1 6 -2 7 C-1.01 7.33 -0.02 7.66 1 8 C-4.625 13 -4.625 13 -8 13 C-8.36795695 9.7171341 -8.3231932 8.41336988 -6.25 5.76171875 C-5.13625 4.73498047 -5.13625 4.73498047 -4 3.6875 C-3.2575 2.99011719 -2.515 2.29273438 -1.75 1.57421875 C-1.1725 1.05472656 -0.595 0.53523438 0 0 Z " fill="#3C3B40" transform="translate(151,53)"/>
<path d="M0 0 C0 0.99 0 1.98 0 3 C1.32 3.66 2.64 4.32 4 5 C0.93882432 7.62386487 0.26826873 8 -4 8 C-4.33 8.66 -4.66 9.32 -5 10 C-5 7 -5 7 -3.5 5.3125 C-3.005 4.879375 -2.51 4.44625 -2 4 C-2.33 3.67 -2.66 3.34 -3 3 C-4.32 3.99 -5.64 4.98 -7 6 C-7.66 5.67 -8.32 5.34 -9 5 C-8.00233891 2.50584728 -7.31383315 1.21259665 -5.0625 -0.3125 C-3 -1 -3 -1 0 0 Z " fill="#343437" transform="translate(153,52)"/>
<path d="M0 0 C0 0.66 0 1.32 0 2 C2.64 1.67 5.28 1.34 8 1 C5.39473112 3.60526888 2.82060766 4.34134224 -0.625 5.625 C-1.81351563 6.07101563 -3.00203125 6.51703125 -4.2265625 6.9765625 C-5.14179688 7.31429687 -6.05703125 7.65203125 -7 8 C-7 6.68 -7 5.36 -7 4 C-7.66 3.67 -8.32 3.34 -9 3 C-3.375 0 -3.375 0 0 0 Z " fill="#666569" transform="translate(136,32)"/>
<path d="M0 0 C0.66 0.33 1.32 0.66 2 1 C1.67 1.33 1.34 1.66 1 2 C1.99 2.33 2.98 2.66 4 3 C4 2.34 4 1.68 4 1 C5.98 1 7.96 1 10 1 C4.31938835 4.78707443 -2.05594232 7.73095344 -9 7 C-8 4 -8 4 -7 3 C-5.33382885 2.95936168 -3.66611905 2.957279 -2 3 C-2 2.34 -2 1.68 -2 1 C-1.34 0.67 -0.68 0.34 0 0 Z " fill="#4E4D51" transform="translate(110,32)"/>
<path d="M0 0 C0 0.66 0 1.32 0 2 C-0.8971875 2.1546875 -0.8971875 2.1546875 -1.8125 2.3125 C-4.06520371 2.81598495 -4.06520371 2.81598495 -5.34375 4.5 C-7.4719888 6.42746155 -8.85666041 6.4823667 -11.6875 6.6875 C-12.49574219 6.75324219 -13.30398437 6.81898437 -14.13671875 6.88671875 C-15.05904297 6.94279297 -15.05904297 6.94279297 -16 7 C-10.55226178 1.24960965 -7.9911838 -0.30735322 0 0 Z " fill="#222124" transform="translate(103,49)"/>
<path d="M0 0 C0.66 0.33 1.32 0.66 2 1 C-0.24887569 4.37331354 -1.2387963 4.8358179 -5 6 C-6.32 6 -7.64 6 -9 6 C-8.67 7.98 -8.34 9.96 -8 12 C-8.66 12 -9.32 12 -10 12 C-10 10.68 -10 9.36 -10 8 C-10.99 7.67 -11.98 7.34 -13 7 C-13 5.35 -13 3.7 -13 2 C-9.7 2.33 -6.4 2.66 -3 3 C-3 2.34 -3 1.68 -3 1 C-2.01 0.67 -1.02 0.34 0 0 Z " fill="#6B6A6E" transform="translate(165,16)"/>
<path d="M0 0 C0.66 1.32 1.32 2.64 2 4 C0.35 4.33 -1.3 4.66 -3 5 C-2.34 6.32 -1.68 7.64 -1 9 C-1.66 9 -2.32 9 -3 9 C-3 9.66 -3 10.32 -3 11 C-4.32 10.67 -5.64 10.34 -7 10 C-6.855625 9.443125 -6.71125 8.88625 -6.5625 8.3125 C-5.97230872 5.88615805 -5.476571 3.45093655 -5 1 C-2 0 -2 0 0 0 Z " fill="#201F22" transform="translate(129,67)"/>
<path d="M0 0 C0 0.66 0 1.32 0 2 C0.99 2 1.98 2 3 2 C3.33 4.31 3.66 6.62 4 9 C3.34 8.34 2.68 7.68 2 7 C1.34 9.64 0.68 12.28 0 15 C-1 12 -1 12 -1.375 8.5625 C-1.99046979 5.05432219 -2.63625434 3.56928876 -5 1 C-2 0 -2 0 0 0 Z " fill="#111113" transform="translate(40,50)"/>
<path d="M0 0 C-0.5625 1.8125 -0.5625 1.8125 -2 4 C-5.50990464 5.78686054 -8.04124604 7 -12 7 C-11.08137175 3.82655696 -10.61971964 2.35173277 -7.6875 0.6875 C-4.99859913 -0.00035836 -2.76192463 -0.15782426 0 0 Z " fill="#434246" transform="translate(127,44)"/>
<path d="M0 0 C2 0 2 0 3.76171875 1.609375 C4.39722656 2.31578125 5.03273438 3.0221875 5.6875 3.75 C6.33074219 4.44609375 6.97398438 5.1421875 7.63671875 5.859375 C9 8 9 8 8.70703125 10.265625 C8.47371094 10.83796875 8.24039063 11.4103125 8 12 C6.140625 11.77734375 6.140625 11.77734375 4 11 C2.734375 9.00390625 2.734375 9.00390625 1.75 6.5625 C1.41484375 5.75941406 1.0796875 4.95632812 0.734375 4.12890625 C0 2 0 2 0 0 Z " fill="#616163" transform="translate(28,47)"/>
<path d="M0 0 C0.33 0 0.66 0 1 0 C1.36508677 2.54052114 1.71731457 5.0817628 2.0625 7.625 C2.16626953 8.33785156 2.27003906 9.05070312 2.37695312 9.78515625 C2.95108834 14.10106924 2.97103611 17.69484691 2 22 C1.67 22 1.34 22 1 22 C0.49622232 19.73000175 -0.00290019 17.45896997 -0.5 15.1875 C-0.91765625 13.29064453 -0.91765625 13.29064453 -1.34375 11.35546875 C-2 8 -2 8 -2 5 C-1.34 5 -0.68 5 0 5 C0 3.35 0 1.7 0 0 Z " fill="#555559" transform="translate(50,79)"/>
<path d="M0 0 C5.78461538 4.18461538 5.78461538 4.18461538 6.875 8.3125 C6.936875 9.6428125 6.936875 9.6428125 7 11 C3.26360784 9.75453595 2.81243487 8.36595047 1 5 C0.67 7.64 0.34 10.28 0 13 C-1.93443317 10.15524534 -1.99127818 8.89882691 -1.6875 5.375 C-1 2 -1 2 0 0 Z " fill="#78787B" transform="translate(60,82)"/>
<path d="M0 0 C0 0.99 0 1.98 0 3 C0.99 3.33 1.98 3.66 3 4 C2.67 4.66 2.34 5.32 2 6 C-3.19209404 6.21192221 -7.126739 5.5912689 -12 4 C-9.82844492 1.82844492 -8.90426105 1.54767811 -6 0.875 C-5.29875 0.70742188 -4.5975 0.53984375 -3.875 0.3671875 C-2 0 -2 0 0 0 Z " fill="#2B2B2E" transform="translate(73,62)"/>
<path d="M0 0 C-0.598125 0.268125 -1.19625 0.53625 -1.8125 0.8125 C-4.03394582 1.83517284 -4.03394582 1.83517284 -5.25 3.5625 C-8.13252959 5.93029216 -11.34155006 5.70012705 -15 6 C-14.67 5.01 -14.34 4.02 -14 3 C-14.66 2.34 -15.32 1.68 -16 1 C-10.65097076 0.40801257 -5.39115154 -0.14187241 0 0 Z " fill="#202022" transform="translate(37,31)"/>
<path d="M0 0 C0.33 0.66 0.66 1.32 1 2 C-1.91382964 7.98953871 -6.8110707 11.99711168 -12 16 C-12.66 15.67 -13.32 15.34 -14 15 C-12.98679687 14.00419922 -12.98679687 14.00419922 -11.953125 12.98828125 C-11.06109375 12.10527344 -10.1690625 11.22226563 -9.25 10.3125 C-8.36828125 9.44238281 -7.4865625 8.57226562 -6.578125 7.67578125 C-4.21194702 5.21997532 -2.08107444 2.69858952 0 0 Z " fill="#6C6B6E" transform="translate(112,88)"/>
<path d="M0 0 C0 0.66 0 1.32 0 2 C1.65 2 3.3 2 5 2 C4.67 2.66 4.34 3.32 4 4 C1.40644928 4.77105562 -0.32962938 5.21624859 -2.9375 4.375 C-5.2375 3.74375 -5.2375 3.74375 -8 5.5 C-11.26594121 7.13297061 -11.74195318 7.0672912 -15 6 C-12.87717331 4.99539469 -10.75166979 3.99644398 -8.625 3 C-7.44164063 2.443125 -6.25828125 1.88625 -5.0390625 1.3125 C-2 0 -2 0 0 0 Z " fill="#6C6B6F" transform="translate(93,39)"/>
<path d="M0 0 C0.12375 0.61875 0.2475 1.2375 0.375 1.875 C0.87197356 4.19120832 0.87197356 4.19120832 3 6 C0.64031256 8.09749995 -0.54616994 8.96905704 -3.75 9.1875 C-4.4925 9.125625 -5.235 9.06375 -6 9 C-5.52797514 4.75177626 -3.03344482 2.80010291 0 0 Z " fill="#363638" transform="translate(175,34)"/>
<path d="M0 0 C1.86011719 -0.02126953 1.86011719 -0.02126953 3.7578125 -0.04296875 C6.875 0.1875 6.875 0.1875 8.875 2.1875 C0.44642857 4.47321429 0.44642857 4.47321429 -4.125 4.1875 C-2.805 3.8575 -1.485 3.5275 -0.125 3.1875 C-0.125 2.5275 -0.125 1.8675 -0.125 1.1875 C-3.755 1.8475 -7.385 2.5075 -11.125 3.1875 C-11.125 2.5275 -11.125 1.8675 -11.125 1.1875 C-7.41775943 0.02316565 -3.86735879 0.02018454 0 0 Z " fill="#19191B" transform="translate(175.125,2.8125)"/>
<path d="M0 0 C5.31387787 5.31387787 4.54621534 15.94245432 5 23 C4.34 22.67 3.68 22.34 3 22 C2.35529338 19.05150231 1.82719869 16.16601278 1.375 13.1875 C1.2409375 12.36701172 1.106875 11.54652344 0.96875 10.70117188 C0.3877209 7.04602451 0 3.72082148 0 0 Z " fill="#C3C3C6" transform="translate(50,75)"/>
<path d="M0 0 C0 0.66 0 1.32 0 2 C3.3 1.34 6.6 0.68 10 0 C6.31416866 2.76437351 3.29732475 4.43733645 -1 6 C-1.99 5.67 -2.98 5.34 -4 5 C-3.01 4.01 -2.02 3.02 -1 2 C-1.5775 2.350625 -2.155 2.70125 -2.75 3.0625 C-5.35801776 4.14917407 -6.39417629 3.93065133 -9 3 C-2.25 0 -2.25 0 0 0 Z " fill="#8E8E92" transform="translate(74,60)"/>
<path d="M0 0 C0 0.66 0 1.32 0 2 C0.66 2.33 1.32 2.66 2 3 C-4.435 3.495 -4.435 3.495 -11 4 C-11 3.01 -11 2.02 -11 1 C-7.26562152 0.12132271 -3.83225427 -0.08912219 0 0 Z " fill="#6B6A6F" transform="translate(120,17)"/>
<path d="M0 0 C2 0.66666667 4 1.33333333 6 2 C6 2.66 6 3.32 6 4 C6.763125 4.226875 7.52625 4.45375 8.3125 4.6875 C11.54736301 6.26731682 12.41641358 7.83282717 14 11 C13.34 11 12.68 11 12 11 C11.67 11.99 11.34 12.98 11 14 C10.525625 13.030625 10.05125 12.06125 9.5625 11.0625 C8.29806053 8.19522563 8.29806053 8.19522563 7 7 C7 6.34 7 5.68 7 5 C6.34 5 5.68 5 5 5 C5 4.34 5 3.68 5 3 C3.68 3 2.36 3 1 3 C0.67 2.01 0.34 1.02 0 0 Z " fill="#818084" transform="translate(59,73)"/>
<path d="M0 0 C0.33 0.66 0.66 1.32 1 2 C1.66 2.33 2.32 2.66 3 3 C1.4375 5 1.4375 5 -1 7 C-4.75 7.25 -4.75 7.25 -8 7 C-7.34 6.67 -6.68 6.34 -6 6 C-6 5.01 -6 4.02 -6 3 C-4.02 2.01 -2.04 1.02 0 0 Z " fill="#080708" transform="translate(64,65)"/>
<path d="M0 0 C-1 3 -1 3 -3.875 4.6875 C-7 6 -7 6 -10 6 C-10 4.68 -10 3.36 -10 2 C-6.49223216 0.39644899 -3.85645121 -0.22036864 0 0 Z " fill="#5F5E62" transform="translate(85,62)"/>
<path d="M0 0 C0 0.33 0 0.66 0 1 C-2.31 1 -4.62 1 -7 1 C-7 1.66 -7 2.32 -7 3 C-11.95 3 -16.9 3 -22 3 C-15.82284762 -1.11810159 -7.21520141 -0.11637422 0 0 Z " fill="#555457" transform="translate(147,7)"/>
<path d="M0 0 C0 -0.66 0 -1.32 0 -2 C1.65 -2 3.3 -2 5 -2 C1.4541332 0.954889 -2.63781033 3.45934985 -7 5 C-7.99 4.67 -8.98 4.34 -10 4 C-8.68 3.67 -7.36 3.34 -6 3 C-6 2.01 -6 1.02 -6 0 C-6.99 -0.33 -7.98 -0.66 -9 -1 C-5.23375329 -2.25541557 -3.62811066 -1.37061958 0 0 Z " fill="#666568" transform="translate(72,52)"/>
<path d="M0 0 C0 0.66 0 1.32 0 2 C1.32 2.66 2.64 3.32 4 4 C2.5437455 4.67119549 1.08492133 5.33681807 -0.375 6 C-1.59316406 6.556875 -1.59316406 6.556875 -2.8359375 7.125 C-5 8 -5 8 -7 8 C-7 7.34 -7 6.68 -7 6 C-6.01 6 -5.02 6 -4 6 C-4 5.34 -4 4.68 -4 4 C-5.32 3.67 -6.64 3.34 -8 3 C-2.25 0 -2.25 0 0 0 Z " fill="#747377" transform="translate(151,25)"/>
<path d="M0 0 C0.33 0 0.66 0 1 0 C1 3.96 1 7.92 1 12 C-0.65 12.33 -2.3 12.66 -4 13 C-4.33 12.34 -4.66 11.68 -5 11 C-4.01 11 -3.02 11 -2 11 C-1.93941406 10.28972656 -1.87882812 9.57945312 -1.81640625 8.84765625 C-1.69072266 7.46900391 -1.69072266 7.46900391 -1.5625 6.0625 C-1.48128906 5.14597656 -1.40007812 4.22945313 -1.31640625 3.28515625 C-1 1 -1 1 0 0 Z " fill="#7C7B7F" transform="translate(96,119)"/>
<path d="M0 0 C-3.25808543 1.85953078 -6.24462525 2.53823806 -9.9375 3.125 C-10.95714844 3.29257812 -11.97679687 3.46015625 -13.02734375 3.6328125 C-15.72592382 3.96614565 -18.28538935 4.06998996 -21 4 C-19.68 3.67 -18.36 3.34 -17 3 C-17 2.34 -17 1.68 -17 1 C-5.47835991 -0.14806378 -5.47835991 -0.14806378 0 0 Z " fill="#99999D" transform="translate(70,27)"/>
<path d="M0 0 C0.66 0.33 1.32 0.66 2 1 C2 2.65 2 4.3 2 6 C-0.31 6.33 -2.62 6.66 -5 7 C-5 5.35 -5 3.7 -5 2 C-2.625 0.9375 -2.625 0.9375 0 0 Z " fill="#3C3B3F" transform="translate(161,20)"/>
<path d="M0 0 C0.99 0 1.98 0 3 0 C3 0.66 3 1.32 3 2 C3.66 2 4.32 2 5 2 C4.67 3.65 4.34 5.3 4 7 C2.68 7 1.36 7 0 7 C-0.38133299 5.0085944 -0.71325582 3.00720923 -1 1 C-0.67 0.67 -0.34 0.34 0 0 Z " fill="#2D2D2F" transform="translate(191,2)"/>
<path d="M0 0 C-1.0625 1.9375 -1.0625 1.9375 -3 4 C-6.6875 4.75 -6.6875 4.75 -10 5 C-9.8125 3.125 -9.8125 3.125 -9 1 C-5.6868424 -0.8804408 -3.58825658 -1.32898392 0 0 Z " fill="#37363A" transform="translate(114,44)"/>
<path d="M0 0 C1.32 0.33 2.64 0.66 4 1 C4 1.99 4 2.98 4 4 C4.66 3.67 5.32 3.34 6 3 C6 2.34 6 1.68 6 1 C6.66 1 7.32 1 8 1 C8 1.66 8 2.32 8 3 C8.66 3 9.32 3 10 3 C9.33333333 4.33333333 8.66666667 5.66666667 8 7 C4.84859577 6.65930765 3.39218439 6.41923159 1.1875 4.0625 C0 2 0 2 0 0 Z " fill="#4E4D50" transform="translate(19,38)"/>
<path d="M0 0 C-0.1875 1.875 -0.1875 1.875 -1 4 C-3.89111788 5.52164099 -5.71823412 6 -9 6 C-8.875 4.125 -8.875 4.125 -8 2 C-5.25822503 0.83328724 -2.99432393 0 0 0 Z " fill="#49484C" transform="translate(95,57)"/>
<path d="M0 0 C0 1.98 0 3.96 0 6 C-1.65 6 -3.3 6 -5 6 C-5 5.01 -5 4.02 -5 3 C-6.32 2.67 -7.64 2.34 -9 2 C-2.25 0 -2.25 0 0 0 Z " fill="#070708" transform="translate(57,22)"/>
<path d="M0 0 C2.13586678 3.20380017 2.23132175 4.01939967 2.125 7.6875 C2.10695313 8.49574219 2.08890625 9.30398437 2.0703125 10.13671875 C2.03550781 11.05904297 2.03550781 11.05904297 2 12 C1.01 12 0.02 12 -1 12 C-1.33 9.36 -1.66 6.72 -2 4 C-1.67 4.66 -1.34 5.32 -1 6 C-0.34 6 0.32 6 1 6 C0.67 4.02 0.34 2.04 0 0 Z " fill="#1B1A1C" transform="translate(46,86)"/>
<path d="M0 0 C0 0.66 0 1.32 0 2 C0.66 2.33 1.32 2.66 2 3 C1.071875 3.1546875 1.071875 3.1546875 0.125 3.3125 C-2.36526484 3.87525373 -2.36526484 3.87525373 -4 7 C-5.5 5.625 -5.5 5.625 -7 4 C-7 3.34 -7 2.68 -7 2 C-4 0 -4 0 0 0 Z " fill="#050506" transform="translate(139,65)"/>
<path d="M0 0 C2.64 0 5.28 0 8 0 C6.3125 1.5625 6.3125 1.5625 4 3 C1.25 2.6875 1.25 2.6875 -1 2 C-0.67 1.34 -0.34 0.68 0 0 Z M0 3 C0.99 3 1.98 3 3 3 C2.34 4.65 1.68 6.3 1 8 C0.01 7.67 -0.98 7.34 -2 7 C-2 6.34 -2 5.68 -2 5 C-1.34 5 -0.68 5 0 5 C0 4.34 0 3.68 0 3 Z " fill="#3D3D40" transform="translate(20,25)"/>
<path d="M0 0 C2.42130331 2.42130331 2.52840504 3.80111377 3.125 7.125 C3.29257812 8.03507812 3.46015625 8.94515625 3.6328125 9.8828125 C3.81457031 10.93082031 3.81457031 10.93082031 4 12 C3.01 11.67 2.02 11.34 1 11 C1 10.01 1 9.02 1 8 C0.34 7.67 -0.32 7.34 -1 7 C-1.625 4.4375 -1.625 4.4375 -2 2 C-1.34 2 -0.68 2 0 2 C0 1.34 0 0.68 0 0 Z " fill="#070707" transform="translate(48,100)"/>
<path d="M0 0 C0 0.99 0 1.98 0 3 C-1.65 3 -3.3 3 -5 3 C-5 3.66 -5 4.32 -5 5 C-6.65 5 -8.3 5 -10 5 C-9 2 -9 2 -7.25 0.8125 C-4.70039426 -0.10819096 -2.69076919 -0.14948718 0 0 Z " fill="#2C2C2E" transform="translate(77,47)"/>
<path d="M0 0 C0.66 0.33 1.32 0.66 2 1 C1.67 1.99 1.34 2.98 1 4 C1.66 4.33 2.32 4.66 3 5 C2.34 5 1.68 5 1 5 C0.67 5.66 0.34 6.32 0 7 C-2.5625 7.625 -2.5625 7.625 -5 8 C-4.34 6.68 -3.68 5.36 -3 4 C-3.66 3.34 -4.32 2.68 -5 2 C-2.625 0.9375 -2.625 0.9375 0 0 Z " fill="#8F8F93" transform="translate(116,40)"/>
<path d="M0 0 C0.66 0.66 1.32 1.32 2 2 C0.71937515 3.7074998 -0.61767557 5.37373596 -2 7 C-2.66 7 -3.32 7 -4 7 C-4 7.66 -4 8.32 -4 9 C-4.99 9.33 -5.98 9.66 -7 10 C-5.76075855 5.04303419 -4.21422242 2.88341534 0 0 Z " fill="#4D4D51" transform="translate(152,40)"/>
<path d="M0 0 C0 3 0 3 -1.6796875 5.04296875 C-2.76636719 6.10451172 -2.76636719 6.10451172 -3.875 7.1875 C-4.95394531 8.26064453 -4.95394531 8.26064453 -6.0546875 9.35546875 C-8 11 -8 11 -10 11 C-8.55218207 7.55571735 -6.72305391 5.63869038 -3.875 3.25 C-3.15054688 2.63640625 -2.42609375 2.0228125 -1.6796875 1.390625 C-0.84824219 0.70226563 -0.84824219 0.70226563 0 0 Z " fill="#D3D3D5" transform="translate(175,32)"/>
<path d="M0 0 C0 0.99 0 1.98 0 3 C-2.31 3 -4.62 3 -7 3 C-7 3.66 -7 4.32 -7 5 C-8.32 4.67 -9.64 4.34 -11 4 C-7.64191281 0.32209498 -4.88401581 -0.13200043 0 0 Z " fill="#151517" transform="translate(121,30)"/>
<path d="M0 0 C0 0.99 0 1.98 0 3 C0.99 3 1.98 3 3 3 C3 3.66 3 4.32 3 5 C2.34 5 1.68 5 1 5 C1 5.66 1 6.32 1 7 C0.01 7.33 -0.98 7.66 -2 8 C-2 7.01 -2 6.02 -2 5 C-3.32 5.33 -4.64 5.66 -6 6 C-4.95125002 3.37812506 -4.35068687 2.20628639 -1.875 0.75 C-1.25625 0.5025 -0.6375 0.255 0 0 Z " fill="#87868B" transform="translate(131,62)"/>
<path d="M0 0 C0.33 0.99 0.66 1.98 1 3 C0.01 4.485 0.01 4.485 -1 6 C-1.99 6 -2.98 6 -4 6 C-4.33 6.99 -4.66 7.98 -5 9 C-5.99 9.33 -6.98 9.66 -8 10 C-6.34908222 5.70761377 -3.26245434 3.1206085 0 0 Z " fill="#B4B4B7" transform="translate(151,53)"/>
<path d="M0 0 C-1.52235436 3.04470873 -4.18424486 4.20270948 -7 6 C-7.66 5.67 -8.32 5.34 -9 5 C-8.00233891 2.50584728 -7.31383315 1.21259665 -5.0625 -0.3125 C-3 -1 -3 -1 0 0 Z " fill="#3B3A3E" transform="translate(153,52)"/>
<path d="M0 0 C0.625 1.875 0.625 1.875 1 4 C-1.1385485 6.1385485 -2.13275314 6.42655063 -5 7 C-5 6.01 -5 5.02 -5 4 C-5.66 3.67 -6.32 3.34 -7 3 C-4.69 2.01 -2.38 1.02 0 0 Z " fill="#737376" transform="translate(115,47)"/>
<path d="M0 0 C0 3.9519815 -1.37176172 5.14648416 -4 8 C-4.99 8.33 -5.98 8.66 -7 9 C-7 8.34 -7 7.68 -7 7 C-6.34 7 -5.68 7 -5 7 C-4.67 5.02 -4.34 3.04 -4 1 C-2.68 0.67 -1.36 0.34 0 0 Z " fill="#444447" transform="translate(104,110)"/>
<path d="M0 0 C0.99 0 1.98 0 3 0 C3.33 0.99 3.66 1.98 4 3 C4.66 3 5.32 3 6 3 C5.34 4.65 4.68 6.3 4 8 C3.67 7.01 3.34 6.02 3 5 C2.01 5 1.02 5 0 5 C0 3.35 0 1.7 0 0 Z " fill="#747478" transform="translate(90,108)"/>
<path d="M0 0 C0.99 0.33 1.98 0.66 3 1 C3 2.32 3 3.64 3 5 C2.34 5 1.68 5 1 5 C0.67 6.65 0.34 8.3 0 10 C-0.33 10 -0.66 10 -1 10 C-1.02689216 8.52093108 -1.04634621 7.04172517 -1.0625 5.5625 C-1.07410156 4.73878906 -1.08570313 3.91507812 -1.09765625 3.06640625 C-1 1 -1 1 0 0 Z " fill="#38373B" transform="translate(54,76)"/>
<path d="M0 0 C0.33 0 0.66 0 1 0 C0.979375 1.155 0.95875 2.31 0.9375 3.5 C0.92992231 7.74350547 1.40025235 11.80176644 2 16 C-2.2020202 9.6969697 -2.2020202 9.6969697 -1.6875 5.375 C-1.16533716 3.57116474 -0.59384137 1.7815241 0 0 Z " fill="#949497" transform="translate(39,57)"/>
<path d="M0 0 C0 0.66 0 1.32 0 2 C-0.66 2 -1.32 2 -2 2 C-2 2.66 -2 3.32 -2 4 C-5.63 4.66 -9.26 5.32 -13 6 C-9.19803892 3.14852919 -4.95366136 0 0 0 Z " fill="#5B5A5F" transform="translate(123,26)"/>
<path d="M0 0 C0.66 0 1.32 0 2 0 C1 3 1 3 -2 5 C-5.6875 4.625 -5.6875 4.625 -9 4 C-7 2 -7 2 -3.375 1.875 C-1.704375 1.936875 -1.704375 1.936875 0 2 C0 1.34 0 0.68 0 0 Z " fill="#A1A0A4" transform="translate(139,14)"/>
<path d="M0 0 C1.98 0 3.96 0 6 0 C5.34 1.32 4.68 2.64 4 4 C2.68 4 1.36 4 0 4 C-0.33 4.66 -0.66 5.32 -1 6 C-1.33 4.68 -1.66 3.36 -2 2 C-1.34 2 -0.68 2 0 2 C0 1.34 0 0.68 0 0 Z " fill="#0B0B0C" transform="translate(140,8)"/>
<path d="M0 0 C0.33 0 0.66 0 1 0 C2.12862175 5.36095333 2.09688221 10.55306686 2 16 C1.67 16 1.34 16 1 16 C-1.48063781 5.62642369 -1.48063781 5.62642369 0 0 Z " fill="#A6A5A9" transform="translate(41,73)"/>
<path d="M0 0 C0 3 0 3 -1.8125 5.1875 C-4 7 -4 7 -7 7 C-7 6.01 -7 5.02 -7 4 C-4.69 2.68 -2.38 1.36 0 0 Z " fill="#5B5B5F" transform="translate(159,27)"/>
<path d="M0 0 C2.64 0.33 5.28 0.66 8 1 C8 1.99 8 2.98 8 4 C5.36 4.33 2.72 4.66 0 5 C0 3.35 0 1.7 0 0 Z " fill="#67666B" transform="translate(86,20)"/>
<path d="M0 0 C1.65 0 3.3 0 5 0 C5.33 1.65 5.66 3.3 6 5 C5.01 5.495 5.01 5.495 4 6 C4 5.34 4 4.68 4 4 C2.68 3.67 1.36 3.34 0 3 C0 2.01 0 1.02 0 0 Z " fill="#1B1B1D" transform="translate(5,18)"/>
<path d="M0 0 C0.99 0.33 1.98 0.66 3 1 C2.67 1.99 2.34 2.98 2 4 C2.66 4 3.32 4 4 4 C3.67 5.65 3.34 7.3 3 9 C2.34 9 1.68 9 1 9 C0.67 6.03 0.34 3.06 0 0 Z " fill="#49494B" transform="translate(47,107)"/>
<path d="M0 0 C0.66 0.66 1.32 1.32 2 2 C2.99 2.66 3.98 3.32 5 4 C4.34 4 3.68 4 3 4 C3 4.66 3 5.32 3 6 C0.5625 5.625 0.5625 5.625 -2 5 C-2.33 4.34 -2.66 3.68 -3 3 C-2.01 2.01 -1.02 1.02 0 0 Z " fill="#2A2A2E" transform="translate(153,45)"/>
<path d="M0 0 C1.2065625 0.0309375 1.2065625 0.0309375 2.4375 0.0625 C1.4475 0.5575 1.4475 0.5575 0.4375 1.0625 C-0.21463292 3.08713255 -0.21463292 3.08713255 -0.5625 5.0625 C-1.8825 5.0625 -3.2025 5.0625 -4.5625 5.0625 C-3.43829114 0.08386076 -3.43829114 0.08386076 0 0 Z " fill="#38383C" transform="translate(166.5625,43.9375)"/>
<path d="M0 0 C-0.33 0.99 -0.66 1.98 -1 3 C-2.98 3.33 -4.96 3.66 -7 4 C-6.67 2.68 -6.34 1.36 -6 0 C-2.25 -1.125 -2.25 -1.125 0 0 Z " fill="#424245" transform="translate(124,40)"/>
<path d="M0 0 C0.33 0.99 0.66 1.98 1 3 C-1.99480917 3.8723412 -4.63575911 4.10829766 -7.75 4.0625 C-8.54921875 4.05347656 -9.3484375 4.04445313 -10.171875 4.03515625 C-10.77515625 4.02355469 -11.3784375 4.01195312 -12 4 C-12 3.67 -12 3.34 -12 3 C-10.906875 2.690625 -9.81375 2.38125 -8.6875 2.0625 C-1.52941176 0 -1.52941176 0 0 0 Z " fill="#46464A" transform="translate(77,23)"/>
<path d="M0 0 C-0.33 0.99 -0.66 1.98 -1 3 C-1.99 3 -2.98 3 -4 3 C-4.33 3.99 -4.66 4.98 -5 6 C-6.32 6 -7.64 6 -9 6 C-9 5.34 -9 4.68 -9 4 C-2.25 0 -2.25 0 0 0 Z " fill="#605F62" transform="translate(181,13)"/>
<path d="M0 0 C1.32 0 2.64 0 4 0 C3.67 1.32 3.34 2.64 3 4 C1.35 4.33 -0.3 4.66 -2 5 C-1.34 3.35 -0.68 1.7 0 0 Z " fill="#302F32" transform="translate(117,46)"/>
<path d="M0 0 C0 0.99 0 1.98 0 3 C-2.70879335 4.35439668 -5.00933268 4.06501451 -8 4 C-8 3.34 -8 2.68 -8 2 C-5.09399739 0.74335022 -3.20395416 0 0 0 Z " fill="#0A0A0B" transform="translate(66,52)"/>
<path d="M0 0 C0 0.66 0 1.32 0 2 C0.99 2.66 1.98 3.32 3 4 C1.68 4.33 0.36 4.66 -1 5 C-1.33 4.01 -1.66 3.02 -2 2 C-2.99 2.66 -3.98 3.32 -5 4 C-7.1875 3.625 -7.1875 3.625 -9 3 C-2.25 0 -2.25 0 0 0 Z " fill="#78777B" transform="translate(147,34)"/>
<path d="M0 0 C2.4375 0.8125 2.4375 0.8125 5 2 C5.33 2.99 5.66 3.98 6 5 C5.67 5.66 5.34 6.32 5 7 C4.01 7 3.02 7 2 7 C2 5.35 2 3.7 2 2 C1.34 2 0.68 2 0 2 C0 1.34 0 0.68 0 0 Z " fill="#6C6B6F" transform="translate(11,19)"/>
<path d="M0 0 C0.91007812 0.00902344 1.82015625 0.01804687 2.7578125 0.02734375 C3.45648438 0.03894531 4.15515625 0.05054687 4.875 0.0625 C1.39347024 2.38351984 -0.98669011 2.76153201 -5.125 3.0625 C-5.785 2.4025 -6.445 1.7425 -7.125 1.0625 C-4.60024538 -0.19987731 -2.81299534 -0.03606404 0 0 Z " fill="#BBBBBE" transform="translate(102.125,20.9375)"/>
<path d="M0 0 C0.66 0 1.32 0 2 0 C1.875 1.75 1.875 1.75 1 4 C-2.0625 6.25 -2.0625 6.25 -5 8 C-5 6.35 -5 4.7 -5 3 C-3.35 3 -1.7 3 0 3 C0 2.01 0 1.02 0 0 Z " fill="#57575A" transform="translate(129,80)"/>
<path d="M0 0 C0.33 1.32 0.66 2.64 1 4 C2.65 4.33 4.3 4.66 6 5 C5.34 7.31 4.68 9.62 4 12 C3.67 12 3.34 12 3 12 C2.67 9.69 2.34 7.38 2 5 C1.34 5 0.68 5 0 5 C-0.5625 3.0625 -0.5625 3.0625 -1 1 C-0.67 0.67 -0.34 0.34 0 0 Z " fill="#737276" transform="translate(49,70)"/>
<path d="M0 0 C-0.99 0.33 -1.98 0.66 -3 1 C-3 1.66 -3 2.32 -3 3 C-5.64 3 -8.28 3 -11 3 C-3.71428571 -1.85714286 -3.71428571 -1.85714286 0 0 Z " fill="#666669" transform="translate(61,67)"/>
<path d="M0 0 C2.475 0.99 2.475 0.99 5 2 C3.515 4.475 3.515 4.475 2 7 C0 5 0 5 -0.125 2.375 C-0.08375 1.59125 -0.0425 0.8075 0 0 Z " fill="#6A6A6D" transform="translate(30,36)"/>
<path d="M0 0 C0.66 0.33 1.32 0.66 2 1 C0.02 3.31 -1.96 5.62 -4 8 C-4.66 7.67 -5.32 7.34 -6 7 C-2.25 1.125 -2.25 1.125 0 0 Z " fill="#C4C3C7" transform="translate(164,30)"/>
<path d="M0 0 C1.65 0.33 3.3 0.66 5 1 C5 2.32 5 3.64 5 5 C3.02 5 1.04 5 -1 5 C-0.34 4.67 0.32 4.34 1 4 C0.67 2.68 0.34 1.36 0 0 Z " fill="#303033" transform="translate(150,23)"/>
<path d="M0 0 C0.33 0.99 0.66 1.98 1 3 C-1.64 3.99 -4.28 4.98 -7 6 C-7.66 5.34 -8.32 4.68 -9 4 C-6.03 2.68 -3.06 1.36 0 0 Z " fill="#57575B" transform="translate(161,10)"/>
<path d="M0 0 C-2.52956528 3.0916909 -5.22454612 3.90931332 -9 5 C-9 4.34 -9 3.68 -9 3 C-8.34 3 -7.68 3 -7 3 C-7 2.34 -7 1.68 -7 1 C-4.53721199 -0.231394 -2.7204945 -0.07159196 0 0 Z " fill="#565558" transform="translate(62,57)"/>
<path d="M0 0 C0.33 0.66 0.66 1.32 1 2 C1.99 2.33 2.98 2.66 4 3 C3.01 3.99 2.02 4.98 1 6 C0.01 5.67 -0.98 5.34 -2 5 C-2 4.01 -2 3.02 -2 2 C-1.34 2 -0.68 2 0 2 C0 1.34 0 0.68 0 0 Z " fill="#323235" transform="translate(155,34)"/>
<path d="M0 0 C0.33 0 0.66 0 1 0 C1 3.96 1 7.92 1 12 C-1.42520546 9.57479454 -1.68564441 8.37932259 -2 5 C-1.0625 2.1875 -1.0625 2.1875 0 0 Z " fill="#858488" transform="translate(10,27)"/>
<path d="M0 0 C0.99 0 1.98 0 3 0 C3 0.99 3 1.98 3 3 C-0.21451269 4.60725635 -3.43612536 4.05748185 -7 4 C-7 3.67 -7 3.34 -7 3 C-3.535 2.505 -3.535 2.505 0 2 C0 1.34 0 0.68 0 0 Z " fill="#48474A" transform="translate(95,13)"/>
<path d="M0 0 C4 1 4 1 7 3 C6.34 4.32 5.68 5.64 5 7 C3.35 4.69 1.7 2.38 0 0 Z " fill="#6A696D" transform="translate(85,123)"/>
<path d="M0 0 C2.475 0.495 2.475 0.495 5 1 C4.67 2.65 4.34 4.3 4 6 C3.34 6 2.68 6 2 6 C1.67 6.66 1.34 7.32 1 8 C1 7.01 1 6.02 1 5 C1.66 5 2.32 5 3 5 C2.2575 4.319375 2.2575 4.319375 1.5 3.625 C0 2 0 2 0 0 Z " fill="#050506" transform="translate(55,81)"/>
<path d="M0 0 C0.99 0 1.98 0 3 0 C3.33 2.31 3.66 4.62 4 7 C2 5.75 2 5.75 0 4 C0 2.68 0 1.36 0 0 Z " fill="#605F62" transform="translate(19,75)"/>
<path d="M0 0 C0.99 0.33 1.98 0.66 3 1 C2.01 1.33 1.02 1.66 0 2 C0 2.99 0 3.98 0 5 C-1.65 5.33 -3.3 5.66 -5 6 C-4.34 5.67 -3.68 5.34 -3 5 C-3 4.01 -3 3.02 -3 2 C-2.01 1.34 -1.02 0.68 0 0 Z " fill="#111113" transform="translate(61,66)"/>
<path d="M0 0 C-0.33 0.99 -0.66 1.98 -1 3 C-3.31 3.33 -5.62 3.66 -8 4 C-8 3.34 -8 2.68 -8 2 C-2.25 0 -2.25 0 0 0 Z " fill="#202023" transform="translate(82,58)"/>
<path d="M0 0 C0 0.99 0 1.98 0 3 C-1.98 3.33 -3.96 3.66 -6 4 C-5.67 3.01 -5.34 2.02 -5 1 C-3 0 -3 0 0 0 Z " fill="#3F3E42" transform="translate(110,51)"/>
<path d="M0 0 C-3.51187196 2.40814077 -5.72656908 3.36629408 -10 3 C-4.375 -1.3125 -4.375 -1.3125 0 0 Z " fill="#706F72" transform="translate(100,50)"/>
<path d="M0 0 C2.97 0.33 5.94 0.66 9 1 C6.38058783 2.74627478 4.96175123 3.38722388 2 4 C2 3.01 2 2.02 2 1 C1.34 0.67 0.68 0.34 0 0 Z " fill="#403F42" transform="translate(75,46)"/>
<path d="M0 0 C0.66 1.32 1.32 2.64 2 4 C1.34 4 0.68 4 0 4 C-0.33 4.99 -0.66 5.98 -1 7 C-1.99 5.02 -2.98 3.04 -4 1 C-2 0 -2 0 0 0 Z " fill="#525156" transform="translate(71,80)"/>
<path d="M0 0 C0.99 0 1.98 0 3 0 C2.34 1.32 1.68 2.64 1 4 C0.01 4 -0.98 4 -2 4 C-2.33 4.99 -2.66 5.98 -3 7 C-3.33 5.68 -3.66 4.36 -4 3 C-2.68 3 -1.36 3 0 3 C0 2.01 0 1.02 0 0 Z " fill="#252427" transform="translate(131,76)"/>
<path d="M0 0 C0 0.66 0 1.32 0 2 C-2.31 2.66 -4.62 3.32 -7 4 C-7.33 3.01 -7.66 2.02 -8 1 C-5.07175348 0.02391783 -3.04386724 -0.08226668 0 0 Z " fill="#27272A" transform="translate(85,62)"/>
<path d="M0 0 C0.66 0 1.32 0 2 0 C2 0.66 2 1.32 2 2 C2.66 2 3.32 2 4 2 C3.67 2.99 3.34 3.98 3 5 C1.68 5 0.36 5 -1 5 C-0.67 3.35 -0.34 1.7 0 0 Z " fill="#121113" transform="translate(47,58)"/>
<path d="M0 0 C1.9375 0.8125 1.9375 0.8125 4 2 C4.33 2.99 4.66 3.98 5 5 C3.68 5 2.36 5 1 5 C0.67 3.35 0.34 1.7 0 0 Z " fill="#0D0D0E" transform="translate(32,52)"/>
<path d="M0 0 C1.65 0 3.3 0 5 0 C5 0.99 5 1.98 5 3 C2.69 3 0.38 3 -2 3 C-1.34 2.67 -0.68 2.34 0 2 C0 1.34 0 0.68 0 0 Z " fill="#959497" transform="translate(45,51)"/>
<path d="M0 0 C0.33 0.99 0.66 1.98 1 3 C-1.97 3.66 -4.94 4.32 -8 5 C-7.67 4.01 -7.34 3.02 -7 2 C-4.56723614 0.81480735 -2.71982714 0 0 0 Z " fill="#28282B" transform="translate(145,36)"/>
<path d="M0 0 C2.0625 0.4375 2.0625 0.4375 4 1 C3.67 1.99 3.34 2.98 3 4 C1.35 4 -0.3 4 -2 4 C-1 1 -1 1 0 0 Z " fill="#1E1E21" transform="translate(103,35)"/>
</svg>
