<?xml version="1.0" encoding="UTF-8"?>
<svg version="1.1" xmlns="http://www.w3.org/2000/svg" width="200" height="167">
<path d="M0 0 C0.495 0.495 0.495 0.495 1 1 C2.41674503 1.13262748 3.83942431 1.20325616 5.26171875 1.24609375 C6.56979492 1.29540039 6.56979492 1.29540039 7.90429688 1.34570312 C9.74012979 1.4062534 11.576071 1.46361571 13.41210938 1.51757812 C18.31476802 1.70821709 22.39940502 2.13864019 27 4 C27.96679688 4.34417969 28.93359375 4.68835938 29.9296875 5.04296875 C36.58557188 7.62940658 42.28440842 10.49385336 47 16 C47 16.66 47 17.32 47 18 C48.485 18.495 48.485 18.495 50 19 C53.48161284 25.80866809 53.39080749 32.1586993 53.25 39.6875 C53.24484375 40.80189453 53.2396875 41.91628906 53.234375 43.06445312 C53.18821178 47.87985404 52.94561972 52.27985564 52 57 C51.92299714 58.69257245 51.89194933 60.38773999 51.90234375 62.08203125 C51.90556641 63.01337891 51.90878906 63.94472656 51.91210938 64.90429688 C51.92048828 65.86400391 51.92886719 66.82371094 51.9375 67.8125 C51.94201172 68.79154297 51.94652344 69.77058594 51.95117188 70.77929688 C51.96291316 73.18626111 51.97933581 75.59309857 52 78 C52.6705542 77.98428955 53.3411084 77.9685791 54.03198242 77.95239258 C57.0837351 77.88985342 60.13535268 77.85094937 63.1875 77.8125 C64.24259766 77.78736328 65.29769531 77.76222656 66.38476562 77.73632812 C67.40634766 77.72666016 68.42792969 77.71699219 69.48046875 77.70703125 C70.88655396 77.68346558 70.88655396 77.68346558 72.32104492 77.65942383 C75.49326811 78.06270929 77.38735754 79.20367882 80 81 C79.3125 82.9375 79.3125 82.9375 78 85 C74.70572419 86.09809194 73.33588828 86.11196276 70 85 C69.01 85.66 68.02 86.32 67 87 C64.23344676 87.14245897 61.57346694 87.18769445 58.8125 87.125 C58.06291016 87.11597656 57.31332031 87.10695313 56.54101562 87.09765625 C54.69387346 87.07412578 52.84689588 87.03825561 51 87 C51.01160156 88.31355469 51.02320312 89.62710938 51.03515625 90.98046875 C51.04453828 92.71614441 51.05363804 94.45182161 51.0625 96.1875 C51.07087891 97.05181641 51.07925781 97.91613281 51.08789062 98.80664062 C51.10396812 103.00286769 51.07559038 106.90936886 50 111 C51.485 111.495 51.485 111.495 53 112 C52.93941406 112.58265625 52.87882812 113.1653125 52.81640625 113.765625 C52.20838572 119.71487199 51.7067942 125.66368846 51.28125 131.62890625 C51 134 51 134 50 135 C49.77986421 137.33224944 49.57414253 139.6658643 49.375 142 C48.46406848 150.32682301 45.34948675 155.32098749 39.0234375 160.671875 C34.66043264 163.53562336 29.85050247 163.19186211 24.78125 163.28125 C23.5715303 163.3086602 23.5715303 163.3086602 22.33737183 163.33662415 C19.72498727 163.39536024 17.11252856 163.44809328 14.5 163.5 C-0.3767407 163.78651035 -0.3767407 163.78651035 -15.22949219 164.63037109 C-23.8476148 165.28560137 -31.01480091 164.58988778 -39 161 C-39.81210937 160.6596875 -40.62421875 160.319375 -41.4609375 159.96875 C-44.73538219 158.313796 -46.53615953 157.01843233 -48.078125 153.6328125 C-48.875 151 -48.875 151 -49.4296875 148.5 C-49.92343537 145.95770999 -49.92343537 145.95770999 -51.08984375 143.57421875 C-52.21842671 140.38221803 -52.01525489 138.18087258 -51.6875 134.8125 C-51.07818586 127.77362434 -50.79084485 120.74838361 -50.5625 113.6875 C-50.26642162 104.90510666 -49.71345822 96.1894919 -48.9375 87.4375 C-48.04587157 77.05179922 -47.80690015 66.72894564 -47.8125 56.3125 C-47.8112764 55.23897781 -47.8112764 55.23897781 -47.81002808 54.14376831 C-47.81091134 47.33683756 -47.97482326 40.74760066 -49 34 C-49.04016758 32.10459224 -49.04326025 30.2078397 -49 28.3125 C-48.86809502 24.61892282 -48.86809502 24.61892282 -49.6953125 21.07421875 C-50.19636624 17.66319909 -48.49537378 15.45599568 -46.875 12.5 C-46.27429687 11.3759375 -45.67359375 10.251875 -45.0546875 9.09375 C-42.04068892 4.55556202 -39.7901391 2.39499808 -34.40625 1.20703125 C-33.1171875 1.07683594 -31.828125 0.94664063 -30.5 0.8125 C-25.39147232 0.29483979 -25.39147232 0.29483979 -20.33203125 -0.54296875 C-13.69015151 -1.84464367 -6.62723591 -1.08445679 0 0 Z M-36 21 C-37.8483399 24.17400493 -38.20046051 25.84889901 -37.75 29.5 C-37.64171875 30.45132813 -37.5334375 31.40265625 -37.421875 32.3828125 C-37.28265625 33.57648437 -37.1434375 34.77015625 -37 36 C-36.83519293 37.66373418 -36.67401643 39.32783028 -36.515625 40.9921875 C-36.34377725 42.78646094 -36.17190205 44.58073176 -36 46.375 C-35.91717773 47.24318359 -35.83435547 48.11136719 -35.74902344 49.00585938 C-35.42176393 52.3143888 -35.09037149 55.55125879 -34.43359375 58.8125 C-33.96709201 61.1660223 -33.97042502 63.23105052 -34.0625 65.625 C-34.11227854 69.36392173 -33.75640364 72.71464114 -33 76.375 C-30.95951194 86.90273551 -31.23895534 97.17778753 -36 107 C-37.65719985 108.34508149 -39.32294092 109.679762 -41 111 C-43.62893192 119.45755073 -40.02597951 137.1652701 -36 145 C-32.2075322 150.26093177 -23.11391333 152.53289321 -17 154 C-12.85753883 154.19748396 -9.07675761 153.67031889 -5 153 C-3.56291715 152.9653715 -2.12448525 152.96153386 -0.6875 153 C2.9940431 153.095852 2.9940431 153.095852 6.5625 152.4375 C10 152 10 152 13.4375 152.5625 C17.21193682 153.02602733 19.43176872 152.5188798 23 151.48046875 C26.05095211 150.74752518 28.87519914 150.86979996 32 151 C32 151.66 32 152.32 32 153 C32.99 153 33.98 153 35 153 C39.63725237 148.36274763 40.87595897 143.56351471 41.1875 137.125 C41.14610614 135.41602499 41.07910073 133.70764519 41 132 C40.9700293 131.34547852 40.94005859 130.69095703 40.90917969 130.01660156 C40.80184471 127.76056077 40.68454375 125.50529171 40.5625 123.25 C40.50388794 122.15002686 40.50388794 122.15002686 40.4440918 121.02783203 C40.21921043 117.26375653 39.78344824 113.68414915 39 110 C38.86820673 105.98030533 38.94376617 102.40330202 39.5 98.4140625 C40.15783686 93.33906882 40.14912992 88.29821797 40.125 83.1875 C40.1237915 82.21353271 40.12258301 81.23956543 40.12133789 80.23608398 C40.09039351 74.55041045 39.91545382 68.95538208 39.12109375 63.31640625 C39 61 39 61 39.4609375 57.81640625 C40.0982205 53.30462735 40.18394589 48.92426011 40.1875 44.375 C40.19974609 43.54226562 40.21199219 42.70953125 40.22460938 41.8515625 C40.2352447 37.39890744 39.97507489 34.07781622 38 30 C37.62406934 28.0075675 37.28020455 26.0081326 37 24 C36.01 24 35.02 24 34 24 C33.87625 23.13375 33.7525 22.2675 33.625 21.375 C31.16765997 16.27129378 26.90322589 14.5356246 22 12 C21.37323364 11.65153519 20.74646729 11.30307037 20.10070801 10.94404602 C17.87125247 9.94214161 16.30991394 9.69795925 13.88085938 9.59838867 C13.07902222 9.56303513 12.27718506 9.52768158 11.4510498 9.49125671 C7.77185345 9.38783907 4.093375 9.29862938 0.41308594 9.24487305 C-1.51525599 9.20689447 -3.44329258 9.14569535 -5.37011719 9.06030273 C-19.12781299 8.45612754 -27.39519715 9.4614641 -36 21 Z " fill="#1C1B1C" transform="translate(52,2)"/>
<path d="M0 0 C0.33 0 0.66 0 1 0 C1.05534912 0.57967529 1.11069824 1.15935059 1.16772461 1.7565918 C1.42167617 4.40048912 1.67955194 7.04398972 1.9375 9.6875 C2.02451172 10.59951172 2.11152344 11.51152344 2.20117188 12.45117188 C2.28818359 13.33740234 2.37519531 14.22363281 2.46484375 15.13671875 C2.543396 15.94842529 2.62194824 16.76013184 2.70288086 17.59643555 C3.01205129 20.09748965 3.50552725 22.52995652 4 25 C4.01841618 26.54169744 3.99675647 28.0843317 3.9375 29.625 C3.88772146 33.36392173 4.24359636 36.71464114 5 40.375 C7.04048806 50.90273551 6.76104466 61.17778753 2 71 C0.34280015 72.34508149 -1.32294092 73.679762 -3 75 C-5.92791637 84.41941515 -0.99013676 99.47439394 1 109 C2.485 109.495 2.485 109.495 4 110 C4 110.66 4 111.32 4 112 C4.78375 112.0825 5.5675 112.165 6.375 112.25 C9.5611013 112.90919337 11.72204923 113.76716819 14.625 115.125 C20.53845408 117.63100646 25.77540543 116.98395653 32 116 C32 116.66 32 117.32 32 118 C25.76552084 119.03907986 19.13111842 120.04370614 13 118 C13 118.66 13 119.32 13 120 C14.485 120.495 14.485 120.495 16 121 C16 121.66 16 122.32 16 123 C17.81134097 125.2326657 17.81134097 125.2326657 20.3664856 125.24050903 C21.35687836 125.23606781 22.34727112 125.23162659 23.36767578 125.22705078 C24.48868683 125.22689972 25.60969788 125.22674866 26.76467896 125.22659302 C27.97928802 125.21627045 29.19389709 125.20594788 30.4453125 125.1953125 C31.68546112 125.1924826 32.92560974 125.18965271 34.20333862 125.18673706 C37.50124633 125.17742174 40.79895972 125.1594489 44.09680176 125.1373291 C47.4616457 125.11687474 50.82651807 125.10773623 54.19140625 125.09765625 C60.79434723 125.07556519 67.39715771 125.04206483 74 125 C69.95410994 127.24544663 66.32472705 127.32928328 61.78125 127.37890625 C60.9747702 127.39576477 60.16829041 127.41262329 59.33737183 127.42999268 C56.72499687 127.48310107 54.1126169 127.52324776 51.5 127.5625 C47.94001285 127.62578344 44.3801541 127.69465671 40.8203125 127.765625 C39.52113388 127.79043694 39.52113388 127.79043694 38.19570923 127.81575012 C32.70418839 127.93107278 27.24762541 128.20325973 21.77050781 128.62817383 C13.15351605 129.29122201 5.98340237 128.58908003 -2 125 C-2.81210938 124.6596875 -3.62421875 124.319375 -4.4609375 123.96875 C-7.73538219 122.313796 -9.53615953 121.01843233 -11.078125 117.6328125 C-11.875 115 -11.875 115 -12.4296875 112.5 C-12.92343537 109.95770999 -12.92343537 109.95770999 -14.08984375 107.57421875 C-15.21842671 104.38221803 -15.01525489 102.18087258 -14.6875 98.8125 C-14.07818449 91.77360853 -13.79111622 84.74838543 -13.5625 77.6875 C-13.25218615 68.57832977 -12.69818863 59.51980246 -11.9375 50.4375 C-11.22502983 41.89608367 -10.86873621 33.50051075 -10.99609375 24.93359375 C-11.00271075 18.27027773 -10.50058134 11.64164167 -10 5 C-9.67 5 -9.34 5 -9 5 C-8.93941406 5.97582031 -8.87882813 6.95164062 -8.81640625 7.95703125 C-8.73261719 9.22933594 -8.64882812 10.50164063 -8.5625 11.8125 C-8.48128906 13.07707031 -8.40007813 14.34164062 -8.31640625 15.64453125 C-8.12815453 18.99181893 -8.12815453 18.99181893 -7 22 C-5.02 21.67 -3.04 21.34 -1 21 C0.125 26.625 0.125 26.625 -1 30 C-1.06937062 32.22818441 -1.08457084 34.45834524 -1.0625 36.6875 C-1.05347656 37.86699219 -1.04445313 39.04648438 -1.03515625 40.26171875 C-1.02355469 41.16535156 -1.01195312 42.06898437 -1 43 C-0.01 43 0.98 43 2 43 C2.02690104 40.20826945 2.04679053 37.41679652 2.0625 34.625 C2.07087891 33.8309375 2.07925781 33.036875 2.08789062 32.21875 C2.23040151 27.97607778 2.23040151 27.97607778 1 24 C0.86584528 21.3276379 0.95681459 18.67749512 1 16 C-0.32 16 -1.64 16 -3 16 C-3 14.68 -3 13.36 -3 12 C-2.34 12 -1.68 12 -1 12 C-0.67 8.04 -0.34 4.08 0 0 Z " fill="#2D2C2E" transform="translate(15,38)"/>
<path d="M0 0 C0 0.99 0 1.98 0 3 C-8.5203105 7.40059993 -17.1549732 11.31021071 -26 15 C-24.97132813 15.29003906 -23.94265625 15.58007812 -22.8828125 15.87890625 C-7.82307315 20.20924315 4.91511569 27.81865876 14 41 C14 41.66 14 42.32 14 43 C16.51083114 41.74458443 16.87125446 40.49936512 18 38 C22.75 37.875 22.75 37.875 25 39 C25.4125 38.484375 25.825 37.96875 26.25 37.4375 C26.8275 36.963125 27.405 36.48875 28 36 C30.1875 36.3125 30.1875 36.3125 32 37 C32.875 39 32.875 39 33 42 C31.28396201 44.89173184 29.13247852 47.40727432 27 50 C24.73769546 53.14208964 23.1506098 55.45135 22.125 59.1875 C21 62 21 62 18.125 63.9375 C13.69948426 65.44217535 11.79296581 64.34602144 7.5625 62.5 C3.81204868 61.03640924 0.3860449 60.71953267 -3.625 60.5 C-8.82771639 60.21028957 -13.15060039 59.84939961 -17 56 C-17.04063832 54.33382885 -17.042721 52.66611905 -17 51 C-11.94997778 49.96409801 -7.12583611 49.89748328 -2 50 C-1.67 50.66 -1.34 51.32 -1 52 C1.58605332 52.4683265 1.58605332 52.4683265 4.5625 52.625 C5.57441406 52.69976562 6.58632812 52.77453125 7.62890625 52.8515625 C8.41136719 52.90054688 9.19382813 52.94953125 10 53 C6.19198085 44.53773522 1.29538405 38.79375436 -6.2421875 33.4453125 C-7.11230469 32.72988281 -7.11230469 32.72988281 -8 32 C-8 31.34 -8 30.68 -8 30 C-8.804375 29.731875 -9.60875 29.46375 -10.4375 29.1875 C-12.34492511 28.55169163 -14.25195246 27.91464654 -16.15625 27.26953125 C-18.43377901 26.5012552 -20.71578472 25.7481402 -23 25 C-23.98613281 24.66742187 -23.98613281 24.66742187 -24.9921875 24.328125 C-28.32953288 23.26819557 -30.68136445 22.67254578 -34 24 C-31.41889311 28.58544817 -31.41889311 28.58544817 -27 31 C-26 32.75 -26 32.75 -26 35 C-28.125 37.8125 -28.125 37.8125 -31 40 C-33.625 40.125 -33.625 40.125 -36 39 C-37.5 37.0625 -37.5 37.0625 -39 34 C-39.38027344 33.24976563 -39.76054688 32.49953125 -40.15234375 31.7265625 C-41.0209386 30.01049365 -41.8787594 28.2889354 -42.7265625 26.5625 C-43.52997583 24.94581551 -44.35536986 23.33969988 -45.2109375 21.75 C-47.2014513 18.02308055 -48.54434569 15.35476554 -48 11 C-43.18582794 8.81400467 -38.46085304 7.17348329 -33.3125 5.9375 C-32.27029297 5.68045288 -32.27029297 5.68045288 -31.20703125 5.41821289 C-26.04560776 4.17470358 -20.87207778 3.29154146 -15.62109375 2.5078125 C-13.0932983 2.01807568 -10.93630617 1.29385003 -8.5625 0.3125 C-4.99904715 -1.00035105 -3.52587228 -1.21201859 0 0 Z " fill="#373636" transform="translate(165,4)"/>
<path d="M0 0 C0.495 0.495 0.495 0.495 1 1 C2.41674503 1.13262748 3.83942431 1.20325616 5.26171875 1.24609375 C6.56979492 1.29540039 6.56979492 1.29540039 7.90429688 1.34570312 C9.74012979 1.4062534 11.576071 1.46361571 13.41210938 1.51757812 C18.29703148 1.70752741 22.41224289 2.12076948 27 4 C27 4.99 27 5.98 27 7 C27.66 7 28.32 7 29 7 C28.34 8.98 27.68 10.96 27 13 C20.125 11.125 20.125 11.125 19 10 C-5.11521599 6.81402144 -5.11521599 6.81402144 -27.6171875 13.22265625 C-31.60886536 16.52080174 -35.00140368 20.17840692 -37 25 C-37.25725982 27.38261113 -37.25725982 27.38261113 -37.16015625 29.9140625 C-37.14919922 30.83960937 -37.13824219 31.76515625 -37.12695312 32.71875 C-37.10568359 33.6778125 -37.08441406 34.636875 -37.0625 35.625 C-37.02814196 37.53377988 -36.99798411 39.44264144 -36.97265625 41.3515625 C-36.95468994 42.19541504 -36.93672363 43.03926758 -36.91821289 43.90869141 C-37 46 -37 46 -38 48 C-38.66 48 -39.32 48 -40 48 C-40 49.32 -40 50.64 -40 52 C-38.68 52 -37.36 52 -36 52 C-33.47183694 61.63862168 -33.81730863 71.11436703 -34 81 C-34.33 80.34 -34.66 79.68 -35 79 C-35.99 79 -36.98 79 -38 79 C-39.18670754 75.28102675 -39.09896099 71.75607029 -39.0625 67.875 C-39.05347656 66.63492188 -39.04445313 65.39484375 -39.03515625 64.1171875 C-39.02355469 63.08851562 -39.01195312 62.05984375 -39 61 C-39 60.34 -39 59.68 -39 59 C-40.98 59 -42.96 59 -45 59 C-46.2039337 55.24600202 -46.09877617 51.66782588 -46.0625 47.75 C-46.05347656 46.48671875 -46.04445313 45.2234375 -46.03515625 43.921875 C-46.02355469 42.95765625 -46.01195312 41.9934375 -46 41 C-46.66 41 -47.32 41 -48 41 C-48.9261191 35.79058006 -49.05719564 30.83983232 -48.9375 25.55078125 C-48.86394222 23.05884412 -48.86394222 23.05884412 -49.6953125 21.07421875 C-50.19636624 17.66319909 -48.49537378 15.45599568 -46.875 12.5 C-46.27429687 11.3759375 -45.67359375 10.251875 -45.0546875 9.09375 C-42.04068892 4.55556202 -39.7901391 2.39499808 -34.40625 1.20703125 C-33.1171875 1.07683594 -31.828125 0.94664063 -30.5 0.8125 C-25.39147232 0.29483979 -25.39147232 0.29483979 -20.33203125 -0.54296875 C-13.69015151 -1.84464367 -6.62723591 -1.08445679 0 0 Z " fill="#0A090A" transform="translate(52,2)"/>
<path d="M0 0 C0.66 0 1.32 0 2 0 C2 0.66 2 1.32 2 2 C3.65 2 5.3 2 7 2 C7.02887814 5.47914941 7.04675687 8.95826831 7.0625 12.4375 C7.07087891 13.43072266 7.07925781 14.42394531 7.08789062 15.44726562 C7.09111328 16.39150391 7.09433594 17.33574219 7.09765625 18.30859375 C7.10289307 19.18314209 7.10812988 20.05769043 7.11352539 20.95874023 C7 23 7 23 6 24 C5.77986421 26.33224944 5.57414253 28.6658643 5.375 31 C4.58898487 38.32020067 2.21483124 42.84666442 -3 48 C-3.66 48.66 -4.32 49.32 -5 50 C-12.00852633 51.12000342 -18.95135505 51.1318543 -26.03515625 51.09765625 C-27.15442001 51.0962413 -28.27368378 51.09482635 -29.42686462 51.09336853 C-32.97210458 51.08780879 -36.51727941 51.07526385 -40.0625 51.0625 C-42.47851471 51.05747979 -44.89453041 51.0529178 -47.31054688 51.04882812 C-53.20705315 51.03785257 -59.10352192 51.02115496 -65 51 C-65.12375 50.195625 -65.2475 49.39125 -65.375 48.5625 C-65.58125 47.716875 -65.7875 46.87125 -66 46 C-66.66 45.67 -67.32 45.34 -68 45 C-68 44.34 -68 43.68 -68 43 C-67.38898438 43.03480469 -66.77796875 43.06960937 -66.1484375 43.10546875 C-57.87379476 43.3502117 -49.9915462 42.28855956 -41.83154297 40.97924805 C-36.56215355 40.17535589 -32.30327648 40.09259528 -27 41 C-24.84725052 40.69159401 -24.84725052 40.69159401 -23 40 C-18.96840734 38.81886934 -16.09024775 39.14786505 -12 40 C-12 40.66 -12 41.32 -12 42 C-11.01 42 -10.02 42 -9 42 C-5.30867465 35.1852455 -2.97172939 28.02066686 -2.4375 20.3125 C-2.31181641 18.54326172 -2.31181641 18.54326172 -2.18359375 16.73828125 C-2.12300781 15.83464844 -2.06242187 14.93101563 -2 14 C-1.34 14 -0.68 14 0 14 C0 13.34 0 12.68 0 12 C-0.66 12 -1.32 12 -2 12 C-2 9.03 -2 6.06 -2 3 C-1.34 3 -0.68 3 0 3 C0 2.01 0 1.02 0 0 Z " fill="#212020" transform="translate(96,113)"/>
<path d="M0 0 C0.495 0.495 0.495 0.495 1 1 C2.41674503 1.13262748 3.83942431 1.20325616 5.26171875 1.24609375 C6.56979492 1.29540039 6.56979492 1.29540039 7.90429688 1.34570312 C9.74012979 1.4062534 11.576071 1.46361571 13.41210938 1.51757812 C18.29703148 1.70752741 22.41224289 2.12076948 27 4 C27 4.99 27 5.98 27 7 C27.66 7 28.32 7 29 7 C28.34 8.98 27.68 10.96 27 13 C20.125 11.125 20.125 11.125 19 10 C7.10345404 8.4706016 -5.19827818 8.80114755 -17.125 9.6875 C-18.13699463 9.75300049 -19.14898926 9.81850098 -20.19165039 9.88598633 C-25.70597362 10.36628571 -28.91163303 10.96910003 -33 15 C-33.66 15 -34.32 15 -35 15 C-34.67 13.02 -34.34 11.04 -34 9 C-36.97 9.66 -39.94 10.32 -43 11 C-41.79463364 5.66194899 -41.79463364 5.66194899 -40 3 C-36.7854349 1.54623957 -33.48404349 1.35927721 -30 1 C-27.99873149 0.63182971 -25.99873335 0.25669359 -24 -0.125 C-15.87672206 -1.44763628 -8.11125975 -1.32729705 0 0 Z " fill="#0F0E0F" transform="translate(52,2)"/>
<path d="M0 0 C2.1875 0.3125 2.1875 0.3125 4 1 C4.875 3 4.875 3 5 6 C3.28396201 8.89173184 1.13247852 11.40727432 -1 14 C-3.26230454 17.14208964 -4.8493902 19.45135 -5.875 23.1875 C-7 26 -7 26 -9.875 27.9375 C-14.30051574 29.44217535 -16.20703419 28.34602144 -20.4375 26.5 C-24.18795132 25.03640924 -27.6139551 24.71953267 -31.625 24.5 C-36.82771639 24.21028957 -41.15060039 23.84939961 -45 20 C-45.04063832 18.33382885 -45.042721 16.66611905 -45 15 C-41.41534863 14.2646869 -37.90160836 13.86798412 -34.25 13.75 C-33.11304688 13.71132813 -33.11304688 13.71132813 -31.953125 13.671875 C-31.30859375 13.78015625 -30.6640625 13.8884375 -30 14 C-29.01 15.485 -29.01 15.485 -28 17 C-25.57478506 17.58189266 -25.57478506 17.58189266 -22.875 17.6875 C-21.50988281 17.78611328 -21.50988281 17.78611328 -20.1171875 17.88671875 C-19.41851562 17.92410156 -18.71984375 17.96148437 -18 18 C-18 19.32 -18 20.64 -18 22 C-17.34 22 -16.68 22 -16 22 C-16.165 21.505 -16.33 21.01 -16.5 20.5 C-17.20688818 16.96555911 -17.06005155 13.60309299 -17 10 C-16.01 9.67 -15.02 9.34 -14 9 C-13.67 9.33 -13.34 9.66 -13 10 C-12.01 7.36 -11.02 4.72 -10 2 C-5.25 1.875 -5.25 1.875 -3 3 C-2.38125 2.2265625 -2.38125 2.2265625 -1.75 1.4375 C-1.1725 0.963125 -0.595 0.48875 0 0 Z " fill="#201F1F" transform="translate(193,40)"/>
<path d="M0 0 C1 1 1 1 1.01953125 3.07421875 C0.57265892 8.71492792 0.04945964 12.74806738 -4 17 C-10.93753463 20.96612733 -17.10858992 22.25052095 -25 22 C-25.99 21.67 -26.98 21.34 -28 21 C-29.4564546 20.86559534 -30.91740102 20.7764309 -32.37890625 20.71875 C-33.21744141 20.68136719 -34.05597656 20.64398438 -34.91992188 20.60546875 C-36.68554067 20.53500059 -38.45116571 20.46468878 -40.21679688 20.39453125 C-41.05404297 20.35714844 -41.89128906 20.31976563 -42.75390625 20.28125 C-43.52033447 20.25095703 -44.2867627 20.22066406 -45.07641602 20.18945312 C-47 20 -47 20 -49 19 C-48.67 17.35 -48.34 15.7 -48 14 C-47.38068604 13.98018066 -46.76137207 13.96036133 -46.12329102 13.93994141 C-43.26932611 13.84364769 -40.41599143 13.73439903 -37.5625 13.625 C-36.58861328 13.5940625 -35.61472656 13.563125 -34.61132812 13.53125 C-23.9064495 13.58111808 -23.9064495 13.58111808 -14.984375 8.8359375 C-14.57703125 8.02382812 -14.1696875 7.21171875 -13.75 6.375 C-12.484375 3.8984375 -12.484375 3.8984375 -11 2 C-8.328125 1.7265625 -8.328125 1.7265625 -6 2 C-6 1.34 -6 0.68 -6 0 C-3.49749232 -1.25125384 -2.59701335 -0.83774624 0 0 Z " fill="#1E1D1D" transform="translate(188,140)"/>
<path d="M0 0 C0.33 0.99 0.66 1.98 1 3 C1.99 3.33 2.98 3.66 4 4 C4 4.66 4 5.32 4 6 C4.78375 6.0825 5.5675 6.165 6.375 6.25 C9.5611013 6.90919337 11.72204923 7.76716819 14.625 9.125 C20.53845408 11.63100646 25.77540543 10.98395653 32 10 C32 10.66 32 11.32 32 12 C25.76552084 13.03907986 19.13111842 14.04370614 13 12 C13 12.66 13 13.32 13 14 C13.99 14.33 14.98 14.66 16 15 C16 15.66 16 16.32 16 17 C17.81134097 19.2326657 17.81134097 19.2326657 20.3664856 19.24050903 C21.35687836 19.23606781 22.34727112 19.23162659 23.36767578 19.22705078 C24.48868683 19.22689972 25.60969788 19.22674866 26.76467896 19.22659302 C27.97928802 19.21627045 29.19389709 19.20594788 30.4453125 19.1953125 C31.68546112 19.1924826 32.92560974 19.18965271 34.20333862 19.18673706 C37.50124633 19.17742174 40.79895972 19.1594489 44.09680176 19.1373291 C47.4616457 19.11687474 50.82651807 19.10773623 54.19140625 19.09765625 C60.79434723 19.07556519 67.39715771 19.04206483 74 19 C69.95410994 21.24544663 66.32472705 21.32928328 61.78125 21.37890625 C60.9747702 21.39576477 60.16829041 21.41262329 59.33737183 21.42999268 C56.72499687 21.48310107 54.1126169 21.52324776 51.5 21.5625 C47.94001285 21.62578344 44.3801541 21.69465671 40.8203125 21.765625 C39.95419342 21.78216629 39.08807434 21.79870758 38.19570923 21.81575012 C32.70418839 21.93107278 27.24762541 22.20325973 21.77050781 22.62817383 C13.14912594 23.29155982 5.98980781 22.58044702 -2 19 C-2.81210938 18.67128906 -3.62421875 18.34257812 -4.4609375 18.00390625 C-8.01062249 16.25469325 -9.60717956 14.94597576 -11.1484375 11.234375 C-11.91369704 8.49629041 -12.52884477 5.80239207 -13 3 C-12.01 3 -11.02 3 -10 3 C-9.34 5.97 -8.68 8.94 -8 12 C-7.34 12 -6.68 12 -6 12 C-6 10.02 -6 8.04 -6 6 C-5.2575 6.515625 -4.515 7.03125 -3.75 7.5625 C-1.16784546 9.24942772 -1.16784546 9.24942772 1.3125 8.6875 C1.869375 8.460625 2.42625 8.23375 3 8 C2.67 7.01 2.34 6.02 2 5 C1.34 4.67 0.68 4.34 0 4 C0 2.68 0 1.36 0 0 Z " fill="#242324" transform="translate(15,144)"/>
<path d="M0 0 C2.0078125 0.23046875 2.0078125 0.23046875 5.0078125 2.23046875 C5.0078125 2.89046875 5.0078125 3.55046875 5.0078125 4.23046875 C5.6884375 4.33359375 6.3690625 4.43671875 7.0703125 4.54296875 C10.63697239 5.37771894 13.67003444 6.72519629 17.0078125 8.23046875 C17.0078125 8.89046875 17.0078125 9.55046875 17.0078125 10.23046875 C18.3278125 9.90046875 19.6478125 9.57046875 21.0078125 9.23046875 C21.6678125 10.55046875 22.3278125 11.87046875 23.0078125 13.23046875 C17.09288978 12.77822114 11.65581362 12.07220825 6.0078125 10.23046875 C7.34152019 13.82122022 8.81768332 17.07668273 11.0078125 20.23046875 C11.9978125 20.56046875 12.9878125 20.89046875 14.0078125 21.23046875 C15.0078125 22.98046875 15.0078125 22.98046875 15.0078125 25.23046875 C12.8828125 28.04296875 12.8828125 28.04296875 10.0078125 30.23046875 C7.3828125 30.35546875 7.3828125 30.35546875 5.0078125 29.23046875 C3.5078125 27.29296875 3.5078125 27.29296875 2.0078125 24.23046875 C1.62753906 23.48023437 1.24726562 22.73 0.85546875 21.95703125 C-0.0131261 20.2409624 -0.8709469 18.51940415 -1.71875 16.79296875 C-2.52216333 15.17628426 -3.34755736 13.57016863 -4.203125 11.98046875 C-7.64465485 5.53675328 -7.64465485 5.53675328 -6.9921875 1.23046875 C-5.11574989 -0.64596886 -2.49413049 0.05061888 0 0 Z " fill="#272627" transform="translate(123.9921875,13.76953125)"/>
<path d="M0 0 C-0.33 2.31 -0.66 4.62 -1 7 C-6.17876572 9.10501166 -10.62946485 9.26421742 -16.1171875 9.1953125 C-16.97434357 9.1924826 -17.83149963 9.18965271 -18.71463013 9.18673706 C-21.43489932 9.17559999 -24.15483141 9.1505076 -26.875 9.125 C-28.72655772 9.11496182 -30.57812064 9.10583744 -32.4296875 9.09765625 C-36.9532536 9.07568188 -41.47656977 9.041197 -46 9 C-46.12375 8.195625 -46.2475 7.39125 -46.375 6.5625 C-46.684375 5.2940625 -46.684375 5.2940625 -47 4 C-47.66 3.67 -48.32 3.34 -49 3 C-49 2.34 -49 1.68 -49 1 C-48.21496094 1.01160156 -47.42992188 1.02320313 -46.62109375 1.03515625 C-45.57050781 1.04417969 -44.51992188 1.05320313 -43.4375 1.0625 C-41.88869141 1.07990234 -41.88869141 1.07990234 -40.30859375 1.09765625 C-37.01542971 1.07188133 -37.01542971 1.07188133 -33.86328125 0.49609375 C-28.48212503 -0.19491418 -23.16795211 -0.06511962 -17.75 0 C-15.59900842 0.02548568 -13.44795825 0.04652661 -11.296875 0.0625 C-10.35166992 0.07410156 -9.40646484 0.08570313 -8.43261719 0.09765625 C-0.64493013 -0.21497671 -0.64493013 -0.21497671 0 0 Z " fill="#080808" transform="translate(77,155)"/>
<path d="M0 0 C5.28082483 1.73023612 9.2771001 3.61050858 11.9140625 8.75 C13.84531803 14.0746357 15.10938339 19.0651342 14.9140625 24.75 C10.75461506 26.05492469 7.26369341 26.87019705 2.9140625 26.75 C2.78128906 25.76257813 2.64851562 24.77515625 2.51171875 23.7578125 C2.33511719 22.47648437 2.15851563 21.19515625 1.9765625 19.875 C1.80253906 18.59882812 1.62851563 17.32265625 1.44921875 16.0078125 C1.09973023 12.87440546 1.09973023 12.87440546 -0.0859375 10.75 C0.2440625 10.09 0.5740625 9.43 0.9140625 8.75 C-1.0659375 8.09 -3.0459375 7.43 -5.0859375 6.75 C-5.2734375 4.375 -5.2734375 4.375 -5.0859375 1.75 C-2.0859375 -0.25 -2.0859375 -0.25 0 0 Z " fill="#2A292A" transform="translate(182.0859375,84.25)"/>
<path d="M0 0 C0.66 0 1.32 0 2 0 C2.59732819 2.76264289 3 5.16032769 3 8 C3.33 8.66 3.66 9.32 4 10 C3.01 10 2.02 10 1 10 C1.515625 10.37125 2.03125 10.7425 2.5625 11.125 C4 13 4 13 3.6875 16.1875 C3.460625 17.115625 3.23375 18.04375 3 19 C2.01 19 1.02 19 0 19 C1.52206009 21.62901288 2.84365964 23.84365964 5 26 C6.32 26.33 7.64 26.66 9 27 C9 23.04 9 19.08 9 15 C8.34 14.67 7.68 14.34 7 14 C7.66 10.7 8.32 7.4 9 4 C12.3 4 15.6 4 19 4 C19 4.33 19 4.66 19 5 C16.36 5 13.72 5 11 5 C11.01160156 6.31355469 11.02320312 7.62710938 11.03515625 8.98046875 C11.04453828 10.71614441 11.05363804 12.45182161 11.0625 14.1875 C11.07087891 15.05181641 11.07925781 15.91613281 11.08789062 16.80664062 C11.10396812 21.00286769 11.07559038 24.90936886 10 29 C10.99 29.33 11.98 29.66 13 30 C12.67 33.3 12.34 36.6 12 40 C11.67 40 11.34 40 11 40 C11 37.03 11 34.06 11 31 C9.35 31 7.7 31 6 31 C6 30.34 6 29.68 6 29 C5.34 29 4.68 29 4 29 C4 29.99 4 30.98 4 32 C3.34 32 2.68 32 2 32 C2.185625 32.7425 2.37125 33.485 2.5625 34.25 C2.99203108 36.94990963 2.85122974 38.44631077 2 41 C2.66 41 3.32 41 4 41 C4 41.66 4 42.32 4 43 C3.34 43 2.68 43 2 43 C2 47.29 2 51.58 2 56 C1.67 56 1.34 56 1 56 C0.66068773 53.33397504 0.32842824 50.66736986 0 48 C-0.09539062 47.25621094 -0.19078125 46.51242188 -0.2890625 45.74609375 C-0.74338563 42.01415373 -1.04822928 38.38688418 -1 34.625 C-0.80894572 31.04611655 -0.80894572 31.04611655 -2 28 C-2.16034297 23.26988235 -1.89183954 18.91949237 -1.21875 14.2265625 C-0.8586167 10.56091999 -0.98154043 6.90125683 -1.0625 3.22265625 C-1 1 -1 1 0 0 Z " fill="#2A272C" transform="translate(92,84)"/>
<path d="M0 0 C1.00393799 0.0407666 2.00787598 0.0815332 3.04223633 0.12353516 C4.68869141 0.18927734 4.68869141 0.18927734 6.3684082 0.25634766 C7.5253418 0.30791016 8.68227539 0.35947266 9.87426758 0.41259766 C11.58066406 0.47833984 11.58066406 0.47833984 13.3215332 0.54541016 C18.53426929 0.7645094 23.54613122 1.10102317 28.68676758 2.03759766 C28.68676758 3.02759766 28.68676758 4.01759766 28.68676758 5.03759766 C29.34676758 5.03759766 30.00676758 5.03759766 30.68676758 5.03759766 C30.68676758 6.35759766 30.68676758 7.67759766 30.68676758 9.03759766 C27.60818778 9.69729333 25.16445785 10.12451467 22.04614258 9.55712891 C17.07525524 8.7883754 12.15934134 9.06608038 7.14379883 9.25244141 C1.2947437 9.3598531 1.2947437 9.3598531 -1.84838867 7.69384766 C-3.31323242 6.03759766 -3.31323242 6.03759766 -3.62573242 3.41259766 C-3.21336605 0.27861321 -3.17421787 0.05159151 0 0 Z " fill="#1D1C1C" transform="translate(104.313232421875,151.96240234375)"/>
<path d="M0 0 C1.65 0.33 3.3 0.66 5 1 C5 2.32 5 3.64 5 5 C4.34 5 3.68 5 3 5 C3 9.29 3 13.58 3 18 C2.67 18 2.34 18 2 18 C1.67 21.96 1.34 25.92 1 30 C1.66 30 2.32 30 3 30 C3 33.96 3 37.92 3 42 C-1.95849479 41.00830104 -3.03186426 40.73765242 -6 37 C-6 36.01 -6 35.02 -6 34 C-5.01 34 -4.02 34 -3 34 C-3 32.02 -3 30.04 -3 28 C-3.66 27.67 -4.32 27.34 -5 27 C-5 24.43133239 -4.78830352 21.99619372 -4.5 19.4375 C-4.36078125 18.19806641 -4.36078125 18.19806641 -4.21875 16.93359375 C-4.1465625 16.29550781 -4.074375 15.65742187 -4 15 C-4.66 15 -5.32 15 -6 15 C-6 14.34 -6 13.68 -6 13 C-5.34 13 -4.68 13 -4 13 C-3.87882812 12.31292969 -3.75765625 11.62585938 -3.6328125 10.91796875 C-3.46523437 10.01691406 -3.29765625 9.11585937 -3.125 8.1875 C-2.96257812 7.29417969 -2.80015625 6.40085937 -2.6328125 5.48046875 C-2 3 -2 3 0 0 Z " fill="#0F0E10" transform="translate(98,69)"/>
<path d="M0 0 C3.62532066 0.13847638 7.25015904 0.28702643 10.875 0.4375 C12.42380859 0.49647461 12.42380859 0.49647461 14.00390625 0.55664062 C14.99003906 0.59853516 15.97617188 0.64042969 16.9921875 0.68359375 C17.90339355 0.72025146 18.81459961 0.75690918 19.75341797 0.79467773 C22 1 22 1 24 2 C24.6875 5 24.6875 5 25 8 C24.67 8.33 24.34 8.66 24 9 C22.1128125 8.9690625 22.1128125 8.9690625 20.1875 8.9375 C16.80096466 8.88336356 14.9947749 9.40278672 12 11 C7.53545723 11.38822111 4.16804742 10.58782759 0 9 C-0.85856655 5.5657338 -0.97591583 3.38317487 0 0 Z " fill="#434142" transform="translate(142,82)"/>
<path d="M0 0 C1.1653125 -0.02578125 2.330625 -0.0515625 3.53125 -0.078125 C5.00078125 0.08429687 5.00078125 0.08429687 6.5 0.25 C7.16 1.24 7.82 2.23 8.5 3.25 C10.92521494 3.83189266 10.92521494 3.83189266 13.625 3.9375 C14.99011719 4.03611328 14.99011719 4.03611328 16.3828125 4.13671875 C17.08148438 4.17410156 17.78015625 4.21148437 18.5 4.25 C18.83 6.56 19.16 8.87 19.5 11.25 C-2.26224249 11.86398176 -2.26224249 11.86398176 -8.5 6.25 C-8.8125 3.5625 -8.8125 3.5625 -8.5 1.25 C-5.65504507 -0.17247747 -3.1688204 0.04206399 0 0 Z " fill="#151515" transform="translate(156.5,53.75)"/>
<path d="M0 0 C1.65 0.33 3.3 0.66 5 1 C5 3.31 5 5.62 5 8 C5.66 8 6.32 8 7 8 C7.33 11.3 7.66 14.6 8 18 C8.99 18.33 9.98 18.66 11 19 C11.6875 21.0625 11.6875 21.0625 12 23 C9.75 23.6875 9.75 23.6875 7 24 C4.6875 22.5625 4.6875 22.5625 3 21 C2.67 22.65 2.34 24.3 2 26 C1.34 26 0.68 26 0 26 C-1.49821059 22.62902617 -2 20.79557881 -2 17 C-2.99 17 -3.98 17 -5 17 C-4.65370506 8.74086574 -4.65370506 8.74086574 -2.125 5.875 C0 5 0 5 3 6 C3 5.01 3 4.02 3 3 C1.68 3.33 0.36 3.66 -1 4 C-1.33 3.34 -1.66 2.68 -2 2 C-1.34 2 -0.68 2 0 2 C0 1.34 0 0.68 0 0 Z " fill="#090909" transform="translate(7,130)"/>
<path d="M0 0 C0.33 0 0.66 0 1 0 C1.06058594 0.97582031 1.12117187 1.95164063 1.18359375 2.95703125 C1.26738281 4.22933594 1.35117188 5.50164063 1.4375 6.8125 C1.51871094 8.07707031 1.59992187 9.34164062 1.68359375 10.64453125 C1.87184547 13.99181893 1.87184547 13.99181893 3 17 C4.98 16.67 6.96 16.34 9 16 C10.125 21.625 10.125 21.625 9 25 C8.77439324 27.39254576 8.59151405 29.78928123 8.4375 32.1875 C8.35371094 33.45980469 8.26992187 34.73210937 8.18359375 36.04296875 C8.12300781 37.01878906 8.06242188 37.99460938 8 39 C4.04 38.505 4.04 38.505 0 38 C0 41.3 0 44.6 0 48 C-0.33 48 -0.66 48 -1 48 C-1.20638953 13.09794343 -1.20638953 13.09794343 0 0 Z " fill="#5B585C" transform="translate(5,43)"/>
<path d="M0 0 C2.375 -0.125 2.375 -0.125 5 0 C7.88852119 2.88852119 7.53692985 5.99162476 7.75 9.875 C7.80542969 10.59558594 7.86085937 11.31617187 7.91796875 12.05859375 C8.15224943 15.91357579 8.21658655 18.74332284 6 22 C3.69 21.67 1.38 21.34 -1 21 C-1 19.02 -1 17.04 -1 15 C-1.66 15 -2.32 15 -3 15 C-3.36263859 9.1977825 -2.25684543 5.36000789 0 0 Z " fill="#171717" transform="translate(188,113)"/>
<path d="M0 0 C0 0.99 0 1.98 0 3 C-6.42090547 6.31629184 -12.89760902 9.49902522 -19.5 12.4375 C-20.6446875 12.95183594 -21.789375 13.46617188 -22.96875 13.99609375 C-25.96671432 14.98897626 -27.13795103 15.18550558 -30 14 C-30 13.01 -30 12.02 -30 11 C-31.32 11 -32.64 11 -34 11 C-33.67 10.34 -33.34 9.68 -33 9 C-32.0925 8.855625 -31.185 8.71125 -30.25 8.5625 C-27.00852612 8.22080632 -27.00852612 8.22080632 -24.6875 6.5 C-20.92147344 4.39803169 -17.25096678 4.2685796 -13 4 C-13 3.34 -13 2.68 -13 2 C-4.738041 -1.62870159 -4.738041 -1.62870159 0 0 Z " fill="#1E1D1F" transform="translate(165,4)"/>
<path d="M0 0 C0.33 0.99 0.66 1.98 1 3 C1.99 3.33 2.98 3.66 4 4 C4 4.66 4 5.32 4 6 C4.78375 6.0825 5.5675 6.165 6.375 6.25 C9.5611013 6.90919337 11.72204923 7.76716819 14.625 9.125 C20.53845408 11.63100646 25.77540543 10.98395653 32 10 C32 10.66 32 11.32 32 12 C25.76552084 13.03907986 19.13111842 14.04370614 13 12 C13 12.66 13 13.32 13 14 C13.99 14.33 14.98 14.66 16 15 C16 15.66 16 16.32 16 17 C16.66 17.66 17.32 18.32 18 19 C17.34 19 16.68 19 16 19 C16 19.66 16 20.32 16 21 C7.80743982 21.4726477 7.80743982 21.4726477 4.4375 19.5 C3.963125 19.005 3.48875 18.51 3 18 C4.3125 16.5 4.3125 16.5 6 15 C6.99 15 7.98 15 9 15 C7.37633534 11.75267068 4.24612161 11.29844864 1 10 C1.66 9.34 2.32 8.68 3 8 C2.67 7.01 2.34 6.02 2 5 C1.34 4.67 0.68 4.34 0 4 C0 2.68 0 1.36 0 0 Z " fill="#0A090B" transform="translate(15,144)"/>
<path d="M0 0 C0.99 0 1.98 0 3 0 C3 0.66 3 1.32 3 2 C3.99 2.33 4.98 2.66 6 3 C6 3.99 6 4.98 6 6 C7.32 6 8.64 6 10 6 C12.52816306 15.63862168 12.18269137 25.11436703 12 35 C11.67 34.34 11.34 33.68 11 33 C10.01 33 9.02 33 8 33 C6.81329246 29.28102675 6.90103901 25.75607029 6.9375 21.875 C6.94652344 20.63492188 6.95554687 19.39484375 6.96484375 18.1171875 C6.97644531 17.08851562 6.98804688 16.05984375 7 15 C7 14.34 7 13.68 7 13 C5.02 13 3.04 13 1 13 C0.1276588 10.00519083 -0.10829766 7.36424089 -0.0625 4.25 C-0.05347656 3.45078125 -0.04445313 2.6515625 -0.03515625 1.828125 C-0.02355469 1.22484375 -0.01195312 0.6215625 0 0 Z " fill="#19171A" transform="translate(6,48)"/>
<path d="M0 0 C0.33 0.66 0.66 1.32 1 2 C0.67 2.99 0.34 3.98 0 5 C2.64 4.67 5.28 4.34 8 4 C8.33 5.32 8.66 6.64 9 8 C8.34 8 7.68 8 7 8 C7 8.66 7 9.32 7 10 C9.01920337 8.69593116 11.01924973 7.36176581 13 6 C13 5.67 13 5.34 13 5 C14.65 5 16.3 5 18 5 C17.319375 5.66 16.63875 6.32 15.9375 7 C8.49212256 13.69642855 8.49212256 13.69642855 4.90234375 22.3828125 C4.91394531 23.28773437 4.92554688 24.19265625 4.9375 25.125 C4.95103516 26.49011719 4.95103516 26.49011719 4.96484375 27.8828125 C4.97644531 28.58148438 4.98804688 29.28015625 5 30 C2.5705484 26.3558226 2.83820425 24.28758728 3 20 C2.34 20 1.68 20 1 20 C0.67 19.01 0.34 18.02 0 17 C-0.66 16.67 -1.32 16.34 -2 16 C-2 15.01 -2 14.02 -2 13 C-1.01 13 -0.02 13 1 13 C0.34 11.35 -0.32 9.7 -1 8 C-1.99 8 -2.98 8 -4 8 C-2.87548273 5.0280615 -1.77706209 2.66559313 0 0 Z " fill="#39353D" transform="translate(10,7)"/>
<path d="M0 0 C6.4068939 1.60172347 13.2067859 3.31017884 17 9 C16.2575 8.649375 15.515 8.29875 14.75 7.9375 C11.80084393 6.93210589 10.84541832 6.95667995 8 8 C7.01 8.33 6.02 8.66 5 9 C6.32 12.3 7.64 15.6 9 19 C8.34 19 7.68 19 7 19 C5 16 5 16 5 13 C4.360625 12.773125 3.72125 12.54625 3.0625 12.3125 C0 11 0 11 -1.80859375 9.75390625 C-8.40814963 5.35004382 -14.03409658 5.68037671 -21.77294922 5.96679688 C-26.0020012 6.02984786 -30.21723028 5.74820466 -34.4375 5.5 C-35.28489746 5.45198242 -36.13229492 5.40396484 -37.00537109 5.35449219 C-39.00378449 5.23982574 -41.00192647 5.12044361 -43 5 C-43 4.67 -43 4.34 -43 4 C-9.82897207 1.90603732 -9.82897207 1.90603732 0 8 C0.66 6.02 1.32 4.04 2 2 C1.34 2 0.68 2 0 2 C0 1.34 0 0.68 0 0 Z " fill="#3A3839" transform="translate(79,7)"/>
<path d="M0 0 C-0.85271484 0.14695312 -0.85271484 0.14695312 -1.72265625 0.296875 C-5.7619739 1.07911348 -9.21139375 1.91433947 -12.75 4.0625 C-15.6888481 5.8145056 -17.65297348 6.59429982 -21 7 C-19.68 7 -18.36 7 -17 7 C-16.67 7.99 -16.34 8.98 -16 10 C-12.88387743 12.07741505 -9.6648732 12.50024456 -6 13 C-7.5625 14.125 -7.5625 14.125 -10 15 C-16.30434783 13.69565217 -16.30434783 13.69565217 -19 11 C-21.58354218 10.83312552 -21.58354218 10.83312552 -24 11 C-24 10.01 -24 9.02 -24 8 C-26.64 7.34 -29.28 6.68 -32 6 C-28.305022 3.87633996 -24.35356477 2.94050886 -20.25 1.9375 C-19.23292969 1.67743164 -19.23292969 1.67743164 -18.1953125 1.41210938 C-4.97854691 -1.86695509 -4.97854691 -1.86695509 0 0 Z " fill="#827E81" transform="translate(152,8)"/>
<path d="M0 0 C0.33 0.99 0.66 1.98 1 3 C1.66 3 2.32 3 3 3 C3.06058594 3.75925781 3.12117188 4.51851562 3.18359375 5.30078125 C3.26738281 6.29464844 3.35117188 7.28851563 3.4375 8.3125 C3.51871094 9.29863281 3.59992188 10.28476562 3.68359375 11.30078125 C3.91812559 14.09375599 3.91812559 14.09375599 5 17 C4.01 17 3.02 17 2 17 C2.33 19.31 2.66 21.62 3 24 C2.34 24 1.68 24 1 24 C1 26.64 1 29.28 1 32 C1.66 32 2.32 32 3 32 C3 33.65 3 35.3 3 37 C1.68 36.34 0.36 35.68 -1 35 C-0.979375 34.071875 -0.95875 33.14375 -0.9375 32.1875 C-0.92425207 28.92188614 -1.21328357 25.74592195 -1.5625 22.5 C-1.99257974 18.11557593 -1.72654917 14.35929504 -1 10 C-0.96474609 7.60273429 -0.99750977 5.21682706 -1.0625 2.8203125 C-1 1 -1 1 0 0 Z " fill="#3A363D" transform="translate(92,46)"/>
<path d="M0 0 C-2.42130331 2.42130331 -3.80111377 2.52840504 -7.125 3.125 C-8.49011719 3.37636719 -8.49011719 3.37636719 -9.8828125 3.6328125 C-10.58148438 3.75398437 -11.28015625 3.87515625 -12 4 C-10.02 4 -8.04 4 -6 4 C-5.67 6.31 -5.34 8.62 -5 11 C-9.75 14 -9.75 14 -12 14 C-11.67 12.02 -11.34 10.04 -11 8 C-13.97 8.66 -16.94 9.32 -20 10 C-19.18156794 7.01513012 -18.51482981 4.65095216 -17 2 C-11.63838371 -0.62609778 -5.85413731 -0.21202107 0 0 Z " fill="#39373A" transform="translate(29,3)"/>
<path d="M0 0 C7.69261572 -0.71227923 13.75474407 1.48602976 19.74609375 6.4453125 C21.125 7.8125 21.125 7.8125 23 10 C20.36 9.34 17.72 8.68 15 8 C15 7.34 15 6.68 15 6 C12.03 5.505 12.03 5.505 9 5 C9 5.66 9 6.32 9 7 C3.22200422 7.23583656 -1.43707471 6.78433453 -7 5 C-8.99488234 4.63729412 -10.9937811 4.29359301 -13 4 C-12.67 3.01 -12.34 2.02 -12 1 C-11.26394531 1.2165625 -10.52789062 1.433125 -9.76953125 1.65625 C-8.79371094 1.9346875 -7.81789062 2.213125 -6.8125 2.5 C-5.84957031 2.7784375 -4.88664063 3.056875 -3.89453125 3.34375 C-1.14654124 3.96677608 1.19598416 4.12302812 4 4 C3.67 3.01 3.34 2.02 3 1 C1.68 1.33 0.36 1.66 -1 2 C-0.67 1.34 -0.34 0.68 0 0 Z " fill="#2D2A2E" transform="translate(142,22)"/>
<path d="M0 0 C1.2065625 0.2475 1.2065625 0.2475 2.4375 0.5 C8.38881995 1.33527298 14.12452968 1.12411283 20.09106445 0.49829102 C25.85938189 -0.04089575 31.56552995 -0.12842298 37.35546875 -0.09765625 C38.89694328 -0.09553383 38.89694328 -0.09553383 40.46955872 -0.09336853 C43.70890379 -0.08783066 46.94817629 -0.0752903 50.1875 -0.0625 C52.4016917 -0.05747695 54.6158845 -0.05291546 56.83007812 -0.04882812 C62.22007628 -0.03788169 67.61003295 -0.0212069 73 0 C68.95411983 2.24544114 65.32472168 2.32931406 60.78125 2.37890625 C59.97463425 2.39571945 59.16801849 2.41253265 58.33695984 2.42985535 C55.72472301 2.48284453 53.11247217 2.52296911 50.5 2.5625 C46.94391913 2.62712142 43.38797053 2.69757371 39.83203125 2.76953125 C38.96653152 2.78627899 38.1010318 2.80302673 37.20930481 2.82028198 C30.85293459 2.95340168 24.52893256 3.29612988 18.1875 3.75 C11.67022699 4.18577196 5.99784952 3.79373517 0 1 C0 0.67 0 0.34 0 0 Z " fill="#7A7878" transform="translate(16,163)"/>
<path d="M0 0 C0.33 0 0.66 0 1 0 C1.08302368 0.86951294 1.08302368 0.86951294 1.16772461 1.7565918 C1.42167617 4.40048912 1.67955194 7.04398972 1.9375 9.6875 C2.02451172 10.59951172 2.11152344 11.51152344 2.20117188 12.45117188 C2.28818359 13.33740234 2.37519531 14.22363281 2.46484375 15.13671875 C2.543396 15.94842529 2.62194824 16.76013184 2.70288086 17.59643555 C3.01205129 20.09748965 3.50552725 22.52995652 4 25 C4.01841618 26.54169744 3.99675647 28.0843317 3.9375 29.625 C3.88772146 33.36392173 4.24359636 36.71464114 5 40.375 C6.65780463 48.73507193 6.9355942 56.92711595 4 65 C3.13646744 62.02650724 2.89275857 59.42322885 2.9375 56.33203125 C2.94910156 54.99108398 2.94910156 54.99108398 2.9609375 53.62304688 C2.98670776 51.76887642 3.01274365 49.91470963 3.0390625 48.06054688 C3.09923281 41.05571994 2.52915705 34.35132796 1.4375 27.4375 C0.9445893 23.56463021 0.93156674 19.90069607 1 16 C-0.32 16 -1.64 16 -3 16 C-3 14.68 -3 13.36 -3 12 C-2.34 12 -1.68 12 -1 12 C-0.67 8.04 -0.34 4.08 0 0 Z " fill="#A5A2A3" transform="translate(15,38)"/>
<path d="M0 0 C4.8333472 -0.08333357 9.23692563 0.04738513 14 1 C14 1.99 14 2.98 14 4 C14.66 4 15.32 4 16 4 C16 5.32 16 6.64 16 8 C12.919726 8.66005871 10.47878878 9.08782516 7.359375 8.515625 C4.62184159 8.09544545 2.35648867 7.96751319 -0.3828125 8.04296875 C-1.15753906 8.06423828 -1.93226562 8.08550781 -2.73046875 8.10742188 C-4.33505897 8.16108272 -5.93930164 8.22630759 -7.54296875 8.30273438 C-13.44659199 8.43578765 -13.44659199 8.43578765 -16.5546875 5.98828125 C-17.03164062 5.33214844 -17.50859375 4.67601562 -18 4 C-17.195625 4.2165625 -17.195625 4.2165625 -16.375 4.4375 C-8.24002455 6.36420471 -0.30021175 6.18536453 8 6 C8 5.34 8 4.68 8 4 C7.34 4 6.68 4 6 4 C6 3.34 6 2.68 6 2 C3.03 1.505 3.03 1.505 0 1 C0 0.67 0 0.34 0 0 Z " fill="#525051" transform="translate(119,153)"/>
<path d="M0 0 C0.33 0.66 0.66 1.32 1 2 C1.66 2 2.32 2 3 2 C2.67 3.32 2.34 4.64 2 6 C2.99 6 3.98 6 5 6 C4.67 9.96 4.34 13.92 4 18 C1.36 18.66 -1.28 19.32 -4 20 C-3.88490339 18.58249437 -3.75746342 17.16598831 -3.625 15.75 C-3.55539063 14.96109375 -3.48578125 14.1721875 -3.4140625 13.359375 C-2.98169974 10.89572304 -2.13967023 9.20811108 -1 7 C-0.61250787 4.67504723 -0.27017161 2.34148732 0 0 Z " fill="#060607" transform="translate(8,88)"/>
<path d="M0 0 C0.66 0 1.32 0 2 0 C2.59732819 2.76264289 3 5.16032769 3 8 C3.33 8.66 3.66 9.32 4 10 C3.01 10 2.02 10 1 10 C1.515625 10.37125 2.03125 10.7425 2.5625 11.125 C4 13 4 13 3.6875 16.1875 C3.460625 17.115625 3.23375 18.04375 3 19 C2.01 19 1.02 19 0 19 C-0.33 20.98 -0.66 22.96 -1 25 C-0.01 25 0.98 25 2 25 C1.67 27.97 1.34 30.94 1 34 C0.34 33.67 -0.32 33.34 -1 33 C-2.85781157 26.86922183 -2.11221511 20.4559998 -1.21875 14.2265625 C-0.8586167 10.56091999 -0.98154043 6.90125683 -1.0625 3.22265625 C-1 1 -1 1 0 0 Z " fill="#2F2B31" transform="translate(92,84)"/>
<path d="M0 0 C3.3 0 6.6 0 10 0 C10 0.33 10 0.66 10 1 C7.36 1 4.72 1 2 1 C2.01160156 2.31355469 2.02320312 3.62710938 2.03515625 4.98046875 C2.04453828 6.71614441 2.05363804 8.45182161 2.0625 10.1875 C2.07087891 11.05181641 2.07925781 11.91613281 2.08789062 12.80664062 C2.10396812 17.00286769 2.07559038 20.90936886 1 25 C1.99 25.33 2.98 25.66 4 26 C3.67 29.3 3.34 32.6 3 36 C2.67 36 2.34 36 2 36 C2 33.03 2 30.06 2 27 C1.01 27 0.02 27 -1 27 C-1 26.01 -1 25.02 -1 24 C-1.66 23.67 -2.32 23.34 -3 23 C-2.01 23 -1.02 23 0 23 C0 19.04 0 15.08 0 11 C-0.66 10.67 -1.32 10.34 -2 10 C-1.34 6.7 -0.68 3.4 0 0 Z " fill="#939091" transform="translate(101,88)"/>
<path d="M0 0 C0.66 0 1.32 0 2 0 C2 3.96 2 7.92 2 12 C-2.95849479 11.00830104 -4.03186426 10.73765242 -7 7 C-7 6.01 -7 5.02 -7 4 C-6.01 4 -5.02 4 -4 4 C-3.67 3.01 -3.34 2.02 -3 1 C-2.01 1.33 -1.02 1.66 0 2 C0 1.34 0 0.68 0 0 Z " fill="#100F12" transform="translate(99,99)"/>
<path d="M0 0 C0.66 0 1.32 0 2 0 C5.18482809 5.55141971 4.5660349 11.93161477 3 18 C2.01 18 1.02 18 0 18 C0 16.68 0 15.36 0 14 C-0.66 14 -1.32 14 -2 14 C-1.85923685 12.0412957 -1.7122324 10.08303907 -1.5625 8.125 C-1.48128906 7.03445312 -1.40007813 5.94390625 -1.31640625 4.8203125 C-1 2 -1 2 0 0 Z " fill="#524F52" transform="translate(6,62)"/>
<path d="M0 0 C0.33 0.99 0.66 1.98 1 3 C1.99 3.33 2.98 3.66 4 4 C4 4.66 4 5.32 4 6 C4.78375 6.0825 5.5675 6.165 6.375 6.25 C9.5611013 6.90919337 11.72204923 7.76716819 14.625 9.125 C20.53845408 11.63100646 25.77540543 10.98395653 32 10 C32 10.66 32 11.32 32 12 C25.76552084 13.03907986 19.13111842 14.04370614 13 12 C12.67 13.32 12.34 14.64 12 16 C11.34 16 10.68 16 10 16 C10.33 14.02 10.66 12.04 11 10 C8.34771188 8.92474806 5.71631546 7.90543849 3 7 C1.3125 5.6875 1.3125 5.6875 0 4 C0 2.68 0 1.36 0 0 Z " fill="#726F71" transform="translate(15,144)"/>
<path d="M0 0 C4.38889325 0.66498383 7.9811485 2.18757677 12 4 C12 4.66 12 5.32 12 6 C13.32 5.67 14.64 5.34 16 5 C16.66 6.32 17.32 7.64 18 9 C12.08507728 8.54775239 6.64800112 7.8417395 1 6 C1.33 4.68 1.66 3.36 2 2 C1.34 2 0.68 2 0 2 C0 1.34 0 0.68 0 0 Z " fill="#1B1A1D" transform="translate(129,18)"/>
<path d="M0 0 C0.66 0 1.32 0 2 0 C2.33 5.94 2.66 11.88 3 18 C0.36 17.67 -2.28 17.34 -5 17 C-5 20.3 -5 23.6 -5 27 C-5.33 27 -5.66 27 -6 27 C-6.05386629 24.87527424 -6.09273071 22.75016348 -6.125 20.625 C-6.14820313 19.44164063 -6.17140625 18.25828125 -6.1953125 17.0390625 C-6 14 -6 14 -4 12 C-4 13.32 -4 14.64 -4 16 C-3.01 16 -2.02 16 -1 16 C-0.67 10.72 -0.34 5.44 0 0 Z " fill="#726E71" transform="translate(10,64)"/>
<path d="M0 0 C-0.6875 1.9375 -0.6875 1.9375 -2 4 C-4.5 4.875 -4.5 4.875 -7 5 C-7.66 4.34 -8.32 3.68 -9 3 C-9 1.68 -9 0.36 -9 -1 C-13.95 -1 -18.9 -1 -24 -1 C-24 -1.33 -24 -1.66 -24 -2 C-5.50152718 -3.66768479 -5.50152718 -3.66768479 0 0 Z " fill="#595758" transform="translate(132,83)"/>
<path d="M0 0 C2.1875 0.3125 2.1875 0.3125 4 1 C4.75 3.25 4.75 3.25 5 6 C3.0625 8.3125 3.0625 8.3125 1 10 C1 8.68 1 7.36 1 6 C-0.98 6.33 -2.96 6.66 -5 7 C-5.33 6.01 -5.66 5.02 -6 4 C-7.65 4 -9.3 4 -11 4 C-10.67 3.34 -10.34 2.68 -10 2 C-5.25 1.875 -5.25 1.875 -3 3 C-2.5875 2.484375 -2.175 1.96875 -1.75 1.4375 C-0.88375 0.7259375 -0.88375 0.7259375 0 0 Z " fill="#B2AFAF" transform="translate(193,40)"/>
<path d="M0 0 C0.33 1.32 0.66 2.64 1 4 C1.99 4 2.98 4 4 4 C4.66 3.01 5.32 2.02 6 1 C6 4.3 6 7.6 6 11 C5.34 11 4.68 11 4 11 C3.67 12.32 3.34 13.64 3 15 C2.34 15 1.68 15 1 15 C1 13.02 1 11.04 1 9 C0.67 9.33 0.34 9.66 0 10 C-0.99 10 -1.98 10 -3 10 C-3 8.02 -3 6.04 -3 4 C-2.01 4.33 -1.02 4.66 0 5 C0 3.35 0 1.7 0 0 Z " fill="#3B383D" transform="translate(13,77)"/>
<path d="M0 0 C1.32 0 2.64 0 4 0 C4 5.28 4 10.56 4 16 C3.67 15.34 3.34 14.68 3 14 C2.01 14 1.02 14 0 14 C-0.85380428 11.03878992 -1.13517764 8.3912356 -1.125 5.3125 C-1.12757812 4.52488281 -1.13015625 3.73726563 -1.1328125 2.92578125 C-1 1 -1 1 0 0 Z " fill="#2B272F" transform="translate(14,67)"/>
<path d="M0 0 C1.65 0 3.3 0 5 0 C5.33 0.66 5.66 1.32 6 2 C4.35 1.67 2.7 1.34 1 1 C0.67 7.27 0.34 13.54 0 20 C1.98 20 3.96 20 6 20 C6.33 19.34 6.66 18.68 7 18 C6.67 19.32 6.34 20.64 6 22 C3.69 21.67 1.38 21.34 -1 21 C-1 19.02 -1 17.04 -1 15 C-1.66 15 -2.32 15 -3 15 C-3.36263859 9.1977825 -2.25684543 5.36000789 0 0 Z " fill="#777575" transform="translate(188,113)"/>
<path d="M0 0 C4.92307692 4.18461538 4.92307692 4.18461538 5.3125 8.3125 C5.1578125 9.6428125 5.1578125 9.6428125 5 11 C4.67 11 4.34 11 4 11 C3.67 9.35 3.34 7.7 3 6 C1.68 5.67 0.36 5.34 -1 5 C-0.67 7.31 -0.34 9.62 0 12 C0.99 12 1.98 12 3 12 C3 12.99 3 13.98 3 15 C2.34 15 1.68 15 1 15 C1 17.31 1 19.62 1 22 C0.34 21.67 -0.32 21.34 -1 21 C-1.37890625 18.75 -1.37890625 18.75 -1.5625 16 C-1.53480538 12.69240381 -1.53480538 12.69240381 -3 10 C-3.30867281 6.52743085 -3.38701339 4.6127712 -1.5 1.625 C-1.005 1.08875 -0.51 0.5525 0 0 Z " fill="#B6B3B3" transform="translate(92,22)"/>
<path d="M0 0 C0 0.99 0 1.98 0 3 C-4.95 5.475 -4.95 5.475 -10 8 C-10.33 7.34 -10.66 6.68 -11 6 C-10.67 5.01 -10.34 4.02 -10 3 C-10.99 2.67 -11.98 2.34 -13 2 C-4.738041 -1.62870159 -4.738041 -1.62870159 0 0 Z " fill="#716F71" transform="translate(165,4)"/>
<path d="M0 0 C1.49768921 0.03951782 1.49768921 0.03951782 3.02563477 0.07983398 C8.50645625 0.31252124 12.45340923 0.80452243 17.125 3.75 C17.125 4.41 17.125 5.07 17.125 5.75 C11.25 3.875 11.25 3.875 10.125 2.75 C8.00056452 2.70102166 5.87469092 2.71375794 3.75 2.75 C-5.48128346 2.85052629 -14.66369502 2.30525627 -23.875 1.75 C-23.875 1.42 -23.875 1.09 -23.875 0.75 C-15.89689452 -0.36521905 -8.03235137 -0.28295855 0 0 Z " fill="#5D5A5B" transform="translate(59.875,10.25)"/>
<path d="M0 0 C0.99 0 1.98 0 3 0 C4.5625 2.8125 4.5625 2.8125 6 6 C5.67 6.99 5.34 7.98 5 9 C1.86650268 10.04449911 1.01031744 9.93423645 -2 9 C-1.125 1.125 -1.125 1.125 0 0 Z " fill="#868484" transform="translate(189,151)"/>
<path d="M0 0 C0.33 0.66 0.66 1.32 1 2 C1.99 2 2.98 2 4 2 C3.93999894 3.6260287 3.8512115 5.25101549 3.75 6.875 C3.70359375 7.77992187 3.6571875 8.68484375 3.609375 9.6171875 C3.40828125 10.40351562 3.2071875 11.18984375 3 12 C1.6879691 12.70767021 0.35365946 13.37563769 -1 14 C-1.33 15.32 -1.66 16.64 -2 18 C-2 14.7 -2 11.4 -2 8 C-1.34 8 -0.68 8 0 8 C0 5.36 0 2.72 0 0 Z " fill="#5A565B" transform="translate(5,83)"/>
<path d="M0 0 C0.33 0 0.66 0 1 0 C1.0580966 3.9166043 1.09362893 7.83309763 1.125 11.75 C1.14175781 12.86117188 1.15851562 13.97234375 1.17578125 15.1171875 C1.18222656 16.18710937 1.18867187 17.25703125 1.1953125 18.359375 C1.20578613 19.34389648 1.21625977 20.32841797 1.22705078 21.34277344 C0.99489618 24.05973111 0.39036273 25.68112513 -1 28 C-1.9261191 22.79058006 -2.05719564 17.83983232 -1.9375 12.55078125 C-1.89547253 10.04174466 -1.89547253 10.04174466 -2.58984375 7.87109375 C-3.27199296 4.75919401 -1.50850676 2.65497189 0 0 Z " fill="#787676" transform="translate(5,15)"/>
<path d="M0 0 C1.32 0 2.64 0 4 0 C4.66 4.29 5.32 8.58 6 13 C5.01 13.33 4.02 13.66 3 14 C2.34 13.67 1.68 13.34 1 13 C1.33 10.36 1.66 7.72 2 5 C1.67 5.66 1.34 6.32 1 7 C0.01 6.67 -0.98 6.34 -2 6 C-1.34 4.02 -0.68 2.04 0 0 Z " fill="#19161B" transform="translate(12,54)"/>
<path d="M0 0 C1 1 1 1 1.0625 3.5625 C1.041875 4.366875 1.02125 5.17125 1 6 C0.01 5.34 -0.98 4.68 -2 4 C-5.48809191 4.77030122 -5.48809191 4.77030122 -9 6 C-10.33130115 6.34135927 -11.66358148 6.67925956 -13 7 C-12.34 5.35 -11.68 3.7 -11 2 C-9.35 2 -7.7 2 -6 2 C-6 1.34 -6 0.68 -6 0 C-3.49749232 -1.25125384 -2.59701335 -0.83774624 0 0 Z " fill="#9B9799" transform="translate(188,140)"/>
<path d="M0 0 C0 2.31 0 4.62 0 7 C-0.66 7 -1.32 7 -2 7 C-2 7.66 -2 8.32 -2 9 C-3.65 9.33 -5.3 9.66 -7 10 C-7.125 3.25 -7.125 3.25 -6 1 C-3.911361 0.32624548 -2.19636905 0 0 0 Z " fill="#1D1B1F" transform="translate(18,97)"/>
<path d="M0 0 C0.99 0 1.98 0 3 0 C3 4.62 3 9.24 3 14 C2.01 14.33 1.02 14.66 0 15 C-0.309375 14.05125 -0.61875 13.1025 -0.9375 12.125 C-1.87394742 9.13919592 -1.87394742 9.13919592 -3 7 C-2.01 7 -1.02 7 0 7 C-0.185625 6.401875 -0.37125 5.80375 -0.5625 5.1875 C-1 3 -1 3 0 0 Z " fill="#070708" transform="translate(96,87)"/>
<path d="M0 0 C0.66 0 1.32 0 2 0 C2 3.63 2 7.26 2 11 C1.67 10.34 1.34 9.68 1 9 C-0.98 9.33 -2.96 9.66 -5 10 C-4.67 7.36 -4.34 4.72 -4 2 C-3.67 2.66 -3.34 3.32 -3 4 C-2.34 4 -1.68 4 -1 4 C-0.67 2.68 -0.34 1.36 0 0 Z " fill="#353038" transform="translate(17,88)"/>
<path d="M0 0 C0.33 0.99 0.66 1.98 1 3 C1.66 3 2.32 3 3 3 C3 3.66 3 4.32 3 5 C2.34 5 1.68 5 1 5 C1.09539062 5.65484375 1.19078125 6.3096875 1.2890625 6.984375 C2.18288684 14.34283586 1.5275568 20.76619797 0 28 C-0.33 28 -0.66 28 -1 28 C-1.73522927 21.74489559 -2.04113951 16.24683703 -1 10 C-0.96474609 7.60273429 -0.99750977 5.21682706 -1.0625 2.8203125 C-1 1 -1 1 0 0 Z " fill="#A09D9E" transform="translate(92,46)"/>
<path d="M0 0 C0 2.25 0 2.25 -1 5 C-3.48318289 6.79279124 -6.06461296 8.12052606 -9 9 C-9.99 8.67 -10.98 8.34 -12 8 C-11.34 8 -10.68 8 -10 8 C-10 7.34 -10 6.68 -10 6 C-9.34 6 -8.68 6 -8 6 C-8 5.01 -8 4.02 -8 3 C-7.34 3 -6.68 3 -6 3 C-6 2.34 -6 1.68 -6 1 C-3 0 -3 0 0 0 Z " fill="#5B595B" transform="translate(155,7)"/>
<path d="M0 0 C0.33 0.66 0.66 1.32 1 2 C1.66 2 2.32 2 3 2 C2.67 3.32 2.34 4.64 2 6 C2.99 6 3.98 6 5 6 C4.34 7.32 3.68 8.64 3 10 C2.01 9.67 1.02 9.34 0 9 C-0.12375 9.515625 -0.2475 10.03125 -0.375 10.5625 C-1.18641628 13.72702351 -2.0945913 16.86124985 -3 20 C-3.33 20 -3.66 20 -4 20 C-3.88490339 18.58249437 -3.75746342 17.16598831 -3.625 15.75 C-3.55539063 14.96109375 -3.48578125 14.1721875 -3.4140625 13.359375 C-2.98169974 10.89572304 -2.13967023 9.20811108 -1 7 C-0.61250787 4.67504723 -0.27017161 2.34148732 0 0 Z " fill="#0F0E10" transform="translate(8,88)"/>
<path d="M0 0 C0.33 0 0.66 0 1 0 C1.22262638 2.72867733 1.42852324 5.45691958 1.625 8.1875 C1.68945312 8.95642578 1.75390625 9.72535156 1.8203125 10.51757812 C2.11996357 14.88124681 2.09450183 18.01085338 0 22 C-2.50058195 18.25391745 -2.07220684 14.72718805 -1.6875 10.4375 C-1.63916016 9.76525391 -1.59082031 9.09300781 -1.54101562 8.40039062 C-1.3068033 5.41492471 -0.95082971 2.85248914 0 0 Z " fill="#8F8C8E" transform="translate(2,125)"/>
<path d="M0 0 C-0.33 2.31 -0.66 4.62 -1 7 C-1.99 7 -2.98 7 -4 7 C-4.66 6.34 -5.32 5.68 -6 5 C-6.66 4.67 -7.32 4.34 -8 4 C-8 3.34 -8 2.68 -8 2 C-8.99 1.67 -9.98 1.34 -11 1 C-3.375 -1.125 -3.375 -1.125 0 0 Z " fill="#131114" transform="translate(77,155)"/>
<path d="M0 0 C2.625 -0.1875 2.625 -0.1875 5 0 C5.625 2.375 5.625 2.375 6 5 C5.34 5.66 4.68 6.32 4 7 C1.375 6.625 1.375 6.625 -1 6 C-1.33 5.01 -1.66 4.02 -2 3 C-1.34 2.01 -0.68 1.02 0 0 Z " fill="#5A5858" transform="translate(194,83)"/>
<path d="M0 0 C1.98 0 3.96 0 6 0 C6.33 0.99 6.66 1.98 7 3 C10.11612257 5.07741505 13.3351268 5.50024456 17 6 C15.4375 7.125 15.4375 7.125 13 8 C6.69565217 6.69565217 6.69565217 6.69565217 4 4 C1.41645782 3.83312552 1.41645782 3.83312552 -1 4 C-0.67 2.68 -0.34 1.36 0 0 Z " fill="#8B878A" transform="translate(129,15)"/>
<path d="M0 0 C0.33 0.66 0.66 1.32 1 2 C0.67 2.99 0.34 3.98 0 5 C2.64 4.67 5.28 4.34 8 4 C8 4.66 8 5.32 8 6 C7.34 6 6.68 6 6 6 C6 6.99 6 7.98 6 9 C4.68 9.33 3.36 9.66 2 10 C1.67 9.34 1.34 8.68 1 8 C-0.65 8 -2.3 8 -4 8 C-2.87548273 5.0280615 -1.77706209 2.66559313 0 0 Z " fill="#5C5A5C" transform="translate(10,7)"/>
<path d="M0 0 C3.3756301 0.11063216 6.75021989 0.24108015 10.125 0.375 C11.07632813 0.4059375 12.02765625 0.436875 13.0078125 0.46875 C18.01710348 0.67747046 22.30366613 1.05505365 27 3 C23.87077361 3.96891184 21.48665439 3.97996657 18.25 3.5625 C15.03289376 3.18819751 11.92591856 2.94469494 8.6875 3 C5.5792916 3 2.99771948 2.74942987 0 2 C0 1.34 0 0.68 0 0 Z " fill="#626061" transform="translate(52,3)"/>
<path d="M0 0 C0.33 0 0.66 0 1 0 C1.71413279 8.02124152 2.14525497 15.94641862 2 24 C1.67 24 1.34 24 1 24 C1 21.36 1 18.72 1 16 C-0.32 16 -1.64 16 -3 16 C-3 14.68 -3 13.36 -3 12 C-2.34 12 -1.68 12 -1 12 C-0.67 8.04 -0.34 4.08 0 0 Z " fill="#676467" transform="translate(15,38)"/>
<path d="M0 0 C2.475 0.99 2.475 0.99 5 2 C4.01 2.495 4.01 2.495 3 3 C3 6.63 3 10.26 3 14 C2.67 13.34 2.34 12.68 2 12 C1.34 12 0.68 12 0 12 C-1.16063604 7.74433453 -0.76173392 4.3164922 0 0 Z " fill="#59545A" transform="translate(93,37)"/>
<path d="M0 0 C7.40272082 0.9253401 13.13158655 4.52303487 18 10 C15.36 9.34 12.72 8.68 10 8 C10 7.34 10 6.68 10 6 C9.01 5.67 8.02 5.34 7 5 C7 4.34 7 3.68 7 3 C5.35 3 3.7 3 2 3 C2 2.34 2 1.68 2 1 C1.34 0.67 0.68 0.34 0 0 Z " fill="#797677" transform="translate(147,22)"/>
<path d="M0 0 C1.65 0 3.3 0 5 0 C1.19588166 3.91939465 -2.81576108 7.49102731 -7 11 C-6.875 8.25 -6.875 8.25 -6 5 C-2.9375 2.6875 -2.9375 2.6875 0 1 C0 0.67 0 0.34 0 0 Z " fill="#8B8889" transform="translate(23,12)"/>
<path d="M0 0 C2.475 0.495 2.475 0.495 5 1 C5.625 4.375 5.625 4.375 6 8 C5.34 8.66 4.68 9.32 4 10 C4 9.01 4 8.02 4 7 C3.01 7 2.02 7 1 7 C0.67 4.69 0.34 2.38 0 0 Z " fill="#635F64" transform="translate(91,27)"/>
<path d="M0 0 C2.92879371 0.62759865 5.36095629 1.58622659 8 3 C7.67 4.65 7.34 6.3 7 8 C6.34 7.34 5.68 6.68 5 6 C2.68351201 4.96157435 0.35096976 3.9578025 -2 3 C-1.34 2.01 -0.68 1.02 0 0 Z " fill="#151317" transform="translate(18,151)"/>
<path d="M0 0 C-0.56847656 0.12117187 -1.13695312 0.24234375 -1.72265625 0.3671875 C-5.4320855 1.17223892 -9.05330712 2.01626319 -12.6875 3.125 C-15.95078665 3.98700025 -18.6437508 4.16371947 -22 4 C-15.92617244 -0.04921838 -7.11884323 -2.09934845 0 0 Z " fill="#A4A1A2" transform="translate(152,8)"/>
<path d="M0 0 C0.33 0 0.66 0 1 0 C1.125 5.75 1.125 5.75 0 8 C0.99 8 1.98 8 3 8 C2.67 10.97 2.34 13.94 2 17 C1.34 16.67 0.68 16.34 0 16 C-1.54684123 10.89542395 -1.68017847 5.04053542 0 0 Z " fill="#817E80" transform="translate(91,101)"/>
<path d="M0 0 C0.99 0 1.98 0 3 0 C3.27714844 0.77085937 3.55429688 1.54171875 3.83984375 2.3359375 C4.20207031 3.33882812 4.56429688 4.34171875 4.9375 5.375 C5.47697266 6.87160156 5.47697266 6.87160156 6.02734375 8.3984375 C6.92349292 10.93504165 6.92349292 10.93504165 8 13 C5.61328125 12.3515625 5.61328125 12.3515625 3 11 C1.85546875 8.3984375 1.85546875 8.3984375 1.1875 5.375 C0.95417969 4.37210938 0.72085937 3.36921875 0.48046875 2.3359375 C0.32191406 1.56507813 0.16335937 0.79421875 0 0 Z " fill="#838082" transform="translate(2,147)"/>
<path d="M0 0 C-0.66 0 -1.32 0 -2 0 C-2.33 1.98 -2.66 3.96 -3 6 C-1.68 5.67 -0.36 5.34 1 5 C1 5.99 1 6.98 1 8 C-4.875 6.125 -4.875 6.125 -6 5 C-6.04063832 3.33382885 -6.042721 1.66611905 -6 0 C-3.50907189 -1.24546405 -2.58919267 -0.7767578 0 0 Z " fill="#6A6869" transform="translate(154,55)"/>
<path d="M0 0 C0.66 0 1.32 0 2 0 C2 0.66 2 1.32 2 2 C2.99 2 3.98 2 5 2 C5 2.66 5 3.32 5 4 C4.34 4 3.68 4 3 4 C3 8.29 3 12.58 3 17 C2.67 17 2.34 17 2 17 C1.34 11.39 0.68 5.78 0 0 Z " fill="#777576" transform="translate(91,123)"/>
<path d="M0 0 C0.103125 0.639375 0.20625 1.27875 0.3125 1.9375 C0.539375 2.618125 0.76625 3.29875 1 4 C1.99 4.33 2.98 4.66 4 5 C3.67 8.3 3.34 11.6 3 15 C2.67 15 2.34 15 2 15 C2 12.03 2 9.06 2 6 C1.01 6 0.02 6 -1 6 C-1 5.01 -1 4.02 -1 3 C-1.66 2.67 -2.32 2.34 -3 2 C-2.01 2 -1.02 2 0 2 C0 1.34 0 0.68 0 0 Z " fill="#898687" transform="translate(101,109)"/>
<path d="M0 0 C0.66 0 1.32 0 2 0 C2 3.96 2 7.92 2 12 C1.01 12 0.02 12 -1 12 C-1.08159574 7.83861737 -0.98248524 4.0527516 0 0 Z " fill="#413D43" transform="translate(99,99)"/>
<path d="M0 0 C6.4068939 1.60172347 13.2067859 3.31017884 17 9 C16.34 8.731875 15.68 8.46375 15 8.1875 C11.35060933 6.74294953 7.67754567 5.37128822 4 4 C4 3.34 4 2.68 4 2 C2.68 2 1.36 2 0 2 C0 1.34 0 0.68 0 0 Z " fill="#999697" transform="translate(79,7)"/>
<path d="M0 0 C4.68520915 1.21815438 8.70543612 2.69559987 13 5 C13 5.66 13 6.32 13 7 C8.14036821 6.39254603 4.2594482 4.27241033 0 2 C0 1.34 0 0.68 0 0 Z " fill="#676469" transform="translate(11,152)"/>
<path d="M0 0 C0.99 0 1.98 0 3 0 C3 0.66 3 1.32 3 2 C2.34 2 1.68 2 1 2 C1 4.64 1 7.28 1 10 C1.66 10 2.32 10 3 10 C3 11.65 3 13.3 3 15 C1.68 14.34 0.36 13.68 -1 13 C-0.67 8.71 -0.34 4.42 0 0 Z " fill="#6A676A" transform="translate(92,68)"/>
<path d="M0 0 C4.95 1.32 9.9 2.64 15 4 C14.34 4.66 13.68 5.32 13 6 C11.453125 5.5359375 11.453125 5.5359375 9.875 5.0625 C6.61027443 4.12497188 3.36386538 3.49227298 0 3 C0 2.01 0 1.02 0 0 Z " fill="#A29F9F" transform="translate(129,23)"/>
<path d="M0 0 C5.94 0 11.88 0 18 0 C18 0.33 18 0.66 18 1 C9.585 1.495 9.585 1.495 1 2 C1 2.99 1 3.98 1 5 C0.34 5 -0.32 5 -1 5 C-0.67 3.35 -0.34 1.7 0 0 Z " fill="#918E8F" transform="translate(140,154)"/>
<path d="M0 0 C2.64 0 5.28 0 8 0 C8 1.65 8 3.3 8 5 C5.69 4.67 3.38 4.34 1 4 C0.67 2.68 0.34 1.36 0 0 Z " fill="#0F0E10" transform="translate(157,85)"/>
<path d="M0 0 C0.66 0 1.32 0 2 0 C2 3.3 2 6.6 2 10 C1.01 10 0.02 10 -1 10 C-1.125 2.25 -1.125 2.25 0 0 Z " fill="#747072" transform="translate(101,74)"/>
<path d="M0 0 C0.90878906 0.19916016 0.90878906 0.19916016 1.8359375 0.40234375 C7.87728368 1.67567364 13.84737892 2.50255404 20 3 C20 3.33 20 3.66 20 4 C17.41554227 4.1081866 14.83562648 4.18737237 12.25 4.25 C11.15558594 4.30027344 11.15558594 4.30027344 10.0390625 4.3515625 C6.32855625 4.41902625 4.42843039 4.34327652 1.484375 1.984375 C0.99453125 1.32953125 0.5046875 0.6746875 0 0 Z " fill="#8D8C8C" transform="translate(101,157)"/>
<path d="M0 0 C1.65 0 3.3 0 5 0 C5.33 0.99 5.66 1.98 6 3 C9.465 2.505 9.465 2.505 13 2 C12.67 3.98 12.34 5.96 12 8 C11.67 6.68 11.34 5.36 11 4 C9.02 4.33 7.04 4.66 5 5 C4.67 4.01 4.34 3.02 4 2 C2.35 2 0.7 2 -1 2 C-0.67 1.34 -0.34 0.68 0 0 Z " fill="#7E7B7D" transform="translate(183,42)"/>
<path d="M0 0 C1.32 0 2.64 0 4 0 C3.85795259 1.58367747 3.71119847 3.16693318 3.5625 4.75 C3.48128906 5.63171875 3.40007813 6.5134375 3.31640625 7.421875 C3.03761535 9.69350452 2.61209423 11.79851823 2 14 C0.8422494 10.52674819 0.93133348 7.63932552 1 4 C0.34 4 -0.32 4 -1 4 C-0.67 2.68 -0.34 1.36 0 0 Z " fill="#797678" transform="translate(12,23)"/>
<path d="M0 0 C0.66 0 1.32 0 2 0 C1.875 2.25 1.875 2.25 1 5 C-2.0625 7.3125 -2.0625 7.3125 -5 9 C-5 7.68 -5 6.36 -5 5 C-4.01 5 -3.02 5 -2 5 C-2 4.01 -2 3.02 -2 2 C-1.34 2 -0.68 2 0 2 C0 1.34 0 0.68 0 0 Z " fill="#6C696B" transform="translate(16,104)"/>
<path d="M0 0 C0.33 0 0.66 0 1 0 C1.33 5.94 1.66 11.88 2 18 C1.01 17.67 0.02 17.34 -1 17 C-0.67 11.39 -0.34 5.78 0 0 Z " fill="#C8C7C6" transform="translate(11,64)"/>
<path d="M0 0 C1.32 0.66 2.64 1.32 4 2 C3.67 3.98 3.34 5.96 3 8 C2.01 8 1.02 8 0 8 C-0.38063221 5.6739143 -0.71269945 3.33944736 -1 1 C-0.67 0.67 -0.34 0.34 0 0 Z " fill="#252127" transform="translate(6,72)"/>
<path d="M0 0 C1.15625 1.65625 1.15625 1.65625 0.84375 3.84375 C0.5034375 4.7409375 0.5034375 4.7409375 0.15625 5.65625 C-0.83375 5.32625 -1.82375 4.99625 -2.84375 4.65625 C-2.51375 3.33625 -2.18375 2.01625 -1.84375 0.65625 C-5.14375 0.65625 -8.44375 0.65625 -11.84375 0.65625 C-11.84375 0.32625 -11.84375 -0.00375 -11.84375 -0.34375 C-10.24259424 -0.5930857 -8.63754841 -0.81753648 -7.03125 -1.03125 C-6.13792969 -1.15886719 -5.24460938 -1.28648438 -4.32421875 -1.41796875 C-1.84375 -1.34375 -1.84375 -1.34375 0 0 Z " fill="#716F71" transform="translate(176.84375,57.34375)"/>
<path d="M0 0 C1.5 1.3125 1.5 1.3125 3 3 C3 3.99 3 4.98 3 6 C2.01 6 1.02 6 0 6 C-0.33 6.66 -0.66 7.32 -1 8 C-1.33 5.69 -1.66 3.38 -2 1 C-1.34 0.67 -0.68 0.34 0 0 Z " fill="#111012" transform="translate(8,14)"/>
<path d="M0 0 C0.185625 0.9590625 0.185625 0.9590625 0.375 1.9375 C0.684375 2.9584375 0.684375 2.9584375 1 4 C1.66 4.33 2.32 4.66 3 5 C2.34 5 1.68 5 1 5 C0.67 6.65 0.34 8.3 0 10 C-0.99 10 -1.98 10 -3 10 C-3 8.02 -3 6.04 -3 4 C-2.01 4.33 -1.02 4.66 0 5 C0 3.35 0 1.7 0 0 Z " fill="#635E64" transform="translate(13,77)"/>
<path d="M0 0 C0.66 0 1.32 0 2 0 C2 2.97 2 5.94 2 9 C1.67 8.34 1.34 7.68 1 7 C0.01 7 -0.98 7 -2 7 C-1.125 2.25 -1.125 2.25 0 0 Z " fill="#1C1A1F" transform="translate(16,74)"/>
<path d="M0 0 C-0.33 1.98 -0.66 3.96 -1 6 C-2.32 6.33 -3.64 6.66 -5 7 C-5 5.02 -5 3.04 -5 1 C-2 0 -2 0 0 0 Z " fill="#070708" transform="translate(12,54)"/>
<path d="M0 0 C5.09448798 0.43173627 8.84512277 0.75400216 13 4 C13 4.66 13 5.32 13 6 C8.52761347 4.58192622 4.28853694 2.88695626 0 1 C0 0.67 0 0.34 0 0 Z " fill="#989596" transform="translate(144,28)"/>
<path d="M0 0 C1.32 0.66 2.64 1.32 4 2 C4 3.32 4 4.64 4 6 C2.35 6 0.7 6 -1 6 C-0.67 4.02 -0.34 2.04 0 0 Z " fill="#131214" transform="translate(189,153)"/>
<path d="M0 0 C0.66 0 1.32 0 2 0 C3.6442351 4.93270529 2.18615592 7.54024193 0 12 C-0.33 12 -0.66 12 -1 12 C-1.02687279 10.18757948 -1.04633715 8.37504767 -1.0625 6.5625 C-1.07410156 5.55316406 -1.08570312 4.54382813 -1.09765625 3.50390625 C-1 1 -1 1 0 0 Z " fill="#797579" transform="translate(92,84)"/>
<path d="M0 0 C2.31 0 4.62 0 7 0 C7.66 1.32 8.32 2.64 9 4 C3.375 4.25 3.375 4.25 0 2 C0 1.34 0 0.68 0 0 Z " fill="#0F0E10" transform="translate(138,23)"/>
<path d="M0 0 C0.66 0 1.32 0 2 0 C3.4606285 2.64738916 4 3.89448334 4 7 C2.68 7 1.36 7 0 7 C-1.125 2.25 -1.125 2.25 0 0 Z " fill="#0A090A" transform="translate(6,62)"/>
<path d="M0 0 C2.64 0.99 5.28 1.98 8 3 C7.01 3.33 6.02 3.66 5 4 C5 4.66 5 5.32 5 6 C5.66 6.33 6.32 6.66 7 7 C3.74456771 6.65120368 2.98126893 5.97866739 0.75 3.4375 C-0.11625 2.2309375 -0.11625 2.2309375 -1 1 C-0.67 0.67 -0.34 0.34 0 0 Z " fill="#2F2C31" transform="translate(133,19)"/>
<path d="M0 0 C-0.33 1.98 -0.66 3.96 -1 6 C-1.99 6 -2.98 6 -4 6 C-4 4.35 -4 2.7 -4 1 C-2 0 -2 0 0 0 Z " fill="#121112" transform="translate(17,17)"/>
<path d="M0 0 C1.32 0.66 2.64 1.32 4 2 C4 2.66 4 3.32 4 4 C2.02 4.33 0.04 4.66 -2 5 C-1.34 3.35 -0.68 1.7 0 0 Z " fill="#0C0B0D" transform="translate(11,8)"/>
<path d="M0 0 C0.66 0 1.32 0 2 0 C1.67 2.31 1.34 4.62 1 7 C0.34 7 -0.32 7 -1 7 C-1.04254356 5.00045254 -1.04080783 2.99958364 -1 1 C-0.67 0.67 -0.34 0.34 0 0 Z " fill="#49444C" transform="translate(15,85)"/>
<path d="M0 0 C-0.33 0.66 -0.66 1.32 -1 2 C-1.99 1.67 -2.98 1.34 -4 1 C-4 1.66 -4 2.32 -4 3 C-5.65 3 -7.3 3 -9 3 C-9 2.34 -9 1.68 -9 1 C-6.04335481 -0.4783226 -3.25770263 -0.06032783 0 0 Z " fill="#888587" transform="translate(163,54)"/>
<path d="M0 0 C0 0.66 0 1.32 0 2 C-0.66 2 -1.32 2 -2 2 C-2 2.99 -2 3.98 -2 5 C-3.32 5.33 -4.64 5.66 -6 6 C-5.6875 4.125 -5.6875 4.125 -5 2 C-2 0 -2 0 0 0 Z " fill="#A3A0A2" transform="translate(18,11)"/>
<path d="M0 0 C-0.33 1.32 -0.66 2.64 -1 4 C-2.32 4 -3.64 4 -5 4 C-5.33 3.01 -5.66 2.02 -6 1 C-3 0 -3 0 0 0 Z " fill="#232123" transform="translate(155,7)"/>
<path d="M0 0 C0.66 0 1.32 0 2 0 C3.125 5.75 3.125 5.75 2 8 C1.34 8 0.68 8 0 8 C0 5.36 0 2.72 0 0 Z " fill="#2A252D" transform="translate(93,70)"/>
<path d="M0 0 C0.99 0 1.98 0 3 0 C3 0.99 3 1.98 3 3 C2.34 3 1.68 3 1 3 C1 5.31 1 7.62 1 10 C0.34 9.67 -0.32 9.34 -1 9 C-0.67 6.03 -0.34 3.06 0 0 Z " fill="#A5A2A3" transform="translate(92,34)"/>
</svg>
