<?xml version="1.0" encoding="UTF-8"?>
<svg version="1.1" xmlns="http://www.w3.org/2000/svg" width="200" height="191">
<path d="M0 0 C3.125 -0.1875 3.125 -0.1875 6 0 C6 0.66 6 1.32 6 2 C7.08861328 1.88785156 7.08861328 1.88785156 8.19921875 1.7734375 C11.80723627 2.06529945 13.09291505 3.27886371 15.8125 5.625 C18.93611107 8.26447463 22.04967909 10.80694316 25.375 13.1875 C28.47316485 15.52680261 31.04343605 17.57601308 33 21 C33.30942289 23.75902076 33.18926798 26.20829731 33 29 C32.34 29 31.68 29 31 29 C30.67 30.65 30.34 32.3 30 34 C26.37 34 22.74 34 19 34 C18 30 18 30 18 27 C15.36740403 24.58085776 13.40571201 23.13523734 10 22 C9.505 21.01 9.505 21.01 9 20 C8.94924141 26.45951986 8.91424178 32.91898817 8.89013672 39.37866211 C8.88008643 41.57562177 8.86644408 43.77256807 8.84912109 45.96948242 C8.82483031 49.12942808 8.81350706 52.28919668 8.8046875 55.44921875 C8.79436493 56.42960617 8.78404236 57.40999359 8.77340698 58.42008972 C8.77264211 63.08122135 8.82949902 66.75980505 11 71 C11.34375 73.09765625 11.34375 73.09765625 11.5 75.0625 C11.91811613 78.35516453 12.28176726 80.25082761 14 83 C8.60162602 87.04878049 8.60162602 87.04878049 5.6875 86.8125 C4 86 4 86 3 85 C0.76874607 85.03925075 -1.46117278 85.15919689 -3.6875 85.3125 C-4.35362305 85.35665039 -5.01974609 85.40080078 -5.70605469 85.44628906 C-11.60614746 85.87746039 -17.35580968 86.80177259 -23.171875 87.890625 C-24.10515625 87.92671875 -25.0384375 87.9628125 -26 88 C-26.47188248 87.51362564 -26.94376495 87.02725128 -27.4299469 86.52613831 C-29.78946389 84.23261762 -32.19516422 84.68476756 -35.33592224 84.71141052 C-36.18284134 84.73316849 -37.02976044 84.75492645 -37.90234375 84.77734375 C-39.21350914 84.79082603 -39.21350914 84.79082603 -40.55116272 84.80458069 C-43.34701021 84.83462814 -46.14200181 84.88441028 -48.9375 84.9375 C-51.7293695 84.98533315 -54.52101658 85.02868403 -57.31312561 85.05970764 C-59.05060724 85.07945368 -60.78801115 85.10907001 -62.52513123 85.14964294 C-63.3159761 85.15947708 -64.10682098 85.16931122 -64.92163086 85.17944336 C-65.6142955 85.1929332 -66.30696014 85.20642303 -67.02061462 85.22032166 C-69.40461654 84.9549629 -70.97600878 84.27582993 -73 83 C-73.609375 80.8359375 -73.609375 80.8359375 -73.75 78.375 C-73.80671875 77.55773437 -73.8634375 76.74046875 -73.921875 75.8984375 C-73.96054688 74.95871094 -73.96054688 74.95871094 -74 74 C-68.80996723 72.22959972 -64.65637848 71.90461228 -59.1875 72.4375 C-51.26470303 73.03763494 -43.4378591 72.98111907 -35.5 72.6875 C-34.41485107 72.65261475 -33.32970215 72.61772949 -32.21166992 72.58178711 C-26.48398413 72.34304194 -21.09904049 71.79644995 -15.52929688 70.41333008 C-12.06280957 69.84684716 -8.51246881 70 -5 70 C-5 56.47 -5 42.94 -5 29 C-6.98 31.31 -8.96 33.62 -11 36 C-13.625 38 -13.625 38 -16 39 C-18.3125 38.6875 -18.3125 38.6875 -20 38 C-20 36.68 -20 35.36 -20 34 C-20.7425 34.639375 -21.485 35.27875 -22.25 35.9375 C-26.07317073 38.80487805 -26.07317073 38.80487805 -29 39 C-29.99 38.34 -30.98 37.68 -32 37 C-31.848048 31.98558397 -29.07298671 29.66645254 -25.69140625 26.35546875 C-24 25 -24 25 -22 25 C-21.505 23.515 -21.505 23.515 -21 22 C-19.51171875 20.5703125 -19.51171875 20.5703125 -17.6875 19.125 C-15.35023131 17.21225563 -13.69097448 15.60268147 -11.8125 13.1875 C-9.87187168 10.84536237 -8.97085779 10.31830619 -6 10 C-6 9.34 -6 8.68 -6 8 C-5.34 8 -4.68 8 -4 8 C-3.71125 7.236875 -3.4225 6.47375 -3.125 5.6875 C-2 3 -2 3 0 0 Z " fill="#1E1D23" transform="translate(117,46)"/>
<path d="M0 0 C0.66 0 1.32 0 2 0 C2.495 2.97 2.495 2.97 3 6 C4.65 6 6.3 6 8 6 C8.99 8.97 8.99 8.97 10 12 C8.02 11.34 6.04 10.68 4 10 C4 10.66 4 11.32 4 12 C3.34 12 2.68 12 2 12 C1.67 13.32 1.34 14.64 1 16 C-4.22512279 17.46670113 -8.5814234 18.22577402 -14 18 C-14 17.67 -14 17.34 -14 17 C-23.94309221 16.74685197 -33.58741637 17.17861501 -43.46362305 18.37646484 C-51.51234389 19.27948827 -59.05360333 18.46380991 -67 17 C-67 16.34 -67 15.68 -67 15 C-66.34 15 -65.68 15 -65 15 C-65.33 14.34 -65.66 13.68 -66 13 C-69.02934491 12.34227572 -69.02934491 12.34227572 -72 12 C-72 11.01 -72 10.02 -72 9 C-69.62609164 7.81304582 -68.19755049 7.87924167 -65.55029297 7.88647461 C-64.16908768 7.88658791 -64.16908768 7.88658791 -62.75997925 7.88670349 C-61.26617233 7.89444542 -61.26617233 7.89444542 -59.7421875 7.90234375 C-58.21490524 7.90446617 -58.21490524 7.90446617 -56.6567688 7.90663147 C-53.39614965 7.912241 -50.13559849 7.92479512 -46.875 7.9375 C-44.66796974 7.94251377 -42.46093841 7.94707689 -40.25390625 7.95117188 C-34.83591419 7.96221352 -29.41796195 7.97896095 -24 8 C-24 8.66 -24 9.32 -24 10 C-23.34 10 -22.68 10 -22 10 C-22 9.34 -22 8.68 -22 8 C-11.38123866 6.9246824 -11.38123866 6.9246824 -6.9375 7 C-4.06521865 7.21894832 -4.06521865 7.21894832 -2 6 C-1.27306096 4.02111039 -0.60183749 2.02045442 0 0 Z " fill="#202025" transform="translate(116,112)"/>
<path d="M0 0 C0.53625 0.268125 1.0725 0.53625 1.625 0.8125 C1.625 1.4725 1.625 2.1325 1.625 2.8125 C0.965 2.8125 0.305 2.8125 -0.375 2.8125 C-0.375 3.4725 -0.375 4.1325 -0.375 4.8125 C1.275 4.8125 2.925 4.8125 4.625 4.8125 C4.46201416 5.70976807 4.29902832 6.60703613 4.13110352 7.53149414 C3.34090952 13.10048453 3.50204459 18.69585742 3.52734375 24.30859375 C3.52946617 26.09161644 3.52946617 26.09161644 3.53163147 27.91065979 C3.53720886 31.69046594 3.54975725 35.47021189 3.5625 39.25 C3.56751792 41.8196606 3.57208032 44.38932213 3.57617188 46.95898438 C3.58717089 53.24350997 3.6038865 59.52800068 3.625 65.8125 C2.635 65.8125 1.645 65.8125 0.625 65.8125 C-1.13462425 58.85942165 -1.72092654 52.01599484 -2.03295898 44.87915039 C-2.17682307 41.71011382 -2.40039568 38.67189874 -2.96484375 35.546875 C-3.38293047 32.75963018 -3.09232189 31.47128959 -2.375 28.8125 C-1.99681958 26.06310072 -1.64107761 23.31768411 -1.3125 20.5625 C-1.22162109 19.81742188 -1.13074219 19.07234375 -1.03710938 18.3046875 C-0.81416897 16.47422944 -0.5942822 14.64339991 -0.375 12.8125 C-3.68895986 11.72465665 -4.21080335 11.73987456 -7.625 13.25 C-8.98625 14.0234375 -8.98625 14.0234375 -10.375 14.8125 C-9.26690242 4.97335771 -9.26690242 4.97335771 -5.5 1.625 C-2.375 -0.1875 -2.375 -0.1875 0 0 Z " fill="#101013" transform="translate(120.375,50.1875)"/>
<path d="M0 0 C3.1875 -0.3125 3.1875 -0.3125 7 0 C9.75 2.3125 9.75 2.3125 12 5 C12.598125 5.433125 13.19625 5.86625 13.8125 6.3125 C15.87629308 9.24525858 15.17172923 12.50817233 15 16 C14.34 16 13.68 16 13 16 C12.67 17.65 12.34 19.3 12 21 C8.37 21 4.74 21 1 21 C0 17 0 17 0 14 C-1.31321858 12.3174387 -2.64613064 10.65002828 -4 9 C-4 8.34 -4 7.68 -4 7 C-5.32 6.67 -6.64 6.34 -8 6 C-8 4.35 -8 2.7 -8 1 C-5.23723823 1.52268466 -2.6739124 2.10869587 0 3 C0 2.01 0 1.02 0 0 Z " fill="#26252B" transform="translate(135,59)"/>
<path d="M0 0 C0.66 0 1.32 0 2 0 C2.495 2.97 2.495 2.97 3 6 C4.65 6 6.3 6 8 6 C8.66 7.98 9.32 9.96 10 12 C8.02 11.34 6.04 10.68 4 10 C4 10.66 4 11.32 4 12 C3.34 12 2.68 12 2 12 C1.67 13.32 1.34 14.64 1 16 C-4.22512279 17.46670113 -8.5814234 18.22577402 -14 18 C-14 17.67 -14 17.34 -14 17 C-20.93 16.67 -27.86 16.34 -35 16 C-34.67 14.35 -34.34 12.7 -34 11 C-32.35 11 -30.7 11 -29 11 C-29 11.66 -29 12.32 -29 13 C-28.34 12.34 -27.68 11.68 -27 11 C-26.01 11 -25.02 11 -24 11 C-23.34 11.66 -22.68 12.32 -22 13 C-21.01 12.34 -20.02 11.68 -19 11 C-19 10.01 -19 9.02 -19 8 C-13.92551839 7.28779205 -9.13227202 7 -4 7 C-1.64214682 6.10664203 -1.64214682 6.10664203 -0.875 2.9375 C-0.58625 1.968125 -0.2975 0.99875 0 0 Z " fill="#0E0E10" transform="translate(116,112)"/>
<path d="M0 0 C1.67542976 0.28604898 3.34385343 0.61781233 5 1 C5 1.66 5 2.32 5 3 C6.32 3.66 7.64 4.32 9 5 C8.505 5.433125 8.01 5.86625 7.5 6.3125 C5.66781808 7.99740483 5.66781808 7.99740483 6 11 C5.01 11.495 5.01 11.495 4 12 C3.896875 12.61875 3.79375 13.2375 3.6875 13.875 C3 16 3 16 0.6875 17.8125 C-2 19 -2 19 -4.3125 18.6875 C-4.869375 18.460625 -5.42625 18.23375 -6 18 C-6 16.68 -6 15.36 -6 14 C-6.7425 14.639375 -7.485 15.27875 -8.25 15.9375 C-12.07317073 18.80487805 -12.07317073 18.80487805 -15 19 C-15.99 18.34 -16.98 17.68 -18 17 C-17.85425576 12.19044004 -15.42771051 9.79708324 -12.1171875 6.64453125 C-9.22835936 4.400626 -6.21367267 3.04939782 -2.8203125 1.7265625 C-1.01207433 1.14360751 -1.01207433 1.14360751 0 0 Z " fill="#17171B" transform="translate(103,66)"/>
<path d="M0 0 C3.125 -0.1875 3.125 -0.1875 6 0 C6 0.66 6 1.32 6 2 C6.71929687 1.92136719 7.43859375 1.84273437 8.1796875 1.76171875 C11.87633132 2.07403907 13.31965038 3.43181339 16.125 5.8125 C16.97320312 6.52019531 17.82140625 7.22789063 18.6953125 7.95703125 C20.5335784 9.58654492 22.2949432 11.23365031 24 13 C22.02 13 20.04 13 18 13 C18 13.99 18 14.98 18 16 C17.01 16.33 16.02 16.66 15 17 C14.67 16.34 14.34 15.68 14 15 C11.97536745 14.34786708 11.97536745 14.34786708 10 14 C10.33 15.65 10.66 17.3 11 19 C11.99 19.33 12.98 19.66 14 20 C15.39712274 21.95597184 16.73779907 23.95436401 18 26 C16.66666667 25.33333333 15.33333333 24.66666667 14 24 C13.278125 23.67 12.55625 23.34 11.8125 23 C10 22 10 22 9 20 C8.67 33.53 8.34 47.06 8 61 C7.67 61 7.34 61 7 61 C6.80652611 54.07690708 6.62908891 47.15353741 6.46289062 40.22973633 C6.40442779 37.87352152 6.3422698 35.51739541 6.27636719 33.16137695 C6.18237365 29.77832183 6.10159619 26.39517209 6.0234375 23.01171875 C5.99124115 21.95538742 5.9590448 20.89905609 5.9258728 19.81071472 C5.90570099 18.82992447 5.88552917 17.84913422 5.86474609 16.83862305 C5.84253998 15.97480515 5.82033386 15.11098724 5.79745483 14.22099304 C6 12 6 12 8 9 C6.35 9 4.7 9 3 9 C3 8.34 3 7.68 3 7 C3.66 7 4.32 7 5 7 C5 6.34 5 5.68 5 5 C1.65626525 5.55728913 -1.03312999 6.35173889 -4 8 C-2.87548273 5.0280615 -1.77706209 2.66559313 0 0 Z " fill="#6A6971" transform="translate(117,46)"/>
<path d="M0 0 C0.66 0 1.32 0 2 0 C2 4.62 2 9.24 2 14 C2.66 14 3.32 14 4 14 C4.495 15.485 4.495 15.485 5 17 C4.34 17 3.68 17 3 17 C3.2784375 18.3921875 3.2784375 18.3921875 3.5625 19.8125 C4 23 4 23 3 26 C2.8535286 27.55266653 2.75305926 29.10995662 2.68359375 30.66796875 C2.64169922 31.56064453 2.59980469 32.45332031 2.55664062 33.37304688 C2.51732422 34.30181641 2.47800781 35.23058594 2.4375 36.1875 C2.37272461 37.59805664 2.37272461 37.59805664 2.30664062 39.03710938 C2.20061335 41.35792854 2.09854971 43.67885325 2 46 C-0.296537 47.1482685 -1.58313167 47.11561175 -4.1328125 47.09765625 C-4.93847656 47.09443359 -5.74414062 47.09121094 -6.57421875 47.08789062 C-7.83685547 47.07532227 -7.83685547 47.07532227 -9.125 47.0625 C-10.39923828 47.05573242 -10.39923828 47.05573242 -11.69921875 47.04882812 C-13.79950909 47.03702874 -15.8997633 47.01909306 -18 47 C-18 47.66 -18 48.32 -18 49 C-18.66 49 -19.32 49 -20 49 C-20 48.34 -20 47.68 -20 47 C-20.72598389 47.0714624 -21.45196777 47.1429248 -22.19995117 47.21655273 C-31.9196451 48.07760105 -41.56257448 48.11554856 -51.3125 48.0625 C-52.93945173 48.05747003 -54.56640499 48.0529098 -56.19335938 48.04882812 C-60.12894475 48.03795245 -64.06445493 48.02077226 -68 48 C-68 48.99 -68 49.98 -68 51 C-66.02 51 -64.04 51 -62 51 C-61.67 51.99 -61.34 52.98 -61 54 C-61.66 54 -62.32 54 -63 54 C-63 54.66 -63 55.32 -63 56 C-59.7 56.33 -56.4 56.66 -53 57 C-53 57.33 -53 57.66 -53 58 C-54.74965358 58.05429959 -56.49979787 58.09292823 -58.25 58.125 C-59.22453125 58.14820313 -60.1990625 58.17140625 -61.203125 58.1953125 C-64.09755535 57.99318748 -65.68987968 57.75398024 -68 56 C-68.609375 53.8359375 -68.609375 53.8359375 -68.75 51.375 C-68.80671875 50.55773437 -68.8634375 49.74046875 -68.921875 48.8984375 C-68.94765625 48.27195313 -68.9734375 47.64546875 -69 47 C-63.80996723 45.22959972 -59.65637848 44.90461228 -54.1875 45.4375 C-46.26470303 46.03763494 -38.4378591 45.98111907 -30.5 45.6875 C-29.41485107 45.65261475 -28.32970215 45.61772949 -27.21166992 45.58178711 C-21.48398413 45.34304194 -16.09904049 44.79644995 -10.52929688 43.41333008 C-7.06280957 42.84684716 -3.51246881 43 0 43 C0 28.81 0 14.62 0 0 Z " fill="#B2B1BA" transform="translate(112,73)"/>
<path d="M0 0 C0.66 0 1.32 0 2 0 C2.12375 1.0725 2.2475 2.145 2.375 3.25 C2.89643936 6.37863615 3.40088254 8.33480424 5 11 C-0.39837398 15.04878049 -0.39837398 15.04878049 -3.3125 14.8125 C-5 14 -5 14 -6 13 C-8.23125393 13.03925075 -10.46117278 13.15919689 -12.6875 13.3125 C-13.35362305 13.35665039 -14.01974609 13.40080078 -14.70605469 13.44628906 C-20.60614746 13.87746039 -26.35580968 14.80177259 -32.171875 15.890625 C-33.57179688 15.94476563 -33.57179688 15.94476563 -35 16 C-35.44351807 15.51329834 -35.88703613 15.02659668 -36.34399414 14.52514648 C-38.667476 12.38526868 -40.20807217 12.65538241 -43.32421875 12.70703125 C-44.35224609 12.71669922 -45.38027344 12.72636719 -46.43945312 12.73632812 C-47.51130859 12.76146484 -48.58316406 12.78660156 -49.6875 12.8125 C-50.77095703 12.82603516 -51.85441406 12.83957031 -52.97070312 12.85351562 C-55.64763405 12.88889357 -58.32356838 12.93825811 -61 13 C-61 12.67 -61 12.34 -61 12 C-48.28660534 10.59218483 -35.79273087 9.69820556 -23 10 C-23 10.33 -23 10.66 -23 11 C-21.41632253 10.85795259 -19.83306682 10.71119847 -18.25 10.5625 C-17.36828125 10.48128906 -16.4865625 10.40007812 -15.578125 10.31640625 C-12.22347104 9.92668305 -12.22347104 9.92668305 -9 9 C-8.67 8.01 -8.34 7.02 -8 6 C-7.34 6 -6.68 6 -6 6 C-6 5.34 -6 4.68 -6 4 C-4.02 4.66 -2.04 5.32 0 6 C0 4.02 0 2.04 0 0 Z " fill="#76767B" transform="translate(126,118)"/>
<path d="M0 0 C0.33 0 0.66 0 1 0 C1 16.17 1 32.34 1 49 C0.01 49 -0.98 49 -2 49 C-3.75962425 42.04692165 -4.34592654 35.20349484 -4.65795898 28.06665039 C-4.84406074 23.96720276 -5.30544852 20.04047777 -6 16 C-5.625 13.9375 -5.625 13.9375 -5 12 C-4.65939189 10.33480481 -4.32441604 8.66842534 -4 7 C-1.5705484 10.6441774 -1.83820425 12.71241272 -2 17 C-1.34 17 -0.68 17 0 17 C0 11.39 0 5.78 0 0 Z " fill="#1F1E22" transform="translate(123,67)"/>
<path d="M0 0 C1.38120529 0.0001133 1.38120529 0.0001133 2.79031372 0.00022888 C4.28412064 0.00797081 4.28412064 0.00797081 5.80810547 0.01586914 C7.33538773 0.01799156 7.33538773 0.01799156 8.89352417 0.02015686 C12.15414332 0.02576639 15.41469448 0.03832051 18.67529297 0.05102539 C20.88232323 0.05603916 23.08935456 0.06060228 25.29638672 0.06469727 C30.71437877 0.07573891 36.13233101 0.09248634 41.55029297 0.11352539 C41.55029297 0.77352539 41.55029297 1.43352539 41.55029297 2.11352539 C42.21029297 2.11352539 42.87029297 2.11352539 43.55029297 2.11352539 C43.55029297 1.45352539 43.55029297 0.79352539 43.55029297 0.11352539 C44.54029297 0.11352539 45.53029297 0.11352539 46.55029297 0.11352539 C47.04529297 2.09352539 47.04529297 2.09352539 47.55029297 4.11352539 C45.90029297 4.77352539 44.25029297 5.43352539 42.55029297 6.11352539 C42.05529297 4.62852539 42.05529297 4.62852539 41.55029297 3.11352539 C40.89029297 3.77352539 40.23029297 4.43352539 39.55029297 5.11352539 C38.56029297 5.11352539 37.57029297 5.11352539 36.55029297 5.11352539 C36.55029297 4.45352539 36.55029297 3.79352539 36.55029297 3.11352539 C33.36281268 3.08419967 30.17536769 3.066618 26.98779297 3.05102539 C26.09253906 3.04264648 25.19728516 3.03426758 24.27490234 3.02563477 C19.25031354 3.00722968 14.50212006 3.25086141 9.55029297 4.11352539 C9.88029297 4.77352539 10.21029297 5.43352539 10.55029297 6.11352539 C9.56029297 6.11352539 8.57029297 6.11352539 7.55029297 6.11352539 C7.22029297 6.77352539 6.89029297 7.43352539 6.55029297 8.11352539 C3.9016887 8.70708153 1.25831975 8.85561808 -1.44970703 9.11352539 C-1.44970703 8.45352539 -1.44970703 7.79352539 -1.44970703 7.11352539 C-0.78970703 7.11352539 -0.12970703 7.11352539 0.55029297 7.11352539 C0.22029297 6.45352539 -0.10970703 5.79352539 -0.44970703 5.11352539 C-3.47905194 4.45580111 -3.47905194 4.45580111 -6.44970703 4.11352539 C-6.44970703 3.12352539 -6.44970703 2.13352539 -6.44970703 1.11352539 C-4.07579867 -0.07342879 -2.64725752 -0.00723294 0 0 Z " fill="#403F49" transform="translate(50.44970703125,119.886474609375)"/>
<path d="M0 0 C1.98 0 3.96 0 6 0 C6.33 0.99 6.66 1.98 7 3 C7.99 3.33 8.98 3.66 10 4 C10 5.32 10 6.64 10 8 C10.99 8.33 11.98 8.66 13 9 C13.6875 11.0625 13.6875 11.0625 14 13 C13.01 13.33 12.02 13.66 11 14 C10.34 13.34 9.68 12.68 9 12 C9 11.34 9 10.68 9 10 C8.01 10 7.02 10 6 10 C6 9.34 6 8.68 6 8 C5.01 8.495 5.01 8.495 4 9 C4 9.66 4 10.32 4 11 C1.69 10.67 -0.62 10.34 -3 10 C-3.33 9.01 -3.66 8.02 -4 7 C-6.01508358 6.26676204 -6.01508358 6.26676204 -8 6 C-8 4.35 -8 2.7 -8 1 C-5.23723823 1.52268466 -2.6739124 2.10869587 0 3 C0 2.01 0 1.02 0 0 Z " fill="#19181C" transform="translate(135,59)"/>
<path d="M0 0 C0.33 1.32 0.66 2.64 1 4 C-5.94836691 7.21277645 -11.91588477 7.36440221 -19.5 7.1875 C-21.16289063 7.16719727 -21.16289063 7.16719727 -22.859375 7.14648438 C-25.57343232 7.11138881 -28.28645193 7.0622227 -31 7 C-30.67 5.35 -30.34 3.7 -30 2 C-28.35 2 -26.7 2 -25 2 C-25 2.66 -25 3.32 -25 4 C-24.34 3.34 -23.68 2.68 -23 2 C-22.01 2 -21.02 2 -20 2 C-19.34 2.66 -18.68 3.32 -18 4 C-15.91666667 3.83333333 -15.91666667 3.83333333 -14 3 C-13.67 2.34 -13.34 1.68 -13 1 C-8.63585999 0.14428627 -4.43923267 -0.10827397 0 0 Z " fill="#0A0B0D" transform="translate(112,121)"/>
<path d="M0 0 C0.33466374 2.95818845 0.66779007 5.91653588 1 8.875 C1.09539062 9.71675781 1.19078125 10.55851562 1.2890625 11.42578125 C1.37929687 12.23144531 1.46953125 13.03710938 1.5625 13.8671875 C1.64628906 14.61081543 1.73007813 15.35444336 1.81640625 16.12060547 C2 18 2 18 2 20 C2.99 20 3.98 20 5 20 C5 17.03 5 14.06 5 11 C5.33 11 5.66 11 6 11 C6.99 14.63 7.98 18.26 9 22 C8.34 22 7.68 22 7 22 C6.67 23.32 6.34 24.64 6 26 C5.34 25.01 4.68 24.02 4 23 C1.43717258 22.27034634 1.43717258 22.27034634 -1 22 C-1 20.02 -1 18.04 -1 16 C-1.66 16 -2.32 16 -3 16 C-3.33 17.98 -3.66 19.96 -4 22 C-4.33 22 -4.66 22 -5 22 C-4.85924795 19.06217531 -4.7126162 16.12484829 -4.5625 13.1875 C-4.52318359 12.35412109 -4.48386719 11.52074219 -4.44335938 10.66210938 C-4.40146484 9.85966797 -4.35957031 9.05722656 -4.31640625 8.23046875 C-4.27974854 7.49207764 -4.24309082 6.75368652 -4.20532227 5.99291992 C-4 4 -4 4 -3 1 C-1 0 -1 0 0 0 Z " fill="#3B3B44" transform="translate(119,96)"/>
<path d="M0 0 C0 0.66 0 1.32 0 2 C-0.66 2 -1.32 2 -2 2 C-2.33 3.65 -2.66 5.3 -3 7 C-1.2365625 6.938125 -1.2365625 6.938125 0.5625 6.875 C4.72409674 6.86016365 8.06487667 7.68829222 12 9 C9.50754779 11.75950066 7.79699009 13.62030099 4 14 C3.34 13.67 2.68 13.34 2 13 C2 11.68 2 10.36 2 9 C1.2575 9.639375 0.515 10.27875 -0.25 10.9375 C-4.07317073 13.80487805 -4.07317073 13.80487805 -7 14 C-7.99 13.34 -8.98 12.68 -10 12 C-9.848048 6.98558397 -7.07298671 4.66645254 -3.69140625 1.35546875 C-2 0 -2 0 0 0 Z " fill="#7D7B88" transform="translate(95,71)"/>
<path d="M0 0 C0.3449145 1.33038449 0.67516582 2.66457061 1 4 C1.309375 5.2065625 1.309375 5.2065625 1.625 6.4375 C2 9 2 9 1.5 11.1875 C0.85289988 14.82743819 1.35621403 18.04987308 1.84375 21.6953125 C2 24 2 24 1 27 C0.34 27 -0.32 27 -1 27 C-1.33 32.28 -1.66 37.56 -2 43 C-2.33 43 -2.66 43 -3 43 C-3.24657534 23.73972603 -3.24657534 23.73972603 -1 17 C-1.66 17 -2.32 17 -3 17 C-3.33 12.05 -3.66 7.1 -4 2 C-2.68 1.34 -1.36 0.68 0 0 Z " fill="#5D5B68" transform="translate(117,70)"/>
<path d="M0 0 C0.66 0 1.32 0 2 0 C2.12375 1.0725 2.2475 2.145 2.375 3.25 C2.89643936 6.37863615 3.40088254 8.33480424 5 11 C-0.38613861 15.03960396 -0.38613861 15.03960396 -2.9375 14.875 C-3.618125 14.58625 -4.29875 14.2975 -5 14 C-6.2375 13.649375 -7.475 13.29875 -8.75 12.9375 C-9.8225 12.628125 -10.895 12.31875 -12 12 C-12 11.67 -12 11.34 -12 11 C-9.69 10.34 -7.38 9.68 -5 9 C-5 7.68 -5 6.36 -5 5 C-3.35 5.33 -1.7 5.66 0 6 C0 4.02 0 2.04 0 0 Z " fill="#75747E" transform="translate(126,118)"/>
<path d="M0 0 C0.66 0.33 1.32 0.66 2 1 C-0.28685033 9.2638455 -0.28685033 9.2638455 -2.9375 12 C-4.99493406 12.99754379 -6.7755716 13.49155922 -9 14 C-11.3608456 14.94331844 -13.67427099 15.97131217 -16 17 C-14.91704299 13.75112896 -14.27052751 13.17151002 -11.6875 11.125 C-9.35023131 9.21225563 -7.69097448 7.60268147 -5.8125 5.1875 C-3.87187168 2.84536237 -2.97085779 2.31830619 0 2 C0 1.34 0 0.68 0 0 Z " fill="#434247" transform="translate(111,54)"/>
<path d="M0 0 C2 2 2 2 2.16015625 4.3125 C2.12792969 5.199375 2.09570312 6.08625 2.0625 7 C1.85490002 10.64229493 1.85490002 10.64229493 3 14 C3.06950541 15.54023996 3.08452357 17.08334988 3.0625 18.625 C3.05347656 19.44226563 3.04445313 20.25953125 3.03515625 21.1015625 C3.02355469 21.72804688 3.01195313 22.35453125 3 23 C2.01 23 1.02 23 0 23 C-1.68053069 16.08281562 -2.84167937 9.12951941 -2 2 C-1.34 1.34 -0.68 0.68 0 0 Z " fill="#0E0E10" transform="translate(121,93)"/>
<path d="M0 0 C3.125 -0.1875 3.125 -0.1875 6 0 C6.33 0.99 6.66 1.98 7 3 C9.08865152 5.5859495 10.73810844 6.4376049 14 7 C14 7.66 14 8.32 14 9 C10.67438135 10.76062164 9.40826005 11.10784228 5.6875 10.125 C4.800625 9.75375 3.91375 9.3825 3 9 C3 8.34 3 7.68 3 7 C3.66 7 4.32 7 5 7 C5 6.34 5 5.68 5 5 C1.65626525 5.55728913 -1.03312999 6.35173889 -4 8 C-2.87548273 5.0280615 -1.77706209 2.66559313 0 0 Z " fill="#1B1B1F" transform="translate(117,46)"/>
<path d="M0 0 C2.97 0 5.94 0 9 0 C8.01 0.495 8.01 0.495 7 1 C6.34444881 3.52733235 6.34444881 3.52733235 6 6 C7.65 6 9.3 6 11 6 C11 6.33 11 6.66 11 7 C7.71000551 7.37095301 4.4179195 7.71856299 1.125 8.0625 C0.2071875 8.16626953 -0.710625 8.27003906 -1.65625 8.37695312 C-7.92911832 9.0174925 -13.7560057 8.87490597 -20 8 C-20 7.67 -20 7.34 -20 7 C-18.87980469 6.93941406 -17.75960937 6.87882813 -16.60546875 6.81640625 C-15.13280016 6.73198576 -13.66014456 6.64733851 -12.1875 6.5625 C-11.44951172 6.52318359 -10.71152344 6.48386719 -9.95117188 6.44335938 C-6.76928658 6.25618965 -4.03837622 6.01279207 -1 5 C-0.67 3.35 -0.34 1.7 0 0 Z " fill="#29282D" transform="translate(75,122)"/>
<path d="M0 0 C1.50433594 0.01353516 1.50433594 0.01353516 3.0390625 0.02734375 C3.80992188 0.03894531 4.58078125 0.05054687 5.375 0.0625 C4.625 6.8125 4.625 6.8125 2.375 9.0625 C-0.25 9.1875 -0.25 9.1875 -2.625 9.0625 C-2.625 8.4025 -2.625 7.7425 -2.625 7.0625 C-1.965 7.0625 -1.305 7.0625 -0.625 7.0625 C-0.955 6.4025 -1.285 5.7425 -1.625 5.0625 C-4.65434491 4.40477572 -4.65434491 4.40477572 -7.625 4.0625 C-7.625 3.0725 -7.625 2.0825 -7.625 1.0625 C-4.98041621 -0.25979189 -2.94738699 -0.03427194 0 0 Z " fill="#36363F" transform="translate(51.625,119.9375)"/>
<path d="M0 0 C0.33 0.99 0.66 1.98 1 3 C2.32796291 3.35412344 3.66216607 3.68521554 5 4 C6.75 5.5625 6.75 5.5625 8 7 C8 5.68 8 4.36 8 3 C9.32 3.33 10.64 3.66 12 4 C11.34 4 10.68 4 10 4 C9.67 5.65 9.34 7.3 9 9 C5.37 9 1.74 9 -2 9 C-3 5 -3 5 -3 2 C-2.01 1.34 -1.02 0.68 0 0 Z " fill="#4E4C57" transform="translate(138,71)"/>
<path d="M0 0 C0.66 0 1.32 0 2 0 C2 4.62 2 9.24 2 14 C2.66 14 3.32 14 4 14 C4.33 14.99 4.66 15.98 5 17 C4.34 17 3.68 17 3 17 C3.185625 17.928125 3.37125 18.85625 3.5625 19.8125 C4 23 4 23 3 26 C2.85426942 27.47965926 2.75336732 28.96403843 2.68359375 30.44921875 C2.64169922 31.29677734 2.59980469 32.14433594 2.55664062 33.01757812 C2.49766602 34.33918945 2.49766602 34.33918945 2.4375 35.6875 C2.39431641 36.58017578 2.35113281 37.47285156 2.30664062 38.39257812 C2.20064647 40.59490108 2.09857949 42.79733473 2 45 C1.34 44.67 0.68 44.34 0 44 C0 29.48 0 14.96 0 0 Z " fill="#CFCED6" transform="translate(112,73)"/>
<path d="M0 0 C0.66 0.33 1.32 0.66 2 1 C1.67 1.66 1.34 2.32 1 3 C1.66 3.33 2.32 3.66 3 4 C3 6.31 3 8.62 3 11 C2.01 10.01 1.02 9.02 0 8 C-3.34998521 9.11666174 -3.79340222 9.74694925 -5.6875 12.5625 C-6.12449219 13.20316406 -6.56148438 13.84382813 -7.01171875 14.50390625 C-7.33785156 14.99761719 -7.66398437 15.49132812 -8 16 C-8.33 15.34 -8.66 14.68 -9 14 C-9.66 13.67 -10.32 13.34 -11 13 C-9.68 13 -8.36 13 -7 13 C-7.309375 12.1028125 -7.309375 12.1028125 -7.625 11.1875 C-8 9 -8 9 -6 6 C-6 5.34 -6 4.68 -6 4 C-4.35 4.33 -2.7 4.66 -1 5 C-0.67 3.35 -0.34 1.7 0 0 Z " fill="#3A3943" transform="translate(116,64)"/>
<path d="M0 0 C2.375 0.3125 2.375 0.3125 5 1 C5.66 1.99 6.32 2.98 7 4 C7.99 4.66 8.98 5.32 10 6 C11.1875 8.125 11.1875 8.125 12 10 C9.69 9.67 7.38 9.34 5 9 C4.67 8.01 4.34 7.02 4 6 C1.98491642 5.26676204 1.98491642 5.26676204 0 5 C0 3.35 0 1.7 0 0 Z " fill="#101013" transform="translate(127,60)"/>
<path d="M0 0 C0.3449145 1.33038449 0.67516582 2.66457061 1 4 C1.309375 5.2375 1.309375 5.2375 1.625 6.5 C2.00678744 9.04524959 1.80552473 10.58342581 1 13 C0.01 13 -0.98 13 -2 13 C-2.33 13.99 -2.66 14.98 -3 16 C-3.33 11.38 -3.66 6.76 -4 2 C-2.68 1.34 -1.36 0.68 0 0 Z " fill="#6F6E7D" transform="translate(117,70)"/>
<path d="M0 0 C2.64 0 5.28 0 8 0 C8.33 0.66 8.66 1.32 9 2 C8.01 2 7.02 2 6 2 C5.67 2.66 5.34 3.32 5 4 C8.96 4 12.92 4 17 4 C13.95318939 6.03120707 13.39881676 6.24659875 9.98828125 6.1953125 C8.85229492 6.18564453 8.85229492 6.18564453 7.69335938 6.17578125 C6.90767578 6.15902344 6.12199219 6.14226562 5.3125 6.125 C4.51521484 6.11597656 3.71792969 6.10695312 2.89648438 6.09765625 C0.930861 6.07411585 -1.03460775 6.03824547 -3 6 C-1.60804085 3.2160817 0.15575779 3.02101003 3 2 C2.01 1.34 1.02 0.68 0 0 Z " fill="#18181C" transform="translate(57,123)"/>
<path d="M0 0 C1.75570312 0.01353516 1.75570312 0.01353516 3.546875 0.02734375 C4.43890625 0.03894531 5.3309375 0.05054687 6.25 0.0625 C7.24 2.3725 8.23 4.6825 9.25 7.0625 C7.93 7.3925 6.61 7.7225 5.25 8.0625 C4.92 6.4125 4.59 4.7625 4.25 3.0625 C-0.7 3.3925 -5.65 3.7225 -10.75 4.0625 C-10.75 3.0725 -10.75 2.0825 -10.75 1.0625 C-7.14006828 -0.07230527 -3.7657673 -0.03765767 0 0 Z " fill="#1D1D22" transform="translate(107.75,118.9375)"/>
<path d="M0 0 C-0.33 1.32 -0.66 2.64 -1 4 C-1.66 4 -2.32 4 -3 4 C-3 4.66 -3 5.32 -3 6 C-3.99 6.33 -4.98 6.66 -6 7 C-6.33 7.66 -6.66 8.32 -7 9 C-9.5625 9.625 -9.5625 9.625 -12 10 C-11.34 8.02 -10.68 6.04 -10 4 C-9.34 4 -8.68 4 -8 4 C-7.67 3.01 -7.34 2.02 -7 1 C-4.53721199 -0.231394 -2.7204945 -0.07159196 0 0 Z " fill="#25252B" transform="translate(103,69)"/>
<path d="M0 0 C1.65 0 3.3 0 5 0 C5 0.66 5 1.32 5 2 C5.66 1.34 6.32 0.68 7 0 C7.99 0 8.98 0 10 0 C10.33 0.99 10.66 1.98 11 3 C10.67 3.66 10.34 4.32 10 5 C6.37 5 2.74 5 -1 5 C-0.67 3.35 -0.34 1.7 0 0 Z " fill="#131315" transform="translate(82,123)"/>
<path d="M0 0 C0 0.66 0 1.32 0 2 C0.66 2.33 1.32 2.66 2 3 C-1.06533164 4.53266582 -4.26754272 4.10276471 -7.625 4.0625 C-8.33140625 4.05798828 -9.0378125 4.05347656 -9.765625 4.04882812 C-11.51045275 4.03703875 -13.255237 4.01910324 -15 4 C-14.01 3.67 -13.02 3.34 -12 3 C-12 2.34 -12 1.68 -12 1 C-8.0186217 -0.3271261 -4.14954773 -0.06915913 0 0 Z " fill="#6E6D78" transform="translate(112,116)"/>
<path d="M0 0 C0.33 0 0.66 0 1 0 C1.99 3.63 2.98 7.26 4 11 C3.34 11 2.68 11 2 11 C1.67 12.32 1.34 13.64 1 15 C0.34 14.01 -0.32 13.02 -1 12 C-1.99 12 -2.98 12 -4 12 C-4 10.35 -4 8.7 -4 7 C-3.67 7.66 -3.34 8.32 -3 9 C-2.01 9 -1.02 9 0 9 C0 6.03 0 3.06 0 0 Z " fill="#313135" transform="translate(124,107)"/>
<path d="M0 0 C0.66 0 1.32 0 2 0 C2.12375 1.0725 2.2475 2.145 2.375 3.25 C2.89643936 6.37863615 3.40088254 8.33480424 5 11 C4.34 11 3.68 11 3 11 C2.34 10.01 1.68 9.02 1 8 C0.38125 8.350625 -0.2375 8.70125 -0.875 9.0625 C-1.57625 9.371875 -2.2775 9.68125 -3 10 C-3.66 9.67 -4.32 9.34 -5 9 C-5 7.68 -5 6.36 -5 5 C-2.525 5.495 -2.525 5.495 0 6 C0 4.02 0 2.04 0 0 Z " fill="#7B7B82" transform="translate(126,118)"/>
<path d="M0 0 C0.99 0 1.98 0 3 0 C3.33 1.32 3.66 2.64 4 4 C2.35 4.66 0.7 5.32 -1 6 C-1.33 5.01 -1.66 4.02 -2 3 C-2.66 3.66 -3.32 4.32 -4 5 C-4.99 5 -5.98 5 -7 5 C-6.67 3.68 -6.34 2.36 -6 1 C-3.03 1.495 -3.03 1.495 0 2 C0 1.34 0 0.68 0 0 Z " fill="#373740" transform="translate(94,120)"/>
<path d="M0 0 C2.475 0.99 2.475 0.99 5 2 C4.67 2.66 4.34 3.32 4 4 C2.67288808 4.35729936 1.33737094 4.68325425 0 5 C-2.36128578 5.94248746 -4.67415443 6.97126061 -7 8 C-5.61918777 3.8575633 -3.40174442 2.67796901 0 0 Z " fill="#68686F" transform="translate(102,63)"/>
<path d="M0 0 C0.66 0.33 1.32 0.66 2 1 C1.67 2.32 1.34 3.64 1 5 C1.66 5.33 2.32 5.66 3 6 C-6.41002278 8.29612756 -6.41002278 8.29612756 -11 8 C-8.91229447 6.88158632 -7.14591199 6.0291824 -4.8125 5.5625 C-4.214375 5.376875 -3.61625 5.19125 -3 5 C-2.67 4.01 -2.34 3.02 -2 2 C-1.34 2 -0.68 2 0 2 C0 1.34 0 0.68 0 0 Z " fill="#3A393E" transform="translate(120,122)"/>
<path d="M0 0 C3.1875 -0.3125 3.1875 -0.3125 6 0 C6 0.66 6 1.32 6 2 C5.443125 2.061875 4.88625 2.12375 4.3125 2.1875 C1.05012827 3.33373872 -0.68667874 5.49390197 -3 8 C-3 4.3139451 -2.31141604 2.85074644 0 0 Z " fill="#838289" transform="translate(117,46)"/>
<path d="M0 0 C0.33 0.66 0.66 1.32 1 2 C0.67 2.66 0.34 3.32 0 4 C0.7425 3.649375 1.485 3.29875 2.25 2.9375 C5.1322726 1.95490707 6.21176345 1.9673198 9 3 C6.8586563 5.46254526 5.30129606 6.69050349 2 7 C1.01 6.34 0.02 5.68 -1 5 C-0.67 3.35 -0.34 1.7 0 0 Z " fill="#B0AEB9" transform="translate(86,78)"/>
<path d="M0 0 C3.9704118 2.09549511 6.48066577 4.267653 9 8 C9 8.99 9 9.98 9 11 C7 11 7 11 5.375 9.75 C4 8 4 8 4 4 C2.68 3.67 1.36 3.34 0 3 C0 2.01 0 1.02 0 0 Z " fill="#7D7C7F" transform="translate(141,59)"/>
<path d="M0 0 C4.455 0.99 4.455 0.99 9 2 C6 5 6 5 3.3125 5.1875 C2.1678125 5.0946875 2.1678125 5.0946875 1 5 C0.67 3.35 0.34 1.7 0 0 Z " fill="#58575F" transform="translate(98,78)"/>
<path d="M0 0 C2.66355234 -0.39169887 4.39224373 -0.40564529 6.66796875 1.11328125 C8.1510888 2.36389317 9.57954352 3.67864514 11 5 C8.13822943 6.43088528 6.06624227 5.59991697 3 5 C3 4.01 3 3.02 3 2 C2.01 1.67 1.02 1.34 0 1 C0 0.67 0 0.34 0 0 Z " fill="#908F96" transform="translate(123,48)"/>
<path d="M0 0 C0 0.66 0 1.32 0 2 C-4.455 2.495 -4.455 2.495 -9 3 C-9 2.01 -9 1.02 -9 0 C-5.67465243 -1.10844919 -3.37817425 -0.84454356 0 0 Z " fill="#151417" transform="translate(106,120)"/>
<path d="M0 0 C-0.33 2.31 -0.66 4.62 -1 7 C0.32 7.66 1.64 8.32 3 9 C1.02 9 -0.96 9 -3 9 C-3.68707555 6.50935112 -4 4.62113708 -4 2 C-1 0 -1 0 0 0 Z " fill="#939299" transform="translate(139,71)"/>
<path d="M0 0 C0.99 0 1.98 0 3 0 C1.68775452 3.93673644 0.08089673 6.22719294 -3 9 C-3 8.34 -3 7.68 -3 7 C-3.66 6.67 -4.32 6.34 -5 6 C-3.68 6 -2.36 6 -1 6 C-1.309375 5.071875 -1.309375 5.071875 -1.625 4.125 C-1.810625 3.073125 -1.810625 3.073125 -2 2 C-1.34 1.34 -0.68 0.68 0 0 Z " fill="#4D4C50" transform="translate(110,71)"/>
<path d="M0 0 C-0.33 1.32 -0.66 2.64 -1 4 C-2.9375 4.5625 -2.9375 4.5625 -5 5 C-5.33 4.67 -5.66 4.34 -6 4 C-6.66 4 -7.32 4 -8 4 C-7.67 3.01 -7.34 2.02 -7 1 C-4.53721199 -0.231394 -2.7204945 -0.07159196 0 0 Z " fill="#2F2E37" transform="translate(103,69)"/>
<path d="M0 0 C0.99 0 1.98 0 3 0 C3 0.66 3 1.32 3 2 C3.66 1.34 4.32 0.68 5 0 C5.99 0 6.98 0 8 0 C8.33 0.99 8.66 1.98 9 3 C8.67 3.66 8.34 4.32 8 5 C5.36 4.34 2.72 3.68 0 3 C0 2.01 0 1.02 0 0 Z " fill="#1B1B1F" transform="translate(84,123)"/>
<path d="M0 0 C0.33 1.32 0.66 2.64 1 4 C-0.32 4 -1.64 4 -3 4 C-3 5.32 -3 6.64 -3 8 C-3.99 7.67 -4.98 7.34 -6 7 C-5.67 6.34 -5.34 5.68 -5 5 C-5.33 4.67 -5.66 4.34 -6 4 C-6 3.34 -6 2.68 -6 2 C-4.02 2 -2.04 2 0 2 C0 1.34 0 0.68 0 0 Z " fill="#39383F" transform="translate(149,70)"/>
<path d="M0 0 C1.32 0.66 2.64 1.32 4 2 C4 4.64 4 7.28 4 10 C3.67 9.01 3.34 8.02 3 7 C2.01 6.67 1.02 6.34 0 6 C0 4 0 2 0 0 Z " fill="#26262D" transform="translate(116,61)"/>
<path d="M0 0 C2.50356732 3.75535098 1.9608592 4.86889414 1.125 9.1875 C0.92132813 10.27417969 0.71765625 11.36085938 0.5078125 12.48046875 C0.34023437 13.31191406 0.17265625 14.14335938 0 15 C-0.33 15 -0.66 15 -1 15 C-1.76016496 11.28363799 -2.16734815 8.61877928 -1 5 C-0.65939189 3.33480481 -0.32441604 1.66842534 0 0 Z " fill="#26252B" transform="translate(119,74)"/>
<path d="M0 0 C0.66 0 1.32 0 2 0 C2.33 2.31 2.66 4.62 3 7 C1.35 7 -0.3 7 -2 7 C-1.34 4.69 -0.68 2.38 0 0 Z " fill="#19191D" transform="translate(116,112)"/>
<path d="M0 0 C1.125 5.625 1.125 5.625 0 9 C-0.66 9 -1.32 9 -2 9 C-1.979375 8.236875 -1.95875 7.47375 -1.9375 6.6875 C-1.87057159 3.89814214 -1.87057159 3.89814214 -3 1 C-1 0 -1 0 0 0 Z " fill="#2A2A30" transform="translate(119,96)"/>
<path d="M0 0 C0 0.66 0 1.32 0 2 C0.99 2.33 1.98 2.66 3 3 C-0.3 3 -3.6 3 -7 3 C-5.40442685 -0.19114631 -3.35905282 0 0 0 Z " fill="#202025" transform="translate(61,126)"/>
<path d="M0 0 C-0.33 0.99 -0.66 1.98 -1 3 C-3.31 3 -5.62 3 -8 3 C-5.53387212 -0.1151089 -3.89156016 -0.31553191 0 0 Z " fill="#141417" transform="translate(110,127)"/>
<path d="M0 0 C2.31 0 4.62 0 7 0 C7 0.99 7 1.98 7 3 C4.69 3 2.38 3 0 3 C0 2.01 0 1.02 0 0 Z " fill="#303037" transform="translate(62,124)"/>
<path d="M0 0 C1.32 0.33 2.64 0.66 4 1 C3.34 1 2.68 1 2 1 C1.67 2.65 1.34 4.3 1 6 C-0.32 5.67 -1.64 5.34 -3 5 C-2.01 4.67 -1.02 4.34 0 4 C0 2.68 0 1.36 0 0 Z " fill="#B3B2B7" transform="translate(146,74)"/>
<path d="M0 0 C1.98 0 3.96 0 6 0 C6.33 0.99 6.66 1.98 7 3 C6.01 3.66 5.02 4.32 4 5 C2.68 3.35 1.36 1.7 0 0 Z " fill="#151518" transform="translate(135,59)"/>
<path d="M0 0 C0.66 0 1.32 0 2 0 C1.67 1.98 1.34 3.96 1 6 C0.67 5.34 0.34 4.68 0 4 C-0.66 4 -1.32 4 -2 4 C-2 4.66 -2 5.32 -2 6 C-2.66 5.67 -3.32 5.34 -4 5 C-2.71937515 3.2925002 -1.38232443 1.62626404 0 0 Z " fill="#7E7D82" transform="translate(107,57)"/>
<path d="M0 0 C0.66 0 1.32 0 2 0 C1.67 1.65 1.34 3.3 1 5 C2.65 5 4.3 5 6 5 C6 5.33 6 5.66 6 6 C4.02 6 2.04 6 0 6 C-0.38218767 4.34385343 -0.71395102 2.67542976 -1 1 C-0.67 0.67 -0.34 0.34 0 0 Z " fill="#29282E" transform="translate(80,123)"/>
<path d="M0 0 C0.68707555 2.49064888 1 4.37886292 1 7 C0.34 7 -0.32 7 -1 7 C-1 6.01 -1 5.02 -1 4 C-1.99 3.67 -2.98 3.34 -4 3 C-3 1 -3 1 0 0 Z " fill="#777784" transform="translate(117,70)"/>
<path d="M0 0 C1.32 0.33 2.64 0.66 4 1 C3.67 2.32 3.34 3.64 3 5 C1.35 4.67 -0.3 4.34 -2 4 C-2 3.34 -2 2.68 -2 2 C-1.34 2 -0.68 2 0 2 C0 1.34 0 0.68 0 0 Z " fill="#35343D" transform="translate(105,61)"/>
</svg>
