<?xml version="1.0" encoding="UTF-8"?>
<svg version="1.1" xmlns="http://www.w3.org/2000/svg" width="200" height="191">
<path d="M0 0 C2.75 -0.375 2.75 -0.375 6 0 C10 4.84210526 10 4.84210526 10 8 C10.66 8 11.32 8 12 8 C12 8.66 12 9.32 12 10 C12.73992187 10.2371875 13.47984375 10.474375 14.2421875 10.71875 C17.42700753 12.1983831 18.89732723 13.80932073 21.125 16.5 C23.37974094 19.20217981 25.04750329 21.03166886 28 23 C28 23.66 28 24.32 28 25 C28.53625 25.20625 29.0725 25.4125 29.625 25.625 C32.96025621 27.5559378 35.76334386 29.83462851 38 33 C37.875 35.875 37.875 35.875 37 38 C36.01 38.33 35.02 38.66 34 39 C31.5 37.6875 31.5 37.6875 29 36 C28.01 35.34 27.02 34.68 26 34 C26 35.32 26 36.64 26 38 C24.25390625 38.66796875 24.25390625 38.66796875 22 39 C19.96484375 37.92578125 19.96484375 37.92578125 17.9375 36.3125 C17.26589844 35.79300781 16.59429687 35.27351563 15.90234375 34.73828125 C14 33 14 33 11 29 C11 42.53 11 56.06 11 70 C13.64 70 16.28 70 19 70 C21.39086914 70.41333008 21.39086914 70.41333008 23.47265625 70.95703125 C30.00877343 72.37216994 36.59053517 72.4710128 43.24926758 72.63305664 C45.4303443 72.68732197 47.61047193 72.75772851 49.79101562 72.83007812 C56.84460149 73.03942095 63.74972692 73.04644224 70.76708984 72.13818359 C74.20057784 71.92570227 76.80558091 72.79321946 80 74 C79.93993922 75.45947705 79.8511311 76.91779272 79.75 78.375 C79.70359375 79.18710938 79.6571875 79.99921875 79.609375 80.8359375 C79 83 79 83 77.21681213 84.1240387 C74.90449107 85.03773984 73.39015399 85.22751854 70.92163086 85.17944336 C70.13078598 85.16960922 69.3399411 85.15977509 68.52513123 85.14964294 C67.68023636 85.12990921 66.83534149 85.11017548 65.96484375 85.08984375 C64.16862241 85.06943015 62.37239834 85.04925506 60.57617188 85.02929688 C57.74947355 84.9857183 54.92296028 84.93722387 52.09643555 84.88354492 C49.36507786 84.83535985 46.63397096 84.80543218 43.90234375 84.77734375 C43.05542465 84.75558578 42.20850555 84.73382782 41.33592224 84.71141052 C36.98752035 84.47099368 36.98752035 84.47099368 33.39375305 86.51522827 C32.93381454 87.00520294 32.47387604 87.49517761 32 88 C29.75097656 88.06518555 29.75097656 88.06518555 27.140625 87.63671875 C26.18929687 87.49169922 25.23796875 87.34667969 24.2578125 87.19726562 C23.26523438 87.02904297 22.27265625 86.86082031 21.25 86.6875 C12.17022917 85.11191825 12.17022917 85.11191825 3 85 C2.01 85.99 2.01 85.99 1 87 C-2.38297413 86.82194873 -3.76272061 86.21162756 -6.3125 83.9375 C-6.869375 83.298125 -7.42625 82.65875 -8 82 C-7.525625 81.154375 -7.05125 80.30875 -6.5625 79.4375 C-4.93489965 75.85677923 -4.43987483 72.88556098 -4 69 C-3.505 67.515 -3.505 67.515 -3 66 C-2.91330471 64.48092376 -2.882306 62.95830999 -2.88647461 61.43676758 C-2.88658791 60.05567558 -2.88658791 60.05567558 -2.88670349 58.64668274 C-2.89444542 57.16061775 -2.89444542 57.16061775 -2.90234375 55.64453125 C-2.9037587 54.62775803 -2.90517365 53.6109848 -2.90663147 52.56340027 C-2.91223293 49.31307036 -2.92478568 46.06280912 -2.9375 42.8125 C-2.94251481 40.61002704 -2.94707775 38.40755299 -2.95117188 36.20507812 C-2.96220283 30.80336196 -2.97894238 25.40168588 -3 20 C-3.33 20.66 -3.66 21.32 -4 22 C-4.763125 22.45375 -5.52625 22.9075 -6.3125 23.375 C-9.0477884 25.02889531 -11.02069378 26.48780364 -13 29 C-12.77242269 31.16299211 -12.77242269 31.16299211 -12 33 C-13 34 -13 34 -15.50390625 34.09765625 C-16.51324219 34.08605469 -17.52257812 34.07445312 -18.5625 34.0625 C-19.57441406 34.05347656 -20.58632813 34.04445312 -21.62890625 34.03515625 C-22.80259766 34.01775391 -22.80259766 34.01775391 -24 34 C-24.33 32.35 -24.66 30.7 -25 29 C-25.66 29 -26.32 29 -27 29 C-27.60247445 22.0112964 -27.60247445 22.0112964 -25.25 18.0625 C-21.61036601 14.24506779 -17.18868771 11.23922448 -12.9375 8.1484375 C-11.01255527 6.74056569 -9.13005069 5.27231447 -7.30078125 3.7421875 C-4.61729164 1.71020725 -3.28616846 1.62443789 0 2 C0 1.34 0 0.68 0 0 Z " fill="#1A1A1E" transform="translate(77,46)"/>
<path d="M0 0 C2.75 -0.375 2.75 -0.375 6 0 C10 4.84210526 10 4.84210526 10 8 C10.66 8 11.32 8 12 8 C12 8.66 12 9.32 12 10 C12.73992187 10.2371875 13.47984375 10.474375 14.2421875 10.71875 C17.42700753 12.1983831 18.89732723 13.80932073 21.125 16.5 C23.37974094 19.20217981 25.04750329 21.03166886 28 23 C28 23.66 28 24.32 28 25 C28.53625 25.20625 29.0725 25.4125 29.625 25.625 C32.96025621 27.5559378 35.76334386 29.83462851 38 33 C37.875 35.875 37.875 35.875 37 38 C36.01 38.33 35.02 38.66 34 39 C31.5 37.6875 31.5 37.6875 29 36 C28.01 35.34 27.02 34.68 26 34 C26 35.32 26 36.64 26 38 C24.24609375 38.65625 24.24609375 38.65625 22 39 C16.12479268 36.10327751 12.58837277 31.27701878 9 26 C8.34 26 7.68 26 7 26 C4.8480563 29.22791555 4.79913557 30.28400809 5 34 C4.34 34 3.68 34 3 34 C3 34.66 3 35.32 3 36 C3.99 36.33 4.98 36.66 6 37 C5.34 42.61 4.68 48.22 4 54 C4.66 54 5.32 54 6 54 C5.125 58.875 5.125 58.875 4 60 C3.6068352 61.67884238 3.25914548 63.36850045 2.9375 65.0625 C2.76089844 65.98160156 2.58429688 66.90070313 2.40234375 67.84765625 C2.26957031 68.55792969 2.13679688 69.26820312 2 70 C1.01 70 0.02 70 -1 70 C-1 50.86 -1 31.72 -1 12 C-6.4202491 9.84188612 -6.4202491 9.84188612 -10 10 C-8.62660359 7.04191542 -7.27436849 4.35860436 -5 2 C-2.3125 1.75 -2.3125 1.75 0 2 C0 1.34 0 0.68 0 0 Z " fill="#151518" transform="translate(77,46)"/>
<path d="M0 0 C1.69141656 0.08963062 3.37959602 0.24577676 5.0625 0.4375 C6.44115234 0.59025391 6.44115234 0.59025391 7.84765625 0.74609375 C8.55792969 0.82988281 9.26820312 0.91367188 10 1 C10 1.66 10 2.32 10 3 C10.66 3 11.32 3 12 3 C12 2.34 12 1.68 12 1 C27.18 1 42.36 1 58 1 C58 2.32 58 3.64 58 5 C57.360625 5.12375 56.72125 5.2475 56.0625 5.375 C55.381875 5.58125 54.70125 5.7875 54 6 C53.67 6.66 53.34 7.32 53 8 C53.66 8 54.32 8 55 8 C55 8.66 55 9.32 55 10 C50.70159346 11.05369499 46.52442205 11.15292018 42.125 11.125 C41.37541016 11.12306641 40.62582031 11.12113281 39.85351562 11.11914062 C33.83479601 11.07342883 27.86868438 10.67828807 21.8671875 10.2265625 C17.44837319 9.96768247 13.05040367 9.88614711 8.625 9.875 C7.88056641 9.87048828 7.13613281 9.86597656 6.36914062 9.86132812 C2.89415377 9.55794012 2.89415377 9.55794012 0 11 C-1.52519276 10.91062197 -3.04681929 10.75462854 -4.5625 10.5625 C-5.38878906 10.46066406 -6.21507813 10.35882813 -7.06640625 10.25390625 C-7.70449219 10.17011719 -8.34257813 10.08632812 -9 10 C-10.125 4.25 -10.125 4.25 -9 2 C-7.1875 1.62109375 -7.1875 1.62109375 -5 1.4375 C-2.21067942 1.37334592 -2.21067942 1.37334592 0 0 Z " fill="#2F2F36" transform="translate(96,119)"/>
<path d="M0 0 C0.66 1.32 1.32 2.64 2 4 C3.98 3.67 5.96 3.34 8 3 C8 4.65 8 6.3 8 8 C7.01 8.33 6.02 8.66 5 9 C4.87625 9.5775 4.7525 10.155 4.625 10.75 C4 13 4 13 1.375 15.5 C0.199375 16.7375 0.199375 16.7375 -1 18 C-0.86358623 20.21858253 -0.86358623 20.21858253 0 22 C-1 23 -1 23 -3.50390625 23.09765625 C-4.51324219 23.08605469 -5.52257812 23.07445313 -6.5625 23.0625 C-7.57441406 23.05347656 -8.58632813 23.04445313 -9.62890625 23.03515625 C-10.41136719 23.02355469 -11.19382813 23.01195313 -12 23 C-12.33 21.35 -12.66 19.7 -13 18 C-13.66 18 -14.32 18 -15 18 C-15.41043474 13.23895705 -15.54331237 10.94174145 -13.125 6.75 C-9.60065261 3.01112712 -4.7739165 1.57585593 0 0 Z " fill="#1A191D" transform="translate(65,57)"/>
<path d="M0 0 C4.875 1.75 4.875 1.75 6 4 C6.08902493 5.35845193 6.11760132 6.72115974 6.11352539 8.08251953 C6.11344986 8.92324005 6.11337433 9.76396057 6.11329651 10.63015747 C6.10555458 11.99272171 6.10555458 11.99272171 6.09765625 13.3828125 C6.0962413 14.31221649 6.09482635 15.24162048 6.09336853 16.19918823 C6.08776053 19.17449124 6.07520668 22.14971964 6.0625 25.125 C6.05748603 27.13932183 6.05292295 29.15364484 6.04882812 31.16796875 C6.0377885 36.11200802 6.02051849 41.05599135 6 46 C7.2684375 45.979375 8.536875 45.95875 9.84375 45.9375 C13.09350266 45.88465849 15.22475597 46.14983731 18 48 C16.02 48 14.04 48 12 48 C12 48.66 12 49.32 12 50 C6.375 50.25 6.375 50.25 3 48 C2.3125 44.875 2.3125 44.875 2 42 C1.34 42 0.68 42 0 42 C-0.33 44.31 -0.66 46.62 -1 49 C-1.33 49 -1.66 49 -2 49 C-2.55353075 35.18223235 -2.55353075 35.18223235 1 30 C0.34 30 -0.32 30 -1 30 C-1.18451025 18.47835991 -1.18451025 18.47835991 0 13 C-0.66 12.67 -1.32 12.34 -2 12 C-1.25 5.25 -1.25 5.25 1 3 C0.67 2.01 0.34 1.02 0 0 Z " fill="#575662" transform="translate(82,70)"/>
<path d="M0 0 C2.33944736 0.28730055 4.6739143 0.61936779 7 1 C7.33 2.32 7.66 3.64 8 5 C11.97754128 5.73334429 11.97754128 5.73334429 16 6 C15.34 5.34 14.68 4.68 14 4 C16.64 4 19.28 4 22 4 C22.495 5.485 22.495 5.485 23 7 C25.64 6.67 28.28 6.34 31 6 C31 6.66 31 7.32 31 8 C34.63 8 38.26 8 42 8 C41.16666667 5.83333333 41.16666667 5.83333333 39 5 C40 4 40 4 43.5625 3.9375 C44.696875 3.958125 45.83125 3.97875 47 4 C46.01 4.66 45.02 5.32 44 6 C43.67 6.99 43.34 7.98 43 9 C35.83421848 11.04014015 29.49639881 10.93036006 22.11328125 10.296875 C17.61690632 9.93268947 13.13440413 9.87785858 8.625 9.875 C7.88113037 9.87064941 7.13726074 9.86629883 6.37084961 9.86181641 C2.89497878 9.55774266 2.89497878 9.55774266 0 11 C-1.52519276 10.91062197 -3.04681929 10.75462854 -4.5625 10.5625 C-5.38878906 10.46066406 -6.21507813 10.35882813 -7.06640625 10.25390625 C-7.70449219 10.17011719 -8.34257813 10.08632812 -9 10 C-10.125 4.25 -10.125 4.25 -9 2 C-7.1875 1.62109375 -7.1875 1.62109375 -5 1.4375 C-2.21067942 1.37334592 -2.21067942 1.37334592 0 0 Z " fill="#0B0C0E" transform="translate(96,119)"/>
<path d="M0 0 C0.33 0 0.66 0 1 0 C1.19620767 2.06168985 1.38160753 4.12440998 1.5625 6.1875 C1.66691406 7.33605469 1.77132812 8.48460938 1.87890625 9.66796875 C1.98859985 12.68631199 1.74002389 15.08923936 1 18 C1.66 18.33 2.32 18.66 3 19 C2.34 19 1.68 19 1 19 C1 19.66 1 20.32 1 21 C1.99 21.33 2.98 21.66 4 22 C3.34 27.61 2.68 33.22 2 39 C2.66 39 3.32 39 4 39 C3.125 43.875 3.125 43.875 2 45 C1.6068352 46.67884238 1.25914548 48.36850045 0.9375 50.0625 C0.76089844 50.98160156 0.58429688 51.90070313 0.40234375 52.84765625 C0.26957031 53.55792969 0.13679688 54.26820312 0 55 C-0.99 55 -1.98 55 -3 55 C-3.05074164 48.1132319 -3.08575113 41.22651209 -3.10986328 34.33959961 C-3.11991609 31.99713337 -3.1335603 29.65467965 -3.15087891 27.31225586 C-3.17515852 23.94381617 -3.18649042 20.57554253 -3.1953125 17.20703125 C-3.20563507 16.16102249 -3.21595764 15.11501373 -3.22659302 14.03730774 C-3.22674408 13.05666855 -3.22689514 12.07602936 -3.22705078 11.06567383 C-3.231492 10.20629715 -3.23593323 9.34692047 -3.24050903 8.46150208 C-2.94027513 5.3887427 -2.24739601 2.24739601 0 0 Z " fill="#212025" transform="translate(79,61)"/>
<path d="M0 0 C0.33 0.66 0.66 1.32 1 2 C2.14082031 2.41765625 2.14082031 2.41765625 3.3046875 2.84375 C6.51323649 4.22017102 7.91125688 5.82614556 10.125 8.5 C12.37974094 11.20217981 14.04750329 13.03166886 17 15 C17 15.66 17 16.32 17 17 C17.53625 17.20625 18.0725 17.4125 18.625 17.625 C21.96025621 19.5559378 24.76334386 21.83462851 27 25 C26.875 27.875 26.875 27.875 26 30 C25.01 30.33 24.02 30.66 23 31 C20.5 29.6875 20.5 29.6875 18 28 C17.01 27.34 16.02 26.68 15 26 C15 27.32 15 28.64 15 30 C13.26171875 30.67578125 13.26171875 30.67578125 11 31 C8.89453125 29.85546875 8.89453125 29.85546875 6.8125 28.1875 C6.11769531 27.64480469 5.42289062 27.10210937 4.70703125 26.54296875 C3 25 3 25 2 23 C4.375 22.875 4.375 22.875 7 23 C7.66 23.66 8.32 24.32 9 25 C12.35433109 24.05066101 15.69246505 23.10251165 19 22 C19 21.01 19 20.02 19 19 C17.68 19 16.36 19 15 19 C15 18.01 15 17.02 15 16 C14.319375 15.731875 13.63875 15.46375 12.9375 15.1875 C9.60289191 13.83946694 6.30256763 12.42463702 3 11 C3 8.69 3 6.38 3 4 C2.01 4 1.02 4 0 4 C0 2.68 0 1.36 0 0 Z " fill="#474652" transform="translate(88,54)"/>
<path d="M0 0 C3.46161366 1.15387122 6.54028385 2.52771328 9.75 4.25 C9.42 5.24 9.09 6.23 8.75 7.25 C10.07 7.25 11.39 7.25 12.75 7.25 C13.08 8.57 13.41 9.89 13.75 11.25 C12.68458984 11.32347656 12.68458984 11.32347656 11.59765625 11.3984375 C10.67855469 11.47320312 9.75945312 11.54796875 8.8125 11.625 C7.89597656 11.69460937 6.97945312 11.76421875 6.03515625 11.8359375 C4.90400391 12.04089844 4.90400391 12.04089844 3.75 12.25 C3.42 12.91 3.09 13.57 2.75 14.25 C0.44 13.26 -1.87 12.27 -4.25 11.25 C-4.58 7.62 -4.91 3.99 -5.25 0.25 C-3.25 -0.75 -3.25 -0.75 0 0 Z " fill="#1A191E" transform="translate(94.25,65.75)"/>
<path d="M0 0 C0.66 0.33 1.32 0.66 2 1 C1.01 2.32 0.02 3.64 -1 5 C-0.0925 4.773125 0.815 4.54625 1.75 4.3125 C5 4 5 4 7.18048096 5.17805481 C9 7 9 7 9.4430542 9.22099304 C9.41640686 10.08481094 9.38975952 10.94862885 9.36230469 11.83862305 C9.34198181 12.8194133 9.32165894 13.80020355 9.30072021 14.81071472 C9.23694183 16.39521172 9.23694183 16.39521172 9.171875 18.01171875 C9.13009125 19.63676079 9.13009125 19.63676079 9.08746338 21.29463196 C8.99398611 24.75976954 8.87232612 28.22327237 8.75 31.6875 C8.68173797 34.03445197 8.61530855 36.38145801 8.55078125 38.72851562 C8.38845872 44.48647362 8.20298136 50.24333974 8 56 C7.67 56 7.34 56 7 56 C6.67 42.47 6.34 28.94 6 15 C5.67 15.66 5.34 16.32 5 17 C4.01 17 3.02 17 2 17 C2 16.34 2 15.68 2 15 C2.66 14.67 3.32 14.34 4 14 C4.65555119 11.47266765 4.65555119 11.47266765 5 9 C2.69 9.66 0.38 10.32 -2 11 C-2.33 9.68 -2.66 8.36 -3 7 C-3.94875 7.515625 -4.8975 8.03125 -5.875 8.5625 C-6.90625 9.036875 -7.9375 9.51125 -9 10 C-9.66 9.67 -10.32 9.34 -11 9 C-7.37 6.03 -3.74 3.06 0 0 Z " fill="#7F7F87" transform="translate(68,51)"/>
<path d="M0 0 C1.6857312 0.05329468 1.6857312 0.05329468 3.40551758 0.10766602 C7.62294241 0.23922102 11.84058794 0.36195023 16.05834961 0.48217773 C17.8748263 0.53515361 19.69123727 0.59044064 21.50756836 0.64819336 C34.7248246 1.13435597 34.7248246 1.13435597 47.89453125 0.14257812 C51.26239187 -0.08548665 53.86821665 0.81688185 57 2 C56.93993922 3.45947705 56.8511311 4.91779272 56.75 6.375 C56.70359375 7.18710938 56.6571875 7.99921875 56.609375 8.8359375 C56 11 56 11 54.125 12.28125 C51.64653737 13.11955354 49.59928705 13.14440484 47 13 C46.505 12.01 46.505 12.01 46 11 C47.65 11 49.3 11 51 11 C51 10.34 51 9.68 51 9 C50.34 9 49.68 9 49 9 C49.33 8.01 49.66 7.02 50 6 C51.32 6 52.64 6 54 6 C54 4.68 54 3.36 54 2 C53.19175781 2.10828125 53.19175781 2.10828125 52.3671875 2.21875 C37.75114681 3.86820914 22.61578717 3.54430959 8 2 C8 2.66 8 3.32 8 4 C7.34 4 6.68 4 6 4 C6 3.34 6 2.68 6 2 C3.03 1.505 3.03 1.505 0 1 C0 0.67 0 0.34 0 0 Z " fill="#B3B2BB" transform="translate(100,118)"/>
<path d="M0 0 C13.4364695 0.11995631 26.88048468 1.26719092 40.28149414 2.18945312 C40.28149414 2.51945313 40.28149414 2.84945312 40.28149414 3.18945312 C39.26724365 3.17374268 38.25299316 3.15803223 37.20800781 3.1418457 C33.44539327 3.08754994 29.68281336 3.05310462 25.91992188 3.0246582 C24.29128191 3.00957069 22.66268258 2.98909806 21.03417969 2.96313477 C18.69333879 2.92674864 16.35303495 2.90972692 14.01196289 2.89648438 C12.91962593 2.87325859 12.91962593 2.87325859 11.80522156 2.8495636 C7.85072671 2.74233545 7.85072671 2.74233545 4.61743164 4.73046875 C4.17657227 5.21193359 3.73571289 5.69339844 3.28149414 6.18945312 C0.92138672 6.25463867 0.92138672 6.25463867 -1.82397461 5.82617188 C-2.80688477 5.68115234 -3.78979492 5.53613281 -4.80249023 5.38671875 C-5.82665039 5.21849609 -6.85081055 5.05027344 -7.90600586 4.87695312 C-8.94176758 4.72033203 -9.9775293 4.56371094 -11.04467773 4.40234375 C-13.60530835 4.01293909 -16.16252415 3.60811894 -18.71850586 3.18945312 C-18.71850586 2.85945312 -18.71850586 2.52945313 -18.71850586 2.18945312 C-17.76137695 2.09857422 -17.76137695 2.09857422 -16.78491211 2.00585938 C-15.54547852 1.88017578 -15.54547852 1.88017578 -14.28100586 1.75195312 C-13.45729492 1.67074219 -12.63358398 1.58953125 -11.78491211 1.50585938 C-1.96195657 0.00177734 -1.96195657 0.00177734 0 0 Z " fill="#77767C" transform="translate(105.718505859375,127.810546875)"/>
<path d="M0 0 C2.64 0 5.28 0 8 0 C8.33 0.99 8.66 1.98 9 3 C11.64 2.67 14.28 2.34 17 2 C17 2.66 17 3.32 17 4 C20.63 4 24.26 4 28 4 C27.16666667 1.83333333 27.16666667 1.83333333 25 1 C26 0 26 0 29.5625 -0.0625 C30.696875 -0.041875 31.83125 -0.02125 33 0 C32.01 0.66 31.02 1.32 30 2 C29.67 2.99 29.34 3.98 29 5 C21.21209759 7.09145853 14.3489649 6.96793432 6.375 6.125 C5.27542969 6.02058594 4.17585938 5.91617188 3.04296875 5.80859375 C0.36043084 5.55200317 -2.32006349 5.28226702 -5 5 C-4.34 4.01 -3.68 3.02 -3 2 C-0.375 1.8125 -0.375 1.8125 2 2 C1.34 1.34 0.68 0.68 0 0 Z " fill="#19191D" transform="translate(110,123)"/>
<path d="M0 0 C1.37432457 3.81756824 0.67975039 7.07255329 0 11 C1.98 10.67 3.96 10.34 6 10 C6.33 11.98 6.66 13.96 7 16 C8.65 16.33 10.3 16.66 12 17 C12 17.33 12 17.66 12 18 C9.66836622 18.67258667 7.3347961 19.33847444 5 20 C4.319375 20.28875 3.63875 20.5775 2.9375 20.875 C-0.38703953 21.08948642 -2.44388064 18.91708952 -5 17 C-4.79503906 16.40832031 -4.59007813 15.81664063 -4.37890625 15.20703125 C-2.99693473 11.15368895 -1.74578796 7.22613175 -1 3 C-0.67 2.01 -0.34 1.02 0 0 Z " fill="#6E6D76" transform="translate(74,112)"/>
<path d="M0 0 C0.66 0.33 1.32 0.66 2 1 C2 14.86 2 28.72 2 43 C4.64 43 7.28 43 10 43 C12.5 44 12.5 44 14 45 C12.02 45 10.04 45 8 45 C8 45.66 8 46.32 8 47 C2.25 47.125 2.25 47.125 0 46 C-0.02505615 45.41508789 -0.0501123 44.83017578 -0.07592773 44.22753906 C-0.19222962 41.56815529 -0.31480067 38.90909597 -0.4375 36.25 C-0.47681641 35.32960937 -0.51613281 34.40921875 -0.55664062 33.4609375 C-0.59853516 32.57148437 -0.64042969 31.68203125 -0.68359375 30.765625 C-0.72025146 29.94868164 -0.75690918 29.13173828 -0.79467773 28.29003906 C-0.93716733 26.00669907 -0.93716733 26.00669907 -1.54711914 23.87402344 C-2.15137338 21.37361615 -1.61627797 19.46511188 -1 17 C-1.66 16.67 -2.32 16.34 -3 16 C-2.67 15.34 -2.34 14.68 -2 14 C-1.34 14 -0.68 14 0 14 C0 9.38 0 4.76 0 0 Z " fill="#CFCFD6" transform="translate(86,73)"/>
<path d="M0 0 C0.99 0 1.98 0 3 0 C3.33 2.31 3.66 4.62 4 7 C4.66 7 5.32 7 6 7 C5.125 11.875 5.125 11.875 4 13 C3.6068352 14.67884238 3.25914548 16.36850045 2.9375 18.0625 C2.67259766 19.44115234 2.67259766 19.44115234 2.40234375 20.84765625 C2.26957031 21.55792969 2.13679688 22.26820312 2 23 C1.01 23 0.02 23 -1 23 C-1.02712066 21.56260487 -1.04645067 20.12506137 -1.0625 18.6875 C-1.07410156 17.88699219 -1.08570312 17.08648437 -1.09765625 16.26171875 C-1 14 -1 14 0 11 C0.0685495 9.10529184 0.08480372 7.2083166 0.0625 5.3125 C0.05347656 4.31863281 0.04445313 3.32476562 0.03515625 2.30078125 C0.02355469 1.54152344 0.01195313 0.78226562 0 0 Z " fill="#101012" transform="translate(77,93)"/>
<path d="M0 0 C0.33 0.66 0.66 1.32 1 2 C2.14082031 2.41765625 2.14082031 2.41765625 3.3046875 2.84375 C6.51323649 4.22017102 7.91125688 5.82614556 10.125 8.5 C12.37974094 11.20217981 14.04750329 13.03166886 17 15 C17 15.66 17 16.32 17 17 C18.32 17.66 19.64 18.32 21 19 C18.50907189 20.24546405 17.58919267 19.7767578 15 19 C15 18.01 15 17.02 15 16 C14.319375 15.731875 13.63875 15.46375 12.9375 15.1875 C9.60289191 13.83946694 6.30256763 12.42463702 3 11 C3 8.69 3 6.38 3 4 C2.01 4 1.02 4 0 4 C0 2.68 0 1.36 0 0 Z " fill="#7C7B82" transform="translate(88,54)"/>
<path d="M0 0 C2.6245228 0.99550865 3.95028727 1.93963454 5.75 4.125 C7.42728337 7.98275174 7.2127899 10.81513202 7 15 C6.38125 14.34 5.7625 13.68 5.125 13 C3.24362573 10.7715451 3.24362573 10.7715451 1 11 C0.01 13.31 -0.98 15.62 -2 18 C-2.33 18 -2.66 18 -3 18 C-2.88648483 16.18674449 -2.75887039 14.37436643 -2.625 12.5625 C-2.55539063 11.55316406 -2.48578125 10.54382813 -2.4140625 9.50390625 C-2.27742188 8.67761719 -2.14078125 7.85132812 -2 7 C-1.34 6.67 -0.68 6.34 0 6 C0 5.34 0 4.68 0 4 C-0.66 4 -1.32 4 -2 4 C-1.34 2.68 -0.68 1.36 0 0 Z " fill="#2B2B31" transform="translate(83,61)"/>
<path d="M0 0 C0.33 0 0.66 0 1 0 C1.19620767 2.06168985 1.38160753 4.12440998 1.5625 6.1875 C1.66691406 7.33605469 1.77132812 8.48460938 1.87890625 9.66796875 C1.98859985 12.68631199 1.74002389 15.08923936 1 18 C1.66 18.33 2.32 18.66 3 19 C2.34 19 1.68 19 1 19 C1.061875 19.94875 1.12375 20.8975 1.1875 21.875 C1.125625 22.90625 1.06375 23.9375 1 25 C0.01 25.66 -0.98 26.32 -2 27 C-2.05784708 22.87505849 -2.09354407 18.75022056 -2.125 14.625 C-2.14175781 13.449375 -2.15851563 12.27375 -2.17578125 11.0625 C-2.18222656 9.94101563 -2.18867187 8.81953125 -2.1953125 7.6640625 C-2.20578613 6.62717285 -2.21625977 5.5902832 -2.22705078 4.52197266 C-2 2 -2 2 0 0 Z " fill="#0F0F12" transform="translate(79,61)"/>
<path d="M0 0 C-0.845625 0.7425 -1.69125 1.485 -2.5625 2.25 C-3.7690625 3.61125 -3.7690625 3.61125 -5 5 C-4.86358623 7.21858253 -4.86358623 7.21858253 -4 9 C-5 10 -5 10 -7.50390625 10.09765625 C-9.01791016 10.08025391 -9.01791016 10.08025391 -10.5625 10.0625 C-11.57441406 10.05347656 -12.58632813 10.04445313 -13.62890625 10.03515625 C-14.41136719 10.02355469 -15.19382813 10.01195313 -16 10 C-16.12375 9.195625 -16.2475 8.39125 -16.375 7.5625 C-16.684375 6.2940625 -16.684375 6.2940625 -17 5 C-17.66 4.67 -18.32 4.34 -19 4 C-17.68 4 -16.36 4 -15 4 C-15.33 5.32 -15.66 6.64 -16 8 C-13.02329237 7.25621612 -13.02329237 7.25621612 -11.4375 5.4375 C-10.963125 4.963125 -10.48875 4.48875 -10 4 C-9.34 4 -8.68 4 -8 4 C-8 2.68 -8 1.36 -8 0 C-2.25 -1.125 -2.25 -1.125 0 0 Z " fill="#828189" transform="translate(69,70)"/>
<path d="M0 0 C2.475 0.99 2.475 0.99 5 2 C4.67 6.95 4.34 11.9 4 17 C3.34 17 2.68 17 2 17 C1.67 17.99 1.34 18.98 1 20 C0.67 20 0.34 20 0 20 C0 17.69 0 15.38 0 13 C-0.66 12.67 -1.32 12.34 -2 12 C-1.25 5.25 -1.25 5.25 1 3 C0.67 2.01 0.34 1.02 0 0 Z " fill="#666573" transform="translate(82,70)"/>
<path d="M0 0 C0.66 1.65 1.32 3.3 2 5 C1.236875 5.061875 0.47375 5.12375 -0.3125 5.1875 C-3.23051809 5.76935262 -3.23051809 5.76935262 -4.8125 8.5625 C-5.204375 9.366875 -5.59625 10.17125 -6 11 C-4.35 11 -2.7 11 -1 11 C-0.67 10.01 -0.34 9.02 0 8 C0.66 8 1.32 8 2 8 C2 7.34 2 6.68 2 6 C2.99 6.33 3.98 6.66 5 7 C0.125 12.875 0.125 12.875 -1 14 C-1 14.99 -1 15.98 -1 17 C-1.99 17 -2.98 17 -4 17 C-3.67 15.68 -3.34 14.36 -3 13 C-4.32 13 -5.64 13 -7 13 C-7.43535798 8.64642017 -7.38921814 5.95900264 -4.625 2.5625 C-2 0 -2 0 0 0 Z " fill="#35343C" transform="translate(57,61)"/>
<path d="M0 0 C0.99 0 1.98 0 3 0 C3 0.66 3 1.32 3 2 C3.66 2 4.32 2 5 2 C5 1.34 5 0.68 5 0 C9.29 0 13.58 0 18 0 C18 0.33 18 0.66 18 1 C15.69 1 13.38 1 11 1 C10.34 2.65 9.68 4.3 9 6 C3.58461538 6.36923077 3.58461538 6.36923077 0.625 4.5 C0.08875 4.005 -0.4475 3.51 -1 3 C-0.67 2.01 -0.34 1.02 0 0 Z " fill="#41404A" transform="translate(103,120)"/>
<path d="M0 0 C0.33 0.66 0.66 1.32 1 2 C1.66 2 2.32 2 3 2 C3.33 6.29 3.66 10.58 4 15 C2 11 2 11 2 9 C1.34 9 0.68 9 0 9 C-0.33 11.31 -0.66 13.62 -1 16 C-1.33 16 -1.66 16 -2 16 C-2.05402274 13.89611431 -2.09280256 11.79183286 -2.125 9.6875 C-2.14820312 8.51574219 -2.17140625 7.34398438 -2.1953125 6.13671875 C-2 3 -2 3 0 0 Z " fill="#393942" transform="translate(82,103)"/>
<path d="M0 0 C1.98 0.66 3.96 1.32 6 2 C6.33 1.34 6.66 0.68 7 0 C9.475 0.99 9.475 0.99 12 2 C12 2.66 12 3.32 12 4 C7.84373632 5.00926479 3.95634906 5.10239579 -0.3125 5.0625 C-1.56675781 5.05347656 -2.82101563 5.04445312 -4.11328125 5.03515625 C-5.06589844 5.02355469 -6.01851562 5.01195312 -7 5 C-4.35261084 3.5393715 -3.10551666 3 0 3 C0 2.01 0 1.02 0 0 Z " fill="#2C2C31" transform="translate(139,125)"/>
<path d="M0 0 C1.98 0 3.96 0 6 0 C6.33 0.66 6.66 1.32 7 2 C6.67 2.66 6.34 3.32 6 4 C7.32 4 8.64 4 10 4 C10.33 5.32 10.66 6.64 11 8 C9.02 8.33 7.04 8.66 5 9 C5.33 8.01 5.66 7.02 6 6 C5.01 6 4.02 6 3 6 C2.01 4.02 1.02 2.04 0 0 Z " fill="#222228" transform="translate(97,69)"/>
<path d="M0 0 C2.75 -0.375 2.75 -0.375 6 0 C8.375 3 8.375 3 10 6 C9.67 6.66 9.34 7.32 9 8 C7.68 7.34 6.36 6.68 5 6 C5 5.01 5 4.02 5 3 C1.04 3.66 -2.92 4.32 -7 5 C-6.34 4.01 -5.68 3.02 -5 2 C-2.375 1.8125 -2.375 1.8125 0 2 C0 1.34 0 0.68 0 0 Z " fill="#87868C" transform="translate(77,46)"/>
<path d="M0 0 C1.98 1.65 3.96 3.3 6 5 C5.67 6.65 5.34 8.3 5 10 C4.01 10.33 3.02 10.66 2 11 C-2.66666667 8.66666667 -2.66666667 8.66666667 -4 6 C-1.03 6.495 -1.03 6.495 2 7 C1.34 4.69 0.68 2.38 0 0 Z " fill="#A2A1AE" transform="translate(109,74)"/>
<path d="M0 0 C0.99 0.66 1.98 1.32 3 2 C2.67 3.32 2.34 4.64 2 6 C1.67 5.34 1.34 4.68 1 4 C0.34 6.64 -0.32 9.28 -1 12 C-1.99 12 -2.98 12 -4 12 C-4 11.34 -4 10.68 -4 10 C-3.34 9.67 -2.68 9.34 -2 9 C-1.34444881 6.47266765 -1.34444881 6.47266765 -1 4 C-3.31 4.66 -5.62 5.32 -8 6 C-8 5.01 -8 4.02 -8 3 C-6.73637508 2.44172391 -5.4637081 1.90387903 -4.1875 1.375 C-3.47980469 1.07335938 -2.77210937 0.77171875 -2.04296875 0.4609375 C-1.36878906 0.30882812 -0.69460937 0.15671875 0 0 Z " fill="#505059" transform="translate(74,56)"/>
<path d="M0 0 C2.375 -0.125 2.375 -0.125 5 0 C5.66 0.66 6.32 1.32 7 2 C7.99 2 8.98 2 10 2 C10.33 2.99 10.66 3.98 11 5 C11.66 5 12.32 5 13 5 C13 5.66 13 6.32 13 7 C11.26171875 7.67578125 11.26171875 7.67578125 9 8 C6.89453125 6.85546875 6.89453125 6.85546875 4.8125 5.1875 C4.11769531 4.64480469 3.42289062 4.10210937 2.70703125 3.54296875 C1 2 1 2 0 0 Z " fill="#7B7A81" transform="translate(90,77)"/>
<path d="M0 0 C3.63 0 7.26 0 11 0 C11 1.32 11 2.64 11 4 C9.741875 4.04125 8.48375 4.0825 7.1875 4.125 C6.47980469 4.14820312 5.77210938 4.17140625 5.04296875 4.1953125 C3 4 3 4 0 2 C0 1.34 0 0.68 0 0 Z " fill="#2D2C34" transform="translate(143,120)"/>
<path d="M0 0 C6.27 0 12.54 0 19 0 C18.67 0.66 18.34 1.32 18 2 C17.06027344 1.98259766 17.06027344 1.98259766 16.1015625 1.96484375 C14.87566406 1.95130859 14.87566406 1.95130859 13.625 1.9375 C12.40683594 1.92009766 12.40683594 1.92009766 11.1640625 1.90234375 C8.95062858 1.85533666 8.95062858 1.85533666 7 3 C7.66 3.66 8.32 4.32 9 5 C7.68 5 6.36 5 5 5 C4.67 4.34 4.34 3.68 4 3 C1.97536745 2.34786708 1.97536745 2.34786708 0 2 C0 1.34 0 0.68 0 0 Z " fill="#302F38" transform="translate(114,121)"/>
<path d="M0 0 C0.33 0.66 0.66 1.32 1 2 C2.64363134 2.72159424 4.31050386 3.39351421 6 4 C6 5.65 6 7.3 6 9 C6.99 9.33 7.98 9.66 9 10 C8.67 10.99 8.34 11.98 8 13 C5.525 12.01 5.525 12.01 3 11 C3 8.69 3 6.38 3 4 C2.01 4 1.02 4 0 4 C0 2.68 0 1.36 0 0 Z " fill="#504F56" transform="translate(88,54)"/>
<path d="M0 0 C0.99 0 1.98 0 3 0 C3 0.66 3 1.32 3 2 C3.99 2 4.98 2 6 2 C5.67 2.99 5.34 3.98 5 5 C3.68 5 2.36 5 1 5 C0.67 5.66 0.34 6.32 0 7 C-3.0109362 4.9927092 -3.63016497 4.16115776 -5 1 C-2.525 1.495 -2.525 1.495 0 2 C0 1.34 0 0.68 0 0 Z " fill="#121216" transform="translate(97,73)"/>
<path d="M0 0 C1.37432457 3.81756824 0.67975039 7.07255329 0 11 C1.32 11.33 2.64 11.66 4 12 C3.01 12.66 2.02 13.32 1 14 C0.67 14.99 0.34 15.98 0 17 C-0.99 17 -1.98 17 -3 17 C-1.81761006 5.45283019 -1.81761006 5.45283019 0 0 Z " fill="#55555B" transform="translate(74,112)"/>
<path d="M0 0 C8.57142857 -0.28571429 8.57142857 -0.28571429 12 2 C10.02 2 8.04 2 6 2 C6 2.66 6 3.32 6 4 C3.125 4.125 3.125 4.125 0 4 C-0.66 3.34 -1.32 2.68 -2 2 C-1.34 2 -0.68 2 0 2 C0 1.34 0 0.68 0 0 Z " fill="#7D7D8A" transform="translate(88,116)"/>
<path d="M0 0 C0.8971875 0.309375 0.8971875 0.309375 1.8125 0.625 C1.1525 0.625 0.4925 0.625 -0.1875 0.625 C0.1425 2.275 0.4725 3.925 0.8125 5.625 C-1.85416667 5.625 -4.52083333 5.625 -7.1875 5.625 C-5.69046729 2.17030914 -4.27938051 -0.73360809 0 0 Z " fill="#242329" transform="translate(74.1875,50.375)"/>
<path d="M0 0 C1.32 0 2.64 0 4 0 C3.67 1.32 3.34 2.64 3 4 C5.97670763 3.25621612 5.97670763 3.25621612 7.5625 1.4375 C8.036875 0.963125 8.51125 0.48875 9 0 C9.66 0 10.32 0 11 0 C11 1.65 11 3.3 11 5 C8.36 5.33 5.72 5.66 3 6 C2.87625 5.195625 2.7525 4.39125 2.625 3.5625 C2.315625 2.2940625 2.315625 2.2940625 2 1 C1.34 0.67 0.68 0.34 0 0 Z " fill="#88878E" transform="translate(50,74)"/>
<path d="M0 0 C0.99 0.33 1.98 0.66 3 1 C4.1875 4.5625 4.1875 4.5625 5 8 C3.68 8.33 2.36 8.66 1 9 C1.66 9.33 2.32 9.66 3 10 C2.34 10.66 1.68 11.32 1 12 C0.30251417 13.31747324 -0.36959957 14.64914193 -1 16 C-0.88648483 14.18674449 -0.75887039 12.37436643 -0.625 10.5625 C-0.55539063 9.55316406 -0.48578125 8.54382813 -0.4140625 7.50390625 C-0.27742188 6.67761719 -0.14078125 5.85132812 0 5 C0.66 4.67 1.32 4.34 2 4 C2 3.34 2 2.68 2 2 C1.34 2 0.68 2 0 2 C0 1.34 0 0.68 0 0 Z " fill="#383842" transform="translate(81,63)"/>
<path d="M0 0 C0.66 0 1.32 0 2 0 C2.66 1.65 3.32 3.3 4 5 C3.21625 5.103125 2.4325 5.20625 1.625 5.3125 C-1.33045181 5.77595022 -1.33045181 5.77595022 -3 9 C-3.66 9 -4.32 9 -5 9 C-4.42676569 5.13066838 -2.61046448 2.84777943 0 0 Z " fill="#68686B" transform="translate(55,61)"/>
<path d="M0 0 C2.31 0.33 4.62 0.66 7 1 C6.67 1.99 6.34 2.98 6 4 C3.69 3.67 1.38 3.34 -1 3 C-0.67 2.01 -0.34 1.02 0 0 Z " fill="#151417" transform="translate(96,119)"/>
<path d="M0 0 C-4.625 4 -4.625 4 -8 4 C-8 2.68 -8 1.36 -8 0 C-2.25 -1.125 -2.25 -1.125 0 0 Z " fill="#7D7C81" transform="translate(69,70)"/>
<path d="M0 0 C0.66 0 1.32 0 2 0 C2.33 0.99 2.66 1.98 3 3 C4.87387216 3.80212628 4.87387216 3.80212628 7.0625 4.1875 C7.79597656 4.34605469 8.52945313 4.50460938 9.28515625 4.66796875 C9.85105469 4.77753906 10.41695312 4.88710937 11 5 C11 5.33 11 5.66 11 6 C7.7 5.67 4.4 5.34 1 5 C0.67 3.35 0.34 1.7 0 0 Z " fill="#2C2C31" transform="translate(80,124)"/>
<path d="M0 0 C1.98 0 3.96 0 6 0 C6.33 0.66 6.66 1.32 7 2 C6.01 2.495 6.01 2.495 5 3 C5 3.66 5 4.32 5 5 C3.0625 4.1875 3.0625 4.1875 1 3 C0.67 2.01 0.34 1.02 0 0 Z " fill="#313039" transform="translate(97,69)"/>
<path d="M0 0 C-0.66 1.65 -1.32 3.3 -2 5 C-3.32 5 -4.64 5 -6 5 C-6 4.01 -6 3.02 -6 2 C-3 0 -3 0 0 0 Z " fill="#131315" transform="translate(63,59)"/>
<path d="M0 0 C0.99 0 1.98 0 3 0 C3 1.65 3 3.3 3 5 C0.69 5 -1.62 5 -4 5 C-2.68 4.67 -1.36 4.34 0 4 C0 2.68 0 1.36 0 0 Z " fill="#878595" transform="translate(154,120)"/>
<path d="M0 0 C2.97 0 5.94 0 9 0 C8.01 1.485 8.01 1.485 7 3 C2.25 2.25 2.25 2.25 0 0 Z " fill="#BAB9C1" transform="translate(71,130)"/>
<path d="M0 0 C2.31 0 4.62 0 7 0 C7 0.99 7 1.98 7 3 C4.69 3 2.38 3 0 3 C0 2.01 0 1.02 0 0 Z " fill="#303037" transform="translate(131,124)"/>
<path d="M0 0 C0.33 0.66 0.66 1.32 1 2 C1.99 2.33 2.98 2.66 4 3 C3.67 3.99 3.34 4.98 3 6 C1.68 5.67 0.36 5.34 -1 5 C-0.67 3.35 -0.34 1.7 0 0 Z " fill="#18171B" transform="translate(84,122)"/>
<path d="M0 0 C1.32 0.33 2.64 0.66 4 1 C4 2.65 4 4.3 4 6 C2.68 5.67 1.36 5.34 0 5 C0 3.35 0 1.7 0 0 Z " fill="#4C4B57" transform="translate(81,89)"/>
<path d="M0 0 C2.475 0.99 2.475 0.99 5 2 C4.67 2.66 4.34 3.32 4 4 C3.34 4 2.68 4 2 4 C2 4.99 2 5.98 2 7 C1.34 7 0.68 7 0 7 C0.2784375 6.1028125 0.2784375 6.1028125 0.5625 5.1875 C1.22093687 2.83591238 1.22093687 2.83591238 0 0 Z " fill="#777783" transform="translate(82,70)"/>
</svg>
