<?xml version="1.0" encoding="UTF-8"?>
<svg version="1.1" xmlns="http://www.w3.org/2000/svg" width="200" height="201">
<path d="M0 0 C2.30983952 0.01930364 4.61369964 -0.02036587 6.9230957 -0.06469727 C16.40132312 -0.11766602 22.73880444 1.25184465 30.74536133 6.70678711 C32.50961228 7.69776473 34.27973138 8.67843415 36.05786133 9.64428711 C40.44375181 12.29540751 43.98226622 15.34873467 46.74536133 19.70678711 C46.74536133 20.36678711 46.74536133 21.02678711 46.74536133 21.70678711 C48.23036133 22.20178711 48.23036133 22.20178711 49.74536133 22.70678711 C54.07114921 27.41426216 54.0892305 31.44236745 54.40551758 37.67553711 C54.82282091 41.39769092 55.9827088 44.18553647 57.71020508 47.47631836 C61.10621318 54.79375469 61.08027584 61.67816822 61.05786133 69.64428711 C61.07397461 70.78575195 61.09008789 71.9272168 61.10668945 73.10327148 C61.11198864 82.27616274 59.75144915 88.59337034 54.05786133 96.01928711 C51.90204985 98.84535998 49.78865418 101.641141 47.83129883 104.60913086 C43.11537952 111.68300983 38.2444121 115.75556311 30.74536133 119.70678711 C29.90360352 120.17858398 29.0618457 120.65038086 28.19458008 121.13647461 C15.74658641 127.52102978 0.43354119 129.32450527 -13.25463867 126.70678711 C-17.3070173 125.17691184 -20.69633674 123.15721282 -24.25463867 120.70678711 C-25.19823242 120.09706055 -26.14182617 119.48733398 -27.11401367 118.85913086 C-34.08245174 114.22334791 -34.08245174 114.22334791 -35.25463867 110.70678711 C-35.91463867 110.70678711 -36.57463867 110.70678711 -37.25463867 110.70678711 C-39.06689386 109.1016468 -40.6378591 107.49846895 -42.25463867 105.70678711 C-42.79475586 105.14475586 -43.33487305 104.58272461 -43.89135742 104.00366211 C-51.72390658 95.0622352 -54.90756859 82.97022701 -58.51733398 71.84741211 C-59.23553448 69.65063218 -59.23553448 69.65063218 -60.30712891 67.40087891 C-62.17390042 62.093014 -61.90483073 56.35831805 -62.00976562 50.77978516 C-62.04780692 49.28095814 -62.10909418 47.7825291 -62.19433594 46.28564453 C-62.89782178 33.80324503 -62.89782178 33.80324503 -58.82519531 28.60717773 C-55.84057617 25.97631836 -55.84057617 25.97631836 -52.84594727 23.80371094 C-48.89908133 20.6098508 -48.27412845 17.56896911 -47.25463867 12.70678711 C-45.60463867 12.70678711 -43.95463867 12.70678711 -42.25463867 12.70678711 C-41.92463867 14.02678711 -41.59463867 15.34678711 -41.25463867 16.70678711 C-40.91432617 16.24788086 -40.57401367 15.78897461 -40.22338867 15.31616211 C-37.09679195 11.3580237 -34.31375265 8.71425625 -29.64892578 6.74609375 C-28.01446509 6.03661081 -26.40423026 5.26926123 -24.81982422 4.45410156 C-16.47878453 0.43254212 -9.07935914 -0.10138602 0 0 Z M-7.25463867 8.70678711 C-7.25463867 10.35678711 -7.25463867 12.00678711 -7.25463867 13.70678711 C-8.57463867 13.37678711 -9.89463867 13.04678711 -11.25463867 12.70678711 C-11.25463867 12.04678711 -11.25463867 11.38678711 -11.25463867 10.70678711 C-16.60307875 11.24163112 -20.6125997 13.17369478 -25.25463867 15.70678711 C-25.46545718 19.60137785 -25.46545718 19.60137785 -24.25463867 22.70678711 C-27.22463867 22.04678711 -30.19463867 21.38678711 -33.25463867 20.70678711 C-43.87696764 32.84659164 -44.31972145 47.28815748 -43.57104492 62.72241211 C-42.8490519 69.53232163 -40.26388744 75.61664079 -37.25463867 81.70678711 C-36.59463867 81.70678711 -35.93463867 81.70678711 -35.25463867 81.70678711 C-34.57401367 80.84053711 -33.89338867 79.97428711 -33.19213867 79.08178711 C-28.41227508 73.20625278 -21.84778158 69.98051447 -15.21020508 66.5859375 C-7.50946517 62.64350645 -0.6892362 58.3696363 6.01879883 52.90600586 C8.13600801 51.19828556 10.20547729 49.71745578 12.49536133 48.26928711 C16.63136781 45.40274796 19.44160873 41.28563638 22.53442383 37.37475586 C25.98229106 33.21416695 29.5237354 29.44732909 34.74536133 27.70678711 C33.81575405 23.80515072 32.88972921 22.79831668 29.43676758 20.60913086 C28.06946933 19.93558822 26.6924809 19.28146279 25.30786133 18.64428711 C24.58864502 18.30139648 23.86942871 17.95850586 23.12841797 17.60522461 C11.43805018 12.0793943 11.43805018 12.0793943 -1.25463867 10.70678711 C-4.69213867 9.70678711 -4.69213867 9.70678711 -7.25463867 8.70678711 Z M41.74536133 39.70678711 C41.74536133 40.36678711 41.74536133 41.02678711 41.74536133 41.70678711 C40.78629883 41.86147461 40.78629883 41.86147461 39.80786133 42.01928711 C39.12723633 42.24616211 38.44661133 42.47303711 37.74536133 42.70678711 C37.41536133 43.69678711 37.08536133 44.68678711 36.74536133 45.70678711 C35.08089203 46.37892116 33.41382238 47.04462404 31.74536133 47.70678711 C29.26680446 49.71666347 29.26680446 49.71666347 26.80786133 52.14428711 C22.04183529 56.59599918 17.10595881 60.66909678 11.94995117 64.65844727 C8.21857834 67.54583129 4.55769635 70.49774631 0.93286133 73.51928711 C-3.02634397 76.79910215 -7.07381458 79.66842468 -11.47729492 82.32006836 C-13.52596662 83.91848254 -14.18968332 85.37060127 -15.25463867 87.70678711 C-17.32692018 88.9930308 -19.41649667 89.76904018 -21.69213867 90.64428711 C-24.39636235 91.76555059 -26.77927714 93.15084557 -29.25463867 94.70678711 C-26.59300688 97.96294146 -24.04855988 101.07165014 -20.75463867 103.70678711 C-17.98966614 105.91876514 -15.96581141 108.35023001 -13.78198242 111.12084961 C-11.55065679 113.43777597 -9.44152939 114.50546048 -6.27416992 115.04272461 C5.99407196 115.25986163 18.4867588 111.2783147 29.74536133 106.70678711 C30.07536133 104.72678711 30.40536133 102.74678711 30.74536133 100.70678711 C31.73536133 100.37678711 32.72536133 100.04678711 33.74536133 99.70678711 C34.07536133 100.69678711 34.40536133 101.68678711 34.74536133 102.70678711 C38.24409404 101.31023414 39.45427964 99.99418227 40.99536133 96.58178711 C41.57286133 95.30303711 42.15036133 94.02428711 42.74536133 92.70678711 C39.44536133 93.36678711 36.14536133 94.02678711 32.74536133 94.70678711 C34.35045718 91.4965954 35.3741443 89.91301879 38.55786133 88.14428711 C43.54656048 85.11855981 45.79375557 78.97335443 47.74536133 73.70678711 C48.16364209 71.05603043 48.16364209 71.05603043 47.74536133 68.70678711 C46.12196328 66.99794706 44.4521708 65.33231994 42.74536133 63.70678711 C41.43286133 60.89428711 41.43286133 60.89428711 40.74536133 58.70678711 C43.71729983 59.83130438 46.0797682 60.92972502 48.74536133 62.70678711 C49.01834566 57.17526246 48.17638159 52.96575482 46.37036133 47.83178711 C46.14864258 47.15631836 45.92692383 46.48084961 45.69848633 45.78491211 C44.62635153 42.03301588 44.62635153 42.03301588 41.74536133 39.70678711 Z M-51.25463867 64.70678711 C-51.25463867 66.35678711 -51.25463867 68.00678711 -51.25463867 69.70678711 C-50.92463867 69.70678711 -50.59463867 69.70678711 -50.25463867 69.70678711 C-50.25463867 68.05678711 -50.25463867 66.40678711 -50.25463867 64.70678711 C-50.58463867 64.70678711 -50.91463867 64.70678711 -51.25463867 64.70678711 Z M-50.25463867 71.70678711 C-49.25463867 73.70678711 -49.25463867 73.70678711 -49.25463867 73.70678711 Z M52.74536133 81.70678711 C52.41536133 83.35678711 52.08536133 85.00678711 51.74536133 86.70678711 C52.40536133 86.04678711 53.06536133 85.38678711 53.74536133 84.70678711 C53.41536133 83.71678711 53.08536133 82.72678711 52.74536133 81.70678711 Z M50.74536133 86.70678711 C51.74536133 88.70678711 51.74536133 88.70678711 51.74536133 88.70678711 Z " fill="#222323" transform="translate(96.254638671875,35.293212890625)"/>
<path d="M0 0 C1.32 0 2.64 0 4 0 C4.12375 1.0725 4.2475 2.145 4.375 3.25 C4.89643936 6.37863615 5.40088254 8.33480424 7 11 C7.66 11 8.32 11 9 11 C9.83719383 13.29032311 10.6698929 15.58210957 11.5 17.875 C11.73847656 18.52597656 11.97695313 19.17695312 12.22265625 19.84765625 C14 24.7734375 14 24.7734375 14 27 C14.66 27 15.32 27 16 27 C16.226875 26.4225 16.45375 25.845 16.6875 25.25 C18.37755482 22.35276316 20.29552182 20.99896213 23 19 C23.86818359 18.24976563 23.86818359 18.24976563 24.75390625 17.484375 C29.30061998 13.70003953 32.84714754 12.3526012 38.671875 11.50390625 C41.08461741 10.98168516 42.41405046 10.27330837 44.375 8.8125 C47 7 47 7 49.375 7.25 C49.91125 7.4975 50.4475 7.745 51 8 C49.73459948 11.79620155 48.21781569 12.48678188 44.9375 14.6875 C44.01839844 15.31011719 43.09929687 15.93273437 42.15234375 16.57421875 C41.08693359 17.27998047 41.08693359 17.27998047 40 18 C40.99 18 41.98 18 43 18 C43 18.99 43 19.98 43 21 C41.7934375 21.680625 41.7934375 21.680625 40.5625 22.375 C37.75117093 23.76652185 37.75117093 23.76652185 37.1875 26.6875 C37.0946875 27.8321875 37.0946875 27.8321875 37 29 C36.34 29 35.68 29 35 29 C35 29.66 35 30.32 35 31 C33.68 31.33 32.36 31.66 31 32 C31.495 33.98 31.495 33.98 32 36 C31.2575 36.28875 30.515 36.5775 29.75 36.875 C27.43260203 37.82302644 25.22082885 38.84845911 23 40 C23.639375 40.721875 24.27875 41.44375 24.9375 42.1875 C27 45 27 45 27.5 47.6875 C27.665 48.450625 27.83 49.21375 28 50 C29.96758273 51.36020151 29.96758273 51.36020151 32 52 C32 52.99 32 53.98 32 55 C32.721875 55.061875 33.44375 55.12375 34.1875 55.1875 C37.84362105 56.24371275 39.37471773 58.3074028 42 61 C44.17346568 61.86119134 44.17346568 61.86119134 46 62 C46 62.66 46 63.32 46 64 C46.7734375 63.7525 46.7734375 63.7525 47.5625 63.5 C50.73363876 62.84951 53.77218334 62.9379266 57 63 C56.34 63.99 55.68 64.98 55 66 C57.64 66 60.28 66 63 66 C63 65.34 63 64.68 63 64 C61.35 63.67 59.7 63.34 58 63 C58 62.67 58 62.34 58 62 C60.31 62 62.62 62 65 62 C65 61.34 65 60.68 65 60 C65.66 60 66.32 60 67 60 C67 59.34 67 58.68 67 58 C67.65226562 57.89042969 68.30453125 57.78085938 68.9765625 57.66796875 C74.13429595 56.73227374 78.40035412 55.62836908 83 53 C83.763125 52.649375 84.52625 52.29875 85.3125 51.9375 C87.18189338 51.10678318 87.18189338 51.10678318 88 49 C88.66 49 89.32 49 90 49 C90 48.34 90 47.68 90 47 C90.66 46.67 91.32 46.34 92 46 C92.33 45.01 92.66 44.02 93 43 C93.66 43 94.32 43 95 43 C95 42.01 95 41.02 95 40 C95.99 40 96.98 40 98 40 C98.33 36.37 98.66 32.74 99 29 C99.66 29 100.32 29 101 29 C101.495 32.465 101.495 32.465 102 36 C102.99 35.67 103.98 35.34 105 35 C105 36.32 105 37.64 105 39 C104.34 39 103.68 39 103 39 C102.91492188 40.03125 102.82984375 41.0625 102.7421875 42.125 C101.32180518 49.54089085 96.12848327 55.46500841 90.34375 60.15234375 C87.62636669 61.93660262 84.88235896 63.4984359 82 65 C81.15953125 65.47050781 80.3190625 65.94101563 79.453125 66.42578125 C67.00918241 72.81744267 51.68655682 74.61740777 38 72 C33.94762137 70.47012473 30.55830193 68.45042571 27 66 C26.05640625 65.39027344 25.1128125 64.78054687 24.140625 64.15234375 C17.17218693 59.5165608 17.17218693 59.5165608 16 56 C15.34 56 14.68 56 14 56 C12.18732578 54.39448855 10.6175947 52.79166657 9 51 C8.43667969 50.41476563 7.87335937 49.82953125 7.29296875 49.2265625 C3.13832277 44.501671 0.92805367 39.8023604 -0.9375 33.875 C-1.14890625 33.20621826 -1.3603125 32.53743652 -1.578125 31.84838867 C-2.84627021 27.47296419 -3.19456117 23.53976059 -3 19 C-2.01 19.33 -1.02 19.66 0 20 C0 20.66 0 21.32 0 22 C1.32 22.33 2.64 22.66 4 23 C4.16245539 20.77810456 4.16245539 20.77810456 2.5 18.3125 C0.77891419 14.51176884 0.85734283 12.13705783 1 8 C0.74544728 5.31776854 0.37462792 2.66922391 0 0 Z " fill="#1B1B1C" transform="translate(45,90)"/>
<path d="M0 0 C2.62018612 2.62018612 2.25389574 3.91539878 2.375 7.5625 C2.70625663 12.59760082 3.62749765 16.31702024 5.96484375 20.76953125 C9.36085186 28.08696758 9.33491452 34.97138111 9.3125 42.9375 C9.32861328 44.07896484 9.34472656 45.22042969 9.36132812 46.39648438 C9.36647438 55.30465069 8.0219833 61.59095708 2.8125 69 C2.28269531 69.763125 1.75289063 70.52625 1.20703125 71.3125 C0.80871094 71.869375 0.41039062 72.42625 0 73 C-1.125 69.25 -1.125 69.25 0 67 C0.66 67 1.32 67 2 67 C2 65.68 2 64.36 2 63 C0.02 63.99 0.02 63.99 -2 65 C-2 62.36 -2 59.72 -2 57 C-2.66 57 -3.32 57 -4 57 C-4.33 60.63 -4.66 64.26 -5 68 C-5.99 68 -6.98 68 -8 68 C-8 68.99 -8 69.98 -8 71 C-8.66 71 -9.32 71 -10 71 C-10.495 72.98 -10.495 72.98 -11 75 C-11.66 75 -12.32 75 -13 75 C-13 75.66 -13 76.32 -13 77 C-13.66 77 -14.32 77 -15 77 C-15.495 78.485 -15.495 78.485 -16 80 C-22.40855443 84.21426539 -28.31577607 86.88664122 -36 86 C-36 86.66 -36 87.32 -36 88 C-36.66 88 -37.32 88 -38 88 C-38 88.66 -38 89.32 -38 90 C-40.97 90.495 -40.97 90.495 -44 91 C-42.68 91.33 -41.36 91.66 -40 92 C-40 92.66 -40 93.32 -40 94 C-44.455 94.495 -44.455 94.495 -49 95 C-48.34 94.01 -47.68 93.02 -47 92 C-50.3 92 -53.6 92 -57 92 C-57 91.34 -57 90.68 -57 90 C-57.7425 89.896875 -58.485 89.79375 -59.25 89.6875 C-62.1973519 88.95066203 -63.78383074 88.05200858 -66 86 C-66 85.34 -66 84.68 -66 84 C-67.65 83.67 -69.3 83.34 -71 83 C-71 82.01 -71 81.02 -71 80 C-72.65 79.34 -74.3 78.68 -76 78 C-75.67 76.68 -75.34 75.36 -75 74 C-72.95880212 75.61594832 -70.95927063 77.2856382 -69 79 C-69 79.66 -69 80.32 -69 81 C-68.360625 81.268125 -67.72125 81.53625 -67.0625 81.8125 C-65 83 -65 83 -64 86 C-56.70287283 88.70674348 -48.68597487 86.90393435 -41.375 85.1875 C-40.67093018 85.0222583 -39.96686035 84.8570166 -39.24145508 84.68676758 C-35.61311232 83.78740582 -32.14973197 82.71758088 -28.6640625 81.36328125 C-25 80 -25 80 -22 80 C-22 78.02 -22 76.04 -22 74 C-20.125 73.375 -20.125 73.375 -18 73 C-17.01 73.99 -17.01 73.99 -16 75 C-15.01 74.67 -14.02 74.34 -13 74 C-11.83046584 71.57616923 -11.83046584 71.57616923 -11 69 C-10.67 68.34 -10.34 67.68 -10 67 C-14.455 67.495 -14.455 67.495 -19 68 C-17.8255814 63.30232558 -17.8255814 63.30232558 -15 61 C-14.37222656 60.76152344 -13.74445313 60.52304688 -13.09765625 60.27734375 C-10.12318086 58.46607103 -9.26538734 56.29098266 -7.75 53.1875 C-7.22921875 52.14980469 -6.7084375 51.11210938 -6.171875 50.04296875 C-5.01244656 47.03231956 -4.54604615 45.17767697 -5 42 C-6.6454378 40.31237149 -8.31288577 38.6459651 -10 37 C-10.8125 34.1875 -10.8125 34.1875 -11 32 C-6.25 32.75 -6.25 32.75 -4 35 C-4.58490879 28.85845775 -5.54066252 22.99320151 -7 17 C-6.34 17 -5.68 17 -5 17 C-5 18.32 -5 19.64 -5 21 C-4.34 21 -3.68 21 -3 21 C-2.67 19.35 -2.34 17.7 -2 16 C-1.01 16 -0.02 16 1 16 C0.67 10.72 0.34 5.44 0 0 Z M1 55 C0.67 56.65 0.34 58.3 0 60 C0.66 59.34 1.32 58.68 2 58 C1.67 57.01 1.34 56.02 1 55 Z M-1 60 C0 62 0 62 0 62 Z " fill="#5A5A5C" transform="translate(148,62)"/>
<path d="M0 0 C0.66 0 1.32 0 2 0 C2.495 3.465 2.495 3.465 3 7 C3.99 6.67 4.98 6.34 6 6 C6 7.32 6 8.64 6 10 C5.34 10 4.68 10 4 10 C3.91492188 11.03125 3.82984375 12.0625 3.7421875 13.125 C2.32180518 20.54089085 -2.87151673 26.46500841 -8.65625 31.15234375 C-11.37363331 32.93660262 -14.11764104 34.4984359 -17 36 C-17.84046875 36.47050781 -18.6809375 36.94101563 -19.546875 37.42578125 C-31.99081759 43.81744267 -47.31344318 45.61740777 -61 43 C-65.05237863 41.47012473 -68.44169807 39.45042571 -72 37 C-73.41539063 36.08541016 -73.41539063 36.08541016 -74.859375 35.15234375 C-81.82781307 30.5165608 -81.82781307 30.5165608 -83 27 C-83.66 27 -84.32 27 -85 27 C-86.625 25 -86.625 25 -88 23 C-86.68 23 -85.36 23 -84 23 C-84 23.66 -84 24.32 -84 25 C-82.35 25 -80.7 25 -79 25 C-78.67 26.65 -78.34 28.3 -78 30 C-77.01 30.33 -76.02 30.66 -75 31 C-75 30.34 -75 29.68 -75 29 C-75.66 28.67 -76.32 28.34 -77 28 C-77 27.01 -77 26.02 -77 25 C-75.68 25 -74.36 25 -73 25 C-73 25.66 -73 26.32 -73 27 C-72.01 27.33 -71.02 27.66 -70 28 C-70 28.66 -70 29.32 -70 30 C-70.99 30.33 -71.98 30.66 -73 31 C-72.28436734 33.0162233 -72.28436734 33.0162233 -71 35 C-68.94999129 35.80528889 -68.94999129 35.80528889 -67 36 C-67 36.66 -67 37.32 -67 38 C-65.35 38 -63.7 38 -62 38 C-62.33 38.99 -62.66 39.98 -63 41 C-57.72 41.33 -52.44 41.66 -47 42 C-46.67 40.35 -46.34 38.7 -46 37 C-48.31 36.67 -50.62 36.34 -53 36 C-49.36576791 33.67409146 -46.22911669 33.83734167 -42 34 C-42.66 34.99 -43.32 35.98 -44 37 C-41.36 37 -38.72 37 -36 37 C-36 36.34 -36 35.68 -36 35 C-37.65 34.67 -39.3 34.34 -41 34 C-41 33.67 -41 33.34 -41 33 C-38.69 33 -36.38 33 -34 33 C-34 32.34 -34 31.68 -34 31 C-33.34 31 -32.68 31 -32 31 C-32 30.34 -32 29.68 -32 29 C-31.34773438 28.89042969 -30.69546875 28.78085938 -30.0234375 28.66796875 C-24.86570405 27.73227374 -20.59964588 26.62836908 -16 24 C-15.236875 23.649375 -14.47375 23.29875 -13.6875 22.9375 C-11.81810662 22.10678318 -11.81810662 22.10678318 -11 20 C-10.34 20 -9.68 20 -9 20 C-9 19.34 -9 18.68 -9 18 C-8.01 17.505 -8.01 17.505 -7 17 C-6.505 15.515 -6.505 15.515 -6 14 C-5.34 14 -4.68 14 -4 14 C-4 13.01 -4 12.02 -4 11 C-3.01 11 -2.02 11 -1 11 C-0.67 7.37 -0.34 3.74 0 0 Z " fill="#404042" transform="translate(144,119)"/>
<path d="M0 0 C2.31846894 0.00634128 4.63186211 -0.0408034 6.94970703 -0.09130859 C16.44555682 -0.17019244 22.79576558 1.13377502 30.82080078 6.63134766 C32.03782673 7.27967129 33.26519914 7.90954451 34.50830078 8.50634766 C35.27142578 8.87759766 36.03455078 9.24884766 36.82080078 9.63134766 C35.50080078 10.29134766 34.18080078 10.95134766 32.82080078 11.63134766 C32.82080078 10.97134766 32.82080078 10.31134766 32.82080078 9.63134766 C31.85142578 9.50759766 30.88205078 9.38384766 29.88330078 9.25634766 C28.87267578 9.05009766 27.86205078 8.84384766 26.82080078 8.63134766 C26.32580078 7.64134766 26.32580078 7.64134766 25.82080078 6.63134766 C25.16080078 7.29134766 24.50080078 7.95134766 23.82080078 8.63134766 C23.82080078 9.62134766 23.82080078 10.61134766 23.82080078 11.63134766 C24.54267578 11.69322266 25.26455078 11.75509766 26.00830078 11.81884766 C29.66737703 12.87591413 31.3129168 14.83684836 33.82080078 17.63134766 C33.16080078 17.63134766 32.50080078 17.63134766 31.82080078 17.63134766 C31.82080078 18.95134766 31.82080078 20.27134766 31.82080078 21.63134766 C32.41248047 21.78990234 33.00416016 21.94845703 33.61376953 22.11181641 C38.88240731 23.6674827 42.3307144 25.15967448 45.82080078 29.63134766 C46.63330078 31.94384766 46.63330078 31.94384766 46.82080078 33.63134766 C46.16080078 33.63134766 45.50080078 33.63134766 44.82080078 33.63134766 C44.32580078 31.65134766 44.32580078 31.65134766 43.82080078 29.63134766 C43.16080078 29.63134766 42.50080078 29.63134766 41.82080078 29.63134766 C41.32580078 28.64134766 41.32580078 28.64134766 40.82080078 27.63134766 C39.17080078 27.63134766 37.52080078 27.63134766 35.82080078 27.63134766 C35.82080078 28.29134766 35.82080078 28.95134766 35.82080078 29.63134766 C33.84080078 29.96134766 31.86080078 30.29134766 29.82080078 30.63134766 C29.67642578 31.22947266 29.53205078 31.82759766 29.38330078 32.44384766 C28.93355688 34.1928517 28.39187737 35.91811788 27.82080078 37.63134766 C24.60795741 39.51714703 22.57446495 40.63134766 18.82080078 40.63134766 C20.53661008 38.63908572 22.2667673 36.66341248 24.00830078 34.69384766 C24.49105469 34.12988281 24.97380859 33.56591797 25.47119141 32.98486328 C27.76053454 30.4189552 29.3573619 28.77360379 32.68408203 27.75244141 C33.38919922 27.71248047 34.09431641 27.67251953 34.82080078 27.63134766 C34.26003277 25.14130261 34.26003277 25.14130261 32.82080078 22.63134766 C30.83730852 21.91706278 28.83383074 21.25757033 26.82080078 20.63134766 C24.86713975 19.68483712 22.92950994 18.70460428 21.00830078 17.69384766 C13.37420613 13.82955965 7.43894874 11.46561404 -1.17919922 11.63134766 C-4.11669922 10.63134766 -4.11669922 10.63134766 -6.17919922 9.63134766 C-0.55240292 5.88015012 6.42071825 7.53865064 12.82080078 8.63134766 C13.81080078 8.30134766 14.80080078 7.97134766 15.82080078 7.63134766 C15.16080078 5.98134766 14.50080078 4.33134766 13.82080078 2.63134766 C10.73713659 2.77065904 7.65396661 2.91894046 4.57080078 3.06884766 C3.26175781 3.12782227 3.26175781 3.12782227 1.92626953 3.18798828 C1.08193359 3.22988281 0.23759766 3.27177734 -0.63232422 3.31494141 C-1.40737305 3.35159912 -2.18242188 3.38825684 -2.98095703 3.42602539 C-5.19502654 3.57020089 -5.19502654 3.57020089 -7.33837891 4.21362305 C-9.17919922 4.63134766 -9.17919922 4.63134766 -11.17919922 3.63134766 C-16.14121043 3.04063204 -19.04614946 4.37625537 -23.27685547 6.67431641 C-25.53404161 7.8098618 -27.67797637 8.3186948 -30.17919922 8.63134766 C-22.17442634 -0.08928062 -11.06714382 -0.06321406 0 0 Z " fill="#414144" transform="translate(96.17919921875,35.36865234375)"/>
<path d="M0 0 C0.66 0.33 1.32 0.66 2 1 C2 1.66 2 2.32 2 3 C3.2684375 3.185625 3.2684375 3.185625 4.5625 3.375 C5.696875 3.58125 6.83125 3.7875 8 4 C9.7015625 4.2784375 9.7015625 4.2784375 11.4375 4.5625 C16.28307302 6.51773122 19.06987303 9.72504272 22 14 C22 14.66 22 15.32 22 16 C22.99 16.33 23.98 16.66 25 17 C28.99717123 22.99575684 28.1114696 30.03934302 28 37 C27.01 37 26.02 37 25 37 C24.67 38.65 24.34 40.3 24 42 C23.34 42 22.68 42 22 42 C22 40.68 22 39.36 22 38 C21.01 38 20.02 38 19 38 C18.67 37.01 18.34 36.02 18 35 C16.02 35.495 16.02 35.495 14 36 C14.33 34.68 14.66 33.36 15 32 C14.01 31.67 13.02 31.34 12 31 C12 30.34 12 29.68 12 29 C13.32 28.67 14.64 28.34 16 28 C16.33 26.68 16.66 25.36 17 24 C17.66 24 18.32 24 19 24 C19.33 25.32 19.66 26.64 20 28 C20.66 28 21.32 28 22 28 C19.94476319 23.17368259 19.94476319 23.17368259 16.05859375 19.9375 C14.68698501 19.45251128 13.30109438 19.00549532 11.90234375 18.60546875 C10 18 10 18 7 16 C7.33 14.35 7.66 12.7 8 11 C3.97652412 7.53028623 3.97652412 7.53028623 -1 6 C-1.33 4.68 -1.66 3.36 -2 2 C-1.34 2 -0.68 2 0 2 C0 1.34 0 0.68 0 0 Z " fill="#535258" transform="translate(121,41)"/>
<path d="M0 0 C-0.61875 0.2475 -1.2375 0.495 -1.875 0.75 C-4.35068687 2.20628639 -4.95125002 3.37812506 -6 6 C-6.99 6 -7.98 6 -9 6 C-9.433125 6.8971875 -9.433125 6.8971875 -9.875 7.8125 C-11 10 -11 10 -13 13 C-12.34 13.33 -11.68 13.66 -11 14 C-12.41489734 15.27280294 -13.83199666 16.5431583 -15.25 17.8125 C-16.03890625 18.52019531 -16.8278125 19.22789063 -17.640625 19.95703125 C-23.46462715 25 -23.46462715 25 -26 25 C-26 26.32 -26 27.64 -26 29 C-22.9254644 28.2236068 -22.9254644 28.2236068 -21 26 C-20.01 26.99 -19.02 27.98 -18 29 C-21.90625 31.9296875 -25.8125 34.859375 -29.71875 37.7890625 C-30.77352539 38.58111084 -30.77352539 38.58111084 -31.84960938 39.38916016 C-33.30676078 40.48070023 -34.76648247 41.56881598 -36.22851562 42.65380859 C-36.93685547 43.18055176 -37.64519531 43.70729492 -38.375 44.25 C-39.01179688 44.72179687 -39.64859375 45.19359375 -40.3046875 45.6796875 C-42.37910869 47.29525055 -44.21761557 49.06908354 -46 51 C-46.99 49.68 -47.98 48.36 -49 47 C-47.35 47 -45.7 47 -44 47 C-44 46.34 -44 45.68 -44 45 C-43.34 45 -42.68 45 -42 45 C-42.0825 44.236875 -42.165 43.47375 -42.25 42.6875 C-42 40 -42 40 -40.125 38.1875 C-38 37 -38 37 -36 37 C-36.33 36.34 -36.66 35.68 -37 35 C-37.66 35 -38.32 35 -39 35 C-39.33 35.66 -39.66 36.32 -40 37 C-39.68046363 33.9777185 -39.14413103 33.11860783 -36.75 31.1484375 C-35.8425 30.56320313 -34.935 29.97796875 -34 29.375 C-30.39688097 27.23535997 -30.39688097 27.23535997 -28 24 C-30.2895393 23.66407492 -30.2895393 23.66407492 -33 24 C-33.78375 24.639375 -34.5675 25.27875 -35.375 25.9375 C-38.58805729 28.46204502 -40.9846174 28.68506803 -45 29 C-42.75485203 26.49029638 -40.69519489 25.27879777 -37.625 23.9375 C-31.82952958 21.15023563 -27.07013771 17.39517513 -22.078125 13.40234375 C-19 11 -19 11 -15.69921875 8.81640625 C-12.97590566 7.21113065 -12.97590566 7.21113065 -11.5625 5 C-8.65868666 1.28311893 -4.69609687 -1.56536562 0 0 Z " fill="#383839" transform="translate(124,74)"/>
<path d="M0 0 C0.66 -0.33 1.32 -0.66 2 -1 C3.44848582 -1.08342159 4.90070869 -1.10732861 6.3515625 -1.09765625 C7.62773438 -1.09282227 7.62773438 -1.09282227 8.9296875 -1.08789062 C9.81914063 -1.07951172 10.70859375 -1.07113281 11.625 -1.0625 C12.5221875 -1.05798828 13.419375 -1.05347656 14.34375 -1.04882812 C16.56256648 -1.03702591 18.78125018 -1.02056155 21 -1 C21.99 0.98 22.98 2.96 24 5 C19.30304426 6.03103906 15.72702312 5.69742964 11 5 C7.33164492 4.91076974 3.66870833 4.94029227 0 5 C0 6.65 0 8.3 0 10 C-1.32 9.67 -2.64 9.34 -4 9 C-4 8.34 -4 7.68 -4 7 C-8.29 8.65 -12.58 10.3 -17 12 C-17 13.32 -17 14.64 -17 16 C-17 16.99 -17 17.98 -17 19 C-22.53846154 19.36923077 -22.53846154 19.36923077 -24.875 17.5 C-25.24625 17.005 -25.6175 16.51 -26 16 C-25.67 15.34 -25.34 14.68 -25 14 C-24.34 14 -23.68 14 -23 14 C-23 13.34 -23 12.68 -23 12 C-22.01 12 -21.02 12 -20 12 C-20 10.68 -20 9.36 -20 8 C-20.61875 8.185625 -21.2375 8.37125 -21.875 8.5625 C-24 9 -24 9 -26 8 C-26.28875 8.61875 -26.5775 9.2375 -26.875 9.875 C-28 12 -28 12 -30 14 C-32.125 14.625 -32.125 14.625 -34 15 C-32.44204814 11.49460831 -30.75874485 8.6880078 -28 6 C-25.78634459 5.31788525 -23.60241273 4.92289756 -21.3203125 4.53125 C-17.72816905 3.70880638 -15.10154476 1.96220179 -12 0 C-8.08455103 -1.95772448 -4.07994639 -1.0199866 0 0 Z " fill="#222224" transform="translate(89,39)"/>
<path d="M0 0 C0.66 0 1.32 0 2 0 C2.33 2.31 2.66 4.62 3 7 C3.99 6.67 4.98 6.34 6 6 C6 7.32 6 8.64 6 10 C5.34 10 4.68 10 4 10 C3.92007813 11.02867187 3.84015625 12.05734375 3.7578125 13.1171875 C2.28100591 20.68391816 -3.66373116 27.53340248 -9.6875 32.25 C-13.20379111 34.10766323 -15.09202954 34.5452982 -19 34 C-19.66 33.67 -20.32 33.34 -21 33 C-21 32.34 -21 31.68 -21 31 C-22.45833358 29.37485532 -22.45833358 29.37485532 -24 28 C-16 24 -16 24 -13.796875 22.9921875 C-11.82674585 22.12583982 -11.82674585 22.12583982 -11 20 C-10.34 20 -9.68 20 -9 20 C-9 19.34 -9 18.68 -9 18 C-8.34 17.67 -7.68 17.34 -7 17 C-6.67 16.01 -6.34 15.02 -6 14 C-5.34 14 -4.68 14 -4 14 C-4 13.01 -4 12.02 -4 11 C-3.01 11 -2.02 11 -1 11 C-0.67 7.37 -0.34 3.74 0 0 Z " fill="#222224" transform="translate(144,119)"/>
<path d="M0 0 C0.33 0 0.66 0 1 0 C1 2.31 1 4.62 1 7 C0.34 7 -0.32 7 -1 7 C-1.33 8.32 -1.66 9.64 -2 11 C-2.66 11 -3.32 11 -4 11 C-4 11.66 -4 12.32 -4 13 C-4.66 13 -5.32 13 -6 13 C-6.33 13.99 -6.66 14.98 -7 16 C-13.40855443 20.21426539 -19.31577607 22.88664122 -27 22 C-27 22.66 -27 23.32 -27 24 C-27.66 24 -28.32 24 -29 24 C-29 24.66 -29 25.32 -29 26 C-31.97 26.495 -31.97 26.495 -35 27 C-33.68 27.33 -32.36 27.66 -31 28 C-31 28.66 -31 29.32 -31 30 C-33.97 30.33 -36.94 30.66 -40 31 C-39.34 30.01 -38.68 29.02 -38 28 C-41.3 28 -44.6 28 -48 28 C-48 27.34 -48 26.68 -48 26 C-48.7425 25.896875 -49.485 25.79375 -50.25 25.6875 C-53.1973519 24.95066203 -54.78383074 24.05200858 -57 22 C-57 21.34 -57 20.68 -57 20 C-58.65 19.67 -60.3 19.34 -62 19 C-62 18.01 -62 17.02 -62 16 C-64.475 15.01 -64.475 15.01 -67 14 C-66.67 12.68 -66.34 11.36 -66 10 C-63.95880212 11.61594832 -61.95927063 13.2856382 -60 15 C-60 15.66 -60 16.32 -60 17 C-59.360625 17.268125 -58.72125 17.53625 -58.0625 17.8125 C-56 19 -56 19 -55 22 C-47.70287283 24.70674348 -39.68597487 22.90393435 -32.375 21.1875 C-31.31889526 20.93963745 -31.31889526 20.93963745 -30.24145508 20.68676758 C-26.61311232 19.78740582 -23.14973197 18.71758088 -19.6640625 17.36328125 C-16 16 -16 16 -13 16 C-13 14.02 -13 12.04 -13 10 C-11.125 9.375 -11.125 9.375 -9 9 C-8.34 9.66 -7.68 10.32 -7 11 C-6.01 10.67 -5.02 10.34 -4 10 C-2.86454438 7.70465742 -2.86454438 7.70465742 -2 5 C-1.33333333 3.33333333 -0.66666667 1.66666667 0 0 Z " fill="#414045" transform="translate(139,126)"/>
<path d="M0 0 C1.54542837 3.09085673 0.59315658 5.67832315 0 9 C-0.33 9.66 -0.66 10.32 -1 11 C-0.91061582 13.88912732 -0.765952 16.74393255 -0.5625 19.625 C-0.51029297 20.42679688 -0.45808594 21.22859375 -0.40429688 22.0546875 C-0.27451629 24.03679103 -0.13790265 26.01844499 0 28 C0.66 28 1.32 28 2 28 C3.23076923 34.4 3.23076923 34.4 2.0625 37.4375 C1.711875 37.953125 1.36125 38.46875 1 39 C1.66 39 2.32 39 3 39 C3.33 39.99 3.66 40.98 4 42 C4.53625 42.66 5.0725 43.32 5.625 44 C6.07875 44.66 6.5325 45.32 7 46 C6.67 46.99 6.34 47.98 6 49 C2.82227557 47.19642667 0.62113708 45.62113708 -2 43 C-1.34 47.29 -0.68 51.58 0 56 C-2.56127754 53.43872246 -2.94227461 51.28579663 -3.9375 47.8125 C-5.02614514 44.11029104 -6.09291832 40.54943964 -7.75 37.0625 C-9.09827568 33.75922458 -9.41070774 31.53208658 -9 28 C-8.34 27.34 -7.68 26.68 -7 26 C-4 29.75 -4 29.75 -4 32 C-3.34 32 -2.68 32 -2 32 C-2.144375 31.23558594 -2.28875 30.47117187 -2.4375 29.68359375 C-3.52043334 23.43416596 -4.24990962 17.27410978 -4.375 10.9375 C-4.40335938 9.70902344 -4.43171875 8.48054688 -4.4609375 7.21484375 C-3.92203961 3.4562593 -2.92582866 2.3186903 0 0 Z " fill="#4F4F51" transform="translate(44,66)"/>
<path d="M0 0 C1.11375 0.3403125 1.11375 0.3403125 2.25 0.6875 C0.98459948 4.48370155 -0.53218431 5.17428188 -3.8125 7.375 C-4.73160156 7.99761719 -5.65070313 8.62023437 -6.59765625 9.26171875 C-7.30792969 9.73222656 -8.01820312 10.20273438 -8.75 10.6875 C-7.76 10.6875 -6.77 10.6875 -5.75 10.6875 C-5.75 11.6775 -5.75 12.6675 -5.75 13.6875 C-6.554375 14.14125 -7.35875 14.595 -8.1875 15.0625 C-10.99882907 16.45402185 -10.99882907 16.45402185 -11.5625 19.375 C-11.624375 20.138125 -11.68625 20.90125 -11.75 21.6875 C-12.41 21.6875 -13.07 21.6875 -13.75 21.6875 C-13.75 22.3475 -13.75 23.0075 -13.75 23.6875 C-15.07 24.0175 -16.39 24.3475 -17.75 24.6875 C-17.42 25.6775 -17.09 26.6675 -16.75 27.6875 C-19.06 28.0175 -21.37 28.3475 -23.75 28.6875 C-24.41 27.6975 -25.07 26.7075 -25.75 25.6875 C-25.42 24.6975 -25.09 23.7075 -24.75 22.6875 C-25.41 22.0275 -26.07 21.3675 -26.75 20.6875 C-25.48299277 19.7033875 -24.2112381 18.72538503 -22.9375 17.75 C-22.22980469 17.20472656 -21.52210937 16.65945312 -20.79296875 16.09765625 C-18.75 14.6875 -18.75 14.6875 -15.75 13.6875 C-15.42 12.6975 -15.09 11.7075 -14.75 10.6875 C-15.41 10.3575 -16.07 10.0275 -16.75 9.6875 C-16.51953125 7.78515625 -16.51953125 7.78515625 -15.75 5.6875 C-13.82421875 4.74609375 -13.82421875 4.74609375 -11.4375 4.125 C-8.56664083 3.30410662 -6.88202872 2.79018901 -4.5 0.9375 C-2.75 -0.3125 -2.75 -0.3125 0 0 Z " fill="#0B0C0C" transform="translate(93.75,97.3125)"/>
<path d="M0 0 C0.33 0.99 0.66 1.98 1 3 C1.66 3 2.32 3 3 3 C3.33 3.99 3.66 4.98 4 6 C4.66 6.33 5.32 6.66 6 7 C6.39490873 19.13247362 6.39490873 19.13247362 4 25 C3.360625 25.61875 2.72125 26.2375 2.0625 26.875 C-1.00809501 30.03864334 -1.82162445 33.82212306 -3 38 C-3.33 38 -3.66 38 -4 38 C-4.04946113 33.78248718 -4.08574827 29.56512832 -4.10986328 25.34741211 C-4.119917 23.91281188 -4.13356194 22.47823211 -4.15087891 21.04370117 C-4.17515549 18.98090562 -4.18648919 16.91838115 -4.1953125 14.85546875 C-4.20578613 13.61434326 -4.21625977 12.37321777 -4.22705078 11.09448242 C-4 8 -4 8 -2 5 C-1.34 6.98 -0.68 8.96 0 11 C-0.08378906 10.28972656 -0.16757813 9.57945313 -0.25390625 8.84765625 C-0.35574219 7.92855469 -0.45757812 7.00945312 -0.5625 6.0625 C-0.66691406 5.14597656 -0.77132812 4.22945313 -0.87890625 3.28515625 C-0.91886719 2.53105469 -0.95882812 1.77695313 -1 1 C-0.67 0.67 -0.34 0.34 0 0 Z " fill="#49494D" transform="translate(150,80)"/>
<path d="M0 0 C-0.33 1.98 -0.66 3.96 -1 6 C-2.32 6.33 -3.64 6.66 -5 7 C-4.67 8.32 -4.34 9.64 -4 11 C-6.85306797 13.32472205 -9.54074837 14.7508258 -13 16 C-13 16.66 -13 17.32 -13 18 C-15.046875 19.5078125 -15.046875 19.5078125 -17.75 21.125 C-18.63171875 21.66382812 -19.5134375 22.20265625 -20.421875 22.7578125 C-23 24 -23 24 -27 24 C-24.89260766 19.63468729 -23.35263073 17.17631536 -19 15 C-15.8914221 12.55081741 -14.75429152 10.50416059 -13.625 6.8125 C-12.92578125 4.70703125 -12.92578125 4.70703125 -12 3 C-8.8125 2 -8.8125 2 -6 2 C-6 1.34 -6 0.68 -6 0 C-3.50907189 -1.24546405 -2.58919267 -0.7767578 0 0 Z " fill="#0E0F0F" transform="translate(138,63)"/>
<path d="M0 0 C3 1 3 1 5 4 C6.3952404 9.58096162 6.09146647 15.28842687 6 21 C5.01 21 4.02 21 3 21 C2.67 22.65 2.34 24.3 2 26 C1.34 26 0.68 26 0 26 C0 24.68 0 23.36 0 22 C-0.99 22 -1.98 22 -3 22 C-3.33 21.01 -3.66 20.02 -4 19 C-5.32 19.33 -6.64 19.66 -8 20 C-7.67 18.68 -7.34 17.36 -7 16 C-7.99 15.67 -8.98 15.34 -10 15 C-10 14.34 -10 13.68 -10 13 C-8.68 12.67 -7.36 12.34 -6 12 C-5.67 10.68 -5.34 9.36 -5 8 C-4.34 8 -3.68 8 -3 8 C-2.67 9.32 -2.34 10.64 -2 12 C-1.34 12 -0.68 12 0 12 C-0.99 10.02 -1.98 8.04 -3 6 C-1.68 6 -0.36 6 1 6 C0.67 4.02 0.34 2.04 0 0 Z " fill="#59585E" transform="translate(143,57)"/>
<path d="M0 0 C0.33 0 0.66 0 1 0 C1.08777806 4.16653186 1.14065272 8.33282276 1.1875 12.5 C1.21263672 13.67304687 1.23777344 14.84609375 1.26367188 16.0546875 C1.34040117 25.15989663 0.14078281 31.42199778 -5.1875 39 C-5.71730469 39.763125 -6.24710938 40.52625 -6.79296875 41.3125 C-7.19128906 41.869375 -7.58960938 42.42625 -8 43 C-9.125 39.25 -9.125 39.25 -8 37 C-7.34 37 -6.68 37 -6 37 C-6 35.68 -6 34.36 -6 33 C-7.32 33.66 -8.64 34.32 -10 35 C-10 33.35 -10 31.7 -10 30 C-9.34 30 -8.68 30 -8 30 C-7.855625 29.01 -7.71125 28.02 -7.5625 27 C-7.46710938 26.36578125 -7.37171875 25.7315625 -7.2734375 25.078125 C-7.08907087 23.67693858 -6.94932777 22.26925315 -6.8515625 20.859375 C-6.6875 18.75 -6.6875 18.75 -6 15 C-5.02740234 14.33291016 -5.02740234 14.33291016 -4.03515625 13.65234375 C-1.17680282 11.33164605 -1.21287814 9.39980557 -0.75 5.8125 C-0.60046875 4.72582031 -0.4509375 3.63914062 -0.296875 2.51953125 C-0.19890625 1.68808594 -0.1009375 0.85664062 0 0 Z " fill="#99989C" transform="translate(156,92)"/>
<path d="M0 0 C0.66 0 1.32 0 2 0 C2.66 4.29 3.32 8.58 4 13 C4.66 10.69 5.32 8.38 6 6 C6.33 6 6.66 6 7 6 C6.85851011 7.6045556 6.71164314 9.20863767 6.5625 10.8125 C6.48128906 11.70582031 6.40007812 12.59914063 6.31640625 13.51953125 C6 16 6 16 5 19 C4.34 19 3.68 19 3 19 C3 18.01 3 17.02 3 16 C2.34 16 1.68 16 1 16 C0.67 19.63 0.34 23.26 0 27 C-0.99 27 -1.98 27 -3 27 C-3.33 26.01 -3.66 25.02 -4 24 C-4.53625 24.495 -5.0725 24.99 -5.625 25.5 C-8.59358445 27.37489544 -10.55312427 27.23501425 -14 27 C-13.43416161 23.71813734 -12.58727596 22.10815078 -10 20 C-9.37222656 19.76023437 -8.74445313 19.52046875 -8.09765625 19.2734375 C-5.13502996 17.47489714 -4.2694371 15.33491775 -2.75 12.25 C-2.22921875 11.22390625 -1.7084375 10.1978125 -1.171875 9.140625 C0.05412211 5.85495274 0.22884491 3.4742818 0 0 Z " fill="#8D8D90" transform="translate(143,103)"/>
<path d="M0 0 C0.66 0 1.32 0 2 0 C1.68817931 1.41681634 1.37551263 2.83344651 1.0625 4.25 C0.88847656 5.03890625 0.71445312 5.8278125 0.53515625 6.640625 C0.21923137 8.03346168 -0.12071864 9.42182672 -0.51367188 10.79492188 C-1.09565734 13.43372343 -1.2158537 15.94007069 -1.31640625 18.640625 C-1.37924805 20.24550781 -1.37924805 20.24550781 -1.44335938 21.8828125 C-1.48267578 22.99398437 -1.52199219 24.10515625 -1.5625 25.25 C-1.60568359 26.37664062 -1.64886719 27.50328125 -1.69335938 28.6640625 C-1.79932015 31.44258954 -1.90139142 34.22120391 -2 37 C-5.95117188 33.26757812 -5.95117188 33.26757812 -6.390625 30.859375 C-6.26041667 28.90625 -6.13020833 26.953125 -6 25 C-7.32 25 -8.64 25 -10 25 C-10 19.72 -10 14.44 -10 9 C-9.34 8.67 -8.68 8.34 -8 8 C-8 8.66 -8 9.32 -8 10 C-7.34 10 -6.68 10 -6 10 C-5.67 10.99 -5.34 11.98 -5 13 C-4.67 12.34 -4.34 11.68 -4 11 C-3.34 11 -2.68 11 -2 11 C-2.061875 9.39125 -2.061875 9.39125 -2.125 7.75 C-2.0114175 4.34252515 -1.78726636 2.79260369 0 0 Z " fill="#2D2D30" transform="translate(55,64)"/>
<path d="M0 0 C5.28771715 0.53956297 9.23538487 1.80827704 14 4 C14.33 4 14.66 4 15 4 C14.67 3.01 14.34 2.02 14 1 C15.46109063 1.25554054 16.91888096 1.53000372 18.375 1.8125 C19.18710938 1.96332031 19.99921875 2.11414062 20.8359375 2.26953125 C23 3 23 3 25 6 C24.34 6 23.68 6 23 6 C23 7.32 23 8.64 23 10 C23.59167969 10.15855469 24.18335938 10.31710938 24.79296875 10.48046875 C30.06160652 12.03613504 33.50991362 13.52832682 37 18 C37.8125 20.3125 37.8125 20.3125 38 22 C37.34 22 36.68 22 36 22 C35.505 20.02 35.505 20.02 35 18 C34.34 18 33.68 18 33 18 C32.505 17.01 32.505 17.01 32 16 C30.35 16 28.7 16 27 16 C27 16.66 27 17.32 27 18 C25.02 18.33 23.04 18.66 21 19 C20.7834375 19.8971875 20.7834375 19.8971875 20.5625 20.8125 C20.1127561 22.56150404 19.57107659 24.28677023 19 26 C15.78715662 27.88579937 13.75366417 29 10 29 C11.7158093 27.00773806 13.44596652 25.03206483 15.1875 23.0625 C15.67025391 22.49853516 16.15300781 21.93457031 16.65039062 21.35351562 C18.93973376 18.78760755 20.53656112 17.14225614 23.86328125 16.12109375 C24.56839844 16.08113281 25.27351563 16.04117188 26 16 C25.43923199 13.50995496 25.43923199 13.50995496 24 11 C22.01658094 10.28551187 20.01298469 9.62636816 18 9 C14.96262526 7.54459127 11.98698489 5.99322129 9 4.4375 C6.04814974 3.02307175 3.12374489 1.96687342 0 1 C0 0.67 0 0.34 0 0 Z " fill="#9F9FA2" transform="translate(105,47)"/>
<path d="M0 0 C1.65 0 3.3 0 5 0 C5.33 2.97 5.66 5.94 6 9 C5.34 9 4.68 9 4 9 C4 9.66 4 10.32 4 11 C3.34 11 2.68 11 2 11 C1.67 10.67 1.34 10.34 1 10 C1 10.99 1 11.98 1 13 C0.34 13 -0.32 13 -1 13 C-0.67 14.32 -0.34 15.64 0 17 C-0.99 17.33 -1.98 17.66 -3 18 C-3 17.34 -3 16.68 -3 16 C-3.66 15.67 -4.32 15.34 -5 15 C-5.33 15.99 -5.66 16.98 -6 18 C-6.99 18 -7.98 18 -9 18 C-9.48091058 20.20795422 -9.95965179 22.416381 -10.4375 24.625 C-10.70433594 25.85476562 -10.97117188 27.08453125 -11.24609375 28.3515625 C-11.90911451 31.56017072 -12.48729384 34.76447568 -13 38 C-13.33 38 -13.66 38 -14 38 C-15.69768407 21.29753245 -15.69768407 21.29753245 -11.65625 15.828125 C-9.70065955 14.21218973 -7.69733867 12.65210587 -5.6484375 11.15625 C-1.6678019 7.91537854 -1.03113516 4.91772155 0 0 Z " fill="#59595C" transform="translate(49,48)"/>
<path d="M0 0 C0.85078125 0.00322266 1.7015625 0.00644531 2.578125 0.00976562 C3.46757813 0.01814453 4.35703125 0.02652344 5.2734375 0.03515625 C6.170625 0.03966797 7.0678125 0.04417969 7.9921875 0.04882812 C10.21100398 0.06063034 12.42968768 0.0770947 14.6484375 0.09765625 C15.6384375 2.07765625 16.6284375 4.05765625 17.6484375 6.09765625 C14.37246408 6.81677237 11.8281346 7.12434394 8.4921875 6.62890625 C4.18429108 6.03350593 0.0496666 5.98682422 -4.2890625 6.03515625 C-5.06830078 6.03966797 -5.84753906 6.04417969 -6.65039062 6.04882812 C-8.55081518 6.06048717 -10.45119956 6.07841748 -12.3515625 6.09765625 C-12.3515625 4.44765625 -12.3515625 2.79765625 -12.3515625 1.09765625 C-11.4028125 1.11828125 -10.4540625 1.13890625 -9.4765625 1.16015625 C-6.04981835 1.09162137 -3.49189526 -0.0232793 0 0 Z " fill="#141516" transform="translate(95.3515625,37.90234375)"/>
<path d="M0 0 C1.32 0 2.64 0 4 0 C4 0.66 4 1.32 4 2 C5.65 2 7.3 2 9 2 C9.33 3.65 9.66 5.3 10 7 C10.99 7.33 11.98 7.66 13 8 C13 7.34 13 6.68 13 6 C12.34 5.67 11.68 5.34 11 5 C11 4.01 11 3.02 11 2 C12.32 2 13.64 2 15 2 C15 2.66 15 3.32 15 4 C15.99 4.33 16.98 4.66 18 5 C18 5.66 18 6.32 18 7 C17.01 7.33 16.02 7.66 15 8 C15.71563266 10.0162233 15.71563266 10.0162233 17 12 C19.05000871 12.80528889 19.05000871 12.80528889 21 13 C21 13.66 21 14.32 21 15 C22.65 15 24.3 15 26 15 C25.67 15.99 25.34 16.98 25 18 C35.23 18 45.46 18 56 18 C56 18.33 56 18.66 56 19 C43.21222939 21.64952096 30.03267759 22.9760397 18.546875 15.75390625 C17.70640625 15.17511719 16.8659375 14.59632813 16 14 C15.05640625 13.39027344 14.1128125 12.78054687 13.140625 12.15234375 C6.17218693 7.5165608 6.17218693 7.5165608 5 4 C4.34 4 3.68 4 3 4 C1.375 2 1.375 2 0 0 Z " fill="#878788" transform="translate(56,142)"/>
<path d="M0 0 C0.33 0 0.66 0 1 0 C1.66328112 5.55115273 -1.04333946 8.36459955 -4.28881836 12.60058594 C-7.46376457 16.61590404 -10.62760259 19.3951675 -15 22 C-15.66 21.67 -16.32 21.34 -17 21 C-16.67 20.34 -16.34 19.68 -16 19 C-17.65 18.67 -19.3 18.34 -21 18 C-17.48627451 14.23529412 -17.48627451 14.23529412 -15.0625 13.0625 C-12.73649599 11.99682525 -12.73649599 11.99682525 -10.4375 9.4375 C-8 7 -8 7 -5 6 C-5.33 5.01 -5.66 4.02 -6 3 C-3.525 3.495 -3.525 3.495 -1 4 C-0.67 2.68 -0.34 1.36 0 0 Z " fill="#3C3D3D" transform="translate(146,131)"/>
<path d="M0 0 C4 4.75 4 4.75 4 7 C4.66 7 5.32 7 6 7 C6.103125 7.639375 6.20625 8.27875 6.3125 8.9375 C6.539375 9.618125 6.76625 10.29875 7 11 C7.99 11.33 8.98 11.66 10 12 C10 12.66 10 13.32 10 14 C10.66 14 11.32 14 12 14 C12.66 15.32 13.32 16.64 14 18 C10.6885981 17.42906864 9.24945577 16.45395174 7 14 C6.34 13.67 5.68 13.34 5 13 C5 16.3 5 19.6 5 23 C-1.57746479 16.60524256 -4.7304296 11.85476329 -7 3 C-6.01 3.33 -5.02 3.66 -4 4 C-3.71125 4.825 -3.4225 5.65 -3.125 6.5 C-2.75375 7.325 -2.3825 8.15 -2 9 C0.54775306 9.89386164 0.54775306 9.89386164 3 10 C2.2575 8.3603125 2.2575 8.3603125 1.5 6.6875 C0 3 0 3 0 0 Z " fill="#515152" transform="translate(51,119)"/>
<path d="M0 0 C-0.66 0 -1.32 0 -2 0 C-1.896875 0.886875 -1.79375 1.77375 -1.6875 2.6875 C-2.11068362 7.17324639 -3.568177 8.1401475 -7 11 C-9.02806225 12.54614647 -11.0706686 14.0684759 -13.12890625 15.57421875 C-15.28075198 17.21393418 -17.1658769 19.01303331 -19 21 C-19.99 19.68 -20.98 18.36 -22 17 C-20.35 17 -18.7 17 -17 17 C-17 16.34 -17 15.68 -17 15 C-16.34 15 -15.68 15 -15 15 C-15.0825 14.236875 -15.165 13.47375 -15.25 12.6875 C-15 10 -15 10 -13.125 8.1875 C-11 7 -11 7 -9 7 C-9.33 6.34 -9.66 5.68 -10 5 C-10.66 5 -11.32 5 -12 5 C-12.33 5.66 -12.66 6.32 -13 7 C-12.63636795 4.42201159 -12.40466367 3.30835927 -10.29296875 1.69921875 C-9.59816406 1.36535156 -8.90335938 1.03148438 -8.1875 0.6875 C-7.50042969 0.34074219 -6.81335938 -0.00601563 -6.10546875 -0.36328125 C-3.65893095 -1.10314333 -2.38213881 -0.82973374 0 0 Z " fill="#2F3031" transform="translate(97,104)"/>
<path d="M0 0 C0.99 0.33 1.98 0.66 3 1 C3 1.66 3 2.32 3 3 C3.99 3 4.98 3 6 3 C6.2475 4.03125 6.495 5.0625 6.75 6.125 C7.81907476 9.93982792 9.78876272 12.71880919 12 16 C12.75 18.875 12.75 18.875 13 21 C8.50970874 21.36407767 8.50970874 21.36407767 6.25 19.75 C4.87844548 17.82982367 4.53050192 16.27357966 4 14 C3.34 13.67 2.68 13.34 2 13 C0.0977156 8.56133639 -0.19188324 4.79708091 0 0 Z " fill="#0C0D0D" transform="translate(42,109)"/>
<path d="M0 0 C1.17219543 0.78345715 2.33763668 1.57702836 3.5 2.375 C4.47453125 3.03628906 4.47453125 3.03628906 5.46875 3.7109375 C5.9740625 4.13632813 6.479375 4.56171875 7 5 C7 5.66 7 6.32 7 7 C7.639375 7.268125 8.27875 7.53625 8.9375 7.8125 C11 9 11 9 12 12 C14.01508358 12.73323796 14.01508358 12.73323796 16 13 C16 13.66 16 14.32 16 15 C17.15628906 14.98259766 17.15628906 14.98259766 18.3359375 14.96484375 C19.33882812 14.95582031 20.34171875 14.94679687 21.375 14.9375 C22.37273437 14.92589844 23.37046875 14.91429687 24.3984375 14.90234375 C27 15 27 15 29 16 C29 15.34 29 14.68 29 14 C32.375 13.875 32.375 13.875 36 14 C36.66 14.66 37.32 15.32 38 16 C35.03 16.495 35.03 16.495 32 17 C33.32 17.33 34.64 17.66 36 18 C36 18.66 36 19.32 36 20 C33.03 20.33 30.06 20.66 27 21 C27.66 20.01 28.32 19.02 29 18 C25.7 18 22.4 18 19 18 C19 17.34 19 16.68 19 16 C17.88625 15.8453125 17.88625 15.8453125 16.75 15.6875 C13.8026481 14.95066203 12.21616926 14.05200858 10 12 C10 11.34 10 10.68 10 10 C8.35 9.67 6.7 9.34 5 9 C5 8.01 5 7.02 5 6 C2.525 5.01 2.525 5.01 0 4 C0 2.68 0 1.36 0 0 Z " fill="#6C6B6F" transform="translate(72,136)"/>
<path d="M0 0 C0.66 0.33 1.32 0.66 2 1 C0.58510266 2.27280294 -0.83199666 3.5431583 -2.25 4.8125 C-3.03890625 5.52019531 -3.8278125 6.22789063 -4.640625 6.95703125 C-10.46462715 12 -10.46462715 12 -13 12 C-13 13.32 -13 14.64 -13 16 C-9.9254644 15.2236068 -9.9254644 15.2236068 -8 13 C-7.01 13.99 -6.02 14.98 -5 16 C-8.3 18.64 -11.6 21.28 -15 24 C-15.66 23.67 -16.32 23.34 -17 23 C-16.67 21.02 -16.34 19.04 -16 17 C-17.65 17.33 -19.3 17.66 -21 18 C-17.66158302 14.57086517 -14.2225225 11.44375061 -10.5 8.4375 C-9.5821875 7.69371094 -8.664375 6.94992188 -7.71875 6.18359375 C-5.14838927 4.11918046 -2.57569365 2.05775525 0 0 Z " fill="#676767" transform="translate(111,87)"/>
<path d="M0 0 C1.54542837 3.09085673 0.59315658 5.67832315 0 9 C-0.33 9.66 -0.66 10.32 -1 11 C-0.91061582 13.88912732 -0.765952 16.74393255 -0.5625 19.625 C-0.51029297 20.42679688 -0.45808594 21.22859375 -0.40429688 22.0546875 C-0.27451629 24.03679103 -0.13790265 26.01844499 0 28 C0.66 28 1.32 28 2 28 C2.33 29.65 2.66 31.3 3 33 C2.34 33 1.68 33 1 33 C0.34 33.66 -0.32 34.32 -1 35 C-5.61247965 14.10656538 -5.61247965 14.10656538 -4 4 C-1.97265625 1.578125 -1.97265625 1.578125 0 0 Z " fill="#272629" transform="translate(44,66)"/>
<path d="M0 0 C-0.33 1.98 -0.66 3.96 -1 6 C-2.32 6.33 -3.64 6.66 -5 7 C-4.67 8.32 -4.34 9.64 -4 11 C-6.35968744 13.09749995 -7.54616994 13.96905704 -10.75 14.1875 C-11.4925 14.125625 -12.235 14.06375 -13 14 C-12.175 13.21625 -11.35 12.4325 -10.5 11.625 C-7.77011494 9.36278736 -7.77011494 9.36278736 -8 7 C-9.65 7.33 -11.3 7.66 -13 8 C-12.67 6.35 -12.34 4.7 -12 3 C-10.02 2.67 -8.04 2.34 -6 2 C-6 1.34 -6 0.68 -6 0 C-3.50907189 -1.24546405 -2.58919267 -0.7767578 0 0 Z " fill="#151617" transform="translate(138,63)"/>
<path d="M0 0 C0.99 0.33 1.98 0.66 3 1 C2.67 1.66 2.34 2.32 2 3 C2.66 3 3.32 3 4 3 C3.67 5.97 3.34 8.94 3 12 C2.01 12 1.02 12 0 12 C-0.33 11.01 -0.66 10.02 -1 9 C-1.53625 9.495 -2.0725 9.99 -2.625 10.5 C-5.59358445 12.37489544 -7.55312427 12.23501425 -11 12 C-10.42655063 9.13275314 -10.1385485 8.1385485 -8 6 C-7.01 5.71125 -6.02 5.4225 -5 5.125 C-1.89511254 4.30021175 -1.89511254 4.30021175 -0.625 1.875 C-0.41875 1.25625 -0.2125 0.6375 0 0 Z " fill="#404044" transform="translate(140,118)"/>
<path d="M0 0 C1.4783226 2.95664519 1.06032783 5.74229737 1 9 C0.01 9 -0.98 9 -2 9 C-2.33 10.65 -2.66 12.3 -3 14 C-3.66 14 -4.32 14 -5 14 C-5 12.68 -5 11.36 -5 10 C-5.66 10 -6.32 10 -7 10 C-7.33 7.03 -7.66 4.06 -8 1 C-4 0 -4 0 0 0 Z " fill="#1B1B1C" transform="translate(148,69)"/>
<path d="M0 0 C1.85772162 0.08984301 3.71247985 0.24611861 5.5625 0.4375 C7.08037109 0.59025391 7.08037109 0.59025391 8.62890625 0.74609375 C9.80259766 0.87177734 9.80259766 0.87177734 11 1 C8.61542052 2.58971965 6.3695876 3.86741593 3.8125 5.125 C3.09707031 5.47820313 2.38164063 5.83140625 1.64453125 6.1953125 C1.10183594 6.46085937 0.55914062 6.72640625 0 7 C0.33 8.98 0.66 10.96 1 13 C-4.53846154 13.36923077 -4.53846154 13.36923077 -6.875 11.5 C-7.24625 11.005 -7.6175 10.51 -8 10 C-7.67 9.34 -7.34 8.68 -7 8 C-6.34 8 -5.68 8 -5 8 C-5 7.34 -5 6.68 -5 6 C-4.01 6 -3.02 6 -2 6 C-1.855625 5.195625 -1.71125 4.39125 -1.5625 3.5625 C-1 1 -1 1 0 0 Z " fill="#464748" transform="translate(71,45)"/>
<path d="M0 0 C3.08620673 4.6293101 2.71389033 9.54347984 3 15 C3.05414063 15.81597656 3.10828125 16.63195312 3.1640625 17.47265625 C3.38387896 23.13792591 2.08367334 27.75360819 0 33 C-0.33 33 -0.66 33 -1 33 C-1.02473064 28.78247482 -1.04287453 24.56498814 -1.05493164 20.34741211 C-1.05995842 18.91283432 -1.06678079 17.47826164 -1.07543945 16.04370117 C-1.08757752 13.98094418 -1.09324486 11.91825496 -1.09765625 9.85546875 C-1.10289307 8.61434326 -1.10812988 7.37321777 -1.11352539 6.09448242 C-1 3 -1 3 0 0 Z " fill="#1C1D1E" transform="translate(147,85)"/>
<path d="M0 0 C-0.66 0 -1.32 0 -2 0 C-1.67 1.32 -1.34 2.64 -1 4 C-1.99 4.33 -2.98 4.66 -4 5 C-4 4.34 -4 3.68 -4 3 C-4.66 2.67 -5.32 2.34 -6 2 C-6.33 2.99 -6.66 3.98 -7 5 C-7.99 5 -8.98 5 -10 5 C-10.48091058 7.20795422 -10.95965179 9.416381 -11.4375 11.625 C-11.70433594 12.85476562 -11.97117188 14.08453125 -12.24609375 15.3515625 C-12.90911451 18.56017072 -13.48729384 21.76447568 -14 25 C-14.33 25 -14.66 25 -15 25 C-15.13530844 21.93601549 -15.2342407 18.87802874 -15.3125 15.8125 C-15.35439453 14.94818359 -15.39628906 14.08386719 -15.43945312 13.19335938 C-15.52579036 8.68655578 -15.5057008 6.66766289 -12.70703125 2.97265625 C-8.60544965 -0.01623077 -4.93294047 -1.64431349 0 0 Z " fill="#2D2D30" transform="translate(50,61)"/>
<path d="M0 0 C0.33 0.66 0.66 1.32 1 2 C0.34 1.67 -0.32 1.34 -1 1 C-0.67 0.67 -0.34 0.34 0 0 Z M-2 3 C-3.4960096 6.80802445 -5.66063151 8.69424557 -9 11 C-11.25 11.6875 -11.25 11.6875 -13 12 C-13.33 12.33 -13.66 12.66 -14 13 C-12.68 13.66 -11.36 14.32 -10 15 C-10.33 15.99 -10.66 16.98 -11 18 C-13.97 17.505 -13.97 17.505 -17 17 C-17 16.34 -17 15.68 -17 15 C-18.45833358 13.37485532 -18.45833358 13.37485532 -20 12 C-12 8 -12 8 -9.796875 6.9921875 C-7.82674585 6.12583982 -7.82674585 6.12583982 -7 4 C-4 3 -4 3 -2 3 Z " fill="#0E0F10" transform="translate(140,135)"/>
<path d="M0 0 C2.62018612 2.62018612 2.25389574 3.91539878 2.375 7.5625 C2.70358352 12.8135174 3.80044241 16.63117777 6.2578125 21.2578125 C6.50273437 21.83273438 6.74765625 22.40765625 7 23 C6.67 23.66 6.34 24.32 6 25 C5.67 23.68 5.34 22.36 5 21 C4.34 21 3.68 21 3 21 C3 22.32 3 23.64 3 25 C3 27 3 29 3 31 C0.68994131 28.68994131 0.27825897 27.16916343 -0.625 24.0625 C-0.88539063 23.18722656 -1.14578125 22.31195313 -1.4140625 21.41015625 C-2 19 -2 19 -2 16 C-1.01 16 -0.02 16 1 16 C0.67 10.72 0.34 5.44 0 0 Z " fill="#707073" transform="translate(148,62)"/>
<path d="M0 0 C1.6360457 0.02010801 3.27211542 0.03835113 4.90820312 0.0546875 C8.87690622 0.09831513 12.84443098 0.1670994 16.8125 0.25 C16.8125 0.58 16.8125 0.91 16.8125 1.25 C8.2325 1.58 -0.3475 1.91 -9.1875 2.25 C-9.5175 2.91 -9.8475 3.57 -10.1875 4.25 C-10.8165625 4.13140625 -11.445625 4.0128125 -12.09375 3.890625 C-17.92495958 3.01243079 -21.33437663 3.26286861 -26.42578125 6.2578125 C-28.61471371 7.49060373 -30.70707843 7.9399473 -33.1875 8.25 C-24.35423126 -1.35055738 -12.01557623 -0.25868814 0 0 Z " fill="#A5A5A6" transform="translate(99.1875,35.75)"/>
<path d="M0 0 C4.95 0.99 4.95 0.99 10 2 C10 2.99 10 3.98 10 5 C12.31 5.33 14.62 5.66 17 6 C16.67 7.65 16.34 9.3 16 11 C9.375 11.25 9.375 11.25 6 9 C6.99 8.67 7.98 8.34 9 8 C8.01 7.67 7.02 7.34 6 7 C1.33333333 2.66666667 1.33333333 2.66666667 0 0 Z " fill="#1C1C1E" transform="translate(81,150)"/>
<path d="M0 0 C0.66 0.33 1.32 0.66 2 1 C2 1.66 2 2.32 2 3 C3.36125 3.2165625 3.36125 3.2165625 4.75 3.4375 C7.18593814 3.85910468 9.60165839 4.4004146 12 5 C12.66 7.64 13.32 10.28 14 13 C11.6830482 11.8415241 9.36960487 10.6780961 7.0625 9.5 C4.09544896 7.96238792 4.09544896 7.96238792 1.1875 7.0625 C-1 6 -1 6 -1.8125 3.875 C-1.874375 3.25625 -1.93625 2.6375 -2 2 C-1.34 2 -0.68 2 0 2 C0 1.34 0 0.68 0 0 Z " fill="#242326" transform="translate(121,41)"/>
<path d="M0 0 C-0.99 0.495 -0.99 0.495 -2 1 C-2 2.65 -2 4.3 -2 6 C0.64 5.67 3.28 5.34 6 5 C5.01 5.495 5.01 5.495 4 6 C4 7.65 4 9.3 4 11 C2.68 10.67 1.36 10.34 0 10 C0 9.34 0 8.68 0 8 C-1.423125 8.061875 -1.423125 8.061875 -2.875 8.125 C-6 8 -6 8 -8 6 C-7.01 5.34 -6.02 4.68 -5 4 C-9.455 4.495 -9.455 4.495 -14 5 C-9.54254752 0.54254752 -6.23891982 -0.29018232 0 0 Z " fill="#2B2B2D" transform="translate(85,38)"/>
<path d="M0 0 C0.99 0.33 1.98 0.66 3 1 C2.34 2.98 1.68 4.96 1 7 C1.66 7 2.32 7 3 7 C3.33 7.99 3.66 8.98 4 10 C4.53625 10.66 5.0725 11.32 5.625 12 C6.07875 12.66 6.5325 13.32 7 14 C6.67 14.99 6.34 15.98 6 17 C2.82227557 15.19642667 0.62113708 13.62113708 -2 11 C-1.34 15.29 -0.68 19.58 0 24 C-2.60417425 21.39582575 -3.14988074 19.5966584 -4 16 C-3.96459808 12.94532042 -3.77317636 9.96176429 -3 7 C-2.34 6.67 -1.68 6.34 -1 6 C-0.34227572 2.97065509 -0.34227572 2.97065509 0 0 Z " fill="#757676" transform="translate(44,98)"/>
<path d="M0 0 C5.28771715 0.53956297 9.23538487 1.80827704 14 4 C14.33 4 14.66 4 15 4 C14.67 3.01 14.34 2.02 14 1 C15.46109063 1.25554054 16.91888096 1.53000372 18.375 1.8125 C19.18710938 1.96332031 19.99921875 2.11414062 20.8359375 2.26953125 C23 3 23 3 25 6 C24.34 6 23.68 6 23 6 C23 6.99 23 7.98 23 9 C18.55873042 9.37485945 15.9493262 8.21598243 12.0625 6.125 C8.09948028 4.00798043 4.29933685 2.31991563 0 1 C0 0.67 0 0.34 0 0 Z " fill="#A3A2A6" transform="translate(105,47)"/>
<path d="M0 0 C2.97 0.495 2.97 0.495 6 1 C6 1.66 6 2.32 6 3 C7.65 3 9.3 3 11 3 C10.67 3.99 10.34 4.98 10 6 C20.23 6 30.46 6 41 6 C41 6.33 41 6.66 41 7 C27.6917466 9.75736072 14.93070323 10.74485278 2.94140625 3.47265625 C1 2 1 2 0 0 Z " fill="#919192" transform="translate(71,154)"/>
<path d="M0 0 C0.99 0.33 1.98 0.66 3 1 C2.67 1.66 2.34 2.32 2 3 C2.66 3.33 3.32 3.66 4 4 C3.21625 4.12375 2.4325 4.2475 1.625 4.375 C-1.14057822 4.79117993 -1.14057822 4.79117993 -3 7 C-3.24212873 8.98128508 -3.24212873 8.98128508 -3.125 11.125 C-3.08375 12.40375 -3.0425 13.6825 -3 15 C-3.99 14.67 -4.98 14.34 -6 14 C-6.33 18.95 -6.66 23.9 -7 29 C-7.33 29 -7.66 29 -8 29 C-8.57835795 10.29975953 -8.57835795 10.29975953 -4 3 C-3.01 2.67 -2.02 2.34 -1 2 C-0.67 1.34 -0.34 0.68 0 0 Z " fill="#29292A" transform="translate(44,63)"/>
<path d="M0 0 C2.31 0.33 4.62 0.66 7 1 C7 2.32 7 3.64 7 5 C7.66 5 8.32 5 9 5 C9 4.34 9 3.68 9 3 C9.99 3.33 10.98 3.66 12 4 C12 4.66 12 5.32 12 6 C12.99 6 13.98 6 15 6 C14.67 7.32 14.34 8.64 14 10 C12.68 10 11.36 10 10 10 C10 9.34 10 8.68 10 8 C8.68 7.67 7.36 7.34 6 7 C6 6.34 6 5.68 6 5 C4.35 4.67 2.7 4.34 1 4 C0.67 2.68 0.34 1.36 0 0 Z " fill="#202022" transform="translate(71,150)"/>
<path d="M0 0 C0.99 0.33 1.98 0.66 3 1 C3 1.66 3 2.32 3 3 C2.01 3 1.02 3 0 3 C-1.04607874 5.80528017 -1.04607874 5.80528017 -1.25 8.0625 C-2 10 -2 10 -4.5625 11.25 C-5.366875 11.4975 -6.17125 11.745 -7 12 C-6.67 11.01 -6.34 10.02 -6 9 C-7.65 8.67 -9.3 8.34 -11 8 C-8.48959337 5.31027861 -6.34678974 3.51145343 -3 2 C-2.01 1.34 -1.02 0.68 0 0 Z " fill="#222325" transform="translate(136,141)"/>
<path d="M0 0 C0.99 0.33 1.98 0.66 3 1 C3 1.66 3 2.32 3 3 C1.20703125 4.33203125 1.20703125 4.33203125 -1.1875 5.8125 C-4.97039028 8.24094849 -7.97882187 10.6864498 -11 14 C-11.99 12.68 -12.98 11.36 -14 10 C-12.35 10 -10.7 10 -9 10 C-9 9.34 -9 8.68 -9 8 C-8.34 8 -7.68 8 -7 8 C-7 6.35 -7 4.7 -7 3 C-2.25 1.875 -2.25 1.875 0 3 C0 2.01 0 1.02 0 0 Z " fill="#4B4B4C" transform="translate(89,111)"/>
<path d="M0 0 C0 0.66 0 1.32 0 2 C-0.99 2 -1.98 2 -3 2 C-3 2.66 -3 3.32 -3 4 C-6.81756824 5.37432457 -10.07255329 4.67975039 -14 4 C-14 4.66 -14 5.32 -14 6 C-18.29 5.67 -22.58 5.34 -27 5 C-27 4.67 -27 4.34 -27 4 C-26.10539062 3.87882813 -25.21078125 3.75765625 -24.2890625 3.6328125 C-17.80543508 2.73422874 -11.38438853 1.76465632 -4.98828125 0.3671875 C-3 0 -3 0 0 0 Z " fill="#98989C" transform="translate(115,146)"/>
<path d="M0 0 C0.66 0.99 1.32 1.98 2 3 C1 4 1 4 -1.765625 4.1328125 C-3.49039063 4.12894531 -3.49039063 4.12894531 -5.25 4.125 C-6.95929688 4.12886719 -6.95929688 4.12886719 -8.703125 4.1328125 C-11.60044376 4.01609587 -14.18608964 3.66645245 -17 3 C-17 2.67 -17 2.34 -17 2 C-11.60898018 -0.33125181 -5.79754745 -0.88099986 0 0 Z " fill="#0A0B0B" transform="translate(110,39)"/>
<path d="M0 0 C-0.99 1.485 -0.99 1.485 -2 3 C-1.01 3.33 -0.02 3.66 1 4 C1.6875 6.0625 1.6875 6.0625 2 8 C-0.31 8 -2.62 8 -5 8 C-4.67 6.35 -4.34 4.7 -4 3 C-6.31 2.67 -8.62 2.34 -11 2 C-7.36576791 -0.32590854 -4.22911669 -0.16265833 0 0 Z " fill="#2D2C30" transform="translate(102,153)"/>
<path d="M0 0 C1.77641602 5.55130005 1.53883587 10.76365102 -1 16 C-1.99 16 -2.98 16 -4 16 C-3.67 11.05 -3.34 6.1 -3 1 C-2.01 0.67 -1.02 0.34 0 0 Z " fill="#59575E" transform="translate(154,109)"/>
<path d="M0 0 C4.51533049 2.32216997 7.01055501 4.98560245 10 9 C10 9.66 10 10.32 10 11 C9.05125 10.814375 8.1025 10.62875 7.125 10.4375 C4.10131207 9.71313368 4.10131207 9.71313368 2 11 C1.34 7.37 0.68 3.74 0 0 Z " fill="#727175" transform="translate(133,46)"/>
<path d="M0 0 C0.66 0 1.32 0 2 0 C1.68817931 1.41681634 1.37551263 2.83344651 1.0625 4.25 C0.88847656 5.03890625 0.71445312 5.8278125 0.53515625 6.640625 C0.21629827 8.04639303 -0.1252806 9.44777095 -0.51367188 10.8359375 C-1.05582092 13.24839188 -1.21097656 15.51430803 -1.31640625 17.984375 C-1.35830078 18.91894531 -1.40019531 19.85351562 -1.44335938 20.81640625 C-1.48267578 21.78449219 -1.52199219 22.75257812 -1.5625 23.75 C-1.60568359 24.73355469 -1.64886719 25.71710938 -1.69335938 26.73046875 C-1.79922052 29.15351275 -1.90130171 31.5766554 -2 34 C-2.33 34 -2.66 34 -3 34 C-3.02925502 30.31251691 -3.04688418 26.62506408 -3.0625 22.9375 C-3.07087891 21.89916016 -3.07925781 20.86082031 -3.08789062 19.79101562 C-3.13413651 5.22356086 -3.13413651 5.22356086 0 0 Z " fill="#9E9EA1" transform="translate(55,64)"/>
<path d="M0 0 C1.98 0 3.96 0 6 0 C6 1.32 6 2.64 6 4 C-3.41002278 6.29612756 -3.41002278 6.29612756 -8 6 C-8.33 5.34 -8.66 4.68 -9 4 C-6.69 4 -4.38 4 -2 4 C-2 3.34 -2 2.68 -2 2 C-1.34 2 -0.68 2 0 2 C0 1.34 0 0.68 0 0 Z " fill="#202022" transform="translate(112,148)"/>
<path d="M0 0 C1.17219543 0.78345715 2.33763668 1.57702836 3.5 2.375 C4.47453125 3.03628906 4.47453125 3.03628906 5.46875 3.7109375 C5.9740625 4.13632813 6.479375 4.56171875 7 5 C7 5.66 7 6.32 7 7 C7.639375 7.268125 8.27875 7.53625 8.9375 7.8125 C11 9 11 9 12 12 C14.00016466 13.20882096 14.00016466 13.20882096 16 14 C14.35 13.67 12.7 13.34 11 13 C10.67 12.01 10.34 11.02 10 10 C8.35 9.67 6.7 9.34 5 9 C5 8.01 5 7.02 5 6 C2.525 5.01 2.525 5.01 0 4 C0 2.68 0 1.36 0 0 Z " fill="#8E8E91" transform="translate(72,136)"/>
<path d="M0 0 C0.66 0.33 1.32 0.66 2 1 C1.525625 1.5775 1.05125 2.155 0.5625 2.75 C-1.11158836 4.86210493 -1.11158836 4.86210493 -1.5 7.1875 C-1.7475 8.0846875 -1.7475 8.0846875 -2 9 C-2.99 9.33 -3.98 9.66 -5 10 C-5.33 10.66 -5.66 11.32 -6 12 C-6.99 11.67 -7.98 11.34 -9 11 C-9 9.68 -9 8.36 -9 7 C-7.03125 5.078125 -7.03125 5.078125 -4.5 3.25 C-3.6646875 2.63640625 -2.829375 2.0228125 -1.96875 1.390625 C-1.3190625 0.93171875 -0.669375 0.4728125 0 0 Z " fill="#191A1A" transform="translate(107,92)"/>
<path d="M0 0 C0.33 0.66 0.66 1.32 1 2 C2.99285937 2.37366113 4.99363529 2.70740515 7 3 C8 4 8 4 8.0625 6.5625 C8.041875 7.366875 8.02125 8.17125 8 9 C8.66 9.33 9.32 9.66 10 10 C7.03 9.505 7.03 9.505 4 9 C3.67 7.68 3.34 6.36 3 5 C2.34 5 1.68 5 1 5 C0.67 3.35 0.34 1.7 0 0 Z " fill="#1C1C1E" transform="translate(136,54)"/>
<path d="M0 0 C0.33 0 0.66 0 1 0 C1 6.93 1 13.86 1 21 C0.34 20.67 -0.32 20.34 -1 20 C-0.67 17.69 -0.34 15.38 0 13 C-0.66 13 -1.32 13 -2 13 C-2.19294408 8.17639811 -1.75747614 4.50353262 0 0 Z " fill="#4C4B52" transform="translate(51,75)"/>
<path d="M0 0 C3 1 3 1 5 4 C5.4140625 6.48046875 5.4140625 6.48046875 5.625 9.1875 C5.69976562 10.08855469 5.77453125 10.98960938 5.8515625 11.91796875 C5.90054688 12.60503906 5.94953125 13.29210937 6 14 C5.67 13.34 5.34 12.68 5 12 C3.68 12 2.36 12 1 12 C1.20625 11.319375 1.4125 10.63875 1.625 9.9375 C2.10063829 6.21166669 1.17669149 3.53007446 0 0 Z " fill="#5C5B60" transform="translate(143,57)"/>
<path d="M0 0 C0.99 0.33 1.98 0.66 3 1 C3.433125 2.2065625 3.433125 2.2065625 3.875 3.4375 C4.77944219 6.23928441 4.77944219 6.23928441 7.625 7.3125 C8.800625 7.6528125 8.800625 7.6528125 10 8 C9.67 9.32 9.34 10.64 9 12 C9 11.34 9 10.68 9 10 C6.83333333 10.83333333 6.83333333 10.83333333 6 13 C3.12744934 10.57804552 2.29161081 8.40257297 1.3125 4.8125 C1.06113281 3.91144531 0.80976562 3.01039062 0.55078125 2.08203125 C0.36902344 1.39496094 0.18726563 0.70789063 0 0 Z " fill="#646465" transform="translate(44,122)"/>
<path d="M0 0 C0.66 0 1.32 0 2 0 C2.33 2.31 2.66 4.62 3 7 C3.99 6.67 4.98 6.34 6 6 C6 7.32 6 8.64 6 10 C5.34 10 4.68 10 4 10 C3.67 10.66 3.34 11.32 3 12 C2.67 11.34 2.34 10.68 2 10 C1.01 10.33 0.02 10.66 -1 11 C-0.67 7.37 -0.34 3.74 0 0 Z " fill="#1C1C1E" transform="translate(144,119)"/>
<path d="M0 0 C0.66 0 1.32 0 2 0 C2.33 2.64 2.66 5.28 3 8 C1.02 8.66 -0.96 9.32 -3 10 C-2.67 9.01 -2.34 8.02 -2 7 C-1.34 7 -0.68 7 0 7 C-0.33 6.34 -0.66 5.68 -1 5 C-2.65 5.33 -4.3 5.66 -6 6 C-4 4 -2 2 0 0 Z " fill="#5E5E5E" transform="translate(76,103)"/>
<path d="M0 0 C0.33 0 0.66 0 1 0 C0.85851011 1.6045556 0.71164314 3.20863767 0.5625 4.8125 C0.48128906 5.70582031 0.40007812 6.59914063 0.31640625 7.51953125 C0 10 0 10 -1 13 C-1.66 13 -2.32 13 -3 13 C-3.33 11.02 -3.66 9.04 -4 7 C-4.99 6.67 -5.98 6.34 -7 6 C-6.67 5.01 -6.34 4.02 -6 3 C-5.01 2.67 -4.02 2.34 -3 2 C-2.67 3.65 -2.34 5.3 -2 7 C-1.34 4.69 -0.68 2.38 0 0 Z " fill="#6C6C6F" transform="translate(149,109)"/>
<path d="M0 0 C0.33 1.32 0.66 2.64 1 4 C-0.32 4 -1.64 4 -3 4 C-3.33 4.66 -3.66 5.32 -4 6 C-4.33 4.68 -4.66 3.36 -5 2 C-5.66 2 -6.32 2 -7 2 C-7 2.66 -7 3.32 -7 4 C-7.66 4 -8.32 4 -9 4 C-9.33 3.01 -9.66 2.02 -10 1 C-6.1496895 -1.56687367 -4.41430237 -0.83288724 0 0 Z " fill="#45444B" transform="translate(119,43)"/>
<path d="M0 0 C0.93820902 2.53258876 1.13196296 3.65773989 0.14453125 6.21875 C-2.22494699 10.27674206 -4.37457332 13.91167357 -8 17 C-7.67 15.02 -7.34 13.04 -7 11 C-6.34 11 -5.68 11 -5 11 C-5 9.68 -5 8.36 -5 7 C-4.01 7 -3.02 7 -2 7 C-1.855625 6.21625 -1.71125 5.4325 -1.5625 4.625 C-1 2 -1 2 0 0 Z " fill="#949497" transform="translate(155,118)"/>
<path d="M0 0 C1.14879734 3.57793371 1.03931871 6.76819036 0.8125 10.5 C0.75707031 11.6240625 0.70164063 12.748125 0.64453125 13.90625 C-0.10295907 17.49420354 -1.16363645 18.75293916 -4 21 C-4.33 21 -4.66 21 -5 21 C-5 19.35 -5 17.7 -5 16 C-4.34 16 -3.68 16 -3 16 C-2.44751042 12.21150002 -1.93259572 8.42909567 -1.5 4.625 C-1 1 -1 1 0 0 Z " fill="#B2B2B4" transform="translate(151,106)"/>
<path d="M0 0 C0.66 0 1.32 0 2 0 C2 1.32 2 2.64 2 4 C1.2575 4.103125 0.515 4.20625 -0.25 4.3125 C-3.01933341 4.80193119 -3.01933341 4.80193119 -4.875 6.5 C-7.79075004 8.5581765 -10.49945198 8.66340884 -14 9 C-11.60569917 6.28857323 -9.12660605 4.92022387 -5.875 3.375 C-2.7170292 2.01068523 -2.7170292 2.01068523 0 0 Z " fill="#666768" transform="translate(93,94)"/>
<path d="M0 0 C0.66 0 1.32 0 2 0 C3.64776272 6.29952361 4.59690218 10.89727987 2 17 C1.34 17.33 0.68 17.66 0 18 C0.08378906 17.28714844 0.16757813 16.57429688 0.25390625 15.83984375 C0.84189161 10.30980427 1.09194306 5.45971529 0 0 Z " fill="#202022" transform="translate(152,88)"/>
<path d="M0 0 C0 0.66 0 1.32 0 2 C-0.99 2.66 -1.98 3.32 -3 4 C-3.33 4.99 -3.66 5.98 -4 7 C-4.66 7 -5.32 7 -6 7 C-5.91621094 7.72445312 -5.83242188 8.44890625 -5.74609375 9.1953125 C-5.20472195 14.3349182 -4.76278202 18.91365942 -6 24 C-6.33 24 -6.66 24 -7 24 C-7.13530844 20.93601549 -7.2342407 17.87802874 -7.3125 14.8125 C-7.35439453 13.94818359 -7.39628906 13.08386719 -7.43945312 12.19335938 C-7.52762947 7.59055404 -7.50010036 5.65021205 -4.60546875 1.88671875 C-2 0 -2 0 0 0 Z " fill="#AFAFB0" transform="translate(42,62)"/>
<path d="M0 0 C2.375 0.3125 2.375 0.3125 5 1 C5.66 1.99 6.32 2.98 7 4 C6.01 4.33 5.02 4.66 4 5 C4 5.66 4 6.32 4 7 C4.66 7 5.32 7 6 7 C6 7.66 6 8.32 6 9 C2.56225537 7.85408512 1.82586841 7.04311402 0 4 C0 2.68 0 1.36 0 0 Z " fill="#939194" transform="translate(137,94)"/>
<path d="M0 0 C0.33 0.99 0.66 1.98 1 3 C1.66 3 2.32 3 3 3 C3.33 3.99 3.66 4.98 4 6 C4.66 6.33 5.32 6.66 6 7 C6 9.64 6 12.28 6 15 C5.67 15 5.34 15 5 15 C4.67 12.69 4.34 10.38 4 8 C3.34 8 2.68 8 2 8 C1.67 9.32 1.34 10.64 1 12 C0.63896464 10.18885568 0.28634496 8.37603177 -0.0625 6.5625 C-0.25972656 5.55316406 -0.45695313 4.54382813 -0.66015625 3.50390625 C-0.77230469 2.67761719 -0.88445312 1.85132812 -1 1 C-0.67 0.67 -0.34 0.34 0 0 Z " fill="#434345" transform="translate(150,80)"/>
<path d="M0 0 C4.95 0.99 4.95 0.99 10 2 C10 3.32 10 4.64 10 6 C10.66 6.66 11.32 7.32 12 8 C7.98650355 7.71998862 6.27964858 7.24236211 3.1875 4.5625 C1 2 1 2 0 0 Z " fill="#242326" transform="translate(81,150)"/>
<path d="M0 0 C0 0.99 0 1.98 0 3 C0.66 3 1.32 3 2 3 C2.33 2.34 2.66 1.68 3 1 C3.33 3.97 3.66 6.94 4 10 C3.34 9.01 2.68 8.02 2 7 C0.68 7.33 -0.64 7.66 -2 8 C-1.67 6.68 -1.34 5.36 -1 4 C-1.99 3.67 -2.98 3.34 -4 3 C-4 2.34 -4 1.68 -4 1 C-2 0 -2 0 0 0 Z " fill="#88878C" transform="translate(137,69)"/>
<path d="M0 0 C1.55952523 3.11905047 0.6359489 5.64681487 0 9 C-1.0625 11.4375 -1.0625 11.4375 -2 13 C-2.66 12.67 -3.32 12.34 -4 12 C-4.49230769 4.61538462 -4.49230769 4.61538462 -2 1.5 C-1.34 1.005 -0.68 0.51 0 0 Z " fill="#666568" transform="translate(44,66)"/>
<path d="M0 0 C2 3 2 3 2 6 C-3.53846154 6.36923077 -3.53846154 6.36923077 -5.875 4.5 C-6.24625 4.005 -6.6175 3.51 -7 3 C-2.25 0 -2.25 0 0 0 Z " fill="#8A898D" transform="translate(70,52)"/>
<path d="M0 0 C6.08769088 1.71704102 12.47892387 4.47892387 17 9 C15.68 9.33 14.36 9.66 13 10 C13 9.34 13 8.68 13 8 C11.576875 7.8453125 11.576875 7.8453125 10.125 7.6875 C7 7 7 7 5 4 C4.319375 3.835 3.63875 3.67 2.9375 3.5 C2.298125 3.335 1.65875 3.17 1 3 C0.67 2.01 0.34 1.02 0 0 Z " fill="#9A9A9D" transform="translate(116,37)"/>
<path d="M0 0 C0.33 0 0.66 0 1 0 C1 4.29 1 8.58 1 13 C0.01 13 -0.98 13 -2 13 C-2.16682272 8.07872966 -2.24828052 4.49656104 0 0 Z " fill="#6B6A6E" transform="translate(47,76)"/>
<path d="M0 0 C-0.83144531 0.33773437 -1.66289063 0.67546875 -2.51953125 1.0234375 C-3.60621094 1.46945313 -4.69289063 1.91546875 -5.8125 2.375 C-6.89144531 2.81585938 -7.97039062 3.25671875 -9.08203125 3.7109375 C-12.10730112 4.9479119 -12.10730112 4.9479119 -15 7 C-17.1875 6.625 -17.1875 6.625 -19 6 C-5.89088652 -1.9200894 -5.89088652 -1.9200894 0 0 Z " fill="#B2B2B4" transform="translate(85,37)"/>
<path d="M0 0 C0.99 0 1.98 0 3 0 C3 1.32 3 2.64 3 4 C3.66 4 4.32 4 5 4 C5.33 5.65 5.66 7.3 6 9 C5.34 9 4.68 9 4 9 C3.34 9.66 2.68 10.32 2 11 C1.34 7.37 0.68 3.74 0 0 Z " fill="#39393C" transform="translate(41,90)"/>
<path d="M0 0 C0.33 0 0.66 0 1 0 C1 1.65 1 3.3 1 5 C1.66 5.33 2.32 5.66 3 6 C2.01 6 1.02 6 0 6 C0 6.66 0 7.32 0 8 C0.66 8 1.32 8 2 8 C2 8.66 2 9.32 2 10 C-0.35438733 11.42944945 -1.48032433 12.08661261 -4.25 11.625 C-4.8275 11.41875 -5.405 11.2125 -6 11 C-5.195625 10.113125 -4.39125 9.22625 -3.5625 8.3125 C-1.2960841 5.61712968 -0.31582634 3.57936522 0 0 Z " fill="#7A7A7B" transform="translate(48,50)"/>
<path d="M0 0 C0.33 0.66 0.66 1.32 1 2 C3.3140622 2.73075648 5.64828869 3.40138258 8 4 C7.67 4.99 7.34 5.98 7 7 C4.03 6.505 4.03 6.505 1 6 C1 5.34 1 4.68 1 4 C-0.45833358 2.37485532 -0.45833358 2.37485532 -2 1 C-1.34 0.67 -0.68 0.34 0 0 Z " fill="#202022" transform="translate(122,146)"/>
<path d="M0 0 C0.66 0.33 1.32 0.66 2 1 C0.02 1.99 0.02 1.99 -2 3 C-2 3.99 -2 4.98 -2 6 C-4.02144994 8.62788492 -5.76509224 9.44225728 -9 10 C-7.46990911 6.55729549 -5.5068778 3.81074178 -3 1 C-2.01 0.67 -1.02 0.34 0 0 Z " fill="#818181" transform="translate(64,44)"/>
<path d="M0 0 C0.33 0 0.66 0 1 0 C1 2.31 1 4.62 1 7 C0.34 7 -0.32 7 -1 7 C-1.33 8.32 -1.66 9.64 -2 11 C-3.65 11.33 -5.3 11.66 -7 12 C-6.67 11.34 -6.34 10.68 -6 10 C-5.34 10 -4.68 10 -4 10 C-3.71125 9.278125 -3.4225 8.55625 -3.125 7.8125 C-2.08333333 5.20833333 -1.04166667 2.60416667 0 0 Z " fill="#A5A6A8" transform="translate(139,126)"/>
<path d="M0 0 C1.98 0.99 1.98 0.99 4 2 C4 2.66 4 3.32 4 4 C5.32 4.33 6.64 4.66 8 5 C8 5.66 8 6.32 8 7 C1.125 6.125 1.125 6.125 0 5 C-0.04063832 3.33382885 -0.042721 1.66611905 0 0 Z " fill="#2A2A2C" transform="translate(57,132)"/>
<path d="M0 0 C1.485 0.99 1.485 0.99 3 2 C3 2.66 3 3.32 3 4 C4.65 4.33 6.3 4.66 8 5 C7.01 6.485 7.01 6.485 6 8 C2.875 8.1875 2.875 8.1875 0 8 C0.66 6.35 1.32 4.7 2 3 C1.01 3 0.02 3 -1 3 C-0.67 2.01 -0.34 1.02 0 0 Z " fill="#323235" transform="translate(84,153)"/>
<path d="M0 0 C0.99 0 1.98 0 3 0 C3.66 1.32 4.32 2.64 5 4 C4.360625 4.103125 3.72125 4.20625 3.0625 4.3125 C2.381875 4.539375 1.70125 4.76625 1 5 C0.67 5.99 0.34 6.98 0 8 C-1.32 7.67 -2.64 7.34 -4 7 C-3.01 7 -2.02 7 -1 7 C-1.020625 6.030625 -1.04125 5.06125 -1.0625 4.0625 C-1 1 -1 1 0 0 Z " fill="#B9B9BC" transform="translate(127,135)"/>
<path d="M0 0 C0.66 0 1.32 0 2 0 C2.33 2.64 2.66 5.28 3 8 C2.01 8.33 1.02 8.66 0 9 C-0.33 10.65 -0.66 12.3 -1 14 C-1.66 14 -2.32 14 -3 14 C-2.690625 13.154375 -2.38125 12.30875 -2.0625 11.4375 C-0.91520442 7.72566137 0 3.91555776 0 0 Z " fill="#A7A7A9" transform="translate(143,103)"/>
<path d="M0 0 C0.33 0 0.66 0 1 0 C1 1.98 1 3.96 1 6 C1.99 5.67 2.98 5.34 4 5 C5.0625 7.375 5.0625 7.375 6 10 C5.67 10.66 5.34 11.32 5 12 C4.34 12 3.68 12 3 12 C-0.12940055 8.02806853 -0.29162929 4.95769796 0 0 Z " fill="#1A1A1B" transform="translate(37,86)"/>
<path d="M0 0 C0 3 0 3 -1 6 C-4.21284338 7.88579937 -6.24633583 9 -10 9 C-7.34051718 5.35552354 -4.96548305 3.14350435 -1 1 C-0.67 0.67 -0.34 0.34 0 0 Z " fill="#7B7A7E" transform="translate(125,67)"/>
<path d="M0 0 C0.33 0.66 0.66 1.32 1 2 C1.66 2 2.32 2 3 2 C4.625 4 4.625 4 6 6 C4.35 6.66 2.7 7.32 1 8 C1.33 7.01 1.66 6.02 2 5 C0.35 4.67 -1.3 4.34 -3 4 C-2.01 2.68 -1.02 1.36 0 0 Z " fill="#555558" transform="translate(128,145)"/>
<path d="M0 0 C2.97 0.495 2.97 0.495 6 1 C4.73083275 3.53833449 3.58375191 3.89400901 1.0625 5.125 C0.35222656 5.47820312 -0.35804687 5.83140625 -1.08984375 6.1953125 C-3 7 -3 7 -5 7 C-5 6.34 -5 5.68 -5 5 C-3.35 4.67 -1.7 4.34 0 4 C0 2.68 0 1.36 0 0 Z " fill="#3F3E42" transform="translate(118,148)"/>
<path d="M0 0 C1.32 0 2.64 0 4 0 C3.71758359 1.46015291 3.42373386 2.91809793 3.125 4.375 C2.96257812 5.18710938 2.80015625 5.99921875 2.6328125 6.8359375 C2 9 2 9 0 11 C0 7.37 0 3.74 0 0 Z " fill="#323236" transform="translate(146,107)"/>
<path d="M0 0 C0.33 1.32 0.66 2.64 1 4 C-0.093125 4.433125 -1.18625 4.86625 -2.3125 5.3125 C-5.09408793 6.49495641 -7.06361939 7.60800043 -9 10 C-9.66 9.67 -10.32 9.34 -11 9 C-9.73742767 7.82439821 -8.46462916 6.65977135 -7.1875 5.5 C-6.47980469 4.8503125 -5.77210937 4.200625 -5.04296875 3.53125 C-3 2 -3 2 0 2 C0 1.34 0 0.68 0 0 Z " fill="#BEBEC1" transform="translate(131,61)"/>
<path d="M0 0 C-0.33 0.99 -0.66 1.98 -1 3 C-3.31 3.33 -5.62 3.66 -8 4 C-8 3.01 -8 2.02 -8 1 C-2.25 -1.125 -2.25 -1.125 0 0 Z " fill="#6C6B71" transform="translate(123,144)"/>
<path d="M0 0 C1.65 0 3.3 0 5 0 C5 0.66 5 1.32 5 2 C6.98 1.67 8.96 1.34 11 1 C11 1.99 11 2.98 11 4 C7.06225823 4.36630156 5.43460229 4.30233203 2.125 2 C1.42375 1.34 0.7225 0.68 0 0 Z " fill="#29292B" transform="translate(71,145)"/>
<path d="M0 0 C1.07894531 0.30164062 2.15789062 0.60328125 3.26953125 0.9140625 C4.35621094 1.21054687 5.44289063 1.50703125 6.5625 1.8125 C7.39394531 2.05226562 8.22539063 2.29203125 9.08203125 2.5390625 C3.74556259 4.31788539 -0.87055351 3.98629413 -5.91796875 1.5390625 C-2.91796875 -0.4609375 -2.91796875 -0.4609375 0 0 Z " fill="#BAB9BB" transform="translate(95.91796875,43.4609375)"/>
<path d="M0 0 C0.103125 0.639375 0.20625 1.27875 0.3125 1.9375 C0.539375 2.618125 0.76625 3.29875 1 4 C1.99 4.33 2.98 4.66 4 5 C3 6 3 6 -0.0625 6.0625 C-1.5165625 6.0315625 -1.5165625 6.0315625 -3 6 C-2.42655063 3.13275314 -2.1385485 2.1385485 0 0 Z " fill="#858386" transform="translate(132,124)"/>
<path d="M0 0 C0.33 0.66 0.66 1.32 1 2 C1.99 2 2.98 2 4 2 C3.67 4.31 3.34 6.62 3 9 C2.67 7.68 2.34 6.36 2 5 C1.34 5 0.68 5 0 5 C0 4.34 0 3.68 0 3 C-0.66 3 -1.32 3 -2 3 C-2 2.34 -2 1.68 -2 1 C-1.34 0.67 -0.68 0.34 0 0 Z " fill="#444347" transform="translate(143,98)"/>
<path d="M0 0 C0.66 0 1.32 0 2 0 C2.33 3.96 2.66 7.92 3 12 C2.01 12 1.02 12 0 12 C0 8.04 0 4.08 0 0 Z " fill="#828185" transform="translate(144,88)"/>
<path d="M0 0 C3.49258493 3.49258493 4.92091065 7.5500285 5.1875 12.4375 C5.125625 13.283125 5.06375 14.12875 5 15 C2.68994131 12.68994131 2.27825897 11.16916343 1.375 8.0625 C1.11460937 7.18722656 0.85421875 6.31195313 0.5859375 5.41015625 C0 3 0 3 0 0 Z " fill="#B1B2B3" transform="translate(146,78)"/>
<path d="M0 0 C3.63 0.33 7.26 0.66 11 1 C11 1.66 11 2.32 11 3 C9.02 3.33 7.04 3.66 5 4 C5 3.34 5 2.68 5 2 C3.35 1.67 1.7 1.34 0 1 C0 0.67 0 0.34 0 0 Z " fill="#7C7980" transform="translate(86,150)"/>
<path d="M0 0 C0.66 1.32 1.32 2.64 2 4 C1 5 1 5 -1.5625 5.0625 C-2.7690625 5.0315625 -2.7690625 5.0315625 -4 5 C-4 3.68 -4 2.36 -4 1 C-2.68 0.67 -1.36 0.34 0 0 Z " fill="#4E4C51" transform="translate(137,123)"/>
<path d="M0 0 C2.35800504 2.28431738 3.88720897 4.0081024 4.265625 7.3359375 C4.251535 9.56920205 4.17460201 11.77382441 4 14 C3.67 14 3.34 14 3 14 C3 11.69 3 9.38 3 7 C2.34 7 1.68 7 1 7 C0.67 4.69 0.34 2.38 0 0 Z " fill="#454548" transform="translate(36,95)"/>
<path d="M0 0 C0.99 0 1.98 0 3 0 C4.09658936 3.28976808 3.79953138 4.71303767 3 8 C2.34 8 1.68 8 1 8 C0.67 5.36 0.34 2.72 0 0 Z " fill="#0E0F0F" transform="translate(145,69)"/>
<path d="M0 0 C2.875 -0.1875 2.875 -0.1875 6 0 C6.66 0.99 7.32 1.98 8 3 C5.03 2.505 5.03 2.505 2 2 C2.99 2.99 3.98 3.98 5 5 C3.35 4.67 1.7 4.34 0 4 C0 2.68 0 1.36 0 0 Z " fill="#555259" transform="translate(118,47)"/>
<path d="M0 0 C1.32 0 2.64 0 4 0 C4 0.66 4 1.32 4 2 C5.65 2 7.3 2 9 2 C9 2.99 9 3.98 9 5 C3.46153846 4.50769231 3.46153846 4.50769231 1.125 1.9375 C0.75375 1.298125 0.3825 0.65875 0 0 Z " fill="#626264" transform="translate(56,142)"/>
<path d="M0 0 C1.32 0.66 2.64 1.32 4 2 C3.01 2.495 3.01 2.495 2 3 C2.33 4.65 2.66 6.3 3 8 C1.68 7.67 0.36 7.34 -1 7 C-0.67 4.69 -0.34 2.38 0 0 Z " fill="#313134" transform="translate(66,142)"/>
<path d="M0 0 C0.66 0.33 1.32 0.66 2 1 C1.525625 1.5775 1.05125 2.155 0.5625 2.75 C-0.9484867 4.92582084 -1.54036151 6.42602448 -2 9 C-3.32 8.34 -4.64 7.68 -6 7 C-4.02 4.69 -2.04 2.38 0 0 Z " fill="#0D0E0E" transform="translate(107,92)"/>
<path d="M0 0 C0.99 0 1.98 0 3 0 C2.95875 1.093125 2.9175 2.18625 2.875 3.3125 C2.67925334 7.08892229 2.67925334 7.08892229 5 10 C4.67 10.99 4.34 11.98 4 13 C0.25474201 9.25474201 0.31090051 5.01729091 0 0 Z " fill="#343437" transform="translate(48,88)"/>
<path d="M0 0 C1 3 1 3 0.0625 5.1875 C-0.4634375 6.0846875 -0.4634375 6.0846875 -1 7 C-1.99 6.67 -2.98 6.34 -4 6 C-3.6875 4.125 -3.6875 4.125 -3 2 C-2.01 1.34 -1.02 0.68 0 0 Z " fill="#101011" transform="translate(146,128)"/>
<path d="M0 0 C1.32 0.66 2.64 1.32 4 2 C2.35 3.65 0.7 5.3 -1 7 C-1.66 5.68 -2.32 4.36 -3 3 C-2.34 2.67 -1.68 2.34 -1 2 C-0.67 1.34 -0.34 0.68 0 0 Z " fill="#5C5C5D" transform="translate(102,100)"/>
<path d="M0 0 C0.33 0 0.66 0 1 0 C1.33 2.97 1.66 5.94 2 9 C0.68 8.34 -0.64 7.68 -2 7 C-1.125 1.125 -1.125 1.125 0 0 Z " fill="#1A1A1C" transform="translate(39,69)"/>
<path d="M0 0 C2.1875 0.3125 2.1875 0.3125 4 1 C2.35 2.65 0.7 4.3 -1 6 C-1.66 5.01 -2.32 4.02 -3 3 C-1.75 1.4375 -1.75 1.4375 0 0 Z " fill="#757678" transform="translate(136,144)"/>
<path d="M0 0 C0.99 0.33 1.98 0.66 3 1 C1.35 2.65 -0.3 4.3 -2 6 C-2.99 4.68 -3.98 3.36 -5 2 C-3.35 2 -1.7 2 0 2 C0 1.34 0 0.68 0 0 Z " fill="#616262" transform="translate(80,119)"/>
<path d="M0 0 C0.33 0.99 0.66 1.98 1 3 C-0.25 5.1875 -0.25 5.1875 -2 7 C-2.99 7 -3.98 7 -5 7 C-5 6.34 -5 5.68 -5 5 C-4.34 5 -3.68 5 -3 5 C-2.5359375 4.0409375 -2.5359375 4.0409375 -2.0625 3.0625 C-1 1 -1 1 0 0 Z " fill="#5A5C5C" transform="translate(64,112)"/>
<path d="M0 0 C-0.99 1.32 -1.98 2.64 -3 4 C-3.99 3.67 -4.98 3.34 -6 3 C-6 2.01 -6 1.02 -6 0 C-3 -1 -3 -1 0 0 Z " fill="#1D1E1F" transform="translate(84,103)"/>
<path d="M0 0 C0 0.66 0 1.32 0 2 C-6.96428571 5.34821429 -6.96428571 5.34821429 -11 4 C-9.73308493 3.32591692 -8.46129251 2.66099503 -7.1875 2 C-6.47980469 1.62875 -5.77210937 1.2575 -5.04296875 0.875 C-3 0 -3 0 0 0 Z " fill="#424247" transform="translate(82,38)"/>
<path d="M0 0 C0 0.99 0 1.98 0 3 C-4.29 2.67 -8.58 2.34 -13 2 C-13 1.67 -13 1.34 -13 1 C-11.39602723 0.83147753 -9.7918131 0.66525114 -8.1875 0.5 C-7.29417969 0.4071875 -6.40085937 0.314375 -5.48046875 0.21875 C-3 0 -3 0 0 0 Z " fill="#BBBABE" transform="translate(101,149)"/>
<path d="M0 0 C1.66666667 0 3.33333333 0 5 0 C5 1.32 5 2.64 5 4 C4.34 4 3.68 4 3 4 C2.67 4.66 2.34 5.32 2 6 C1.34 5.34 0.68 4.68 0 4 C0 2.68 0 1.36 0 0 Z " fill="#414146" transform="translate(145,125)"/>
<path d="M0 0 C1.60080151 4.00200378 0.29279692 7.04556236 -1 11 C-1.33 11 -1.66 11 -2 11 C-2 7.7 -2 4.4 -2 1 C-1.34 0.67 -0.68 0.34 0 0 Z " fill="#45434A" transform="translate(154,109)"/>
<path d="M0 0 C0 0.66 0 1.32 0 2 C-0.99 2.66 -1.98 3.32 -3 4 C-3.33 4.99 -3.66 5.98 -4 7 C-4.99 7.33 -5.98 7.66 -7 8 C-6.44414399 4.1090079 -4.34122117 0 0 0 Z " fill="#888888" transform="translate(42,62)"/>
<path d="M0 0 C1.32 0.33 2.64 0.66 4 1 C4.33 2.65 4.66 4.3 5 6 C3.0625 5.25 3.0625 5.25 1 4 C0.25 1.875 0.25 1.875 0 0 Z " fill="#2B2A2E" transform="translate(129,54)"/>
<path d="M0 0 C0 1.65 0 3.3 0 5 C-1.32 4.67 -2.64 4.34 -4 4 C-4 3.34 -4 2.68 -4 2 C-4.99 1.67 -5.98 1.34 -7 1 C-1.125 0 -1.125 0 0 0 Z " fill="#B0AFB3" transform="translate(89,44)"/>
<path d="M0 0 C2.475 0.99 2.475 0.99 5 2 C5 3.65 5 5.3 5 7 C3.29115995 5.37660195 1.62553283 3.70680947 0 2 C0 1.34 0 0.68 0 0 Z " fill="#89898B" transform="translate(51,135)"/>
<path d="M0 0 C0.66 0.33 1.32 0.66 2 1 C1.01 2.485 1.01 2.485 0 4 C-3.625 4.6875 -3.625 4.6875 -7 5 C-4.88437775 2.67281553 -2.94982021 1.14186589 0 0 Z " fill="#7F8080" transform="translate(86,98)"/>
<path d="M0 0 C1.65 0.33 3.3 0.66 5 1 C4.67 1.99 4.34 2.98 4 4 C3.01 4.33 2.02 4.66 1 5 C0.67 4.34 0.34 3.68 0 3 C-0.99 3.495 -0.99 3.495 -2 4 C-1.34 2.68 -0.68 1.36 0 0 Z " fill="#111212" transform="translate(91,97)"/>
<path d="M0 0 C0.33 1.32 0.66 2.64 1 4 C0.01 4.495 0.01 4.495 -1 5 C-1 4.34 -1 3.68 -1 3 C-1.66 3 -2.32 3 -3 3 C-3.33 3.99 -3.66 4.98 -4 6 C-4 4.35 -4 2.7 -4 1 C-2.68 0.67 -1.36 0.34 0 0 Z " fill="#313134" transform="translate(144,69)"/>
<path d="M0 0 C0.66 0 1.32 0 2 0 C1.67 2.31 1.34 4.62 1 7 C0.34 7 -0.32 7 -1 7 C-0.67 4.69 -0.34 2.38 0 0 Z " fill="#45454B" transform="translate(138,65)"/>
<path d="M0 0 C0 2 0 2 -1.875 4.125 C-4 6 -4 6 -6 6 C-5.67 4.35 -5.34 2.7 -5 1 C-2 0 -2 0 0 0 Z " fill="#37363B" transform="translate(131,65)"/>
</svg>
