<?xml version="1.0" encoding="UTF-8"?>
<svg version="1.1" xmlns="http://www.w3.org/2000/svg" width="200" height="201">
<path d="M0 0 C1 1 1 1 1.0546875 2.9609375 C0.87280846 5.40444287 0.64393249 7.63322828 0 10 C-2.5625 12.0625 -2.5625 12.0625 -5 13 C-4.01 13.66 -3.02 14.32 -2 15 C-1.67 14.67 -1.34 14.34 -1 14 C0.66617115 13.95936168 2.33388095 13.957279 4 14 C4.495 16.475 4.495 16.475 5 19 C4.195625 19.33 3.39125 19.66 2.5625 20 C-1.58792826 22.03063913 -4.71396674 25.20961147 -8.046875 28.35546875 C-10 30 -10 30 -12 30 C-12 30.66 -12 31.32 -12 32 C-16.33171369 36.1985507 -20.72184809 40.41082278 -26.625 41.9375 C-32.28977483 43.72085504 -35.30883647 48.52306105 -39 53 C-53.67741935 70.22580645 -53.67741935 70.22580645 -59 72 C-59.45375 72.45375 -59.9075 72.9075 -60.375 73.375 C-62 75 -62 75 -64.4375 76.25 C-67.79837147 78.54522929 -69.24441318 81.44381132 -71 85 C-71.5775 86.134375 -72.155 87.26875 -72.75 88.4375 C-73.36875 89.7059375 -73.36875 89.7059375 -74 91 C-81.93914158 91.62267777 -81.93914158 91.62267777 -85.875 89.3125 C-88.63956875 86.30399871 -90.47912144 83.46228294 -91.8515625 79.609375 C-93.11120888 76.74732132 -94.56300634 74.97060026 -96.6875 72.6875 C-97.40808594 71.90375 -98.12867187 71.12 -98.87109375 70.3125 C-99.57363281 69.549375 -100.27617188 68.78625 -101 68 C-102.08655813 66.73192275 -103.17002108 65.46118521 -104.25 64.1875 C-106.41483361 61.67528611 -108.67169966 59.32898771 -111.0703125 57.04296875 C-111.61397461 56.52001221 -112.15763672 55.99705566 -112.71777344 55.45825195 C-113.80127201 54.42311815 -114.89536698 53.39893453 -116.00097656 52.38745117 C-119.44695586 49.08790942 -120.73076989 46.77529204 -121 42 C-117.25 39 -117.25 39 -115 39 C-115 37.68 -115 36.36 -115 35 C-111.80061375 35 -109.686711 35.37129884 -107.2890625 37.56640625 C-105.46946636 39.67005699 -103.72784125 41.82043554 -102 44 C-94.25460424 53.36074637 -94.25460424 53.36074637 -83 57 C-79.5625 58.9375 -79.5625 58.9375 -77 61 C-77 61.66 -77 62.32 -77 63 C-72.56085003 62.5897468 -70.24474422 59.51058171 -67.375 56.4375 C-65.61927906 54.57320158 -63.84611367 52.77871587 -62 51 C-61.34 51 -60.68 51 -60 51 C-60 50.34 -60 49.68 -60 49 C-59.21625 48.7525 -58.4325 48.505 -57.625 48.25 C-54.51312053 46.76815263 -54.46628125 45.96563651 -53 43 C-51.546875 41.5703125 -51.546875 41.5703125 -49.75 40.125 C-45.59517324 36.58881472 -41.65024999 32.87461447 -37.75 29.0625 C-37.14768555 28.48967285 -36.54537109 27.9168457 -35.92480469 27.32666016 C-32.32161542 23.77265091 -30.01693935 20.45240166 -27.91259766 15.85864258 C-24.55441914 9.01920623 -18.03645594 3.08871469 -11.28125 -0.30078125 C-7.42866679 -1.48162439 -3.8438283 -1.08107671 0 0 Z " fill="#1D1D21" transform="translate(159,55)"/>
<path d="M0 0 C3.19938625 0 5.313289 0.37129884 7.7109375 2.56640625 C9.53053364 4.67005699 11.27215875 6.82043554 13 9 C17.59806784 14.50303402 17.59806784 14.50303402 22.9375 19.25 C23.9584375 20.11625 23.9584375 20.11625 25 21 C25 22.32 25 23.64 25 25 C25.99 25 26.98 25 28 25 C27.67 25.66 27.34 26.32 27 27 C24.9375 27.625 24.9375 27.625 23 28 C24.98 28.33 26.96 28.66 29 29 C29.495 27.515 29.495 27.515 30 26 C31.32 26.33 32.64 26.66 34 27 C33.34 27 32.68 27 32 27 C32.495 27.99 32.495 27.99 33 29 C34.65 29 36.3 29 38 29 C38.495 29.99 38.495 29.99 39 31 C38.01 31 37.02 31 36 31 C36 31.99 36 32.98 36 34 C36.5775 33.649375 37.155 33.29875 37.75 32.9375 C40.35801776 31.85082593 41.39417629 32.06934867 44 33 C44 34.65 44 36.3 44 38 C43.01 38.33 42.02 38.66 41 39 C41.99 39 42.98 39 44 39 C44.66 38.34 45.32 37.68 46 37 C46.99 37 47.98 37 49 37 C49 37.66 49 38.32 49 39 C47.68 39.66 46.36 40.32 45 41 C45 41.66 45 42.32 45 43 C38.56971459 44.32388229 32.5705166 45.24794402 26 45 C26 44.01 26 43.02 26 42 C26.66 42 27.32 42 28 42 C27.34 41.34 26.68 40.68 26 40 C24.63875 40.1546875 24.63875 40.1546875 23.25 40.3125 C19.57328067 39.9589693 19.31458735 39.67473109 17.0625 37 C16.03264067 35.67362591 15.01205335 34.34000988 14 33 C12.97194458 31.75942667 11.92963145 30.53056102 10.875 29.3125 C10.30265625 28.65121094 9.7303125 27.98992187 9.140625 27.30859375 C7.44458611 25.47947152 5.72544464 23.75401277 3.921875 22.03515625 C3.10807373 21.25241333 3.10807373 21.25241333 2.27783203 20.45385742 C1.19593272 19.4203799 0.10343802 18.39785461 -1.00048828 17.38793945 C-4.44662246 14.08820245 -5.73075204 11.77560853 -6 7 C-2.25 4 -2.25 4 0 4 C0 2.68 0 1.36 0 0 Z " fill="#212124" transform="translate(44,90)"/>
<path d="M0 0 C0 3 0 3 -1.0625 5.375 C-2.14117981 8.39530346 -1.86796258 9.96213098 -1 13 C-2.32 13 -3.64 13 -5 13 C-5 13.99 -5 14.98 -5 16 C-5.99 16.495 -5.99 16.495 -7 17 C-7.495 18.485 -7.495 18.485 -8 20 C-8.9590625 20.2165625 -8.9590625 20.2165625 -9.9375 20.4375 C-10.618125 20.623125 -11.29875 20.80875 -12 21 C-12.309375 21.66 -12.61875 22.32 -12.9375 23 C-13.4634375 23.99 -13.4634375 23.99 -14 25 C-16.625 25.75 -16.625 25.75 -19 26 C-19 26.99 -19 27.98 -19 29 C-18.34 29 -17.68 29 -17 29 C-17 31 -17 31 -18.64453125 32.69140625 C-19.71767578 33.61759766 -19.71767578 33.61759766 -20.8125 34.5625 C-21.87404297 35.49255859 -21.87404297 35.49255859 -22.95703125 36.44140625 C-25 38 -25 38 -28 39 C-28 38.34 -28 37.68 -28 37 C-27.01 36.505 -27.01 36.505 -26 36 C-26 34.35 -26 32.7 -26 31 C-28.31 31.33 -30.62 31.66 -33 32 C-33 29 -33 29 -32 28 C-33.65 27.67 -35.3 27.34 -37 27 C-37 26.34 -37 25.68 -37 25 C-37.66 25 -38.32 25 -39 25 C-39 25.99 -39 26.98 -39 28 C-41.31 27.67 -43.62 27.34 -46 27 C-46 26.01 -46 25.02 -46 24 C-44.35 23.67 -42.7 23.34 -41 23 C-41.99 23 -42.98 23 -44 23 C-44 22.01 -44 21.02 -44 20 C-38.32822615 19.54625809 -35.4024732 20.34916857 -31 24 C-31 24.66 -31 25.32 -31 26 C-26.56085003 25.5897468 -24.24474422 22.51058171 -21.375 19.4375 C-19.61927906 17.57320158 -17.84611367 15.77871587 -16 14 C-15.34 14 -14.68 14 -14 14 C-14 13.34 -14 12.68 -14 12 C-13.21625 11.7525 -12.4325 11.505 -11.625 11.25 C-8.90126024 10.28320084 -8.90126024 10.28320084 -8.0625 8.125 C-6.83761032 5.67522064 -5.48719502 4.4710478 -3.375 2.75 C-2.74335937 2.22921875 -2.11171875 1.7084375 -1.4609375 1.171875 C-0.73777344 0.59179688 -0.73777344 0.59179688 0 0 Z " fill="#212026" transform="translate(113,92)"/>
<path d="M0 0 C0.495 0.495 0.495 0.495 1 1 C0.91062197 2.52519276 0.75462854 4.04681929 0.5625 5.5625 C0.46066406 6.38878906 0.35882813 7.21507812 0.25390625 8.06640625 C0.17011719 8.70449219 0.08632812 9.34257813 0 10 C-0.99 10.33 -1.98 10.66 -3 11 C-3 10.34 -3 9.68 -3 9 C-2.34 9 -1.68 9 -1 9 C-1 6.69 -1 4.38 -1 2 C-2.98073365 2.280828 -4.95958448 2.57496614 -6.9375 2.875 C-8.03964844 3.03742187 -9.14179688 3.19984375 -10.27734375 3.3671875 C-11.17582031 3.57601562 -12.07429688 3.78484375 -13 4 C-13.33 4.66 -13.66 5.32 -14 6 C-12.515 6.495 -12.515 6.495 -11 7 C-11 7.66 -11 8.32 -11 9 C-13.65228812 10.07525194 -16.28368454 11.09456151 -19 12 C-19 14.31 -19 16.62 -19 19 C-19.61875 19.2475 -20.2375 19.495 -20.875 19.75 C-23.38710296 21.22770762 -23.76107344 22.43955177 -25 25 C-25.99 25.33 -26.98 25.66 -28 26 C-28 26.99 -28 27.98 -28 29 C-28.33 29.99 -28.66 30.98 -29 32 C-29.99 32 -30.98 32 -32 32 C-32 32.66 -32 33.32 -32 34 C-32.66 34 -33.32 34 -34 34 C-34 34.99 -34 35.98 -34 37 C-34.66 37 -35.32 37 -36 37 C-36 37.66 -36 38.32 -36 39 C-37.98 39.66 -39.96 40.32 -42 41 C-42 38 -42 38 -41 37 C-42.32 36.67 -43.64 36.34 -45 36 C-44.5968457 35.61779297 -44.19369141 35.23558594 -43.77832031 34.84179688 C-41.92464515 33.07223449 -40.08744432 31.2864042 -38.25 29.5 C-37.61578125 28.89929688 -36.9815625 28.29859375 -36.328125 27.6796875 C-32.56615112 23.99608808 -30.06934098 20.63234706 -27.89501953 15.84326172 C-24.57549771 9.00682152 -18.01393319 3.07741366 -11.28125 -0.30078125 C-7.42866679 -1.48162439 -3.8438283 -1.08107671 0 0 Z " fill="#28272F" transform="translate(159,55)"/>
<path d="M0 0 C-0.71285156 0.7734375 -1.42570312 1.546875 -2.16015625 2.34375 C-3.12783972 3.39561668 -4.09526995 4.44771636 -5.0625 5.5 C-5.56837646 6.05026855 -6.07425293 6.60053711 -6.59545898 7.16748047 C-9.29808925 10.1155691 -11.96147653 13.08630431 -14.5625 16.125 C-26.06589674 29.35529891 -26.06589674 29.35529891 -31 31 C-31.495 31.515625 -31.99 32.03125 -32.5 32.5625 C-34 34 -34 34 -37 34 C-37 33.34 -37 32.68 -37 32 C-36.0925 31.46375 -35.185 30.9275 -34.25 30.375 C-30.9448626 28.28633678 -29.91374084 25.93800814 -28.3359375 22.37109375 C-25.49848288 17.33502663 -21.17734249 12.95901448 -17 9 C-16.34 9 -15.68 9 -15 9 C-14.34 7.68 -13.68 6.36 -13 5 C-9 5 -9 5 -7 6 C-7.185625 5.38125 -7.37125 4.7625 -7.5625 4.125 C-8 2 -8 2 -7 0 C-2.52459016 -1.26229508 -2.52459016 -1.26229508 0 0 Z " fill="#63626E" transform="translate(131,96)"/>
<path d="M0 0 C0.66 0.66 1.32 1.32 2 2 C1.01 2 0.02 2 -1 2 C-1 2.99 -1 3.98 -1 5 C-0.4225 4.649375 0.155 4.29875 0.75 3.9375 C3.35801776 2.85082593 4.39417629 3.06934867 7 4 C7 5.65 7 7.3 7 9 C6.01 9.33 5.02 9.66 4 10 C4.99 10 5.98 10 7 10 C7.66 9.34 8.32 8.68 9 8 C9.99 8 10.98 8 12 8 C12 8.66 12 9.32 12 10 C10.02 10.99 10.02 10.99 8 12 C8 12.66 8 13.32 8 14 C1.56971459 15.32388229 -4.4294834 16.24794402 -11 16 C-11 15.01 -11 14.02 -11 13 C-10.34 13 -9.68 13 -9 13 C-9.350625 12.4225 -9.70125 11.845 -10.0625 11.25 C-11.14917407 8.64198224 -10.93065133 7.60582371 -10 5 C-8.68 4.67 -7.36 4.34 -6 4 C-6 3.01 -6 2.02 -6 1 C-3.125 0.375 -3.125 0.375 0 0 Z " fill="#08090A" transform="translate(81,119)"/>
<path d="M0 0 C0.99 0.33 1.98 0.66 3 1 C2.01 1.495 2.01 1.495 1 2 C1.99 2.66 2.98 3.32 4 4 C4.33 3.67 4.66 3.34 5 3 C6.66617115 2.95936168 8.33388095 2.957279 10 3 C10.33 4.65 10.66 6.3 11 8 C10.195625 8.33 9.39125 8.66 8.5625 9 C4.41207174 11.03063913 1.28603326 14.20961147 -2.046875 17.35546875 C-4 19 -4 19 -6 19 C-6 19.66 -6 20.32 -6 21 C-7.71024476 22.60861731 -9.49438829 24.13938343 -11.3125 25.625 C-12.29863281 26.44226563 -13.28476563 27.25953125 -14.30078125 28.1015625 C-17 30 -17 30 -20 30 C-20 29.34 -20 28.68 -20 28 C-19.01 28 -18.02 28 -17 28 C-17.66 27.67 -18.32 27.34 -19 27 C-19 25.68 -19 24.36 -19 23 C-17.35 22.34 -15.7 21.68 -14 21 C-13.67 21.33 -13.34 21.66 -13 22 C-12.608125 20.948125 -12.21625 19.89625 -11.8125 18.8125 C-9.40833029 13.22534503 -5.36724887 9.75615483 0 7 C0.66 7 1.32 7 2 7 C1.04134491 4.66924071 1.04134491 4.66924071 -2 3 C-1.34 2.01 -0.68 1.02 0 0 Z " fill="#797988" transform="translate(153,66)"/>
<path d="M0 0 C0.66 0.99 1.32 1.98 2 3 C1.01 3 0.02 3 -1 3 C-1 3.99 -1 4.98 -1 6 C-0.01 6.33 0.98 6.66 2 7 C0.02 7.99 0.02 7.99 -2 9 C-1.896875 9.9075 -1.79375 10.815 -1.6875 11.75 C-2 15 -2 15 -4.26171875 16.8984375 C-5.61716797 17.93871094 -5.61716797 17.93871094 -7 19 C-11.486105 23.97908357 -15.06216505 28.97743835 -18 35 C-21.3 38 -21.3 38 -24 38 C-24.33 38.99 -24.66 39.98 -25 41 C-25.33 39.02 -25.66 37.04 -26 35 C-24.68 34.34 -23.36 33.68 -22 33 C-22 32.34 -22 31.68 -22 31 C-22.66 31 -23.32 31 -24 31 C-24 30.01 -24 29.02 -24 28 C-23.21625 27.938125 -22.4325 27.87625 -21.625 27.8125 C-20.75875 27.544375 -19.8925 27.27625 -19 27 C-17.62533375 24.52363988 -17.62533375 24.52363988 -17 22 C-15.68 22 -14.36 22 -13 22 C-12.67 20.68 -12.34 19.36 -12 18 C-11.34 18 -10.68 18 -10 18 C-10 17.01 -10 16.02 -10 15 C-8.68 15 -7.36 15 -6 15 C-6.4125 14.154375 -6.825 13.30875 -7.25 12.4375 C-8.06722452 8.69188761 -7.94079993 8.24233484 -6.125 5.125 C-5.42375 4.09375 -4.7225 3.0625 -4 2 C-2.68 2 -1.36 2 0 2 C0 1.34 0 0.68 0 0 Z " fill="#1D1D22" transform="translate(118,90)"/>
<path d="M0 0 C0 3 0 3 -1.0625 5.375 C-2.14117981 8.39530346 -1.86796258 9.96213098 -1 13 C-2.32 13 -3.64 13 -5 13 C-5 13.99 -5 14.98 -5 16 C-6.65 16 -8.3 16 -10 16 C-10.33 16.99 -10.66 17.98 -11 19 C-16.46511628 24 -16.46511628 24 -19 24 C-19 23.34 -19 22.68 -19 22 C-19.66 22 -20.32 22 -21 22 C-21 22.99 -21 23.98 -21 25 C-22.98 25.33 -24.96 25.66 -27 26 C-23.49925018 21.82556637 -20.02049157 17.6854506 -16 14 C-15.34 14 -14.68 14 -14 14 C-14 13.34 -14 12.68 -14 12 C-13.21625 11.7525 -12.4325 11.505 -11.625 11.25 C-8.90126024 10.28320084 -8.90126024 10.28320084 -8.0625 8.125 C-6.83761032 5.67522064 -5.48719502 4.4710478 -3.375 2.75 C-2.74335937 2.22921875 -2.11171875 1.7084375 -1.4609375 1.171875 C-0.73777344 0.59179688 -0.73777344 0.59179688 0 0 Z " fill="#2F2F39" transform="translate(113,92)"/>
<path d="M0 0 C0.33 0.33 0.66 0.66 1 1 C0.91062197 2.52519276 0.75462854 4.04681929 0.5625 5.5625 C0.46066406 6.38878906 0.35882813 7.21507812 0.25390625 8.06640625 C0.17011719 8.70449219 0.08632812 9.34257813 0 10 C-0.99 10.33 -1.98 10.66 -3 11 C-3 10.34 -3 9.68 -3 9 C-2.34 9 -1.68 9 -1 9 C-1 6.69 -1 4.38 -1 2 C-2.98073365 2.280828 -4.95958448 2.57496614 -6.9375 2.875 C-8.03964844 3.03742187 -9.14179688 3.19984375 -10.27734375 3.3671875 C-11.62505859 3.68042969 -11.62505859 3.68042969 -13 4 C-13.33 4.66 -13.66 5.32 -14 6 C-13.01 6.33 -12.02 6.66 -11 7 C-11 7.66 -11 8.32 -11 9 C-17.85185185 11.77777778 -17.85185185 11.77777778 -20.9375 12.375 C-23.41578253 13.1259947 -25.01231215 14.36725641 -27 16 C-23.7061766 8.85542655 -18.34030102 3.35996564 -11.3515625 -0.23046875 C-7.46955688 -1.50082607 -3.89304019 -1.09491755 0 0 Z " fill="#888892" transform="translate(159,55)"/>
<path d="M0 0 C0.66 0.66 1.32 1.32 2 2 C1.01 2 0.02 2 -1 2 C-1.144375 2.9075 -1.28875 3.815 -1.4375 4.75 C-2 8 -2 8 -2.6875 10.125 C-3.26421775 12.45185065 -3.26421775 12.45185065 -1 16 C-4.3 16 -7.6 16 -11 16 C-11 15.01 -11 14.02 -11 13 C-10.34 13 -9.68 13 -9 13 C-9.350625 12.4225 -9.70125 11.845 -10.0625 11.25 C-11.14917407 8.64198224 -10.93065133 7.60582371 -10 5 C-8.68 4.67 -7.36 4.34 -6 4 C-6 3.01 -6 2.02 -6 1 C-3.125 0.375 -3.125 0.375 0 0 Z " fill="#131317" transform="translate(81,119)"/>
<path d="M0 0 C0.66 0 1.32 0 2 0 C0.42841363 3.87059272 -2.06622825 6.20418609 -5.0625 9.0625 C-8.82954005 12.5170026 -8.82954005 12.5170026 -11 17 C-10.01 17.33 -9.02 17.66 -8 18 C-9.09779824 19.15193623 -10.20349446 20.29634937 -11.3125 21.4375 C-11.92738281 22.07558594 -12.54226562 22.71367188 -13.17578125 23.37109375 C-15 25 -15 25 -18 26 C-18.495 26.515625 -18.99 27.03125 -19.5 27.5625 C-21 29 -21 29 -24 29 C-24 28.34 -24 27.68 -24 27 C-23.0925 26.46375 -22.185 25.9275 -21.25 25.375 C-17.9448626 23.28633678 -16.91374084 20.93800814 -15.3359375 17.37109375 C-12.49848288 12.33502663 -8.17734249 7.95901448 -4 4 C-3.34 4 -2.68 4 -2 4 C-1.34 2.68 -0.68 1.36 0 0 Z " fill="#A9A8B5" transform="translate(118,101)"/>
<path d="M0 0 C0.66 0.99 1.32 1.98 2 3 C1.01 3 0.02 3 -1 3 C-1 3.99 -1 4.98 -1 6 C-0.01 6.33 0.98 6.66 2 7 C0.02 7.99 0.02 7.99 -2 9 C-1.896875 9.9075 -1.79375 10.815 -1.6875 11.75 C-2 15 -2 15 -4.25 17.125 C-5.1575 17.74375 -6.065 18.3625 -7 19 C-8.35147138 20.31494512 -9.69112542 21.64264858 -11 23 C-10.67 20.36 -10.34 17.72 -10 15 C-8.68 15 -7.36 15 -6 15 C-6.4125 14.154375 -6.825 13.30875 -7.25 12.4375 C-8.06722452 8.69188761 -7.94079993 8.24233484 -6.125 5.125 C-5.42375 4.09375 -4.7225 3.0625 -4 2 C-2.68 2 -1.36 2 0 2 C0 1.34 0 0.68 0 0 Z " fill="#2A2931" transform="translate(118,90)"/>
<path d="M0 0 C1.65 0 3.3 0 5 0 C5 1.32 5 2.64 5 4 C3.68 4 2.36 4 1 4 C1.66 4.66 2.32 5.32 3 6 C3 6.99 3 7.98 3 9 C2.01 9 1.02 9 0 9 C0 9.66 0 10.32 0 11 C-2.97 11 -5.94 11 -9 11 C-9 12.98 -9 14.96 -9 17 C-10.32 16.34 -11.64 15.68 -13 15 C-9.20560748 7.68224299 -9.20560748 7.68224299 -5 6 C-4.34 5.01 -3.68 4.02 -3 3 C-2.01 3 -1.02 3 0 3 C0 2.01 0 1.02 0 0 Z " fill="#2A2931" transform="translate(133,85)"/>
<path d="M0 0 C5.67177385 -0.45374191 8.5975268 0.34916857 13 4 C13 4.66 13 5.32 13 6 C14.32 6 15.64 6 17 6 C17 6.66 17 7.32 17 8 C14.03 8 11.06 8 8 8 C7.67 7.01 7.34 6.02 7 5 C6.34 5 5.68 5 5 5 C5 5.99 5 6.98 5 8 C2.69 7.67 0.38 7.34 -2 7 C-2 6.01 -2 5.02 -2 4 C-0.35 3.67 1.3 3.34 3 3 C2.01 3 1.02 3 0 3 C0 2.01 0 1.02 0 0 Z " fill="#5C5B62" transform="translate(69,112)"/>
<path d="M0 0 C2.875 0.3125 2.875 0.3125 6 1 C6.66 1.99 7.32 2.98 8 4 C7.16855469 4.29003906 7.16855469 4.29003906 6.3203125 4.5859375 C5.59585938 4.84632812 4.87140625 5.10671875 4.125 5.375 C3.40570313 5.63023438 2.68640625 5.88546875 1.9453125 6.1484375 C-0.18157994 6.93877783 -0.18157994 6.93877783 -2 9 C-1.67673447 12.59679066 -1.67673447 12.59679066 -1 16 C-3.5625 13.8125 -3.5625 13.8125 -6 11 C-6.125 8.3125 -6.125 8.3125 -5 6 C-2.4375 4.6875 -2.4375 4.6875 0 4 C0 2.68 0 1.36 0 0 Z " fill="#686773" transform="translate(44,90)"/>
<path d="M0 0 C1.65 0 3.3 0 5 0 C5 4 5 4 2.69921875 6.359375 C1.70535156 7.14828125 0.71148437 7.9371875 -0.3125 8.75 C-1.79169922 9.94882813 -1.79169922 9.94882813 -3.30078125 11.171875 C-6 13 -6 13 -9 13 C-9 12.34 -9 11.68 -9 11 C-8.01 11 -7.02 11 -6 11 C-6.66 10.67 -7.32 10.34 -8 10 C-8 8.68 -8 7.36 -8 6 C-6.35 5.34 -4.7 4.68 -3 4 C-2.67 4.33 -2.34 4.66 -2 5 C-1.34 3.35 -0.68 1.7 0 0 Z " fill="#6A6971" transform="translate(142,83)"/>
<path d="M0 0 C1.32 0 2.64 0 4 0 C3.625 2.4375 3.625 2.4375 3 5 C2.01 5.495 2.01 5.495 1 6 C1 6.66 1 7.32 1 8 C-5.75 8.125 -5.75 8.125 -8 7 C-8 6.01 -8 5.02 -8 4 C-8.66 3.67 -9.32 3.34 -10 3 C-9.67 2.34 -9.34 1.68 -9 1 C-4.25 1.875 -4.25 1.875 -2 3 C-1.34 2.01 -0.68 1.02 0 0 Z " fill="#24242A" transform="translate(83,137)"/>
<path d="M0 0 C-0.33 1.32 -0.66 2.64 -1 4 C-1.99 4 -2.98 4 -4 4 C-4 5.32 -4 6.64 -4 8 C-4.66 8 -5.32 8 -6 8 C-6 8.66 -6 9.32 -6 10 C-6.804375 10.2475 -7.60875 10.495 -8.4375 10.75 C-11.171081 11.72238859 -11.171081 11.72238859 -11.8125 14.125 C-11.874375 14.74375 -11.93625 15.3625 -12 16 C-13.32 15.67 -14.64 15.34 -16 15 C-15.21625 14.0925 -14.4325 13.185 -13.625 12.25 C-12.13072774 10.4726901 -11.02695322 9.05929708 -10.0625 6.9375 C-7.92840513 3.04591523 -4.52852444 0 0 0 Z " fill="#464451" transform="translate(140,66)"/>
<path d="M0 0 C0 0.66 0 1.32 0 2 C-0.66 2 -1.32 2 -2 2 C0.03268602 4.16343011 0.03268602 4.16343011 3 6 C3.40843923 8.71203652 3.13336867 11.2437142 3 14 C-0.86306207 12.5347006 -2.1428051 10.62997185 -4 7 C-4.69313908 5.34416775 -5.36474424 3.67889021 -6 2 C-6.33 1.34 -6.66 0.68 -7 0 C-2.25 -1.125 -2.25 -1.125 0 0 Z " fill="#47474D" transform="translate(72,130)"/>
<path d="M0 0 C0 3 0 3 -1.0625 5.375 C-2.14117981 8.39530346 -1.86796258 9.96213098 -1 13 C-2.98 13.66 -4.96 14.32 -7 15 C-6 13 -5 11 -4 9 C-5.32 9 -6.64 9 -8 9 C-8.33 9.99 -8.66 10.98 -9 12 C-11.5625 13.1875 -11.5625 13.1875 -14 14 C-14 13.34 -14 12.68 -14 12 C-13.21625 11.7525 -12.4325 11.505 -11.625 11.25 C-8.90126024 10.28320084 -8.90126024 10.28320084 -8.0625 8.125 C-6.83761032 5.67522064 -5.48719502 4.4710478 -3.375 2.75 C-2.74335937 2.22921875 -2.11171875 1.7084375 -1.4609375 1.171875 C-0.73777344 0.59179688 -0.73777344 0.59179688 0 0 Z " fill="#575661" transform="translate(113,92)"/>
<path d="M0 0 C1.0828125 0.37125 1.0828125 0.37125 2.1875 0.75 C1.1975 2.235 1.1975 2.235 0.1875 3.75 C-0.4725 3.75 -1.1325 3.75 -1.8125 3.75 C-2.4725 6.72 -3.1325 9.69 -3.8125 12.75 C-4.8025 11.76 -5.7925 10.77 -6.8125 9.75 C-6.8125 9.09 -6.8125 8.43 -6.8125 7.75 C-8.1325 7.42 -9.4525 7.09 -10.8125 6.75 C-9.8225 6.42 -8.8325 6.09 -7.8125 5.75 C-7.8125 5.09 -7.8125 4.43 -7.8125 3.75 C-3.73086735 -0.33163265 -3.73086735 -0.33163265 0 0 Z " fill="#1F1F23" transform="translate(144.8125,77.25)"/>
<path d="M0 0 C0 3 0 3 -1 6 C-1.66 6 -2.32 6 -3 6 C-3 6.66 -3 7.32 -3 8 C-1.35 8.33 0.3 8.66 2 9 C1.01 9.495 1.01 9.495 0 10 C0 10.66 0 11.32 0 12 C-1.98 12.66 -3.96 13.32 -6 14 C-6 11 -6 11 -5 10 C-6.32 9.67 -7.64 9.34 -9 9 C-6.03 6.03 -3.06 3.06 0 0 Z " fill="#57575E" transform="translate(123,82)"/>
<path d="M0 0 C0 0.66 0 1.32 0 2 C-0.99 2.66 -1.98 3.32 -3 4 C-3.33 4.99 -3.66 5.98 -4 7 C-2.68 6.67 -1.36 6.34 0 6 C-0.33 6.99 -0.66 7.98 -1 9 C-3.0625 9.6875 -3.0625 9.6875 -5 10 C-5 9.34 -5 8.68 -5 8 C-5.66 8 -6.32 8 -7 8 C-7 8.99 -7 9.98 -7 11 C-8.98 11.33 -10.96 11.66 -13 12 C-2.93659942 0 -2.93659942 0 0 0 Z " fill="#83838E" transform="translate(99,106)"/>
<path d="M0 0 C2.31 0 4.62 0 7 0 C7 0.99 7 1.98 7 3 C7.99 3 8.98 3 10 3 C9.67 3.66 9.34 4.32 9 5 C7.67203709 5.35412344 6.33783393 5.68521554 5 6 C4.01 6.66 3.02 7.32 2 8 C2 7.34 2 6.68 2 6 C1.01 5.67 0.02 5.34 -1 5 C-0.67 3.35 -0.34 1.7 0 0 Z " fill="#161519" transform="translate(62,112)"/>
<path d="M0 0 C0 1.65 0 3.3 0 5 C-0.61875 5.2475 -1.2375 5.495 -1.875 5.75 C-4.14291141 6.81460222 -4.14291141 6.81460222 -4.9375 9 C-6.39836667 11.74986668 -8.11305462 12.08833304 -11 13 C-11 11.68 -11 10.36 -11 9 C-9.35 8.34 -7.7 7.68 -6 7 C-6 6.34 -6 5.68 -6 5 C-5.34 5 -4.68 5 -4 5 C-4 3.68 -4 2.36 -4 1 C-1 0 -1 0 0 0 Z " fill="#232228" transform="translate(140,69)"/>
<path d="M0 0 C0.99 0.33 1.98 0.66 3 1 C2.01 1.495 2.01 1.495 1 2 C1.99 2.66 2.98 3.32 4 4 C4.33 3.67 4.66 3.34 5 3 C6.66617115 2.95936168 8.33388095 2.957279 10 3 C10.33 4.65 10.66 6.3 11 8 C7.535 9.485 7.535 9.485 4 11 C4 10.01 4 9.02 4 8 C4.99 7.67 5.98 7.34 7 7 C7.33 6.34 7.66 5.68 8 5 C7.0925 5.226875 6.185 5.45375 5.25 5.6875 C2 6 2 6 -0.375 4.5625 C-0.91125 4.046875 -1.4475 3.53125 -2 3 C-1.34 2.01 -0.68 1.02 0 0 Z " fill="#B7B7C1" transform="translate(153,66)"/>
<path d="M0 0 C0.66 0 1.32 0 2 0 C2 0.99 2 1.98 2 3 C2.66 3 3.32 3 4 3 C4 5 4 5 2.35546875 6.69140625 C1.64003906 7.30886719 0.92460938 7.92632812 0.1875 8.5625 C-0.87404297 9.49255859 -0.87404297 9.49255859 -1.95703125 10.44140625 C-4 12 -4 12 -7 13 C-7 12.34 -7 11.68 -7 11 C-6.01 10.34 -5.02 9.68 -4 9 C-3.03355976 7.08418896 -3.03355976 7.08418896 -2.375 4.9375 C-1.07629428 1.07629428 -1.07629428 1.07629428 0 0 Z " fill="#5A5A64" transform="translate(92,118)"/>
<path d="M0 0 C0.66 0 1.32 0 2 0 C0.25 3.875 0.25 3.875 -2 5 C-2 4.01 -2 3.02 -2 2 C-1.34 2 -0.68 2 0 2 C0 1.34 0 0.68 0 0 Z M-4 5 C-3.34 5.33 -2.68 5.66 -2 6 C-2.93137592 7.29608947 -3.8703566 8.58671632 -4.8125 9.875 C-5.33457031 10.59429687 -5.85664062 11.31359375 -6.39453125 12.0546875 C-8 14 -8 14 -11 16 C-11.33 15.34 -11.66 14.68 -12 14 C-9.61042731 10.75700849 -7.7952131 8.49097658 -4 7 C-4 6.34 -4 5.68 -4 5 Z " fill="#1B1A20" transform="translate(127,87)"/>
<path d="M0 0 C1.65 0.33 3.3 0.66 5 1 C3.86280581 4.41158256 2.95657056 5.11854601 0 7 C-0.66 7 -1.32 7 -2 7 C-2.33 7.99 -2.66 8.98 -3 10 C-3.33 8.02 -3.66 6.04 -4 4 C-2.68 3.34 -1.36 2.68 0 2 C0 1.34 0 0.68 0 0 Z " fill="#27272C" transform="translate(96,121)"/>
<path d="M0 0 C0.66 0.33 1.32 0.66 2 1 C1.67 1.928125 1.34 2.85625 1 3.8125 C-0.14967004 6.92029291 -0.14967004 6.92029291 0 10 C-2.31 9.67 -4.62 9.34 -7 9 C-7 8.01 -7 7.02 -7 6 C-6.21625 5.938125 -5.4325 5.87625 -4.625 5.8125 C-3.75875 5.544375 -2.8925 5.27625 -2 5 C-0.62533375 2.52363988 -0.62533375 2.52363988 0 0 Z " fill="#0E0E11" transform="translate(101,112)"/>
<path d="M0 0 C-1.47582808 1.66962369 -2.95574891 3.3356306 -4.4375 5 C-5.26121094 5.928125 -6.08492188 6.85625 -6.93359375 7.8125 C-7.61550781 8.534375 -8.29742187 9.25625 -9 10 C-9.33 10 -9.66 10 -10 10 C-10 8.35 -10 6.7 -10 5 C-9.01 5.33 -8.02 5.66 -7 6 C-7.185625 5.38125 -7.37125 4.7625 -7.5625 4.125 C-8 2 -8 2 -7 0 C-2.52459016 -1.26229508 -2.52459016 -1.26229508 0 0 Z " fill="#787880" transform="translate(131,96)"/>
<path d="M0 0 C0 0.66 0 1.32 0 2 C-1.98 2.99 -1.98 2.99 -4 4 C-4 4.66 -4 5.32 -4 6 C-6.31 6.33 -8.62 6.66 -11 7 C-10.67 5.35 -10.34 3.7 -10 2 C-9.01 2.33 -8.02 2.66 -7 3 C-2.82608696 0 -2.82608696 0 0 0 Z " fill="#141417" transform="translate(93,127)"/>
<path d="M0 0 C0.66 0 1.32 0 2 0 C1.79375 1.0725 1.5875 2.145 1.375 3.25 C1.0123809 6.87619096 1.01637931 8.08291076 3 11 C0.69 10.34 -1.62 9.68 -4 9 C-4 8.01 -4 7.02 -4 6 C-3.01 6 -2.02 6 -1 6 C-1.020625 5.195625 -1.04125 4.39125 -1.0625 3.5625 C-1 1 -1 1 0 0 Z " fill="#1E1E23" transform="translate(77,124)"/>
<path d="M0 0 C1.1446875 0.3403125 1.1446875 0.3403125 2.3125 0.6875 C-1.203125 5.375 -1.203125 5.375 -2.6875 6.6875 C-4.0075 6.6875 -5.3275 6.6875 -6.6875 6.6875 C-6.28750283 4.36751641 -5.78182121 2.82426576 -4.4375 0.875 C-2.6875 -0.3125 -2.6875 -0.3125 0 0 Z " fill="#71707E" transform="translate(113.6875,111.3125)"/>
<path d="M0 0 C1.65 0 3.3 0 5 0 C5 1.32 5 2.64 5 4 C3.68 4 2.36 4 1 4 C1 4.66 1 5.32 1 6 C-0.65 6 -2.3 6 -4 6 C-3.67 5.01 -3.34 4.02 -3 3 C-2.01 3 -1.02 3 0 3 C0 2.01 0 1.02 0 0 Z " fill="#292830" transform="translate(133,85)"/>
<path d="M0 0 C2.475 0.495 2.475 0.495 5 1 C5 1.66 5 2.32 5 3 C5.99 2.67 6.98 2.34 8 2 C7.67 3.65 7.34 5.3 7 7 C4.0625 5.75 4.0625 5.75 1 4 C0.125 1.8125 0.125 1.8125 0 0 Z " fill="#6E6E76" transform="translate(74,134)"/>
<path d="M0 0 C0.66 0 1.32 0 2 0 C0.52278578 3.45201639 -1.43794001 5.64961936 -4.125 8.25 C-4.84945312 8.95640625 -5.57390625 9.6628125 -6.3203125 10.390625 C-6.87460938 10.92171875 -7.42890625 11.4528125 -8 12 C-8.33 11.34 -8.66 10.68 -9 10 C-7.38405168 7.95880212 -5.7143618 5.95927063 -4 4 C-3.34 4 -2.68 4 -2 4 C-1.34 2.68 -0.68 1.36 0 0 Z " fill="#BABCC3" transform="translate(118,101)"/>
<path d="M0 0 C0.66 0.33 1.32 0.66 2 1 C2 2.65 2 4.3 2 6 C-0.31 6.66 -2.62 7.32 -5 8 C-4.6875 6.0625 -4.6875 6.0625 -4 4 C-3.01 3.67 -2.02 3.34 -1 3 C-0.67 2.01 -0.34 1.02 0 0 Z " fill="#3A3844" transform="translate(100,105)"/>
<path d="M0 0 C0.66 0.33 1.32 0.66 2 1 C0.35 2.65 -1.3 4.3 -3 6 C-2.01 6 -1.02 6 0 6 C0.33 7.98 0.66 9.96 1 12 C-1.5625 9.8125 -1.5625 9.8125 -4 7 C-4 4.3125 -4 4.3125 -3 2 C-2.01 1.34 -1.02 0.68 0 0 Z " fill="#A9A9B7" transform="translate(42,94)"/>
<path d="M0 0 C0.66 0.99 1.32 1.98 2 3 C1.01 3.33 0.02 3.66 -1 4 C-2.00642948 5.32848691 -3.00692179 6.66150329 -4 8 C-4.66 8 -5.32 8 -6 8 C-6 8.66 -6 9.32 -6 10 C-6.66 9.67 -7.32 9.34 -8 9 C-6.68 6.69 -5.36 4.38 -4 2 C-2.68 2 -1.36 2 0 2 C0 1.34 0 0.68 0 0 Z " fill="#1A1A1F" transform="translate(118,90)"/>
<path d="M0 0 C3.35111834 2.23407889 4.81553956 3.26215824 5.8125 7.25 C5.874375 8.1575 5.93625 9.065 6 10 C1.77202073 6.91709845 1.77202073 6.91709845 0 5 C-0.375 2.1875 -0.375 2.1875 0 0 Z " fill="#616169" transform="translate(43,102)"/>
<path d="M0 0 C0.33 0.99 0.66 1.98 1 3 C1.66 3 2.32 3 3 3 C3 2.34 3 1.68 3 1 C3.99 1 4.98 1 6 1 C5.1875 2.9375 5.1875 2.9375 4 5 C3.01 5.33 2.02 5.66 1 6 C1 5.34 1 4.68 1 4 C-0.32 4 -1.64 4 -3 4 C-3 3.34 -3 2.68 -3 2 C-2.01 1.34 -1.02 0.68 0 0 Z " fill="#848491" transform="translate(146,79)"/>
<path d="M0 0 C0.33 0.66 0.66 1.32 1 2 C0.01 3.485 0.01 3.485 -1 5 C-1.99 5 -2.98 5 -4 5 C-4.33 5.99 -4.66 6.98 -5 8 C-7.5625 9.1875 -7.5625 9.1875 -10 10 C-10 9.34 -10 8.68 -10 8 C-9.21625 7.7525 -8.4325 7.505 -7.625 7.25 C-4.58535135 5.80254826 -4.30093863 4.97357402 -3 2 C-2.01 1.34 -1.02 0.68 0 0 Z " fill="#9F9EA7" transform="translate(109,96)"/>
<path d="M0 0 C0.53625 0.2475 1.0725 0.495 1.625 0.75 C1.026875 1.018125 0.42875 1.28625 -0.1875 1.5625 C-2.41767613 2.63022403 -2.41767613 2.63022403 -3.9375 4.375 C-5.375 5.75 -5.375 5.75 -8.375 5.75 C-8.375 5.09 -8.375 4.43 -8.375 3.75 C-3.23290173 -0.34030544 -3.23290173 -0.34030544 0 0 Z " fill="#B3B3BE" transform="translate(102.375,124.25)"/>
<path d="M0 0 C0.66 0.33 1.32 0.66 2 1 C1.67 1.66 1.34 2.32 1 3 C1.99 3.33 2.98 3.66 4 4 C4.33 4.99 4.66 5.98 5 7 C4.01 7.33 3.02 7.66 2 8 C2 7.34 2 6.68 2 6 C1.01 5.67 0.02 5.34 -1 5 C-0.67 3.35 -0.34 1.7 0 0 Z " fill="#0F0F12" transform="translate(62,112)"/>
<path d="M0 0 C2.31 0 4.62 0 7 0 C7 0.99 7 1.98 7 3 C6.01 3 5.02 3 4 3 C4 3.66 4 4.32 4 5 C3.01 4.67 2.02 4.34 1 4 C0.3125 1.9375 0.3125 1.9375 0 0 Z " fill="#373641" transform="translate(129,91)"/>
<path d="M0 0 C0.66 0.66 1.32 1.32 2 2 C1.01 2 0.02 2 -1 2 C-1.33 3.32 -1.66 4.64 -2 6 C-2.99 5.67 -3.98 5.34 -5 5 C-5.6875 2.9375 -5.6875 2.9375 -6 1 C-3.125 0.375 -3.125 0.375 0 0 Z " fill="#17161B" transform="translate(81,119)"/>
<path d="M0 0 C0.99 0 1.98 0 3 0 C3.33 0.99 3.66 1.98 4 3 C3.01 3.495 3.01 3.495 2 4 C1.67 4.99 1.34 5.98 1 7 C0.01 7 -0.98 7 -2 7 C-1.125 2.25 -1.125 2.25 0 0 Z " fill="#7A7A8C" transform="translate(103,117)"/>
<path d="M0 0 C1.65 0 3.3 0 5 0 C5 1.32 5 2.64 5 4 C3.35 4 1.7 4 0 4 C0 2.68 0 1.36 0 0 Z " fill="#56565F" transform="translate(142,83)"/>
<path d="M0 0 C0.33 0.66 0.66 1.32 1 2 C0.67 2.99 0.34 3.98 0 5 C-0.99 5 -1.98 5 -3 5 C-3.268125 5.61875 -3.53625 6.2375 -3.8125 6.875 C-5 9 -5 9 -8 11 C-6.63629701 8.00779732 -5.05091917 5.70973471 -2.875 3.25 C-2.33617187 2.63640625 -1.79734375 2.0228125 -1.2421875 1.390625 C-0.62730469 0.70226563 -0.62730469 0.70226563 0 0 Z " fill="#C1C1C9" transform="translate(140,60)"/>
<path d="M0 0 C2 3 2 3 2 6 C1.67 6.66 1.34 7.32 1 8 C-0.32 8 -1.64 8 -3 8 C-3 7.01 -3 6.02 -3 5 C-2.34 5 -1.68 5 -1 5 C-1.33 4.01 -1.66 3.02 -2 2 C-1.34 2 -0.68 2 0 2 C0 1.34 0 0.68 0 0 Z " fill="#0C0D0F" transform="translate(73,127)"/>
<path d="M0 0 C0.99 0 1.98 0 3 0 C2.43628586 3.26954202 1.50037734 4.82575883 -1 7 C-1.625 4.625 -1.625 4.625 -2 2 C-1.34 1.34 -0.68 0.68 0 0 Z " fill="#59585D" transform="translate(90,129)"/>
<path d="M0 0 C0 0.66 0 1.32 0 2 C-0.99 2 -1.98 2 -3 2 C-3 3.65 -3 5.3 -3 7 C-3.28875 6.401875 -3.5775 5.80375 -3.875 5.1875 C-5.04742026 2.80672208 -5.04742026 2.80672208 -7 0 C-2.25 -1.125 -2.25 -1.125 0 0 Z " fill="#5B5B5F" transform="translate(72,130)"/>
<path d="M0 0 C3.3 0.33 6.6 0.66 10 1 C10 1.66 10 2.32 10 3 C7.03 3 4.06 3 1 3 C0.67 2.01 0.34 1.02 0 0 Z " fill="#525157" transform="translate(76,117)"/>
<path d="M0 0 C1.46726798 3.81489674 0.43336419 6.29011622 -1 10 C-2.65 10 -4.3 10 -6 10 C-5.65066406 9.52949219 -5.30132812 9.05898437 -4.94140625 8.57421875 C-4.48636719 7.95160156 -4.03132813 7.32898438 -3.5625 6.6875 C-2.88380859 5.76517578 -2.88380859 5.76517578 -2.19140625 4.82421875 C-0.82663692 2.90322899 -0.82663692 2.90322899 0 0 Z " fill="#91909A" transform="translate(130,72)"/>
<path d="M0 0 C1.9375 0.8125 1.9375 0.8125 4 2 C4.33 2.99 4.66 3.98 5 5 C3.35 5.33 1.7 5.66 0 6 C0 4.02 0 2.04 0 0 Z " fill="#2C2B31" transform="translate(150,68)"/>
<path d="M0 0 C1.32 0.33 2.64 0.66 4 1 C3.67 3.31 3.34 5.62 3 8 C2.67 7.01 2.34 6.02 2 5 C1.34 5 0.68 5 0 5 C0 3.35 0 1.7 0 0 Z " fill="#232326" transform="translate(155,56)"/>
<path d="M0 0 C2.375 0.25 2.375 0.25 5 1 C6.3125 3.0625 6.3125 3.0625 7 5 C6.01 5 5.02 5 4 5 C4 4.34 4 3.68 4 3 C2.35 3 0.7 3 -1 3 C-0.67 2.01 -0.34 1.02 0 0 Z " fill="#16151A" transform="translate(74,138)"/>
<path d="M0 0 C1.24546405 2.49092811 0.7767578 3.41080733 0 6 C-1.98 6.33 -3.96 6.66 -6 7 C-4.02 4.69 -2.04 2.38 0 0 Z " fill="#95949B" transform="translate(92,111)"/>
<path d="M0 0 C2.31 1.65 4.62 3.3 7 5 C3 6 3 6 1 6 C0.67 4.02 0.34 2.04 0 0 Z " fill="#87868A" transform="translate(60,104)"/>
<path d="M0 0 C0.99 0 1.98 0 3 0 C2.67 1.32 2.34 2.64 2 4 C0.35 4 -1.3 4 -3 4 C-1.6875 2 -1.6875 2 0 0 Z " fill="#504F5C" transform="translate(137,66)"/>
</svg>
