<?xml version="1.0" encoding="UTF-8"?>
<svg version="1.1" xmlns="http://www.w3.org/2000/svg" width="207" height="200">
<path d="M0 0 C2.5625 0.5625 2.5625 0.5625 4.625 3.375 C5.264375 4.426875 5.90375 5.47875 6.5625 6.5625 C7.26375 7.0575 7.965 7.5525 8.6875 8.0625 C11.31727307 10.16631845 11.69746587 12.36852782 12.5625 15.5625 C13.19585671 18.63154786 13.19585671 18.63154786 15.30078125 19.44921875 C16.42033203 20.00029297 16.42033203 20.00029297 17.5625 20.5625 C19.32712794 22.12757389 21.05130601 23.73859944 22.75 25.375 C28.34394686 30.66395182 34.31041697 35.32505239 40.51049805 39.88208008 C44.71695868 43.0087916 48.46637544 46.29857742 52.0871582 50.09228516 C53.61573661 51.7050282 53.61573661 51.7050282 55.9375 53.1875 C57.5625 54.5625 57.5625 54.5625 58.0625 57.125 C58.2275 57.929375 58.3925 58.73375 58.5625 59.5625 C60.49633287 60.86315921 60.49633287 60.86315921 62.5625 61.5625 C63.5625 62.5625 63.5625 62.5625 63.8125 65 C63.73 65.845625 63.6475 66.69125 63.5625 67.5625 C62.5725 68.2225 61.5825 68.8825 60.5625 69.5625 C60.748125 70.18125 60.93375 70.8 61.125 71.4375 C61.5625 73.5625 61.5625 73.5625 60.5625 75.5625 C55.12860129 75.18339079 53.16439372 73.53381872 49.5625 69.5625 C48.7375 68.9025 47.9125 68.2425 47.0625 67.5625 C44.35323798 65.39509038 42.01425543 63.01779331 39.5625 60.5625 C37.63416016 58.75916978 35.70019622 56.96670372 33.75 55.1875 C33.22591553 54.70780762 32.70183105 54.22811523 32.16186523 53.73388672 C29.18155668 51.0137094 26.1740379 48.3307724 23.125 45.6875 C19.37341735 42.42525422 15.77590396 39.15247761 12.75 35.1875 C10.8164748 32.86726976 8.86778907 30.77263414 6.6875 28.6875 C6.05070312 28.07132813 5.41390625 27.45515625 4.7578125 26.8203125 C2.56018661 25.30785999 2.56018661 25.30785999 -0.3671875 25.64453125 C-3.74403345 26.65414804 -5.88904163 28.00040354 -8.6875 30.125 C-13.25238934 33.5625 -13.25238934 33.5625 -15.4375 33.5625 C-15.4375 34.5525 -15.4375 35.5425 -15.4375 36.5625 C-17.76991778 38.52536587 -20.0852451 40.29938838 -22.5625 42.0625 C-24.04148947 43.14038529 -25.51933357 44.21984373 -26.99609375 45.30078125 C-27.74358887 45.84557129 -28.49108398 46.39036133 -29.26123047 46.95166016 C-32.44453206 49.307889 -35.53303206 51.7759852 -38.625 54.25 C-61.62583617 72.48133362 -61.62583617 72.48133362 -72.4375 73.5625 C-75.2149159 69.8592788 -75.78181972 67.09873681 -75.8359375 62.625 C-75.02005495 58.40160796 -73.01770217 56.021552 -69.6875 53.38671875 C-68.615 52.68160156 -67.5425 51.97648437 -66.4375 51.25 C-65.26360583 50.46461242 -64.09044029 49.67813478 -62.91796875 48.890625 C-62.33192871 48.50068359 -61.74588867 48.11074219 -61.14208984 47.70898438 C-55.14896001 43.67808525 -49.36558516 39.35176467 -43.75 34.8125 C-39.208824 31.14434491 -34.59083777 27.58651744 -29.9375 24.0625 C-28.87656128 23.25087402 -28.87656128 23.25087402 -27.79418945 22.42285156 C-27.12991943 21.92237305 -26.46564941 21.42189453 -25.78125 20.90625 C-25.18505859 20.45443359 -24.58886719 20.00261719 -23.97460938 19.53710938 C-22.4375 18.5625 -22.4375 18.5625 -20.4375 18.5625 C-20.4375 17.9025 -20.4375 17.2425 -20.4375 16.5625 C-19.4475 16.5625 -18.4575 16.5625 -17.4375 16.5625 C-17.251875 14.891875 -17.251875 14.891875 -17.0625 13.1875 C-16.4375 9.5625 -16.4375 9.5625 -14.4375 7.5625 C-13.839375 7.789375 -13.24125 8.01625 -12.625 8.25 C-11.903125 8.353125 -11.18125 8.45625 -10.4375 8.5625 C-8.02503687 6.44423969 -5.98153214 4.21987217 -3.9375 1.75 C-2.4375 0.5625 -2.4375 0.5625 0 0 Z " fill="#242525" transform="translate(108.4375,65.4375)"/>
<path d="M0 0 C0.99 0.495 0.99 0.495 2 1 C2.625 4.0625 2.625 4.0625 3 7 C2.01 6.67 1.02 6.34 0 6 C-0.66 7.32 -1.32 8.64 -2 10 C-2.66 10 -3.32 10 -4 10 C-4 10.66 -4 11.32 -4 12 C-2.515 11.505 -2.515 11.505 -1 11 C-1 11.99 -1 12.98 -1 14 C-1.8971875 13.7525 -1.8971875 13.7525 -2.8125 13.5 C-5.11344336 12.8885876 -5.11344336 12.8885876 -8 13 C-8.66 13.99 -9.32 14.98 -10 16 C-11.32 15.67 -12.64 15.34 -14 15 C-14.33 15.99 -14.66 16.98 -15 18 C-14.34 18.33 -13.68 18.66 -13 19 C-13.66 20.32 -14.32 21.64 -15 23 C-15.99 22.67 -16.98 22.34 -18 22 C-18 22.99 -18 23.98 -18 25 C-18.99 25.33 -19.98 25.66 -21 26 C-21.33 26.66 -21.66 27.32 -22 28 C-25.0625 28.625 -25.0625 28.625 -28 29 C-28 28.34 -28 27.68 -28 27 C-28.99 27 -29.98 27 -31 27 C-30.94199219 27.68707031 -30.88398437 28.37414062 -30.82421875 29.08203125 C-30.68834495 31.79562509 -30.63260696 34.30578435 -31 37 C-33.4375 38.8125 -33.4375 38.8125 -36 40 C-36.88658466 42.59122743 -36.88658466 42.59122743 -37 45 C-34.25470129 43.43125788 -31.84888732 41.87100137 -29.4375 39.8125 C-27 38 -27 38 -23 38 C-23 37.34 -23 36.68 -23 36 C-22.34 36 -21.68 36 -21 36 C-21 35.34 -21 34.68 -21 34 C-19.35 34.33 -17.7 34.66 -16 35 C-16 34.01 -16 33.02 -16 32 C-15.01 32 -14.02 32 -13 32 C-12.67 30.68 -12.34 29.36 -12 28 C-11.01 28 -10.02 28 -9 28 C-9 27.34 -9 26.68 -9 26 C-7.68 26.33 -6.36 26.66 -5 27 C-5.66 27 -6.32 27 -7 27 C-7 27.99 -7 28.98 -7 30 C-9.33241778 31.96286587 -11.6477451 33.73688838 -14.125 35.5 C-15.60398947 36.57788529 -17.08183357 37.65734373 -18.55859375 38.73828125 C-19.30608887 39.28307129 -20.05358398 39.82786133 -20.82373047 40.38916016 C-24.00703206 42.745389 -27.09553206 45.2134852 -30.1875 47.6875 C-53.18833617 65.91883362 -53.18833617 65.91883362 -64 67 C-66.7774159 63.2967788 -67.34431972 60.53623681 -67.3984375 56.0625 C-66.58255495 51.83910796 -64.58020217 49.459052 -61.25 46.82421875 C-60.1775 46.11910156 -59.105 45.41398437 -58 44.6875 C-56.82610583 43.90211242 -55.65294029 43.11563478 -54.48046875 42.328125 C-53.89442871 41.93818359 -53.30838867 41.54824219 -52.70458984 41.14648438 C-46.71146001 37.11558525 -40.92808516 32.78926467 -35.3125 28.25 C-30.771324 24.58184491 -26.15333777 21.02401744 -21.5 17.5 C-20.43906128 16.68837402 -20.43906128 16.68837402 -19.35668945 15.86035156 C-18.36028442 15.10963379 -18.36028442 15.10963379 -17.34375 14.34375 C-16.74755859 13.89193359 -16.15136719 13.44011719 -15.53710938 12.97460938 C-14 12 -14 12 -12 12 C-12 11.34 -12 10.68 -12 10 C-11.01 10 -10.02 10 -9 10 C-8.814375 8.329375 -8.814375 8.329375 -8.625 6.625 C-8 3 -8 3 -6 1 C-4.66666667 1.33333333 -3.33333333 1.66666667 -2 2 C-1.34 1.34 -0.68 0.68 0 0 Z " fill="#1C1D1D" transform="translate(100,72)"/>
<path d="M0 0 C2.5 0.125 2.5 0.125 3.5 1.125 C3.57205511 2.81108966 3.58386068 4.50000659 3.5625 6.1875 C3.55347656 7.10660156 3.54445312 8.02570313 3.53515625 8.97265625 C3.52355469 9.68292969 3.51195312 10.39320312 3.5 11.125 C4.12390625 11.4240625 4.7478125 11.723125 5.390625 12.03125 C7.56982906 13.16120766 8.93361528 14.24533834 10.5 16.125 C10.5 16.785 10.5 17.445 10.5 18.125 C11.16 18.125 11.82 18.125 12.5 18.125 C11.625 25.875 11.625 25.875 10.5 28.125 C8.28541624 27.65044634 6.57932046 27.17259227 4.625 26 C1.42727487 24.68328965 -0.17719472 25.12188897 -3.5 26.125 C-5.82996677 27.61107421 -8.05115177 29.17890286 -10.25390625 30.84765625 C-12.87879171 32.3404172 -14.5280643 32.37048502 -17.5 32.125 C-17.5 32.785 -17.5 33.445 -17.5 34.125 C-18.985 34.62 -18.985 34.62 -20.5 35.125 C-20.83 36.115 -21.16 37.105 -21.5 38.125 C-22.49 38.125 -23.48 38.125 -24.5 38.125 C-24.5 39.115 -24.5 40.105 -24.5 41.125 C-26.15 40.795 -27.8 40.465 -29.5 40.125 C-29.5 40.785 -29.5 41.445 -29.5 42.125 C-30.16 42.125 -30.82 42.125 -31.5 42.125 C-31.5 42.785 -31.5 43.445 -31.5 44.125 C-32.5725 44.5375 -33.645 44.95 -34.75 45.375 C-38.05617557 46.7681264 -40.00359139 48.53943394 -42.5 51.125 C-43.49 51.125 -44.48 51.125 -45.5 51.125 C-45.995 49.64 -45.995 49.64 -46.5 48.125 C-44.87660195 46.41615995 -43.20680947 44.75053283 -41.5 43.125 C-40.84 43.125 -40.18 43.125 -39.5 43.125 C-39.685625 42.031875 -39.87125 40.93875 -40.0625 39.8125 C-40.5 36.125 -40.5 36.125 -39.5 33.125 C-38.51 33.125 -37.52 33.125 -36.5 33.125 C-36.5 33.785 -36.5 34.445 -36.5 35.125 C-33.53 34.63 -33.53 34.63 -30.5 34.125 C-30.17 33.135 -29.84 32.145 -29.5 31.125 C-28.51 31.125 -27.52 31.125 -26.5 31.125 C-26.5 30.135 -26.5 29.145 -26.5 28.125 C-25.51 27.795 -24.52 27.465 -23.5 27.125 C-23.5 26.135 -23.5 25.145 -23.5 24.125 C-23.1937566 22.78518514 -22.86548445 21.44988113 -22.5 20.125 C-21.901875 20.351875 -21.30375 20.57875 -20.6875 20.8125 C-19.965625 20.915625 -19.24375 21.01875 -18.5 21.125 C-18.04625 20.63 -17.5925 20.135 -17.125 19.625 C-16.58875 19.13 -16.0525 18.635 -15.5 18.125 C-12.3125 18.4375 -12.3125 18.4375 -9.5 19.125 C-10.49 18.795 -11.48 18.465 -12.5 18.125 C-12.5 16.125 -12.5 16.125 -10.625 14.0625 C-8.5 12.125 -8.5 12.125 -6.5 11.125 C-6.7475 10.58875 -6.995 10.0525 -7.25 9.5 C-7.63691519 5.82430574 -5.65314321 3.97474836 -3.5 1.125 C-2.5 0.125 -2.5 0.125 0 0 Z " fill="#131414" transform="translate(108.5,65.875)"/>
<path d="M0 0 C2.38564077 0.57584432 4.66682784 1.22227595 7 2 C7.495 5.96 7.495 5.96 8 10 C6.35 10 4.7 10 3 10 C3 11.32 3 12.64 3 14 C1.68 14 0.36 14 -1 14 C-1 14.66 -1 15.32 -1 16 C-1.99 16.33 -2.98 16.66 -4 17 C-4.33 17.99 -4.66 18.98 -5 20 C-5.99 20 -6.98 20 -8 20 C-8 20.99 -8 21.98 -8 23 C-9.65 22.67 -11.3 22.34 -13 22 C-13 22.66 -13 23.32 -13 24 C-13.66 24 -14.32 24 -15 24 C-15 24.66 -15 25.32 -15 26 C-16.0725 26.4125 -17.145 26.825 -18.25 27.25 C-21.55617557 28.6431264 -23.50359139 30.41443394 -26 33 C-26.99 33 -27.98 33 -29 33 C-29.33 32.01 -29.66 31.02 -30 30 C-28.37660195 28.29115995 -26.70680947 26.62553283 -25 25 C-24.34 25 -23.68 25 -23 25 C-23.185625 23.906875 -23.37125 22.81375 -23.5625 21.6875 C-24 18 -24 18 -23 15 C-22.01 15 -21.02 15 -20 15 C-20 15.66 -20 16.32 -20 17 C-18.02 16.67 -16.04 16.34 -14 16 C-13.67 15.01 -13.34 14.02 -13 13 C-12.01 13 -11.02 13 -10 13 C-10 12.01 -10 11.02 -10 10 C-9.01 9.67 -8.02 9.34 -7 9 C-7 8.01 -7 7.02 -7 6 C-6.6937566 4.66018514 -6.36548445 3.32488113 -6 2 C-4.68 2.33 -3.36 2.66 -2 3 C-1.34 2.01 -0.68 1.02 0 0 Z " fill="#080909" transform="translate(92,84)"/>
<path d="M0 0 C7.65671642 5.95522388 7.65671642 5.95522388 9 12 C9.33 12.99 9.66 13.98 10 15 C10.55171875 15.27585937 11.1034375 15.55171875 11.671875 15.8359375 C15.03169878 17.51584939 17.54086343 20.07141194 20.25 22.625 C20.80429688 23.140625 21.35859375 23.65625 21.9296875 24.1875 C23.2902712 25.45425035 24.64565837 26.72657815 26 28 C25.34 28.66 24.68 29.32 24 30 C21.875 29.625 21.875 29.625 20 29 C20 29.66 20 30.32 20 31 C16.28400809 31.20086443 15.22791555 31.1519437 12 29 C12.99 31.31 13.98 33.62 15 36 C11.14985552 34.48744324 9.52840773 32.19769213 7 29 C5.06055298 27.24207758 3.05042917 25.63102321 1 24 C4 24 4 24 7 25 C7.66 21.7 8.32 18.4 9 15 C7.68 14.67 6.36 14.34 5 14 C3.98812105 12.34051852 2.9873454 10.67419438 2 9 C1.01 9 0.02 9 -1 9 C-0.67 6.03 -0.34 3.06 0 0 Z " fill="#28282B" transform="translate(112,69)"/>
<path d="M0 0 C0.66 0.33 1.32 0.66 2 1 C2.625 4.0625 2.625 4.0625 3 7 C2.01 6.67 1.02 6.34 0 6 C-0.66 7.32 -1.32 8.64 -2 10 C-2.66 10 -3.32 10 -4 10 C-4 10.66 -4 11.32 -4 12 C-3.01 11.67 -2.02 11.34 -1 11 C-1 11.99 -1 12.98 -1 14 C-1.598125 13.835 -2.19625 13.67 -2.8125 13.5 C-5.11344336 12.8885876 -5.11344336 12.8885876 -8 13 C-8.99 14.485 -8.99 14.485 -10 16 C-11.32 15.67 -12.64 15.34 -14 15 C-14.33 15.99 -14.66 16.98 -15 18 C-14.34 18.33 -13.68 18.66 -13 19 C-13.66 20.32 -14.32 21.64 -15 23 C-16.98 22.67 -18.96 22.34 -21 22 C-19.76697292 17.06789169 -18.28039122 14.78225429 -14 12 C-13.34 12 -12.68 12 -12 12 C-12 11.34 -12 10.68 -12 10 C-11.01 10 -10.02 10 -9 10 C-8.87625 8.88625 -8.7525 7.7725 -8.625 6.625 C-8 3 -8 3 -6 1 C-4.66666667 1.33333333 -3.33333333 1.66666667 -2 2 C-1.34 1.34 -0.68 0.68 0 0 Z " fill="#0B0C0C" transform="translate(100,72)"/>
<path d="M0 0 C4.28806873 0.47645208 6.26647487 1.65902484 9 5 C9 5.66 9 6.32 9 7 C9.66 7 10.32 7 11 7 C10.125 14.75 10.125 14.75 9 17 C6.07120629 16.37240135 3.63904371 15.41377341 1 14 C1 13.01 1 12.02 1 11 C-0.65 11 -2.3 11 -4 11 C-2.95902388 7.13351728 -1.96301592 3.50538557 0 0 Z " fill="#0E0F0F" transform="translate(110,77)"/>
<path d="M0 0 C-8.17989382 8.46298669 -20.47415261 19.68685382 -33 20 C-33.66 19.34 -34.32 18.68 -35 18 C-35 17.01 -35 16.02 -35 15 C-34.34 15 -33.68 15 -33 15 C-33 15.99 -33 16.98 -33 18 C-29.04 17.505 -29.04 17.505 -25 17 C-25 16.01 -25 15.02 -25 14 C-21.535 13.505 -21.535 13.505 -18 13 C-17.94199219 12.10152344 -17.88398437 11.20304688 -17.82421875 10.27734375 C-16.77212496 6.09389972 -15.2838183 5.0406746 -11.8125 2.5625 C-10.87019531 1.86253906 -9.92789063 1.16257812 -8.95703125 0.44140625 C-5.43362663 -1.27607896 -3.71835158 -1.01910377 0 0 Z " fill="#767779" transform="translate(69,119)"/>
<path d="M0 0 C0.66 0 1.32 0 2 0 C3 1 4 2 5 3 C5.99 3.33 6.98 3.66 8 4 C7.67 4.66 7.34 5.32 7 6 C8.32 6.33 9.64 6.66 11 7 C11 5.02 11 3.04 11 1 C14.40951722 2.13650574 15.37636276 3.25813125 17.6875 5.9375 C18.31011719 6.64777344 18.93273437 7.35804687 19.57421875 8.08984375 C21 10 21 10 21 12 C19.35 11.34 17.7 10.68 16 10 C16 11.65 16 13.3 16 15 C12.13447144 13.37482529 9.3970187 10.86698229 6.3125 8.0625 C5.33925781 7.18722656 4.36601562 6.31195313 3.36328125 5.41015625 C1 3 1 3 0 0 Z " fill="#535254" transform="translate(127,105)"/>
<path d="M0 0 C7.65671642 5.95522388 7.65671642 5.95522388 9 12 C9.63882044 15.0699506 9.63882044 15.0699506 11.765625 15.9296875 C12.87164062 16.45949219 12.87164062 16.45949219 14 17 C15.6179937 18.33404116 17.20038133 19.71211239 18.75 21.125 C19.54921875 21.84945312 20.3484375 22.57390625 21.171875 23.3203125 C21.77515625 23.87460938 22.3784375 24.42890625 23 25 C20 26 20 26 17 26 C16.87625 25.360625 16.7525 24.72125 16.625 24.0625 C16.41875 23.381875 16.2125 22.70125 16 22 C15.34 21.67 14.68 21.34 14 21 C14 20.34 14 19.68 14 19 C13.34 19 12.68 19 12 19 C10 17 10 17 9 15 C8.071875 14.8453125 8.071875 14.8453125 7.125 14.6875 C4.08271107 13.70323005 3.57787581 11.67552855 2 9 C1.01 9 0.02 9 -1 9 C-0.67 6.03 -0.34 3.06 0 0 Z " fill="#5B5B5C" transform="translate(112,69)"/>
<path d="M0 0 C0.33 0.99 0.66 1.98 1 3 C1.66 3 2.32 3 3 3 C2.34 5.97 1.68 8.94 1 12 C-4.73235729 10.08921424 -8.27838361 4.57227156 -12 0 C-7.74433453 -1.16063604 -4.3164922 -0.76173392 0 0 Z " fill="#262728" transform="translate(155,120)"/>
<path d="M0 0 C1.32 0.33 2.64 0.66 4 1 C3.34 1 2.68 1 2 1 C2 1.99 2 2.98 2 4 C0.64233398 5.36279297 0.64233398 5.36279297 -1.25390625 6.7421875 C-1.94419922 7.25136719 -2.63449219 7.76054688 -3.34570312 8.28515625 C-4.07724609 8.80980469 -4.80878906 9.33445312 -5.5625 9.875 C-6.26697266 10.39191406 -6.97144531 10.90882812 -7.69726562 11.44140625 C-12.10371278 14.6660321 -16.55247417 17.83237976 -21 21 C-21.33 20.01 -21.66 19.02 -22 18 C-21.01 17.67 -20.02 17.34 -19 17 C-19.33 16.34 -19.66 15.68 -20 15 C-19.34 14.67 -18.68 14.34 -18 14 C-18 13.34 -18 12.68 -18 12 C-16.68 12 -15.36 12 -14 12 C-14 11.34 -14 10.68 -14 10 C-13.34 10 -12.68 10 -12 10 C-12 9.34 -12 8.68 -12 8 C-10.35 8.33 -8.7 8.66 -7 9 C-7 8.01 -7 7.02 -7 6 C-6.01 6 -5.02 6 -4 6 C-3.67 4.68 -3.34 3.36 -3 2 C-2.01 2 -1.02 2 0 2 C0 1.34 0 0.68 0 0 Z " fill="#737474" transform="translate(91,98)"/>
<path d="M0 0 C0.66 0.33 1.32 0.66 2 1 C1.34 2.32 0.68 3.64 0 5 C0.99 4.67 1.98 4.34 3 4 C3 5.32 3 6.64 3 8 C2.01 8.33 1.02 8.66 0 9 C-0.33 9.66 -0.66 10.32 -1 11 C-4.0625 11.625 -4.0625 11.625 -7 12 C-7 11.34 -7 10.68 -7 10 C-7.99 10 -8.98 10 -10 10 C-10.33 10.99 -10.66 11.98 -11 13 C-11.99 12.34 -12.98 11.68 -14 11 C-9.38 7.37 -4.76 3.74 0 0 Z " fill="#555557" transform="translate(79,89)"/>
<path d="M0 0 C2.64 0.66 5.28 1.32 8 2 C8 1.34 8 0.68 8 0 C11.16115776 1.36983503 11.9927092 1.9890638 14 5 C12.68 5.33 11.36 5.66 10 6 C9.67 7.65 9.34 9.3 9 11 C7.68 10.34 6.36 9.68 5 9 C5 8.34 5 7.68 5 7 C4.360625 6.773125 3.72125 6.54625 3.0625 6.3125 C1 5 1 5 0.25 2.375 C0.1675 1.59125 0.085 0.8075 0 0 Z " fill="#111112" transform="translate(124,98)"/>
<path d="M0 0 C0.66 1.32 1.32 2.64 2 4 C2.99 4 3.98 4 5 4 C5 4.66 5 5.32 5 6 C4.01 6 3.02 6 2 6 C2.33 8.31 2.66 10.62 3 13 C1.35 13.33 -0.3 13.66 -2 14 C-2 13.01 -2 12.02 -2 11 C-2.66 11 -3.32 11 -4 11 C-4.49230769 4.6 -4.49230769 4.6 -2 1.5625 C-1.34 1.046875 -0.68 0.53125 0 0 Z " fill="#0D0E0E" transform="translate(38,123)"/>
<path d="M0 0 C0.268125 0.639375 0.53625 1.27875 0.8125 1.9375 C1.88667752 4.33131686 1.88667752 4.33131686 5 5 C5 5.99 5 6.98 5 8 C6.32 8.33 7.64 8.66 9 9 C9 9.66 9 10.32 9 11 C6.525 10.01 6.525 10.01 4 9 C4.99 11.31 5.98 13.62 7 16 C3.14985552 14.48744324 1.52840773 12.19769213 -1 9 C-2.93944702 7.24207758 -4.94957083 5.63102321 -7 4 C-4 4 -4 4 -1 5 C-0.67 3.35 -0.34 1.7 0 0 Z " fill="#383939" transform="translate(120,89)"/>
<path d="M0 0 C1.11375 0.3403125 1.11375 0.3403125 2.25 0.6875 C2.5625 4 2.5625 4 2.25 7.6875 C-0.39755663 10.03247873 -2.0436993 10.64041329 -5.5625 10.875 C-6.284375 10.813125 -7.00625 10.75125 -7.75 10.6875 C-7.09 9.6975 -6.43 8.7075 -5.75 7.6875 C-5.09 7.6875 -4.43 7.6875 -3.75 7.6875 C-3.42 6.6975 -3.09 5.7075 -2.75 4.6875 C-1.1875 3 -1.1875 3 0.25 1.6875 C-0.74 1.6875 -1.73 1.6875 -2.75 1.6875 C-2.75 2.3475 -2.75 3.0075 -2.75 3.6875 C-4.63069983 6.2995831 -5.72535795 6.68218505 -8.9375 7.375 C-10.3296875 7.5296875 -10.3296875 7.5296875 -11.75 7.6875 C-3.84513274 -0.4369469 -3.84513274 -0.4369469 0 0 Z " fill="#303133" transform="translate(66.75,101.3125)"/>
<path d="M0 0 C1.67542976 0.28604898 3.34385343 0.61781233 5 1 C5 1.66 5 2.32 5 3 C7.97 3.495 7.97 3.495 11 4 C10.45859375 4.25523438 9.9171875 4.51046875 9.359375 4.7734375 C6.54508212 6.23649704 3.91789308 7.90992588 1.25 9.625 C-0.22726563 10.57246094 -0.22726563 10.57246094 -1.734375 11.5390625 C-2.48203125 12.02117187 -3.2296875 12.50328125 -4 13 C-4.33 11.68 -4.66 10.36 -5 9 C-3.35 9 -1.7 9 0 9 C-0.185625 7.700625 -0.37125 6.40125 -0.5625 5.0625 C-0.87890625 2.84765625 -0.87890625 2.84765625 -1 1 C-0.67 0.67 -0.34 0.34 0 0 Z " fill="#383939" transform="translate(100,85)"/>
<path d="M0 0 C0.99 0 1.98 0 3 0 C3 1.98 3 3.96 3 6 C1.35 5.67 -0.3 5.34 -2 5 C-2.33 5.99 -2.66 6.98 -3 8 C-2.34 8.33 -1.68 8.66 -1 9 C-1.66 10.32 -2.32 11.64 -3 13 C-5.97 12.505 -5.97 12.505 -9 12 C-7.76697292 7.06789169 -6.28039122 4.78225429 -2 2 C-1.34 2 -0.68 2 0 2 C0 1.34 0 0.68 0 0 Z " fill="#222324" transform="translate(88,82)"/>
<path d="M0 0 C0.66 0.33 1.32 0.66 2 1 C2.40729228 3.32156597 2.74438677 5.6568787 3 8 C1.68 8.33 0.36 8.66 -1 9 C-1 9.99 -1 10.98 -1 12 C-1.99 12 -2.98 12 -4 12 C-4.33 9.36 -4.66 6.72 -5 4 C-4.01 3.67 -3.02 3.34 -2 3 C-2 2.34 -2 1.68 -2 1 C-1.34 0.67 -0.68 0.34 0 0 Z " fill="#090B0A" transform="translate(106,69)"/>
<path d="M0 0 C1.32 0.33 2.64 0.66 4 1 C4.33 2.65 4.66 4.3 5 6 C4.34 6 3.68 6 3 6 C2.34 7.32 1.68 8.64 1 10 C0.01 10 -0.98 10 -2 10 C-2 10.66 -2 11.32 -2 12 C-2.66 12 -3.32 12 -4 12 C-4 10.68 -4 9.36 -4 8 C-3.01 7.67 -2.02 7.34 -1 7 C-1 6.01 -1 5.02 -1 4 C-0.6937566 2.66018514 -0.36548445 1.32488113 0 0 Z " fill="#121313" transform="translate(86,86)"/>
<path d="M0 0 C1.65 0 3.3 0 5 0 C0.6491213 5.33971476 -5.97552782 8.18987352 -12.5 9.9375 C-13.325 9.958125 -14.15 9.97875 -15 10 C-15.66 9.34 -16.32 8.68 -17 8 C-17 7.01 -17 6.02 -17 5 C-16.34 5 -15.68 5 -15 5 C-15 5.99 -15 6.98 -15 8 C-12.36 7.67 -9.72 7.34 -7 7 C-7 6.01 -7 5.02 -7 4 C-3.535 3.505 -3.535 3.505 0 3 C0 2.01 0 1.02 0 0 Z " fill="#9E9E9E" transform="translate(51,129)"/>
<path d="M0 0 C0.70125 0.185625 1.4025 0.37125 2.125 0.5625 C5.33888698 1.05156976 7.83560336 0.66231558 11 0 C11 0.99 11 1.98 11 3 C8.69 3.33 6.38 3.66 4 4 C4 4.99 4 5.98 4 7 C3.01 7 2.02 7 1 7 C0.67 4.69 0.34 2.38 0 0 Z " fill="#57585A" transform="translate(40,129)"/>
<path d="M0 0 C1.485 0.99 1.485 0.99 3 2 C3 2.66 3 3.32 3 4 C3.56203125 4.24492188 4.1240625 4.48984375 4.703125 4.7421875 C7.41865854 6.22926539 9.46391438 8.04062782 11.75 10.125 C12.94882813 11.21167969 12.94882813 11.21167969 14.171875 12.3203125 C14.77515625 12.87460938 15.3784375 13.42890625 16 14 C13 15 13 15 10 15 C9.87625 14.360625 9.7525 13.72125 9.625 13.0625 C9.41875 12.381875 9.2125 11.70125 9 11 C8.34 10.67 7.68 10.34 7 10 C7 9.34 7 8.68 7 8 C6.34 8 5.68 8 5 8 C3 6 3 6 2 4 C1.34 4 0.68 4 0 4 C0 2.68 0 1.36 0 0 Z " fill="#858586" transform="translate(119,80)"/>
<path d="M0 0 C0.99 0.33 1.98 0.66 3 1 C3 1.66 3 2.32 3 3 C3.66 3 4.32 3 5 3 C4.34 5.97 3.68 8.94 3 12 C2.01 11.67 1.02 11.34 0 11 C-0.625 7.625 -0.625 7.625 -1 4 C-0.34 3.34 0.32 2.68 1 2 C0.67 1.34 0.34 0.68 0 0 Z " fill="#3E3F3F" transform="translate(153,120)"/>
<path d="M0 0 C0.66 0.33 1.32 0.66 2 1 C0.75 3.5 0.75 3.5 -1 6 C-2.32 6 -3.64 6 -5 6 C-5.33 6.99 -5.66 7.98 -6 9 C-6.99 9.33 -7.98 9.66 -9 10 C-8.25 3.25 -8.25 3.25 -6 1 C-4.66666667 1.33333333 -3.33333333 1.66666667 -2 2 C-1.34 1.34 -0.68 0.68 0 0 Z " fill="#6B6C6C" transform="translate(100,72)"/>
<path d="M0 0 C0.33 0.99 0.66 1.98 1 3 C-2.13015926 7.55295893 -4.81790256 9.83074991 -10 12 C-10 11.01 -10 10.02 -10 9 C-9.01 8.67 -8.02 8.34 -7 8 C-7.33 7.34 -7.66 6.68 -8 6 C-7.34 5.67 -6.68 5.34 -6 5 C-6 4.34 -6 3.68 -6 3 C-4.68 3 -3.36 3 -2 3 C-2 2.34 -2 1.68 -2 1 C-1.34 0.67 -0.68 0.34 0 0 Z " fill="#616162" transform="translate(79,107)"/>
<path d="M0 0 C0.33 0.99 0.66 1.98 1 3 C-2.78756477 6.61139896 -2.78756477 6.61139896 -5 8 C-7.875 7.8125 -7.875 7.8125 -10 7 C-10.33 6.01 -10.66 5.02 -11 4 C-10.67 3.34 -10.34 2.68 -10 2 C-9.01 2 -8.02 2 -7 2 C-7 2.66 -7 3.32 -7 4 C-5.02 3.67 -3.04 3.34 -1 3 C-0.67 2.01 -0.34 1.02 0 0 Z " fill="#212224" transform="translate(79,97)"/>
<path d="M0 0 C0.66 0.33 1.32 0.66 2 1 C1.34 2.32 0.68 3.64 0 5 C0.99 4.67 1.98 4.34 3 4 C3 5.32 3 6.64 3 8 C1.35 8.33 -0.3 8.66 -2 9 C-2.33 8.34 -2.66 7.68 -3 7 C-3.99 6.34 -4.98 5.68 -6 5 C-4.02 3.35 -2.04 1.7 0 0 Z " fill="#626263" transform="translate(79,89)"/>
<path d="M0 0 C1.11375 0.1546875 1.11375 0.1546875 2.25 0.3125 C2.58 1.3025 2.91 2.2925 3.25 3.3125 C2.92 3.9725 2.59 4.6325 2.25 5.3125 C1.59 5.3125 0.93 5.3125 0.25 5.3125 C-0.08 6.3025 -0.41 7.2925 -0.75 8.3125 C-1.41 6.9925 -2.07 5.6725 -2.75 4.3125 C-3.41 4.3125 -4.07 4.3125 -4.75 4.3125 C-4.75 4.9725 -4.75 5.6325 -4.75 6.3125 C-5.41 5.9825 -6.07 5.6525 -6.75 5.3125 C-3.42692308 0.38942308 -3.42692308 0.38942308 0 0 Z " fill="#616162" transform="translate(108.75,65.6875)"/>
<path d="M0 0 C0.99 0.495 0.99 0.495 2 1 C2.185625 2.2065625 2.185625 2.2065625 2.375 3.4375 C2.72036067 6.14889852 2.72036067 6.14889852 5 7.25 C5.66 7.4975 6.32 7.745 7 8 C8 9 8 9 8.0625 11.5625 C8.041875 12.366875 8.02125 13.17125 8 14 C6.35 14.66 4.7 15.32 3 16 C3 15.34 3 14.68 3 14 C3.99 14 4.98 14 6 14 C5.67 12.35 5.34 10.7 5 9 C4.01 8.67 3.02 8.34 2 8 C1.26953125 6.15234375 1.26953125 6.15234375 0.8125 3.9375 C0.65394531 3.20402344 0.49539062 2.47054687 0.33203125 1.71484375 C0.22246094 1.14894531 0.11289063 0.58304687 0 0 Z " fill="#A5A6A5" transform="translate(164,119)"/>
<path d="M0 0 C1.3303125 0.4021875 1.3303125 0.4021875 2.6875 0.8125 C-0.12054268 3.77654505 -2.49565774 6.25749019 -6.3125 7.8125 C-5.3225 6.1625 -4.3325 4.5125 -3.3125 2.8125 C-4.9625 3.4725 -6.6125 4.1325 -8.3125 4.8125 C-4.12788462 -0.23365385 -4.12788462 -0.23365385 0 0 Z " fill="#A5A5A5" transform="translate(66.3125,118.1875)"/>
<path d="M0 0 C1.09362142 3.25170103 0.93111886 4.97353889 -0.375 8.125 C-0.65085937 8.80820313 -0.92671875 9.49140625 -1.2109375 10.1953125 C-1.77237078 11.47938266 -2.37325547 12.74651095 -3 14 C-3.66 14 -4.32 14 -5 14 C-4.67 12.02 -4.34 10.04 -4 8 C-3.34 8 -2.68 8 -2 8 C-2 6.02 -2 4.04 -2 2 C-1.34 2 -0.68 2 0 2 C0 1.34 0 0.68 0 0 Z " fill="#2A2A2C" transform="translate(111,69)"/>
<path d="M0 0 C1.32 0.66 2.64 1.32 4 2 C2.6875 3.5 2.6875 3.5 1 5 C0.01 5 -0.98 5 -2 5 C-2 5.99 -2 6.98 -2 8 C-3.32 8.33 -4.64 8.66 -6 9 C-6.33 8.01 -6.66 7.02 -7 6 C-4.69 4.02 -2.38 2.04 0 0 Z " fill="#2D2D2F" transform="translate(71,111)"/>
<path d="M0 0 C0.33 0.66 0.66 1.32 1 2 C-0.375 3.5 -0.375 3.5 -2 5 C-2.66 5 -3.32 5 -4 5 C-4 5.66 -4 6.32 -4 7 C-5.98 7.33 -7.96 7.66 -10 8 C-6.88983545 4.71211176 -3.98381075 2.16264012 0 0 Z " fill="#747475" transform="translate(54,109)"/>
<path d="M0 0 C0.99 0 1.98 0 3 0 C3 1.98 3 3.96 3 6 C2.278125 5.79375 1.55625 5.5875 0.8125 5.375 C-2.44641585 4.94047789 -4.08304504 5.58319331 -7 7 C-5.37660195 5.29115995 -3.70680947 3.62553283 -2 2 C-1.34 2 -0.68 2 0 2 C0 1.34 0 0.68 0 0 Z " fill="#7C7D7D" transform="translate(88,82)"/>
<path d="M0 0 C0.99 0 1.98 0 3 0 C1.73470933 3.79587201 0.33761045 4.84909549 -3 7 C-6.3125 7.25 -6.3125 7.25 -9 7 C-8.34 6.34 -7.68 5.68 -7 5 C-5.68 5 -4.36 5 -3 5 C-2.67 4.01 -2.34 3.02 -2 2 C-1.34 2 -0.68 2 0 2 C0 1.34 0 0.68 0 0 Z " fill="#1E1E20" transform="translate(64,103)"/>
<path d="M0 0 C0.66 0 1.32 0 2 0 C3 1 4 2 5 3 C5.99 3.33 6.98 3.66 8 4 C7.67 4.66 7.34 5.32 7 6 C7.66 6.33 8.32 6.66 9 7 C9 7.66 9 8.32 9 9 C4.71930097 7.41455592 2.70478088 4.5312417 0 1 C0 0.67 0 0.34 0 0 Z " fill="#717172" transform="translate(127,105)"/>
<path d="M0 0 C0.33 0.66 0.66 1.32 1 2 C-1.23407889 5.35111834 -2.26215824 6.81553956 -6.25 7.8125 C-7.61125 7.9053125 -7.61125 7.9053125 -9 8 C-6.14723863 5.06799526 -3.34920216 2.35684596 0 0 Z " fill="#808181" transform="translate(64,101)"/>
<path d="M0 0 C2.97 0.33 5.94 0.66 9 1 C5.66666667 2.66666667 2.33333333 4.33333333 -1 6 C-0.67 4.02 -0.34 2.04 0 0 Z " fill="#828283" transform="translate(102,88)"/>
<path d="M0 0 C0.66 1.32 1.32 2.64 2 4 C-3.75 9 -3.75 9 -6 9 C-5.67 8.01 -5.34 7.02 -5 6 C-4.34 5.67 -3.68 5.34 -3 5 C-2.67 4.01 -2.34 3.02 -2 2 C-1.34 2 -0.68 2 0 2 C0 1.34 0 0.68 0 0 Z " fill="#1A1A1C" transform="translate(49,118)"/>
<path d="M0 0 C1.65 0 3.3 0 5 0 C5.33 0.99 5.66 1.98 6 3 C5.67 3.66 5.34 4.32 5 5 C5.66 5 6.32 5 7 5 C7 5.66 7 6.32 7 7 C6.01 6.67 5.02 6.34 4 6 C4 5.34 4 4.68 4 4 C2.68 3.34 1.36 2.68 0 2 C0 1.34 0 0.68 0 0 Z " fill="#161718" transform="translate(124,90)"/>
<path d="M0 0 C3.375 0.625 3.375 0.625 7 2 C8.4375 5.125 8.4375 5.125 9 8 C7.68388323 7.04663979 6.37221039 6.08714226 5.0625 5.125 C4.33160156 4.59132813 3.60070312 4.05765625 2.84765625 3.5078125 C1 2 1 2 0 0 Z " fill="#858587" transform="translate(113,92)"/>
<path d="M0 0 C0.66 0 1.32 0 2 0 C1.67 0.66 1.34 1.32 1 2 C0.67 1.34 0.34 0.68 0 0 Z M-5 1 C-3.35 1 -1.7 1 0 1 C0.66 2.98 1.32 4.96 2 7 C-1.36720387 5.60667426 -2.9859524 4.0210714 -5 1 Z " fill="#707071" transform="translate(148,119)"/>
<path d="M0 0 C2.475 0.99 2.475 0.99 5 2 C5 2.99 5 3.98 5 5 C2.69 4.67 0.38 4.34 -2 4 C-1.34 2.68 -0.68 1.36 0 0 Z " fill="#464647" transform="translate(132,94)"/>
<path d="M0 0 C0.33 1.32 0.66 2.64 1 4 C-0.32 4.33 -1.64 4.66 -3 5 C-3 5.66 -3 6.32 -3 7 C-3.66 7 -4.32 7 -5 7 C-5 5.68 -5 4.36 -5 3 C-4.01 2.67 -3.02 2.34 -2 2 C-1.34 1.34 -0.68 0.68 0 0 Z " fill="#181819" transform="translate(87,91)"/>
<path d="M0 0 C1.485 0.99 1.485 0.99 3 2 C3 2.66 3 3.32 3 4 C3.9590625 4.433125 3.9590625 4.433125 4.9375 4.875 C7 6 7 6 8 8 C7.01 8 6.02 8 5 8 C3 6 3 6 2 4 C1.34 4 0.68 4 0 4 C0 2.68 0 1.36 0 0 Z " fill="#9A9A9C" transform="translate(119,80)"/>
<path d="M0 0 C0.66 0 1.32 0 2 0 C2 0.99 2 1.98 2 3 C3.32 3.33 4.64 3.66 6 4 C4.02 4.99 4.02 4.99 2 6 C1.67 5.34 1.34 4.68 1 4 C0.01 3.34 -0.98 2.68 -2 2 C-1.34 1.34 -0.68 0.68 0 0 Z " fill="#8E8E8F" transform="translate(75,92)"/>
<path d="M0 0 C1.98 0.66 3.96 1.32 6 2 C5.67 2.99 5.34 3.98 5 5 C3.68 4.67 2.36 4.34 1 4 C0.67 2.68 0.34 1.36 0 0 Z " fill="#111111" transform="translate(161,135)"/>
<path d="M0 0 C0 0.99 0 1.98 0 3 C-1.65 3.33 -3.3 3.66 -5 4 C-5.33 3.01 -5.66 2.02 -6 1 C-4 0 -4 0 0 0 Z " fill="#515055" transform="translate(51,129)"/>
<path d="M0 0 C1.65 0 3.3 0 5 0 C2.22719294 3.08089673 -0.06326356 4.68775452 -4 6 C-4 5.34 -4 4.68 -4 4 C-2.68 3.67 -1.36 3.34 0 3 C0 2.01 0 1.02 0 0 Z " fill="#BCBCBE" transform="translate(51,129)"/>
<path d="M0 0 C0.33 2.31 0.66 4.62 1 7 C-1.475 6.01 -1.475 6.01 -4 5 C-3.625 3.0625 -3.625 3.0625 -3 1 C-1 0 -1 0 0 0 Z " fill="#0E0E0F" transform="translate(138,106)"/>
<path d="M0 0 C0.66 0 1.32 0 2 0 C2 1.65 2 3.3 2 5 C0.35 5.66 -1.3 6.32 -3 7 C-3 6.34 -3 5.68 -3 5 C-2.01 5 -1.02 5 0 5 C-0.2784375 4.0409375 -0.2784375 4.0409375 -0.5625 3.0625 C-0.706875 2.381875 -0.85125 1.70125 -1 1 C-0.67 0.67 -0.34 0.34 0 0 Z " fill="#7B7B7B" transform="translate(170,128)"/>
<path d="M0 0 C1.32 0.33 2.64 0.66 4 1 C3.34 1 2.68 1 2 1 C2 1.99 2 2.98 2 4 C0.02 4 -1.96 4 -4 4 C-3.67 3.34 -3.34 2.68 -3 2 C-2.01 2 -1.02 2 0 2 C0 1.34 0 0.68 0 0 Z " fill="#595A5A" transform="translate(91,98)"/>
<path d="M0 0 C0.66 0 1.32 0 2 0 C1.67 0.99 1.34 1.98 1 3 C0.67 2.01 0.34 1.02 0 0 Z " fill="#E8E8E8" transform="translate(173,177)"/>
</svg>
