<?xml version="1.0" encoding="UTF-8"?>
<svg version="1.1" xmlns="http://www.w3.org/2000/svg" width="200" height="203">
<path d="M0 0 C0.495 0.99 0.495 0.99 1 2 C2.65 2 4.3 2 6 2 C7.2077558 5.62326739 6.54311128 6.64146369 5 10 C4.01 10 3.02 10 2 10 C1.67 11.32 1.34 12.64 1 14 C0.34 14 -0.32 14 -1 14 C-1 14.66 -1 15.32 -1 16 C-2.47704212 17.25227484 -3.95827399 18.50166522 -5.4921875 19.68359375 C-7.26762944 21.11764091 -7.26762944 21.11764091 -9 24 C-9.66 24 -10.32 24 -11 24 C-11.66 25.65 -12.32 27.3 -13 29 C-13.66 29 -14.32 29 -15 29 C-15.268125 29.58265625 -15.53625 30.1653125 -15.8125 30.765625 C-17.01480991 33.02786601 -18.33825913 34.80576318 -20 36.75 C-20.515625 37.36359375 -21.03125 37.9771875 -21.5625 38.609375 C-23 40 -23 40 -25 40 C-25 40.66 -25 41.32 -25 42 C-26.43359375 43.375 -26.43359375 43.375 -28.4375 45 C-33.44723852 49.23900951 -37.70195744 54.05526122 -42 59 C-40.78281746 63.08878796 -39.35090058 66.28134701 -36.875 69.75 C-34 73.79425837 -34 73.79425837 -34 76 C-33.43539062 76.04640625 -32.87078125 76.0928125 -32.2890625 76.140625 C-28.93494207 77.3998511 -27.40193875 79.9383487 -25.375 82.75 C-24.48734022 83.94427886 -23.59930916 85.13828183 -22.7109375 86.33203125 C-22.26073242 86.94385254 -21.81052734 87.55567383 -21.34667969 88.18603516 C-19.67696061 90.43513101 -17.95903414 92.6437299 -16.23535156 94.8515625 C5.01238111 122.12928413 5.01238111 122.12928413 4 132 C-0.33665474 134.16832737 -5.33442185 133.88120881 -10 133 C-13.18115815 130.61251822 -14.90328948 127.33744437 -17 124 C-18.8956065 121.38487757 -20.85751152 118.82088932 -22.8125 116.25 C-23.85627652 114.85607325 -24.89924538 113.46154135 -25.94140625 112.06640625 C-28.67946827 108.41537033 -31.45654596 104.79623443 -34.25 101.1875 C-45.61324565 86.46277976 -45.61324565 86.46277976 -49.0625 80.4375 C-51.64152063 77.19292566 -54.01213768 76.7668966 -58 76 C-58.38218767 74.34385343 -58.71395102 72.67542976 -59 71 C-58.505 70.505 -58.505 70.505 -58 70 C-58.49371094 69.62488281 -58.98742188 69.24976562 -59.49609375 68.86328125 C-64.7941681 64.63121784 -64.7941681 64.63121784 -65.9375 61.125 C-65.958125 60.42375 -65.97875 59.7225 -66 59 C-65.50628906 58.59007812 -65.01257813 58.18015625 -64.50390625 57.7578125 C-63.86324219 57.21898437 -63.22257812 56.68015625 -62.5625 56.125 C-61.92441406 55.59132812 -61.28632812 55.05765625 -60.62890625 54.5078125 C-58.89194996 53.0777243 -58.89194996 53.0777243 -58 51 C-57.0925 50.731875 -56.185 50.46375 -55.25 50.1875 C-51.36224126 48.76697277 -49.83712459 46.99936486 -47 44 C-46.53400391 43.51104248 -46.06800781 43.02208496 -45.58789062 42.51831055 C-39.34945389 35.94178403 -33.44830981 29.25153291 -28 22 C-26.61254507 20.20183734 -25.2165022 18.41027252 -23.8125 16.625 C-23.17957031 15.81289063 -22.54664063 15.00078125 -21.89453125 14.1640625 C-20 12 -20 12 -17.82421875 10.3984375 C-15.70286332 9.04278228 -15.70286332 9.04278228 -15 6 C-13.00854609 4.98308736 -11.00812926 3.98357352 -9 3 C-8.34 2.01 -7.68 1.02 -7 0 C-3.88407501 -1.03864166 -2.9737344 -1.09036928 0 0 Z " fill="#141515" transform="translate(109,37)"/>
<path d="M0 0 C0.75925781 0.07734375 1.51851562 0.1546875 2.30078125 0.234375 C2.79578125 1.224375 2.79578125 1.224375 3.30078125 2.234375 C5.18843028 2.91910165 5.18843028 2.91910165 7.36328125 3.359375 C8.09675781 3.52695312 8.83023438 3.69453125 9.5859375 3.8671875 C10.15183594 3.98835938 10.71773437 4.10953125 11.30078125 4.234375 C11.79578125 6.709375 11.79578125 6.709375 12.30078125 9.234375 C11.37265625 9.358125 11.37265625 9.358125 10.42578125 9.484375 C9.72453125 9.731875 9.02328125 9.979375 8.30078125 10.234375 C7.91212891 11.06001953 7.91212891 11.06001953 7.515625 11.90234375 C5.80204104 15.19176375 3.28112452 17.64063148 0.73828125 20.296875 C-4.68931321 26.06400018 -9.74044843 32.05800563 -14.69921875 38.234375 C-16.64789074 40.63564178 -18.61477499 42.94657087 -20.69921875 45.234375 C-21.35921875 45.234375 -22.01921875 45.234375 -22.69921875 45.234375 C-22.95445313 45.80671875 -23.2096875 46.3790625 -23.47265625 46.96875 C-24.83009034 49.47611233 -26.41895979 51.3674206 -28.32421875 53.484375 C-28.95585938 54.19078125 -29.5875 54.8971875 -30.23828125 55.625 C-30.72039062 56.15609375 -31.2025 56.6871875 -31.69921875 57.234375 C-31.20421875 57.9975 -30.70921875 58.760625 -30.19921875 59.546875 C-28.69921875 62.234375 -28.69921875 62.234375 -28.69921875 65.234375 C-27.98507813 65.25371094 -27.2709375 65.27304688 -26.53515625 65.29296875 C-22.28245785 66.70467717 -20.76257465 69.6775687 -18.32421875 73.296875 C-17.36498004 74.66876979 -16.40275156 76.03857911 -15.4375 77.40625 C-14.74068115 78.3972168 -14.74068115 78.3972168 -14.02978516 79.40820312 C-11.84535748 82.40628 -9.38490685 85.12051854 -6.84375 87.81640625 C-5.69921875 89.234375 -5.69921875 89.234375 -5.69921875 91.234375 C-5.03921875 91.234375 -4.37921875 91.234375 -3.69921875 91.234375 C-1.80768805 93.44856117 -0.02272196 95.67004484 1.73828125 97.984375 C2.22876953 98.61859375 2.71925781 99.2528125 3.22460938 99.90625 C4.17287675 101.13477453 5.11627059 102.36707986 6.05419922 103.60351562 C7.06140344 104.92120544 8.10023788 106.21468123 9.1484375 107.5 C10.30078125 109.234375 10.30078125 109.234375 10.30078125 112.234375 C11.95078125 112.234375 13.60078125 112.234375 15.30078125 112.234375 C15.30078125 114.214375 15.30078125 116.194375 15.30078125 118.234375 C12.90546369 118.57182854 10.50963857 118.9044579 8.11328125 119.234375 C7.43974609 119.32976562 6.76621094 119.42515625 6.07226562 119.5234375 C4.15172835 119.78575479 2.2262252 120.01090379 0.30078125 120.234375 C-1.0140625 120.44707031 -1.0140625 120.44707031 -2.35546875 120.6640625 C-6.09473936 119.97852955 -7.80184626 117.22075064 -10.01171875 114.359375 C-10.46611328 113.80378906 -10.92050781 113.24820313 -11.38867188 112.67578125 C-14.69921875 108.54382049 -14.69921875 108.54382049 -14.69921875 106.234375 C-15.35921875 106.234375 -16.01921875 106.234375 -16.69921875 106.234375 C-18.30883803 104.20485504 -19.79491577 102.17668851 -21.26171875 100.046875 C-21.70064453 99.41918213 -22.13957031 98.79148926 -22.59179688 98.14477539 C-23.50816294 96.83251157 -24.42168797 95.51825974 -25.33251953 94.20214844 C-26.63904646 92.32101106 -27.96106363 90.45195662 -29.2890625 88.5859375 C-30.09281632 87.44817683 -30.89621717 86.31016671 -31.69921875 85.171875 C-32.42109375 84.14964844 -33.14296875 83.12742187 -33.88671875 82.07421875 C-35.69921875 79.234375 -35.69921875 79.234375 -36.77734375 76.51171875 C-37.91673049 73.69704726 -39.69141521 72.45187336 -42.04296875 70.61328125 C-45.93113448 67.37619987 -48.86578098 63.58511897 -51.51171875 59.296875 C-51.73395064 55.66708739 -51.28387472 55.23413638 -49.01171875 52.546875 C-47.5982546 51.08573448 -46.15722544 49.6510715 -44.69921875 48.234375 C-43.28591656 46.83893758 -41.87274427 45.44336044 -40.46362305 44.04370117 C-39.06974251 42.66669627 -37.66017645 41.30562416 -36.25 39.9453125 C-33.67565509 37.20933185 -31.73303062 34.38350306 -29.69921875 31.234375 C-28.03255208 29.56770833 -26.36588542 27.90104167 -24.69921875 26.234375 C-21.88354329 22.66930788 -19.23652899 18.97712739 -16.57421875 15.296875 C-14.4936141 13.00820989 -13.58617407 12.90799791 -10.69921875 12.234375 C-9.99664829 10.91960621 -9.33656331 9.58197069 -8.69921875 8.234375 C-7.80170834 6.79204156 -6.86263206 5.37485834 -5.88671875 3.984375 C-5.40589844 3.27796875 -4.92507812 2.5715625 -4.4296875 1.84375 C-2.69921875 0.234375 -2.69921875 0.234375 0 0 Z " fill="#0F1010" transform="translate(133.69921875,41.765625)"/>
<path d="M0 0 C0.75925781 0.07734375 1.51851562 0.1546875 2.30078125 0.234375 C2.79578125 1.224375 2.79578125 1.224375 3.30078125 2.234375 C5.18843028 2.91910165 5.18843028 2.91910165 7.36328125 3.359375 C8.09675781 3.52695312 8.83023438 3.69453125 9.5859375 3.8671875 C10.15183594 3.98835938 10.71773437 4.10953125 11.30078125 4.234375 C11.79578125 6.709375 11.79578125 6.709375 12.30078125 9.234375 C11.37265625 9.358125 11.37265625 9.358125 10.42578125 9.484375 C9.72453125 9.731875 9.02328125 9.979375 8.30078125 10.234375 C7.91212891 11.06001953 7.91212891 11.06001953 7.515625 11.90234375 C5.80204104 15.19176375 3.28112452 17.64063148 0.73828125 20.296875 C-4.68931321 26.06400018 -9.74044843 32.05800563 -14.69921875 38.234375 C-16.64789074 40.63564178 -18.61477499 42.94657087 -20.69921875 45.234375 C-21.35921875 45.234375 -22.01921875 45.234375 -22.69921875 45.234375 C-22.95445313 45.80671875 -23.2096875 46.3790625 -23.47265625 46.96875 C-24.83009034 49.47611233 -26.41895979 51.3674206 -28.32421875 53.484375 C-28.95585938 54.19078125 -29.5875 54.8971875 -30.23828125 55.625 C-30.72039062 56.15609375 -31.2025 56.6871875 -31.69921875 57.234375 C-31.20421875 57.9975 -30.70921875 58.760625 -30.19921875 59.546875 C-28.69921875 62.234375 -28.69921875 62.234375 -28.69921875 65.234375 C-32.69377402 64.61982804 -35.44388211 62.52790763 -38.69921875 60.234375 C-39.02921875 61.224375 -39.35921875 62.214375 -39.69921875 63.234375 C-42.33921875 61.584375 -44.97921875 59.934375 -47.69921875 58.234375 C-46.70921875 60.874375 -45.71921875 63.514375 -44.69921875 66.234375 C-47.78879814 65.1690028 -48.72432815 64.1967109 -50.57421875 61.421875 C-51.69921875 58.234375 -51.69921875 58.234375 -50.99169922 55.77124023 C-49.64091738 53.11994178 -48.28808602 51.50448812 -46.14453125 49.45703125 C-45.44714844 48.77833984 -44.74976562 48.09964844 -44.03125 47.40039062 C-43.30292969 46.70623047 -42.57460937 46.01207031 -41.82421875 45.296875 C-37.18082702 40.84868847 -33.0939037 36.70628383 -29.69921875 31.234375 C-28.03255208 29.56770833 -26.36588542 27.90104167 -24.69921875 26.234375 C-21.88354329 22.66930788 -19.23652899 18.97712739 -16.57421875 15.296875 C-14.4936141 13.00820989 -13.58617407 12.90799791 -10.69921875 12.234375 C-9.99664829 10.91960621 -9.33656331 9.58197069 -8.69921875 8.234375 C-7.80170834 6.79204156 -6.86263206 5.37485834 -5.88671875 3.984375 C-5.40589844 3.27796875 -4.92507812 2.5715625 -4.4296875 1.84375 C-2.69921875 0.234375 -2.69921875 0.234375 0 0 Z " fill="#1A1A1B" transform="translate(133.69921875,41.765625)"/>
<path d="M0 0 C0.495 0.99 0.495 0.99 1 2 C2.65 2 4.3 2 6 2 C7.2077558 5.62326739 6.54311128 6.64146369 5 10 C4.01 10 3.02 10 2 10 C1.67 11.32 1.34 12.64 1 14 C0.34 14 -0.32 14 -1 14 C-1 14.66 -1 15.32 -1 16 C-2.47704212 17.25227484 -3.95827399 18.50166522 -5.4921875 19.68359375 C-7.26762944 21.11764091 -7.26762944 21.11764091 -9 24 C-9.66 24 -10.32 24 -11 24 C-11.66 25.65 -12.32 27.3 -13 29 C-13.66 29 -14.32 29 -15 29 C-15.268125 29.58265625 -15.53625 30.1653125 -15.8125 30.765625 C-17.01480991 33.02786601 -18.33825913 34.80576318 -20 36.75 C-20.515625 37.36359375 -21.03125 37.9771875 -21.5625 38.609375 C-23 40 -23 40 -25 40 C-25 40.66 -25 41.32 -25 42 C-26.43359375 43.375 -26.43359375 43.375 -28.4375 45 C-33.44723852 49.23900951 -37.70195744 54.05526122 -42 59 C-42.33 57.68 -42.66 56.36 -43 55 C-42.01 54.505 -42.01 54.505 -41 54 C-40.67 53.01 -40.34 52.02 -40 51 C-39.34 51 -38.68 51 -38 51 C-38 50.34 -38 49.68 -38 49 C-37.34 49 -36.68 49 -36 49 C-36 48.34 -36 47.68 -36 47 C-35.01 47 -34.02 47 -33 47 C-33 46.34 -33 45.68 -33 45 C-33.66 44.67 -34.32 44.34 -35 44 C-34.34 43.01 -33.68 42.02 -33 41 C-32.61500109 39.34450469 -32.27206865 37.6777567 -32 36 C-30.66666667 36.66666667 -29.33333333 37.33333333 -28 38 C-28 38.99 -28 39.98 -28 41 C-27.34 41 -26.68 41 -26 41 C-26 39.35 -26 37.7 -26 36 C-25.01 35.505 -25.01 35.505 -24 35 C-23.34 35.33 -22.68 35.66 -22 36 C-22 35.01 -22 34.02 -22 33 C-21.34 33 -20.68 33 -20 33 C-20 32.34 -20 31.68 -20 31 C-22.99152582 31.77479736 -22.99152582 31.77479736 -26 33 C-26.33 33.99 -26.66 34.98 -27 36 C-27.66 36 -28.32 36 -29 36 C-29.66 35.01 -30.32 34.02 -31 33 C-32.32 33.66 -33.64 34.32 -35 35 C-34.67 36.98 -34.34 38.96 -34 41 C-35.32 41.66 -36.64 42.32 -38 43 C-37.34 41.68 -36.68 40.36 -36 39 C-36.66 39 -37.32 39 -38 39 C-38.33 39.99 -38.66 40.98 -39 42 C-39.66 42 -40.32 42 -41 42 C-41 42.66 -41 43.32 -41 44 C-41.99 44 -42.98 44 -44 44 C-44 44.66 -44 45.32 -44 46 C-45.98 46.495 -45.98 46.495 -48 47 C-46.38993399 43.08186248 -43.6911295 40.33059705 -40.8125 37.3125 C-36.23081805 32.41414626 -32.04359554 27.35402002 -28 22 C-26.61216878 20.20212774 -25.2161617 18.41054025 -23.8125 16.625 C-23.17957031 15.81289063 -22.54664062 15.00078125 -21.89453125 14.1640625 C-20 12 -20 12 -17.82421875 10.3984375 C-15.70286332 9.04278228 -15.70286332 9.04278228 -15 6 C-13.00854609 4.98308736 -11.00812926 3.98357352 -9 3 C-8.34 2.01 -7.68 1.02 -7 0 C-3.88407501 -1.03864166 -2.9737344 -1.09036928 0 0 Z " fill="#161717" transform="translate(109,37)"/>
<path d="M0 0 C1.66666667 1.66666667 3.33333333 3.33333333 5 5 C5.928125 5.886875 6.85625 6.77375 7.8125 7.6875 C10 10 10 10 10 12 C10.66 12 11.32 12 12 12 C13.8915307 14.21418617 15.67649679 16.43566984 17.4375 18.75 C17.92798828 19.38421875 18.41847656 20.0184375 18.92382812 20.671875 C19.8720955 21.90039953 20.81548934 23.13270486 21.75341797 24.36914062 C22.76062219 25.68683044 23.79945663 26.98030623 24.84765625 28.265625 C26 30 26 30 26 33 C27.65 33 29.3 33 31 33 C31 34.98 31 36.96 31 39 C28.60468244 39.33745354 26.20885732 39.6700829 23.8125 40 C23.13896484 40.09539062 22.46542969 40.19078125 21.77148438 40.2890625 C19.8509471 40.55137979 17.92544395 40.77652879 16 41 C15.1234375 41.14179688 14.246875 41.28359375 13.34375 41.4296875 C9.60447939 40.74415455 7.89737249 37.98637564 5.6875 35.125 C5.23310547 34.56941406 4.77871094 34.01382813 4.31054688 33.44140625 C1 29.30944549 1 29.30944549 1 27 C0.34 27 -0.32 27 -1 27 C-2.68884409 24.8448556 -4.26306282 22.68977466 -5.8125 20.4375 C-6.23853516 19.82841797 -6.66457031 19.21933594 -7.10351562 18.59179688 C-7.96542535 17.35956588 -8.82495949 16.12566988 -9.68212891 14.89013672 C-11.76158931 11.90770203 -13.88171497 8.95495057 -16 6 C-15.34 5.67 -14.68 5.34 -14 5 C-13.3503125 5.9590625 -13.3503125 5.9590625 -12.6875 6.9375 C-11.08760823 9.26746003 -11.08760823 9.26746003 -8 10 C-7.67 11.65 -7.34 13.3 -7 15 C-5.68 15.33 -4.36 15.66 -3 16 C-3 16.66 -3 17.32 -3 18 C-2.01 18 -1.02 18 0 18 C0.33 18.99 0.66 19.98 1 21 C0.34 21 -0.32 21 -1 21 C-0.67 21.99 -0.34 22.98 0 24 C1.98 24 3.96 24 6 24 C6.33 23.34 6.66 22.68 7 22 C7.66 22.66 8.32 23.32 9 24 C9.78375 24.268125 10.5675 24.53625 11.375 24.8125 C14.63479261 26.28716809 16.01654072 28.06154181 18 31 C18 31.66 18 32.32 18 33 C18.66 32.67 19.32 32.34 20 32 C19.47355572 28.20960118 18.68249563 25.78184732 16 23 C15.38898438 22.89945313 14.77796875 22.79890625 14.1484375 22.6953125 C11.0125794 21.68043479 9.89555823 19.7281988 7.9375 17.125 C5.32568659 13.60818383 5.32568659 13.60818383 2.296875 10.47265625 C0.5326793 8.46933764 0.50317185 6.94377159 0.3125 4.3125 C0.21388672 3.10013672 0.21388672 3.10013672 0.11328125 1.86328125 C0.07589844 1.24839844 0.03851563 0.63351563 0 0 Z " fill="#0D0E0D" transform="translate(118,121)"/>
<path d="M0 0 C4.95 0 9.9 0 15 0 C15.33 1.65 15.66 3.3 16 5 C15.071875 5.12375 15.071875 5.12375 14.125 5.25 C13.42375 5.4975 12.7225 5.745 12 6 C11.74476563 6.54527344 11.48953125 7.09054688 11.2265625 7.65234375 C9.46145934 11.03077368 6.85674498 13.57419302 4.25 16.3125 C3.16297482 17.4677275 2.0770261 18.62396891 0.9921875 19.78125 C0.47366211 20.33425781 -0.04486328 20.88726562 -0.57910156 21.45703125 C-2.32749568 23.35563105 -3.9841542 25.32062749 -5.625 27.3125 C-6.40875 28.199375 -7.1925 29.08625 -8 30 C-8.66 30 -9.32 30 -10 30 C-10.33 29.34 -10.66 28.68 -11 28 C-12.32 28.99 -13.64 29.98 -15 31 C-15.77734375 28.80078125 -15.77734375 28.80078125 -16 26 C-14.12890625 23.54296875 -14.12890625 23.54296875 -11.5625 21.1875 C-10.71816406 20.39730469 -9.87382813 19.60710937 -9.00390625 18.79296875 C-8.34261719 18.20128906 -7.68132812 17.60960938 -7 17 C-7.99 17.33 -8.98 17.66 -10 18 C-10 16.68 -10 15.36 -10 14 C-9.01 14 -8.02 14 -7 14 C-7 13.01 -7 12.02 -7 11 C-7.66 10.67 -8.32 10.34 -9 10 C-8.21625 9.773125 -7.4325 9.54625 -6.625 9.3125 C-3.78125 8.21875 -3.78125 8.21875 -2.6875 5.375 C-2.460625 4.59125 -2.23375 3.8075 -2 3 C-1.34 3 -0.68 3 0 3 C0 2.01 0 1.02 0 0 Z " fill="#1C1C1E" transform="translate(130,46)"/>
<path d="M0 0 C1.13888672 0.11601563 1.13888672 0.11601563 2.30078125 0.234375 C2.79578125 1.224375 2.79578125 1.224375 3.30078125 2.234375 C6.33012616 2.89209928 6.33012616 2.89209928 9.30078125 3.234375 C9.30078125 3.564375 9.30078125 3.894375 9.30078125 4.234375 C7.50987872 4.42903832 5.7180162 4.61488713 3.92578125 4.796875 C2.42917969 4.95349609 2.42917969 4.95349609 0.90234375 5.11328125 C-1.69921875 5.234375 -1.69921875 5.234375 -3.69921875 4.234375 C-3.69921875 5.224375 -3.69921875 6.214375 -3.69921875 7.234375 C-4.68921875 7.729375 -4.68921875 7.729375 -5.69921875 8.234375 C-6.00859375 9.03875 -6.31796875 9.843125 -6.63671875 10.671875 C-7.69921875 13.234375 -7.69921875 13.234375 -10.69921875 15.234375 C-10.69921875 16.224375 -10.69921875 17.214375 -10.69921875 18.234375 C-11.68921875 18.234375 -12.67921875 18.234375 -13.69921875 18.234375 C-13.36921875 19.224375 -13.03921875 20.214375 -12.69921875 21.234375 C-11.70921875 21.234375 -10.71921875 21.234375 -9.69921875 21.234375 C-10.36050781 21.83765625 -11.02179688 22.4409375 -11.703125 23.0625 C-12.54746094 23.86171875 -13.39179687 24.6609375 -14.26171875 25.484375 C-15.10863281 26.27328125 -15.95554687 27.0621875 -16.828125 27.875 C-18.98662512 30.03618821 -18.98662512 30.03618821 -18.4765625 32.53125 C-18.22003906 33.09328125 -17.96351562 33.6553125 -17.69921875 34.234375 C-16.37921875 33.244375 -15.05921875 32.254375 -13.69921875 31.234375 C-12.9609375 33.43359375 -12.9609375 33.43359375 -12.69921875 36.234375 C-14.28125 38.69140625 -14.28125 38.69140625 -16.51171875 41.046875 C-17.24003906 41.83707031 -17.96835938 42.62726563 -18.71875 43.44140625 C-20.69921875 45.234375 -20.69921875 45.234375 -22.69921875 45.234375 C-22.92609375 45.811875 -23.15296875 46.389375 -23.38671875 46.984375 C-25.02959898 49.8007411 -27.09455102 51.31514614 -29.69921875 53.234375 C-29.69921875 51.914375 -29.69921875 50.594375 -29.69921875 49.234375 C-29.03921875 49.234375 -28.37921875 49.234375 -27.69921875 49.234375 C-28.19421875 47.749375 -28.19421875 47.749375 -28.69921875 46.234375 C-27.70921875 46.234375 -26.71921875 46.234375 -25.69921875 46.234375 C-25.36921875 45.244375 -25.03921875 44.254375 -24.69921875 43.234375 C-23.21421875 42.739375 -23.21421875 42.739375 -21.69921875 42.234375 C-21.36921875 41.574375 -21.03921875 40.914375 -20.69921875 40.234375 C-22.69954248 39.23421313 -24.53047623 38.74041492 -26.69921875 38.234375 C-26.69921875 36.584375 -26.69921875 34.934375 -26.69921875 33.234375 C-28.67921875 33.729375 -28.67921875 33.729375 -30.69921875 34.234375 C-29.44488374 30.47136997 -27.50752451 29.04268076 -24.69921875 26.234375 C-21.88084983 22.67166762 -19.23642237 18.97698 -16.57421875 15.296875 C-14.4936141 13.00820989 -13.58617407 12.90799791 -10.69921875 12.234375 C-9.99664829 10.91960621 -9.33656331 9.58197069 -8.69921875 8.234375 C-7.80170834 6.79204156 -6.86263206 5.37485834 -5.88671875 3.984375 C-5.40589844 3.27796875 -4.92507812 2.5715625 -4.4296875 1.84375 C-2.69921875 0.234375 -2.69921875 0.234375 0 0 Z " fill="#2F2F2F" transform="translate(133.69921875,41.765625)"/>
<path d="M0 0 C1.11375 0.1546875 1.11375 0.1546875 2.25 0.3125 C2.25 0.9725 2.25 1.6325 2.25 2.3125 C1.59 2.3125 0.93 2.3125 0.25 2.3125 C0.25 3.3025 0.25 4.2925 0.25 5.3125 C-0.74 5.3125 -1.73 5.3125 -2.75 5.3125 C-3.08 6.9625 -3.41 8.6125 -3.75 10.3125 C-4.41 10.3125 -5.07 10.3125 -5.75 10.3125 C-5.75 9.3225 -5.75 8.3325 -5.75 7.3125 C-6.74 7.6425 -7.73 7.9725 -8.75 8.3125 C-9.08 7.3225 -9.41 6.3325 -9.75 5.3125 C-10.3245952 9.04736879 -10.75 12.52543268 -10.75 16.3125 C-11.74 16.3125 -12.73 16.3125 -13.75 16.3125 C-13.75 16.9725 -13.75 17.6325 -13.75 18.3125 C-14.41 18.3125 -15.07 18.3125 -15.75 18.3125 C-15.75 18.9725 -15.75 19.6325 -15.75 20.3125 C-16.41 20.3125 -17.07 20.3125 -17.75 20.3125 C-18.08 21.6325 -18.41 22.9525 -18.75 24.3125 C-19.41 24.3125 -20.07 24.3125 -20.75 24.3125 C-20.75 27.6125 -20.75 30.9125 -20.75 34.3125 C-21.41 34.3125 -22.07 34.3125 -22.75 34.3125 C-23.08 35.3025 -23.41 36.2925 -23.75 37.3125 C-24.99546405 34.82157189 -24.5267578 33.90169267 -23.75 31.3125 C-24.74 31.6425 -25.73 31.9725 -26.75 32.3125 C-26.75 31.6525 -26.75 30.9925 -26.75 30.3125 C-27.74 30.3125 -28.73 30.3125 -29.75 30.3125 C-31.49627478 27.69308783 -32.13722388 26.27425123 -32.75 23.3125 C-30.77 22.9825 -28.79 22.6525 -26.75 22.3125 C-25.76 18.8475 -25.76 18.8475 -24.75 15.3125 C-23.76 15.3125 -22.77 15.3125 -21.75 15.3125 C-21.75 14.6525 -21.75 13.9925 -21.75 13.3125 C-20.76 13.3125 -19.77 13.3125 -18.75 13.3125 C-18.75 12.6525 -18.75 11.9925 -18.75 11.3125 C-17.375 9.6875 -17.375 9.6875 -15.75 8.3125 C-15.09 8.3125 -14.43 8.3125 -13.75 8.3125 C-13.75 9.3025 -13.75 10.2925 -13.75 11.3125 C-13.06292445 8.82185112 -12.75 6.93363708 -12.75 4.3125 C-10.25 2.625 -10.25 2.625 -7.75 1.3125 C-7.42 2.6325 -7.09 3.9525 -6.75 5.3125 C-6.193125 4.4875 -5.63625 3.6625 -5.0625 2.8125 C-2.75 0.3125 -2.75 0.3125 0 0 Z " fill="#0D0E0E" transform="translate(86.75,67.6875)"/>
<path d="M0 0 C2.1796875 0.0625 2.1796875 0.0625 5 1 C7.01054065 3.12969497 8.54303469 5.54239028 10.125 8 C13.12806519 13.07166829 13.12806519 13.07166829 18 16 C18.76173392 20.3164922 19.16063604 23.74433453 18 28 C20.47266765 27.65555119 20.47266765 27.65555119 23 27 C23.33 26.34 23.66 25.68 24 25 C26 28 26 28 26 32 C23.21398777 32.92867074 21.38933911 33.16342217 18.5 33.1875 C17.7265625 33.20167969 16.953125 33.21585938 16.15625 33.23046875 C14 33 14 33 11 31 C10.3125 27.875 10.3125 27.875 10 25 C9.01 24.67 8.02 24.34 7 24 C7 22.02 7 20.04 7 18 C7.99 18 8.98 18 10 18 C10 18.99 10 19.98 10 21 C10.66 20.67 11.32 20.34 12 20 C11.34 19.38125 10.68 18.7625 10 18.125 C8 16 8 16 8 14 C7.01 13.67 6.02 13.34 5 13 C5 11.68 5 10.36 5 9 C4.34 8.67 3.68 8.34 3 8 C3 6.68 3 5.36 3 4 C2.34 4 1.68 4 1 4 C0.67 2.68 0.34 1.36 0 0 Z " fill="#0B0C0B" transform="translate(86,136)"/>
<path d="M0 0 C0.66 0.99 1.32 1.98 2 3 C2.99 2.34 3.98 1.68 5 1 C5 1.66 5 2.32 5 3 C5.66 3.33 6.32 3.66 7 4 C6.04882866 5.1725131 5.08882991 6.33787015 4.125 7.5 C3.59132812 8.1496875 3.05765625 8.799375 2.5078125 9.46875 C2.01023438 9.9740625 1.51265625 10.479375 1 11 C0.34 11 -0.32 11 -1 11 C-1.66 12.65 -2.32 14.3 -3 16 C-3.66 16 -4.32 16 -5 16 C-5.268125 16.58265625 -5.53625 17.1653125 -5.8125 17.765625 C-7.01480991 20.02786601 -8.33825913 21.80576318 -10 23.75 C-10.515625 24.36359375 -11.03125 24.9771875 -11.5625 25.609375 C-13 27 -13 27 -15 27 C-15 27.66 -15 28.32 -15 29 C-16.43359375 30.375 -16.43359375 30.375 -18.4375 32 C-23.44723852 36.23900951 -27.70195744 41.05526122 -32 46 C-32.33 44.68 -32.66 43.36 -33 42 C-32.01 41.505 -32.01 41.505 -31 41 C-30.67 40.01 -30.34 39.02 -30 38 C-29.34 38 -28.68 38 -28 38 C-28 37.34 -28 36.68 -28 36 C-27.34 36 -26.68 36 -26 36 C-26 35.34 -26 34.68 -26 34 C-25.01 34 -24.02 34 -23 34 C-23 33.34 -23 32.68 -23 32 C-23.66 31.67 -24.32 31.34 -25 31 C-24.34 30.01 -23.68 29.02 -23 28 C-22.61500109 26.34450469 -22.27206865 24.6777567 -22 23 C-20.66666667 23.66666667 -19.33333333 24.33333333 -18 25 C-18 25.99 -18 26.98 -18 28 C-17.34 28 -16.68 28 -16 28 C-16 26.35 -16 24.7 -16 23 C-15.34 22.67 -14.68 22.34 -14 22 C-13.34 22.33 -12.68 22.66 -12 23 C-12 22.01 -12 21.02 -12 20 C-11.34 20 -10.68 20 -10 20 C-10 19.34 -10 18.68 -10 18 C-11.98 18.33 -13.96 18.66 -16 19 C-14.1628218 14.71325087 -11.22317434 12.15122291 -7.875 9 C-6.05411382 7.05772141 -5.12978433 5.37954575 -4 3 C-1.875 1.25 -1.875 1.25 0 0 Z " fill="#272729" transform="translate(99,50)"/>
<path d="M0 0 C0.33 0.66 0.66 1.32 1 2 C1.58523437 2.08765625 2.17046875 2.1753125 2.7734375 2.265625 C6.14007786 3.37602568 7.62756007 5.97926775 9.625 8.75 C10.51265978 9.94427886 11.40069084 11.13828183 12.2890625 12.33203125 C12.73926758 12.94385254 13.18947266 13.55567383 13.65332031 14.18603516 C15.32303939 16.43513101 17.04096586 18.6437299 18.76464844 20.8515625 C40.01238111 48.12928413 40.01238111 48.12928413 39 58 C36.27976922 59.36011539 34.0338119 59.2062431 31 59.25 C29.9275 59.27578125 28.855 59.3015625 27.75 59.328125 C26.8425 59.21984375 25.935 59.1115625 25 59 C24.34 58.01 23.68 57.02 23 56 C24.485 56.495 24.485 56.495 26 57 C28.06145107 57.068991 30.12501401 57.08467727 32.1875 57.0625 C33.27417969 57.05347656 34.36085937 57.04445312 35.48046875 57.03515625 C36.72763672 57.01775391 36.72763672 57.01775391 38 57 C37.34 55.02 36.68 53.04 36 51 C34.02 51.66 32.04 52.32 30 53 C30 49.04 30 45.08 30 41 C28.68 40.67 27.36 40.34 26 40 C24.04296875 37.890625 24.04296875 37.890625 22.1875 35.25 C21.56230469 34.38890625 20.93710938 33.5278125 20.29296875 32.640625 C18.77748618 29.54556089 18.96266487 28.2221136 20 25 C19.01 25 18.02 25 17 25 C16.67 24.01 16.34 23.02 16 22 C15.34 22.66 14.68 23.32 14 24 C14 23.01 14 22.02 14 21 C13.34 21 12.68 21 12 21 C12 20.34 12 19.68 12 19 C12.66 19 13.32 19 14 19 C11.94766315 16.7522025 10.99332739 15.9977758 8 15 C7.3125 12.9375 7.3125 12.9375 7 11 C6.34 11 5.68 11 5 11 C2.95830515 8.09451118 2 6.59857954 2 3 C1.34 3 0.68 3 0 3 C0 2.01 0 1.02 0 0 Z " fill="#878788" transform="translate(74,111)"/>
<path d="M0 0 C2.31 0 4.62 0 7 0 C7.33 0.66 7.66 1.32 8 2 C9.97888961 2.72693904 11.97954558 3.39816251 14 4 C14 4.99 14 5.98 14 7 C13.34 7 12.68 7 12 7 C12 7.66 12 8.32 12 9 C12.99 9 13.98 9 15 9 C15.33 9.99 15.66 10.98 16 12 C16.66 12.33 17.32 12.66 18 13 C18.73075648 15.3140622 19.40138258 17.64828869 20 20 C19.67 20.33 19.34 20.66 19 21 C21.64 21.33 24.28 21.66 27 22 C28.23921302 24.97411124 29.30058404 27.85262818 30 31 C28.68 30.67 27.36 30.34 26 30 C26.33 31.98 26.66 33.96 27 36 C21.31854082 30.53046026 16.7156568 24.29727168 12 18 C11.24589844 16.99453125 10.49179688 15.9890625 9.71484375 14.953125 C6.13854688 10.11342605 2.83282038 5.31153821 0 0 Z M21 15 C21.66 15.66 22.32 16.32 23 17 C22.67 17.66 22.34 18.32 22 19 C21.34 18.67 20.68 18.34 20 18 C20.33 17.01 20.66 16.02 21 15 Z " fill="#27282A" transform="translate(58,114)"/>
<path d="M0 0 C1.13888672 0.11601563 1.13888672 0.11601563 2.30078125 0.234375 C2.63078125 0.894375 2.96078125 1.554375 3.30078125 2.234375 C6.33012616 2.89209928 6.33012616 2.89209928 9.30078125 3.234375 C9.30078125 3.564375 9.30078125 3.894375 9.30078125 4.234375 C7.50987872 4.42903832 5.7180162 4.61488713 3.92578125 4.796875 C2.42917969 4.95349609 2.42917969 4.95349609 0.90234375 5.11328125 C-1.69921875 5.234375 -1.69921875 5.234375 -3.69921875 4.234375 C-3.69921875 5.224375 -3.69921875 6.214375 -3.69921875 7.234375 C-4.68921875 7.729375 -4.68921875 7.729375 -5.69921875 8.234375 C-6.00859375 9.03875 -6.31796875 9.843125 -6.63671875 10.671875 C-7.69921875 13.234375 -7.69921875 13.234375 -10.69921875 15.234375 C-10.69921875 16.224375 -10.69921875 17.214375 -10.69921875 18.234375 C-11.68921875 18.234375 -12.67921875 18.234375 -13.69921875 18.234375 C-13.36921875 19.224375 -13.03921875 20.214375 -12.69921875 21.234375 C-11.70921875 21.234375 -10.71921875 21.234375 -9.69921875 21.234375 C-14.36588542 25.90104167 -19.03255208 30.56770833 -23.69921875 35.234375 C-23.69921875 31.27873336 -22.29400481 30.12570804 -19.69921875 27.234375 C-18.70921875 26.574375 -17.71921875 25.914375 -16.69921875 25.234375 C-17.02921875 24.244375 -17.35921875 23.254375 -17.69921875 22.234375 C-19.01921875 22.564375 -20.33921875 22.894375 -21.69921875 23.234375 C-20.04138784 19.31586558 -17.58983519 16.33146404 -14.69921875 13.234375 C-12.51171875 12.609375 -12.51171875 12.609375 -10.69921875 12.234375 C-9.99770723 10.9190409 -9.33757396 9.58149224 -8.69921875 8.234375 C-7.80170834 6.79204156 -6.86263206 5.37485834 -5.88671875 3.984375 C-5.40589844 3.27796875 -4.92507812 2.5715625 -4.4296875 1.84375 C-2.69921875 0.234375 -2.69921875 0.234375 0 0 Z " fill="#575759" transform="translate(133.69921875,41.765625)"/>
<path d="M0 0 C1.66666667 1.66666667 3.33333333 3.33333333 5 5 C5.928125 5.886875 6.85625 6.77375 7.8125 7.6875 C10 10 10 10 10 12 C10.66 12 11.32 12 12 12 C13.8915307 14.21418617 15.67649679 16.43566984 17.4375 18.75 C17.92798828 19.38421875 18.41847656 20.0184375 18.92382812 20.671875 C19.87161217 21.89977336 20.81374525 23.13205934 21.74951172 24.36914062 C22.76713541 25.69630312 23.83215774 26.98701737 24.91015625 28.265625 C25.26980469 28.83796875 25.62945312 29.4103125 26 30 C25.67 30.99 25.34 31.98 25 33 C25 32.34 25 31.68 25 31 C24.2575 30.79375 23.515 30.5875 22.75 30.375 C19.21534495 28.60767247 18.14639853 26.25421712 16 23 C15.07574219 22.81244141 15.07574219 22.81244141 14.1328125 22.62109375 C10.97177157 21.70057084 9.88842855 19.71872004 7.9375 17.125 C5.32568659 13.60818383 5.32568659 13.60818383 2.296875 10.47265625 C0.5326793 8.46933764 0.50317185 6.94377159 0.3125 4.3125 C0.24675781 3.50425781 0.18101563 2.69601563 0.11328125 1.86328125 C0.07589844 1.24839844 0.03851563 0.63351563 0 0 Z " fill="#737374" transform="translate(118,121)"/>
<path d="M0 0 C1 2 1 2 0.5 3.9375 C-0.23602403 6.17665424 -0.23602403 6.17665424 1 9 C0.05125 9.28875 -0.8975 9.5775 -1.875 9.875 C-5.05211578 10.76825109 -5.05211578 10.76825109 -7 13 C-7.99 13 -8.98 13 -10 13 C-10 13.99 -10 14.98 -10 16 C-10.66 16 -11.32 16 -12 16 C-12.33 17.32 -12.66 18.64 -13 20 C-12.34 20.33 -11.68 20.66 -11 21 C-11.33 21.99 -11.66 22.98 -12 24 C-10.68 24 -9.36 24 -8 24 C-7.67 25.65 -7.34 27.3 -7 29 C-9.97 27.35 -12.94 25.7 -16 24 C-15.01 26.64 -14.02 29.28 -13 32 C-16.08957939 30.9346278 -17.0251094 29.9623359 -18.875 27.1875 C-20 24 -20 24 -19.296875 21.54345703 C-17.92966432 18.86205627 -16.53295897 17.20153084 -14.375 15.1171875 C-13.66859375 14.42496094 -12.9621875 13.73273438 -12.234375 13.01953125 C-11.49703125 12.31183594 -10.7596875 11.60414062 -10 10.875 C-8.53952619 9.45793188 -7.08110227 8.0387472 -5.625 6.6171875 C-4.97789063 5.99440918 -4.33078125 5.37163086 -3.6640625 4.72998047 C-1.80533026 2.89978682 -1.80533026 2.89978682 0 0 Z " fill="#605F63" transform="translate(102,76)"/>
<path d="M0 0 C0.33 0.66 0.66 1.32 1 2 C0.34 2 -0.32 2 -1 2 C-1.268125 2.58265625 -1.53625 3.1653125 -1.8125 3.765625 C-3.01480991 6.02786601 -4.33825913 7.80576318 -6 9.75 C-6.515625 10.36359375 -7.03125 10.9771875 -7.5625 11.609375 C-9 13 -9 13 -11 13 C-11 13.66 -11 14.32 -11 15 C-12.43359375 16.375 -12.43359375 16.375 -14.4375 18 C-19.44723852 22.23900951 -23.70195744 27.05526122 -28 32 C-28.33 30.68 -28.66 29.36 -29 28 C-28.34 27.67 -27.68 27.34 -27 27 C-26.67 26.01 -26.34 25.02 -26 24 C-25.34 24 -24.68 24 -24 24 C-24 23.34 -24 22.68 -24 22 C-23.34 22 -22.68 22 -22 22 C-22 21.34 -22 20.68 -22 20 C-21.01 20 -20.02 20 -19 20 C-19 19.34 -19 18.68 -19 18 C-19.66 17.67 -20.32 17.34 -21 17 C-20.34 16.01 -19.68 15.02 -19 14 C-18.61500109 12.34450469 -18.27206865 10.6777567 -18 9 C-16.66666667 9.66666667 -15.33333333 10.33333333 -14 11 C-14 11.99 -14 12.98 -14 14 C-13.34 14 -12.68 14 -12 14 C-12 12.35 -12 10.7 -12 9 C-11.34 8.67 -10.68 8.34 -10 8 C-9.34 8.33 -8.68 8.66 -8 9 C-8 8.01 -8 7.02 -8 6 C-7.34 6 -6.68 6 -6 6 C-6.33 5.01 -6.66 4.02 -7 3 C-6.67 2.34 -6.34 1.68 -6 1 C-2.9375 0.375 -2.9375 0.375 0 0 Z " fill="#292A2A" transform="translate(95,64)"/>
<path d="M0 0 C2.97 0 5.94 0 9 0 C9.33 1.65 9.66 3.3 10 5 C9.071875 5.12375 9.071875 5.12375 8.125 5.25 C7.42375 5.4975 6.7225 5.745 6 6 C5.74089844 6.5465625 5.48179687 7.093125 5.21484375 7.65625 C3.48899167 10.98586815 0.97732086 13.53131851 -1.5625 16.25 C-2.06974609 16.80429687 -2.57699219 17.35859375 -3.09960938 17.9296875 C-4.3755325 19.30924752 -5.68503798 20.65759897 -7 22 C-7.33 22 -7.66 22 -8 22 C-8 20.02 -8 18.04 -8 16 C-7.01 16 -6.02 16 -5 16 C-5 15.01 -5 14.02 -5 13 C-4.34 13 -3.68 13 -3 13 C-2.67 12.34 -2.34 11.68 -2 11 C-1.34 10.01 -0.68 9.02 0 8 C-0.66 8 -1.32 8 -2 8 C-1.67 6.68 -1.34 5.36 -1 4 C-1.66 3.67 -2.32 3.34 -3 3 C-2.01 2.67 -1.02 2.34 0 2 C0 1.34 0 0.68 0 0 Z " fill="#39393A" transform="translate(136,46)"/>
<path d="M0 0 C0.66 0 1.32 0 2 0 C2 0.66 2 1.32 2 2 C2.66 2 3.32 2 4 2 C4 3.32 4 4.64 4 6 C4.99 6.33 5.98 6.66 7 7 C7 8.32 7 9.64 7 11 C7.66 11.33 8.32 11.66 9 12 C9 12.66 9 13.32 9 14 C9.639375 14.268125 10.27875 14.53625 10.9375 14.8125 C13 16 13 16 14 19 C13.01 19 12.02 19 11 19 C11 18.01 11 17.02 11 16 C10.01 16 9.02 16 8 16 C8.34227572 18.97065509 8.34227572 18.97065509 9 22 C9.66 22.33 10.32 22.66 11 23 C11.625 26.0625 11.625 26.0625 12 29 C-1 12.81573034 -1 12.81573034 -1 6 C0.32 6.33 1.64 6.66 3 7 C2.505 6.21625 2.01 5.4325 1.5 4.625 C0 2 0 2 0 0 Z " fill="#161617" transform="translate(85,138)"/>
<path d="M0 0 C1.11375 0.1546875 1.11375 0.1546875 2.25 0.3125 C2.25 0.9725 2.25 1.6325 2.25 2.3125 C1.59 2.3125 0.93 2.3125 0.25 2.3125 C0.25 3.3025 0.25 4.2925 0.25 5.3125 C-0.74 5.3125 -1.73 5.3125 -2.75 5.3125 C-3.08 6.9625 -3.41 8.6125 -3.75 10.3125 C-4.41 10.3125 -5.07 10.3125 -5.75 10.3125 C-5.75 9.3225 -5.75 8.3325 -5.75 7.3125 C-6.74 7.6425 -7.73 7.9725 -8.75 8.3125 C-9.08 7.3225 -9.41 6.3325 -9.75 5.3125 C-10.08 7.6225 -10.41 9.9325 -10.75 12.3125 C-11.53375 12.56 -12.3175 12.8075 -13.125 13.0625 C-16.07317108 14.46639099 -16.6524777 15.31925737 -17.75 18.3125 C-20.39 18.3125 -23.03 18.3125 -25.75 18.3125 C-25.255 16.8275 -25.255 16.8275 -24.75 15.3125 C-23.76 15.3125 -22.77 15.3125 -21.75 15.3125 C-21.75 14.6525 -21.75 13.9925 -21.75 13.3125 C-20.76 13.3125 -19.77 13.3125 -18.75 13.3125 C-18.75 12.6525 -18.75 11.9925 -18.75 11.3125 C-17.375 9.6875 -17.375 9.6875 -15.75 8.3125 C-15.09 8.3125 -14.43 8.3125 -13.75 8.3125 C-13.75 9.3025 -13.75 10.2925 -13.75 11.3125 C-13.06292445 8.82185112 -12.75 6.93363708 -12.75 4.3125 C-10.25 2.625 -10.25 2.625 -7.75 1.3125 C-7.42 2.6325 -7.09 3.9525 -6.75 5.3125 C-6.193125 4.4875 -5.63625 3.6625 -5.0625 2.8125 C-2.75 0.3125 -2.75 0.3125 0 0 Z " fill="#1F1F21" transform="translate(86.75,67.6875)"/>
<path d="M0 0 C2.31 0 4.62 0 7 0 C7.33 0.66 7.66 1.32 8 2 C9.97888961 2.72693904 11.97954558 3.39816251 14 4 C14 4.99 14 5.98 14 7 C13.34 7 12.68 7 12 7 C12 7.66 12 8.32 12 9 C12.99 9 13.98 9 15 9 C14.67 9.99 14.34 10.98 14 12 C14.87483915 14.16715557 14.87483915 14.16715557 16 16 C13.00264557 15.92968083 10.79300214 15.76327131 8.56738281 13.62109375 C7.16489964 11.79469906 5.88206662 9.92927444 4.625 8 C4.17511719 7.34515625 3.72523437 6.6903125 3.26171875 6.015625 C0 1.21723024 0 1.21723024 0 0 Z " fill="#414242" transform="translate(58,114)"/>
<path d="M0 0 C0.99 0.33 1.98 0.66 3 1 C3 1.66 3 2.32 3 3 C3.66 3 4.32 3 5 3 C5 4.65 5 6.3 5 8 C6.19625 7.649375 7.3925 7.29875 8.625 6.9375 C12.37673012 5.98287828 15.2006739 6.05016847 19 7 C18.67 8.32 18.34 9.64 18 11 C12.72 11.66 7.44 12.32 2 13 C0 7 0 7 0 5 C-0.33 4.01 -0.66 3.02 -1 2 C-0.67 1.34 -0.34 0.68 0 0 Z " fill="#0B0C0C" transform="translate(128,148)"/>
<path d="M0 0 C0 0.66 0 1.32 0 2 C0.66 2 1.32 2 2 2 C1.71915428 6.02545534 1.21634296 7.74482626 -1.4375 10.875 C-4 13 -4 13 -6 13 C-6.33 12.34 -6.66 11.68 -7 11 C-8.32 11.99 -9.64 12.98 -11 14 C-11.765625 11.80078125 -11.765625 11.80078125 -12 9 C-10.234375 6.54296875 -10.234375 6.54296875 -7.75 4.1875 C-6.94046875 3.39730469 -6.1309375 2.60710937 -5.296875 1.79296875 C-3 0 -3 0 0 0 Z " fill="#101111" transform="translate(126,63)"/>
<path d="M0 0 C0.99 0.33 1.98 0.66 3 1 C2.67 2.65 2.34 4.3 2 6 C3.32 5.67 4.64 5.34 6 5 C6.66 6.65 7.32 8.3 8 10 C7.360625 10.28875 6.72125 10.5775 6.0625 10.875 C3.84793921 11.82823451 3.84793921 11.82823451 3 14 C0.9375 14.625 0.9375 14.625 -1 15 C-2.3399161 12.04430272 -3.46247398 9.2095 -4 6 C-2.1875 2.4375 -2.1875 2.4375 0 0 Z " fill="#0C0D0D" transform="translate(105,74)"/>
<path d="M0 0 C3.62057996 0.24729005 4.77305986 0.74612804 7.23828125 3.50390625 C7.92277344 4.51324219 8.60726562 5.52257812 9.3125 6.5625 C10.00988281 7.57441406 10.70726563 8.58632812 11.42578125 9.62890625 C11.94527344 10.41136719 12.46476562 11.19382812 13 12 C12.67 12.66 12.34 13.32 12 14 C11.01 13.34 10.02 12.68 9 12 C7.515 11.9071875 7.515 11.9071875 6 11.8125 C5.01 11.544375 4.02 11.27625 3 11 C0.75812043 7.0393461 0 4.56567773 0 0 Z " fill="#4E4E4E" transform="translate(105,107)"/>
<path d="M0 0 C0.66 0 1.32 0 2 0 C2 0.99 2 1.98 2 3 C1.34 3 0.68 3 0 3 C0 5.97 0 8.94 0 12 C-1.98 12.99 -1.98 12.99 -4 14 C-3.34 12.68 -2.68 11.36 -2 10 C-2.66 10 -3.32 10 -4 10 C-4.33 10.99 -4.66 11.98 -5 13 C-5.66 13 -6.32 13 -7 13 C-7 13.66 -7 14.32 -7 15 C-7.99 15 -8.98 15 -10 15 C-10 15.66 -10 16.32 -10 17 C-11.32 17.33 -12.64 17.66 -14 18 C-12.35044362 13.91068059 -9.42596684 11.02035178 -6.4375 7.875 C-2.81366093 4.23596593 -2.81366093 4.23596593 0 0 Z " fill="#747475" transform="translate(75,66)"/>
<path d="M0 0 C3.35620271 1.38877354 5.07298728 2.91677965 7 6 C7 6.66 7 7.32 7 8 C7.4125 7.484375 7.825 6.96875 8.25 6.4375 C9.11625 5.7259375 9.11625 5.7259375 10 5 C12.1875 5.3125 12.1875 5.3125 14 6 C14 6.66 14 7.32 14 8 C15.98 8 17.96 8 20 8 C20 9.98 20 11.96 20 14 C15.05 14.33 10.1 14.66 5 15 C8.03525486 12.97649676 9.19426202 12.67875982 12.6875 12.375 C13.49574219 12.30023438 14.30398437 12.22546875 15.13671875 12.1484375 C16.05904297 12.07496094 16.05904297 12.07496094 17 12 C17.33 11.01 17.66 10.02 18 9 C13.21521178 8.90235126 8.72314313 9.22887459 4 10 C4 8.35 4 6.7 4 5 C3.34 5 2.68 5 2 5 C1.34 3.35 0.68 1.7 0 0 Z " fill="#494A4A" transform="translate(129,146)"/>
<path d="M0 0 C0.66 0 1.32 0 2 0 C2.474375 0.639375 2.94875 1.27875 3.4375 1.9375 C4.9091365 4.28372963 4.9091365 4.28372963 8 5 C8.33 6.65 8.66 8.3 9 10 C10.32 10.33 11.64 10.66 13 11 C13 11.66 13 12.32 13 13 C13.99 13 14.98 13 16 13 C16.33 13.99 16.66 14.98 17 16 C16.34 16 15.68 16 15 16 C15.33 16.99 15.66 17.98 16 19 C16.66 19.33 17.32 19.66 18 20 C18.625 22.5625 18.625 22.5625 19 25 C18.34 24.67 17.68 24.34 17 24 C17 23.34 17 22.68 17 22 C16.34 22 15.68 22 15 22 C13.31115591 19.8448556 11.73693718 17.68977466 10.1875 15.4375 C9.54844727 14.52387695 9.54844727 14.52387695 8.89648438 13.59179688 C8.03396217 12.35869024 7.17443217 11.12348536 6.31787109 9.88623047 C4.9585321 7.94064821 3.56890113 6.01915011 2.17578125 4.09765625 C0 1 0 1 0 0 Z M18 19 C20 20 20 20 20 20 Z " fill="#757676" transform="translate(102,126)"/>
<path d="M0 0 C0.99 0.33 1.98 0.66 3 1 C2.67 1.66 2.34 2.32 2 3 C3.98 2.34 5.96 1.68 8 1 C8.33 1.99 8.66 2.98 9 4 C11.00016466 5.20882096 11.00016466 5.20882096 13 6 C12.01 6 11.02 6 10 6 C10.33 7.32 10.66 8.64 11 10 C8.33333333 10 5.66666667 10 3 10 C3 9.01 3 8.02 3 7 C2.34 7 1.68 7 1 7 C0.67 4.69 0.34 2.38 0 0 Z " fill="#0E100F" transform="translate(46,95)"/>
<path d="M0 0 C0.93423645 3.01031744 1.04449911 3.86650268 0 7 C-1.06541016 7.18175781 -1.06541016 7.18175781 -2.15234375 7.3671875 C-3.07144531 7.53476563 -3.99054687 7.70234375 -4.9375 7.875 C-6.31228516 8.11863281 -6.31228516 8.11863281 -7.71484375 8.3671875 C-8.46894531 8.57601562 -9.22304688 8.78484375 -10 9 C-10.33 9.66 -10.66 10.32 -11 11 C-11.99 11 -12.98 11 -14 11 C-13.67 13.31 -13.34 15.62 -13 18 C-12.34 18 -11.68 18 -11 18 C-11.33 18.66 -11.66 19.32 -12 20 C-16.93770764 15.66445183 -16.93770764 15.66445183 -17.1875 13 C-15.38946064 9.97172318 -12.73785619 8.16746948 -10 6 C-9.67 5.34 -9.34 4.68 -9 4 C-7.00882592 3.30741771 -5.0078864 2.64252365 -3 2 C-2.01 1.34 -1.02 0.68 0 0 Z " fill="#646567" transform="translate(60,84)"/>
<path d="M0 0 C3.76299173 1.68344367 4.83844768 2.60665523 6.4375 6.5 C7 10 7 10 5 13 C6.32 13.33 7.64 13.66 9 14 C8.34 15.32 7.68 16.64 7 18 C5.68227638 16.40012144 4.37098863 14.79494034 3.0625 13.1875 C2.33160156 12.29417969 1.60070312 11.40085938 0.84765625 10.48046875 C-1 8 -1 8 -2 5 C-0.68 5 0.64 5 2 5 C1.34 3.35 0.68 1.7 0 0 Z M8 5 C8.66 5.66 9.32 6.32 10 7 C9.67 7.66 9.34 8.32 9 9 C8.34 8.67 7.68 8.34 7 8 C7.33 7.01 7.66 6.02 8 5 Z " fill="#545455" transform="translate(71,124)"/>
<path d="M0 0 C0.33 0.66 0.66 1.32 1 2 C1.57234375 2.08121094 2.1446875 2.16242188 2.734375 2.24609375 C6.27796397 3.42525353 8.04716267 6.20329399 10.25 9.0625 C10.70890625 9.61099609 11.1678125 10.15949219 11.640625 10.72460938 C15.1623573 15.24731023 15.47298441 18.31796361 15 24 C14.67 23.01 14.34 22.02 14 21 C13.34 21 12.68 21 12 21 C12 20.34 12 19.68 12 19 C12.66 19 13.32 19 14 19 C11.94766315 16.7522025 10.99332739 15.9977758 8 15 C7.3125 12.9375 7.3125 12.9375 7 11 C6.34 11 5.68 11 5 11 C2.95830515 8.09451118 2 6.59857954 2 3 C1.34 3 0.68 3 0 3 C0 2.01 0 1.02 0 0 Z " fill="#666767" transform="translate(74,111)"/>
<path d="M0 0 C0.66 0.99 1.32 1.98 2 3 C2.99 2.34 3.98 1.68 5 1 C5 1.66 5 2.32 5 3 C5.66 3.33 6.32 3.66 7 4 C6.04882866 5.1725131 5.08882991 6.33787015 4.125 7.5 C3.59132813 8.1496875 3.05765625 8.799375 2.5078125 9.46875 C1.76144531 10.22671875 1.76144531 10.22671875 1 11 C0.34 11 -0.32 11 -1 11 C-1.33 11.99 -1.66 12.98 -2 14 C-2.98120464 10.94736336 -2.98120464 9.05263664 -2 6 C-2.66 6 -3.32 6 -4 6 C-3.6875 4.125 -3.6875 4.125 -3 2 C-2.01 1.34 -1.02 0.68 0 0 Z " fill="#4B4B4B" transform="translate(99,50)"/>
<path d="M0 0 C2.475 0.99 2.475 0.99 5 2 C5 2.99 5 3.98 5 5 C5.99 5 6.98 5 8 5 C8.33 7.97 8.66 10.94 9 14 C6.27976922 15.36011539 4.0338119 15.2062431 1 15.25 C-0.0725 15.27578125 -1.145 15.3015625 -2.25 15.328125 C-3.1575 15.21984375 -4.065 15.1115625 -5 15 C-5.66 14.01 -6.32 13.02 -7 12 C-6.01 12.33 -5.02 12.66 -4 13 C-1.93854893 13.068991 0.12501401 13.08467727 2.1875 13.0625 C3.27417969 13.05347656 4.36085938 13.04445312 5.48046875 13.03515625 C6.31191406 13.02355469 7.14335938 13.01195312 8 13 C7.34 11.02 6.68 9.04 6 7 C4.02 7.66 2.04 8.32 0 9 C0 6.03 0 3.06 0 0 Z " fill="#747475" transform="translate(104,155)"/>
<path d="M0 0 C1.98 0 3.96 0 6 0 C6 0.66 6 1.32 6 2 C5.01 2.495 5.01 2.495 4 3 C4.33 3.99 4.66 4.98 5 6 C4.67 6.66 4.34 7.32 4 8 C4.66 8 5.32 8 6 8 C6 9.32 6 10.64 6 12 C1.97224198 10.71454531 -0.06507894 9.93492106 -3 7 C-2.625 4.875 -2.625 4.875 -2 3 C-1.34 3 -0.68 3 0 3 C0 2.01 0 1.02 0 0 Z " fill="#0F0F10" transform="translate(130,46)"/>
<path d="M0 0 C0.33 0.66 0.66 1.32 1 2 C0.34 2 -0.32 2 -1 2 C-1.268125 2.58265625 -1.53625 3.1653125 -1.8125 3.765625 C-3.01480991 6.02786601 -4.33825913 7.80576318 -6 9.75 C-6.515625 10.36359375 -7.03125 10.9771875 -7.5625 11.609375 C-9 13 -9 13 -11 13 C-11 13.66 -11 14.32 -11 15 C-11.99 15.33 -12.98 15.66 -14 16 C-14 15.34 -14 14.68 -14 14 C-13.34 14 -12.68 14 -12 14 C-12 12.35 -12 10.7 -12 9 C-11.34 8.67 -10.68 8.34 -10 8 C-9.34 8.33 -8.68 8.66 -8 9 C-8 8.01 -8 7.02 -8 6 C-7.34 6 -6.68 6 -6 6 C-6.33 5.01 -6.66 4.02 -7 3 C-6.67 2.34 -6.34 1.68 -6 1 C-2.9375 0.375 -2.9375 0.375 0 0 Z " fill="#6B6B6D" transform="translate(95,64)"/>
<path d="M0 0 C1.11375 0.1546875 1.11375 0.1546875 2.25 0.3125 C2.25 0.9725 2.25 1.6325 2.25 2.3125 C1.59 2.3125 0.93 2.3125 0.25 2.3125 C0.25 3.3025 0.25 4.2925 0.25 5.3125 C-0.74 5.3125 -1.73 5.3125 -2.75 5.3125 C-3.08 6.9625 -3.41 8.6125 -3.75 10.3125 C-4.41 10.3125 -5.07 10.3125 -5.75 10.3125 C-5.75 9.3225 -5.75 8.3325 -5.75 7.3125 C-6.74 7.6425 -7.73 7.9725 -8.75 8.3125 C-9.08 7.6525 -9.41 6.9925 -9.75 6.3125 C-10.74 6.6425 -11.73 6.9725 -12.75 7.3125 C-12.75 6.3225 -12.75 5.3325 -12.75 4.3125 C-10.25 2.625 -10.25 2.625 -7.75 1.3125 C-7.42 2.6325 -7.09 3.9525 -6.75 5.3125 C-6.193125 4.4875 -5.63625 3.6625 -5.0625 2.8125 C-2.75 0.3125 -2.75 0.3125 0 0 Z " fill="#111112" transform="translate(86.75,67.6875)"/>
<path d="M0 0 C0.99 0.66 1.98 1.32 3 2 C-2.14285714 6.42857143 -2.14285714 6.42857143 -6 7 C-6 7.66 -6 8.32 -6 9 C-6.99 9.495 -6.99 9.495 -8 10 C-8 11.32 -8 12.64 -8 14 C-7.01 14 -6.02 14 -5 14 C-5 14.66 -5 15.32 -5 16 C-6.65 16 -8.3 16 -10 16 C-11.125 10.25 -11.125 10.25 -10 8 C-9.34 8 -8.68 8 -8 8 C-8 7.01 -8 6.02 -8 5 C-5.11165997 2.89229241 -3.61537605 2 0 2 C0 1.34 0 0.68 0 0 Z " fill="#3D3D41" transform="translate(100,84)"/>
<path d="M0 0 C2.1875 -0.4375 2.1875 -0.4375 5 0 C7.1498429 2.05908436 8.82981229 4.25841737 10 7 C9.6328125 9.234375 9.6328125 9.234375 9 11 C8.34 11 7.68 11 7 11 C5.8515625 9.5390625 5.8515625 9.5390625 4.625 7.625 C2.71546096 4.82018746 1.32428 3.10809333 -2 2 C-1.34 2 -0.68 2 0 2 C0 1.34 0 0.68 0 0 Z " fill="#090A0A" transform="translate(129,143)"/>
<path d="M0 0 C5.85809934 4.24712202 10.40806985 9.71168868 14 16 C13.67 16.99 13.34 17.98 13 19 C13 18.34 13 17.68 13 17 C12.236875 16.773125 11.47375 16.54625 10.6875 16.3125 C7.38791107 14.70107285 6.56043177 13.27690673 5 10 C4.855625 9.319375 4.71125 8.63875 4.5625 7.9375 C3.77496779 5.22488904 1.99856224 3.93409249 0 2 C0 1.34 0 0.68 0 0 Z " fill="#999A9B" transform="translate(130,135)"/>
<path d="M0 0 C1.74627478 2.61941217 2.38722388 4.03824877 3 7 C3.99 7 4.98 7 6 7 C6 7.66 6 8.32 6 9 C3.625 9.1875 3.625 9.1875 1 9 C0.34 8.01 -0.32 7.02 -1 6 C-2.65 6.33 -4.3 6.66 -6 7 C-5.39816251 4.97954558 -4.72693904 2.97888961 -4 1 C-2 0 -2 0 0 0 Z " fill="#222325" transform="translate(54,91)"/>
<path d="M0 0 C4.28070699 0.47563411 6.3004085 2.80311533 9 6 C10.3125 9.3125 10.3125 9.3125 11 12 C10.34 12 9.68 12 9 12 C9 11.01 9 10.02 9 9 C6.525 8.01 6.525 8.01 4 7 C4 6.01 4 5.02 4 4 C2.68 3.67 1.36 3.34 0 3 C0 2.01 0 1.02 0 0 Z " fill="#858487" transform="translate(100,148)"/>
<path d="M0 0 C0.99 0.33 1.98 0.66 3 1 C2.09066991 2.27609323 1.17217147 3.54565553 0.25 4.8125 C-0.26046875 5.52019531 -0.7709375 6.22789063 -1.296875 6.95703125 C-3.02482358 9.02977691 -4.78526476 10.47375854 -7 12 C-7 10.02 -7 8.04 -7 6 C-6.01 6 -5.02 6 -4 6 C-4 5.01 -4 4.02 -4 3 C-3.34 3 -2.68 3 -2 3 C-1.67 2.34 -1.34 1.68 -1 1 C-0.67 0.67 -0.34 0.34 0 0 Z " fill="#545455" transform="translate(135,56)"/>
<path d="M0 0 C0.66 0 1.32 0 2 0 C2 0.66 2 1.32 2 2 C2.99 2 3.98 2 5 2 C5 2.99 5 3.98 5 5 C5.99 4.67 6.98 4.34 8 4 C8.12375 4.969375 8.2475 5.93875 8.375 6.9375 C8.58125 7.948125 8.7875 8.95875 9 10 C9.66 10.33 10.32 10.66 11 11 C11.625 14.0625 11.625 14.0625 12 17 C9.15117747 13.48388571 6.41751228 9.9054798 3.75 6.25 C3.04359375 5.28578125 2.3371875 4.3215625 1.609375 3.328125 C0 1 0 1 0 0 Z " fill="#717171" transform="translate(85,150)"/>
<path d="M0 0 C1.875 0.1875 1.875 0.1875 4 1 C4.70211894 2.65204456 5.36971413 4.31923769 6 6 C6.99 6.33 7.98 6.66 9 7 C8.67 7.99 8.34 8.98 8 10 C4.9054129 9.6684371 3.97195314 8.97117406 1.75 6.6875 C0 4 0 4 0 0 Z " fill="#58585B" transform="translate(126,134)"/>
<path d="M0 0 C-0.33 0.99 -0.66 1.98 -1 3 C-1.66 3 -2.32 3 -3 3 C-3.226875 3.5775 -3.45375 4.155 -3.6875 4.75 C-5.33038023 7.5663661 -7.39533227 9.08077114 -10 11 C-10 9.68 -10 8.36 -10 7 C-9.34 7 -8.68 7 -8 7 C-8.33 6.01 -8.66 5.02 -9 4 C-8.01 4 -7.02 4 -6 4 C-5.67 3.01 -5.34 2.02 -5 1 C-2 0 -2 0 0 0 Z " fill="#59595A" transform="translate(114,84)"/>
<path d="M0 0 C0.99 0 1.98 0 3 0 C3 0.66 3 1.32 3 2 C3.66 2.33 4.32 2.66 5 3 C3.47005208 4.23697917 1.94010417 5.47395833 0.41015625 6.7109375 C-1.13266437 7.9666391 -1.13266437 7.9666391 -2 10 C-2.99 9.67 -3.98 9.34 -5 9 C-4.67 8.01 -4.34 7.02 -4 6 C-3.01 6 -2.02 6 -1 6 C-1.020625 5.195625 -1.04125 4.39125 -1.0625 3.5625 C-1 1 -1 1 0 0 Z " fill="#232325" transform="translate(113,64)"/>
<path d="M0 0 C0.33 1.32 0.66 2.64 1 4 C0.46375 3.773125 -0.0725 3.54625 -0.625 3.3125 C-3.19714407 2.74852584 -3.19714407 2.74852584 -6 4.5 C-9 6 -9 6 -11.375 5.6875 C-11.91125 5.460625 -12.4475 5.23375 -13 5 C-12.38125 4.731875 -11.7625 4.46375 -11.125 4.1875 C-8.7004767 3.04443152 -8.7004767 3.04443152 -7 0 C-3.86650268 -1.04449911 -3.01031744 -0.93423645 0 0 Z " fill="#777777" transform="translate(109,37)"/>
<path d="M0 0 C2.4375 1.1875 2.4375 1.1875 5 3 C5.8125 5.6875 5.8125 5.6875 6 8 C5.01 8.33 4.02 8.66 3 9 C2.67 9.99 2.34 10.98 2 12 C0.02 8.535 0.02 8.535 -2 5 C-0.68 5 0.64 5 2 5 C1.34 3.35 0.68 1.7 0 0 Z " fill="#676869" transform="translate(71,124)"/>
<path d="M0 0 C1.32 0.33 2.64 0.66 4 1 C0.7 4.63 -2.6 8.26 -6 12 C-6.33 10.68 -6.66 9.36 -7 8 C-6.34 7.67 -5.68 7.34 -5 7 C-4.67 6.01 -4.34 5.02 -4 4 C-3.34 4 -2.68 4 -2 4 C-2 3.34 -2 2.68 -2 2 C-1.34 2 -0.68 2 0 2 C0 1.34 0 0.68 0 0 Z " fill="#6D6C6E" transform="translate(73,84)"/>
<path d="M0 0 C0.33 0.99 0.66 1.98 1 3 C0.01 4.485 0.01 4.485 -1 6 C-1.66 6 -2.32 6 -3 6 C-3 6.66 -3 7.32 -3 8 C-3.99 8 -4.98 8 -6 8 C-6 8.66 -6 9.32 -6 10 C-7.32 10.33 -8.64 10.66 -10 11 C-8.55218207 7.55571735 -6.72305391 5.63869038 -3.875 3.25 C-3.15054688 2.63640625 -2.42609375 2.0228125 -1.6796875 1.390625 C-0.84824219 0.70226562 -0.84824219 0.70226562 0 0 Z " fill="#626264" transform="translate(71,73)"/>
<path d="M0 0 C1.32 0.66 2.64 1.32 4 2 C4 2.99 4 3.98 4 5 C2.68 4.67 1.36 4.34 0 4 C0.33 5.98 0.66 7.96 1 10 C-3.875 5.25 -3.875 5.25 -5 3 C-3.35 3 -1.7 3 0 3 C0 2.01 0 1.02 0 0 Z " fill="#646567" transform="translate(84,140)"/>
<path d="M0 0 C0.66 0 1.32 0 2 0 C2 0.66 2 1.32 2 2 C2.66 2.33 3.32 2.66 4 3 C2.02 5.31 0.04 7.62 -2 10 C-2.33 9.34 -2.66 8.68 -3 8 C-2.67 7.34 -2.34 6.68 -2 6 C-2.99 6 -3.98 6 -5 6 C-5 5.34 -5 4.68 -5 4 C-3.68 4.33 -2.36 4.66 -1 5 C-0.67 3.35 -0.34 1.7 0 0 Z " fill="#4A4A4B" transform="translate(124,66)"/>
<path d="M0 0 C0.66 0 1.32 0 2 0 C2.33 0.66 2.66 1.32 3 2 C5.52733235 2.65555119 5.52733235 2.65555119 8 3 C8.12375 4.423125 8.12375 4.423125 8.25 5.875 C8.65074923 9.10461791 8.65074923 9.10461791 11.0625 10.375 C11.701875 10.58125 12.34125 10.7875 13 11 C10.76953125 11.30859375 10.76953125 11.30859375 8 11 C5.76171875 8.84765625 5.76171875 8.84765625 3.6875 6.0625 C2.64142578 4.68771484 2.64142578 4.68771484 1.57421875 3.28515625 C0 1 0 1 0 0 Z " fill="#838484" transform="translate(121,151)"/>
<path d="M0 0 C3 1 3 1 4.1875 2.875 C5 5 5 5 5 8 C1.73045798 7.43628586 0.17424117 6.50037734 -2 4 C-1.34 2.68 -0.68 1.36 0 0 Z " fill="#787879" transform="translate(100,99)"/>
<path d="M0 0 C0 3 0 3 -1 5 C-1.99 5 -2.98 5 -4 5 C-3.67 7.31 -3.34 9.62 -3 12 C-2.34 12 -1.68 12 -1 12 C-1.33 12.66 -1.66 13.32 -2 14 C-6.93770764 9.66445183 -6.93770764 9.66445183 -7.1875 7 C-5.35901997 3.92045468 -2.83644564 2.17259666 0 0 Z " fill="#8E8F8F" transform="translate(50,90)"/>
<path d="M0 0 C0.99 0.33 1.98 0.66 3 1 C2.67 2.32 2.34 3.64 2 5 C1.01 5 0.02 5 -1 5 C-0.67 6.65 -0.34 8.3 0 10 C-0.99 10.495 -0.99 10.495 -2 11 C-3.25 8.875 -3.25 8.875 -4 6 C-2.125 2.6875 -2.125 2.6875 0 0 Z " fill="#242426" transform="translate(105,74)"/>
<path d="M0 0 C0.66 0 1.32 0 2 0 C2.33 0.66 2.66 1.32 3 2 C5.52733235 2.65555119 5.52733235 2.65555119 8 3 C7.01 3.495 7.01 3.495 6 4 C6.33 4.99 6.66 5.98 7 7 C7.66 7.33 8.32 7.66 9 8 C9.625 10.5625 9.625 10.5625 10 13 C9.34 12.67 8.68 12.34 8 12 C8 11.34 8 10.68 8 10 C7.34 10 6.68 10 6 10 C4.4921875 8.06640625 4.4921875 8.06640625 2.875 5.5625 C2.33617188 4.73878906 1.79734375 3.91507813 1.2421875 3.06640625 C0 1 0 1 0 0 Z M9 7 C11 8 11 8 11 8 Z " fill="#969797" transform="translate(111,138)"/>
<path d="M0 0 C1.65 0 3.3 0 5 0 C6.2077558 3.62326739 5.54311128 4.64146369 4 8 C3.01 8 2.02 8 1 8 C0.34 9.32 -0.32 10.64 -1 12 C-0.625 9.5625 -0.625 9.5625 0 7 C0.66 6.67 1.32 6.34 2 6 C2 4.68 2 3.36 2 2 C1.34 1.34 0.68 0.68 0 0 Z " fill="#A3A2A3" transform="translate(110,39)"/>
<path d="M0 0 C1 2 1 2 0.5 3.9375 C-0.23602403 6.17665424 -0.23602403 6.17665424 1 9 C-0.98 9.33 -2.96 9.66 -5 10 C-3.84414715 6.08788267 -2.64465038 3.1254959 0 0 Z " fill="#6A6A6C" transform="translate(102,76)"/>
<path d="M0 0 C0.33 0.66 0.66 1.32 1 2 C0.34 2 -0.32 2 -1 2 C-1.268125 2.639375 -1.53625 3.27875 -1.8125 3.9375 C-3 6 -3 6 -6 7 C-7.125 3.25 -7.125 3.25 -6 1 C-2.9375 0.375 -2.9375 0.375 0 0 Z " fill="#5F5E60" transform="translate(95,64)"/>
<path d="M0 0 C2.475 0.99 2.475 0.99 5 2 C5 2.66 5 3.32 5 4 C5.639375 4.268125 6.27875 4.53625 6.9375 4.8125 C9 6 9 6 10 9 C9.01 9 8.02 9 7 9 C7 8.01 7 7.02 7 6 C6.401875 5.896875 5.80375 5.79375 5.1875 5.6875 C2.68741714 4.90175967 1.62464918 4.03081147 0 2 C0 1.34 0 0.68 0 0 Z " fill="#232325" transform="translate(89,148)"/>
<path d="M0 0 C3.53586014 3.17320782 5.58578031 5.16743695 6 10 C5.01 9.67 4.02 9.34 3 9 C3 8.34 3 7.68 3 7 C2.34 7 1.68 7 1 7 C0.67 4.69 0.34 2.38 0 0 Z " fill="#565757" transform="translate(118,121)"/>
<path d="M0 0 C0.33 0.66 0.66 1.32 1 2 C0.01 2.495 0.01 2.495 -1 3 C-1 4.32 -1 5.64 -1 7 C-0.01 7 0.98 7 2 7 C2 7.66 2 8.32 2 9 C0.35 9 -1.3 9 -3 9 C-4.125 3.25 -4.125 3.25 -3 1 C-2.01 0.67 -1.02 0.34 0 0 Z " fill="#434247" transform="translate(93,91)"/>
<path d="M0 0 C0.33 0 0.66 0 1 0 C1 1.65 1 3.3 1 5 C0.01 5.33 -0.98 5.66 -2 6 C-2 6.99 -2 7.98 -2 9 C-3.98 9.66 -5.96 10.32 -8 11 C-6.76163579 7.28490737 -4.77895064 5.71117136 -2 3 C-1.34 2.01 -0.68 1.02 0 0 Z " fill="#878788" transform="translate(111,65)"/>
<path d="M0 0 C0.33 0.66 0.66 1.32 1 2 C3.02463255 2.65213292 3.02463255 2.65213292 5 3 C5.33 5.64 5.66 8.28 6 11 C2 6.375 2 6.375 2 3 C1.34 3 0.68 3 0 3 C0 2.01 0 1.02 0 0 Z " fill="#434444" transform="translate(74,111)"/>
<path d="M0 0 C2.52349243 3.12432397 4.27256146 6.38060496 6 10 C3.69 9.34 1.38 8.68 -1 8 C-1 7.34 -1 6.68 -1 6 C-0.34 6 0.32 6 1 6 C0.67 4.02 0.34 2.04 0 0 Z " fill="#7E7E80" transform="translate(65,96)"/>
<path d="M0 0 C0.33 0.66 0.66 1.32 1 2 C-0.54442235 5.63393495 -1.48567857 6.78822059 -5.1875 8.3125 C-6.5796875 8.6528125 -6.5796875 8.6528125 -8 9 C-7.04270084 7.87411986 -6.08412105 6.7493285 -5.125 5.625 C-4.59132813 4.99851562 -4.05765625 4.37203125 -3.5078125 3.7265625 C-2.38567993 2.44163349 -1.20628025 1.20628025 0 0 Z " fill="#AEACAF" transform="translate(97,82)"/>
<path d="M0 0 C0.66 0.33 1.32 0.66 2 1 C2 2.32 2 3.64 2 5 C-0.31 5.66 -2.62 6.32 -5 7 C-4.34 5.68 -3.68 4.36 -3 3 C-2.34 3 -1.68 3 -1 3 C-0.67 2.01 -0.34 1.02 0 0 Z " fill="#141415" transform="translate(110,80)"/>
<path d="M0 0 C1.32 0.33 2.64 0.66 4 1 C4 1.66 4 2.32 4 3 C5.65 3 7.3 3 9 3 C9 4.65 9 6.3 9 8 C8.34 7.67 7.68 7.34 7 7 C7.33 6.01 7.66 5.02 8 4 C6.02 4 4.04 4 2 4 C1.34 2.68 0.68 1.36 0 0 Z " fill="#2F3031" transform="translate(139,151)"/>
<path d="M0 0 C0.99 0.66 1.98 1.32 3 2 C2.67 3.32 2.34 4.64 2 6 C0.68 5.67 -0.64 5.34 -2 5 C-2 3.68 -2 2.36 -2 1 C-1.34 0.67 -0.68 0.34 0 0 Z " fill="#262729" transform="translate(127,139)"/>
<path d="M0 0 C0.33 0.66 0.66 1.32 1 2 C0.01 3.485 0.01 3.485 -1 5 C-1.66 5 -2.32 5 -3 5 C-3.33 6.98 -3.66 8.96 -4 11 C-4.66 9.68 -5.32 8.36 -6 7 C-4.02 4.69 -2.04 2.38 0 0 Z " fill="#C5C5C6" transform="translate(88,91)"/>
<path d="M0 0 C1.65 1.65 3.3 3.3 5 5 C4.67 5.66 4.34 6.32 4 7 C2.02 6.34 0.04 5.68 -2 5 C-2 4.34 -2 3.68 -2 3 C-1.34 3 -0.68 3 0 3 C0 2.01 0 1.02 0 0 Z " fill="#A8A9AA" transform="translate(100,143)"/>
<path d="M0 0 C1.32 0 2.64 0 4 0 C3.67 0.99 3.34 1.98 3 3 C3.87483915 5.16715557 3.87483915 5.16715557 5 7 C3.35 6.67 1.7 6.34 0 6 C-0.33 5.01 -0.66 4.02 -1 3 C-0.34 3 0.32 3 1 3 C0.67 2.01 0.34 1.02 0 0 Z " fill="#353637" transform="translate(69,123)"/>
<path d="M0 0 C0.99 0.33 1.98 0.66 3 1 C3.73046875 2.84765625 3.73046875 2.84765625 4.1875 5.0625 C4.34605469 5.79597656 4.50460938 6.52945313 4.66796875 7.28515625 C4.83232422 8.13400391 4.83232422 8.13400391 5 9 C3.0625 8.4375 3.0625 8.4375 1 7 C0.25 3.375 0.25 3.375 0 0 Z " fill="#656667" transform="translate(84,99)"/>
<path d="M0 0 C-1.15093722 3.45281166 -2.3205993 4.38082163 -5.0625 6.6875 C-5.79597656 7.31011719 -6.52945313 7.93273437 -7.28515625 8.57421875 C-7.85105469 9.04472656 -8.41695313 9.51523438 -9 10 C-9 7 -9 7 -7.5390625 5.17578125 C-6.90742187 4.56089844 -6.27578125 3.94601563 -5.625 3.3125 C-4.68527344 2.37857422 -4.68527344 2.37857422 -3.7265625 1.42578125 C-2 0 -2 0 0 0 Z " fill="#7E7E7F" transform="translate(93,59)"/>
<path d="M0 0 C0 0.66 0 1.32 0 2 C-0.66 2 -1.32 2 -2 2 C-2 2.99 -2 3.98 -2 5 C-2.99 5 -3.98 5 -5 5 C-5.33 3.35 -5.66 1.7 -6 0 C-3 -1 -3 -1 0 0 Z " fill="#232326" transform="translate(133,57)"/>
<path d="M0 0 C2.66735273 2.48952921 4.55746343 4.63408134 6 8 C4.68 8 3.36 8 2 8 C0.23537317 4.91190305 0 3.76687864 0 0 Z " fill="#959595" transform="translate(89,128)"/>
<path d="M0 0 C0.66 0 1.32 0 2 0 C2 0.66 2 1.32 2 2 C3.32 2 4.64 2 6 2 C6.33 3.65 6.66 5.3 7 7 C3.535 5.02 3.535 5.02 0 3 C0 2.01 0 1.02 0 0 Z " fill="#A8A8A8" transform="translate(88,98)"/>
<path d="M0 0 C0.66 0 1.32 0 2 0 C2 0.66 2 1.32 2 2 C2.66 2 3.32 2 4 2 C4 3.32 4 4.64 4 6 C2.02 5.34 0.04 4.68 -2 4 C-1.34 2.68 -0.68 1.36 0 0 Z " fill="#151617" transform="translate(132,52)"/>
<path d="M0 0 C0.66 0.99 1.32 1.98 2 3 C1.67 3.66 1.34 4.32 1 5 C2.32 5 3.64 5 5 5 C5 5.66 5 6.32 5 7 C3.35 6.67 1.7 6.34 0 6 C-1.125 2.25 -1.125 2.25 0 0 Z " fill="#464646" transform="translate(53,107)"/>
<path d="M0 0 C0.33 0 0.66 0 1 0 C1.125 2.375 1.125 2.375 1 5 C0.34 5.66 -0.32 6.32 -1 7 C-1.99 6.67 -2.98 6.34 -4 6 C-2.69593116 3.98079663 -1.36176581 1.98075027 0 0 Z " fill="#707070" transform="translate(81,59)"/>
<path d="M0 0 C0.33 0.66 0.66 1.32 1 2 C-1.21934164 5.32901247 -2.34683329 5.75023244 -6 7 C-4.60667426 3.63279613 -3.0210714 2.0140476 0 0 Z " fill="#8C8D8D" transform="translate(92,47)"/>
<path d="M0 0 C0.66 0.33 1.32 0.66 2 1 C2 1.66 2 2.32 2 3 C2.66 3.33 3.32 3.66 4 4 C2.02 4 0.04 4 -2 4 C-2.33 3.01 -2.66 2.02 -3 1 C-2.01 0.67 -1.02 0.34 0 0 Z " fill="#141515" transform="translate(126,150)"/>
<path d="M0 0 C2.97 0.495 2.97 0.495 6 1 C6 1.66 6 2.32 6 3 C4.35 3.33 2.7 3.66 1 4 C0.67 2.68 0.34 1.36 0 0 Z " fill="#222324" transform="translate(117,142)"/>
<path d="M0 0 C2.475 0.495 2.475 0.495 5 1 C5 2.98 5 4.96 5 7 C2.47411298 4.63707344 1.11179163 3.33537489 0 0 Z " fill="#858586" transform="translate(69,129)"/>
<path d="M0 0 C1.32 0.33 2.64 0.66 4 1 C4 1.99 4 2.98 4 4 C4.66 4 5.32 4 6 4 C5.67 5.32 5.34 6.64 5 8 C4.34 7.34 3.68 6.68 3 6 C3 4.68 3 3.36 3 2 C2.01 1.67 1.02 1.34 0 1 C0 0.67 0 0.34 0 0 Z " fill="#262729" transform="translate(73,125)"/>
<path d="M0 0 C0.99 0.33 1.98 0.66 3 1 C-1.75 5.875 -1.75 5.875 -4 7 C-2.92598892 4.08482708 -2.22189824 2.22189824 0 0 Z " fill="#B6B6B5" transform="translate(113,70)"/>
<path d="M0 0 C0.66 0 1.32 0 2 0 C2 0.66 2 1.32 2 2 C2.66 2.33 3.32 2.66 4 3 C2.68 4.32 1.36 5.64 0 7 C0 4.69 0 2.38 0 0 Z " fill="#5E5E5F" transform="translate(124,66)"/>
<path d="M0 0 C1.125 3.75 1.125 3.75 0 6 C-1.64363134 6.72159424 -3.31050386 7.39351421 -5 8 C-3.62845496 5.04590299 -2.01136276 2.55991624 0 0 Z " fill="#A1A1A2" transform="translate(117,57)"/>
<path d="M0 0 C0.99 0.33 1.98 0.66 3 1 C1.02 3.97 1.02 3.97 -1 7 C-1.66 5.68 -2.32 4.36 -3 3 C-2 2 -1 1 0 0 Z " fill="#646465" transform="translate(135,56)"/>
</svg>
