<?xml version="1.0" encoding="UTF-8"?>
<svg version="1.1" xmlns="http://www.w3.org/2000/svg" width="200" height="203">
<path d="M0 0 C3.18115815 2.38748178 4.90328948 5.66255563 7 9 C8.8956065 11.61512243 10.85751152 14.17911068 12.8125 16.75 C13.85627652 18.14392675 14.89924538 19.53845865 15.94140625 20.93359375 C18.67946827 24.58462967 21.45654596 28.20376557 24.25 31.8125 C35.61324565 46.53722024 35.61324565 46.53722024 39.0625 52.5625 C41.64152063 55.80707434 44.01213768 56.2331034 48 57 C48.38218767 58.65614657 48.71395102 60.32457024 49 62 C48.67 62.33 48.34 62.66 48 63 C48.49371094 63.37511719 48.98742187 63.75023437 49.49609375 64.13671875 C54.7941681 68.36878216 54.7941681 68.36878216 55.9375 71.875 C55.958125 72.57625 55.97875 73.2775 56 74 C55.50628906 74.40992187 55.01257813 74.81984375 54.50390625 75.2421875 C53.54291016 76.05042969 53.54291016 76.05042969 52.5625 76.875 C51.60537109 77.67550781 51.60537109 77.67550781 50.62890625 78.4921875 C48.89194996 79.9222757 48.89194996 79.9222757 48 82 C46.63875 82.4021875 46.63875 82.4021875 45.25 82.8125 C41.36224126 84.23302723 39.83712459 86.00063514 37 89 C36.53400391 89.48895752 36.06800781 89.97791504 35.58789062 90.48168945 C29.34945389 97.05821597 23.44830981 103.74846709 18 111 C16.61254507 112.79816266 15.2165022 114.58972748 13.8125 116.375 C13.17957031 117.18710938 12.54664062 117.99921875 11.89453125 118.8359375 C10 121 10 121 7.82421875 122.6015625 C5.70286332 123.95721772 5.70286332 123.95721772 5 127 C3.00854609 128.01691264 1.00812926 129.01642648 -1 130 C-1.66 130.99 -2.32 131.98 -3 133 C-5.97903963 134.15317663 -6.86559131 134.0448029 -10 133 C-10.33 132.34 -10.66 131.68 -11 131 C-12.65 131 -14.3 131 -16 131 C-17.2077558 127.37673261 -16.54311128 126.35853631 -15 123 C-14.01 123 -13.02 123 -12 123 C-11.67 121.68 -11.34 120.36 -11 119 C-10.34 119 -9.68 119 -9 119 C-9 118.34 -9 117.68 -9 117 C-7.52295788 115.74772516 -6.04172601 114.49833478 -4.5078125 113.31640625 C-2.73237056 111.88235909 -2.73237056 111.88235909 -1 109 C-0.34 109 0.32 109 1 109 C1.66 107.35 2.32 105.7 3 104 C3.66 104 4.32 104 5 104 C5.268125 103.41734375 5.53625 102.8346875 5.8125 102.234375 C7.01480991 99.97213399 8.33825913 98.19423682 10 96.25 C10.515625 95.63640625 11.03125 95.0228125 11.5625 94.390625 C13 93 13 93 15 93 C15 92.34 15 91.68 15 91 C16.43359375 89.625 16.43359375 89.625 18.4375 88 C23.44723852 83.76099049 27.70195744 78.94473878 32 74 C30.78281746 69.91121204 29.35090058 66.71865299 26.875 63.25 C24 59.20574163 24 59.20574163 24 57 C23.43539062 56.95359375 22.87078125 56.9071875 22.2890625 56.859375 C18.93494207 55.6001489 17.40193875 53.0616513 15.375 50.25 C14.48734022 49.05572114 13.59930916 47.86171817 12.7109375 46.66796875 C12.26073242 46.05614746 11.81052734 45.44432617 11.34667969 44.81396484 C9.67696061 42.56486899 7.95903414 40.3562701 6.23535156 38.1484375 C-15.01238111 10.87071587 -15.01238111 10.87071587 -14 1 C-9.66334526 -1.16832737 -4.66557815 -0.88120881 0 0 Z " fill="#0E0F0F" transform="translate(101,33)"/>
<path d="M0 0 C3.73927061 0.68553295 5.44637751 3.44331186 7.65625 6.3046875 C8.3378418 7.13806641 8.3378418 7.13806641 9.03320312 7.98828125 C12.34375 12.12024201 12.34375 12.12024201 12.34375 14.4296875 C13.00375 14.4296875 13.66375 14.4296875 14.34375 14.4296875 C15.95336928 16.45920746 17.43944702 18.48737399 18.90625 20.6171875 C19.56463867 21.55872681 19.56463867 21.55872681 20.23632812 22.51928711 C21.15269419 23.83155093 22.06621922 25.14580276 22.97705078 26.46191406 C24.28357771 28.34305144 25.60559488 30.21210588 26.93359375 32.078125 C27.73734757 33.21588567 28.54074842 34.35389579 29.34375 35.4921875 C30.065625 36.51441406 30.7875 37.53664062 31.53125 38.58984375 C33.34375 41.4296875 33.34375 41.4296875 34.421875 44.15234375 C35.56126174 46.96701524 37.33594646 48.21218914 39.6875 50.05078125 C43.57566573 53.28786263 46.51031223 57.07894353 49.15625 61.3671875 C49.37848189 64.99697511 48.92840597 65.42992612 46.65625 68.1171875 C45.24278585 69.57832802 43.80175669 71.012991 42.34375 72.4296875 C40.93044781 73.82512492 39.51727552 75.22070206 38.1081543 76.62036133 C36.71427376 77.99736623 35.3047077 79.35843834 33.89453125 80.71875 C31.32018634 83.45473065 29.37756187 86.28055944 27.34375 89.4296875 C25.67708333 91.09635417 24.01041667 92.76302083 22.34375 94.4296875 C19.52807454 97.99475462 16.88106024 101.68693511 14.21875 105.3671875 C12.13814535 107.65585261 11.23070532 107.75606459 8.34375 108.4296875 C7.64117954 109.74445629 6.98109456 111.08209181 6.34375 112.4296875 C5.44623959 113.87202094 4.50716331 115.28920416 3.53125 116.6796875 C2.81001953 117.73929688 2.81001953 117.73929688 2.07421875 118.8203125 C0.34375 120.4296875 0.34375 120.4296875 -2.35546875 120.6640625 C-3.11472656 120.58671875 -3.87398437 120.509375 -4.65625 120.4296875 C-4.98625 119.7696875 -5.31625 119.1096875 -5.65625 118.4296875 C-7.54389903 117.74496085 -7.54389903 117.74496085 -9.71875 117.3046875 C-10.45222656 117.13710937 -11.18570313 116.96953125 -11.94140625 116.796875 C-12.79025391 116.61511719 -12.79025391 116.61511719 -13.65625 116.4296875 C-14.15125 113.9546875 -14.15125 113.9546875 -14.65625 111.4296875 C-14.0375 111.3471875 -13.41875 111.2646875 -12.78125 111.1796875 C-12.08 110.9321875 -11.37875 110.6846875 -10.65625 110.4296875 C-10.26759766 109.60404297 -10.26759766 109.60404297 -9.87109375 108.76171875 C-8.15750979 105.47229875 -5.63659327 103.02343102 -3.09375 100.3671875 C2.33384446 94.60006232 7.38497968 88.60605687 12.34375 82.4296875 C14.29242199 80.02842072 16.25930624 77.71749163 18.34375 75.4296875 C19.00375 75.4296875 19.66375 75.4296875 20.34375 75.4296875 C20.59898438 74.85734375 20.85421875 74.285 21.1171875 73.6953125 C22.47462159 71.18795017 24.06349104 69.2966419 25.96875 67.1796875 C26.60039063 66.47328125 27.23203125 65.766875 27.8828125 65.0390625 C28.36492187 64.50796875 28.84703125 63.976875 29.34375 63.4296875 C28.84875 62.6665625 28.35375 61.9034375 27.84375 61.1171875 C26.34375 58.4296875 26.34375 58.4296875 26.34375 55.4296875 C25.62960938 55.41035156 24.91546875 55.39101562 24.1796875 55.37109375 C19.9269891 53.95938533 18.4071059 50.9864938 15.96875 47.3671875 C15.00951129 45.99529271 14.04728281 44.62548339 13.08203125 43.2578125 C12.61748535 42.59716797 12.15293945 41.93652344 11.67431641 41.25585938 C9.48988873 38.2577825 7.0294381 35.54354396 4.48828125 32.84765625 C3.34375 31.4296875 3.34375 31.4296875 3.34375 29.4296875 C2.68375 29.4296875 2.02375 29.4296875 1.34375 29.4296875 C-0.5477807 27.21550133 -2.33274679 24.99401766 -4.09375 22.6796875 C-4.58423828 22.04546875 -5.07472656 21.41125 -5.58007812 20.7578125 C-6.5283455 19.52928797 -7.47173934 18.29698264 -8.40966797 17.06054688 C-9.41687219 15.74285706 -10.45570663 14.44938127 -11.50390625 13.1640625 C-12.65625 11.4296875 -12.65625 11.4296875 -12.65625 8.4296875 C-14.30625 8.4296875 -15.95625 8.4296875 -17.65625 8.4296875 C-17.65625 6.4496875 -17.65625 4.4696875 -17.65625 2.4296875 C-15.26093244 2.09223396 -12.86510732 1.7596046 -10.46875 1.4296875 C-9.45844727 1.28660156 -9.45844727 1.28660156 -8.42773438 1.140625 C-5.61596436 0.75657836 -2.80223019 0.45330194 0 0 Z " fill="#0F1010" transform="translate(68.65625,40.5703125)"/>
<path d="M0 0 C0.66 0 1.32 0 2 0 C2 0.66 2 1.32 2 2 C4.475 2.495 4.475 2.495 7 3 C7.495 4.485 7.495 4.485 8 6 C7.34 6 6.68 6 6 6 C6.2475 7.010625 6.495 8.02125 6.75 9.0625 C7.05533938 13.87159529 6.04354749 16.34207181 3 20 C0.25 21.9375 0.25 21.9375 -2 23 C1.77667683 23.14634146 1.77667683 23.14634146 4.5 22.4375 C7.07209227 21.98738385 8.55207232 22.18402411 11 23 C11 22.01 11 21.02 11 20 C12.32 20 13.64 20 15 20 C15 19.01 15 18.02 15 17 C15.99 17 16.98 17 18 17 C17.505 15.515 17.505 15.515 17 14 C16.34 13.67 15.68 13.34 15 13 C15 12.01 15 11.02 15 10 C14.01 10 13.02 10 12 10 C12 9.34 12 8.68 12 8 C13.65 8 15.3 8 17 8 C17.495 9.98 17.495 9.98 18 12 C18.99 12 19.98 12 21 12 C21 11.34 21 10.68 21 10 C21.99 10 22.98 10 24 10 C24 10.66 24 11.32 24 12 C24.66 12 25.32 12 26 12 C25.65555119 9.52733235 25.65555119 9.52733235 25 7 C24.01 6.505 24.01 6.505 23 6 C23.33 5.34 23.66 4.68 24 4 C28.93770764 8.33554817 28.93770764 8.33554817 29.1875 11 C27.38946064 14.02827682 24.73785619 15.83253052 22 18 C21.67 18.66 21.34 19.32 21 20 C20.0925 20.268125 19.185 20.53625 18.25 20.8125 C14.36224126 22.23302723 12.83712459 24.00063514 10 27 C9.53400391 27.48895752 9.06800781 27.97791504 8.58789062 28.48168945 C2.34945389 35.05821597 -3.55169019 41.74846709 -9 49 C-10.38745493 50.79816266 -11.7834978 52.58972748 -13.1875 54.375 C-14.13689453 55.59316406 -14.13689453 55.59316406 -15.10546875 56.8359375 C-17 59 -17 59 -19.17578125 60.6015625 C-21.29713668 61.95721772 -21.29713668 61.95721772 -22 65 C-23.99145391 66.01691264 -25.99187074 67.01642648 -28 68 C-28.66 68.99 -29.32 69.98 -30 71 C-32.97903963 72.15317663 -33.86559131 72.0448029 -37 71 C-37.33 70.34 -37.66 69.68 -38 69 C-39.65 69 -41.3 69 -43 69 C-44.2077558 65.37673261 -43.54311128 64.35853631 -42 61 C-41.01 61 -40.02 61 -39 61 C-38.67 59.68 -38.34 58.36 -38 57 C-37.34 57 -36.68 57 -36 57 C-36 56.34 -36 55.68 -36 55 C-34.52295788 53.74772516 -33.04172601 52.49833478 -31.5078125 51.31640625 C-29.73237056 49.88235909 -29.73237056 49.88235909 -28 47 C-27.34 47 -26.68 47 -26 47 C-25.34 45.35 -24.68 43.7 -24 42 C-23.34 42 -22.68 42 -22 42 C-21.731875 41.41734375 -21.46375 40.8346875 -21.1875 40.234375 C-19.98519009 37.97213399 -18.66174087 36.19423682 -17 34.25 C-16.484375 33.63640625 -15.96875 33.0228125 -15.4375 32.390625 C-14 31 -14 31 -12 31 C-12 30.34 -12 29.68 -12 29 C-10.56640625 27.625 -10.56640625 27.625 -8.5625 26 C-3.55276148 21.76099049 0.70195744 16.94473878 5 12 C3.76301489 8.06316044 2.54570872 5.23999291 0 2 C0 1.34 0 0.68 0 0 Z " fill="#222322" transform="translate(128,95)"/>
<path d="M0 0 C2 0 4 0 6 0 C6.495 1.485 6.495 1.485 7 3 C8.40105576 4.42857119 8.40105576 4.42857119 10.0625 5.6875 C11.031875 6.450625 12.00125 7.21375 13 8 C12.34 10.31 11.68 12.62 11 15 C10.34 15 9.68 15 9 15 C8.9071875 15.86625 8.9071875 15.86625 8.8125 16.75 C7.68515666 19.87187385 5.5835832 20.99772302 3 23 C2.505 24.485 2.505 24.485 2 26 C3.32 25.67 4.64 25.34 6 25 C5.34 25.99 4.68 26.98 4 28 C3.34 28 2.68 28 2 28 C2 28.66 2 29.32 2 30 C2.99 30.33 3.98 30.66 5 31 C5.2784375 30.01 5.2784375 30.01 5.5625 29 C7.77925982 24.37371864 10.99318592 19.0955059 16.015625 17.265625 C17.9375 17 17.9375 17 21 17 C20.34 16.67 19.68 16.34 19 16 C19 15.01 19 14.02 19 13 C18.01 13 17.02 13 16 13 C16 10.69 16 8.38 16 6 C18.64 7.65 21.28 9.3 24 11 C24 8.69 24 6.38 24 4 C27.15001961 6.57728877 28.54037164 8.93994951 29 13 C27.15994179 16.11920648 24.58441778 18.48880739 22 21 C20.58669781 22.39543742 19.17352552 23.79101456 17.7644043 25.19067383 C16.37052376 26.56767873 14.9609577 27.92875084 13.55078125 29.2890625 C10.97643634 32.02504315 9.03381187 34.85087194 7 38 C5.33333333 39.66666667 3.66666667 41.33333333 2 43 C-0.81567546 46.56506712 -3.46268976 50.25724761 -6.125 53.9375 C-8.20560465 56.22616511 -9.11304468 56.32637709 -12 57 C-12.70257046 58.31476879 -13.36265544 59.65240431 -14 61 C-14.89751041 62.44233344 -15.83658669 63.85951666 -16.8125 65.25 C-17.53373047 66.30960938 -17.53373047 66.30960938 -18.26953125 67.390625 C-20 69 -20 69 -22.69921875 69.234375 C-23.45847656 69.15703125 -24.21773437 69.0796875 -25 69 C-25.33 68.34 -25.66 67.68 -26 67 C-27.88764903 66.31527335 -27.88764903 66.31527335 -30.0625 65.875 C-30.79597656 65.70742187 -31.52945313 65.53984375 -32.28515625 65.3671875 C-33.13400391 65.18542969 -33.13400391 65.18542969 -34 65 C-34.33 63.35 -34.66 61.7 -35 60 C-34.38125 59.9175 -33.7625 59.835 -33.125 59.75 C-32.42375 59.5025 -31.7225 59.255 -31 59 C-30.61134766 58.17435547 -30.61134766 58.17435547 -30.21484375 57.33203125 C-28.50125979 54.04261125 -25.98034327 51.59374352 -23.4375 48.9375 C-18.00990554 43.17037482 -12.95877032 37.17636937 -8 31 C-6.05132801 28.59873322 -4.08444376 26.28780413 -2 24 C-1.34 24 -0.68 24 0 24 C0.25523438 23.42765625 0.51046875 22.8553125 0.7734375 22.265625 C2.13087159 19.75826267 3.71974104 17.8669544 5.625 15.75 C6.25664063 15.04359375 6.88828125 14.3371875 7.5390625 13.609375 C8.02117187 13.07828125 8.50328125 12.5471875 9 12 C8.505 11.236875 8.01 10.47375 7.5 9.6875 C6 7 6 7 6 4 C3.525 3.505 3.525 3.505 1 3 C0.505 1.515 0.505 1.515 0 0 Z " fill="#121212" transform="translate(89,92)"/>
<path d="M0 0 C3.18200949 2.38812071 4.89821348 5.66464961 7 9 C8.45986879 10.98772799 9.95620263 12.94464211 11.45605469 14.90234375 C16.20955583 21.10934707 20.81471167 27.39165 25 34 C23.02 34 21.04 34 19 34 C19 33.01 19 32.02 19 31 C17.35 31.66 15.7 32.32 14 33 C13.67 32.01 13.34 31.02 13 30 C12.01 30 11.02 30 10 30 C10 28.68 10 27.36 10 26 C9.34 26 8.68 26 8 26 C7.67 23.69 7.34 21.38 7 19 C6.195625 18.731875 5.39125 18.46375 4.5625 18.1875 C3.716875 17.795625 2.87125 17.40375 2 17 C1.67 16.01 1.34 15.02 1 14 C0.34 14 -0.32 14 -1 14 C-2.625 11.5 -2.625 11.5 -4 9 C-4.91058531 12.07322544 -5.08886184 14.80097361 -5 18 C-4.40832031 18.07089844 -3.81664063 18.14179687 -3.20703125 18.21484375 C-0.17248359 19.29439079 0.59140715 20.87200878 2.3125 23.5625 C5.13110565 27.81171544 8.14541011 31.57993597 11.6171875 35.30859375 C13 37 13 37 14 40 C13.01 40.495 13.01 40.495 12 41 C12 41.66 12 42.32 12 43 C12.99 43 13.98 43 15 43 C15 44.65 15 46.3 15 48 C9.32134318 42.52235758 4.70672877 36.30894734 0 30 C-0.45165527 29.39849121 -0.90331055 28.79698242 -1.36865234 28.17724609 C-14.92711205 10.03934249 -14.92711205 10.03934249 -14 1 C-9.66334526 -1.16832737 -4.66557815 -0.88120881 0 0 Z " fill="#171818" transform="translate(101,33)"/>
<path d="M0 0 C0.99 0.66 1.98 1.32 3 2 C2.45015228 5.87511727 0.72444669 7.59576506 -2.0625 10.25 C-3.16271484 11.30960938 -3.16271484 11.30960938 -4.28515625 12.390625 C-4.85105469 12.92171875 -5.41695312 13.4528125 -6 14 C-4.93106782 12.96409662 -3.84421512 11.94666058 -2.75 10.9375 C-2.14671875 10.36902344 -1.5434375 9.80054688 -0.921875 9.21484375 C1 8 1 8 3.234375 8.31640625 C4.10835937 8.65478516 4.10835937 8.65478516 5 9 C5 9.66 5 10.32 5 11 C4.34 11.33 3.68 11.66 3 12 C3 12.66 3 13.32 3 14 C2.01 14 1.02 14 0 14 C-0.33 16.31 -0.66 18.62 -1 21 C-1.78375 21.2475 -2.5675 21.495 -3.375 21.75 C-6.48915599 23.23293142 -6.60186455 23.97700444 -8 27 C-8.89751041 28.44233344 -9.83658669 29.85951666 -10.8125 31.25 C-11.53373047 32.30960938 -11.53373047 32.30960938 -12.26953125 33.390625 C-14 35 -14 35 -16.69921875 35.234375 C-17.45847656 35.15703125 -18.21773437 35.0796875 -19 35 C-19.33 34.34 -19.66 33.68 -20 33 C-21.88764903 32.31527335 -21.88764903 32.31527335 -24.0625 31.875 C-24.79597656 31.70742187 -25.52945313 31.53984375 -26.28515625 31.3671875 C-26.85105469 31.24601562 -27.41695312 31.12484375 -28 31 C-28.33 29.35 -28.66 27.7 -29 26 C-28.071875 25.87625 -28.071875 25.87625 -27.125 25.75 C-26.42375 25.5025 -25.7225 25.255 -25 25 C-24.71125 24.360625 -24.4225 23.72125 -24.125 23.0625 C-23 21 -23 21 -20.125 19.625 C-17 19 -17 19 -14.625 19.875 C-14.08875 20.24625 -13.5525 20.6175 -13 21 C-13.33 20.01 -13.66 19.02 -14 18 C-13.5625 15.3125 -13.5625 15.3125 -13 13 C-11.02 12.34 -9.04 11.68 -7 11 C-7.144375 10.113125 -7.28875 9.22625 -7.4375 8.3125 C-7 5 -7 5 -5.44140625 3.48828125 C-3.66586875 2.24147524 -1.87921043 1.08342234 0 0 Z " fill="#1C1C1E" transform="translate(83,126)"/>
<path d="M0 0 C0.66 0 1.32 0 2 0 C2 0.66 2 1.32 2 2 C4.475 2.495 4.475 2.495 7 3 C7.33 3.99 7.66 4.98 8 6 C7.34 6 6.68 6 6 6 C6.2475 7.010625 6.495 8.02125 6.75 9.0625 C7.05533938 13.87159529 6.04354749 16.34207181 3 20 C0.25 21.9375 0.25 21.9375 -2 23 C1.77667683 23.14634146 1.77667683 23.14634146 4.5 22.4375 C7.07209227 21.98738385 8.55207232 22.18402411 11 23 C11 22.01 11 21.02 11 20 C12.32 20 13.64 20 15 20 C15 19.01 15 18.02 15 17 C15.99 17 16.98 17 18 17 C17.505 15.515 17.505 15.515 17 14 C16.34 13.67 15.68 13.34 15 13 C15 12.01 15 11.02 15 10 C14.01 10 13.02 10 12 10 C12 9.34 12 8.68 12 8 C13.65 8 15.3 8 17 8 C17.495 9.98 17.495 9.98 18 12 C18.99 12 19.98 12 21 12 C21 11.34 21 10.68 21 10 C21.99 10 22.98 10 24 10 C24 10.66 24 11.32 24 12 C24.66 12 25.32 12 26 12 C25.65555119 9.52733235 25.65555119 9.52733235 25 7 C24.34 6.67 23.68 6.34 23 6 C23.33 5.34 23.66 4.68 24 4 C28.93770764 8.33554817 28.93770764 8.33554817 29.1875 11 C27.38946064 14.02827682 24.73785619 15.83253052 22 18 C21.67 18.66 21.34 19.32 21 20 C20.0925 20.268125 19.185 20.53625 18.25 20.8125 C12.25157475 23.0042323 8.2541254 28.84637551 4 33.5 C0.41403737 37.42271547 -3.21374086 41.26942114 -7 45 C-7.36630156 41.06225823 -7.30233203 39.43460229 -5 36.125 C-4.34 35.42375 -3.68 34.7225 -3 34 C-4.98 34.495 -4.98 34.495 -7 35 C-6.01 32.69 -5.02 30.38 -4 28 C-4.66 27.67 -5.32 27.34 -6 27 C-6 27.66 -6 28.32 -6 29 C-7.65 29.33 -9.3 29.66 -11 30 C-11 30.99 -11 31.98 -11 33 C-12.32 32.67 -13.64 32.34 -15 32 C-14.01 31.67 -13.02 31.34 -12 31 C-12 30.34 -12 29.68 -12 29 C-10.56640625 27.625 -10.56640625 27.625 -8.5625 26 C-3.55276148 21.76099049 0.70195744 16.94473878 5 12 C3.76301489 8.06316044 2.54570872 5.23999291 0 2 C0 1.34 0 0.68 0 0 Z " fill="#323233" transform="translate(128,95)"/>
<path d="M0 0 C0 0.66 0 1.32 0 2 C2.97 2.495 2.97 2.495 6 3 C6 4.98 6 6.96 6 9 C7.65 9.66 9.3 10.32 11 11 C11 11.66 11 12.32 11 13 C11.99 13.33 12.98 13.66 14 14 C14 15.65 14 17.3 14 19 C13.34 19 12.68 19 12 19 C12 18.34 12 17.68 12 17 C11.01 17 10.02 17 9 17 C9 17.66 9 18.32 9 19 C8.01 19 7.02 19 6 19 C5.67 18.01 5.34 17.02 5 16 C2.525 15.505 2.525 15.505 0 15 C0 15.66 0 16.32 0 17 C0.99 17 1.98 17 3 17 C3 17.99 3 18.98 3 20 C3.99 20.33 4.98 20.66 6 21 C6 21.99 6 22.98 6 24 C5.01 24 4.02 24 3 24 C3 24.99 3 25.98 3 27 C1.68 27 0.36 27 -1 27 C-1 27.99 -1 28.98 -1 30 C-2.2375 29.95875 -3.475 29.9175 -4.75 29.875 C-8.01637962 29.86341709 -10.2146947 30.1431298 -13 32 C-13.66 31.34 -14.32 30.68 -15 30 C-13.6875 28.5 -13.6875 28.5 -12 27 C-11.01 27 -10.02 27 -9 27 C-6.39003112 22.65005187 -6 17.99823188 -6 13 C-5.34 13 -4.68 13 -4 13 C-3.67 12.01 -3.34 11.02 -3 10 C-2.34 9.34 -1.68 8.68 -1 8 C-1.79117904 6.00016466 -1.79117904 6.00016466 -3 4 C-3.99 3.67 -4.98 3.34 -6 3 C-6 2.34 -6 1.68 -6 1 C-3 0 -3 0 0 0 Z " fill="#0B0D0C" transform="translate(140,88)"/>
<path d="M0 0 C0 1.98 0 3.96 0 6 C2.31 6.66 4.62 7.32 7 8 C6.25 14.75 6.25 14.75 4 17 C2.68 16.34 1.36 15.68 0 15 C0 15.66 0 16.32 0 17 C-2.3125 17.25 -2.3125 17.25 -5 17 C-6.97610386 14.95575462 -8 13.8823175 -8 11 C-8.99 11 -9.98 11 -11 11 C-11 10.34 -11 9.68 -11 9 C-11.99 8.67 -12.98 8.34 -14 8 C-14 7.01 -14 6.02 -14 5 C-15.65 5 -17.3 5 -19 5 C-19 3.68 -19 2.36 -19 1 C-12.63849395 0.34513908 -6.39628979 -0.12068471 0 0 Z " fill="#0C0E0D" transform="translate(71,43)"/>
<path d="M0 0 C2.01953125 1.75 2.01953125 1.75 3.8125 4 C4.41707031 4.7425 5.02164063 5.485 5.64453125 6.25 C6.09183594 6.8275 6.53914063 7.405 7 8 C6.67 8.66 6.34 9.32 6 10 C4.02 9.34 2.04 8.68 0 8 C0 6.02 0 4.04 0 2 C-1.6396875 2.2475 -1.6396875 2.2475 -3.3125 2.5 C-8.53905159 3.16622112 -13.7404008 3.08701543 -19 3 C-19 4.32 -19 5.64 -19 7 C-17.35 7 -15.7 7 -14 7 C-13.67 7.99 -13.34 8.98 -13 10 C-12.34 10.33 -11.68 10.66 -11 11 C-11 11.66 -11 12.32 -11 13 C-10.01 13 -9.02 13 -8 13 C-7.525625 13.804375 -7.05125 14.60875 -6.5625 15.4375 C-6.046875 16.283125 -5.53125 17.12875 -5 18 C-4.3915625 18.11730469 -3.783125 18.23460938 -3.15625 18.35546875 C0.01319355 19.30285677 1.10037548 21.26639514 3.0625 23.875 C5.70431544 27.41099106 5.70431544 27.41099106 8.71875 30.61328125 C10 32 10 32 10.4375 35.3125 C11.10503569 39.68856727 12.3742341 41.52721284 15 45 C14.505 45.99 14.505 45.99 14 47 C13.31292969 46.09636719 12.62585938 45.19273438 11.91796875 44.26171875 C11.00792905 43.07022347 10.09776634 41.87882214 9.1875 40.6875 C8.50977539 39.79514648 8.50977539 39.79514648 7.81835938 38.88476562 C6.02885963 36.54666012 4.27831528 34.27354757 2.17578125 32.20703125 C1 31 1 31 1 29 C0.34 29 -0.32 29 -1 29 C-2.8915307 26.78581383 -4.67649679 24.56433016 -6.4375 22.25 C-6.92798828 21.61578125 -7.41847656 20.9815625 -7.92382812 20.328125 C-8.8720955 19.09960047 -9.81548934 17.86729514 -10.75341797 16.63085938 C-11.76062219 15.31316956 -12.79945663 14.01969377 -13.84765625 12.734375 C-15 11 -15 11 -15 8 C-16.65 8 -18.3 8 -20 8 C-20 6.02 -20 4.04 -20 2 C-17.60468244 1.66254646 -15.20885732 1.3299171 -12.8125 1 C-11.80219727 0.85691406 -11.80219727 0.85691406 -10.77148438 0.7109375 C-2.75992991 -0.3833236 -2.75992991 -0.3833236 0 0 Z " fill="#7D7E80" transform="translate(71,41)"/>
<path d="M0 0 C1.09570312 0.00902344 2.19140625 0.01804688 3.3203125 0.02734375 C4.16335937 0.03894531 5.00640625 0.05054688 5.875 0.0625 C5.875 0.3925 5.875 0.7225 5.875 1.0625 C-0.56 1.5575 -0.56 1.5575 -7.125 2.0625 C-6.465 3.83625 -5.805 5.61 -5.125 7.4375 C-3.125 12.8125 -3.125 12.8125 -3.125 15.0625 C-2.465 15.0625 -1.805 15.0625 -1.125 15.0625 C-1.125 15.7225 -1.125 16.3825 -1.125 17.0625 C-0.279375 17.18625 0.56625 17.31 1.4375 17.4375 C5.91478378 19.55403415 7.41505173 22.30634911 10.06640625 26.38671875 C12.27687978 29.65707376 14.80711323 32.48734807 17.4921875 35.37109375 C18.875 37.0625 18.875 37.0625 19.875 40.0625 C18.885 40.5575 18.885 40.5575 17.875 41.0625 C17.875 41.7225 17.875 42.3825 17.875 43.0625 C18.865 43.0625 19.855 43.0625 20.875 43.0625 C20.875 44.7125 20.875 46.3625 20.875 48.0625 C15.19634318 42.58485758 10.58172877 36.37144734 5.875 30.0625 C5.42334473 29.46099121 4.97168945 28.85948242 4.50634766 28.23974609 C-9.05211205 10.10184249 -9.05211205 10.10184249 -8.125 1.0625 C-5.36047967 -0.31976016 -3.0788637 -0.03275387 0 0 Z " fill="#88898A" transform="translate(95.125,32.9375)"/>
<path d="M0 0 C3 3.75 3 3.75 3 6 C3.66 6 4.32 6 5 6 C6.37701298 7.28817344 7.70644173 8.62804426 9 10 C9.5775 10.474375 10.155 10.94875 10.75 11.4375 C12.49958044 13.62447555 12.22031983 15.28272205 12 18 C12.66 18 13.32 18 14 18 C14 19.32 14 20.64 14 22 C14.99 22 15.98 22 17 22 C17.33 23.98 17.66 25.96 18 28 C14.83664903 27.76567771 13.90507896 26.89994809 11.6875 24.5625 C8.79264535 20.8879167 6.2257179 16.97512505 3.6484375 13.07421875 C2.09100431 10.72702652 2.09100431 10.72702652 -1 10 C-2.25 3.375 -2.25 3.375 0 0 Z " fill="#080909" transform="translate(97,41)"/>
<path d="M0 0 C3.05471839 2.9047099 5.54501954 5.95145302 8 9.375 C8.69996094 10.34050781 9.39992187 11.30601563 10.12109375 12.30078125 C11.55315905 14.35807257 12.82419319 16.39144261 14.0625 18.5625 C16.64152063 21.80707434 19.01213768 22.2331034 23 23 C23.38218767 24.65614657 23.71395102 26.32457024 24 28 C23.67 28.33 23.34 28.66 23 29 C23.66 29.33 24.32 29.66 25 30 C24.67 30.66 24.34 31.32 24 32 C22.0625 31.25 22.0625 31.25 20 30 C19.1875 28 19.1875 28 19 26 C19.33 25.34 19.66 24.68 20 24 C18.02 23.67 16.04 23.34 14 23 C14 22.34 14 21.68 14 21 C12.35 21.33 10.7 21.66 9 22 C9 21.34 9 20.68 9 20 C9.66 20 10.32 20 11 20 C9.8141763 16.62496331 8.72426311 14.35277269 6 12 C5.01 12.33 4.02 12.66 3 13 C0.3125 11.25 0.3125 11.25 -2 9 C-2 8.01 -2 7.02 -2 6 C-2.99 6.33 -3.98 6.66 -5 7 C-4.34 5.68 -3.68 4.36 -3 3 C-2.01 3.33 -1.02 3.66 0 4 C0 2.68 0 1.36 0 0 Z " fill="#727273" transform="translate(126,67)"/>
<path d="M0 0 C2.4375 1.1875 2.4375 1.1875 5 3 C5.8125 5.6875 5.8125 5.6875 6 8 C5.50628906 8.40992187 5.01257813 8.81984375 4.50390625 9.2421875 C3.54291016 10.05042969 3.54291016 10.05042969 2.5625 10.875 C1.92441406 11.40867187 1.28632813 11.94234375 0.62890625 12.4921875 C-1.10805004 13.9222757 -1.10805004 13.9222757 -2 16 C-2.9075 16.268125 -3.815 16.53625 -4.75 16.8125 C-8.60372567 18.22059207 -10.26124568 19.9803478 -13 23 C-14.66666667 24.66666667 -16.33333333 26.33333333 -18 28 C-18 26.35 -18 24.7 -18 23 C-17.34 23 -16.68 23 -16 23 C-15.67 21.68 -15.34 20.36 -15 19 C-14.01 19 -13.02 19 -12 19 C-12 18.01 -12 17.02 -12 16 C-10.68 16 -9.36 16 -8 16 C-8 15.01 -8 14.02 -8 13 C-7.01 13 -6.02 13 -5 13 C-5.33 12.01 -5.66 11.02 -6 10 C-6.66 9.67 -7.32 9.34 -8 9 C-8 8.01 -8 7.02 -8 6 C-8.99 6 -9.98 6 -11 6 C-11 5.34 -11 4.68 -11 4 C-9.35 4 -7.7 4 -6 4 C-5.67 5.32 -5.34 6.64 -5 8 C-4.01 8 -3.02 8 -2 8 C-2 7.34 -2 6.68 -2 6 C-1.01 6 -0.02 6 1 6 C1 6.66 1 7.32 1 8 C1.66 8 2.32 8 3 8 C2.65555119 5.52733235 2.65555119 5.52733235 2 3 C1.34 2.67 0.68 2.34 0 2 C0 1.34 0 0.68 0 0 Z " fill="#28282A" transform="translate(151,99)"/>
<path d="M0 0 C3.15001961 2.57728877 4.54037164 4.93994951 5 9 C3.15960988 12.11976913 0.58034946 14.48394496 -2 17 C-2.95220091 17.96057706 -3.90263152 18.92291127 -4.8515625 19.88671875 C-7.54610505 22.61322819 -10.2691091 25.30986867 -13 28 C-13.66 28.66 -14.32 29.32 -15 30 C-14.67 28.35 -14.34 26.7 -14 25 C-13.34 25 -12.68 25 -12 25 C-12 24.01 -12 23.02 -12 22 C-11.34 22 -10.68 22 -10 22 C-9.67 20.68 -9.34 19.36 -9 18 C-7.68 18 -6.36 18 -5 18 C-5 17.01 -5 16.02 -5 15 C-4.01 15 -3.02 15 -2 15 C-2 14.01 -2 13.02 -2 12 C-2.99 12 -3.98 12 -5 12 C-5 11.01 -5 10.02 -5 9 C-5.99 9 -6.98 9 -8 9 C-8 6.69 -8 4.38 -8 2 C-5.36 3.65 -2.72 5.3 0 7 C0 4.69 0 2.38 0 0 Z " fill="#B7B7B9" transform="translate(113,96)"/>
<path d="M0 0 C0.99 0.33 1.98 0.66 3 1 C3 1.99 3 2.98 3 4 C4.32 3.67 5.64 3.34 7 3 C7 3.99 7 4.98 7 6 C7.99 6.33 8.98 6.66 10 7 C4.25 9 4.25 9 2 9 C-1.91327696 12.71945899 -5.51460715 16.71860321 -7 22 C-8.32 21.34 -9.64 20.68 -11 20 C-10.01 18.68 -9.02 17.36 -8 16 C-8.66 16 -9.32 16 -10 16 C-9.65705216 12.7991535 -9.05558818 12.04586025 -6.5 9.9375 C-5.675 9.298125 -4.85 8.65875 -4 8 C-3.67 7.01 -3.34 6.02 -3 5 C-2.34 4.67 -1.68 4.34 -1 4 C-0.34786708 1.97536745 -0.34786708 1.97536745 0 0 Z " fill="#0E0F0F" transform="translate(101,102)"/>
<path d="M0 0 C1.32 0.66 2.64 1.32 4 2 C3.21625 2.2475 2.4325 2.495 1.625 2.75 C-1.48915599 4.23293142 -1.60186455 4.97700444 -3 8 C-3.89751041 9.44233344 -4.83658669 10.85951666 -5.8125 12.25 C-6.53373047 13.30960938 -6.53373047 13.30960938 -7.26953125 14.390625 C-9 16 -9 16 -11.69921875 16.234375 C-12.83810547 16.11835938 -12.83810547 16.11835938 -14 16 C-14.33 15.34 -14.66 14.68 -15 14 C-16.88764903 13.31527335 -16.88764903 13.31527335 -19.0625 12.875 C-20.16271484 12.62363281 -20.16271484 12.62363281 -21.28515625 12.3671875 C-21.85105469 12.24601563 -22.41695312 12.12484375 -23 12 C-23.33 10.35 -23.66 8.7 -24 7 C-23.360625 6.87625 -22.72125 6.7525 -22.0625 6.625 C-21.381875 6.41875 -20.70125 6.2125 -20 6 C-19.67 5.34 -19.34 4.68 -19 4 C-19 5.32 -19 6.64 -19 8 C-20.32 8 -21.64 8 -23 8 C-22.67 8.66 -22.34 9.32 -22 10 C-18.97065509 10.65772428 -18.97065509 10.65772428 -16 11 C-16 10.01 -16 9.02 -16 8 C-12.37 8 -8.74 8 -5 8 C-5 6.68 -5 5.36 -5 4 C-2.5 2.3125 -2.5 2.3125 0 1 C0 0.67 0 0.34 0 0 Z " fill="#343435" transform="translate(78,145)"/>
<path d="M0 0 C4.48531042 4.21500922 8.1188863 8.90003495 11.8125 13.8125 C12.7087207 14.99489258 12.7087207 14.99489258 13.62304688 16.20117188 C15.08546284 18.13156095 16.54432616 20.06452484 18 22 C15.92446352 22.5534764 14.15634036 23 12 23 C12 22.01 12 21.02 12 20 C10.35 20.66 8.7 21.32 7 22 C4 17.375 4 17.375 4 14 C4.99 14 5.98 14 7 14 C7 12.68 7 11.36 7 10 C5.35 9.67 3.7 9.34 2 9 C2 7.68 2 6.36 2 5 C1.34 5 0.68 5 0 5 C0 3.35 0 1.7 0 0 Z " fill="#2E2E31" transform="translate(108,44)"/>
<path d="M0 0 C0.66 0.99 1.32 1.98 2 3 C3.32 2.67 4.64 2.34 6 2 C4.74566499 5.76300503 2.80830576 7.19169424 0 10 C-1.57148288 12.01260088 -3.07861034 14.06055598 -4.5703125 16.1328125 C-5.93438738 17.9143092 -7.37745357 19.4542605 -9 21 C-8.67 19.02 -8.34 17.04 -8 15 C-7.01 15 -6.02 15 -5 15 C-5 14.34 -5 13.68 -5 13 C-5.66 12.67 -6.32 12.34 -7 12 C-5.68 12 -4.36 12 -3 12 C-3.66 11.67 -4.32 11.34 -5 11 C-5 10.34 -5 9.68 -5 9 C-7.64 11.31 -10.28 13.62 -13 16 C-13.66 15.67 -14.32 15.34 -15 15 C-10.05 10.05 -5.1 5.1 0 0 Z " fill="#49494A" transform="translate(91,125)"/>
<path d="M0 0 C2 0 4 0 6 0 C6.33 0.99 6.66 1.98 7 3 C8.40105576 4.42857119 8.40105576 4.42857119 10.0625 5.6875 C11.031875 6.450625 12.00125 7.21375 13 8 C12.34 10.31 11.68 12.62 11 15 C10.34 15 9.68 15 9 15 C8.90847656 15.60328125 8.81695312 16.2065625 8.72265625 16.828125 C7.82279508 19.53257263 6.79297981 20.2082314 4.4375 21.75 C3.79683594 22.17796875 3.15617187 22.6059375 2.49609375 23.046875 C2.00238281 23.36140625 1.50867188 23.6759375 1 24 C1 21 1 21 2.53125 19.28125 C3.84375 18.09375 5.15625 16.90625 6.46875 15.71875 C8.33260302 14.01032314 8.33260302 14.01032314 8 11 C7.67 10.34 7.34 9.68 7 9 C6 7 6 7 6 4 C4.35 3.67 2.7 3.34 1 3 C0.67 2.01 0.34 1.02 0 0 Z " fill="#6F6F70" transform="translate(89,92)"/>
<path d="M0 0 C4 0 4 0 5.88671875 1.50390625 C9.88605206 6.07581223 11.42836727 8.82636649 12 15 C13.15528667 17.19892799 14.49437449 19.00868884 16 21 C15.67 21.66 15.34 22.32 15 23 C13.96939453 21.64455078 13.96939453 21.64455078 12.91796875 20.26171875 C12.00792905 19.07022347 11.09776634 17.87882214 10.1875 16.6875 C9.50977539 15.79514648 9.50977539 15.79514648 8.81835938 14.88476562 C6.1984449 11.4551516 6.1984449 11.4551516 3.25 8.3125 C1.06699465 6.02034438 0.73596848 3.00048688 0 0 Z " fill="#6C6C6E" transform="translate(70,65)"/>
<path d="M0 0 C0.33 0.99 0.66 1.98 1 3 C0.34 3.66 -0.32 4.32 -1 5 C-1.64767793 7.57061311 -1.64767793 7.57061311 -2 10 C-3.98 10.66 -5.96 11.32 -8 12 C-7.814375 12.5775 -7.62875 13.155 -7.4375 13.75 C-6.95976454 16.20692525 -7.24270636 17.64397534 -8 20 C-10.64 19.67 -13.28 19.34 -16 19 C-11.19231392 12.17933967 -5.67375075 6.0998427 0 0 Z " fill="#626263" transform="translate(78,127)"/>
<path d="M0 0 C1.66666667 1.66666667 3.33333333 3.33333333 5 5 C5.763125 5.721875 6.52625 6.44375 7.3125 7.1875 C9 9 9 9 9 11 C8.01 11.495 8.01 11.495 7 12 C7 12.66 7 13.32 7 14 C7.99 14 8.98 14 10 14 C10 15.65 10 17.3 10 19 C-1.5546875 8.125 -1.5546875 8.125 -2 1 C-1.34 0.67 -0.68 0.34 0 0 Z " fill="#515253" transform="translate(106,62)"/>
<path d="M0 0 C0.99 0.66 1.98 1.32 3 2 C2.43573848 5.79594117 0.81748138 7.58710633 -1.875 10.25 C-2.57367188 10.95640625 -3.27234375 11.6628125 -3.9921875 12.390625 C-6 14 -6 14 -9 14 C-9 13.01 -9 12.02 -9 11 C-8.34 11 -7.68 11 -7 11 C-7.144375 10.113125 -7.28875 9.22625 -7.4375 8.3125 C-7 5 -7 5 -5.44140625 3.48828125 C-3.66586875 2.24147524 -1.87921043 1.08342234 0 0 Z " fill="#0D0E0E" transform="translate(83,126)"/>
<path d="M0 0 C0.33 0 0.66 0 1 0 C1 1.65 1 3.3 1 5 C-0.32 5.33 -1.64 5.66 -3 6 C-2.34 7.65 -1.68 9.3 -1 11 C0.32 9.68 1.64 8.36 3 7 C3.66 7.33 4.32 7.66 5 8 C3.71451591 9.33929505 2.42141845 10.67128643 1.125 12 C0.40570313 12.7425 -0.31359375 13.485 -1.0546875 14.25 C-3 16 -3 16 -5 16 C-5.103125 15.360625 -5.20625 14.72125 -5.3125 14.0625 C-5.539375 13.381875 -5.76625 12.70125 -6 12 C-6.99 11.67 -7.98 11.34 -9 11 C-8.67 10.34 -8.34 9.68 -8 9 C-7.34 9 -6.68 9 -6 9 C-5.7525 8.443125 -5.505 7.88625 -5.25 7.3125 C-3.7782884 4.58983354 -2.0168288 2.34212377 0 0 Z " fill="#515253" transform="translate(112,128)"/>
<path d="M0 0 C0 0.66 0 1.32 0 2 C0.66 2 1.32 2 2 2 C2 2.66 2 3.32 2 4 C0.68 4 -0.64 4 -2 4 C-2 4.99 -2 5.98 -2 7 C-3.85625 6.938125 -3.85625 6.938125 -5.75 6.875 C-9.01637962 6.86341709 -11.2146947 7.1431298 -14 9 C-14.66 8.34 -15.32 7.68 -16 7 C-13.47043472 3.9083091 -10.77545388 3.09068668 -7 2 C-6.67 2.33 -6.34 2.66 -6 3 C-5.34 2.34 -4.68 1.68 -4 1 C-2 0 -2 0 0 0 Z " fill="#121314" transform="translate(141,111)"/>
<path d="M0 0 C0.66 0 1.32 0 2 0 C2 0.66 2 1.32 2 2 C3.65 2.33 5.3 2.66 7 3 C7.33 3.99 7.66 4.98 8 6 C7.34 6 6.68 6 6 6 C6.2475 7.010625 6.495 8.02125 6.75 9.0625 C7.05640769 13.88842107 6.03221876 16.32141486 3 20 C0.01481593 22.25709039 -1.24918828 23 -5 23 C-1.7 19.37 1.6 15.74 5 12 C3.41948973 7.25846919 2.79332895 5.55514593 0 2 C0 1.34 0 0.68 0 0 Z " fill="#7F7F80" transform="translate(128,95)"/>
<path d="M0 0 C0.66 0.33 1.32 0.66 2 1 C2 4.3 2 7.6 2 11 C0.02 11.99 0.02 11.99 -2 13 C-2.99 12.67 -3.98 12.34 -5 12 C-5 11.01 -5 10.02 -5 9 C-5.99 9 -6.98 9 -8 9 C-8 6.69 -8 4.38 -8 2 C-5.36 3.65 -2.72 5.3 0 7 C0 4.69 0 2.38 0 0 Z " fill="#5E5E61" transform="translate(113,96)"/>
<path d="M0 0 C0.99 0.33 1.98 0.66 3 1 C2.01 2.98 1.02 4.96 0 7 C1.32 6.67 2.64 6.34 4 6 C2.63016497 9.16115776 2.0109362 9.9927092 -1 12 C-1.33 10.68 -1.66 9.36 -2 8 C-3.65 7.67 -5.3 7.34 -7 7 C-6.34 6.67 -5.68 6.34 -5 6 C-5 5.01 -5 4.02 -5 3 C-3.35 2.67 -1.7 2.34 0 2 C0 1.34 0 0.68 0 0 Z " fill="#111212" transform="translate(122,122)"/>
<path d="M0 0 C2.01953125 1.75 2.01953125 1.75 3.8125 4 C4.41707031 4.7425 5.02164063 5.485 5.64453125 6.25 C6.09183594 6.8275 6.53914063 7.405 7 8 C6.67 8.66 6.34 9.32 6 10 C4.02 9.34 2.04 8.68 0 8 C0 6.02 0 4.04 0 2 C-1.7015625 2.2475 -1.7015625 2.2475 -3.4375 2.5 C-7.97060294 3.07576084 -12.43747238 3.09505266 -17 3 C-17 2.67 -17 2.34 -17 2 C-15.10507994 1.66151348 -13.20901534 1.32943089 -11.3125 1 C-9.72888672 0.7215625 -9.72888672 0.7215625 -8.11328125 0.4375 C-2.56566891 -0.34208919 -2.56566891 -0.34208919 0 0 Z " fill="#8F8F8E" transform="translate(71,41)"/>
<path d="M0 0 C0.99 0.33 1.98 0.66 3 1 C3 1.66 3 2.32 3 3 C4.32 3 5.64 3 7 3 C7.33 2.01 7.66 1.02 8 0 C10 2 10 2 10 5 C6.01803543 6.05404945 3.01804691 5.84098656 -1 5 C-1 5.99 -1 6.98 -1 8 C-2.32 8 -3.64 8 -5 8 C-3.375 2.25 -3.375 2.25 0 0 Z " fill="#0B0C0C" transform="translate(63,148)"/>
<path d="M0 0 C2.00720923 0.28674418 4.0085944 0.61866701 6 1 C6.66 3.31 7.32 5.62 8 8 C7.34 8.66 6.68 9.32 6 10 C0.24133663 6.69183168 0.24133663 6.69183168 -0.9375 3.3125 C-0.958125 2.549375 -0.97875 1.78625 -1 1 C-0.67 0.67 -0.34 0.34 0 0 Z " fill="#2C2C2D" transform="translate(86,84)"/>
<path d="M0 0 C4.85603263 4.55253059 9.02119396 9.66859736 13 15 C13 15.33 13 15.66 13 16 C11.35 16 9.7 16 8 16 C7.67 14.02 7.34 12.04 7 10 C5.35 9.67 3.7 9.34 2 9 C2 7.68 2 6.36 2 5 C1.34 5 0.68 5 0 5 C0 3.35 0 1.7 0 0 Z " fill="#6D6D6E" transform="translate(108,44)"/>
<path d="M0 0 C0.33 0.66 0.66 1.32 1 2 C0.67 2.66 0.34 3.32 0 4 C0.66 4 1.32 4 2 4 C2.33 3.34 2.66 2.68 3 2 C3 2.66 3 3.32 3 4 C3.99 4 4.98 4 6 4 C6.33 5.32 6.66 6.64 7 8 C5 9 5 9 2 9 C-0.44233235 7.82851724 -2.67688841 6.40263342 -5 5 C-5 4.34 -5 3.68 -5 3 C-2.5 1.375 -2.5 1.375 0 0 Z " fill="#1A1A1C" transform="translate(120,63)"/>
<path d="M0 0 C0.33 0.66 0.66 1.32 1 2 C0.01 2 -0.98 2 -2 2 C-2 2.99 -2 3.98 -2 5 C-2.639375 5.103125 -3.27875 5.20625 -3.9375 5.3125 C-4.618125 5.539375 -5.29875 5.76625 -6 6 C-6.33 6.99 -6.66 7.98 -7 9 C-10.0625 10.1875 -10.0625 10.1875 -13 11 C-12.51887377 6.83023936 -10.18811912 3.60699361 -7 1 C-3.1875 0.125 -3.1875 0.125 0 0 Z " fill="#3F3F43" transform="translate(110,109)"/>
<path d="M0 0 C0.66 0 1.32 0 2 0 C3.21875 1.49609375 3.21875 1.49609375 4.5 3.4375 C6.2865363 6.22531847 6.2865363 6.22531847 9 8 C9 8.99 9 9.98 9 11 C6.8125 11.4375 6.8125 11.4375 4 11 C1.8501571 8.94091564 0.17018771 6.74158263 -1 4 C-0.6328125 1.765625 -0.6328125 1.765625 0 0 Z " fill="#080909" transform="translate(62,49)"/>
<path d="M0 0 C2.97 0 5.94 0 9 0 C9 1.65 9 3.3 9 5 C9.66 5 10.32 5 11 5 C11.66 6.65 12.32 8.3 13 10 C9.64379729 8.61122646 7.92701272 7.08322035 6 4 C6 3.34 6 2.68 6 2 C5.01 2.495 5.01 2.495 4 3 C4 4.32 4 5.64 4 7 C3.34 7 2.68 7 2 7 C2 6.34 2 5.68 2 5 C1.01 4.67 0.02 4.34 -1 4 C-0.67 2.68 -0.34 1.36 0 0 Z " fill="#171819" transform="translate(58,47)"/>
<path d="M0 0 C0.99 0.33 1.98 0.66 3 1 C2.34 2.32 1.68 3.64 1 5 C3.97 5.495 3.97 5.495 7 6 C7 6.66 7 7.32 7 8 C8.65 8 10.3 8 12 8 C12 7.34 12 6.68 12 6 C12.66 6.33 13.32 6.66 14 7 C12 10 12 10 10.0625 10.75 C8 11 8 11 5 10 C4.67 9.34 4.34 8.68 4 8 C2.35 8 0.7 8 -1 8 C-2.2077558 4.37673261 -1.54311128 3.35853631 0 0 Z " fill="#7D7D7D" transform="translate(86,156)"/>
<path d="M0 0 C0 3.63 0 7.26 0 11 C-0.66 11 -1.32 11 -2 11 C-2 10.34 -2 9.68 -2 9 C-2.66 9 -3.32 9 -4 9 C-7 3.25 -7 3.25 -7 1 C-2.25 0 -2.25 0 0 0 Z " fill="#5B5B5E" transform="translate(96,39)"/>
<path d="M0 0 C1.09570312 0.00902344 2.19140625 0.01804688 3.3203125 0.02734375 C4.16335937 0.03894531 5.00640625 0.05054688 5.875 0.0625 C5.875 0.3925 5.875 0.7225 5.875 1.0625 C-0.56 1.5575 -0.56 1.5575 -7.125 2.0625 C-6.465 3.83625 -5.805 5.61 -5.125 7.4375 C-3.125 12.8125 -3.125 12.8125 -3.125 15.0625 C-2.465 15.0625 -1.805 15.0625 -1.125 15.0625 C-1.125 15.7225 -1.125 16.3825 -1.125 17.0625 C-0.465 17.0625 0.195 17.0625 0.875 17.0625 C0.875 18.7125 0.875 20.3625 0.875 22.0625 C-3.81234857 16.85433492 -7.82873914 10.49912597 -8.4375 3.4375 C-8.334375 2.65375 -8.23125 1.87 -8.125 1.0625 C-5.36047967 -0.31976016 -3.0788637 -0.03275387 0 0 Z " fill="#ADADAD" transform="translate(95.125,32.9375)"/>
<path d="M0 0 C0.33 1.32 0.66 2.64 1 4 C-0.32 4 -1.64 4 -3 4 C-2.67 4.66 -2.34 5.32 -2 6 C1.02934491 6.65772428 1.02934491 6.65772428 4 7 C4 6.01 4 5.02 4 4 C5.65 4 7.3 4 9 4 C8.67 4.66 8.34 5.32 8 6 C7.34 6 6.68 6 6 6 C6.66 7.98 7.32 9.96 8 12 C7.34 12 6.68 12 6 12 C5.67 11.34 5.34 10.68 5 10 C3.11235097 9.31527335 3.11235097 9.31527335 0.9375 8.875 C-0.16271484 8.62363281 -0.16271484 8.62363281 -1.28515625 8.3671875 C-1.85105469 8.24601563 -2.41695312 8.12484375 -3 8 C-3.33 6.35 -3.66 4.7 -4 3 C-2.68 2.67 -1.36 2.34 0 2 C0 1.34 0 0.68 0 0 Z " fill="#737474" transform="translate(58,149)"/>
<path d="M0 0 C1.32 0.33 2.64 0.66 4 1 C4 1.66 4 2.32 4 3 C4.99 3.33 5.98 3.66 7 4 C6.34 4.66 5.68 5.32 5 6 C5 5.34 5 4.68 5 4 C2.36 5.98 -0.28 7.96 -3 10 C-3.33 8.02 -3.66 6.04 -4 4 C-3.01 3.67 -2.02 3.34 -1 3 C-0.67 2.01 -0.34 1.02 0 0 Z " fill="#0F0F10" transform="translate(113,130)"/>
<path d="M0 0 C2 1.5625 2 1.5625 4 4 C4.25 7.75 4.25 7.75 4 11 C3.34 10.67 2.68 10.34 2 10 C2 9.34 2 8.68 2 8 C0.68 8.33 -0.64 8.66 -2 9 C-2 8.01 -2 7.02 -2 6 C-2.99 6.33 -3.98 6.66 -5 7 C-4.34 5.68 -3.68 4.36 -3 3 C-2.01 3.33 -1.02 3.66 0 4 C0 2.68 0 1.36 0 0 Z " fill="#505051" transform="translate(126,67)"/>
<path d="M0 0 C0.66 0.33 1.32 0.66 2 1 C2.36625971 5.51720311 2.36625971 5.51720311 0.625 7.8125 C-1 9 -1 9 -3 9 C-3.33 9.66 -3.66 10.32 -4 11 C-4.85394079 8.01120724 -5.07700926 6.28236729 -4.25 3.25 C-3 1 -3 1 0 0 Z " fill="#1E1F20" transform="translate(106,139)"/>
<path d="M0 0 C0.99 0.33 1.98 0.66 3 1 C2.34 1 1.68 1 1 1 C1 2.32 1 3.64 1 5 C2.65 5 4.3 5 6 5 C6.33 5.99 6.66 6.98 7 8 C7.66 8.33 8.32 8.66 9 9 C9 9.66 9 10.32 9 11 C9.99 11 10.98 11 12 11 C12 12.98 12 14.96 12 17 C9.35247996 14.42215154 7.05567935 12.08351902 5 9 C5 8.01 5 7.02 5 6 C3.35 6 1.7 6 0 6 C0 4.02 0 2.04 0 0 Z " fill="#A2A2A2" transform="translate(51,43)"/>
<path d="M0 0 C-0.70125 0.495 -1.4025 0.99 -2.125 1.5 C-5.23084361 4.20073357 -7.39934736 7.04856276 -9.765625 10.390625 C-10.17296875 10.92171875 -10.5803125 11.4528125 -11 12 C-11.33 12 -11.66 12 -12 12 C-12 10.35 -12 8.7 -12 7 C-11.34 7 -10.68 7 -10 7 C-9.67 5.68 -9.34 4.36 -9 3 C-8.01 3 -7.02 3 -6 3 C-6 2.01 -6 1.02 -6 0 C-2.25 -1.125 -2.25 -1.125 0 0 Z " fill="#8C8C8E" transform="translate(145,115)"/>
<path d="M0 0 C0.99 0 1.98 0 3 0 C3.98120464 3.05263664 3.98120464 4.94736336 3 8 C0.36 7.67 -2.28 7.34 -5 7 C-4.24172908 5.82512964 -3.46792245 4.66027408 -2.6875 3.5 C-2.25824219 2.8503125 -1.82898438 2.200625 -1.38671875 1.53125 C-0.70029297 0.77328125 -0.70029297 0.77328125 0 0 Z " fill="#4A4A4C" transform="translate(67,139)"/>
<path d="M0 0 C0.66 0.99 1.32 1.98 2 3 C3.32 2.67 4.64 2.34 6 2 C4.768606 5.69418201 2.79208646 7.35109746 0 10 C-0.99 9.67 -1.98 9.34 -3 9 C-2.44271087 5.65626525 -1.64826111 2.96687001 0 0 Z " fill="#5E5E5F" transform="translate(91,125)"/>
<path d="M0 0 C4.17383395 3.92831431 7.89394426 8.16479983 11 13 C11 13.66 11 14.32 11 15 C9.68 15 8.36 15 7 15 C6.71125 14.071875 6.4225 13.14375 6.125 12.1875 C5.1125 8.90208333 5.1125 8.90208333 3 6 C0.43717258 5.27034634 0.43717258 5.27034634 -2 5 C-1.34 3.35 -0.68 1.7 0 0 Z " fill="#979797" transform="translate(83,57)"/>
<path d="M0 0 C3.28788824 3.11016455 5.83735988 6.01618925 8 10 C3.125 8.25 3.125 8.25 2 6 C1.01 6.33 0.02 6.66 -1 7 C-2.5 5.625 -2.5 5.625 -4 4 C-4 3.34 -4 2.68 -4 2 C-3.34 2 -2.68 2 -2 2 C-1.67 2.66 -1.34 3.32 -1 4 C-0.67 2.68 -0.34 1.36 0 0 Z " fill="#7F8080" transform="translate(130,73)"/>
<path d="M0 0 C2.4375 1.1875 2.4375 1.1875 5 3 C5.8125 5.6875 5.8125 5.6875 6 8 C5.50628906 8.40992187 5.01257813 8.81984375 4.50390625 9.2421875 C3.86324219 9.78101562 3.22257813 10.31984375 2.5625 10.875 C1.92441406 11.40867187 1.28632813 11.94234375 0.62890625 12.4921875 C-1.10805004 13.9222757 -1.10805004 13.9222757 -2 16 C-2.66 15.67 -3.32 15.34 -4 15 C-2.86280581 11.58841744 -1.95657056 10.88145399 1 9 C1.66 9 2.32 9 3 9 C2.65772428 6.02934491 2.65772428 6.02934491 2 3 C1.34 2.67 0.68 2.34 0 2 C0 1.34 0 0.68 0 0 Z " fill="#979798" transform="translate(151,99)"/>
<path d="M0 0 C1.65 0 3.3 0 5 0 C3.55575365 3.23861303 1.74227753 5.61969163 -0.625 8.25 C-1.25664063 8.95640625 -1.88828125 9.6628125 -2.5390625 10.390625 C-3.02117187 10.92171875 -3.50328125 11.4528125 -4 12 C-4.33 11.01 -4.66 10.02 -5 9 C-4.67 8.34 -4.34 7.68 -4 7 C-3.34 7 -2.68 7 -2 7 C-2 6.01 -2 5.02 -2 4 C-1.34 4 -0.68 4 0 4 C0 2.68 0 1.36 0 0 Z " fill="#929193" transform="translate(103,114)"/>
<path d="M0 0 C1.32 0.33 2.64 0.66 4 1 C4 1.66 4 2.32 4 3 C4.61875 3.268125 5.2375 3.53625 5.875 3.8125 C8 5 8 5 10 8 C9.67 8.99 9.34 9.98 9 11 C9 10.34 9 9.68 9 9 C8.39671875 8.9071875 7.7934375 8.814375 7.171875 8.71875 C4.4844994 7.82940268 3.79706038 6.83014032 2.25 4.5 C1.82203125 3.8709375 1.3940625 3.241875 0.953125 2.59375 C0 1 0 1 0 0 Z " fill="#666767" transform="translate(116,81)"/>
<path d="M0 0 C0 4.07587476 -1.25991672 4.98590839 -4 8 C-6.61285387 10.39844029 -9.28737948 12.71534146 -12 15 C-12.66 14.67 -13.32 14.34 -14 14 C-9.38 9.38 -4.76 4.76 0 0 Z " fill="#939393" transform="translate(90,126)"/>
<path d="M0 0 C-0.75 5.75 -0.75 5.75 -3 8 C-3.33 7.01 -3.66 6.02 -4 5 C-4.66 5 -5.32 5 -6 5 C-6 3.68 -6 2.36 -6 1 C-3 0 -3 0 0 0 Z " fill="#050606" transform="translate(78,52)"/>
<path d="M0 0 C0 3 0 3 -1 6 C-6.46511628 11 -6.46511628 11 -9 11 C-8.67 9.68 -8.34 8.36 -8 7 C-7.34 7 -6.68 7 -6 7 C-6 6.34 -6 5.68 -6 5 C-4.04072937 3.2856382 -2.04119788 1.61594832 0 0 Z " fill="#616161" transform="translate(98,145)"/>
<path d="M0 0 C0.33 0.66 0.66 1.32 1 2 C1.66 2.33 2.32 2.66 3 3 C2.02433888 4.16959987 1.044375 5.33561177 0.0625 6.5 C-0.48277344 7.1496875 -1.02804688 7.799375 -1.58984375 8.46875 C-2.05519531 8.9740625 -2.52054687 9.479375 -3 10 C-3.33 10 -3.66 10 -4 10 C-4.25 7.25 -4.25 7.25 -4 4 C-2 1.625 -2 1.625 0 0 Z " fill="#5D5E5E" transform="translate(125,130)"/>
<path d="M0 0 C1.67542976 0.28604898 3.34385343 0.61781233 5 1 C5 1.66 5 2.32 5 3 C4.34 3 3.68 3 3 3 C2.67 4.32 2.34 5.64 2 7 C0.35 7.33 -1.3 7.66 -3 8 C-1.125 1.125 -1.125 1.125 0 0 Z " fill="#222324" transform="translate(96,118)"/>
<path d="M0 0 C0.66 0.99 1.32 1.98 2 3 C1.34 3 0.68 3 0 3 C0 4.98 0 6.96 0 9 C0.99 8.67 1.98 8.34 3 8 C2 11 2 11 -2 13 C-2.33 9.7 -2.66 6.4 -3 3 C-2.01 2.67 -1.02 2.34 0 2 C0 1.34 0 0.68 0 0 Z " fill="#686868" transform="translate(102,140)"/>
<path d="M0 0 C1.32 0.66 2.64 1.32 4 2 C3.21625 2.2475 2.4325 2.495 1.625 2.75 C-1.41464865 4.19745174 -1.69906137 5.02642598 -3 8 C-3.99 8.66 -4.98 9.32 -6 10 C-5.8125 7.1875 -5.8125 7.1875 -5 4 C-2.4375 2.1875 -2.4375 2.1875 0 1 C0 0.67 0 0.34 0 0 Z " fill="#717172" transform="translate(78,145)"/>
<path d="M0 0 C0.598125 0.226875 1.19625 0.45375 1.8125 0.6875 C1.8125 1.3475 1.8125 2.0075 1.8125 2.6875 C0.8225 3.1825 0.8225 3.1825 -0.1875 3.6875 C-0.1875 4.3475 -0.1875 5.0075 -0.1875 5.6875 C-1.8375 6.0175 -3.4875 6.3475 -5.1875 6.6875 C-5.1875 2.6875 -5.1875 2.6875 -3.9375 0.875 C-2.1875 -0.3125 -2.1875 -0.3125 0 0 Z " fill="#28282B" transform="translate(86.1875,134.3125)"/>
<path d="M0 0 C0.33 0 0.66 0 1 0 C1.12375 1.546875 1.12375 1.546875 1.25 3.125 C2.10253301 7.52975387 3.34241489 9.48512937 6 13 C5.67 13.66 5.34 14.32 5 15 C2.36 11.37 -0.28 7.74 -3 4 C-2.01 2.68 -1.02 1.36 0 0 Z " fill="#808080" transform="translate(80,73)"/>
<path d="M0 0 C0.33 0 0.66 0 1 0 C1.33 2.97 1.66 5.94 2 9 C0.02 9 -1.96 9 -4 9 C-4 8.01 -4 7.02 -4 6 C-3.34 6 -2.68 6 -2 6 C-1.7834375 5.071875 -1.7834375 5.071875 -1.5625 4.125 C-1 2 -1 2 0 0 Z " fill="#0D0E0E" transform="translate(99,145)"/>
<path d="M0 0 C0.33 0.99 0.66 1.98 1 3 C2.32 2.67 3.64 2.34 5 2 C4.01 3.485 4.01 3.485 3 5 C2.34 5 1.68 5 1 5 C0.67 5.99 0.34 6.98 0 8 C-0.66 7.67 -1.32 7.34 -2 7 C-1.34 5.68 -0.68 4.36 0 3 C-1.65 3.66 -3.3 4.32 -5 5 C-4.1875 3.0625 -4.1875 3.0625 -3 1 C-2.01 0.67 -1.02 0.34 0 0 Z " fill="#404141" transform="translate(90,115)"/>
<path d="M0 0 C2.4375 0.75 2.4375 0.75 5 2 C5.8125 4.125 5.8125 4.125 6 6 C4.68 6.33 3.36 6.66 2 7 C0.5393715 4.35261084 0 3.10551666 0 0 Z " fill="#444445" transform="translate(74,69)"/>
<path d="M0 0 C0.99 0.66 1.98 1.32 3 2 C2.1875 3.9375 2.1875 3.9375 1 6 C0.01 6.33 -0.98 6.66 -2 7 C-2.125 4.625 -2.125 4.625 -2 2 C-1.34 1.34 -0.68 0.68 0 0 Z M-6 7 C-4.68 7.33 -3.36 7.66 -2 8 C-2.33 8.66 -2.66 9.32 -3 10 C-3.99 9.67 -4.98 9.34 -6 9 C-6 8.34 -6 7.68 -6 7 Z " fill="#383939" transform="translate(61,146)"/>
<path d="M0 0 C0.94875 0.350625 1.8975 0.70125 2.875 1.0625 C2.875 2.3825 2.875 3.7025 2.875 5.0625 C1.555 5.0625 0.235 5.0625 -1.125 5.0625 C-1.125 4.4025 -1.125 3.7425 -1.125 3.0625 C-1.785 3.0625 -2.445 3.0625 -3.125 3.0625 C-3.125 2.4025 -3.125 1.7425 -3.125 1.0625 C-3.785 0.7325 -4.445 0.4025 -5.125 0.0625 C-3.125 -0.9375 -3.125 -0.9375 0 0 Z " fill="#161718" transform="translate(67.125,145.9375)"/>
<path d="M0 0 C0.66 0 1.32 0 2 0 C2 0.66 2 1.32 2 2 C3.65 2.33 5.3 2.66 7 3 C7.33 3.99 7.66 4.98 8 6 C6.68 6.33 5.36 6.66 4 7 C0 2.25 0 2.25 0 0 Z " fill="#5A5B5C" transform="translate(128,95)"/>
<path d="M0 0 C2.94995547 3.45856848 5.22675738 6.80021485 7 11 C6.67 11.66 6.34 12.32 6 13 C5.67 12.01 5.34 11.02 5 10 C4.34 10 3.68 10 3 10 C2.67 8.02 2.34 6.04 2 4 C1.34 4 0.68 4 0 4 C0 2.68 0 1.36 0 0 Z " fill="#747575" transform="translate(96,74)"/>
<path d="M0 0 C0.33 0.66 0.66 1.32 1 2 C1.99 2.33 2.98 2.66 4 3 C-1.41538462 5.21538462 -1.41538462 5.21538462 -4.375 4.125 C-4.91125 3.75375 -5.4475 3.3825 -6 3 C-6 2.34 -6 1.68 -6 1 C-4.02 0.67 -2.04 0.34 0 0 Z " fill="#1D1D1F" transform="translate(107,106)"/>
<path d="M0 0 C0.33 0 0.66 0 1 0 C1 1.65 1 3.3 1 5 C-0.32 5.33 -1.64 5.66 -3 6 C-2.67 6.99 -2.34 7.98 -2 9 C-3.32 8.34 -4.64 7.68 -6 7 C-5.02433888 5.83040013 -4.044375 4.66438823 -3.0625 3.5 C-2.51722656 2.8503125 -1.97195312 2.200625 -1.41015625 1.53125 C-0.71212891 0.77328125 -0.71212891 0.77328125 0 0 Z " fill="#777778" transform="translate(112,128)"/>
<path d="M0 0 C0.33 0.99 0.66 1.98 1 3 C0.67 3.66 0.34 4.32 0 5 C-2.5625 5.625 -2.5625 5.625 -5 6 C-5 6.99 -5 7.98 -5 9 C-6.32 8.67 -7.64 8.34 -9 8 C-8.01 7.67 -7.02 7.34 -6 7 C-6 6.34 -6 5.68 -6 5 C-4.04072937 3.2856382 -2.04119788 1.61594832 0 0 Z " fill="#7C7C7C" transform="translate(122,119)"/>
<path d="M0 0 C0.99 0.33 1.98 0.66 3 1 C3 1.66 3 2.32 3 3 C3.8971875 3.1546875 3.8971875 3.1546875 4.8125 3.3125 C7.31258286 4.09824033 8.37535082 4.96918853 10 7 C10 7.66 10 8.32 10 9 C9.01 8.67 8.02 8.34 7 8 C7 7.34 7 6.68 7 6 C6.21625 5.7525 5.4325 5.505 4.625 5.25 C1.67682892 3.84610901 1.0975223 2.99324263 0 0 Z " fill="#242527" transform="translate(101,46)"/>
<path d="M0 0 C3 1.8125 3 1.8125 6 4 C6 4.99 6 5.98 6 7 C4.02 6.34 2.04 5.68 0 5 C0 3.35 0 1.7 0 0 Z " fill="#515253" transform="translate(71,44)"/>
<path d="M0 0 C0.33 0.66 0.66 1.32 1 2 C1.99 2 2.98 2 4 2 C4.33 3.32 4.66 4.64 5 6 C3 7 3 7 0 7 C-0.66 6.34 -1.32 5.68 -2 5 C-1.34 4.34 -0.68 3.68 0 3 C0 2.01 0 1.02 0 0 Z " fill="#2A2A2D" transform="translate(122,65)"/>
<path d="M0 0 C0.66 0 1.32 0 2 0 C2 3.63 2 7.26 2 11 C1.34 11 0.68 11 0 11 C0 10.34 0 9.68 0 9 C-0.66 9 -1.32 9 -2 9 C-2 8.01 -2 7.02 -2 6 C-1.34 6 -0.68 6 0 6 C0 4.02 0 2.04 0 0 Z " fill="#47474A" transform="translate(94,39)"/>
<path d="M0 0 C0.33 0.66 0.66 1.32 1 2 C0.01 2 -0.98 2 -2 2 C-2 2.99 -2 3.98 -2 5 C-4.97 4.505 -4.97 4.505 -8 4 C-7.67 3.01 -7.34 2.02 -7 1 C-3.535 0.505 -3.535 0.505 0 0 Z " fill="#302F33" transform="translate(110,109)"/>
<path d="M0 0 C0.66 0 1.32 0 2 0 C2.33 0.66 2.66 1.32 3 2 C4.32 2 5.64 2 7 2 C7 2.66 7 3.32 7 4 C5.35 4.66 3.7 5.32 2 6 C1.34 4.02 0.68 2.04 0 0 Z " fill="#363638" transform="translate(91,123)"/>
<path d="M0 0 C0.99 0.33 1.98 0.66 3 1 C1.35 2.98 -0.3 4.96 -2 7 C-2.66 6.67 -3.32 6.34 -4 6 C-3.67 4.68 -3.34 3.36 -3 2 C-2.01 2 -1.02 2 0 2 C0 1.34 0 0.68 0 0 Z " fill="#080909" transform="translate(122,122)"/>
<path d="M0 0 C2 0 4 0 6 0 C6.33 2.31 6.66 4.62 7 7 C6.67 6.01 6.34 5.02 6 4 C4.35 3.67 2.7 3.34 1 3 C0.67 2.01 0.34 1.02 0 0 Z " fill="#8D8D8D" transform="translate(89,92)"/>
<path d="M0 0 C0.66 0 1.32 0 2 0 C4 3 4 3 3.625 5.1875 C3.41875 5.785625 3.2125 6.38375 3 7 C3 6.34 3 5.68 3 5 C1.35 5.33 -0.3 5.66 -2 6 C-2 5.34 -2 4.68 -2 4 C-1.34 4 -0.68 4 0 4 C0 2.68 0 1.36 0 0 Z " fill="#4F4F50" transform="translate(137,83)"/>
<path d="M0 0 C0.66 0.33 1.32 0.66 2 1 C0.71451591 2.33929505 -0.57858155 3.67128643 -1.875 5 C-2.59429687 5.7425 -3.31359375 6.485 -4.0546875 7.25 C-6 9 -6 9 -8 9 C-6.90101298 5.70303895 -6.05402613 4.95329411 -3.4375 2.8125 C-2.79683594 2.28269531 -2.15617187 1.75289062 -1.49609375 1.20703125 C-0.75552734 0.60955078 -0.75552734 0.60955078 0 0 Z " fill="#7F7F80" transform="translate(115,135)"/>
<path d="M0 0 C3.465 1.98 3.465 1.98 7 4 C7 4.99 7 5.98 7 7 C6.34 7 5.68 7 5 7 C5 6.34 5 5.68 5 5 C3.68 5 2.36 5 1 5 C0.67 3.35 0.34 1.7 0 0 Z " fill="#A8A8A8" transform="translate(105,98)"/>
<path d="M0 0 C1.32 1.32 2.64 2.64 4 4 C3.34 5.32 2.68 6.64 2 8 C2 7.01 2 6.02 2 5 C1.01 5 0.02 5 -1 5 C-1.33 3.68 -1.66 2.36 -2 1 C-1.34 0.67 -0.68 0.34 0 0 Z " fill="#49494B" transform="translate(106,62)"/>
<path d="M0 0 C0.99 0 1.98 0 3 0 C3.33 1.65 3.66 3.3 4 5 C3.01 5.33 2.02 5.66 1 6 C-0.0625 4.125 -0.0625 4.125 -1 2 C-0.67 1.34 -0.34 0.68 0 0 Z " fill="#28282A" transform="translate(71,58)"/>
<path d="M0 0 C1.65 0 3.3 0 5 0 C5 0.99 5 1.98 5 3 C5.99 3.66 6.98 4.32 8 5 C7.01 5.495 7.01 5.495 6 6 C5.01 5.67 4.02 5.34 3 5 C3 4.01 3 3.02 3 2 C2.01 2 1.02 2 0 2 C0 1.34 0 0.68 0 0 Z " fill="#4E4E52" transform="translate(105,103)"/>
<path d="M0 0 C1.485 0.99 1.485 0.99 3 2 C3 2.66 3 3.32 3 4 C3.66 4 4.32 4 5 4 C5 4.66 5 5.32 5 6 C3.35 6.66 1.7 7.32 0 8 C0 5.36 0 2.72 0 0 Z " fill="#7A7A7B" transform="translate(78,51)"/>
<path d="M0 0 C0.99 0.33 1.98 0.66 3 1 C2.34 2.98 1.68 4.96 1 7 C0.01 7 -0.98 7 -2 7 C-1.34 4.69 -0.68 2.38 0 0 Z " fill="#B5B4B4" transform="translate(86,156)"/>
<path d="M0 0 C2.97 0.495 2.97 0.495 6 1 C4.35 2.65 2.7 4.3 1 6 C0.67 4.02 0.34 2.04 0 0 Z " fill="#28282B" transform="translate(109,134)"/>
<path d="M0 0 C0.33 0.99 0.66 1.98 1 3 C-0.65 4.32 -2.3 5.64 -4 7 C-4 6.34 -4 5.68 -4 5 C-4.66 4.67 -5.32 4.34 -6 4 C-5.195625 3.525625 -4.39125 3.05125 -3.5625 2.5625 C-1.15246512 1.23099846 -1.15246512 1.23099846 0 0 Z " fill="#151617" transform="translate(85,128)"/>
<path d="M0 0 C0.66 0.33 1.32 0.66 2 1 C1.34 2.65 0.68 4.3 0 6 C-1.32 5.34 -2.64 4.68 -4 4 C-2.68 2.68 -1.36 1.36 0 0 Z " fill="#0C0C0D" transform="translate(94,118)"/>
<path d="M0 0 C0 1.32 0 2.64 0 4 C0.66 4 1.32 4 2 4 C2.33 4.99 2.66 5.98 3 7 C2.34 7 1.68 7 1 7 C1 6.34 1 5.68 1 5 C0.360625 4.896875 -0.27875 4.79375 -0.9375 4.6875 C-1.618125 4.460625 -2.29875 4.23375 -3 4 C-3.33 3.01 -3.66 2.02 -4 1 C-2 0 -2 0 0 0 Z " fill="#1D1E1E" transform="translate(119,77)"/>
<path d="M0 0 C0.99 0 1.98 0 3 0 C3 0.99 3 1.98 3 3 C4.32 3.66 5.64 4.32 7 5 C6.01 6.485 6.01 6.485 5 8 C2.525 4.04 2.525 4.04 0 0 Z " fill="#9A9A9B" transform="translate(105,67)"/>
<path d="M0 0 C1.65 1.65 3.3 3.3 5 5 C2.92446352 5.5534764 1.15634036 6 -1 6 C-0.67 4.02 -0.34 2.04 0 0 Z " fill="#828283" transform="translate(121,61)"/>
<path d="M0 0 C0.66 0.33 1.32 0.66 2 1 C2 1.99 2 2.98 2 4 C-0.64 3.67 -3.28 3.34 -6 3 C-3 1 -3 1 0 0 Z " fill="#29292B" transform="translate(80,142)"/>
<path d="M0 0 C0 3 0 3 -2.5 5.6875 C-3.325 6.450625 -4.15 7.21375 -5 8 C-4.75 5.125 -4.75 5.125 -4 2 C-1.9375 0.625 -1.9375 0.625 0 0 Z " fill="#A1A1A2" transform="translate(87,138)"/>
<path d="M0 0 C0 3.10551666 -0.5393715 4.35261084 -2 7 C-2.99 7 -3.98 7 -5 7 C-3.70700306 4.11562221 -2.34058637 2.12780579 0 0 Z " fill="#818181" transform="translate(84,120)"/>
<path d="M0 0 C2.475 0.495 2.475 0.495 5 1 C4.67 2.32 4.34 3.64 4 5 C2.68 4.34 1.36 3.68 0 3 C0 2.01 0 1.02 0 0 Z " fill="#242427" transform="translate(131,117)"/>
<path d="M0 0 C2.62187494 1.04874998 3.79371361 1.64931313 5.25 4.125 C5.4975 4.74375 5.745 5.3625 6 6 C4.02 5.01 2.04 4.02 0 3 C0 2.01 0 1.02 0 0 Z " fill="#3F4040" transform="translate(96,96)"/>
</svg>
