<?xml version="1.0" encoding="UTF-8"?>
<svg version="1.1" xmlns="http://www.w3.org/2000/svg" width="200" height="207">
<path d="M0 0 C1.2684375 0.12375 1.2684375 0.12375 2.5625 0.25 C3.5525 1.735 3.5525 1.735 4.5625 3.25 C5.18125 3.064375 5.8 2.87875 6.4375 2.6875 C8.5625 2.25 8.5625 2.25 10.5625 3.25 C10.18339079 8.68389871 8.53381872 10.64810628 4.5625 14.25 C3.5725 15.4875 3.5725 15.4875 2.5625 16.75 C0.39509038 19.45926202 -1.98220669 21.79824457 -4.4375 24.25 C-6.24083022 26.17833984 -8.03329628 28.11230378 -9.8125 30.0625 C-10.29219238 30.58658447 -10.77188477 31.11066895 -11.26611328 31.65063477 C-13.9862906 34.63094332 -16.6692276 37.6384621 -19.3125 40.6875 C-22.57474578 44.43908265 -25.84752239 48.03659604 -29.8125 51.0625 C-32.13273024 52.9960252 -34.22736586 54.94471093 -36.3125 57.125 C-36.92867187 57.76179688 -37.54484375 58.39859375 -38.1796875 59.0546875 C-39.69214001 61.25231339 -39.69214001 61.25231339 -39.35546875 64.1796875 C-38.34585196 67.55653345 -36.99959646 69.70154163 -34.875 72.5 C-31.4375 77.06488934 -31.4375 77.06488934 -31.4375 79.25 C-30.4475 79.25 -29.4575 79.25 -28.4375 79.25 C-26.47463413 81.58241778 -24.70061162 83.8977451 -22.9375 86.375 C-21.85961471 87.85398947 -20.78015627 89.33183357 -19.69921875 90.80859375 C-18.88203369 91.92983643 -18.88203369 91.92983643 -18.04833984 93.07373047 C-15.692111 96.25703206 -13.2240148 99.34553206 -10.75 102.4375 C7.48133362 125.43833617 7.48133362 125.43833617 8.5625 136.25 C4.8592788 139.0274159 2.09873681 139.59431972 -2.375 139.6484375 C-6.59839204 138.83255495 -8.978448 136.83020217 -11.61328125 133.5 C-12.31839844 132.4275 -13.02351563 131.355 -13.75 130.25 C-14.53538758 129.07610583 -15.32186522 127.90294029 -16.109375 126.73046875 C-16.49931641 126.14442871 -16.88925781 125.55838867 -17.29101562 124.95458984 C-21.32191475 118.96146001 -25.64823533 113.17808516 -30.1875 107.5625 C-33.85565509 103.021324 -37.41348256 98.40333777 -40.9375 93.75 C-41.74912598 92.68906128 -41.74912598 92.68906128 -42.57714844 91.60668945 C-43.07762695 90.94241943 -43.57810547 90.27814941 -44.09375 89.59375 C-44.54556641 88.99755859 -44.99738281 88.40136719 -45.46289062 87.78710938 C-46.4375 86.25 -46.4375 86.25 -46.4375 84.25 C-47.0975 84.25 -47.7575 84.25 -48.4375 84.25 C-48.4375 83.26 -48.4375 82.27 -48.4375 81.25 C-50.108125 81.064375 -50.108125 81.064375 -51.8125 80.875 C-55.4375 80.25 -55.4375 80.25 -57.4375 78.25 C-57.210625 77.651875 -56.98375 77.05375 -56.75 76.4375 C-56.646875 75.715625 -56.54375 74.99375 -56.4375 74.25 C-58.55576031 71.83753687 -60.78012783 69.79403214 -63.25 67.75 C-64.4375 66.25 -64.4375 66.25 -65 63.8125 C-64.4375 61.25 -64.4375 61.25 -61.625 59.1875 C-60.573125 58.548125 -59.52125 57.90875 -58.4375 57.25 C-57.9425 56.54875 -57.4475 55.8475 -56.9375 55.125 C-54.83368155 52.49522693 -52.63147218 52.11503413 -49.4375 51.25 C-46.36845214 50.61664329 -46.36845214 50.61664329 -45.55078125 48.51171875 C-44.99970703 47.39216797 -44.99970703 47.39216797 -44.4375 46.25 C-42.87242611 44.48537206 -41.26140056 42.76119399 -39.625 41.0625 C-34.33604818 35.46855314 -29.67494761 29.50208303 -25.11791992 23.30200195 C-21.9912084 19.09554132 -18.70142258 15.34612456 -14.90771484 11.7253418 C-13.2949718 10.19676339 -13.2949718 10.19676339 -11.8125 7.875 C-10.4375 6.25 -10.4375 6.25 -7.875 5.75 C-7.070625 5.585 -6.26625 5.42 -5.4375 5.25 C-4.13684079 3.31616713 -4.13684079 3.31616713 -3.4375 1.25 C-2.4375 0.25 -2.4375 0.25 0 0 Z " fill="#151616" transform="translate(130.4375,34.75)"/>
<path d="M0 0 C0.99 0 1.98 0 3 0 C3.33 1.65 3.66 3.3 4 5 C4.66 5 5.32 5 6 5 C6 5.66 6 6.32 6 7 C6.66 7 7.32 7 8 7 C8 8.32 8 9.64 8 11 C8.99 11 9.98 11 11 11 C11 11.66 11 12.32 11 13 C11.66 13 12.32 13 13 13 C13.226875 13.886875 13.45375 14.77375 13.6875 15.6875 C14.77812136 19.08240641 14.77812136 19.08240641 17.29296875 21.28515625 C20.71017566 24.71222523 23.16139667 28.49031513 25.78125 32.53515625 C28.1437614 36.1671447 28.1437614 36.1671447 32 38 C32 38.99 32 39.98 32 41 C32.9075 40.979375 33.815 40.95875 34.75 40.9375 C38 42 38 42 39.32421875 43.9296875 C42.1427483 49.96232969 42.1427483 49.96232969 41.6953125 53.21484375 C41 55 41 55 39.4375 56.25 C34.88229702 57.65160092 30.83369186 57.84721206 26.53125 55.859375 C18.76072396 50.15139599 14.0354555 39.90761642 11 31 C10.04134491 28.66924071 10.04134491 28.66924071 7 27 C7.66 26.34 8.32 25.68 9 25 C10.65 26.65 12.3 28.3 14 30 C14.33 29.34 14.66 28.68 15 28 C14.0126546 26.32580562 13.01187895 24.65948148 12 23 C12 22.01 12 21.02 12 20 C11.401875 19.773125 10.80375 19.54625 10.1875 19.3125 C8 18 8 18 6.5625 15.5625 C4.75929747 12.60524785 3.04316174 11.56270468 0 10 C0.29296875 7.98177083 0.5859375 5.96354167 0.87890625 3.9453125 C1.1684297 1.91859333 1.1684297 1.91859333 0 0 Z " fill="#090A0A" transform="translate(97,117)"/>
<path d="M0 0 C1.2684375 0.12375 1.2684375 0.12375 2.5625 0.25 C3.2225 1.24 3.8825 2.23 4.5625 3.25 C5.18125 3.064375 5.8 2.87875 6.4375 2.6875 C8.5625 2.25 8.5625 2.25 10.5625 3.25 C10.18339079 8.68389871 8.53381872 10.64810628 4.5625 14.25 C3.9025 15.075 3.2425 15.9 2.5625 16.75 C0.3944948 19.4600065 -1.95414538 21.82721501 -4.4375 24.25 C-5.241875 25.178125 -6.04625 26.10625 -6.875 27.0625 C-9.4375 29.25 -9.4375 29.25 -12.75 29.5625 C-13.636875 29.459375 -14.52375 29.35625 -15.4375 29.25 C-14.7775 27.6 -14.1175 25.95 -13.4375 24.25 C-14.05625 24.745 -14.675 25.24 -15.3125 25.75 C-17.4375 27.25 -17.4375 27.25 -19.4375 27.25 C-19.746875 27.86875 -20.05625 28.4875 -20.375 29.125 C-21.0625 30.5 -21.75 31.875 -22.4375 33.25 C-20.1275 32.59 -17.8175 31.93 -15.4375 31.25 C-15.7675 32.57 -16.0975 33.89 -16.4375 35.25 C-17.4275 35.25 -18.4175 35.25 -19.4375 35.25 C-19.4375 35.91 -19.4375 36.57 -19.4375 37.25 C-20.25154297 37.64832031 -20.25154297 37.64832031 -21.08203125 38.0546875 C-21.79746094 38.40789062 -22.51289062 38.76109375 -23.25 39.125 C-23.95769531 39.47304687 -24.66539063 39.82109375 -25.39453125 40.1796875 C-27.64996418 41.3156486 -27.64996418 41.3156486 -30.4375 43.25 C-30.4375 42.26 -30.4375 41.27 -30.4375 40.25 C-31.0975 40.25 -31.7575 40.25 -32.4375 40.25 C-32.25 37.5 -32.25 37.5 -31.4375 34.25 C-30.65375 33.651875 -29.87 33.05375 -29.0625 32.4375 C-26.22115654 30.06971378 -26.05313485 29.51046234 -25.1875 26.125 C-23.66319544 20.78552852 -20.49211423 17.54513351 -16.69140625 13.609375 C-14.36784889 11.26163526 -14.36784889 11.26163526 -12.31640625 8.48828125 C-10.03780105 5.77385136 -8.80442202 5.87022248 -5.4375 5.25 C-4.13684079 3.31616713 -4.13684079 3.31616713 -3.4375 1.25 C-2.4375 0.25 -2.4375 0.25 0 0 Z " fill="#131414" transform="translate(130.4375,34.75)"/>
<path d="M0 0 C1 2 1 2 0.25 4.4375 C-0.94131051 6.87968654 -1.88488303 8.3255324 -4 10 C-4.66 10 -5.32 10 -6 10 C-6.33 11.98 -6.66 13.96 -7 16 C-6.34 16 -5.68 16 -5 16 C-4.67 16.66 -4.34 17.32 -4 18 C-3.278125 17.360625 -2.55625 16.72125 -1.8125 16.0625 C0.98191184 14.01326465 2.61663274 13.38667054 6 13 C6 12.34 6 11.68 6 11 C6.99 10.67 7.98 10.34 9 10 C9 9.34 9 8.68 9 8 C6.69 8.66 4.38 9.32 2 10 C3.5588334 6.17377257 5.95433582 3.74852621 9 1 C9.99 0.67 10.98 0.34 12 0 C11.34 1.65 10.68 3.3 10 5 C10.66 5 11.32 5 12 5 C12.33 4.34 12.66 3.68 13 3 C13 3.66 13 4.32 13 5 C13.66 5 14.32 5 15 5 C13.3997938 8.79937227 10.97157938 11.42802289 8.1875 14.4375 C7.33542969 15.36433594 6.48335937 16.29117188 5.60546875 17.24609375 C-1.03048207 24.26010474 -1.03048207 24.26010474 -4.375 26.8125 C-8.01192957 29.84327464 -10.956418 33.38629457 -14 37 C-14.33 36.01 -14.66 35.02 -15 34 C-14.34 34 -13.68 34 -13 34 C-13 33.34 -13 32.68 -13 32 C-12.34 32 -11.68 32 -11 32 C-10.67 30.68 -10.34 29.36 -10 28 C-9.34 28 -8.68 28 -8 28 C-8 26.68 -8 25.36 -8 24 C-8.38800781 24.48082031 -8.77601562 24.96164063 -9.17578125 25.45703125 C-11.54088647 27.45749498 -13.12691453 27.48876068 -16.1875 27.6875 C-17.08855469 27.75324219 -17.98960938 27.81898437 -18.91796875 27.88671875 C-19.60503906 27.92410156 -20.29210937 27.96148437 -21 28 C-21 28.66 -21 29.32 -21 30 C-21.99 30 -22.98 30 -24 30 C-24 30.66 -24 31.32 -24 32 C-30.625 34 -30.625 34 -34 34 C-31.09710342 29.75730499 -28.96680925 28.26812151 -24 27 C-20.93498764 26.36901383 -20.93498764 26.36901383 -20.1328125 24.2890625 C-19.75898437 23.53367187 -19.38515625 22.77828125 -19 22 C-17.32431493 20.07606529 -15.63363962 18.2190567 -13.875 16.375 C-8.96170255 11.13089824 -4.39392095 5.69069419 0 0 Z " fill="#49494B" transform="translate(105,59)"/>
<path d="M0 0 C4 5 4 5 5 8 C5.99 8 6.98 8 8 8 C9.96286587 10.33241778 11.73688838 12.6477451 13.5 15.125 C14.57788529 16.60398947 15.65734373 18.08183357 16.73828125 19.55859375 C17.28307129 20.30608887 17.82786133 21.05358398 18.38916016 21.82373047 C20.74536507 25.00699973 23.21285522 28.09606776 25.6875 31.1875 C30.77623582 37.58308857 35.4382283 44.21929244 40 51 C39.505 51.99 39.505 51.99 39 53 C37.68 52.67 36.36 52.34 35 52 C35 51.01 35 50.02 35 49 C34.39317383 48.89872803 33.78634766 48.79745605 33.16113281 48.69311523 C30.59428174 47.86987865 29.94772576 47.08989892 28.421875 44.91015625 C27.98359375 44.29076172 27.5453125 43.67136719 27.09375 43.03320312 C26.42859375 42.05770508 26.42859375 42.05770508 25.75 41.0625 C25.29109375 40.41603516 24.8321875 39.76957031 24.359375 39.10351562 C21 34.28941127 21 34.28941127 21 32 C20.360625 31.690625 19.72125 31.38125 19.0625 31.0625 C17 30 17 30 16 29 C15.95936168 27.33382885 15.957279 25.66611905 16 24 C15.34 24 14.68 24 14 24 C14 23.34 14 22.68 14 22 C13.01 22 12.02 22 11 22 C11 20.68 11 19.36 11 18 C10.34 18 9.68 18 9 18 C9 17.34 9 16.68 9 16 C8.34 16 7.68 16 7 16 C6.67 14.35 6.34 12.7 6 11 C5.01 11.495 5.01 11.495 4 12 C4.33 13.32 4.66 14.64 5 16 C4.01 16.33 3.02 16.66 2 17 C2 16.01 2 15.02 2 14 C1.34 14 0.68 14 0 14 C0 9.38 0 4.76 0 0 Z " fill="#303031" transform="translate(94,106)"/>
<path d="M0 0 C0.33 0.66 0.66 1.32 1 2 C0 5 0 5 -2 6 C-2.33 6.99 -2.66 7.98 -3 9 C-3.66 9 -4.32 9 -5 9 C-5 9.66 -5 10.32 -5 11 C-5.66 11 -6.32 11 -7 11 C-7 11.99 -7 12.98 -7 14 C-7.99 14 -8.98 14 -10 14 C-9.814375 14.9075 -9.62875 15.815 -9.4375 16.75 C-8.81683732 21.36063709 -8.81683732 21.36063709 -10 24 C-12.0625 25.75 -12.0625 25.75 -14 27 C-18 22.25 -18 22.25 -18 20 C-17.01 19.67 -16.02 19.34 -15 19 C-14.67 18.34 -14.34 17.68 -14 17 C-15.98 17.33 -17.96 17.66 -20 18 C-20.33 17.34 -20.66 16.68 -21 16 C-22.1446875 17.0209375 -22.1446875 17.0209375 -23.3125 18.0625 C-24.199375 18.701875 -25.08625 19.34125 -26 20 C-26.99 19.67 -27.98 19.34 -29 19 C-29 17.35 -29 15.7 -29 14 C-28.01 14 -27.02 14 -26 14 C-26 13.34 -26 12.68 -26 12 C-23.52653696 9.52653696 -22.29238832 9.01686856 -18.75 8.8125 C-17.8425 8.874375 -16.935 8.93625 -16 9 C-16 8.34 -16 7.68 -16 7 C-15.01 7 -14.02 7 -13 7 C-13 6.34 -13 5.68 -13 5 C-9.78548731 3.39274365 -6.56387464 3.94251815 -3 4 C-2.67 3.01 -2.34 2.02 -2 1 C-1.34 0.67 -0.68 0.34 0 0 Z " fill="#0A0B0B" transform="translate(97,82)"/>
<path d="M0 0 C4.42966583 1.20809068 7.06388828 2.43472148 10 6 C10.68177416 7.32567199 11.35191436 8.65753688 12 10 C12.66 10.33 13.32 10.66 14 11 C15.0703125 13.06640625 15.0703125 13.06640625 16.125 15.5625 C16.47820312 16.38878906 16.83140625 17.21507812 17.1953125 18.06640625 C17.46085937 18.70449219 17.72640625 19.34257812 18 20 C17.34 20.66 16.68 21.32 16 22 C15.34 20.68 14.68 19.36 14 18 C12.68 18 11.36 18 10 18 C10.804375 18.70125 11.60875 19.4025 12.4375 20.125 C15.23433811 23.26291593 15.71308751 24.88758763 16 29 C12.43376787 25.57817515 9.41516749 22.05032595 6.5 18.0625 C4.0600281 14.7508186 1.63180546 11.48381399 -1.0625 8.375 C-3 6 -3 6 -3 4 C-2.01 4 -1.02 4 0 4 C0 2.68 0 1.36 0 0 Z " fill="#262628" transform="translate(95,126)"/>
<path d="M0 0 C1 2 1 2 0.25 4.4375 C-0.94131051 6.87968654 -1.88488303 8.3255324 -4 10 C-4.66 10 -5.32 10 -6 10 C-6.33 11.98 -6.66 13.96 -7 16 C-6.34 16 -5.68 16 -5 16 C-5 16.99 -5 17.98 -5 19 C-6.98260426 20.68732277 -8.9832342 22.35366057 -11 24 C-11.33 24.99 -11.66 25.98 -12 27 C-14.97 27.33 -17.94 27.66 -21 28 C-21 28.66 -21 29.32 -21 30 C-21.99 30 -22.98 30 -24 30 C-24 30.66 -24 31.32 -24 32 C-30.625 34 -30.625 34 -34 34 C-31.09710342 29.75730499 -28.96680925 28.26812151 -24 27 C-20.93498764 26.36901383 -20.93498764 26.36901383 -20.1328125 24.2890625 C-19.75898437 23.53367187 -19.38515625 22.77828125 -19 22 C-17.32431493 20.07606529 -15.63363962 18.2190567 -13.875 16.375 C-8.96170255 11.13089824 -4.39392095 5.69069419 0 0 Z " fill="#202122" transform="translate(105,59)"/>
<path d="M0 0 C4.24990638 1.41663546 5.80454354 4.20784794 8 8 C8.8125 10.9375 8.8125 10.9375 9 13 C7.68 13 6.36 13 5 13 C5 14.32 5 15.64 5 17 C11.435 16.505 11.435 16.505 18 16 C17.2265625 14.14375 17.2265625 14.14375 16.4375 12.25 C15.10445258 9.0506862 14.87622303 7.30435084 16 4 C16.70180531 5.4096347 17.38593958 6.82807641 18.0625 8.25 C18.44535156 9.03890625 18.82820313 9.8278125 19.22265625 10.640625 C20.09374526 13.28453335 20.03065895 14.44575826 19 17 C16.01546605 19.38762716 12.68834554 19.36377899 8.95703125 19.24609375 C4.5552097 18.69257128 2.45894694 16.54577474 -0.3125 13.25 C-2.27531214 9.46976921 -2.47594047 7.20414081 -2 3 C-1.34 2.01 -0.68 1.02 0 0 Z " fill="#0B0D0C" transform="translate(119,155)"/>
<path d="M0 0 C0.99 0 1.98 0 3 0 C3.33 1.65 3.66 3.3 4 5 C4.66 5 5.32 5 6 5 C6 5.66 6 6.32 6 7 C6.66 7 7.32 7 8 7 C8 8.32 8 9.64 8 11 C8.99 11 9.98 11 11 11 C11 11.66 11 12.32 11 13 C11.66 13 12.32 13 13 13 C13.226875 13.886875 13.45375 14.77375 13.6875 15.6875 C15.17427787 19.43984415 17.14173187 21.21694945 20 24 C20 24.99 20 25.98 20 27 C19.01 27.33 18.02 27.66 17 28 C14.5 25.6875 14.5 25.6875 12 23 C12 22.01 12 21.02 12 20 C11.401875 19.773125 10.80375 19.54625 10.1875 19.3125 C8 18 8 18 6.5625 15.5625 C4.75929747 12.60524785 3.04316174 11.56270468 0 10 C0.29296875 7.98177083 0.5859375 5.96354167 0.87890625 3.9453125 C1.1684297 1.91859333 1.1684297 1.91859333 0 0 Z " fill="#050606" transform="translate(97,117)"/>
<path d="M0 0 C4.38672725 4.1402819 7.99026681 8.69518147 11.625 13.5 C12.19734375 14.24636719 12.7696875 14.99273437 13.359375 15.76171875 C19.28999778 23.55428124 19.28999778 23.55428124 21 27 C20.67 27.66 20.34 28.32 20 29 C18.68 28.67 17.36 28.34 16 28 C16 27.01 16 26.02 16 25 C15.08976074 24.84374146 15.08976074 24.84374146 14.16113281 24.68432617 C10.52834632 23.5339985 8.85256548 20.31048945 6.75 17.3125 C6.29109375 16.69955078 5.8321875 16.08660156 5.359375 15.45507812 C2.56014653 11.52699413 1.41778735 8.98711097 2 4 C1.34 4 0.68 4 0 4 C0 2.68 0 1.36 0 0 Z " fill="#A5A5A5" transform="translate(113,130)"/>
<path d="M0 0 C0 0.66 0 1.32 0 2 C-0.99 2 -1.98 2 -3 2 C-3 3.65 -3 5.3 -3 7 C0.82097239 6.46930939 3.06171403 5.50298434 6 3 C6.33 3.66 6.66 4.32 7 5 C8.65 5 10.3 5 12 5 C11.67 5.99 11.34 6.98 11 8 C10.01 8 9.02 8 8 8 C8.33 9.32 8.66 10.64 9 12 C8.01 12.33 7.02 12.66 6 13 C5.87625 13.78375 5.7525 14.5675 5.625 15.375 C5 18 5 18 3 20 C2.4465236 17.92446352 2 16.15634036 2 14 C0.37660195 12.29115995 -1.29319053 10.62553283 -3 9 C-5 7 -5 7 -5.3125 4.5 C-5.209375 3.675 -5.10625 2.85 -5 2 C-2 0 -2 0 0 0 Z " fill="#454646" transform="translate(71,94)"/>
<path d="M0 0 C3.16115776 1.36983503 3.9927092 1.9890638 6 5 C6.66 3.68 7.32 2.36 8 1 C12 7.5 12 7.5 12 12 C12.66 12 13.32 12 14 12 C13.34 14.97 12.68 17.94 12 21 C6.92642378 16.77201982 5.21035315 12.12181143 3 6 C2.04134491 3.66924071 2.04134491 3.66924071 -1 2 C-0.67 1.34 -0.34 0.68 0 0 Z " fill="#19191B" transform="translate(105,142)"/>
<path d="M0 0 C0.66 0 1.32 0 2 0 C1.87950967 6.98843931 1.87950967 6.98843931 -0.37890625 9.5859375 C-1.57149791 10.55174999 -2.78371509 11.49369537 -4.01171875 12.4140625 C-7.46563943 15.16905621 -10.17726803 18.61958543 -13 22 C-13.33 21.01 -13.66 20.02 -14 19 C-13.34 19 -12.68 19 -12 19 C-12 18.34 -12 17.68 -12 17 C-11.34 17 -10.68 17 -10 17 C-9.67 15.68 -9.34 14.36 -9 13 C-8.34 13 -7.68 13 -7 13 C-7 11.68 -7 10.36 -7 9 C-8.32 9.99 -9.64 10.98 -11 12 C-10.6875 10.0625 -10.6875 10.0625 -10 8 C-9.01 7.67 -8.02 7.34 -7 7 C-6.67 6.01 -6.34 5.02 -6 4 C-3.5 2.375 -3.5 2.375 -1 1 C-0.67 0.67 -0.34 0.34 0 0 Z " fill="#171718" transform="translate(104,74)"/>
<path d="M0 0 C0.99 0 1.98 0 3 0 C3 0.66 3 1.32 3 2 C3.99 2 4.98 2 6 2 C6 2.66 6 3.32 6 4 C6.66 4 7.32 4 8 4 C8 4.99 8 5.98 8 7 C8.66 7 9.32 7 10 7 C9.690625 7.598125 9.38125 8.19625 9.0625 8.8125 C7.89790296 11.08956772 7.89790296 11.08956772 7 14 C6.01 14 5.02 14 4 14 C3.67 12.02 3.34 10.04 3 8 C2.01 8 1.02 8 0 8 C-0.66 6.02 -1.32 4.04 -2 2 C-1.34 1.34 -0.68 0.68 0 0 Z " fill="#121213" transform="translate(88,116)"/>
<path d="M0 0 C0 3.38023517 -0.87455622 5.83468937 -2 9 C-2.66 9 -3.32 9 -4 9 C-4 10.32 -4 11.64 -4 13 C-5.65 13.33 -7.3 13.66 -9 14 C-9 14.66 -9 15.32 -9 16 C-9.99 16 -10.98 16 -12 16 C-12 16.66 -12 17.32 -12 18 C-18.625 20 -18.625 20 -22 20 C-19.09710342 15.75730499 -16.96680925 14.26812151 -12 13 C-8.92635972 12.35736542 -8.92635972 12.35736542 -8.0390625 10.203125 C-7.69617188 9.47609375 -7.35328125 8.7490625 -7 8 C-5.83102663 6.5506846 -4.62060692 5.13400769 -3.375 3.75 C-2.74335937 3.04359375 -2.11171875 2.3371875 -1.4609375 1.609375 C-0.97882813 1.07828125 -0.49671875 0.5471875 0 0 Z " fill="#6B6B6E" transform="translate(93,73)"/>
<path d="M0 0 C0.33 0 0.66 0 1 0 C1 1.65 1 3.3 1 5 C4.465 4.505 4.465 4.505 8 4 C8.33 5.65 8.66 7.3 9 9 C5.98509443 10.00496852 3.95818308 10.10335303 0.8125 10.0625 C-0.53908203 10.04896484 -0.53908203 10.04896484 -1.91796875 10.03515625 C-2.60503906 10.02355469 -3.29210937 10.01195312 -4 10 C-4 8.68 -4 7.36 -4 6 C-3.01 5.67 -2.02 5.34 -1 5 C-0.67 3.35 -0.34 1.7 0 0 Z " fill="#080A09" transform="translate(128,162)"/>
<path d="M0 0 C2 1 2 1 4 4 C4.625 6.1875 4.625 6.1875 5 8 C4.01 8.33 3.02 8.66 2 9 C1.67 8.34 1.34 7.68 1 7 C0.236875 7.680625 -0.52625 8.36125 -1.3125 9.0625 C-2.199375 9.701875 -3.08625 10.34125 -4 11 C-4.99 10.67 -5.98 10.34 -7 10 C-7 8.35 -7 6.7 -7 5 C-6.01 5 -5.02 5 -4 5 C-4 4.34 -4 3.68 -4 3 C-2 1.375 -2 1.375 0 0 Z " fill="#121314" transform="translate(75,91)"/>
<path d="M0 0 C0 0.66 0 1.32 0 2 C0.99 2.33 1.98 2.66 3 3 C1.9171875 3.804375 1.9171875 3.804375 0.8125 4.625 C-2.247842 7.2092888 -4.51220011 9.87248014 -7 13 C-7.66 12.01 -8.32 11.02 -9 10 C-8.67 9.34 -8.34 8.68 -8 8 C-7.34 8.33 -6.68 8.66 -6 9 C-6 7.68 -6 6.36 -6 5 C-6.99 5 -7.98 5 -9 5 C-8.625 3.0625 -8.625 3.0625 -8 1 C-5.32916926 -0.33541537 -2.92701445 0 0 0 Z M-6 2 C-5.01 3.485 -5.01 3.485 -4 5 C-4 4.01 -4 3.02 -4 2 C-4.66 2 -5.32 2 -6 2 Z " fill="#595959" transform="translate(129,50)"/>
<path d="M0 0 C0.66 0.33 1.32 0.66 2 1 C-0.2192879 3.4466537 -2.45209242 5.88057308 -4.6875 8.3125 C-5.31333984 9.00279297 -5.93917969 9.69308594 -6.58398438 10.40429688 C-9.80940933 13.89991449 -12.68126686 16.84476224 -17 19 C-15.60809755 15.91450197 -13.95565889 13.62953021 -11.6875 11.125 C-9.46561955 8.65367767 -7.31433726 6.16645126 -5.25 3.5625 C-3 1 -3 1 0 0 Z " fill="#6A6A6A" transform="translate(123,40)"/>
<path d="M0 0 C4 5 4 5 5 8 C5.99 8 6.98 8 8 8 C7 10 7 10 4 12 C4.33 13.32 4.66 14.64 5 16 C4.01 16.33 3.02 16.66 2 17 C2 16.01 2 15.02 2 14 C1.34 14 0.68 14 0 14 C0 9.38 0 4.76 0 0 Z " fill="#383938" transform="translate(94,106)"/>
<path d="M0 0 C4.12172083 3.76843047 7.63068221 7.88904305 10 13 C9.67 13.66 9.34 14.32 9 15 C7.68 14.67 6.36 14.34 5 14 C5 13.01 5 12.02 5 11 C4.38125 10.938125 3.7625 10.87625 3.125 10.8125 C1 10 1 10 -0.3125 7.625 C-1 5 -1 5 0 2 C0 1.34 0 0.68 0 0 Z " fill="#8C8C8E" transform="translate(124,144)"/>
<path d="M0 0 C0.99 0.66 1.98 1.32 3 2 C3 2.99 3 3.98 3 5 C2.01 5 1.02 5 0 5 C0.33 6.32 0.66 7.64 1 9 C1.99 9 2.98 9 4 9 C4 9.99 4 10.98 4 12 C5.65 12 7.3 12 9 12 C8.67 14.31 8.34 16.62 8 19 C7.484375 18.34 6.96875 17.68 6.4375 17 C3.85656474 13.82346429 1.14492043 10.79578443 -1.609375 7.76953125 C-3 6 -3 6 -3 4 C-2.01 4 -1.02 4 0 4 C0 2.68 0 1.36 0 0 Z " fill="#89898A" transform="translate(95,126)"/>
<path d="M0 0 C2.7710688 2.34591852 3.52059284 4.14776201 4.1875 7.6875 C4.34605469 8.49574219 4.50460938 9.30398437 4.66796875 10.13671875 C4.77753906 10.75160156 4.88710937 11.36648437 5 12 C0.49636698 15.37772476 -2.55821167 15.43188796 -8 15 C-10.5 14 -10.5 14 -12 13 C-9.11584117 11.55792059 -6.58278472 11.90605113 -3.375 11.9375 C-2.18648437 11.94652344 -0.99796875 11.95554688 0.2265625 11.96484375 C1.14179688 11.97644531 2.05703125 11.98804688 3 12 C2.7834375 11.46890625 2.566875 10.9378125 2.34375 10.390625 C2.0653125 9.68421875 1.786875 8.9778125 1.5 8.25 C1.2215625 7.55390625 0.943125 6.8578125 0.65625 6.140625 C0 4 0 4 0 0 Z " fill="#A0A09F" transform="translate(134,159)"/>
<path d="M0 0 C2.475 0.495 2.475 0.495 5 1 C5.66 3.31 6.32 5.62 7 8 C4.69 8.33 2.38 8.66 0 9 C0 6.03 0 3.06 0 0 Z " fill="#505053" transform="translate(129,158)"/>
<path d="M0 0 C0.66 0.33 1.32 0.66 2 1 C0.73657512 2.48549956 -0.5360103 3.96321189 -1.8125 5.4375 C-2.52019531 6.26121094 -3.22789063 7.08492188 -3.95703125 7.93359375 C-6 10 -6 10 -9 11 C-8.25 5.25 -8.25 5.25 -6 3 C-5.01 3 -4.02 3 -3 3 C-3 2.34 -3 1.68 -3 1 C-2.01 0.67 -1.02 0.34 0 0 Z " fill="#515152" transform="translate(114,69)"/>
<path d="M0 0 C2.86724686 0.57344937 3.8614515 0.8614515 6 3 C5.625 5.625 5.625 5.625 5 8 C3.02 8 1.04 8 -1 8 C-1.33 6.68 -1.66 5.36 -2 4 C-1.01 4 -0.02 4 1 4 C0.67 2.68 0.34 1.36 0 0 Z " fill="#303133" transform="translate(97,127)"/>
<path d="M0 0 C1 2 1 2 0.25 4.4375 C-0.94131051 6.87968654 -1.88488303 8.3255324 -4 10 C-4.66 10 -5.32 10 -6 10 C-6.33 11.32 -6.66 12.64 -7 14 C-8.32 13.67 -9.64 13.34 -11 13 C-7.37 8.71 -3.74 4.42 0 0 Z " fill="#8C8C8C" transform="translate(105,59)"/>
<path d="M0 0 C0 0.99 0 1.98 0 3 C-1.37957462 4.17768565 -2.7676106 5.34708486 -4.19921875 6.4609375 C-7.50346459 9.28495672 -10.2128545 12.67686498 -13 16 C-13.33 15.01 -13.66 14.02 -14 13 C-13.34 13 -12.68 13 -12 13 C-12 12.34 -12 11.68 -12 11 C-11.34 11 -10.68 11 -10 11 C-9.67 9.68 -9.34 8.36 -9 7 C-8.34 7 -7.68 7 -7 7 C-7 6.01 -7 5.02 -7 4 C-5.68 4 -4.36 4 -3 4 C-3 3.34 -3 2.68 -3 2 C-2.01 1.34 -1.02 0.68 0 0 Z " fill="#868587" transform="translate(104,80)"/>
<path d="M0 0 C1.98 0 3.96 0 6 0 C5.814375 0.5775 5.62875 1.155 5.4375 1.75 C4.95976454 4.20692525 5.24270636 5.64397534 6 8 C6.99 8 7.98 8 9 8 C9.33 9.98 9.66 11.96 10 14 C4.19794344 8.35475578 4.19794344 8.35475578 2 5 C2 4.34 2 3.68 2 3 C1.34 3 0.68 3 0 3 C0 2.01 0 1.02 0 0 Z " fill="#969797" transform="translate(82,116)"/>
<path d="M0 0 C3 1 3 1 4 3 C4.99 3.33 5.98 3.66 7 4 C6.34 5.65 5.68 7.3 5 9 C4.01 9 3.02 9 2 9 C1.67 7.02 1.34 5.04 1 3 C0.01 3 -0.98 3 -2 3 C-2 2.34 -2 1.68 -2 1 C-1.34 0.67 -0.68 0.34 0 0 Z M3 0 C5 1 5 1 5 1 Z " fill="#2A2A2B" transform="translate(90,121)"/>
<path d="M0 0 C4.4008703 3.82180842 5.80805531 6.47371099 7 12 C6.01 12.33 5.02 12.66 4 13 C1.70986347 9.5647952 1.82157027 8.014669 2 4 C1.34 4 0.68 4 0 4 C0 2.68 0 1.36 0 0 Z " fill="#636365" transform="translate(113,130)"/>
<path d="M0 0 C1.32 0.33 2.64 0.66 4 1 C4 2.98 4 4.96 4 7 C2.02 7 0.04 7 -2 7 C-1.34 4.69 -0.68 2.38 0 0 Z " fill="#262628" transform="translate(117,57)"/>
<path d="M0 0 C0.99 0.33 1.98 0.66 3 1 C3 1.66 3 2.32 3 3 C4.65 2.34 6.3 1.68 8 1 C8.99 1.99 9.98 2.98 11 4 C9.68 4 8.36 4 7 4 C7 4.99 7 5.98 7 7 C6.01 7 5.02 7 4 7 C2.02 3.535 2.02 3.535 0 0 Z " fill="#484948" transform="translate(117,164)"/>
<path d="M0 0 C0.66 0.33 1.32 0.66 2 1 C2.625 3.0625 2.625 3.0625 3 5 C0.35261084 6.4606285 -0.89448334 7 -4 7 C-4 5.68 -4 4.36 -4 3 C-2 1.25 -2 1.25 0 0 Z " fill="#1F1F21" transform="translate(75,91)"/>
<path d="M0 0 C2.31 0 4.62 0 7 0 C6.25 1.9375 6.25 1.9375 5 4 C3.125 4.6875 3.125 4.6875 1 5 C-0.11375 5.2784375 -0.11375 5.2784375 -1.25 5.5625 C-1.8275 5.706875 -2.405 5.85125 -3 6 C-3 5.34 -3 4.68 -3 4 C-2.34 3.67 -1.68 3.34 -1 3 C-0.67 2.01 -0.34 1.02 0 0 Z " fill="#111213" transform="translate(86,86)"/>
<path d="M0 0 C0.33 0.99 0.66 1.98 1 3 C-0.32 3.33 -1.64 3.66 -3 4 C-3 4.66 -3 5.32 -3 6 C-4.32 6 -5.64 6 -7 6 C-7.33 4.35 -7.66 2.7 -8 1 C-7.01 1.495 -7.01 1.495 -6 2 C-3.98072489 1.39421747 -1.97746603 0.73080266 0 0 Z " fill="#111213" transform="translate(114,66)"/>
<path d="M0 0 C0.66 0 1.32 0 2 0 C2 0.66 2 1.32 2 2 C2.99 2.33 3.98 2.66 5 3 C3.824375 3.928125 3.824375 3.928125 2.625 4.875 C0.03162353 6.89858661 0.03162353 6.89858661 -2 9 C-2.125 5.625 -2.125 5.625 -2 2 C-1.34 1.34 -0.68 0.68 0 0 Z " fill="#424342" transform="translate(127,50)"/>
<path d="M0 0 C-0.59861742 2.35171131 -1.26924352 4.6859378 -2 7 C-2.99 7.495 -2.99 7.495 -4 8 C-4.66 7.67 -5.32 7.34 -6 7 C-5.37162381 3.35541809 -4.14650034 0 0 0 Z " fill="#0D0E0E" transform="translate(106,74)"/>
<path d="M0 0 C1.98 0.66 3.96 1.32 6 2 C6 1.34 6 0.68 6 0 C6.66 0 7.32 0 8 0 C7.34 2.64 6.68 5.28 6 8 C1.125 3.375 1.125 3.375 0 0 Z " fill="#666768" transform="translate(111,155)"/>
<path d="M0 0 C2.3125 0.125 2.3125 0.125 5 1 C6.875 3.875 6.875 3.875 8 7 C7.67 7.99 7.34 8.98 7 10 C5.83043409 8.52312468 4.66441854 7.04343707 3.5 5.5625 C2.8503125 4.73878906 2.200625 3.91507813 1.53125 3.06640625 C0 1 0 1 0 0 Z " fill="#747475" transform="translate(103,145)"/>
<path d="M0 0 C0.66 0 1.32 0 2 0 C0.64178106 4.88958819 -1.6978692 6.4904237 -6 9 C-6.99 9.495 -6.99 9.495 -8 10 C-6.44303593 6.17836093 -3.96591316 3.81381505 -1 1 C-0.67 0.67 -0.34 0.34 0 0 Z " fill="#777778" transform="translate(115,59)"/>
<path d="M0 0 C0 3.26229641 -0.21770324 4.32655486 -2 7 C-5.125 9.25 -5.125 9.25 -8 11 C-6.63629701 8.00779732 -5.05091917 5.70973471 -2.875 3.25 C-2.33617188 2.63640625 -1.79734375 2.0228125 -1.2421875 1.390625 C-0.62730469 0.70226563 -0.62730469 0.70226563 0 0 Z " fill="#878787" transform="translate(114,48)"/>
<path d="M0 0 C1.66666667 3.33333333 3.33333333 6.66666667 5 10 C2.03 9.505 2.03 9.505 -1 9 C-0.67 6.03 -0.34 3.06 0 0 Z " fill="#828283" transform="translate(89,96)"/>
<path d="M0 0 C0.66 0 1.32 0 2 0 C3.32 2.31 4.64 4.62 6 7 C1.125 6.125 1.125 6.125 0 5 C-0.04063832 3.33382885 -0.042721 1.66611905 0 0 Z " fill="#131415" transform="translate(111,150)"/>
<path d="M0 0 C1.70884005 1.62339805 3.37446717 3.29319053 5 5 C5 5.66 5 6.32 5 7 C4.01 7 3.02 7 2 7 C1.67 7.66 1.34 8.32 1 9 C-0.0625 7.1875 -0.0625 7.1875 -1 5 C-0.67 4.01 -0.34 3.02 0 2 C0 1.34 0 0.68 0 0 Z " fill="#A9AAAB" transform="translate(124,144)"/>
<path d="M0 0 C2.475 0.495 2.475 0.495 5 1 C5 1.99 5 2.98 5 4 C5.66 4 6.32 4 7 4 C7 4.66 7 5.32 7 6 C4.625 5.8125 4.625 5.8125 2 5 C0.6875 2.4375 0.6875 2.4375 0 0 Z " fill="#18191A" transform="translate(91,119)"/>
<path d="M0 0 C1.11375 0.1546875 1.11375 0.1546875 2.25 0.3125 C2.25 0.9725 2.25 1.6325 2.25 2.3125 C-3.375 5.3125 -3.375 5.3125 -6.75 5.3125 C-3.42692308 0.38942308 -3.42692308 0.38942308 0 0 Z " fill="#A2A2A3" transform="translate(77.75,87.6875)"/>
<path d="M0 0 C1 2 1 2 0.3125 4.4375 C-1.10829685 7.21143671 -2.39746148 8.35172561 -5 10 C-3.14285714 2.42857143 -3.14285714 2.42857143 0 0 Z " fill="#626363" transform="translate(105,59)"/>
<path d="M0 0 C0.66 0.66 1.32 1.32 2 2 C3.34262065 1.70630173 4.67696283 1.3721042 6 1 C6.66 1.33 7.32 1.66 8 2 C8 2.99 8 3.98 8 5 C5.36 4.67 2.72 4.34 0 4 C0 2.68 0 1.36 0 0 Z " fill="#858586" transform="translate(133,36)"/>
<path d="M0 0 C0.33 0.99 0.66 1.98 1 3 C0.01 3.66 -0.98 4.32 -2 5 C-2.33 5.99 -2.66 6.98 -3 8 C-4.32 7.67 -5.64 7.34 -7 7 C-2.25 1.125 -2.25 1.125 0 0 Z " fill="#2E2E31" transform="translate(96,78)"/>
<path d="M0 0 C1.65 0 3.3 0 5 0 C4.19152271 1.16945792 3.37810888 2.33550461 2.5625 3.5 C2.11003906 4.1496875 1.65757813 4.799375 1.19140625 5.46875 C0.79824219 5.9740625 0.40507813 6.479375 0 7 C-0.33 7 -0.66 7 -1 7 C-0.67 4.69 -0.34 2.38 0 0 Z " fill="#252527" transform="translate(104,138)"/>
<path d="M0 0 C1.32 0 2.64 0 4 0 C3.67 2.31 3.34 4.62 3 7 C1.5 5.75 1.5 5.75 0 4 C0 2.68 0 1.36 0 0 Z " fill="#5D5D5E" transform="translate(100,138)"/>
<path d="M0 0 C1.875 0.3125 1.875 0.3125 4 1 C4.66 1.99 5.32 2.98 6 4 C4.68 4.33 3.36 4.66 2 5 C1.34 3.35 0.68 1.7 0 0 Z " fill="#242526" transform="translate(97,127)"/>
<path d="M0 0 C1.98 0 3.96 0 6 0 C5.67 1.65 5.34 3.3 5 5 C4.01 5 3.02 5 2 5 C2 4.34 2 3.68 2 3 C1.34 3 0.68 3 0 3 C0 2.01 0 1.02 0 0 Z " fill="#636363" transform="translate(82,116)"/>
<path d="M0 0 C0.99 0.33 1.98 0.66 3 1 C4.1875 3.5625 4.1875 3.5625 5 6 C3.68 5.67 2.36 5.34 1 5 C1 4.34 1 3.68 1 3 C0.34 2.67 -0.32 2.34 -1 2 C-0.67 1.34 -0.34 0.68 0 0 Z " fill="#1E1F20" transform="translate(119,155)"/>
<path d="M0 0 C1.32 0.33 2.64 0.66 4 1 C4.33 2.98 4.66 4.96 5 7 C3.29115995 5.37660195 1.62553283 3.70680947 0 2 C0 1.34 0 0.68 0 0 Z " fill="#5C5C5F" transform="translate(120,143)"/>
<path d="M0 0 C4.875 4.625 4.875 4.625 6 8 C4.68 7.67 3.36 7.34 2 7 C1.34 4.69 0.68 2.38 0 0 Z " fill="#8A8A8B" transform="translate(102,116)"/>
<path d="M0 0 C0.33 0.99 0.66 1.98 1 3 C1.99 3 2.98 3 4 3 C4 4.32 4 5.64 4 7 C3.34 7 2.68 7 2 7 C2 6.34 2 5.68 2 5 C0.68 4.67 -0.64 4.34 -2 4 C-1.34 4 -0.68 4 0 4 C0 2.68 0 1.36 0 0 Z " fill="#1A1B1C" transform="translate(119,52)"/>
<path d="M0 0 C0.99 0.33 1.98 0.66 3 1 C2.01 1.33 1.02 1.66 0 2 C0 1.34 0 0.68 0 0 Z " fill="#E8E8E8" transform="translate(177,32)"/>
</svg>
