<?xml version="1.0" encoding="UTF-8"?>
<svg version="1.1" xmlns="http://www.w3.org/2000/svg" width="200" height="207">
<path d="M0 0 C4.52893712 2.09686223 6.60115115 4.87597396 9.3125 9 C10.09788758 10.17389417 10.88436522 11.34705971 11.671875 12.51953125 C12.25678711 13.39859131 12.25678711 13.39859131 12.85351562 14.29541016 C16.88441475 20.28853999 21.21073533 26.07191484 25.75 31.6875 C29.41815509 36.228676 32.97598256 40.84666223 36.5 45.5 C37.31162598 46.56093872 37.31162598 46.56093872 38.13964844 47.64331055 C38.64012695 48.30758057 39.14060547 48.97185059 39.65625 49.65625 C40.10806641 50.25244141 40.55988281 50.84863281 41.02539062 51.46289062 C42 53 42 53 42 55 C42.66 55 43.32 55 44 55 C44 55.99 44 56.98 44 58 C45.11375 58.12375 46.2275 58.2475 47.375 58.375 C51 59 51 59 53 61 C52.773125 61.598125 52.54625 62.19625 52.3125 62.8125 C52.209375 63.534375 52.10625 64.25625 52 65 C54.11826031 67.41246313 56.34262783 69.45596786 58.8125 71.5 C60 73 60 73 60.5625 75.4375 C60 78 60 78 57.1875 80.0625 C56.135625 80.701875 55.08375 81.34125 54 82 C53.505 82.70125 53.01 83.4025 52.5 84.125 C50.39618155 86.75477307 48.19397218 87.13496587 45 88 C41.93095214 88.63335671 41.93095214 88.63335671 41.11328125 90.73828125 C40.74589844 91.48464844 40.37851563 92.23101562 40 93 C38.43492611 94.76462794 36.82390056 96.48880601 35.1875 98.1875 C29.89854818 103.78144686 25.23744761 109.74791697 20.68041992 115.94799805 C17.5537084 120.15445868 14.26392258 123.90387544 10.47021484 127.5246582 C8.8574718 129.05323661 8.8574718 129.05323661 7.375 131.375 C6 133 6 133 3.4375 133.5 C2.633125 133.665 1.82875 133.83 1 134 C-0.30065921 135.93383287 -0.30065921 135.93383287 -1 138 C-2 139 -2 139 -4.4375 139.25 C-5.283125 139.1675 -6.12875 139.085 -7 139 C-7.66 138.01 -8.32 137.02 -9 136 C-9.61875 136.185625 -10.2375 136.37125 -10.875 136.5625 C-13 137 -13 137 -15 136 C-14.62089079 130.56610129 -12.97131872 128.60189372 -9 125 C-8.34 124.175 -7.68 123.35 -7 122.5 C-4.83259038 119.79073798 -2.45529331 117.45175543 0 115 C1.80333022 113.07166016 3.59579628 111.13769622 5.375 109.1875 C5.85469238 108.66341553 6.33438477 108.13933105 6.82861328 107.59936523 C9.5487906 104.61905668 12.2317276 101.6115379 14.875 98.5625 C18.13724578 94.81091735 21.41002239 91.21340396 25.375 88.1875 C27.69523024 86.2539748 29.78986586 84.30528907 31.875 82.125 C32.49117187 81.48820312 33.10734375 80.85140625 33.7421875 80.1953125 C35.25464001 77.99768661 35.25464001 77.99768661 34.91796875 75.0703125 C33.90835196 71.69346655 32.56209646 69.54845837 30.4375 66.75 C27 62.18511066 27 62.18511066 27 60 C26.01 60 25.02 60 24 60 C22.03713413 57.66758222 20.26311162 55.3522549 18.5 52.875 C17.42211471 51.39601053 16.34265627 49.91816643 15.26171875 48.44140625 C14.71692871 47.69391113 14.17213867 46.94641602 13.61083984 46.17626953 C11.254611 42.99296794 8.7865148 39.90446794 6.3125 36.8125 C-11.91883362 13.81166383 -11.91883362 13.81166383 -13 3 C-8.85592851 -0.10805362 -5.04918579 -0.97541089 0 0 Z " fill="#2B2C2C" transform="translate(74,33)"/>
<path d="M0 0 C4.52893712 2.09686223 6.60115115 4.87597396 9.3125 9 C10.09788758 10.17389417 10.88436522 11.34705971 11.671875 12.51953125 C12.25678711 13.39859131 12.25678711 13.39859131 12.85351562 14.29541016 C16.88441475 20.28853999 21.21073533 26.07191484 25.75 31.6875 C29.41815509 36.228676 32.97598256 40.84666223 36.5 45.5 C37.31162598 46.56093872 37.31162598 46.56093872 38.13964844 47.64331055 C38.64012695 48.30758057 39.14060547 48.97185059 39.65625 49.65625 C40.10806641 50.25244141 40.55988281 50.84863281 41.02539062 51.46289062 C42 53 42 53 42 55 C42.66 55 43.32 55 44 55 C44 55.99 44 56.98 44 58 C45.11375 58.12375 46.2275 58.2475 47.375 58.375 C51 59 51 59 53 61 C52.835 61.61875 52.67 62.2375 52.5 62.875 C51.85893032 65.59954614 52.58206113 66.66457128 54 69 C52.02 68.505 52.02 68.505 50 68 C49.67 68.66 49.34 69.32 49 70 C46.61435923 69.42415568 44.33317216 68.77772405 42 68 C42 65.69 42 63.38 42 61 C41.34 61 40.68 61 40 61 C40.33 60.01 40.66 59.02 41 58 C40.34 57.34 39.68 56.68 39 56 C39 55.01 39 54.02 39 53 C38.01 52.67 37.02 52.34 36 52 C35.67 53.32 35.34 54.64 35 56 C33.68 55.67 32.36 55.34 31 55 C30.505 53.02 30.505 53.02 30 51 C29.34 51 28.68 51 28 51 C28.33 49.68 28.66 48.36 29 47 C28.4225 46.9175 27.845 46.835 27.25 46.75 C23.55757759 45.51919253 21.60736894 43.09326408 19.75 39.75 C19.5025 39.1725 19.255 38.595 19 38 C18.67 38 18.34 38 18 38 C17.20046862 41.28696233 16.90341064 42.71023192 18 46 C18.66 46 19.32 46 20 46 C23 49.46153846 23 49.46153846 23 52 C23.66 52 24.32 52 25 52 C25.495 54.97 25.495 54.97 26 58 C26.66 58 27.32 58 28 58 C28.33 58.99 28.66 59.98 29 61 C29.99 61.33 30.98 61.66 32 62 C32 63.65 32 65.3 32 67 C33.134375 67.268125 34.26875 67.53625 35.4375 67.8125 C37.2009375 68.4003125 37.2009375 68.4003125 39 69 C39.33 69.99 39.66 70.98 40 72 C39.34 72 38.68 72 38 72 C37.67 73.98 37.34 75.96 37 78 C36.74347656 77.45472656 36.48695312 76.90945312 36.22265625 76.34765625 C34.26414982 72.58707361 31.87424429 69.10669031 29.55859375 65.55859375 C28 63 28 63 27 60 C26.01 60 25.02 60 24 60 C22.03713413 57.66758222 20.26311162 55.3522549 18.5 52.875 C17.42211471 51.39601053 16.34265627 49.91816643 15.26171875 48.44140625 C14.71692871 47.69391113 14.17213867 46.94641602 13.61083984 46.17626953 C11.254611 42.99296794 8.7865148 39.90446794 6.3125 36.8125 C-11.91883362 13.81166383 -11.91883362 13.81166383 -13 3 C-8.85592851 -0.10805362 -5.04918579 -0.97541089 0 0 Z " fill="#070808" transform="translate(74,33)"/>
<path d="M0 0 C3 2 3 2 4.375 4.4375 C6.22712462 7.35815805 7.9588583 8.43833264 11 10 C10.67 11.32 10.34 12.64 10 14 C10.66 14 11.32 14 12 14 C12.66 15.32 13.32 16.64 14 18 C14.99 18 15.98 18 17 18 C17.33 17.01 17.66 16.02 18 15 C19.32 15.33 20.64 15.66 22 16 C22 16.99 22 17.98 22 19 C22.99 19.66 23.98 20.32 25 21 C24.34 21.66 23.68 22.32 23 23 C23.66 23.66 24.32 24.32 25 25 C25.125 27.625 25.125 27.625 25 30 C26.98 30.99 28.96 31.98 31 33 C31.33 32.01 31.66 31.02 32 30 C33.9375 30.75 33.9375 30.75 36 32 C36.625 34.0625 36.625 34.0625 37 36 C37.99 36.495 37.99 36.495 39 37 C36.525 37.495 36.525 37.495 34 38 C34 38.66 34 39.32 34 40 C33.01 40.66 32.02 41.32 31 42 C29.80767387 44.05003955 29.80767387 44.05003955 29 46 C28.34 46 27.68 46 27 46 C27 46.99 27 47.98 27 49 C26.01 49 25.02 49 24 49 C24 49.66 24 50.32 24 51 C23.41992188 51.01417969 22.83984375 51.02835938 22.2421875 51.04296875 C16.14244918 51.41539502 13.32010398 52.67989602 9 57 C8.34 56.67 7.68 56.34 7 56 C7.804375 55.236875 8.60875 54.47375 9.4375 53.6875 C12.16799024 51.20569102 12.16799024 51.20569102 13 48 C13.66 48 14.32 48 15 48 C15.66 45.69 16.32 43.38 17 41 C17.66 41 18.32 41 19 41 C19 38.69 19 36.38 19 34 C19.66 34 20.32 34 21 34 C21 33.34 21 32.68 21 32 C20.21625 31.855625 19.4325 31.71125 18.625 31.5625 C16 31 16 31 14 30 C14 28.35 14 26.7 14 25 C12.68 24.67 11.36 24.34 10 24 C10 23.01 10 22.02 10 21 C9.34 21 8.68 21 8 21 C7.67 19.02 7.34 17.04 7 15 C6.34 15 5.68 15 5 15 C2 11.53846154 2 11.53846154 2 9 C1.34 9 0.68 9 0 9 C0 8.34 0 7.68 0 7 C-0.66 6.67 -1.32 6.34 -2 6 C-1.34 4.02 -0.68 2.04 0 0 Z " fill="#0D0F0F" transform="translate(92,70)"/>
<path d="M0 0 C4.52893712 2.09686223 6.60115115 4.87597396 9.3125 9 C10.08730893 10.16097989 10.86337679 11.32112048 11.640625 12.48046875 C12.22360352 13.35711182 12.22360352 13.35711182 12.81835938 14.25146484 C15.75086099 18.59084017 18.89747169 22.78157596 22 27 C20.68 27.33 19.36 27.66 18 28 C18 28.99 18 29.98 18 31 C16.68 30.67 15.36 30.34 14 30 C14 28.68 14 27.36 14 26 C14.66 26 15.32 26 16 26 C15.65213292 24.02463255 15.65213292 24.02463255 15 22 C14.34 21.67 13.68 21.34 13 21 C13 19.68 13 18.36 13 17 C11.68 17 10.36 17 9 17 C9 17.66 9 18.32 9 19 C6.6875 18.9375 6.6875 18.9375 4 18 C2.3125 14.5625 2.3125 14.5625 1 11 C0.34 10.34 -0.32 9.68 -1 9 C-0.67 8.34 -0.34 7.68 0 7 C-0.99 7 -1.98 7 -3 7 C-3.144375 8.11375 -3.28875 9.2275 -3.4375 10.375 C-4 14 -4 14 -5 16 C-4.34 16 -3.68 16 -3 16 C-1.9375 18.375 -1.9375 18.375 -1 21 C-1.33 21.66 -1.66 22.32 -2 23 C-1.34 23 -0.68 23 0 23 C0.33 22.34 0.66 21.68 1 21 C2.1998278 22.42722659 3.3845576 23.86715776 4.5625 25.3125 C5.22378906 26.11300781 5.88507813 26.91351563 6.56640625 27.73828125 C7.03949219 28.48464844 7.51257813 29.23101562 8 30 C7.67 30.99 7.34 31.98 7 33 C7.680625 33.5259375 7.680625 33.5259375 8.375 34.0625 C10.64661334 36.77096206 11.16798854 39.60795328 12 43 C1.02726191 32.77661963 -10.5851318 17.97218284 -13 3 C-8.85592851 -0.10805362 -5.04918579 -0.97541089 0 0 Z " fill="#262827" transform="translate(74,33)"/>
<path d="M0 0 C4.875 2.875 4.875 2.875 6 4 C6.4375 6.3125 6.4375 6.3125 6 9 C3.1875 11.0625 3.1875 11.0625 0 13 C-0.495 13.70125 -0.99 14.4025 -1.5 15.125 C-3.60381845 17.75477307 -5.80602782 18.13496587 -9 19 C-12.06586928 19.63548842 -12.06586928 19.63548842 -12.90234375 21.734375 C-13.26457031 22.48203125 -13.62679687 23.2296875 -14 24 C-15.47625847 25.78776255 -17.00128851 27.53592511 -18.5625 29.25 C-19.36816406 30.14203125 -20.17382812 31.0340625 -21.00390625 31.953125 C-21.66261719 32.62859375 -22.32132813 33.3040625 -23 34 C-23.33 34 -23.66 34 -24 34 C-23.67 31.69 -23.34 29.38 -23 27 C-21.35 27 -19.7 27 -18 27 C-18.33 25.68 -18.66 24.36 -19 23 C-18.34 23 -17.68 23 -17 23 C-17.33 22.34 -17.66 21.68 -18 21 C-18.556875 21.721875 -19.11375 22.44375 -19.6875 23.1875 C-21.98852775 25.98604726 -24.33504495 28.54543614 -27 31 C-27.66 31 -28.32 31 -29 31 C-29.495 32.485 -29.495 32.485 -30 34 C-30.66 34 -31.32 34 -32 34 C-32 33.34 -32 32.68 -32 32 C-33.65 31.67 -35.3 31.34 -37 31 C-36.34 30.67 -35.68 30.34 -35 30 C-35 29.01 -35 28.02 -35 27 C-34.34 27 -33.68 27 -33 27 C-32.95875 26.278125 -32.9175 25.55625 -32.875 24.8125 C-31.8565084 21.538777 -30.37952349 20.43366429 -27.69921875 18.40234375 C-24.7436168 15.96312283 -22.40952419 12.96491097 -20 10 C-19.67 10.66 -19.34 11.32 -19 12 C-19.9375 14.125 -19.9375 14.125 -21 16 C-21.66 16 -22.32 16 -23 16 C-23.1546875 16.86625 -23.1546875 16.86625 -23.3125 17.75 C-24.09792798 20.32049158 -25.30504197 21.93657284 -27 24 C-25.7934375 22.7625 -25.7934375 22.7625 -24.5625 21.5 C-21.07081235 18.52746015 -18.20497649 18.56736934 -13.7578125 18.82421875 C-13.17773438 18.88222656 -12.59765625 18.94023438 -12 19 C-12 18.34 -12 17.68 -12 17 C-11.01 17 -10.02 17 -9 17 C-9 16.01 -9 15.02 -9 14 C-8.01 13.34 -7.02 12.68 -6 12 C-6 11.01 -6 10.02 -6 9 C-4.68 8.67 -3.36 8.34 -2 8 C-2 7.34 -2 6.68 -2 6 C-0.68 5.67 0.64 5.34 2 5 C1.34 3.35 0.68 1.7 0 0 Z " fill="#171718" transform="translate(128,102)"/>
<path d="M0 0 C4.0586054 3.7494733 7.24658857 8.10613761 10.5625 12.5 C11.13935547 13.25925781 11.71621094 14.01851562 12.31054688 14.80078125 C13.87730928 16.86449828 15.4405541 18.93075018 17 21 C17.55679443 21.70060547 18.11358887 22.40121094 18.68725586 23.12304688 C20 25 20 25 20 27 C20.66 27 21.32 27 22 27 C22 27.99 22 28.98 22 30 C23.11375 30.12375 24.2275 30.2475 25.375 30.375 C29 31 29 31 31 33 C30.835 33.61875 30.67 34.2375 30.5 34.875 C29.85893032 37.59954614 30.58206113 38.66457128 32 41 C30.68 40.67 29.36 40.34 28 40 C27.67 40.66 27.34 41.32 27 42 C24.61435923 41.42415568 22.33317216 40.77772405 20 40 C20 37.69 20 35.38 20 33 C19.34 33 18.68 33 18 33 C18.33 32.01 18.66 31.02 19 30 C18.34 29.34 17.68 28.68 17 28 C17 27.01 17 26.02 17 25 C16.01 24.67 15.02 24.34 14 24 C13.67 25.32 13.34 26.64 13 28 C11.68 27.67 10.36 27.34 9 27 C8.67 25.68 8.34 24.36 8 23 C7.34 23 6.68 23 6 23 C6.33 21.68 6.66 20.36 7 19 C6.401875 18.896875 5.80375 18.79375 5.1875 18.6875 C2.61242891 17.87819194 1.51848087 17.23776128 0 15 C0.3125 12.5625 0.3125 12.5625 1 10 C1 6.49064814 0.62457273 3.43515002 0 0 Z " fill="#333434" transform="translate(96,61)"/>
<path d="M0 0 C3 2 3 2 4.375 4.4375 C6.22712462 7.35815805 7.9588583 8.43833264 11 10 C10.67 11.32 10.34 12.64 10 14 C10.66 14 11.32 14 12 14 C12.66 15.32 13.32 16.64 14 18 C14.99 18 15.98 18 17 18 C17.33 17.01 17.66 16.02 18 15 C19.32 15.33 20.64 15.66 22 16 C22 16.99 22 17.98 22 19 C22.99 19.66 23.98 20.32 25 21 C24.34 21.66 23.68 22.32 23 23 C23.66 23.66 24.32 24.32 25 25 C24.8125 28.5 24.8125 28.5 24 32 C23.01 32.66 22.02 33.32 21 34 C21 33.34 21 32.68 21 32 C20.21625 31.855625 19.4325 31.71125 18.625 31.5625 C16 31 16 31 14 30 C14 28.35 14 26.7 14 25 C12.68 24.67 11.36 24.34 10 24 C10 23.01 10 22.02 10 21 C9.34 21 8.68 21 8 21 C7.67 19.02 7.34 17.04 7 15 C6.34 15 5.68 15 5 15 C2 11.53846154 2 11.53846154 2 9 C1.34 9 0.68 9 0 9 C0 8.34 0 7.68 0 7 C-0.66 6.67 -1.32 6.34 -2 6 C-1.34 4.02 -0.68 2.04 0 0 Z " fill="#070908" transform="translate(92,70)"/>
<path d="M0 0 C0.99 0 1.98 0 3 0 C3.28875 0.969375 3.5775 1.93875 3.875 2.9375 C4.64214682 6.10664203 4.64214682 6.10664203 7 7 C7 7.66 7 8.32 7 9 C7.33 9.66 7.66 10.32 8 11 C10.02463255 11.65213292 10.02463255 11.65213292 12 12 C12 11.34 12 10.68 12 10 C13.32 10 14.64 10 16 10 C16 11.32 16 12.64 16 14 C16.99 14.33 17.98 14.66 19 15 C19 16.32 19 17.64 19 19 C18.34 19 17.68 19 17 19 C16.34 20.32 15.68 21.64 15 23 C13.68 21.35 12.36 19.7 11 18 C10.34 18.99 9.68 19.98 9 21 C7.35 19.02 5.7 17.04 4 15 C3.01 15.33 2.02 15.66 1 16 C0.67 13.69 0.34 11.38 0 9 C-0.66 9 -1.32 9 -2 9 C-2 7.35 -2 5.7 -2 4 C-1.34 4 -0.68 4 0 4 C0 2.68 0 1.36 0 0 Z " fill="#101111" transform="translate(71,40)"/>
<path d="M0 0 C0.99 0.33 1.98 0.66 3 1 C2.01 1.33 1.02 1.66 0 2 C0.33 4.64 0.66 7.28 1 10 C1.66 10 2.32 10 3 10 C3.33 11.65 3.66 13.3 4 15 C5.32 15 6.64 15 8 15 C9.0625 17.375 9.0625 17.375 10 20 C9.67 20.66 9.34 21.32 9 22 C9.66 22 10.32 22 11 22 C11.33 21.34 11.66 20.68 12 20 C13.1998278 21.42722659 14.3845576 22.86715776 15.5625 24.3125 C16.22378906 25.11300781 16.88507813 25.91351563 17.56640625 26.73828125 C18.03949219 27.48464844 18.51257813 28.23101562 19 29 C18.67 29.99 18.34 30.98 18 32 C18.680625 32.5259375 18.680625 32.5259375 19.375 33.0625 C21.64661334 35.77096206 22.16798854 38.60795328 23 42 C12.61180982 32.3212472 1.03835298 17.84564723 -1.96875 3.8125 C-1.98421875 2.9153125 -1.98421875 2.9153125 -2 2 C-1.34 1.34 -0.68 0.68 0 0 Z " fill="#AEAEAE" transform="translate(63,34)"/>
<path d="M0 0 C3.66096535 3.45176733 6.67848914 7.28363952 9.75 11.25 C10.25660156 11.8996875 10.76320313 12.549375 11.28515625 13.21875 C12.52586899 14.81060785 13.76327058 16.4050455 15 18 C14.67 18.66 14.34 19.32 14 20 C12.68 19.34 11.36 18.68 10 18 C10.33 18.99 10.66 19.98 11 21 C6.2885318 19.91273811 2.8189978 19.11103846 0 15 C0.25 12.5 0.25 12.5 1 10 C1 6.49064814 0.62457273 3.43515002 0 0 Z " fill="#303032" transform="translate(96,61)"/>
<path d="M0 0 C0.33 1.32 0.66 2.64 1 4 C0.34 4 -0.32 4 -1 4 C-1 4.66 -1 5.32 -1 6 C1.64 5.67 4.28 5.34 7 5 C6.0919838 6.13199353 5.17316174 7.25532363 4.25 8.375 C3.73953125 9.00148437 3.2290625 9.62796875 2.703125 10.2734375 C0.91800519 12.08312318 -0.67949644 13.00117455 -3 14 C-2.34 12.35 -1.68 10.7 -1 9 C-1.99 9 -2.98 9 -4 9 C-4.33 10.32 -4.66 11.64 -5 13 C-6.65 13.33 -8.3 13.66 -10 14 C-9.67 14.66 -9.34 15.32 -9 16 C-8.01 16 -7.02 16 -6 16 C-5.67 17.65 -5.34 19.3 -5 21 C-6.32 21.33 -7.64 21.66 -9 22 C-9.33 20.68 -9.66 19.36 -10 18 C-11.65 18.33 -13.3 18.66 -15 19 C-10.2318928 12.47423759 -5.1505761 6.22647422 0 0 Z " fill="#525253" transform="translate(86,134)"/>
<path d="M0 0 C4.875 2.875 4.875 2.875 6 4 C6.4375 6.3125 6.4375 6.3125 6 9 C3.1875 11.0625 3.1875 11.0625 0 13 C-0.495 13.70125 -0.99 14.4025 -1.5 15.125 C-3.60381845 17.75477307 -5.80602782 18.13496587 -9 19 C-9.99 19.33 -10.98 19.66 -12 20 C-12 19.01 -12 18.02 -12 17 C-11.01 17 -10.02 17 -9 17 C-9 16.01 -9 15.02 -9 14 C-8.01 13.34 -7.02 12.68 -6 12 C-6 11.01 -6 10.02 -6 9 C-4.68 8.67 -3.36 8.34 -2 8 C-2 7.34 -2 6.68 -2 6 C-0.68 5.67 0.64 5.34 2 5 C1.34 3.35 0.68 1.7 0 0 Z " fill="#666768" transform="translate(128,102)"/>
<path d="M0 0 C1.32 0.33 2.64 0.66 4 1 C4 1.99 4 2.98 4 4 C4.66 4 5.32 4 6 4 C6.33 5.65 6.66 7.3 7 9 C7.99 9 8.98 9 10 9 C10.33 9.66 10.66 10.32 11 11 C11.99 11.33 12.98 11.66 14 12 C14 13.65 14 15.3 14 17 C15.134375 17.268125 16.26875 17.53625 17.4375 17.8125 C18.613125 18.204375 19.78875 18.59625 21 19 C21.33 19.99 21.66 20.98 22 22 C21.34 22 20.68 22 20 22 C19.67 23.98 19.34 25.96 19 28 C18.74347656 27.45472656 18.48695312 26.90945312 18.22265625 26.34765625 C16.26414982 22.58707361 13.87424429 19.10669031 11.55859375 15.55859375 C10 13 10 13 9 10 C8.01 10 7.02 10 6 10 C4.39453125 8.3203125 4.39453125 8.3203125 2.8125 6.125 C2.01779297 5.04605469 2.01779297 5.04605469 1.20703125 3.9453125 C0 2 0 2 0 0 Z " fill="#6F6F70" transform="translate(92,83)"/>
<path d="M0 0 C2.96175123 0.61277612 4.38058783 1.25372522 7 3 C7 3.99 7 4.98 7 6 C6.01 6 5.02 6 4 6 C3.67 7.32 3.34 8.64 3 10 C1.68 9.67 0.36 9.34 -1 9 C-1.33 7.68 -1.66 6.36 -2 5 C-2.66 5 -3.32 5 -4 5 C-3.34 3.68 -2.68 2.36 -2 1 C-1.34 1.33 -0.68 1.66 0 2 C0 1.34 0 0.68 0 0 Z " fill="#1D1E1F" transform="translate(106,79)"/>
<path d="M0 0 C5.17226615 4.6873662 8.98925493 10.31728181 13 16 C11.68 16.33 10.36 16.66 9 17 C9 17.99 9 18.98 9 20 C7.68 19.67 6.36 19.34 5 19 C5 17.68 5 16.36 5 15 C5.66 15 6.32 15 7 15 C6.65213292 13.02463255 6.65213292 13.02463255 6 11 C5.34 10.67 4.68 10.34 4 10 C4 8.68 4 7.36 4 6 C2.68 6 1.36 6 0 6 C0 6.66 0 7.32 0 8 C-0.66 8 -1.32 8 -2 8 C-1.34 5.36 -0.68 2.72 0 0 Z " fill="#666768" transform="translate(83,44)"/>
<path d="M0 0 C1 1 2 2 3 3 C3.804375 3.6496875 3.804375 3.6496875 4.625 4.3125 C6.57157434 6.7014776 6.66586019 8.99274169 7 12 C4.69 12 2.38 12 0 12 C-0.28875 11.360625 -0.5775 10.72125 -0.875 10.0625 C-1.82823451 7.84793921 -1.82823451 7.84793921 -4 7 C-4 5.02 -4 3.04 -4 1 C-3.67 1 -3.34 1 -3 1 C-3 2.65 -3 4.3 -3 6 C-2.01 6 -1.02 6 0 6 C-0.33 5.01 -0.66 4.02 -1 3 C-0.67 2.01 -0.34 1.02 0 0 Z " fill="#252527" transform="translate(91,57)"/>
<path d="M0 0 C1.66666667 1.66666667 3.33333333 3.33333333 5 5 C5.61875 5.474375 6.2375 5.94875 6.875 6.4375 C8 8 8 8 7.6875 11.1875 C7.460625 12.115625 7.23375 13.04375 7 14 C7.66 14 8.32 14 9 14 C9.33 15.65 9.66 17.3 10 19 C6.32770991 15.62546316 3.91051157 12.62544907 2 8 C2 7.01 2 6.02 2 5 C1.01 4.67 0.02 4.34 -1 4 C-1.33 3.01 -1.66 2.02 -2 1 C-1.34 0.67 -0.68 0.34 0 0 Z " fill="#444546" transform="translate(82,64)"/>
<path d="M0 0 C0.33 0.99 0.66 1.98 1 3 C0.34 3 -0.32 3 -1 3 C-0.67 4.32 -0.34 5.64 0 7 C-1.65 7 -3.3 7 -5 7 C-5.33 9.31 -5.66 11.62 -6 14 C-7.32 14 -8.64 14 -10 14 C-10.99 15.485 -10.99 15.485 -12 17 C-12.66 16.67 -13.32 16.34 -14 16 C-14 15.34 -14 14.68 -14 14 C-12.34211215 12.65576661 -10.67423683 11.32381517 -9 10 C-8.443125 9.2575 -7.88625 8.515 -7.3125 7.75 C-6.879375 7.1725 -6.44625 6.595 -6 6 C-5.34 6 -4.68 6 -4 6 C-3.566875 5.071875 -3.566875 5.071875 -3.125 4.125 C-2 2 -2 2 0 0 Z " fill="#141415" transform="translate(110,122)"/>
<path d="M0 0 C1.32 0.33 2.64 0.66 4 1 C4.12375 1.639375 4.2475 2.27875 4.375 2.9375 C4.58125 3.618125 4.7875 4.29875 5 5 C5.66 5.33 6.32 5.66 7 6 C5.35 6.33 3.7 6.66 2 7 C2 7.66 2 8.32 2 9 C1.01 9.33 0.02 9.66 -1 10 C-1 8.68 -1 7.36 -1 6 C-2.65 5.67 -4.3 5.34 -6 5 C-5.38125 4.9175 -4.7625 4.835 -4.125 4.75 C-1.81562433 4.18741541 -1.81562433 4.18741541 -0.75 1.9375 C-0.5025 1.298125 -0.255 0.65875 0 0 Z " fill="#0A0C0B" transform="translate(124,101)"/>
<path d="M0 0 C2.76262553 0.3810518 3.84143894 0.83597132 5.8125 2.875 C6.204375 3.57625 6.59625 4.2775 7 5 C6.67 5.99 6.34 6.98 6 8 C6.45375 8.350625 6.9075 8.70125 7.375 9.0625 C9.64661334 11.77096206 10.16798854 14.60795328 11 18 C5.36067596 12.56208039 1.71307246 7.70882609 0 0 Z " fill="#8B8B8D" transform="translate(75,58)"/>
<path d="M0 0 C1.32 0 2.64 0 4 0 C2.42351454 3.68708075 0.12557062 6.29873145 -2.5625 9.25 C-3.36816406 10.14203125 -4.17382812 11.0340625 -5.00390625 11.953125 C-5.66261719 12.62859375 -6.32132812 13.3040625 -7 14 C-7.33 14 -7.66 14 -8 14 C-7.67 11.69 -7.34 9.38 -7 7 C-5.35 7 -3.7 7 -2 7 C-2.33 6.01 -2.66 5.02 -3 4 C-2.01 4 -1.02 4 0 4 C0 2.68 0 1.36 0 0 Z " fill="#797A7B" transform="translate(112,122)"/>
<path d="M0 0 C0.33 0.66 0.66 1.32 1 2 C0.0625 4.125 0.0625 4.125 -1 6 C-1.66 6 -2.32 6 -3 6 C-3.04125 6.598125 -3.0825 7.19625 -3.125 7.8125 C-4.44976366 11.12440916 -6.83210661 11.60612691 -10 13 C-10.99 13.66 -11.98 14.32 -13 15 C-11.48391249 11.14086816 -9.19933595 9.54492632 -6 7 C-3.91860662 4.73250556 -1.94772308 2.3827815 0 0 Z " fill="#828284" transform="translate(108,112)"/>
<path d="M0 0 C-0.875 6.75 -0.875 6.75 -2 9 C-2.66 9 -3.32 9 -4 9 C-4.33 7.35 -4.66 5.7 -5 4 C-5.66 4 -6.32 4 -7 4 C-6.67 3.01 -6.34 2.02 -6 1 C-4 0 -4 0 0 0 Z " fill="#565659" transform="translate(71,40)"/>
<path d="M0 0 C2.1640625 -0.29296875 2.1640625 -0.29296875 4.625 -0.1875 C5.44226563 -0.16042969 6.25953125 -0.13335937 7.1015625 -0.10546875 C8.04128906 -0.05326172 8.04128906 -0.05326172 9 0 C7.68 0.33 6.36 0.66 5 1 C5 2.32 5 3.64 5 5 C4.01 4.67 3.02 4.34 2 4 C2.66 4 3.32 4 4 4 C3.67 3.34 3.34 2.68 3 2 C2.401875 2.804375 1.80375 3.60875 1.1875 4.4375 C-1 7 -1 7 -4 8 C-4 5 -4 5 -2 3 C-1.34 2.01 -0.68 1.02 0 0 Z " fill="#2A2A2D" transform="translate(107,121)"/>
<path d="M0 0 C3.41158256 1.13719419 4.11854601 2.04342944 6 5 C6 5.66 6 6.32 6 7 C6.66 7 7.32 7 8 7 C8.12375 7.969375 8.2475 8.93875 8.375 9.9375 C8.58125 10.948125 8.7875 11.95875 9 13 C9.66 13.33 10.32 13.66 11 14 C10.01 14 9.02 14 8 14 C7.67 12.35 7.34 10.7 7 9 C6.34 9 5.68 9 5 9 C5 8.01 5 7.02 5 6 C3.68 5.67 2.36 5.34 1 5 C0.67 3.35 0.34 1.7 0 0 Z " fill="#191A1A" transform="translate(91,78)"/>
<path d="M0 0 C2.97 0.495 2.97 0.495 6 1 C6.33 1.99 6.66 2.98 7 4 C4.03 4.66 1.06 5.32 -2 6 C-2 5.34 -2 4.68 -2 4 C-1.34 4 -0.68 4 0 4 C0 2.68 0 1.36 0 0 Z " fill="#141516" transform="translate(87,134)"/>
<path d="M0 0 C3.82946843 1.45255699 5.12050295 3.42895561 7 7 C5.35 6.67 3.7 6.34 2 6 C2.33 7.32 2.66 8.64 3 10 C1.68 9.67 0.36 9.34 -1 9 C-1 7.68 -1 6.36 -1 5 C-0.34 5 0.32 5 1 5 C0.67 3.35 0.34 1.7 0 0 Z " fill="#5D5D5F" transform="translate(89,54)"/>
<path d="M0 0 C2.5 2.3125 2.5 2.3125 5 5 C5 5.99 5 6.98 5 8 C3.68 7.34 2.36 6.68 1 6 C1.33 6.99 1.66 7.98 2 9 C0.0625 8.1875 0.0625 8.1875 -2 7 C-2.33 6.01 -2.66 5.02 -3 4 C-2.01 3.67 -1.02 3.34 0 3 C0 2.01 0 1.02 0 0 Z " fill="#888888" transform="translate(105,73)"/>
<path d="M0 0 C3.27235512 3.15115678 6.2025724 6.42550918 9 10 C9 10.66 9 11.32 9 12 C7.68 11.67 6.36 11.34 5 11 C5 10.01 5 9.02 5 8 C4.01 8 3.02 8 2 8 C1.34 5.36 0.68 2.72 0 0 Z " fill="#7E7E7F" transform="translate(96,61)"/>
<path d="M0 0 C1.32 0.33 2.64 0.66 4 1 C4 1.99 4 2.98 4 4 C4.66 4 5.32 4 6 4 C6.33 5.65 6.66 7.3 7 9 C7.99 9 8.98 9 10 9 C10.33 10.32 10.66 11.64 11 13 C10.34 12.67 9.68 12.34 9 12 C9 11.34 9 10.68 9 10 C8.01 10 7.02 10 6 10 C4.39453125 8.3203125 4.39453125 8.3203125 2.8125 6.125 C2.01779297 5.04605469 2.01779297 5.04605469 1.20703125 3.9453125 C0 2 0 2 0 0 Z " fill="#8A8B8B" transform="translate(92,83)"/>
<path d="M0 0 C1.32 0.33 2.64 0.66 4 1 C2.79618552 3.49361571 1.54571278 5.68143083 0 8 C-0.66 8 -1.32 8 -2 8 C-2.66 8.66 -3.32 9.32 -4 10 C-4.33 8.68 -4.66 7.36 -5 6 C-3.35 5.67 -1.7 5.34 0 5 C0 3.35 0 1.7 0 0 Z " fill="#1B1B1D" transform="translate(81,142)"/>
<path d="M0 0 C1.98 0.495 1.98 0.495 4 1 C4 1.99 4 2.98 4 4 C4.99 4.66 5.98 5.32 7 6 C4.36 6 1.72 6 -1 6 C-0.67 4.02 -0.34 2.04 0 0 Z " fill="#131414" transform="translate(110,85)"/>
<path d="M0 0 C1.32 0.66 2.64 1.32 4 2 C1.69 4.97 -0.62 7.94 -3 11 C-3.33 10.34 -3.66 9.68 -4 9 C-3.34 8.01 -2.68 7.02 -2 6 C-1.29835358 4.01200182 -0.62627128 2.01301483 0 0 Z " fill="#858686" transform="translate(100,135)"/>
<path d="M0 0 C1.32 0 2.64 0 4 0 C4 2.31 4 4.62 4 7 C2.0625 6.1875 2.0625 6.1875 0 5 C-0.33 4.01 -0.66 3.02 -1 2 C-0.67 1.34 -0.34 0.68 0 0 Z " fill="#191A1B" transform="translate(83,50)"/>
<path d="M0 0 C1.32 0.66 2.64 1.32 4 2 C4 4.31 4 6.62 4 9 C3.01 9 2.02 9 1 9 C1 8.34 1 7.68 1 7 C0.01 6.67 -0.98 6.34 -2 6 C-0.68 5.67 0.64 5.34 2 5 C1.34 3.35 0.68 1.7 0 0 Z " fill="#3A3B3B" transform="translate(128,102)"/>
<path d="M0 0 C0.66 0.33 1.32 0.66 2 1 C0.71451591 2.33929505 -0.57858155 3.67128643 -1.875 5 C-2.59429687 5.7425 -3.31359375 6.485 -4.0546875 7.25 C-6 9 -6 9 -8 9 C-7.00217242 5.64367085 -6.38142405 4.26048472 -3.4375 2.25 C-2.2309375 1.63125 -2.2309375 1.63125 -1 1 C-0.67 0.67 -0.34 0.34 0 0 Z " fill="#7E7E7E" transform="translate(91,139)"/>
<path d="M0 0 C0.66 0.33 1.32 0.66 2 1 C2 2.65 2 4.3 2 6 C2.99 6.33 3.98 6.66 5 7 C4.01 7.33 3.02 7.66 2 8 C0.68 6.68 -0.64 5.36 -2 4 C-1.34 2.68 -0.68 1.36 0 0 Z " fill="#232426" transform="translate(98,72)"/>
<path d="M0 0 C1.98 0.66 3.96 1.32 6 2 C4.515 4.475 4.515 4.475 3 7 C1.35 5.35 -0.3 3.7 -2 2 C-1.34 1.34 -0.68 0.68 0 0 Z " fill="#151617" transform="translate(93,68)"/>
<path d="M0 0 C0.99 0 1.98 0 3 0 C4.0625 2.375 4.0625 2.375 5 5 C4.67 5.66 4.34 6.32 4 7 C3.01 6.67 2.02 6.34 1 6 C0.67 4.02 0.34 2.04 0 0 Z " fill="#949496" transform="translate(68,49)"/>
<path d="M0 0 C2.97 0.495 2.97 0.495 6 1 C6 2.32 6 3.64 6 5 C5.01 5.33 4.02 5.66 3 6 C2.67 5.01 2.34 4.02 2 3 C1.34 2.67 0.68 2.34 0 2 C0 1.34 0 0.68 0 0 Z " fill="#2E2E30" transform="translate(117,106)"/>
<path d="M0 0 C0.99 0.33 1.98 0.66 3 1 C0.03839944 4.12613393 -2.09567131 6.04783565 -6 8 C-4.02 5.36 -2.04 2.72 0 0 Z " fill="#080909" transform="translate(105,119)"/>
<path d="M0 0 C2.96175123 0.61277612 4.38058783 1.25372522 7 3 C6.67 3.66 6.34 4.32 6 5 C3.03 4.505 3.03 4.505 0 4 C0 2.68 0 1.36 0 0 Z " fill="#4D4D4E" transform="translate(106,79)"/>
<path d="M0 0 C1.485 0.99 1.485 0.99 3 2 C3 2.66 3 3.32 3 4 C3.66 4 4.32 4 5 4 C4.67 4.99 4.34 5.98 4 7 C2.68 6.34 1.36 5.68 0 5 C0 3.35 0 1.7 0 0 Z " fill="#838383" transform="translate(113,84)"/>
<path d="M0 0 C0.99 0 1.98 0 3 0 C3 0.66 3 1.32 3 2 C2.01 1.67 1.02 1.34 0 1 C0 0.67 0 0.34 0 0 Z " fill="#E8E8E8" transform="translate(20,173)"/>
</svg>
