<?xml version="1.0" encoding="UTF-8"?>
<svg version="1.1" xmlns="http://www.w3.org/2000/svg" width="200" height="202">
<path d="M0 0 C2.3125 -0.25 2.3125 -0.25 5 0 C6 1.33333333 7 2.66666667 8 4 C10.04165799 5.15127976 12.11551239 6.12079487 14.2578125 7.0703125 C16 8 16 8 17 10 C17.039992 11.99960012 17.04346799 14.00047242 17 16 C16.113125 16.391875 15.22625 16.78375 14.3125 17.1875 C9.71513167 19.70304116 6.72341627 23.07815652 3.5 27.125 C1.11918274 29.86293985 -0.76196122 31.42473789 -4 33 C-4.66 33 -5.32 33 -6 33 C-6.268125 33.53625 -6.53625 34.0725 -6.8125 34.625 C-7.4003125 35.800625 -7.4003125 35.800625 -8 37 C-8.59554687 38.41732422 -8.59554687 38.41732422 -9.203125 39.86328125 C-11.31316451 43.5466763 -13.46147619 45.16064918 -16.9375 47.5625 C-20.95654373 50.35640773 -24.31739009 52.85170347 -27 57 C-25.66585644 61.00243069 -23.0115638 62.51173622 -19.75 64.9375 C-13.97187526 69.3358967 -8.58150322 73.98902648 -3.35253906 79.02709961 C-1.09078411 81.18262947 1.01521918 83.00886512 3.72265625 84.5859375 C6.31093383 86.19306697 7.05069649 87.42660714 8.375 90.125 C9.53123977 92.26995228 9.53123977 92.26995228 11 94 C14.59919423 94.89592083 14.59919423 94.89592083 18 95 C20.20651618 98.30977427 20.44592388 99.16505462 20 103 C18.5 106.3125 18.5 106.3125 17 109 C11.91972345 109.20735823 7.75160096 108.88270981 3 107 C1.6542919 105.34330894 0.32270964 103.67511038 -1 102 C-2.81415688 100.39121937 -4.67035642 98.82878921 -6.5625 97.3125 C-7.51253906 96.54550781 -8.46257812 95.77851563 -9.44140625 94.98828125 C-12.0251463 92.9308358 -12.0251463 92.9308358 -15 91 C-15 90.34 -15 89.68 -15 89 C-15.57975586 88.7417041 -16.15951172 88.4834082 -16.75683594 88.21728516 C-19.18444529 86.89990812 -20.8920757 85.4252828 -22.890625 83.5234375 C-23.59960938 82.853125 -24.30859375 82.1828125 -25.0390625 81.4921875 C-25.76867187 80.79351562 -26.49828125 80.09484375 -27.25 79.375 C-28.36761719 78.31539062 -28.36761719 78.31539062 -29.5078125 77.234375 C-31.34255477 75.49372207 -33.173073 73.74884777 -35 72 C-42.0667332 79.01782847 -48.10614397 85.89981319 -53.33203125 94.40234375 C-55.60863101 97.94786796 -58.0894193 100.95404345 -61 104 C-61.66 104 -62.32 104 -63 104 C-63 104.66 -63 105.32 -63 106 C-67.93922667 109.73453723 -73.05035584 112.54620859 -79.25 113.5 C-82 113 -82 113 -83.875 110.8125 C-85.022074 107.94481501 -85.26156512 106.05159307 -85 103 C-84.01 103 -83.02 103 -82 103 C-81.731875 102.154375 -81.46375 101.30875 -81.1875 100.4375 C-79.9521405 96.86145933 -78.523012 93.46139092 -77 90 C-75.68 90.33 -74.36 90.66 -73 91 C-72.32195312 89.98421875 -71.64390625 88.9684375 -70.9453125 87.921875 C-65.06036923 79.18862344 -58.92893632 70.93596177 -52 63 C-56.38161462 53.02804949 -70.43458858 45.12361649 -79.1875 39.0625 C-82 37 -82 37 -84 34 C-85.010625 33.54625 -86.02125 33.0925 -87.0625 32.625 C-90 31 -90 31 -91 28.75 C-91 25.12742854 -90.31277424 22.37570518 -89 19 C-87.23828125 17.24609375 -87.23828125 17.24609375 -85 16 C-82.4921875 16.07421875 -82.4921875 16.07421875 -79.875 16.6875 C-78.57175781 16.97173828 -78.57175781 16.97173828 -77.2421875 17.26171875 C-75 18 -75 18 -73 20 C-72.731875 20.928125 -72.46375 21.85625 -72.1875 22.8125 C-69.67906203 29.54567561 -63.91223598 32.42807498 -58.0546875 36.015625 C-55.85176408 37.44668011 -53.8174347 38.87271137 -51.7578125 40.484375 C-51.22422119 40.90170898 -50.69062988 41.31904297 -50.14086914 41.74902344 C-48.62874916 42.94749254 -47.12852649 44.16092663 -45.62890625 45.375 C-43.17749595 47.26143585 -43.17749595 47.26143585 -40.65234375 46.75 C-40.10707031 46.5025 -39.56179687 46.255 -39 46 C-40.98 45.34 -42.96 44.68 -45 44 C-45.25 41.75 -45.25 41.75 -45 39 C-43.125 36.6875 -43.125 36.6875 -41 35 C-40.34 35 -39.68 35 -39 35 C-39 34.34 -39 33.68 -39 33 C-37.37524088 31.97221677 -35.69548897 31.03136511 -34 30.125 C-28.56347072 27.04796321 -23.55571829 23.62682953 -18.5625 19.875 C-17.55219727 19.12114014 -17.55219727 19.12114014 -16.52148438 18.35205078 C-12.7192887 15.46431925 -9.37223465 12.39017207 -6 9 C-3.1875 7.6875 -3.1875 7.6875 -1 7 C-0.67 4.69 -0.34 2.38 0 0 Z M-34 38 C-34.99 38.66 -35.98 39.32 -37 40 C-36.67 41.32 -36.34 42.64 -36 44 C-34.68 42.35 -33.36 40.7 -32 39 C-32.66 38.67 -33.32 38.34 -34 38 Z " fill="#060708" transform="translate(135,41)"/>
<path d="M0 0 C0.8971875 0.309375 0.8971875 0.309375 1.8125 0.625 C0.47786458 2.08984375 -0.85677083 3.5546875 -2.19140625 5.01953125 C-2.52011719 5.54933594 -2.84882812 6.07914062 -3.1875 6.625 C-1.85335644 10.62743069 0.8009362 12.13673622 4.0625 14.5625 C9.84062474 18.9608967 15.23099678 23.61402648 20.45996094 28.65209961 C22.72171589 30.80762947 24.82771918 32.63386512 27.53515625 34.2109375 C30.12343383 35.81806697 30.86319649 37.05160714 32.1875 39.75 C33.34373977 41.89495228 33.34373977 41.89495228 34.8125 43.625 C38.41169423 44.52092083 38.41169423 44.52092083 41.8125 44.625 C44.01901618 47.93477427 44.25842388 48.79005462 43.8125 52.625 C42.3125 55.9375 42.3125 55.9375 40.8125 58.625 C35.73222345 58.83235823 31.56410096 58.50770981 26.8125 56.625 C25.4667919 54.96830894 24.13520964 53.30011038 22.8125 51.625 C20.99834312 50.01621937 19.14214358 48.45378921 17.25 46.9375 C15.82494141 45.78701172 15.82494141 45.78701172 14.37109375 44.61328125 C11.7873537 42.5558358 11.7873537 42.5558358 8.8125 40.625 C8.8125 39.965 8.8125 39.305 8.8125 38.625 C8.23201904 38.36525391 7.65153809 38.10550781 7.0534668 37.83789062 C4.65054812 36.5373459 2.94418489 35.08912942 0.95703125 33.21875 C0.25255859 32.55746094 -0.45191406 31.89617187 -1.17773438 31.21484375 C-1.90283203 30.52519531 -2.62792969 29.83554688 -3.375 29.125 C-4.11169922 28.43535156 -4.84839844 27.74570313 -5.60742188 27.03515625 C-11.05189052 21.89621897 -11.05189052 21.89621897 -12.1875 19.625 C-9.07551935 21.12336105 -6.1340385 22.82433758 -3.1875 24.625 C-3.8475 22.975 -4.5075 21.325 -5.1875 19.625 C-4.5275 19.625 -3.8675 19.625 -3.1875 19.625 C-3.1875 18.635 -3.1875 17.645 -3.1875 16.625 C-4.8375 16.295 -6.4875 15.965 -8.1875 15.625 C-7.8575 14.305 -7.5275 12.985 -7.1875 11.625 C-6.5275 11.625 -5.8675 11.625 -5.1875 11.625 C-5.373125 11.08875 -5.55875 10.5525 -5.75 10 C-6.3163733 6.92540207 -5.97423962 4.64083522 -5.1875 1.625 C-2.1875 -0.375 -2.1875 -0.375 0 0 Z " fill="#18181C" transform="translate(111.1875,91.375)"/>
<path d="M0 0 C0.86882813 0.18949219 1.73765625 0.37898438 2.6328125 0.57421875 C4.875 1.3125 4.875 1.3125 6.875 3.3125 C7.143125 4.240625 7.41125 5.16875 7.6875 6.125 C10.19659019 12.8599263 15.9653421 15.73812665 21.8203125 19.33203125 C26.17470732 22.15514912 30.19124094 25.35568019 34.24609375 28.58984375 C36.90877477 30.67789082 36.90877477 30.67789082 40.875 30.3125 C40.545 31.3025 40.215 32.2925 39.875 33.3125 C38.885 33.3125 37.895 33.3125 36.875 33.3125 C36.875 34.6325 36.875 35.9525 36.875 37.3125 C32.49640745 36.80727778 30.05848776 34.13422778 26.875 31.3125 C23.39600842 32.70409663 22.39447499 33.94501488 20.875 37.3125 C19.06041103 35.95155827 17.24624309 34.59008839 15.43359375 33.2265625 C13.57769915 31.83818334 11.71478068 30.4591774 9.84765625 29.0859375 C8.80480469 28.31507812 7.76195312 27.54421875 6.6875 26.75 C5.21216797 25.66525391 5.21216797 25.66525391 3.70703125 24.55859375 C0.875 22.3125 0.875 22.3125 -1.78515625 19.62890625 C-4.05071698 17.12274455 -4.05071698 17.12274455 -7.375 15.8125 C-10.125 14.3125 -10.125 14.3125 -11.125 12.0625 C-11.125 8.43992854 -10.43777424 5.68820518 -9.125 2.3125 C-6.00255579 -0.79609745 -4.22173421 -0.98927205 0 0 Z " fill="#101012" transform="translate(55.125,57.6875)"/>
<path d="M0 0 C2.3125 -0.25 2.3125 -0.25 5 0 C6 1.33333333 7 2.66666667 8 4 C10.04165799 5.15127976 12.11551239 6.12079487 14.2578125 7.0703125 C16 8 16 8 17 10 C17.039992 11.99960012 17.04346799 14.00047242 17 16 C16.113125 16.391875 15.22625 16.78375 14.3125 17.1875 C9.71513167 19.70304116 6.72341627 23.07815652 3.5 27.125 C1.11918274 29.86293985 -0.76196122 31.42473789 -4 33 C-4.66 33 -5.32 33 -6 33 C-6.268125 33.53625 -6.53625 34.0725 -6.8125 34.625 C-7.204375 35.40875 -7.59625 36.1925 -8 37 C-8.33 37.928125 -8.66 38.85625 -9 39.8125 C-11.97569378 44.55501195 -16.32993022 47.03849234 -21 50 C-21.495 48.515 -21.495 48.515 -22 47 C-21.01 47 -20.02 47 -19 47 C-19.09539062 46.24074219 -19.19078125 45.48148438 -19.2890625 44.69921875 C-19.39992188 43.70535156 -19.51078125 42.71148437 -19.625 41.6875 C-19.79902344 40.20830078 -19.79902344 40.20830078 -19.9765625 38.69921875 C-20 36 -20 36 -18 33 C-18.66 32.67 -19.32 32.34 -20 32 C-19.67 31.01 -19.34 30.02 -19 29 C-18.01 28.67 -17.02 28.34 -16 28 C-16 28.99 -16 29.98 -16 31 C-15.01 31 -14.02 31 -13 31 C-12.01 27.7 -11.02 24.4 -10 21 C-9.34 21 -8.68 21 -8 21 C-7.67 20.01 -7.34 19.02 -7 18 C-6.34 18 -5.68 18 -5 18 C-5 17.34 -5 16.68 -5 16 C-7.64 17.98 -10.28 19.96 -13 22 C-12.67 20.35 -12.34 18.7 -12 17 C-12.99 17 -13.98 17 -15 17 C-14.51789063 16.67386719 -14.03578125 16.34773438 -13.5390625 16.01171875 C-12.90742187 15.57472656 -12.27578125 15.13773438 -11.625 14.6875 C-10.99851562 14.25824219 -10.37203125 13.82898437 -9.7265625 13.38671875 C-7.73621155 11.93079661 -7.73621155 11.93079661 -6 9 C-3.375 7.8125 -3.375 7.8125 -1 7 C-0.67 4.69 -0.34 2.38 0 0 Z " fill="#1A1A1C" transform="translate(135,41)"/>
<path d="M0 0 C0.99 0.66 1.98 1.32 3 2 C2.57589844 2.47308594 2.15179688 2.94617188 1.71484375 3.43359375 C-4.00326584 9.88060522 -9.39411392 16.47622608 -14.125 23.6875 C-16.53968754 27.36763877 -19.011643 30.76261325 -22 34 C-22.66 34 -23.32 34 -24 34 C-24 34.66 -24 35.32 -24 36 C-28.93922667 39.73453723 -34.05035584 42.54620859 -40.25 43.5 C-43 43 -43 43 -44.875 40.8125 C-46.022074 37.94481501 -46.26156512 36.05159307 -46 33 C-45.01 33 -44.02 33 -43 33 C-42.67 32.34 -42.34 31.68 -42 31 C-42 32.98 -42 34.96 -42 37 C-41.67 36.34 -41.34 35.68 -41 35 C-38.69 35.33 -36.38 35.66 -34 36 C-34 35.34 -34 34.68 -34 34 C-33.01 34 -32.02 34 -31 34 C-30.9175 33.46375 -30.835 32.9275 -30.75 32.375 C-29.73623902 29.1647569 -27.92839451 26.73707608 -26 24 C-26.99 24 -27.98 24 -29 24 C-27.6875 21.0625 -27.6875 21.0625 -26 18 C-25.01 17.67 -24.02 17.34 -23 17 C-20.70207143 14.49316883 -19.16618482 12.45700827 -18 9.25 C-17.67 8.5075 -17.34 7.765 -17 7 C-14.875 6.1875 -14.875 6.1875 -13 6 C-13 5.34 -13 4.68 -13 4 C-11.35 3.67 -9.7 3.34 -8 3 C-8.33 4.32 -8.66 5.64 -9 7 C-8.01 7 -7.02 7 -6 7 C-6 6.34 -6 5.68 -6 5 C-4.68 5 -3.36 5 -2 5 C-2.495 3.515 -2.495 3.515 -3 2 C-2.01 2 -1.02 2 0 2 C0 1.34 0 0.68 0 0 Z " fill="#1C1C22" transform="translate(96,111)"/>
<path d="M0 0 C2 2 2 2 2.1953125 3.9453125 C2.13020833 5.96354167 2.06510417 7.98177083 2 10 C3.32 10 4.64 10 6 10 C5.67 11.32 5.34 12.64 5 14 C4.34 14 3.68 14 3 14 C3.27617533 15.94074861 3.27617533 15.94074861 4 18 C4.99 18.66 5.98 19.32 7 20 C6.34 20.66 5.68 21.32 5 22 C2.375 21.625 2.375 21.625 0 21 C0 21.66 0 22.32 0 23 C-0.61875 23.04125 -1.2375 23.0825 -1.875 23.125 C-2.57625 23.41375 -3.2775 23.7025 -4 24 C-4.69437747 25.99054876 -5.35610218 27.99255385 -6 30 C-8.23165887 33.2932466 -10.67203012 35.78135341 -14 38 C-14 38.99 -14 39.98 -14 41 C-13.01 40.505 -13.01 40.505 -12 40 C-13.81309003 43.77727089 -15.9073259 47.37269822 -18 51 C-18.99 51 -19.98 51 -21 51 C-21 51.66 -21 52.32 -21 53 C-22.8125 53.625 -22.8125 53.625 -25 54 C-25.99 53.34 -26.98 52.68 -28 52 C-28.33 52.99 -28.66 53.98 -29 55 C-31.00578133 48.98265602 -27.52964058 42.51921581 -25 37 C-23.68 37.33 -22.36 37.66 -21 38 C-20.32195313 36.98421875 -19.64390625 35.9684375 -18.9453125 34.921875 C-13.06036923 26.18862344 -6.92893632 17.93596177 0 10 C-1.61382757 6.59787701 -3.58603766 3.89675481 -6 1 C-3.525 1.495 -3.525 1.495 -1 2 C-0.67 1.34 -0.34 0.68 0 0 Z " fill="#131317" transform="translate(83,94)"/>
<path d="M0 0 C6.61931461 0.02712834 11.1715845 0.9338716 16.3046875 5.24609375 C19.60801618 8.66359278 22 12.10935669 22 17 C23.98 17.33 25.96 17.66 28 18 C28 18.99 28 19.98 28 21 C28.66 21 29.32 21 30 21 C30 21.66 30 22.32 30 23 C27.69 22.67 25.38 22.34 23 22 C23.33 22.66 23.66 23.32 24 24 C26.52733235 24.65555119 26.52733235 24.65555119 29 25 C28.67 26.32 28.34 27.64 28 29 C23.07319446 28.88192841 19.92304239 28.74997195 16 25.5625 C14 23 14 23 13 21 C12.071875 20.7834375 12.071875 20.7834375 11.125 20.5625 C8.58219801 19.88940535 7.59309333 19.07102132 6 17 C6 16.01 6 15.02 6 14 C7.32 14 8.64 14 10 14 C9.88693303 12.04105639 9.88693303 12.04105639 9 10 C8.195625 9.690625 7.39125 9.38125 6.5625 9.0625 C4 8 4 8 2.6875 5.375 C2.460625 4.59125 2.23375 3.8075 2 3 C1.34 3 0.68 3 0 3 C0 2.01 0 1.02 0 0 Z " fill="#232228" transform="translate(123,120)"/>
<path d="M0 0 C2.76709744 1.31418977 5.22907796 2.77918443 7.71484375 4.56640625 C8.40126953 5.05173828 9.08769531 5.53707031 9.79492188 6.03710938 C11.22256745 7.05350974 12.64706366 8.0743484 14.06835938 9.09960938 C19.07426474 12.63238368 19.07426474 12.63238368 25 14 C24.67 14.99 24.34 15.98 24 17 C23.01 17 22.02 17 21 17 C21 18.32 21 19.64 21 21 C16.62140745 20.49477778 14.18348776 17.82172778 11 15 C7.52100842 16.39159663 6.51947499 17.63251488 5 21 C3.18687139 19.64015354 1.37407521 18.27988511 -0.4375 16.91796875 C-2.30763608 15.51821751 -4.18342835 14.12601402 -6.0625 12.73828125 C-7.114375 11.95839844 -8.16625 11.17851563 -9.25 10.375 C-10.24515625 9.64023438 -11.2403125 8.90546875 -12.265625 8.1484375 C-14.71196869 6.22631031 -16.89891806 4.29117983 -19 2 C-19 1.67 -19 1.34 -19 1 C-15.95613276 0.91773332 -13.92824652 1.02391783 -11 2 C-10.01 2 -9.02 2 -8 2 C-8.33 3.98 -8.66 5.96 -9 8 C-6.525 8.99 -6.525 8.99 -4 10 C-4 10.66 -4 11.32 -4 12 C-3.01 11.34 -2.02 10.68 -1 10 C-1.66 8.35 -2.32 6.7 -3 5 C-0.69 5.33 1.62 5.66 4 6 C4.33 5.34 4.66 4.68 5 4 C4.360625 3.896875 3.72125 3.79375 3.0625 3.6875 C2.0415625 3.3471875 2.0415625 3.3471875 1 3 C0.67 2.01 0.34 1.02 0 0 Z " fill="#5B5B61" transform="translate(71,74)"/>
<path d="M0 0 C0.66 0.33 1.32 0.66 2 1 C1.525625 1.5775 1.05125 2.155 0.5625 2.75 C-1.11158836 4.86210493 -1.11158836 4.86210493 -1.5 7.1875 C-1.665 7.785625 -1.83 8.38375 -2 9 C-5 10 -5 10 -7 10 C-7.99 11.485 -7.99 11.485 -9 13 C-8.01 13 -7.02 13 -6 13 C-6 13.66 -6 14.32 -6 15 C-6.99 15.66 -7.98 16.32 -9 17 C-9.25030977 19.58380177 -9.25030977 19.58380177 -9 22 C-7.68 21.67 -6.36 21.34 -5 21 C-5 21.66 -5 22.32 -5 23 C-5.66 23 -6.32 23 -7 23 C-7 23.66 -7 24.32 -7 25 C-7.639375 25.12375 -8.27875 25.2475 -8.9375 25.375 C-9.618125 25.58125 -10.29875 25.7875 -11 26 C-11.33 26.66 -11.66 27.32 -12 28 C-12 27.01 -12 26.02 -12 25 C-12.66 25 -13.32 25 -14 25 C-14 25.66 -14 26.32 -14 27 C-19.416562 28.17114854 -22.75751551 27.86399449 -28 26 C-28.25 23.75 -28.25 23.75 -28 21 C-26.125 18.6875 -26.125 18.6875 -24 17 C-23.34 17 -22.68 17 -22 17 C-22 16.34 -22 15.68 -22 15 C-20.25104067 13.88811864 -18.4473878 12.86193546 -16.625 11.875 C-10.56725374 8.45762533 -5.28585731 4.50233421 0 0 Z M-17 20 C-17.99 20.66 -18.98 21.32 -20 22 C-19.67 23.32 -19.34 24.64 -19 26 C-17.68 24.35 -16.36 22.7 -15 21 C-15.66 20.67 -16.32 20.34 -17 20 Z " fill="#646469" transform="translate(118,59)"/>
<path d="M0 0 C2.3125 -0.25 2.3125 -0.25 5 0 C6 1.33333333 7 2.66666667 8 4 C10.5821435 5.5225388 13.26441992 6.7784108 16 8 C16 9.32 16 10.64 16 12 C15.34 12 14.68 12 14 12 C13.67 12.99 13.34 13.98 13 15 C13 13.02 13 11.04 13 9 C11.68 9 10.36 9 9 9 C9 9.66 9 10.32 9 11 C6.69 11 4.38 11 2 11 C1.67 12.65 1.34 14.3 1 16 C0.01 16.33 -0.98 16.66 -2 17 C-2.12375 18.1446875 -2.12375 18.1446875 -2.25 19.3125 C-3.15269355 22.54715191 -4.13593461 23.35099265 -7 25 C-7.66 25 -8.32 25 -9 25 C-9.33 25.99 -9.66 26.98 -10 28 C-10.66 27.67 -11.32 27.34 -12 27 C-11.34 25.02 -10.68 23.04 -10 21 C-9.34 21 -8.68 21 -8 21 C-7.67 20.01 -7.34 19.02 -7 18 C-6.34 18 -5.68 18 -5 18 C-5 17.34 -5 16.68 -5 16 C-7.64 17.98 -10.28 19.96 -13 22 C-12.67 20.35 -12.34 18.7 -12 17 C-12.99 17 -13.98 17 -15 17 C-14.27683594 16.51080078 -14.27683594 16.51080078 -13.5390625 16.01171875 C-12.59160156 15.35623047 -12.59160156 15.35623047 -11.625 14.6875 C-10.99851562 14.25824219 -10.37203125 13.82898437 -9.7265625 13.38671875 C-7.73621155 11.93079661 -7.73621155 11.93079661 -6 9 C-3.375 7.8125 -3.375 7.8125 -1 7 C-0.67 4.69 -0.34 2.38 0 0 Z " fill="#1C1C21" transform="translate(135,41)"/>
<path d="M0 0 C0.99 0.66 1.98 1.32 3 2 C2.57589844 2.47308594 2.15179688 2.94617188 1.71484375 3.43359375 C-4.64327412 10.60219697 -10.483553 17.97141173 -15.640625 26.0546875 C-16.9494126 27.92760768 -18.33475986 29.44251069 -20 31 C-19.67 29.02 -19.34 27.04 -19 25 C-18.01 25 -17.02 25 -16 25 C-16 23.02 -16 21.04 -16 19 C-15.34 19 -14.68 19 -14 19 C-13.71125 18.0925 -13.4225 17.185 -13.125 16.25 C-12.23468224 13.67797092 -11.28505587 11.38653234 -10 9 C-11.84322385 10.84322385 -13.37977409 12.96165128 -15 15 C-15.66 14.67 -16.32 14.34 -17 14 C-18.65 15.65 -20.3 17.3 -22 19 C-22.33 18.34 -22.66 17.68 -23 17 C-22.38125 16.278125 -21.7625 15.55625 -21.125 14.8125 C-18.90677613 12.16301554 -18.90677613 12.16301554 -18 9.25 C-17.505 8.13625 -17.505 8.13625 -17 7 C-14.875 6.1875 -14.875 6.1875 -13 6 C-13 5.34 -13 4.68 -13 4 C-11.35 3.67 -9.7 3.34 -8 3 C-8.33 4.32 -8.66 5.64 -9 7 C-8.01 7 -7.02 7 -6 7 C-6 6.34 -6 5.68 -6 5 C-4.68 5 -3.36 5 -2 5 C-2.33 4.01 -2.66 3.02 -3 2 C-2.01 2 -1.02 2 0 2 C0 1.34 0 0.68 0 0 Z " fill="#393943" transform="translate(96,111)"/>
<path d="M0 0 C0.1875 2.375 0.1875 2.375 0 5 C-0.99 5.66 -1.98 6.32 -3 7 C-3.12375 7.825 -3.2475 8.65 -3.375 9.5 C-3.684375 10.7375 -3.684375 10.7375 -4 12 C-6.5625 13.3125 -6.5625 13.3125 -9 14 C-9 14.99 -9 15.98 -9 17 C-9.7425 17.391875 -10.485 17.78375 -11.25 18.1875 C-15.79922148 21.18585052 -17.31972631 25.95917893 -19 31 C-17.68 30.67 -16.36 30.34 -15 30 C-15.33 30.99 -15.66 31.98 -16 33 C-16.99 33 -17.98 33 -19 33 C-19.33 33.99 -19.66 34.98 -20 36 C-21.32 35.67 -22.64 35.34 -24 35 C-24 34.34 -24 33.68 -24 33 C-24.66 33 -25.32 33 -26 33 C-26 33.66 -26 34.32 -26 35 C-26.66 35 -27.32 35 -28 35 C-27.52269162 33.5410574 -27.04308958 32.08286504 -26.5625 30.625 C-26.29566406 29.81289062 -26.02882812 29.00078125 -25.75390625 28.1640625 C-25 26 -25 26 -24 24 C-22.68 24.33 -21.36 24.66 -20 25 C-19.29875 23.94941406 -18.5975 22.89882812 -17.875 21.81640625 C-3.18009208 0 -3.18009208 0 0 0 Z " fill="#4D4D54" transform="translate(82,107)"/>
<path d="M0 0 C0 0.99 0 1.98 0 3 C0.33 3.33 0.66 3.66 1 4 C1.61875 3.34 2.2375 2.68 2.875 2 C5 0 5 0 7 0 C7.33 0.99 7.66 1.98 8 3 C7.01 3 6.02 3 5 3 C4.67 3.66 4.34 4.32 4 5 C3.34 5 2.68 5 2 5 C1.67 7.64 1.34 10.28 1 13 C0.34 13 -0.32 13 -1 13 C-1 13.66 -1 14.32 -1 15 C-1.99 15 -2.98 15 -4 15 C-4.33 14.34 -4.66 13.68 -5 13 C-5.66 13 -6.32 13 -7 13 C-6.731875 13.886875 -6.46375 14.77375 -6.1875 15.6875 C-6 19 -6 19 -8.25 21.875 C-11 24 -11 24 -14 24 C-14.33 22.35 -14.66 20.7 -15 19 C-13.68 18.34 -12.36 17.68 -11 17 C-11 16.34 -11 15.68 -11 15 C-11.99 15 -12.98 15 -14 15 C-13.34 13.68 -12.68 12.36 -12 11 C-10.33333333 11 -8.66666667 11 -7 11 C-6.95875 10.113125 -6.9175 9.22625 -6.875 8.3125 C-5.67871446 3.78370473 -3.73728113 2.70356508 0 0 Z " fill="#19191E" transform="translate(123,57)"/>
<path d="M0 0 C3.04386724 -0.08226668 5.07175348 0.02391783 8 1 C8.99 1 9.98 1 11 1 C10.67 2.98 10.34 4.96 10 7 C12.475 7.99 12.475 7.99 15 9 C15 9.66 15 10.32 15 11 C17.64 10.01 20.28 9.02 23 8 C23 8.66 23 9.32 23 10 C24.32 10.66 25.64 11.32 27 12 C26.34 14.64 25.68 17.28 25 20 C19.82153144 16.95384202 15.01096071 13.58987245 10.25 9.9375 C9.69546143 9.5142041 9.14092285 9.0909082 8.56958008 8.65478516 C5.50558303 6.28077748 2.6229897 3.85854946 0 1 C0 0.67 0 0.34 0 0 Z " fill="#18181C" transform="translate(52,75)"/>
<path d="M0 0 C1 3 1 3 0.22265625 5.04296875 C-0.35162109 6.10451172 -0.35162109 6.10451172 -0.9375 7.1875 C-1.31777344 7.90292969 -1.69804688 8.61835938 -2.08984375 9.35546875 C-2.39019531 9.89816406 -2.69054687 10.44085938 -3 11 C-2.01 10.67 -1.02 10.34 0 10 C-1.81309003 13.77727089 -3.9073259 17.37269822 -6 21 C-6.99 21 -7.98 21 -9 21 C-9 21.66 -9 22.32 -9 23 C-10.8125 23.625 -10.8125 23.625 -13 24 C-13.99 23.34 -14.98 22.68 -16 22 C-16.33 22.99 -16.66 23.98 -17 25 C-18.04449911 21.86650268 -17.93423645 21.01031744 -17 18 C-16.34 18 -15.68 18 -15 18 C-15 17.34 -15 16.68 -15 16 C-14.34 16 -13.68 16 -13 16 C-13 16.66 -13 17.32 -13 18 C-11.68 18 -10.36 18 -9 18 C-8.67 17.34 -8.34 16.68 -8 16 C-7.01 16 -6.02 16 -5 16 C-5.33 15.34 -5.66 14.68 -6 14 C-6.66 14 -7.32 14 -8 14 C-7.03239288 9.1619644 -5.56160907 4.38313946 -1.8125 1.0625 C-1.214375 0.711875 -0.61625 0.36125 0 0 Z " fill="#0A0A0C" transform="translate(71,124)"/>
<path d="M0 0 C2.3125 -0.25 2.3125 -0.25 5 0 C6 1.33333333 7 2.66666667 8 4 C10.5821435 5.5225388 13.26441992 6.7784108 16 8 C16 9.32 16 10.64 16 12 C15.34 12 14.68 12 14 12 C13.67 12.99 13.34 13.98 13 15 C13 13.02 13 11.04 13 9 C11.68 9 10.36 9 9 9 C9 9.66 9 10.32 9 11 C5.7 11 2.4 11 -1 11 C-1.125 2.25 -1.125 2.25 0 0 Z " fill="#0F0F11" transform="translate(135,41)"/>
<path d="M0 0 C1.32 0 2.64 0 4 0 C4 0.66 4 1.32 4 2 C4.99 2 5.98 2 7 2 C7.45375 2.804375 7.9075 3.60875 8.375 4.4375 C8.91125 5.283125 9.4475 6.12875 10 7 C11.2684375 7.2475 11.2684375 7.2475 12.5625 7.5 C13.7690625 7.7475 13.7690625 7.7475 15 8 C16.125 10.4375 16.125 10.4375 17 13 C20.03525486 15.02350324 21.19426202 15.32124018 24.6875 15.625 C25.49574219 15.69976562 26.30398437 15.77453125 27.13671875 15.8515625 C27.75160156 15.90054688 28.36648437 15.94953125 29 16 C29.33 15.01 29.66 14.02 30 13 C28.35 13 26.7 13 25 13 C24.67 12.01 24.34 11.02 24 10 C26.31 10.33 28.62 10.66 31 11 C31 10.34 31 9.68 31 9 C30.34 9 29.68 9 29 9 C29 8.01 29 7.02 29 6 C26.03 5.505 26.03 5.505 23 5 C23.33 4.34 23.66 3.68 24 3 C27.375 3.3125 27.375 3.3125 31 4 C33.20651618 7.30977427 33.44592388 8.16505462 33 12 C31.5 15.3125 31.5 15.3125 30 18 C24.91972345 18.20735823 20.75160096 17.88270981 16 16 C14.65770701 14.34054073 13.32567683 12.67276313 12 11 C10.14121189 9.39360745 8.24365629 7.83112624 6.3125 6.3125 C1.10382514 2.20765027 1.10382514 2.20765027 0 0 Z " fill="#74747E" transform="translate(122,132)"/>
<path d="M0 0 C0.8971875 0.309375 0.8971875 0.309375 1.8125 0.625 C0.47786458 2.08984375 -0.85677083 3.5546875 -2.19140625 5.01953125 C-2.52011719 5.54933594 -2.84882812 6.07914062 -3.1875 6.625 C-1.92723202 10.40580393 -0.25203466 11.39795425 2.875 13.8125 C3.79410156 14.52792969 4.71320313 15.24335937 5.66015625 15.98046875 C6.37042969 16.52316406 7.08070312 17.06585938 7.8125 17.625 C5.73696352 18.1784764 3.96884036 18.625 1.8125 18.625 C1.4825 19.285 1.1525 19.945 0.8125 20.625 C0.255625 20.17125 -0.30125 19.7175 -0.875 19.25 C-3.24063439 17.58766232 -5.47765658 16.60355457 -8.1875 15.625 C-7.8575 14.305 -7.5275 12.985 -7.1875 11.625 C-6.5275 11.625 -5.8675 11.625 -5.1875 11.625 C-5.373125 11.08875 -5.55875 10.5525 -5.75 10 C-6.3163733 6.92540207 -5.97423962 4.64083522 -5.1875 1.625 C-2.1875 -0.375 -2.1875 -0.375 0 0 Z " fill="#595960" transform="translate(111.1875,91.375)"/>
<path d="M0 0 C0.5534764 2.07553648 1 3.84365964 1 6 C1.33 5.34 1.66 4.68 2 4 C4.475 4.99 4.475 4.99 7 6 C7 6.99 7 7.98 7 9 C8.31618998 8.21448343 9.62785228 7.4213763 10.9375 6.625 C11.66839844 6.18414062 12.39929688 5.74328125 13.15234375 5.2890625 C15.13772272 4.1226016 15.13772272 4.1226016 16 2 C16.66 2 17.32 2 18 2 C18 1.34 18 0.68 18 0 C19.65 0 21.3 0 23 0 C22.01 1.485 22.01 1.485 21 3 C20.34 3 19.68 3 19 3 C19 3.66 19 4.32 19 5 C14.06077333 8.73453723 8.94964416 11.54620859 2.75 12.5 C0 12 0 12 -1.875 9.8125 C-3.022074 6.94481501 -3.26156512 5.05159307 -3 2 C-2.01 2 -1.02 2 0 2 C0 1.34 0 0.68 0 0 Z " fill="#16161A" transform="translate(53,142)"/>
<path d="M0 0 C1.32 0 2.64 0 4 0 C4 0.99 4 1.98 4 3 C4.66 3 5.32 3 6 3 C6 3.66 6 4.32 6 5 C3.69 4.67 1.38 4.34 -1 4 C-0.67 4.66 -0.34 5.32 0 6 C2.52733235 6.65555119 2.52733235 6.65555119 5 7 C4.67 8.32 4.34 9.64 4 11 C-0.94813173 10.88141732 -4.0925643 10.72224474 -8.0625 7.5625 C-10 5 -10 5 -10 3 C-9.34 3 -8.68 3 -8 3 C-7.67 2.34 -7.34 1.68 -7 1 C-6.34 1.66 -5.68 2.32 -5 3 C-4.34 3.33 -3.68 3.66 -3 4 C-3 3.34 -3 2.68 -3 2 C-2.01 2 -1.02 2 0 2 C0 1.34 0 0.68 0 0 Z " fill="#121115" transform="translate(147,138)"/>
<path d="M0 0 C1.32 0 2.64 0 4 0 C4 1.98 4 3.96 4 6 C3.01 6 2.02 6 1 6 C1 6.99 1 7.98 1 9 C0.2575 8.938125 -0.485 8.87625 -1.25 8.8125 C-4.49319223 9.03362674 -5.48507049 10.07188738 -8 12 C-8.99 11.67 -9.98 11.34 -11 11 C-11 8 -11 8 -9.5625 6.5 C-9.046875 6.005 -8.53125 5.51 -8 5 C-7.67 4.01 -7.34 3.02 -7 2 C-2.25 0.875 -2.25 0.875 0 2 C0 1.34 0 0.68 0 0 Z " fill="#080809" transform="translate(144,50)"/>
<path d="M0 0 C2.31 0.66 4.62 1.32 7 2 C6.67 2.66 6.34 3.32 6 4 C10.96920684 5.77759876 10.96920684 5.77759876 16 5 C19.30991772 6.45313461 20.71092221 7.40807882 22.3125 10.6875 C22.6528125 11.8321875 22.6528125 11.8321875 23 13 C20.36 12.67 17.72 12.34 15 12 C15 11.34 15 10.68 15 10 C13.02 10 11.04 10 9 10 C9 9.34 9 8.68 9 8 C8.443125 7.79375 7.88625 7.5875 7.3125 7.375 C4.07498698 5.44999226 2.31768859 2.96149098 0 0 Z " fill="#222129" transform="translate(111,122)"/>
<path d="M0 0 C2.97 0.33 5.94 0.66 9 1 C9.12375 2.423125 9.12375 2.423125 9.25 3.875 C9.65074923 7.10461791 9.65074923 7.10461791 12.0625 8.375 C12.701875 8.58125 13.34125 8.7875 14 9 C13.67 10.32 13.34 11.64 13 13 C11.68 12.67 10.36 12.34 9 12 C9 11.34 9 10.68 9 10 C7.824375 9.6596875 7.824375 9.6596875 6.625 9.3125 C4 8 4 8 2.6875 5.375 C2.460625 4.59125 2.23375 3.8075 2 3 C1.34 3 0.68 3 0 3 C0 2.01 0 1.02 0 0 Z " fill="#111014" transform="translate(123,120)"/>
<path d="M0 0 C3.47775179 1.51553404 5.9557984 3.5773456 8.75 6.125 C9.94882813 7.21167969 9.94882813 7.21167969 11.171875 8.3203125 C11.77515625 8.87460938 12.3784375 9.42890625 13 10 C9.52176885 11.15941038 7.54104422 10.70820884 4 10 C4.33 11.65 4.66 13.3 5 15 C4.01 15.33 3.02 15.66 2 16 C2 14.35 2 12.7 2 11 C1.34 10.67 0.68 10.34 0 10 C-1.27935228 6.74346691 -0.81238222 4.33979359 0 1 C0 0.67 0 0.34 0 0 Z " fill="#46464B" transform="translate(119,110)"/>
<path d="M0 0 C0.99 0.33 1.98 0.66 3 1 C5.14255793 0.61067144 5.14255793 0.61067144 7 0 C6.63386699 2.56293104 5.91843422 4.12574725 4.5 6.3125 C1.06877102 8.62857956 -1.2042053 7.99932173 -5.171875 7.359375 C-5.77515625 7.24078125 -6.3784375 7.1221875 -7 7 C-7.33 6.01 -7.66 5.02 -8 4 C-6.25 2.4375 -6.25 2.4375 -4 1 C-1.75 1.3125 -1.75 1.3125 0 2 C0 1.34 0 0.68 0 0 Z " fill="#0A0A0C" transform="translate(104,84)"/>
<path d="M0 0 C1.75 2 1.75 2 3 4 C2.01 4.495 2.01 4.495 1 5 C0.27840576 6.64363134 -0.39351421 8.31050386 -1 10 C-2.99954746 10.04254356 -5.00041636 10.04080783 -7 10 C-8 9 -8 9 -8.3125 6.6875 C-8 4 -8 4 -6.25 1.6875 C-4 0 -4 0 0 0 Z " fill="#4C4B51" transform="translate(98,76)"/>
<path d="M0 0 C0.66 1.32 1.32 2.64 2 4 C3.32 3.67 4.64 3.34 6 3 C6 3.66 6 4.32 6 5 C5.34 5 4.68 5 4 5 C4 5.66 4 6.32 4 7 C3.360625 7.12375 2.72125 7.2475 2.0625 7.375 C1.381875 7.58125 0.70125 7.7875 0 8 C-0.33 8.66 -0.66 9.32 -1 10 C-1 9.01 -1 8.02 -1 7 C-1.66 7 -2.32 7 -3 7 C-3 7.66 -3 8.32 -3 9 C-5.76264289 9.59732819 -8.16032769 10 -11 10 C-9.92492371 8.70145279 -8.83956264 7.41141639 -7.75 6.125 C-7.14671875 5.40570313 -6.5434375 4.68640625 -5.921875 3.9453125 C-4.02912366 2.02947882 -2.46342273 1.03550955 0 0 Z " fill="#212027" transform="translate(107,77)"/>
<path d="M0 0 C3.20529599 0.75017566 5.50380594 1.62055749 8.125 3.625 C10.15008093 5.39424244 10.15008093 5.39424244 14 5 C13.67 5.99 13.34 6.98 13 8 C12.01 8 11.02 8 10 8 C9.67 9.32 9.34 10.64 9 12 C8.319375 11.278125 7.63875 10.55625 6.9375 9.8125 C3.90785482 6.76544307 0.53782696 4.42792046 -3 2 C-2.01 1.34 -1.02 0.68 0 0 Z " fill="#49494F" transform="translate(82,83)"/>
<path d="M0 0 C0.33 1.32 0.66 2.64 1 4 C0.34 4 -0.32 4 -1 4 C-1.144375 4.61875 -1.28875 5.2375 -1.4375 5.875 C-2 8 -2 8 -3 10 C-3.66 10 -4.32 10 -5 10 C-5.24492188 10.61359375 -5.48984375 11.2271875 -5.7421875 11.859375 C-7.25052285 14.42635567 -8.44256788 15.03857904 -11.125 16.25 C-11.84945312 16.58515625 -12.57390625 16.9203125 -13.3203125 17.265625 C-14.15175781 17.62914062 -14.15175781 17.62914062 -15 18 C-14.67 16.35 -14.34 14.7 -14 13 C-13.34 13 -12.68 13 -12 13 C-12 12.34 -12 11.68 -12 11 C-11.01 11 -10.02 11 -9 11 C-8.67 10.01 -8.34 9.02 -8 8 C-7.34 8.33 -6.68 8.66 -6 9 C-6 8.34 -6 7.68 -6 7 C-5.01 7 -4.02 7 -3 7 C-3 5.68 -3 4.36 -3 3 C-1.5 1.25 -1.5 1.25 0 0 Z " fill="#131217" transform="translate(74,134)"/>
<path d="M0 0 C3.04386724 -0.08226668 5.07175348 0.02391783 8 1 C8.99 1 9.98 1 11 1 C10.67 2.98 10.34 4.96 10 7 C12.475 7.99 12.475 7.99 15 9 C15 9.99 15 10.98 15 12 C11.72245829 10.46436857 8.79458598 8.61075699 5.8125 6.5625 C4.93207031 5.96566406 4.05164062 5.36882812 3.14453125 4.75390625 C1 3 1 3 0 0 Z " fill="#232328" transform="translate(52,75)"/>
<path d="M0 0 C2.0625 0.4375 2.0625 0.4375 4 1 C3.154375 1.928125 2.30875 2.85625 1.4375 3.8125 C-1.95543128 7.74284592 -4.61382797 12.00933422 -7.2890625 16.44921875 C-8.97801384 18.96722154 -10.78771997 20.93745944 -13 23 C-12.67 21.02 -12.34 19.04 -12 17 C-11.01 17 -10.02 17 -9 17 C-9 15.02 -9 13.04 -9 11 C-8.34 11 -7.68 11 -7 11 C-6.896875 10.360625 -6.79375 9.72125 -6.6875 9.0625 C-6.460625 8.381875 -6.23375 7.70125 -6 7 C-5.01 6.67 -4.02 6.34 -3 6 C-1.84478498 3.52869082 -1.84478498 3.52869082 -1 1 C-0.67 0.67 -0.34 0.34 0 0 Z " fill="#9494A1" transform="translate(89,119)"/>
<path d="M0 0 C0.33 0.99 0.66 1.98 1 3 C0.34 3 -0.32 3 -1 3 C-1 4.32 -1 5.64 -1 7 C0.32 7.33 1.64 7.66 3 8 C3 8.99 3 9.98 3 11 C2.34 11 1.68 11 1 11 C1.66 12.65 2.32 14.3 3 16 C-0.72477064 15.35779817 -0.72477064 15.35779817 -2.25 13.375 C-3.88663267 11.79249843 -3.88663267 11.79249843 -5.96484375 12.02734375 C-7.98595585 12.28664284 -9.99466639 12.63838246 -12 13 C-11.34 12.67 -10.68 12.34 -10 12 C-9.67 11.01 -9.34 10.02 -9 9 C-2.125 9.875 -2.125 9.875 -1 11 C-0.67 10.34 -0.34 9.68 0 9 C-1.32 8.67 -2.64 8.34 -4 8 C-3.34 6.02 -2.68 4.04 -2 2 C-1.34 2 -0.68 2 0 2 C0 1.34 0 0.68 0 0 Z " fill="#19181D" transform="translate(105,100)"/>
<path d="M0 0 C2.46800047 1.15173355 4.04783565 2.04783565 6 4 C9.59679066 3.67673447 9.59679066 3.67673447 13 3 C13 3.66 13 4.32 13 5 C14.32 5.33 15.64 5.66 17 6 C16.67 6.99 16.34 7.98 16 9 C15.01 8.67 14.02 8.34 13 8 C12.67 8.99 12.34 9.98 12 11 C8.57472113 9.52651292 6.35044942 7.59092154 3.75 4.9375 C3.04359375 4.22464844 2.3371875 3.51179688 1.609375 2.77734375 C0 1 0 1 0 0 Z " fill="#64646A" transform="translate(99,111)"/>
<path d="M0 0 C0.33 0 0.66 0 1 0 C1.1875 2.375 1.1875 2.375 1 5 C0.01 5.66 -0.98 6.32 -2 7 C-2.144375 7.825 -2.28875 8.65 -2.4375 9.5 C-3 12 -3 12 -4.9375 13.375 C-7 14 -7 14 -9 13 C-8.42993865 9.11645706 -6.61062485 7.10304001 -4 4.25 C-3.278125 3.45078125 -2.55625 2.6515625 -1.8125 1.828125 C-1.214375 1.22484375 -0.61625 0.6215625 0 0 Z " fill="#353539" transform="translate(81,107)"/>
<path d="M0 0 C2.84383123 1.2748209 5.13754018 2.45137078 7 5 C6.6875 7.1875 6.6875 7.1875 6 9 C5.34 8.67 4.68 8.34 4 8 C3.01 8.33 2.02 8.66 1 9 C1 8.34 1 7.68 1 7 C-0.32 7 -1.64 7 -3 7 C-2.25 2.25 -2.25 2.25 0 0 Z " fill="#1C1B21" transform="translate(80,88)"/>
<path d="M0 0 C1.32 0 2.64 0 4 0 C4 0.66 4 1.32 4 2 C4.99 2 5.98 2 7 2 C7.45375 2.804375 7.9075 3.60875 8.375 4.4375 C8.91125 5.283125 9.4475 6.12875 10 7 C11.2684375 7.2475 11.2684375 7.2475 12.5625 7.5 C13.7690625 7.7475 13.7690625 7.7475 15 8 C16.125 10.4375 16.125 10.4375 17 13 C17.99 13.66 18.98 14.32 20 15 C20 15.66 20 16.32 20 17 C18.25 16.8125 18.25 16.8125 16 16 C15.41089844 15.25492188 14.82179687 14.50984375 14.21484375 13.7421875 C11.82802819 10.78708253 9.2943 8.65733338 6.3125 6.3125 C1.10382514 2.20765027 1.10382514 2.20765027 0 0 Z " fill="#9C9CA4" transform="translate(122,132)"/>
<path d="M0 0 C1.65 0 3.3 0 5 0 C4.01 1.485 4.01 1.485 3 3 C2.34 3 1.68 3 1 3 C1 3.66 1 4.32 1 5 C-4.78040091 9.37054703 -10.55354541 12.54486253 -18 12 C-18.33 11.34 -18.66 10.68 -19 10 C-17.2675 9.9071875 -17.2675 9.9071875 -15.5 9.8125 C-10.57564852 9.21560891 -6.84300028 7.07631693 -3 4 C-2.67 3.34 -2.34 2.68 -2 2 C-1.34 2 -0.68 2 0 2 C0 1.34 0 0.68 0 0 Z " fill="#9A9AA8" transform="translate(71,142)"/>
<path d="M0 0 C0.8971875 0.309375 0.8971875 0.309375 1.8125 0.625 C0.9875 1.49125 0.1625 2.3575 -0.6875 3.25 C-2.84615899 5.80390641 -3.1751294 6.49139751 -3.5 10 C-3.396875 10.86625 -3.29375 11.7325 -3.1875 12.625 C-2.1975 12.625 -1.2075 12.625 -0.1875 12.625 C-0.1875 13.945 -0.1875 15.265 -0.1875 16.625 C-3.125 15.8125 -3.125 15.8125 -6.1875 14.625 C-6.5175 13.635 -6.8475 12.645 -7.1875 11.625 C-6.5275 11.625 -5.8675 11.625 -5.1875 11.625 C-5.373125 11.08875 -5.55875 10.5525 -5.75 10 C-6.3163733 6.92540207 -5.97423962 4.64083522 -5.1875 1.625 C-2.1875 -0.375 -2.1875 -0.375 0 0 Z " fill="#1E1D23" transform="translate(111.1875,91.375)"/>
<path d="M0 0 C1.32 0 2.64 0 4 0 C3.33333333 1.33333333 2.66666667 2.66666667 2 4 C1.3503125 5.485 1.3503125 5.485 0.6875 7 C-1.13667177 10.24297204 -2.98052167 11.87820442 -6 14 C-6.66 13.67 -7.32 13.34 -8 13 C-7.875 11.3125 -7.875 11.3125 -7 9 C-4 6.5 -4 6.5 -1 4 C-0.05563651 1.83468832 -0.05563651 1.83468832 0 0 Z " fill="#74747D" transform="translate(125,74)"/>
<path d="M0 0 C7.75 0.75 7.75 0.75 10 3 C11.21894397 6.18279814 12 8.57914854 12 12 C9.21611025 10.29374499 8.14615794 9.52373261 7.25 6.3125 C7.1675 5.549375 7.085 4.78625 7 4 C6.01 3.67 5.02 3.34 4 3 C4.33 4.98 4.66 6.96 5 9 C4.01 8.34 3.02 7.68 2 7 C1.8125 3.875 1.8125 3.875 2 1 C1.34 0.67 0.68 0.34 0 0 Z " fill="#8A8997" transform="translate(52,58)"/>
<path d="M0 0 C2.3125 -0.25 2.3125 -0.25 5 0 C6.0073108 1.32781878 7.00612666 2.66209359 8 4 C10.28109612 5.22512803 12.56826109 6.08236268 15 7 C11.20980534 8.26339822 9.62477616 7.49719015 6 6 C5.67 5.34 5.34 4.68 5 4 C4.01 3.67 3.02 3.34 2 3 C2 4.32 2 5.64 2 7 C1.34 7 0.68 7 0 7 C-1.125 2.25 -1.125 2.25 0 0 Z " fill="#90909E" transform="translate(135,41)"/>
<path d="M0 0 C2 2 2 2 2.23046875 4.09375 C2.20919922 5.28484375 2.20919922 5.28484375 2.1875 6.5 C2.17783203 7.69109375 2.17783203 7.69109375 2.16796875 8.90625 C2 11 2 11 1 13 C0.34 13 -0.32 13 -1 13 C-0.71125 12.319375 -0.4225 11.63875 -0.125 10.9375 C0.02681206 7.36991658 -0.6621405 6.8092257 -2.9375 4.1875 C-3.94440237 3.11178881 -4.96114056 2.04488181 -6 1 C-3.525 1.495 -3.525 1.495 -1 2 C-0.67 1.34 -0.34 0.68 0 0 Z " fill="#75757B" transform="translate(83,94)"/>
<path d="M0 0 C0.66 0 1.32 0 2 0 C2 0.99 2 1.98 2 3 C3.32 3.66 4.64 4.32 6 5 C5.67 6.32 5.34 7.64 5 9 C3.68 8.67 2.36 8.34 1 8 C1 7.34 1 6.68 1 6 C0.01 5.67 -0.98 5.34 -2 5 C-2.6875 2.9375 -2.6875 2.9375 -3 1 C-2.01 1.33 -1.02 1.66 0 2 C0 1.34 0 0.68 0 0 Z " fill="#070709" transform="translate(131,124)"/>
<path d="M0 0 C0.33 0.99 0.66 1.98 1 3 C1.66 3.33 2.32 3.66 3 4 C2.67 5.65 2.34 7.3 2 9 C1.01 9 0.02 9 -1 9 C-1.33 7.68 -1.66 6.36 -2 5 C-3.65 5.33 -5.3 5.66 -7 6 C-5.9024777 3.00675737 -5.32317108 2.15389099 -2.375 0.75 C-1.59125 0.5025 -0.8075 0.255 0 0 Z " fill="#67686F" transform="translate(134,48)"/>
<path d="M0 0 C0.66 0 1.32 0 2 0 C2.33 0.99 2.66 1.98 3 3 C2.01 3 1.02 3 0 3 C-0.33 3.66 -0.66 4.32 -1 5 C-1.66 5 -2.32 5 -3 5 C-3.33 6.98 -3.66 8.96 -4 11 C-5.32 11.33 -6.64 11.66 -8 12 C-7.75 8.625 -7.75 8.625 -7 5 C-5.125 3.75 -5.125 3.75 -3 3 C-2.46375 2.46375 -1.9275 1.9275 -1.375 1.375 C-0.694375 0.694375 -0.694375 0.694375 0 0 Z " fill="#0D0D10" transform="translate(128,57)"/>
<path d="M0 0 C0.33 0 0.66 0 1 0 C1 1.98 1 3.96 1 6 C0.071875 6.433125 -0.85625 6.86625 -1.8125 7.3125 C-4.47184073 8.72038627 -6.08105905 9.76123556 -8 12 C-8 10.68 -8 9.36 -8 8 C-7.34 8 -6.68 8 -6 8 C-6 7.01 -6 6.02 -6 5 C-4.68 5 -3.36 5 -2 5 C-2 4.01 -2 3.02 -2 2 C-1.34 2 -0.68 2 0 2 C0 1.34 0 0.68 0 0 Z " fill="#76767C" transform="translate(151,51)"/>
<path d="M0 0 C0.99 0.33 1.98 0.66 3 1 C0.83735988 4.98381075 -1.71211176 7.88983545 -5 11 C-4.74445946 9.53890937 -4.46999628 8.08111904 -4.1875 6.625 C-4.03667969 5.81289062 -3.88585937 5.00078125 -3.73046875 4.1640625 C-3 2 -3 2 0 0 Z " fill="#151419" transform="translate(76,119)"/>
<path d="M0 0 C0.33 0.66 0.66 1.32 1 2 C1.66 2 2.32 2 3 2 C2.67 3.32 2.34 4.64 2 6 C1.360625 6.103125 0.72125 6.20625 0.0625 6.3125 C-0.618125 6.539375 -1.29875 6.76625 -2 7 C-2.33 7.99 -2.66 8.98 -3 10 C-3.66 9.67 -4.32 9.34 -5 9 C-4.34 7.02 -3.68 5.04 -3 3 C-2.34 3 -1.68 3 -1 3 C-0.67 2.01 -0.34 1.02 0 0 Z " fill="#616167" transform="translate(128,59)"/>
<path d="M0 0 C2.31 0 4.62 0 7 0 C6.01 1.485 6.01 1.485 5 3 C4.34 3 3.68 3 3 3 C2.9175 3.94875 2.835 4.8975 2.75 5.875 C2 9 2 9 -0.0625 10.375 C-0.701875 10.58125 -1.34125 10.7875 -2 11 C-2 10.01 -2 9.02 -2 8 C-1.01 8 -0.02 8 1 8 C0.67 5.36 0.34 2.72 0 0 Z " fill="#313137" transform="translate(115,80)"/>
<path d="M0 0 C0.66 0.33 1.32 0.66 2 1 C1.01 2.485 1.01 2.485 0 4 C-0.99 4 -1.98 4 -3 4 C-3 7.63 -3 11.26 -3 15 C-3.66 15 -4.32 15 -5 15 C-6.37073666 10.47656903 -5.69945149 7.37001812 -4 3 C-1.875 1.0625 -1.875 1.0625 0 0 Z " fill="#9F9FA6" transform="translate(50,57)"/>
<path d="M0 0 C0.33 0.66 0.66 1.32 1 2 C2.32 2 3.64 2 5 2 C3.71919608 4.56160784 2.5434419 4.76461393 0 6 C-1.35113205 6.97581759 -2.68946944 7.97029741 -4 9 C-3.67 7.35 -3.34 5.7 -3 4 C-3.99 4 -4.98 4 -6 4 C-4.02 2.68 -2.04 1.36 0 0 Z " fill="#424246" transform="translate(126,54)"/>
<path d="M0 0 C0.99 0.66 1.98 1.32 3 2 C1.72920407 5.8123878 0.39322116 6.027197 -3 8 C-4.36984198 9.29579647 -5.7151049 10.61992749 -7 12 C-5.44298069 7.32894208 -2.91552627 3.91294315 0 0 Z " fill="#636267" transform="translate(71,119)"/>
<path d="M0 0 C2.15229884 3.22844826 2.60309873 5.18974777 3 9 C2.67 9.99 2.34 10.98 2 12 C2.99 12 3.98 12 5 12 C4.67 12.66 4.34 13.32 4 14 C2.0625 13.375 2.0625 13.375 0 12 C-1.25564319 7.75013074 -0.91996675 4.29317818 0 0 Z " fill="#39393E" transform="translate(47,61)"/>
<path d="M0 0 C1.32 0 2.64 0 4 0 C4 0.99 4 1.98 4 3 C4.66 3 5.32 3 6 3 C6 3.66 6 4.32 6 5 C3.69 4.67 1.38 4.34 -1 4 C-1.33 4.66 -1.66 5.32 -2 6 C-2 4.68 -2 3.36 -2 2 C-1.34 2 -0.68 2 0 2 C0 1.34 0 0.68 0 0 Z " fill="#1A1A20" transform="translate(147,138)"/>
<path d="M0 0 C2.31 0 4.62 0 7 0 C7.12375 0.639375 7.2475 1.27875 7.375 1.9375 C7.684375 2.9584375 7.684375 2.9584375 8 4 C8.66 4.33 9.32 4.66 10 5 C9.67 5.99 9.34 6.98 9 8 C7.68388323 7.04663979 6.37221039 6.08714226 5.0625 5.125 C4.33160156 4.59132813 3.60070312 4.05765625 2.84765625 3.5078125 C1 2 1 2 0 0 Z " fill="#909097" transform="translate(67,87)"/>
<path d="M0 0 C0.66 0.33 1.32 0.66 2 1 C1.67 2.98 1.34 4.96 1 7 C-1.76264289 7.59732819 -4.16032769 8 -7 8 C-4.69 5.36 -2.38 2.72 0 0 Z " fill="#71707B" transform="translate(103,79)"/>
<path d="M0 0 C0.66 0.33 1.32 0.66 2 1 C1.67 2.65 1.34 4.3 1 6 C-0.98 6 -2.96 6 -5 6 C-4.67 4.68 -4.34 3.36 -4 2 C-3.01 2 -2.02 2 -1 2 C-0.67 1.34 -0.34 0.68 0 0 Z " fill="#2F2E39" transform="translate(75,127)"/>
<path d="M0 0 C0.99 0 1.98 0 3 0 C3 0.66 3 1.32 3 2 C3.66 2.33 4.32 2.66 5 3 C1.04 4.98 1.04 4.98 -3 7 C-2.67 5.35 -2.34 3.7 -2 2 C-1.34 2 -0.68 2 0 2 C0 1.34 0 0.68 0 0 Z " fill="#26262F" transform="translate(62,145)"/>
<path d="M0 0 C0.598125 0.20625 1.19625 0.4125 1.8125 0.625 C0.54296875 2.12239583 -0.7265625 3.61979167 -1.99609375 5.1171875 C-3.2753152 6.63094079 -3.2753152 6.63094079 -4.1875 8.625 C-4.8475 8.295 -5.5075 7.965 -6.1875 7.625 C-5.875 4.75 -5.875 4.75 -5.1875 1.625 C-2.1875 -0.375 -2.1875 -0.375 0 0 Z " fill="#65656B" transform="translate(111.1875,91.375)"/>
<path d="M0 0 C2.84383123 1.2748209 5.13754018 2.45137078 7 5 C6.6875 7.1875 6.6875 7.1875 6 9 C5.34 8.67 4.68 8.34 4 8 C4 7.01 4 6.02 4 5 C2.68 4.34 1.36 3.68 0 3 C0 2.01 0 1.02 0 0 Z " fill="#131316" transform="translate(80,88)"/>
<path d="M0 0 C0.66 0.33 1.32 0.66 2 1 C0.35 4.3 -1.3 7.6 -3 11 C-3.99 10.67 -4.98 10.34 -6 10 C-6.33 9.01 -6.66 8.02 -7 7 C-6.401875 6.773125 -5.80375 6.54625 -5.1875 6.3125 C-2.43648112 4.66188867 -1.47515363 2.8027919 0 0 Z " fill="#141318" transform="translate(85,119)"/>
<path d="M0 0 C4.60139641 1.48868707 7.50227094 3.74629855 11 7 C11 7.66 11 8.32 11 9 C8.03469503 7.64199529 5.70868729 6.07571737 3.25 3.9375 C2.63640625 3.41027344 2.0228125 2.88304688 1.390625 2.33984375 C0.93171875 1.89769531 0.4728125 1.45554687 0 1 C0 0.67 0 0.34 0 0 Z " fill="#AFAFB6" transform="translate(80,86)"/>
<path d="M0 0 C2.375 -0.1875 2.375 -0.1875 5 0 C7 3 7 3 7 5 C7.33 5.66 7.66 6.32 8 7 C4.63718422 5.55879324 2.4480582 3.71035015 0 1 C0 0.67 0 0.34 0 0 Z " fill="#7A7A80" transform="translate(52,75)"/>
<path d="M0 0 C1.32 0.33 2.64 0.66 4 1 C4.625 2.875 4.625 2.875 5 5 C4.34 5.66 3.68 6.32 3 7 C2.01 6.67 1.02 6.34 0 6 C0 4.02 0 2.04 0 0 Z " fill="#24232B" transform="translate(56,61)"/>
<path d="M0 0 C-0.33 1.32 -0.66 2.64 -1 4 C-3.97 3.67 -6.94 3.34 -10 3 C-10 2.67 -10 2.34 -10 2 C-6.38026598 0.68373308 -3.90432869 0 0 0 Z " fill="#1D1C22" transform="translate(152,145)"/>
<path d="M0 0 C4.455 2.97 4.455 2.97 9 6 C8.67 6.66 8.34 7.32 8 8 C5.69 7.34 3.38 6.68 1 6 C0.67 4.02 0.34 2.04 0 0 Z " fill="#7D7C83" transform="translate(132,121)"/>
<path d="M0 0 C0 0.99 0 1.98 0 3 C-0.66 3 -1.32 3 -2 3 C-2 4.32 -2 5.64 -2 7 C-2.99 7 -3.98 7 -5 7 C-5 7.66 -5 8.32 -5 9 C-5.66 9 -6.32 9 -7 9 C-5.64978174 4.58110387 -3.73884332 2.65654657 0 0 Z " fill="#2D2C38" transform="translate(73,134)"/>
<path d="M0 0 C2.31 0.66 4.62 1.32 7 2 C7 2.99 7 3.98 7 5 C7.99 6.485 7.99 6.485 9 8 C4.7257442 6.4169423 2.73468206 3.49431596 0 0 Z " fill="#99999F" transform="translate(111,122)"/>
<path d="M0 0 C0 1.65 0 3.3 0 5 C-0.639375 5.12375 -1.27875 5.2475 -1.9375 5.375 C-2.9584375 5.684375 -2.9584375 5.684375 -4 6 C-4.33 6.66 -4.66 7.32 -5 8 C-5.66 8 -6.32 8 -7 8 C-5.84316054 5.30070793 -3.38550714 0 0 0 Z " fill="#6E6E75" transform="translate(82,107)"/>
<path d="M0 0 C1.32 0 2.64 0 4 0 C3.67 1.32 3.34 2.64 3 4 C1.02 4.33 -0.96 4.66 -3 5 C-3 4.34 -3 3.68 -3 3 C-2.34 3 -1.68 3 -1 3 C-0.67 2.01 -0.34 1.02 0 0 Z " fill="#36353D" transform="translate(85,104)"/>
<path d="M0 0 C0.99 0.33 1.98 0.66 3 1 C-1.14285714 7.42857143 -1.14285714 7.42857143 -4 10 C-3.67 8.02 -3.34 6.04 -3 4 C-2.01 4 -1.02 4 0 4 C0 2.68 0 1.36 0 0 Z " fill="#9A9AA9" transform="translate(80,132)"/>
<path d="M0 0 C0.99 0.33 1.98 0.66 3 1 C3.33 1.99 3.66 2.98 4 4 C3.67 4.66 3.34 5.32 3 6 C1.68 5.34 0.36 4.68 -1 4 C-0.67 2.68 -0.34 1.36 0 0 Z M-2 5 C-1.34 5 -0.68 5 0 5 C-0.33 5.66 -0.66 6.32 -1 7 C-1.33 6.34 -1.66 5.68 -2 5 Z " fill="#202026" transform="translate(118,120)"/>
<path d="M0 0 C0.99 0.66 1.98 1.32 3 2 C1.35 3.98 -0.3 5.96 -2 8 C-3 6 -3 6 -3 2 C-2.01 2 -1.02 2 0 2 C0 1.34 0 0.68 0 0 Z " fill="#85858C" transform="translate(96,111)"/>
<path d="M0 0 C0.99 0.33 1.98 0.66 3 1 C1.68 2.65 0.36 4.3 -1 6 C-1.99 5.67 -2.98 5.34 -4 5 C-4 4.34 -4 3.68 -4 3 C-2.1875 1.3125 -2.1875 1.3125 0 0 Z " fill="#2C2B35" transform="translate(100,85)"/>
<path d="M0 0 C-1 2 -2 4 -3 6 C-3.66 6 -4.32 6 -5 6 C-5.33 4.68 -5.66 3.36 -6 2 C-3 0 -3 0 0 0 Z " fill="#070709" transform="translate(114,75)"/>
<path d="M0 0 C0.66 0 1.32 0 2 0 C2 1.32 2 2.64 2 4 C1.01 4 0.02 4 -1 4 C-1 4.66 -1 5.32 -1 6 C-1.99 6.33 -2.98 6.66 -4 7 C-2.92598892 4.08482708 -2.22189824 2.22189824 0 0 Z " fill="#040506" transform="translate(63,141)"/>
<path d="M0 0 C1.32 0 2.64 0 4 0 C4 0.66 4 1.32 4 2 C4.99 2 5.98 2 7 2 C7 2.99 7 3.98 7 5 C4.11424181 4.60196439 3.17810487 4.20990931 1.25 1.9375 C0.8375 1.298125 0.425 0.65875 0 0 Z " fill="#828189" transform="translate(122,132)"/>
<path d="M0 0 C1.32 0 2.64 0 4 0 C4 1.32 4 2.64 4 4 C2.35 4 0.7 4 -1 4 C-0.67 2.68 -0.34 1.36 0 0 Z " fill="#121115" transform="translate(100,73)"/>
<path d="M0 0 C1.0625 1.8125 1.0625 1.8125 2 4 C1.67 4.99 1.34 5.98 1 7 C0.01 7.33 -0.98 7.66 -2 8 C-2.33 7.01 -2.66 6.02 -3 5 C-2.34 5 -1.68 5 -1 5 C-0.67 3.35 -0.34 1.7 0 0 Z " fill="#0D0C10" transform="translate(117,63)"/>
<path d="M0 0 C0.33 1.32 0.66 2.64 1 4 C0.34 4 -0.32 4 -1 4 C-1 5.65 -1 7.3 -1 9 C-3 7 -3 7 -3.125 4.375 C-3.08375 3.59125 -3.0425 2.8075 -3 2 C-2.01 2 -1.02 2 0 2 C0 1.34 0 0.68 0 0 Z " fill="#9897A5" transform="translate(53,142)"/>
<path d="M0 0 C0.66 0 1.32 0 2 0 C1.67 1.98 1.34 3.96 1 6 C-0.32 5.67 -1.64 5.34 -3 5 C-2.67 4.01 -2.34 3.02 -2 2 C-1.34 2 -0.68 2 0 2 C0 1.34 0 0.68 0 0 Z " fill="#31303B" transform="translate(75,136)"/>
<path d="M0 0 C0.66 0 1.32 0 2 0 C1.67 1.98 1.34 3.96 1 6 C-0.32 6 -1.64 6 -3 6 C-3 5.34 -3 4.68 -3 4 C-2.34 4 -1.68 4 -1 4 C-0.67 2.68 -0.34 1.36 0 0 Z " fill="#6A697B" transform="translate(83,126)"/>
<path d="M0 0 C2.97 0.495 2.97 0.495 6 1 C6.33 2.32 6.66 3.64 7 5 C4.11562221 3.70700306 2.12780579 2.34058637 0 0 Z " fill="#919197" transform="translate(60,82)"/>
<path d="M0 0 C1.0625 1.8125 1.0625 1.8125 2 4 C1.67 4.99 1.34 5.98 1 7 C0.67 6.34 0.34 5.68 0 5 C-0.99 5 -1.98 5 -3 5 C-1.125 1.125 -1.125 1.125 0 0 Z " fill="#0E0E10" transform="translate(112,67)"/>
<path d="M0 0 C1.98 0 3.96 0 6 0 C6 1.32 6 2.64 6 4 C5.34 4 4.68 4 4 4 C3.67 4.99 3.34 5.98 3 7 C3 5.02 3 3.04 3 1 C2.01 0.67 1.02 0.34 0 0 Z " fill="#303034" transform="translate(145,49)"/>
<path d="M0 0 C0.66 1.65 1.32 3.3 2 5 C0.35 4.67 -1.3 4.34 -3 4 C-3 3.34 -3 2.68 -3 2 C-3.66 1.67 -4.32 1.34 -5 1 C-3 0 -3 0 0 0 Z " fill="#62626B" transform="translate(132,130)"/>
<path d="M0 0 C2.97 0.495 2.97 0.495 6 1 C6 1.99 6 2.98 6 4 C4.68 4.33 3.36 4.66 2 5 C1.34 3.35 0.68 1.7 0 0 Z " fill="#444349" transform="translate(118,127)"/>
<path d="M0 0 C0.99 0.33 1.98 0.66 3 1 C2.6875 2.9375 2.6875 2.9375 2 5 C1.01 5.33 0.02 5.66 -1 6 C-1.042721 4.33388095 -1.04063832 2.66617115 -1 1 C-0.67 0.67 -0.34 0.34 0 0 Z " fill="#0A0A0D" transform="translate(79,113)"/>
</svg>
