<?xml version="1.0" encoding="UTF-8"?>
<svg version="1.1" xmlns="http://www.w3.org/2000/svg" width="202" height="200">
<path d="M0 0 C0 1.65 0 3.3 0 5 C0.721875 5.061875 1.44375 5.12375 2.1875 5.1875 C5.93675828 6.27061906 7.33613203 8.15028077 10 11 C12.62334844 13.38387265 15.31446495 15.68671734 18 18 C18.51691406 18.46792969 19.03382812 18.93585937 19.56640625 19.41796875 C23.4072926 22.81929863 27.38574522 24.85198485 32 27 C32 27.66 32 28.32 32 29 C32.556875 29.061875 33.11375 29.12375 33.6875 29.1875 C36.99068042 30.3480769 38.71894733 32.40213446 41 35 C41 35.66 41 36.32 41 37 C41.66 37 42.32 37 43 37 C44.68933922 38.6436814 46.35259924 40.3142876 48 42 C51.78608986 45.31784553 55.80332473 47.58122521 60.3125 49.75 C61.72921875 50.44520637 63.14588376 51.14052227 64.5625 51.8359375 C65.65304688 52.36719238 65.65304688 52.36719238 66.765625 52.90917969 C70.45764042 54.71161903 74.13531755 56.54254235 77.8125 58.375 C78.48772705 58.70854492 79.1629541 59.04208984 79.85864258 59.38574219 C82.69926963 60.79825279 85.35577545 62.23718363 88 64 C87.67 65.65 87.34 67.3 87 69 C86.36191406 69.17015625 85.72382813 69.3403125 85.06640625 69.515625 C84.24011719 69.75796875 83.41382813 70.0003125 82.5625 70.25 C81.73878906 70.48203125 80.91507812 70.7140625 80.06640625 70.953125 C79.38449219 71.29859375 78.70257813 71.6440625 78 72 C77.80664062 72.93005859 77.80664062 72.93005859 77.609375 73.87890625 C77 76 77 76 74.26171875 77.82421875 C73.07564771 78.45544121 71.88380617 79.07589732 70.6875 79.6875 C63.60409559 83.51313614 57.35907251 88.05982258 51 93 C43.63660853 98.54026841 36.16126423 104.11969018 27.77734375 108.0390625 C25.82276695 108.87604905 25.82276695 108.87604905 25 111 C23.7934375 111.5878125 23.7934375 111.5878125 22.5625 112.1875 C15.21038116 115.92805169 9.46639478 119.33744312 6 127 C4.33985384 127.36442233 2.67293936 127.69972883 1 128 C-0.16953416 130.42383077 -0.16953416 130.42383077 -1 133 C-4.22373677 135.14915785 -5.26703674 135.38286803 -9 135 C-11 133 -11 133 -11.16015625 131.01171875 C-11.11181641 129.86123047 -11.11181641 129.86123047 -11.0625 128.6875 C-10.99357988 125.99961551 -11.03211996 123.83940022 -11.5625 121.1875 C-12 119 -12 119 -11.53443909 117.30474854 C-10.80313514 114.15102767 -10.88081537 111.17360984 -10.88647461 107.93652344 C-10.88632858 107.23368225 -10.88618256 106.53084106 -10.8860321 105.80670166 C-10.88672701 103.49089437 -10.89449962 101.17516819 -10.90234375 98.859375 C-10.90420943 97.25083459 -10.90563263 95.64229362 -10.90663147 94.03375244 C-10.91044484 89.80544458 -10.92026505 85.57717121 -10.93133545 81.34887695 C-10.94157494 77.03206855 -10.94613453 72.71525456 -10.95117188 68.3984375 C-10.96188838 59.93227586 -10.97895063 51.46614222 -11 43 C-10.01 43 -9.02 43 -8 43 C-8.16757813 42.00484375 -8.33515625 41.0096875 -8.5078125 39.984375 C-9.77874712 31.60859104 -10.12553638 23.75461281 -9.25 15.3125 C-9.16379395 14.4762207 -9.07758789 13.63994141 -8.98876953 12.77832031 C-8.46114646 8.31742508 -7.76056512 4.17148825 -6 0 C-3.50907189 -1.24546405 -2.58919267 -0.7767578 0 0 Z M39 50 C39 50.66 39 51.32 39 52 C39.66 52 40.32 52 41 52 C41 51.34 41 50.68 41 50 C40.34 50 39.68 50 39 50 Z " fill="#0D0D0E" transform="translate(73,36)"/>
<path d="M0 0 C4.42323682 0.58265272 7.5155864 2.26766211 11.3125 4.5625 C12.91544922 5.52349609 12.91544922 5.52349609 14.55078125 6.50390625 C15.35902344 6.99761719 16.16726562 7.49132812 17 8 C16.67 9.65 16.34 11.3 16 13 C15.04287109 13.25523438 15.04287109 13.25523438 14.06640625 13.515625 C13.24011719 13.75796875 12.41382813 14.0003125 11.5625 14.25 C10.73878906 14.48203125 9.91507813 14.7140625 9.06640625 14.953125 C8.38449219 15.29859375 7.70257813 15.6440625 7 16 C6.87109375 16.62003906 6.7421875 17.24007812 6.609375 17.87890625 C6 20 6 20 3.26171875 21.82421875 C2.07564771 22.45544121 0.88380617 23.07589732 -0.3125 23.6875 C-7.39590441 27.51313614 -13.64092749 32.05982258 -20 37 C-36.48239235 49.4014699 -36.48239235 49.4014699 -46 53 C-46 52.34 -46 51.68 -46 51 C-45.01 51 -44.02 51 -43 51 C-42.67 50.01 -42.34 49.02 -42 48 C-39.525 47.505 -39.525 47.505 -37 47 C-36.34 44.69 -35.68 42.38 -35 40 C-34.01 40 -33.02 40 -32 40 C-32 39.34 -32 38.68 -32 38 C-31.34 38 -30.68 38 -30 38 C-30 37.34 -30 36.68 -30 36 C-31.31571603 36.2547514 -32.62760376 36.52934141 -33.9375 36.8125 C-34.66839844 36.96332031 -35.39929688 37.11414063 -36.15234375 37.26953125 C-36.76207031 37.51058594 -37.37179688 37.75164062 -38 38 C-38.33 38.99 -38.66 39.98 -39 41 C-40.65 41 -42.3 41 -44 41 C-45.34400949 33.79122183 -45.34400949 33.79122183 -43.75 30.125 C-41.30435272 27.15528545 -38.4077715 25.64513107 -35 24 C-34.525625 24.495 -34.05125 24.99 -33.5625 25.5 C-32.24076302 27.11542197 -32.24076302 27.11542197 -31 27 C-30.2575 26.505 -29.515 26.01 -28.75 25.5 C-25.77410847 23.87678644 -24.32384519 23.56265195 -21 24 C-20.01 24.66 -19.02 25.32 -18 26 C-18 25.34 -18 24.68 -18 24 C-20.31 23.67 -22.62 23.34 -25 23 C-24.67 22.01 -24.34 21.02 -24 20 C-22.35 20 -20.7 20 -19 20 C-19 18.35 -19 16.7 -19 15 C-18.67 15.66 -18.34 16.32 -18 17 C-17.01 17 -16.02 17 -15 17 C-15 16.34 -15 15.68 -15 15 C-10.545 14.505 -10.545 14.505 -6 14 C-6.56888837 10.0177814 -7.89001415 7.39432507 -10 4 C-10 3.34 -10 2.68 -10 2 C-8.02 2.33 -6.04 2.66 -4 3 C-4 3.66 -4 4.32 -4 5 C-3.01 4.67 -2.02 4.34 -1 4 C1.26171875 4.12109375 1.26171875 4.12109375 3.6875 4.4375 C4.49574219 4.53933594 5.30398437 4.64117187 6.13671875 4.74609375 C6.75160156 4.82988281 7.36648437 4.91367188 8 5 C6.68 4.67 5.36 4.34 4 4 C4 3.34 4 2.68 4 2 C2.68 1.34 1.36 0.68 0 0 Z " fill="#171819" transform="translate(144,92)"/>
<path d="M0 0 C0.66 0 1.32 0 2 0 C2.12375 1.134375 2.2475 2.26875 2.375 3.4375 C2.684375 5.2009375 2.684375 5.2009375 3 7 C3.66 7.33 4.32 7.66 5 8 C6.29411765 15.41176471 6.29411765 15.41176471 5 18 C5.66 18 6.32 18 7 18 C7.66 19.98 8.32 21.96 9 24 C9.91058531 20.92677456 10.08886184 18.19902639 10 15 C10.99 14.67 11.98 14.34 13 14 C13.08636719 14.68707031 13.17273438 15.37414062 13.26171875 16.08203125 C13.99440873 21.81424542 13.99440873 21.81424542 17.5 26.125 C19.87316903 27.11011681 19.87316903 27.11011681 22 27 C22 26.34 22 25.68 22 25 C22.99 24.67 23.98 24.34 25 24 C25 25.32 25 26.64 25 28 C23.02 28.33 21.04 28.66 19 29 C19.12568359 30.04800781 19.12568359 30.04800781 19.25390625 31.1171875 C19.35574219 32.02726562 19.45757812 32.93734375 19.5625 33.875 C19.66691406 34.77992187 19.77132812 35.68484375 19.87890625 36.6171875 C20 39 20 39 19 41 C18.01 41 17.02 41 16 41 C15.855625 41.598125 15.71125 42.19625 15.5625 42.8125 C15.1127561 44.56150404 14.57107659 46.28677023 14 48 C13.34 48 12.68 48 12 48 C11.34 51.3 10.68 54.6 10 58 C8.515 58.495 8.515 58.495 7 59 C5.77479736 62.00847418 5.77479736 62.00847418 5 65 C4.34 64.67 3.68 64.34 3 64 C2.375 61.9375 2.375 61.9375 2 60 C2 62.64 2 65.28 2 68 C1.34 68 0.68 68 0 68 C-1.65595919 60.43764467 -2.74020086 52.87532106 -3.625 45.1875 C-3.7590625 44.10146484 -3.893125 43.01542969 -4.03125 41.89648438 C-4.92251762 34.23431118 -5.15659595 26.71037329 -5 19 C-4.01 18.67 -3.02 18.34 -2 18 C-1.26676204 15.98491642 -1.26676204 15.98491642 -1 14 C-0.34 14 0.32 14 1 14 C0.67 9.38 0.34 4.76 0 0 Z " fill="#1C1C1F" transform="translate(82,77)"/>
<path d="M0 0 C2 3 2 3 2 5 C2.66 5 3.32 5 4 5 C5.19107603 11.9975717 5.79378744 19.04907366 4 26 C3.34 26 2.68 26 2 26 C2 26.99 2 27.98 2 29 C2.99 29.33 3.98 29.66 5 30 C5.02487921 34.83804966 5.04294428 39.67606135 5.05493164 44.51416016 C5.05993363 46.15707041 5.06673733 47.79997627 5.07543945 49.44287109 C5.0876874 51.81609181 5.09326979 54.18925323 5.09765625 56.5625 C5.10281754 57.28679199 5.10797882 58.01108398 5.11329651 58.75732422 C5.11381759 63.5874339 4.68027235 68.21690863 4 73 C3.34 73 2.68 73 2 73 C1.67 74.32 1.34 75.64 1 77 C1.66 77 2.32 77 3 77 C3.33 78.32 3.66 79.64 4 81 C4.28875 80.195625 4.5775 79.39125 4.875 78.5625 C6 76 6 76 8 75 C8 65.76 8 56.52 8 47 C10.9593033 49.9593033 10.65702085 53.37399298 10.9921875 57.3671875 C11.06543243 58.19832062 11.13867737 59.02945374 11.21414185 59.88577271 C11.36517733 61.64559711 11.51110752 63.40586596 11.65234375 65.16650391 C11.8737293 67.85954262 12.1275595 70.54826943 12.3828125 73.23828125 C12.52544685 74.9477502 12.66613625 76.65738277 12.8046875 78.3671875 C12.88467987 79.17147186 12.96467224 79.97575623 13.04708862 80.80441284 C13.31189257 84.50825473 13.37380493 86.4903907 11.13720703 89.53955078 C9 91 9 91 7 91 C6.67 92.98 6.34 94.96 6 97 C8.97 97.99 11.94 98.98 15 100 C15 98.68 15 97.36 15 96 C15.66 96 16.32 96 17 96 C16.34 97.98 15.68 99.96 15 102 C13.824375 102.0928125 13.824375 102.0928125 12.625 102.1875 C11.75875 102.455625 10.8925 102.72375 10 103 C8.83046584 105.42383077 8.83046584 105.42383077 8 108 C4.77626323 110.14915785 3.73296326 110.38286803 0 110 C-2 108 -2 108 -2.16015625 106.01171875 C-2.12792969 105.24472656 -2.09570312 104.47773438 -2.0625 103.6875 C-1.99357988 100.99961551 -2.03211996 98.83940022 -2.5625 96.1875 C-3 94 -3 94 -2.53443909 92.30474854 C-1.80313514 89.15102767 -1.88081537 86.17360984 -1.88647461 82.93652344 C-1.88632858 82.23368225 -1.88618256 81.53084106 -1.8860321 80.80670166 C-1.88672701 78.49089437 -1.89449962 76.17516819 -1.90234375 73.859375 C-1.90420943 72.25083459 -1.90563263 70.64229362 -1.90663147 69.03375244 C-1.91044484 64.80544458 -1.92026505 60.57717121 -1.93133545 56.34887695 C-1.94157494 52.03206855 -1.94613453 47.71525456 -1.95117188 43.3984375 C-1.96188838 34.93227586 -1.97895063 26.46614222 -2 18 C-1.01 18 -0.02 18 1 18 C0.84402344 16.78441406 0.68804687 15.56882812 0.52734375 14.31640625 C0.33044084 12.73180663 0.13384191 11.14716922 -0.0625 9.5625 C-0.16626953 8.76005859 -0.27003906 7.95761719 -0.37695312 7.13085938 C-0.62644343 5.09192132 -0.81780318 3.04604939 -1 1 C-0.67 0.67 -0.34 0.34 0 0 Z " fill="#18191C" transform="translate(64,61)"/>
<path d="M0 0 C1.98962838 3.97925676 2.58300044 7.23866487 3.0625 11.5625 C3.6644833 16.85211779 3.6644833 16.85211779 5 22 C4.67 22.66 4.34 23.32 4 24 C4.66 24 5.32 24 6 24 C5.67 21.36 5.34 18.72 5 16 C5.66 15.67 6.32 15.34 7 15 C7.33 16.65 7.66 18.3 8 20 C8.66 19.01 9.32 18.02 10 17 C11 16 12 15 13 14 C13.66 13.01 14.32 12.02 15 11 C15.33 12.65 15.66 14.3 16 16 C16.66 16 17.32 16 18 16 C18.99 14.02 19.98 12.04 21 10 C21.33 10.66 21.66 11.32 22 12 C25.60919886 11.58204947 25.60919886 11.58204947 28.4375 9.5 C30.70217889 7.32590827 32.95707737 7.33810251 36 7 C36 7.66 36 8.32 36 9 C35.34 9 34.68 9 34 9 C34 9.66 34 10.32 34 11 C33.01 11 32.02 11 31 11 C30.855625 11.78375 30.71125 12.5675 30.5625 13.375 C30 16 30 16 29 18 C27.33333333 18.66666667 25.66666667 19.33333333 24 20 C23.67 20.66 23.34 21.32 23 22 C22.01 22 21.02 22 20 22 C20 23.32 20 24.64 20 26 C19.21625 26.350625 18.4325 26.70125 17.625 27.0625 C13.51340024 29.08395477 9.93857549 31.85202464 6.26953125 34.57421875 C4 36 4 36 1 36 C1 37.32 1 38.64 1 40 C-2.14624993 40.26218749 -3.61837017 40.24754367 -6.3125 38.5 C-6.869375 38.005 -7.42625 37.51 -8 37 C-7.67506385 33.4257023 -7.36129314 31.44287547 -5.0625 28.625 C-3 27 -3 27 -1 27 C-1.33 26.34 -1.66 25.68 -2 25 C-2.2322646 22.28737884 -2.41936235 19.59226874 -2.5625 16.875 C-2.60568359 16.12089844 -2.64886719 15.36679688 -2.69335938 14.58984375 C-2.7994832 12.72678112 -2.90025001 10.86341476 -3 9 C-2.34 9 -1.68 9 -1 9 C-0.67 6.03 -0.34 3.06 0 0 Z " fill="#18191A" transform="translate(78,121)"/>
<path d="M0 0 C3.3 1.65 6.6 3.3 10 5 C10 5.66 10 6.32 10 7 C10.556875 7.061875 11.11375 7.12375 11.6875 7.1875 C14.99068042 8.3480769 16.71894733 10.40213446 19 13 C19 13.66 19 14.32 19 15 C19.66 15 20.32 15 21 15 C22.68933922 16.6436814 24.35259924 18.3142876 26 20 C30.04957982 23.59473571 34.34399345 25.81940321 39.1875 28.125 C46.74615385 31.74615385 46.74615385 31.74615385 49 34 C44.80530429 33.40075776 40.99000166 32.42500059 37 31 C37 31.99 37 32.98 37 34 C29.54188482 32.58900524 29.54188482 32.58900524 27.5625 30.4375 C25.86323949 28.54862898 25.86323949 28.54862898 22 29 C21.67 29.99 21.34 30.98 21 32 C19.68 32 18.36 32 17 32 C17.33 32.99 17.66 33.98 18 35 C18.66 35.33 19.32 35.66 20 36 C19.67 36.99 19.34 37.98 19 39 C17.515 38.505 17.515 38.505 16 38 C15.33984375 35.96875 15.33984375 35.96875 14.9375 33.5 C14.57483048 31.08992981 14.57483048 31.08992981 14 29 C13.34 28.67 12.68 28.34 12 28 C12.33 27.01 12.66 26.02 13 25 C13.99 25 14.98 25 16 25 C14.0065555 20.34862949 11.44867675 17.69536484 6.875 15.5 C3.85440938 13.92403968 3.08536186 13.14754939 2 10 C4.475 10.99 4.475 10.99 7 12 C7 11.34 7 10.68 7 10 C7.66 10 8.32 10 9 10 C9 8.68 9 7.36 9 6 C7.35 6 5.7 6 4 6 C3.67 5.01 3.34 4.02 3 3 C2.01 2.67 1.02 2.34 0 2 C0 1.34 0 0.68 0 0 Z M17 28 C17 28.66 17 29.32 17 30 C17.66 30 18.32 30 19 30 C19 29.34 19 28.68 19 28 C18.34 28 17.68 28 17 28 Z " fill="#222225" transform="translate(95,58)"/>
<path d="M0 0 C2 3 2 3 2 5 C2.66 5 3.32 5 4 5 C5.19107603 11.9975717 5.79378744 19.04907366 4 26 C3.34 26 2.68 26 2 26 C2 26.99 2 27.98 2 29 C2.99 29.33 3.98 29.66 5 30 C5.02487921 34.83804966 5.04294428 39.67606135 5.05493164 44.51416016 C5.05993363 46.15707041 5.06673733 47.79997627 5.07543945 49.44287109 C5.0876874 51.81609181 5.09326979 54.18925323 5.09765625 56.5625 C5.10281754 57.28679199 5.10797882 58.01108398 5.11329651 58.75732422 C5.11381759 63.5874339 4.68027235 68.21690863 4 73 C3.34 73 2.68 73 2 73 C1.34 78.28 0.68 83.56 0 89 C-0.33 89 -0.66 89 -1 89 C-2.20900322 40.02893891 -2.20900322 40.02893891 -2 18 C-1.01 18 -0.02 18 1 18 C0.84402344 16.78441406 0.68804687 15.56882812 0.52734375 14.31640625 C0.33044084 12.73180663 0.13384191 11.14716922 -0.0625 9.5625 C-0.2181543 8.35883789 -0.2181543 8.35883789 -0.37695312 7.13085938 C-0.62644343 5.09192132 -0.81780318 3.04604939 -1 1 C-0.67 0.67 -0.34 0.34 0 0 Z " fill="#9E9EA7" transform="translate(64,61)"/>
<path d="M0 0 C4.42323682 0.58265272 7.5155864 2.26766211 11.3125 4.5625 C12.91544922 5.52349609 12.91544922 5.52349609 14.55078125 6.50390625 C15.35902344 6.99761719 16.16726562 7.49132812 17 8 C16.67 9.65 16.34 11.3 16 13 C15.04287109 13.25523438 15.04287109 13.25523438 14.06640625 13.515625 C13.24011719 13.75796875 12.41382813 14.0003125 11.5625 14.25 C10.73878906 14.48203125 9.91507813 14.7140625 9.06640625 14.953125 C8.38449219 15.29859375 7.70257813 15.6440625 7 16 C6.30254132 17.99773844 6.30254132 17.99773844 6 20 C3.9375 21.25 3.9375 21.25 2 22 C2.4962963 17.40925926 2.4962963 17.40925926 5 15.375 C5.99 14.694375 5.99 14.694375 7 14 C7.33 13.01 7.66 12.02 8 11 C5.69 11 3.38 11 1 11 C1 12.65 1 14.3 1 16 C-0.65 16.66 -2.3 17.32 -4 18 C-4 17.34 -4 16.68 -4 16 C-4.99 16 -5.98 16 -7 16 C-7 16.66 -7 17.32 -7 18 C-8.423125 18.12375 -8.423125 18.12375 -9.875 18.25 C-10.90625 18.4975 -11.9375 18.745 -13 19 C-13.66 20.32 -14.32 21.64 -15 23 C-18.3 23 -21.6 23 -25 23 C-24.505 21.515 -24.505 21.515 -24 20 C-22.35 20 -20.7 20 -19 20 C-19 18.35 -19 16.7 -19 15 C-18.67 15.66 -18.34 16.32 -18 17 C-17.01 17 -16.02 17 -15 17 C-15 16.34 -15 15.68 -15 15 C-10.545 14.505 -10.545 14.505 -6 14 C-6.56888837 10.0177814 -7.89001415 7.39432507 -10 4 C-10 3.34 -10 2.68 -10 2 C-7.03 2.495 -7.03 2.495 -4 3 C-4 3.66 -4 4.32 -4 5 C-3.01 4.67 -2.02 4.34 -1 4 C1.26171875 4.12109375 1.26171875 4.12109375 3.6875 4.4375 C4.49574219 4.53933594 5.30398437 4.64117187 6.13671875 4.74609375 C6.75160156 4.82988281 7.36648437 4.91367188 8 5 C6.68 4.67 5.36 4.34 4 4 C4 3.34 4 2.68 4 2 C2.68 1.34 1.36 0.68 0 0 Z " fill="#424145" transform="translate(144,92)"/>
<path d="M0 0 C2.97 0.495 2.97 0.495 6 1 C6.33 1.99 6.66 2.98 7 4 C8.84725052 4.69159401 8.84725052 4.69159401 11 5 C12.33333333 5.33333333 13.66666667 5.66666667 15 6 C15 5.01 15 4.02 15 3 C20.76044212 3.60636233 25.72014369 5.75658279 31 8 C31 8.66 31 9.32 31 10 C33.475 10.495 33.475 10.495 36 11 C35.01 11.33 34.02 11.66 33 12 C32.34 11.67 31.68 11.34 31 11 C30.67 11.66 30.34 12.32 30 13 C30 12.34 30 11.68 30 11 C27.69 11 25.38 11 23 11 C23 10.34 23 9.68 23 9 C20.03 8.505 20.03 8.505 17 8 C17.38414062 8.53109375 17.76828125 9.0621875 18.1640625 9.609375 C18.64617187 10.31578125 19.12828125 11.0221875 19.625 11.75 C20.35589844 12.79414062 20.35589844 12.79414062 21.1015625 13.859375 C22 16 22 16 21.1484375 18.265625 C20.76945312 18.83796875 20.39046875 19.4103125 20 20 C19.4225 19.525625 18.845 19.05125 18.25 18.5625 C16.03045596 17.02114997 14.58332951 16.58333247 12 16 C11.01 15.34 10.02 14.68 9 14 C9 13.34 9 12.68 9 12 C8.34 11.67 7.68 11.34 7 11 C7 11.66 7 12.32 7 13 C6.01 12.67 5.02 12.34 4 12 C4.66 10.68 5.32 9.36 6 8 C5.01 8.495 5.01 8.495 4 9 C1.98072489 8.39421747 -0.02253397 7.73080266 -2 7 C-1.34 4.69 -0.68 2.38 0 0 Z " fill="#080909" transform="translate(117,86)"/>
<path d="M0 0 C2.41909603 2.41909603 2.49473737 3.65187349 3.0703125 6.98046875 C3.24433594 7.98013672 3.41835937 8.97980469 3.59765625 10.00976562 C3.77167969 11.05841797 3.94570312 12.10707031 4.125 13.1875 C4.30675781 14.21681641 4.48851563 15.24613281 4.67578125 16.30664062 C5.57941689 21.60955503 6.22824023 26.62113855 6 32 C6.66 32 7.32 32 8 32 C8 29.36 8 26.72 8 24 C8.66 24.33 9.32 24.66 10 25 C10 26.65 10 28.3 10 30 C10.66 30 11.32 30 12 30 C12 29.34 12 28.68 12 28 C12.66 28 13.32 28 14 28 C13.7834375 27.43152344 13.566875 26.86304688 13.34375 26.27734375 C11.54018042 21.2757781 10.6610396 17.31037964 11 12 C11.66 12.33 12.32 12.66 13 13 C13.33333333 14.33333333 13.66666667 15.66666667 14 17 C14.66 17.33 15.32 17.66 16 18 C16 17.01 16 16.02 16 15 C15.34 15 14.68 15 14 15 C14 14.34 14 13.68 14 13 C15.65 12.67 17.3 12.34 19 12 C19.33 13.65 19.66 15.3 20 17 C19.34 17 18.68 17 18 17 C18.33 18.98 18.66 20.96 19 23 C18.34 23 17.68 23 17 23 C16.34 26.3 15.68 29.6 15 33 C13.515 33.495 13.515 33.495 12 34 C10.77479736 37.00847418 10.77479736 37.00847418 10 40 C9.34 39.67 8.68 39.34 8 39 C7.375 36.9375 7.375 36.9375 7 35 C7 37.64 7 40.28 7 43 C6.34 43 5.68 43 5 43 C3.30450911 35.31587856 2.25289276 27.62843298 1.375 19.8125 C1.2409375 18.67619141 1.106875 17.53988281 0.96875 16.36914062 C0.34135604 10.87944344 -0.17593251 5.52588006 0 0 Z " fill="#3D3D44" transform="translate(77,102)"/>
<path d="M0 0 C0.66 0.33 1.32 0.66 2 1 C1.34 1.66 0.68 2.32 0 3 C0.680625 4.11375 1.36125 5.2275 2.0625 6.375 C3.22265625 8.2734375 3.22265625 8.2734375 4 10 C3.67 10.66 3.34 11.32 3 12 C3.66 12 4.32 12 5 12 C5.33 11.34 5.66 10.68 6 10 C6.20496094 11.16917969 6.40992187 12.33835937 6.62109375 13.54296875 C6.89319855 15.09115122 7.16533567 16.639328 7.4375 18.1875 C7.57220703 18.95642578 7.70691406 19.72535156 7.84570312 20.51757812 C8.52089704 24.35465574 9.21232777 28.18399568 10 32 C9.34 32 8.68 32 8 32 C8 32.66 8 33.32 8 34 C7.34 34 6.68 34 6 34 C5.67 32.35 5.34 30.7 5 29 C4.67 31.31 4.34 33.62 4 36 C3.34 36 2.68 36 2 36 C0.10155293 24.35619131 -1.62619435 12.71775411 -3 1 C-2.01 0.67 -1.02 0.34 0 0 Z " fill="#090A0A" transform="translate(81,98)"/>
<path d="M0 0 C3.3 1.65 6.6 3.3 10 5 C10 5.66 10 6.32 10 7 C10.556875 7.061875 11.11375 7.12375 11.6875 7.1875 C14.99068042 8.3480769 16.71894733 10.40213446 19 13 C19 13.66 19 14.32 19 15 C19.66 15 20.32 15 21 15 C22.68933922 16.6436814 24.35259924 18.3142876 26 20 C28.87174407 22.45148884 31.54456727 24.46425212 35 26 C33 27 33 27 29.6875 26.3125 C25.1245267 24.68839086 22.37870016 22.37870016 19 19 C19.33 18.01 19.66 17.02 20 16 C18.68 15.67 17.36 15.34 16 15 C16.99 17.31 17.98 19.62 19 22 C14.56695104 21.507439 13.04375599 20.13599102 10 17 C8.96875 16.505 7.9375 16.01 6.875 15.5 C3.85440938 13.92403968 3.08536186 13.14754939 2 10 C4.475 10.99 4.475 10.99 7 12 C7 11.34 7 10.68 7 10 C7.66 10 8.32 10 9 10 C9 8.68 9 7.36 9 6 C7.35 6 5.7 6 4 6 C3.67 5.01 3.34 4.02 3 3 C2.01 2.67 1.02 2.34 0 2 C0 1.34 0 0.68 0 0 Z " fill="#404147" transform="translate(95,58)"/>
<path d="M0 0 C1.65 0.33 3.3 0.66 5 1 C4.01 1.33 3.02 1.66 2 2 C2.45375 2.86625 2.9075 3.7325 3.375 4.625 C4.88704953 7.76541056 6.18935303 10.61002175 7 14 C6.125 16.1875 6.125 16.1875 5 18 C5 18.99 5 19.98 5 21 C5.78375 20.95875 6.5675 20.9175 7.375 20.875 C10 21 10 21 12 23 C12.33 21.68 12.66 20.36 13 19 C13.99 19 14.98 19 16 19 C16.33 19.99 16.66 20.98 17 22 C17.66 22.66 18.32 23.32 19 24 C18.625 27.125 18.625 27.125 18 30 C15.36 30 12.72 30 10 30 C10.33 28.68 10.66 27.36 11 26 C8.69 26 6.38 26 4 26 C2.45357192 20.3297637 1.51482919 14.852795 1 9 C0.01 8.67 -0.98 8.34 -2 8 C-2.33 6.02 -2.66 4.04 -3 2 C-2.01 2 -1.02 2 0 2 C0 1.34 0 0.68 0 0 Z " fill="#151617" transform="translate(87,62)"/>
<path d="M0 0 C1.32 0.33 2.64 0.66 4 1 C4 1.66 4 2.32 4 3 C5.32 3.33 6.64 3.66 8 4 C8.13277344 4.98742187 8.26554687 5.97484375 8.40234375 6.9921875 C8.57894531 8.27351563 8.75554687 9.55484375 8.9375 10.875 C9.11152344 12.15117188 9.28554687 13.42734375 9.46484375 14.7421875 C9.81433227 17.87559454 9.81433227 17.87559454 11 20 C14.02934491 20.65772428 14.02934491 20.65772428 17 21 C17 22.98 17 24.96 17 27 C16.01 27 15.02 27 14 27 C14 26.01 14 25.02 14 24 C13.34 24.33 12.68 24.66 12 25 C12.061875 26.093125 12.12375 27.18625 12.1875 28.3125 C12 32 12 32 10.5 33.9375 C10.005 34.288125 9.51 34.63875 9 35 C8.67 32.69 8.34 30.38 8 28 C7.34 28 6.68 28 6 28 C6 24.7 6 21.4 6 18 C5.34 18 4.68 18 4 18 C4.33 15.03 4.66 12.06 5 9 C3.68 8.34 2.36 7.68 1 7 C1.66 7 2.32 7 3 7 C2.65772428 4.02934491 2.65772428 4.02934491 2 1 C1.34 0.67 0.68 0.34 0 0 Z " fill="#08090A" transform="translate(81,67)"/>
<path d="M0 0 C2.94185279 2.94185279 2.71515493 6.32592141 3.09765625 10.296875 C3.1780162 11.12326477 3.25837616 11.94965454 3.34117126 12.80108643 C3.50538895 14.55242521 3.6638898 16.30430796 3.81713867 18.05664062 C4.06064788 20.72966906 4.35319636 23.39454102 4.64648438 26.0625 C4.79995648 27.76535009 4.95044389 29.46847234 5.09765625 31.171875 C5.19313248 31.96583679 5.2886087 32.75979858 5.38697815 33.57781982 C5.63701838 37.05982369 5.73138592 39.10292639 3.46603394 41.88146973 C-1.24267453 46 -1.24267453 46 -3 46 C-3.12001711 40.23917868 -3.0149136 34.68351614 -2 29 C-1.34 28.67 -0.68 28.34 0 28 C0 18.76 0 9.52 0 0 Z " fill="#696A6E" transform="translate(72,108)"/>
<path d="M0 0 C0.66 0 1.32 0 2 0 C2.71733942 4.18002835 3.429246 8.3609355 4.13623047 12.54272461 C4.37726778 13.96387413 4.61976289 15.38477722 4.86376953 16.80541992 C5.21514412 18.85271473 5.56118932 20.90085151 5.90625 22.94921875 C6.11572266 24.17987061 6.32519531 25.41052246 6.54101562 26.6784668 C6.93311403 29.51596615 7.0948144 32.14371617 7 35 C6.34 35 5.68 35 5 35 C4.67 34.34 4.34 33.68 4 33 C3.34 33 2.68 33 2 33 C1.896875 32.278125 1.79375 31.55625 1.6875 30.8125 C0.94013068 27.75508007 -0.28045189 25.61670365 -2 23 C-1.67 22.67 -1.34 22.34 -1 22 C-1.99 22 -2.98 22 -4 22 C-3.67 23.65 -3.34 25.3 -3 27 C-5 25 -5 25 -5.125 21.875 C-5.08375 20.92625 -5.0425 19.9775 -5 19 C-4.01 18.67 -3.02 18.34 -2 18 C-1.26676204 15.98491642 -1.26676204 15.98491642 -1 14 C-0.34 14 0.32 14 1 14 C0.67 9.38 0.34 4.76 0 0 Z " fill="#57585C" transform="translate(82,77)"/>
<path d="M0 0 C0.88336837 2.4667645 1.1312406 3.63859372 0.22265625 6.140625 C-0.16019531 6.83671875 -0.54304688 7.5328125 -0.9375 8.25 C-1.31777344 8.95640625 -1.69804688 9.6628125 -2.08984375 10.390625 C-2.39019531 10.92171875 -2.69054687 11.4528125 -3 12 C-3.66 12 -4.32 12 -5 12 C-8.52164055 19.31853748 -8.52164055 19.31853748 -8 27 C-8.66 27 -9.32 27 -10 27 C-10.2475 27.969375 -10.495 28.93875 -10.75 29.9375 C-11.1625 30.948125 -11.575 31.95875 -12 33 C-14.078125 33.69140625 -14.078125 33.69140625 -16 34 C-16.02696365 32.20841511 -16.04637917 30.41671527 -16.0625 28.625 C-16.07410156 27.62726563 -16.08570312 26.62953125 -16.09765625 25.6015625 C-16 23 -16 23 -15 21 C-14.34 21 -13.68 21 -13 21 C-12.855625 20.401875 -12.71125 19.80375 -12.5625 19.1875 C-12.1127561 17.43849596 -11.57107659 15.71322977 -11 14 C-10.36191406 13.87367187 -9.72382812 13.74734375 -9.06640625 13.6171875 C-8.38449219 13.41351563 -7.70257813 13.20984375 -7 13 C-5.74791249 10.79238025 -5.74791249 10.79238025 -4.9375 8.125 C-3.75843804 4.65359868 -2.8111839 2.40503552 0 0 Z " fill="#0B0B0C" transform="translate(109,104)"/>
<path d="M0 0 C0.928125 0.474375 1.85625 0.94875 2.8125 1.4375 C5.91196237 3.04488875 5.91196237 3.04488875 9 4 C9 3.34 9 2.68 9 2 C9.99 1.67 10.98 1.34 12 1 C12 2.32 12 3.64 12 5 C10.02 5.33 8.04 5.66 6 6 C6.08378906 6.69867188 6.16757813 7.39734375 6.25390625 8.1171875 C6.35574219 9.02726562 6.45757812 9.93734375 6.5625 10.875 C6.66691406 11.77992187 6.77132812 12.68484375 6.87890625 13.6171875 C7 16 7 16 6 18 C5.01 18 4.02 18 3 18 C2.67 19.32 2.34 20.64 2 22 C1.34 21.67 0.68 21.34 0 21 C0 20.34 0 19.68 0 19 C0.66 19 1.32 19 2 19 C1.65213292 17.02463255 1.65213292 17.02463255 1 15 C0.34 14.67 -0.32 14.34 -1 14 C-2.14306048 11.07279751 -2.76081614 8.13065101 -3 5 C-1.625 1.9375 -1.625 1.9375 0 0 Z " fill="#242429" transform="translate(95,100)"/>
<path d="M0 0 C2 3 2 3 2 5 C2.66 5 3.32 5 4 5 C5.19107603 11.9975717 5.79378744 19.04907366 4 26 C3.34 26 2.68 26 2 26 C2 26.99 2 27.98 2 29 C2.99 29.33 3.98 29.66 5 30 C4.01 30.33 3.02 30.66 2 31 C1.505 33.475 1.505 33.475 1 36 C0.34 36 -0.32 36 -1 36 C-1.33 30.06 -1.66 24.12 -2 18 C-1.01 18 -0.02 18 1 18 C0.84402344 16.78441406 0.68804687 15.56882812 0.52734375 14.31640625 C0.33044084 12.73180663 0.13384191 11.14716922 -0.0625 9.5625 C-0.2181543 8.35883789 -0.2181543 8.35883789 -0.37695312 7.13085938 C-0.62644343 5.09192132 -0.81780318 3.04604939 -1 1 C-0.67 0.67 -0.34 0.34 0 0 Z " fill="#37373F" transform="translate(64,61)"/>
<path d="M0 0 C2.0625 0.1875 2.0625 0.1875 4 1 C4.33 1.99 4.66 2.98 5 4 C4.01 4.33 3.02 4.66 2 5 C2 5.66 2 6.32 2 7 C1.34 7 0.68 7 0 7 C0 7.66 0 8.32 0 9 C1.65 9.33 3.3 9.66 5 10 C4.67 10.99 4.34 11.98 4 13 C2.35 13.33 0.7 13.66 -1 14 C-1.33 14.99 -1.66 15.98 -2 17 C-3.65 17 -5.3 17 -7 17 C-8.34400949 9.79122183 -8.34400949 9.79122183 -6.75 6.125 C-5 4 -5 4 -2 2 C-1.34 1.34 -0.68 0.68 0 0 Z " fill="#2C2C32" transform="translate(107,116)"/>
<path d="M0 0 C0.33 0 0.66 0 1 0 C1.66 5.94 2.32 11.88 3 18 C3.99 18 4.98 18 6 18 C6 17.01 6 16.02 6 15 C6.99 14.67 7.98 14.34 9 14 C9 13.01 9 12.02 9 11 C8.67 11.66 8.34 12.32 8 13 C7.34 13 6.68 13 6 13 C4.875 8.25 4.875 8.25 6 6 C6.70125 6.28875 7.4025 6.5775 8.125 6.875 C11.05452503 8.02133588 14.00921653 9.02625654 17 10 C17 8.68 17 7.36 17 6 C17.66 6 18.32 6 19 6 C18.34 7.98 17.68 9.96 17 12 C15.824375 12.0928125 15.824375 12.0928125 14.625 12.1875 C13.75875 12.455625 12.8925 12.72375 12 13 C10.83046584 15.42383077 10.83046584 15.42383077 10 18 C6.77626323 20.14915785 5.73296326 20.38286803 2 20 C0 18 0 18 -0.16015625 16.01171875 C-0.12792969 15.24472656 -0.09570312 14.47773438 -0.0625 13.6875 C0.00642012 10.99961551 -0.03211996 8.83940022 -0.5625 6.1875 C-1.04503478 3.7748261 -0.77062239 2.31186717 0 0 Z " fill="#92919A" transform="translate(62,151)"/>
<path d="M0 0 C0.66 0 1.32 0 2 0 C3.26262045 6.81414211 3.14732135 13.58782115 3.125 20.5 C3.12886719 21.69753906 3.13273437 22.89507812 3.13671875 24.12890625 C3.13037919 29.85352577 3.04415634 35.36487054 2 41 C1.67 41 1.34 41 1 41 C0.16293741 35.9283855 -0.13517405 31.02235861 -0.09765625 25.87890625 C-0.0962413 25.13414536 -0.09482635 24.38938446 -0.09336853 23.62205505 C-0.08781989 21.26882727 -0.07527733 18.9156985 -0.0625 16.5625 C-0.05747835 14.95638159 -0.05291661 13.35026168 -0.04882812 11.74414062 C-0.03786735 7.82938957 -0.02063884 3.91471151 0 0 Z " fill="#C0C1C5" transform="translate(66,92)"/>
<path d="M0 0 C-0.25 1.8125 -0.25 1.8125 -1 4 C-1.639375 4.474375 -2.27875 4.94875 -2.9375 5.4375 C-5.2203666 6.86440006 -5.2203666 6.86440006 -5.875 9.5625 C-7 12 -7 12 -10.125 13.3125 C-11.07375 13.539375 -12.0225 13.76625 -13 14 C-15.29013653 10.5647952 -15.17842973 9.014669 -15 5 C-14.01 5 -13.02 5 -12 5 C-12 5.66 -12 6.32 -12 7 C-9.96758273 6.36020151 -9.96758273 6.36020151 -8 5 C-7.34444881 2.47266765 -7.34444881 2.47266765 -7 0 C-4.3333581 -1.33332095 -2.83319697 -0.67102033 0 0 Z " fill="#242425" transform="translate(152,103)"/>
<path d="M0 0 C2 1.375 2 1.375 4 3 C4 3.66 4 4.32 4 5 C4.66 5 5.32 5 6 5 C7.68933922 6.6436814 9.35259924 8.3142876 11 10 C13.87174407 12.45148884 16.54456727 14.46425212 20 16 C18 17 18 17 14.6875 16.3125 C10.1245267 14.68839086 7.37870016 12.37870016 4 9 C4.33 8.01 4.66 7.02 5 6 C3.68 5.67 2.36 5.34 1 5 C1.99 7.31 2.98 9.62 4 12 C-0.75 11.25 -0.75 11.25 -3 9 C-3 7.68 -3 6.36 -3 5 C-3.66 4.67 -4.32 4.34 -5 4 C-2.525 4.495 -2.525 4.495 0 5 C0 3.35 0 1.7 0 0 Z " fill="#7E7D82" transform="translate(110,68)"/>
<path d="M0 0 C0.66 0.33 1.32 0.66 2 1 C1.67 2.65 1.34 4.3 1 6 C-0.65 6 -2.3 6 -4 6 C-4 6.66 -4 7.32 -4 8 C-1.36 8.33 1.28 8.66 4 9 C3.01 9.495 3.01 9.495 2 10 C2 10.66 2 11.32 2 12 C0.783125 11.79375 -0.43375 11.5875 -1.6875 11.375 C-5.34806773 10.90036156 -7.67611512 11.23418616 -11 13 C-11 13.66 -11 14.32 -11 15 C-11.66 14.67 -12.32 14.34 -13 14 C-13 13.01 -13 12.02 -13 11 C-13.66 10.67 -14.32 10.34 -15 10 C-13.02 9.34 -11.04 8.68 -9 8 C-9 6.68 -9 5.36 -9 4 C-5.94736336 3.01879536 -4.05263664 3.01879536 -1 4 C-0.67 2.68 -0.34 1.36 0 0 Z " fill="#1D1E21" transform="translate(124,106)"/>
<path d="M0 0 C5.76044212 0.60636233 10.72014369 2.75658279 16 5 C16 5.66 16 6.32 16 7 C18.475 7.495 18.475 7.495 21 8 C20.01 8.33 19.02 8.66 18 9 C17.34 8.67 16.68 8.34 16 8 C15.67 8.66 15.34 9.32 15 10 C15 9.34 15 8.68 15 8 C12.69 8 10.38 8 8 8 C8 7.34 8 6.68 8 6 C6.39125 6.0928125 6.39125 6.0928125 4.75 6.1875 C0.89133813 5.99456691 -0.28817788 5.60334924 -3 3 C-2.01 3 -1.02 3 0 3 C0 2.01 0 1.02 0 0 Z " fill="#18181B" transform="translate(132,89)"/>
<path d="M0 0 C2.39294804 2.39294804 2.2733558 3.01801679 2.37890625 6.2890625 C2.41306641 7.14886719 2.44722656 8.00867188 2.48242188 8.89453125 C2.50884766 9.79558594 2.53527344 10.69664063 2.5625 11.625 C2.77601965 17.81252693 3.13497953 23.86621848 4 30 C3.34 30 2.68 30 2 30 C1.34 35.28 0.68 40.56 0 46 C-0.33 46 -0.66 46 -1 46 C-1.07955483 35.88438281 -0.82938884 25.79575815 -0.5 15.6875 C-0.45163644 14.15690692 -0.40345828 12.62630798 -0.35546875 11.09570312 C-0.23910907 7.39706552 -0.12026644 3.69851288 0 0 Z " fill="#64636F" transform="translate(64,104)"/>
<path d="M0 0 C1.65 0.33 3.3 0.66 5 1 C4.01 1.33 3.02 1.66 2 2 C2.45375 2.86625 2.9075 3.7325 3.375 4.625 C4.88704953 7.76541056 6.18935303 10.61002175 7 14 C6.125 16.375 6.125 16.375 5 18 C4.01 18 3.02 18 2 18 C1.67 15.03 1.34 12.06 1 9 C0.01 8.67 -0.98 8.34 -2 8 C-2.33 6.02 -2.66 4.04 -3 2 C-2.01 2 -1.02 2 0 2 C0 1.34 0 0.68 0 0 Z " fill="#161618" transform="translate(87,62)"/>
<path d="M0 0 C-6.17429043 6.7718024 -13.77799125 11.11323223 -22 15 C-22.33 14.34 -22.66 13.68 -23 13 C-22.01 13 -21.02 13 -20 13 C-19.67 12.01 -19.34 11.02 -19 10 C-17.35 9.67 -15.7 9.34 -14 9 C-13.690625 7.329375 -13.690625 7.329375 -13.375 5.625 C-12 2 -12 2 -9.25 0.5625 C-6.08395037 0.01452987 -3.20549003 -0.15264238 0 0 Z " fill="#797880" transform="translate(121,130)"/>
<path d="M0 0 C1.1446875 0.495 1.1446875 0.495 2.3125 1 C4.99069135 2.17436686 4.99069135 2.17436686 8 2 C7.67 1.34 7.34 0.68 7 0 C13.6104333 1.34656975 19.06830376 3.81535981 25 7 C21.69564916 8.12377697 19.9493138 7.89554742 16.75 6.5625 C16.04359375 6.27503906 15.3371875 5.98757812 14.609375 5.69140625 C14.07828125 5.46324219 13.5471875 5.23507813 13 5 C13 5.99 13 6.98 13 8 C6.30533541 6.73344183 4.14711879 5.26796171 0 0 Z " fill="#4F5053" transform="translate(119,84)"/>
<path d="M0 0 C2.475 0.495 2.475 0.495 5 1 C5.24913692 3.74951111 5.47491836 6.4976272 5.6875 9.25 C5.76033203 10.02730469 5.83316406 10.80460937 5.90820312 11.60546875 C6.33135078 17.42997175 6.33135078 17.42997175 4.51953125 20.546875 C4.01808594 21.02640625 3.51664062 21.5059375 3 22 C3 19.36 3 16.72 3 14 C2.34 14 1.68 14 1 14 C0.67 9.38 0.34 4.76 0 0 Z " fill="#121314" transform="translate(68,92)"/>
<path d="M0 0 C6.56597864 6.56597864 5.05125872 23.5555399 5.0625 32.3125 C5.04689668 33.87506098 5.02817928 35.43761522 5 37 C3.10922024 33.73379743 2.56873514 30.90273943 2.1484375 27.16796875 C2.01953125 26.03939453 1.890625 24.91082031 1.7578125 23.74804688 C1.63148437 22.57306641 1.50515625 21.39808594 1.375 20.1875 C1.2409375 19.02412109 1.106875 17.86074219 0.96875 16.66210938 C0.34595696 11.07921458 -0.18043371 5.61804949 0 0 Z " fill="#919397" transform="translate(77,102)"/>
<path d="M0 0 C0 1.65 0 3.3 0 5 C0.721875 5.061875 1.44375 5.12375 2.1875 5.1875 C5.85380599 6.24665507 7.44214339 8.23474962 10 11 C10.66 11.33 11.32 11.66 12 12 C12 12.66 12 13.32 12 14 C11.01 14 10.02 14 9 14 C9 13.34 9 12.68 9 12 C8.01 12 7.02 12 6 12 C4.3125 10.5 4.3125 10.5 3 9 C3 10.65 3 12.3 3 14 C2.01 13.67 1.02 13.34 0 13 C0.33 11.68 0.66 10.36 1 9 C0.34 9 -0.32 9 -1 9 C-1.33 6.36 -1.66 3.72 -2 1 C-3.32 1.33 -4.64 1.66 -6 2 C-6 1.34 -6 0.68 -6 0 C-3.50907189 -1.24546405 -2.58919267 -0.7767578 0 0 Z " fill="#6C6B71" transform="translate(73,36)"/>
<path d="M0 0 C-1.423125 0.86625 -1.423125 0.86625 -2.875 1.75 C-6.31786548 3.86148203 -6.31786548 3.86148203 -8 8 C-11.3 8 -14.6 8 -18 8 C-17.67 7.01 -17.34 6.02 -17 5 C-15.35 5 -13.7 5 -12 5 C-12 3.35 -12 1.7 -12 0 C-11.67 0.66 -11.34 1.32 -11 2 C-10.01 2 -9.02 2 -8 2 C-8 1.34 -8 0.68 -8 0 C-2.25 -1.125 -2.25 -1.125 0 0 Z " fill="#4E4E55" transform="translate(137,107)"/>
<path d="M0 0 C0.88336837 2.4667645 1.1312406 3.63859372 0.22265625 6.140625 C-0.16019531 6.83671875 -0.54304688 7.5328125 -0.9375 8.25 C-1.31777344 8.95640625 -1.69804688 9.6628125 -2.08984375 10.390625 C-2.39019531 10.92171875 -2.69054687 11.4528125 -3 12 C-3.66 12 -4.32 12 -5 12 C-5.4021875 13.11375 -5.4021875 13.11375 -5.8125 14.25 C-6.94229421 16.86636554 -8.20893202 18.80187111 -10 21 C-10.33 20.34 -10.66 19.68 -11 19 C-11.66 19.66 -12.32 20.32 -13 21 C-12.42415568 18.61435923 -11.77772405 16.33317216 -11 14 C-10.36191406 13.87367187 -9.72382812 13.74734375 -9.06640625 13.6171875 C-8.38449219 13.41351563 -7.70257813 13.20984375 -7 13 C-5.74791249 10.79238025 -5.74791249 10.79238025 -4.9375 8.125 C-3.75843804 4.65359868 -2.8111839 2.40503552 0 0 Z " fill="#050606" transform="translate(109,104)"/>
<path d="M0 0 C2.97 0.495 2.97 0.495 6 1 C6 1.66 6 2.32 6 3 C6.99 2.67 7.98 2.34 9 2 C11.1875 2.4375 11.1875 2.4375 13 3 C13 3.66 13 4.32 13 5 C13.99 5.33 14.98 5.66 16 6 C13.21176345 7.0326802 12.1322726 7.04509293 9.25 6.0625 C8.5075 5.711875 7.765 5.36125 7 5 C7 5.99 7 6.98 7 8 C7.99 8 8.98 8 10 8 C10 8.99 10 9.98 10 11 C7 11 7 11 5 9.3125 C0 3.53125 0 3.53125 0 0 Z " fill="#5D5C61" transform="translate(134,94)"/>
<path d="M0 0 C0.66 0 1.32 0 2 0 C2 0.66 2 1.32 2 2 C3.65 1.67 5.3 1.34 7 1 C6.67 2.32 6.34 3.64 6 5 C6.66 5.33 7.32 5.66 8 6 C7.67 6.66 7.34 7.32 7 8 C6.01 8 5.02 8 4 8 C4 8.66 4 9.32 4 10 C3.01 10.33 2.02 10.66 1 11 C0.01 10.01 -0.98 9.02 -2 8 C-1.67 7.01 -1.34 6.02 -1 5 C-0.34 5.33 0.32 5.66 1 6 C0.34 4.35 -0.32 2.7 -1 1 C-0.67 0.67 -0.34 0.34 0 0 Z " fill="#202025" transform="translate(100,94)"/>
<path d="M0 0 C5.875 4.75 5.875 4.75 7 7 C9.52733235 7.65555119 9.52733235 7.65555119 12 8 C12 9.32 12 10.64 12 12 C11.34 12 10.68 12 10 12 C10 12.66 10 13.32 10 14 C7.03 13.505 7.03 13.505 4 13 C4 11.02 4 9.04 4 7 C2.68 6.34 1.36 5.68 0 5 C0 3.35 0 1.7 0 0 Z " fill="#1C1C1F" transform="translate(92,56)"/>
<path d="M0 0 C1.65 0 3.3 0 5 0 C5 2.31 5 4.62 5 7 C5.66 7 6.32 7 7 7 C7.33 6.01 7.66 5.02 8 4 C8.625 5.8125 8.625 5.8125 9 8 C8.01 9.485 8.01 9.485 7 11 C7 10.34 7 9.68 7 9 C6.34 9 5.68 9 5 9 C5 9.99 5 10.98 5 12 C4.01 12 3.02 12 2 12 C1.34 8.04 0.68 4.08 0 0 Z " fill="#302F35" transform="translate(63,157)"/>
<path d="M0 0 C0.928125 0.474375 1.85625 0.94875 2.8125 1.4375 C5.91196237 3.04488875 5.91196237 3.04488875 9 4 C9 3.34 9 2.68 9 2 C9.99 1.67 10.98 1.34 12 1 C12 2.32 12 3.64 12 5 C10.02 5.33 8.04 5.66 6 6 C6.33 9.3 6.66 12.6 7 16 C6.34 16.33 5.68 16.66 5 17 C4.87882812 16.14535156 4.75765625 15.29070312 4.6328125 14.41015625 C4.46523437 13.30542969 4.29765625 12.20070313 4.125 11.0625 C3.88136719 9.40927734 3.88136719 9.40927734 3.6328125 7.72265625 C3.42398438 6.82417969 3.21515625 5.92570312 3 5 C2.34 4.67 1.68 4.34 1 4 C0.67 4.99 0.34 5.98 0 7 C-0.38133299 5.0085944 -0.71325582 3.00720923 -1 1 C-0.67 0.67 -0.34 0.34 0 0 Z " fill="#45454B" transform="translate(95,100)"/>
<path d="M0 0 C0.66 0 1.32 0 2 0 C2 0.99 2 1.98 2 3 C2.66 3 3.32 3 4 3 C4.33 2.34 4.66 1.68 5 1 C5.66 3.97 6.32 6.94 7 10 C6.34 10 5.68 10 5 10 C5 10.66 5 11.32 5 12 C4.34 12 3.68 12 3 12 C2.67 10.35 2.34 8.7 2 7 C1.67 9.31 1.34 11.62 1 14 C0.34 14 -0.32 14 -1 14 C-0.67 9.38 -0.34 4.76 0 0 Z " fill="#17171A" transform="translate(84,120)"/>
<path d="M0 0 C2.64 0.99 5.28 1.98 8 3 C4.67149253 6.59478807 1.01028669 9.22364768 -3 12 C-3.66 11.67 -4.32 11.34 -5 11 C-4.67 10.01 -4.34 9.02 -4 8 C-3.34 8 -2.68 8 -2 8 C-2.33 7.01 -2.66 6.02 -3 5 C-1.5625 2.3125 -1.5625 2.3125 0 0 Z " fill="#454547" transform="translate(131,114)"/>
<path d="M0 0 C0.99 0.66 1.98 1.32 3 2 C2.34 2 1.68 2 1 2 C1 2.99 1 3.98 1 5 C-0.32 5.33 -1.64 5.66 -3 6 C-3 5.34 -3 4.68 -3 4 C-3.99 4.495 -3.99 4.495 -5 5 C-4.67 6.65 -4.34 8.3 -4 10 C-4.66 10 -5.32 10 -6 10 C-6.66 10.66 -7.32 11.32 -8 12 C-8.66 9.69 -9.32 7.38 -10 5 C-9.34 4.34 -8.68 3.68 -8 3 C-7.67 2.34 -7.34 1.68 -7 1 C-4.69 1.33 -2.38 1.66 0 2 C0 1.34 0 0.68 0 0 Z " fill="#151517" transform="translate(105,90)"/>
<path d="M0 0 C1.93395001 3.86790003 2.23289353 5.1500459 2.125 9.25 C2.10695313 10.14203125 2.08890625 11.0340625 2.0703125 11.953125 C2.03550781 12.96632812 2.03550781 12.96632812 2 14 C1.34 14 0.68 14 0 14 C-0.33 17.63 -0.66 21.26 -1 25 C-1.33 25 -1.66 25 -2 25 C-2.33 19.72 -2.66 14.44 -3 9 C-2.34 9 -1.68 9 -1 9 C-0.67 6.03 -0.34 3.06 0 0 Z " fill="#27282B" transform="translate(78,121)"/>
<path d="M0 0 C2 3 2 3 2 5 C2.66 5 3.32 5 4 5 C4.02705729 6.77074917 4.04642195 8.54161711 4.0625 10.3125 C4.07410156 11.29863281 4.08570312 12.28476563 4.09765625 13.30078125 C4 16 4 16 3 19 C1.35 19.33 -0.3 19.66 -2 20 C-2 19.34 -2 18.68 -2 18 C-1.01 18 -0.02 18 1 18 C0.84402344 16.78441406 0.68804687 15.56882812 0.52734375 14.31640625 C0.33044084 12.73180663 0.13384191 11.14716922 -0.0625 9.5625 C-0.2181543 8.35883789 -0.2181543 8.35883789 -0.37695312 7.13085938 C-0.62644343 5.09192132 -0.81780318 3.04604939 -1 1 C-0.67 0.67 -0.34 0.34 0 0 Z " fill="#81818B" transform="translate(64,61)"/>
<path d="M0 0 C0.66 0 1.32 0 2 0 C2.33 0.66 2.66 1.32 3 2 C4.32 2 5.64 2 7 2 C7 2.66 7 3.32 7 4 C6.34 4 5.68 4 5 4 C4.67 5.65 4.34 7.3 4 9 C3.01 8.34 2.02 7.68 1 7 C-0.65549531 6.61500109 -2.3222433 6.27206865 -4 6 C-3.67 4.68 -3.34 3.36 -3 2 C-2.01 2 -1.02 2 0 2 C0 1.34 0 0.68 0 0 Z " fill="#131315" transform="translate(95,77)"/>
<path d="M0 0 C0.99 0.495 0.99 0.495 2 1 C2.33333333 2.33333333 2.66666667 3.66666667 3 5 C3.66 5.33 4.32 5.66 5 6 C5 5.01 5 4.02 5 3 C4.34 3 3.68 3 3 3 C3 2.34 3 1.68 3 1 C4.65 0.67 6.3 0.34 8 0 C8.33 1.65 8.66 3.3 9 5 C8.34 5 7.68 5 7 5 C7.33 6.32 7.66 7.64 8 9 C7.21625 8.79375 6.4325 8.5875 5.625 8.375 C4.75875 8.25125 3.8925 8.1275 3 8 C2.34 8.66 1.68 9.32 1 10 C-0.1577506 6.52674819 -0.06866652 3.63932552 0 0 Z " fill="#3C3C45" transform="translate(88,114)"/>
<path d="M0 0 C1.9375 0.3125 1.9375 0.3125 4 1 C4.33 1.99 4.66 2.98 5 4 C4.34 4 3.68 4 3 4 C2.87882812 4.71027344 2.75765625 5.42054687 2.6328125 6.15234375 C2.46523437 7.07144531 2.29765625 7.99054688 2.125 8.9375 C1.96257812 9.85402344 1.80015625 10.77054688 1.6328125 11.71484375 C1.42398438 12.46894531 1.21515625 13.22304687 1 14 C0.01 14.495 0.01 14.495 -1 15 C-0.98259766 14.07767578 -0.98259766 14.07767578 -0.96484375 13.13671875 C-0.95582031 12.32847656 -0.94679688 11.52023438 -0.9375 10.6875 C-0.92589844 9.88699219 -0.91429688 9.08648437 -0.90234375 8.26171875 C-0.90342145 5.83138666 -0.90342145 5.83138666 -2 3 C-1.34 2.01 -0.68 1.02 0 0 Z " fill="#777880" transform="translate(91,121)"/>
<path d="M0 0 C0.515625 0.2475 1.03125 0.495 1.5625 0.75 C1.2325 1.74 0.9025 2.73 0.5625 3.75 C-1.0875 4.08 -2.7375 4.41 -4.4375 4.75 C-4.7675 5.74 -5.0975 6.73 -5.4375 7.75 C-7.0875 7.75 -8.7375 7.75 -10.4375 7.75 C-10.375 6 -10.375 6 -9.4375 3.75 C-6.51352389 1.40312444 -3.80385955 -0.39013944 0 0 Z " fill="#45454B" transform="translate(110.4375,125.25)"/>
<path d="M0 0 C1.65 0 3.3 0 5 0 C5 2.64 5 5.28 5 8 C2.625 8.125 2.625 8.125 0 8 C-0.66 7.34 -1.32 6.68 -2 6 C-2 5.01 -2 4.02 -2 3 C-1.34 3 -0.68 3 0 3 C0 2.01 0 1.02 0 0 Z " fill="#161618" transform="translate(111,96)"/>
<path d="M0 0 C-0.37994168 2.75457718 -0.8073633 3.82020574 -2.875 5.75 C-5 7 -5 7 -8 7 C-7.74438677 4.6568787 -7.40729228 2.32156597 -7 0 C-4.3333581 -1.33332095 -2.83319697 -0.67102033 0 0 Z " fill="#0C0C0D" transform="translate(152,103)"/>
<path d="M0 0 C3.125 0.375 3.125 0.375 6 1 C6 2.98 6 4.96 6 7 C5.01 7 4.02 7 3 7 C3 6.01 3 5.02 3 4 C2.01 4.495 2.01 4.495 1 5 C0.34227572 8.02934491 0.34227572 8.02934491 0 11 C-0.33 11 -0.66 11 -1 11 C-1.22174933 9.54364629 -1.42698698 8.08477044 -1.625 6.625 C-1.74101563 5.81289062 -1.85703125 5.00078125 -1.9765625 4.1640625 C-1.98429687 3.44992188 -1.99203125 2.73578125 -2 2 C-1.34 1.34 -0.68 0.68 0 0 Z " fill="#0E0E0F" transform="translate(92,87)"/>
<path d="M0 0 C1.32 0.33 2.64 0.66 4 1 C3.67 1.99 3.34 2.98 3 4 C2.34 4 1.68 4 1 4 C1 4.99 1 5.98 1 7 C0.34 7 -0.32 7 -1 7 C-1 7.66 -1 8.32 -1 9 C-2.65 9 -4.3 9 -6 9 C-4.47291037 5.56404834 -2.40072955 2.88087546 0 0 Z " fill="#0E0E10" transform="translate(101,133)"/>
<path d="M0 0 C0.70125 0.28875 1.4025 0.5775 2.125 0.875 C5.05452503 2.02133588 8.00921653 3.02625654 11 4 C11 2.68 11 1.36 11 0 C11.66 0 12.32 0 13 0 C12.67 1.65 12.34 3.3 12 5 C9.03 5 6.06 5 3 5 C2.67 5.66 2.34 6.32 2 7 C1.34 7 0.68 7 0 7 C-1.125 2.25 -1.125 2.25 0 0 Z " fill="#74747A" transform="translate(68,157)"/>
<path d="M0 0 C0.66 1.32 1.32 2.64 2 4 C-1.07999946 7.67230705 -3.2482602 8.56802365 -8 9 C-8 8.34 -8 7.68 -8 7 C-8.66 7 -9.32 7 -10 7 C-10 6.34 -10 5.68 -10 5 C-9.34 4.67 -8.68 4.34 -8 4 C-7.34 3.01 -6.68 2.02 -6 1 C-5.67 2.65 -5.34 4.3 -5 6 C-4.34 6 -3.68 6 -3 6 C-2.01 4.02 -1.02 2.04 0 0 Z " fill="#232326" transform="translate(99,131)"/>
<path d="M0 0 C0 3.55157911 -0.99418238 5.48763755 -2.5 8.6875 C-3.19609375 10.17830078 -3.19609375 10.17830078 -3.90625 11.69921875 C-4.2671875 12.45847656 -4.628125 13.21773437 -5 14 C-6.26237731 11.47524538 -6.09856404 9.68799534 -6.0625 6.875 C-6.05347656 5.96492188 -6.04445313 5.05484375 -6.03515625 4.1171875 C-6.02355469 3.41851562 -6.01195313 2.71984375 -6 2 C-4.02 1.34 -2.04 0.68 0 0 Z " fill="#191A1C" transform="translate(107,104)"/>
<path d="M0 0 C1.32 0.66 2.64 1.32 4 2 C3.67 3.98 3.34 5.96 3 8 C0.03 7.505 0.03 7.505 -3 7 C-2.67 5.35 -2.34 3.7 -2 2 C-1.34 2 -0.68 2 0 2 C0 1.34 0 0.68 0 0 Z " fill="#313136" transform="translate(102,84)"/>
<path d="M0 0 C0.66 0.33 1.32 0.66 2 1 C2 4.63 2 8.26 2 12 C1.67 11.01 1.34 10.02 1 9 C0.01 9 -0.98 9 -2 9 C-2.33 6.36 -2.66 3.72 -3 1 C-2.01 0.67 -1.02 0.34 0 0 Z " fill="#070808" transform="translate(108,86)"/>
<path d="M0 0 C3.3 1.65 6.6 3.3 10 5 C10 5.66 10 6.32 10 7 C10.639375 7.12375 11.27875 7.2475 11.9375 7.375 C12.618125 7.58125 13.29875 7.7875 14 8 C14.33 8.66 14.66 9.32 15 10 C13.02 10 11.04 10 9 10 C9 8.68 9 7.36 9 6 C7.35 6 5.7 6 4 6 C3.67 5.01 3.34 4.02 3 3 C2.01 2.67 1.02 2.34 0 2 C0 1.34 0 0.68 0 0 Z " fill="#87878A" transform="translate(95,58)"/>
<path d="M0 0 C0.33 0 0.66 0 1 0 C1.48828125 2.01822917 1.9765625 4.03645833 2.46484375 6.0546875 C2.94846992 8.0585657 2.94846992 8.0585657 4 10 C-0.75 9.25 -0.75 9.25 -3 7 C-3 5.68 -3 4.36 -3 3 C-3.66 2.67 -4.32 2.34 -5 2 C-2.525 2.495 -2.525 2.495 0 3 C0 2.01 0 1.02 0 0 Z " fill="#6A6A71" transform="translate(110,70)"/>
<path d="M0 0 C0.99 0.33 1.98 0.66 3 1 C3 2.32 3 3.64 3 5 C3.66 5.33 4.32 5.66 5 6 C4.01 6 3.02 6 2 6 C2 6.66 2 7.32 2 8 C2.66 8 3.32 8 4 8 C4 8.99 4 9.98 4 11 C1 10 1 10 -0.125 8.125 C-0.81761182 6.44294273 -1.4247585 4.72572449 -2 3 C-1.34 3 -0.68 3 0 3 C0 2.01 0 1.02 0 0 Z " fill="#202024" transform="translate(89,109)"/>
<path d="M0 0 C1.5778125 0.4021875 1.5778125 0.4021875 3.1875 0.8125 C0.26985 2.7576 -1.43787285 3.26526317 -4.8125 3.8125 C-4.895 4.43125 -4.9775 5.05 -5.0625 5.6875 C-5.8125 7.8125 -5.8125 7.8125 -7.875 9.0625 C-8.514375 9.31 -9.15375 9.5575 -9.8125 9.8125 C-9.51723074 6.36769195 -8.77188703 4.75755304 -6.6875 1.9375 C-3.8125 -0.1875 -3.8125 -0.1875 0 0 Z " fill="#656568" transform="translate(155.8125,104.1875)"/>
<path d="M0 0 C-1.78614318 1.03046722 -3.57910018 2.04913236 -5.375 3.0625 C-6.87160156 3.91521484 -6.87160156 3.91521484 -8.3984375 4.78515625 C-9.25695312 5.18605469 -10.11546875 5.58695312 -11 6 C-11.66 5.67 -12.32 5.34 -13 5 C-12.67 3.35 -12.34 1.7 -12 0 C-11.67 0.66 -11.34 1.32 -11 2 C-10.01 2 -9.02 2 -8 2 C-8 1.34 -8 0.68 -8 0 C-2.25 -1.125 -2.25 -1.125 0 0 Z " fill="#B0B2B5" transform="translate(137,107)"/>
<path d="M0 0 C0.66 0 1.32 0 2 0 C3.25664978 2.90600261 4 4.79604584 4 8 C2.68 8 1.36 8 0 8 C0 7.34 0 6.68 0 6 C-1.32 5.67 -2.64 5.34 -4 5 C-3.67 4.01 -3.34 3.02 -3 2 C-2.01 2 -1.02 2 0 2 C0 1.34 0 0.68 0 0 Z M1 5 C1 5.66 1 6.32 1 7 C1.66 7 2.32 7 3 7 C3 6.34 3 5.68 3 5 C2.34 5 1.68 5 1 5 Z " fill="#727276" transform="translate(111,81)"/>
<path d="M0 0 C-1.55961362 0.96302356 -3.12283225 1.92021004 -4.6875 2.875 C-5.55761719 3.40867188 -6.42773438 3.94234375 -7.32421875 4.4921875 C-9.83391082 5.90640814 -12.30299069 6.99894789 -15 8 C-15 7.34 -15 6.68 -15 6 C-14.01 6 -13.02 6 -12 6 C-11.67 5.01 -11.34 4.02 -11 3 C-9.35 2.67 -7.7 2.34 -6 2 C-6 1.34 -6 0.68 -6 0 C-3.50907189 -1.24546405 -2.58919267 -0.7767578 0 0 Z " fill="#BFBFC6" transform="translate(113,137)"/>
<path d="M0 0 C0.99 0 1.98 0 3 0 C3 2.31 3 4.62 3 7 C2.01 7.495 2.01 7.495 1 8 C0.34 8.99 -0.32 9.98 -1 11 C-1.125 3.375 -1.125 3.375 0 0 Z " fill="#0B0C0C" transform="translate(78,135)"/>
<path d="M0 0 C1.5 1.125 1.5 1.125 3 3 C3.45185216 6.53950857 3.42109443 8.33326715 1.5 11.375 C1.005 11.91125 0.51 12.4475 0 13 C0 10.36 0 7.72 0 5 C-0.66 5 -1.32 5 -2 5 C-1 2 -1 2 0 0 Z " fill="#2A2A2E" transform="translate(71,101)"/>
<path d="M0 0 C0.33 0 0.66 0 1 0 C1.33 1.98 1.66 3.96 2 6 C1.21625 6.28875 0.4325 6.5775 -0.375 6.875 C-3.09671632 7.84912254 -3.09671632 7.84912254 -5 10 C-4.67 7.69 -4.34 5.38 -4 3 C-3.01 3 -2.02 3 -1 3 C-0.67 2.01 -0.34 1.02 0 0 Z " fill="#131315" transform="translate(98,122)"/>
<path d="M0 0 C0.33 0 0.66 0 1 0 C1.19477739 1.62414378 1.38059458 3.24936423 1.5625 4.875 C1.66691406 5.77992187 1.77132812 6.68484375 1.87890625 7.6171875 C2 10 2 10 1 12 C0.34 12 -0.32 12 -1 12 C-1.144375 11.2575 -1.28875 10.515 -1.4375 9.75 C-1.90187492 7.47972261 -2.41863569 5.24240521 -3 3 C-2.01 3 -1.02 3 0 3 C0 2.01 0 1.02 0 0 Z " fill="#262629" transform="translate(85,98)"/>
<path d="M0 0 C1.0828125 0.495 1.0828125 0.495 2.1875 1 C5.01697427 2.00603529 7.02895466 2.16977402 10 2 C10.33 2.66 10.66 3.32 11 4 C9.865625 4.12375 8.73125 4.2475 7.5625 4.375 C5.7990625 4.684375 5.7990625 4.684375 4 5 C3.67 5.66 3.34 6.32 3 7 C3 6.01 3 5.02 3 4 C2.01 4 1.02 4 0 4 C-0.33 3.01 -0.66 2.02 -1 1 C-0.67 0.67 -0.34 0.34 0 0 Z " fill="#26262A" transform="translate(141,98)"/>
<path d="M0 0 C2.4375 0.75 2.4375 0.75 5 2 C6.50957612 5.1269791 5.82014807 7.71940773 5 11 C4.34 10.67 3.68 10.34 3 10 C2.65846063 8.33499557 2.32550502 6.66821323 2 5 C1.34 4.34 0.68 3.68 0 3 C0 2.01 0 1.02 0 0 Z " fill="#0A0B0C" transform="translate(119,100)"/>
<path d="M0 0 C0.66 0 1.32 0 2 0 C3.125 7.75 3.125 7.75 2 10 C2.66 10 3.32 10 4 10 C3.67 11.65 3.34 13.3 3 15 C1.08697693 11.73386305 0.64325339 9.00554752 0.375 5.25 C0.30023438 4.26515625 0.22546875 3.2803125 0.1484375 2.265625 C0.09945312 1.51796875 0.05046875 0.7703125 0 0 Z " fill="#27272B" transform="translate(85,85)"/>
<path d="M0 0 C0.33 0 0.66 0 1 0 C1.8320582 5.72040011 2.12036664 11.22240116 2 17 C1.01 16.67 0.02 16.34 -1 16 C-0.67 10.72 -0.34 5.44 0 0 Z " fill="#3B3B42" transform="translate(64,139)"/>
<path d="M0 0 C1.65 0 3.3 0 5 0 C5.66 2.31 6.32 4.62 7 7 C5.35 6.67 3.7 6.34 2 6 C1.33333333 4 0.66666667 2 0 0 Z " fill="#111112" transform="translate(132,110)"/>
<path d="M0 0 C0.598125 0.20625 1.19625 0.4125 1.8125 0.625 C1.8125 2.275 1.8125 3.925 1.8125 5.625 C-1.1575 5.13 -1.1575 5.13 -4.1875 4.625 C-4.5175 3.635 -4.8475 2.645 -5.1875 1.625 C-2.1875 -0.375 -2.1875 -0.375 0 0 Z " fill="#222226" transform="translate(108.1875,67.375)"/>
<path d="M0 0 C2 1 2 1 3 3 C0.29120665 4.35439668 -2.00933268 4.06501451 -5 4 C-5 4.66 -5 5.32 -5 6 C-5.99 6 -6.98 6 -8 6 C-7.67 4.68 -7.34 3.36 -7 2 C-5.02 2 -3.04 2 -1 2 C-0.67 1.34 -0.34 0.68 0 0 Z " fill="#36353A" transform="translate(134,103)"/>
<path d="M0 0 C0.33 0 0.66 0 1 0 C1.33 3.3 1.66 6.6 2 10 C0.35 10 -1.3 10 -3 10 C-2.67 8.35 -2.34 6.7 -2 5 C-1.34 5 -0.68 5 0 5 C0 3.35 0 1.7 0 0 Z " fill="#262629" transform="translate(83,86)"/>
<path d="M0 0 C0.99 0 1.98 0 3 0 C3 0.66 3 1.32 3 2 C3.66 2.33 4.32 2.66 5 3 C4.34 4.32 3.68 5.64 3 7 C2.01 7 1.02 7 0 7 C0 4.69 0 2.38 0 0 Z " fill="#242429" transform="translate(89,73)"/>
<path d="M0 0 C2.61273988 1.30636994 2.97236124 2.28409758 4 5 C4.125 8.25 4.125 8.25 4 11 C3.34 11 2.68 11 2 11 C1.87625 10.360625 1.7525 9.72125 1.625 9.0625 C1.41875 8.381875 1.2125 7.70125 1 7 C0.34 6.67 -0.32 6.34 -1 6 C-1 5.34 -1 4.68 -1 4 C-0.34 4 0.32 4 1 4 C0.67 2.68 0.34 1.36 0 0 Z " fill="#0A0A0B" transform="translate(90,103)"/>
<path d="M0 0 C0.33 0 0.66 0 1 0 C1.0272415 1.41655793 1.04650467 2.83327045 1.0625 4.25 C1.07410156 5.03890625 1.08570312 5.8278125 1.09765625 6.640625 C1.00385306 8.90691002 0.63241063 10.8288895 0 13 C-0.66 13 -1.32 13 -2 13 C-2.33 11.02 -2.66 9.04 -3 7 C-2.34 7 -1.68 7 -1 7 C-0.67 4.69 -0.34 2.38 0 0 Z " fill="#54545C" transform="translate(68,73)"/>
<path d="M0 0 C3 4 3 4 2.6875 7.75 C2.460625 8.8225 2.23375 9.895 2 11 C0.35 11.33 -1.3 11.66 -3 12 C-3 11.34 -3 10.68 -3 10 C-2.01 10 -1.02 10 0 10 C0 6.7 0 3.4 0 0 Z " fill="#92919E" transform="translate(65,69)"/>
<path d="M0 0 C0.61875 0.28875 1.2375 0.5775 1.875 0.875 C2.205 1.865 2.535 2.855 2.875 3.875 C-0.425 4.205 -3.725 4.535 -7.125 4.875 C-6.465 4.215 -5.805 3.555 -5.125 2.875 C-4.67125 2.318125 -4.2175 1.76125 -3.75 1.1875 C-2.125 -0.125 -2.125 -0.125 0 0 Z " fill="#3E3F43" transform="translate(109.125,116.125)"/>
<path d="M0 0 C0.99 1.485 0.99 1.485 2 3 C4.05003955 4.19232613 4.05003955 4.19232613 6 5 C5.67 5.66 5.34 6.32 5 7 C5.99 7.33 6.98 7.66 8 8 C5.69 8 3.38 8 1 8 C0.67 5.36 0.34 2.72 0 0 Z " fill="#1C1C1F" transform="translate(90,80)"/>
<path d="M0 0 C5.875 4.625 5.875 4.625 7 8 C6.01 8.33 5.02 8.66 4 9 C4 8.34 4 7.68 4 7 C2.68 6.34 1.36 5.68 0 5 C0 3.35 0 1.7 0 0 Z " fill="#36363A" transform="translate(92,56)"/>
<path d="M0 0 C0.99 0 1.98 0 3 0 C3.33 1.32 3.66 2.64 4 4 C4.66 3.67 5.32 3.34 6 3 C5.67 4.32 5.34 5.64 5 7 C3.68 7 2.36 7 1 7 C0.67 4.69 0.34 2.38 0 0 Z " fill="#232227" transform="translate(64,138)"/>
<path d="M0 0 C1.32 0.66 2.64 1.32 4 2 C4 1.34 4 0.68 4 0 C4.66 0.33 5.32 0.66 6 1 C4.29374499 3.78388975 3.52373261 4.85384206 0.3125 5.75 C-0.8321875 5.87375 -0.8321875 5.87375 -2 6 C-2 5.34 -2 4.68 -2 4 C-1.34 4 -0.68 4 0 4 C-0.33 3.01 -0.66 2.02 -1 1 C-0.67 0.67 -0.34 0.34 0 0 Z " fill="#0E0E0F" transform="translate(109,119)"/>
<path d="M0 0 C2.475 0.495 2.475 0.495 5 1 C5.33 2.98 5.66 4.96 6 7 C5.01 7.66 4.02 8.32 3 9 C3 6.69 3 4.38 3 2 C2.01 2.33 1.02 2.66 0 3 C0 2.01 0 1.02 0 0 Z " fill="#202024" transform="translate(81,75)"/>
<path d="M0 0 C0.66 0 1.32 0 2 0 C1.34 1.98 0.68 3.96 0 6 C-1.65 6.33 -3.3 6.66 -5 7 C-5 6.01 -5 5.02 -5 4 C-3.35 3.67 -1.7 3.34 0 3 C0 2.01 0 1.02 0 0 Z " fill="#313038" transform="translate(107,133)"/>
<path d="M0 0 C2.475 0.99 2.475 0.99 5 2 C5 2.66 5 3.32 5 4 C6.65 4.33 8.3 4.66 10 5 C9.01 5.33 8.02 5.66 7 6 C6.34 5.67 5.68 5.34 5 5 C4.67 5.66 4.34 6.32 4 7 C3.34 5.35 2.68 3.7 2 2 C1.34 2 0.68 2 0 2 C0 1.34 0 0.68 0 0 Z " fill="#26252A" transform="translate(143,92)"/>
<path d="M0 0 C1.32 0.33 2.64 0.66 4 1 C5.125 5.75 5.125 5.75 4 8 C1.44971017 6.72485508 1.06918289 5.59658703 0 3 C0 2.01 0 1.02 0 0 Z " fill="#313136" transform="translate(111,73)"/>
<path d="M0 0 C1 3 1 3 -0.4375 6.1875 C-1.2109375 7.5796875 -1.2109375 7.5796875 -2 9 C-2.66 8.67 -3.32 8.34 -4 8 C-3.67 7.01 -3.34 6.02 -3 5 C-3 3.68 -3 2.36 -3 1 C-2.01 0.67 -1.02 0.34 0 0 Z " fill="#51535B" transform="translate(89,133)"/>
<path d="M0 0 C0.66 0.99 1.32 1.98 2 3 C-2.625 6 -2.625 6 -6 6 C-6.33 4.68 -6.66 3.36 -7 2 C-6.401875 2.226875 -5.80375 2.45375 -5.1875 2.6875 C-4.465625 2.790625 -3.74375 2.89375 -3 3 C-1.22809091 1.64555699 -1.22809091 1.64555699 0 0 Z " fill="#232328" transform="translate(106,123)"/>
<path d="M0 0 C1.32 0 2.64 0 4 0 C4 0.99 4 1.98 4 3 C3.34 3 2.68 3 2 3 C2 3.99 2 4.98 2 6 C1.34 6 0.68 6 0 6 C-1.125 2.25 -1.125 2.25 0 0 Z " fill="#29292E" transform="translate(114,120)"/>
<path d="M0 0 C1.33897583 0.95043374 2.67105427 1.91059147 4 2.875 C5.11375 3.67550781 5.11375 3.67550781 6.25 4.4921875 C6.8275 4.98976563 7.405 5.48734375 8 6 C8 6.66 8 7.32 8 8 C7.01 8 6.02 8 5 8 C5 7.34 5 6.68 5 6 C4.01 6 3.02 6 2 6 C0 3 0 3 0 0 Z " fill="#908F95" transform="translate(77,42)"/>
<path d="M0 0 C1.65 0.33 3.3 0.66 5 1 C4.67 1.99 4.34 2.98 4 4 C2.35 4 0.7 4 -1 4 C-0.67 2.68 -0.34 1.36 0 0 Z " fill="#4A4A52" transform="translate(101,129)"/>
<path d="M0 0 C0.99 0.495 0.99 0.495 2 1 C2.75 4.4375 2.75 4.4375 3 8 C2.34 8.66 1.68 9.32 1 10 C-0.1577506 6.52674819 -0.06866652 3.63932552 0 0 Z " fill="#484850" transform="translate(88,114)"/>
<path d="M0 0 C0.66 0 1.32 0 2 0 C2 0.66 2 1.32 2 2 C1.34 2.66 0.68 3.32 0 4 C-0.144375 4.680625 -0.28875 5.36125 -0.4375 6.0625 C-0.623125 6.701875 -0.80875 7.34125 -1 8 C-1.99 8.33 -2.98 8.66 -4 9 C-4.33 8.34 -4.66 7.68 -5 7 C-4.67 6.34 -4.34 5.68 -4 5 C-3.34 5 -2.68 5 -2 5 C-1.7834375 4.0409375 -1.7834375 4.0409375 -1.5625 3.0625 C-1 1 -1 1 0 0 Z " fill="#151517" transform="translate(108,111)"/>
<path d="M0 0 C1.32 0 2.64 0 4 0 C4 0.66 4 1.32 4 2 C4.66 2 5.32 2 6 2 C6.33 2.99 6.66 3.98 7 5 C5.35 4.67 3.7 4.34 2 4 C2 3.34 2 2.68 2 2 C1.34 2 0.68 2 0 2 C0 1.34 0 0.68 0 0 Z " fill="#0E0E10" transform="translate(139,92)"/>
<path d="M0 0 C1.65 0.33 3.3 0.66 5 1 C3.68 1.33 2.36 1.66 1 2 C1 2.99 1 3.98 1 5 C-0.32 5 -1.64 5 -3 5 C-3 4.01 -3 3.02 -3 2 C-2.01 2 -1.02 2 0 2 C0 1.34 0 0.68 0 0 Z " fill="#57585C" transform="translate(87,62)"/>
<path d="M0 0 C0.33 0 0.66 0 1 0 C1.33 3.96 1.66 7.92 2 12 C-1 8 -1 8 -1.07421875 5.859375 C-0.53710938 2.9296875 -0.53710938 2.9296875 0 0 Z " fill="#A4A4AC" transform="translate(62,151)"/>
<path d="M0 0 C0.66 0.99 1.32 1.98 2 3 C0.68 4.32 -0.64 5.64 -2 7 C-2.33 5.68 -2.66 4.36 -3 3 C-2.01 2.67 -1.02 2.34 0 2 C0 1.34 0 0.68 0 0 Z " fill="#242328" transform="translate(81,140)"/>
<path d="M0 0 C0.99 0 1.98 0 3 0 C3.33 0.99 3.66 1.98 4 3 C3.01 3 2.02 3 1 3 C0.67 4.32 0.34 5.64 0 7 C-0.66 6.67 -1.32 6.34 -2 6 C-2 5.34 -2 4.68 -2 4 C-1.34 4 -0.68 4 0 4 C0 2.68 0 1.36 0 0 Z " fill="#2E2E34" transform="translate(97,115)"/>
<path d="M0 0 C3.3 0.33 6.6 0.66 10 1 C9.01 1.495 9.01 1.495 8 2 C8 2.66 8 3.32 8 4 C5.33333333 3.33333333 2.66666667 2.66666667 0 2 C0 1.34 0 0.68 0 0 Z " fill="#34353A" transform="translate(118,114)"/>
<path d="M0 0 C0.66 0 1.32 0 2 0 C2.33 1.65 2.66 3.3 3 5 C1.35 5 -0.3 5 -2 5 C-1.34 3.35 -0.68 1.7 0 0 Z " fill="#3B3B40" transform="translate(113,99)"/>
<path d="M0 0 C2 1 2 1 3.125 4.0625 C3.41375 5.031875 3.7025 6.00125 4 7 C3.34 7.66 2.68 8.32 2 9 C0 7 0 7 -0.125 3.375 C-0.08375 2.26125 -0.0425 1.1475 0 0 Z " fill="#131315" transform="translate(135,97)"/>
<path d="M0 0 C2 3 2 3 3 6 C3.66 6.33 4.32 6.66 5 7 C4.67 7.99 4.34 8.98 4 10 C3.01 9.67 2.02 9.34 1 9 C0.67 6.03 0.34 3.06 0 0 Z " fill="#1C1C1F" transform="translate(110,87)"/>
<path d="M0 0 C0.66 0 1.32 0 2 0 C2.66 1.32 3.32 2.64 4 4 C3.02149805 5.02104551 2.02019573 6.0206121 1 7 C0.67 7 0.34 7 0 7 C0 4.69 0 2.38 0 0 Z " fill="#161518" transform="translate(81,68)"/>
<path d="M0 0 C0.66 0 1.32 0 2 0 C3.76462683 3.08809695 4 4.23312136 4 8 C3.34 8 2.68 8 2 8 C0.74335022 5.09399739 0 3.20395416 0 0 Z " fill="#202023" transform="translate(80,59)"/>
<path d="M0 0 C1.74627478 2.61941217 2.38722388 4.03824877 3 7 C2.01 7.66 1.02 8.32 0 9 C-0.87890625 2.84765625 -0.87890625 2.84765625 -1 1 C-0.67 0.67 -0.34 0.34 0 0 Z " fill="#1C1D21" transform="translate(84,136)"/>
<path d="M0 0 C0.33 0 0.66 0 1 0 C1 3.63 1 7.26 1 11 C-0.32 10.34 -1.64 9.68 -3 9 C-2.34 8.34 -1.68 7.68 -1 7 C-0.59952556 4.67724823 -0.2602896 2.34260643 0 0 Z " fill="#3F3F44" transform="translate(73,129)"/>
<path d="M0 0 C1.32 0 2.64 0 4 0 C4 1.98 4 3.96 4 6 C3.01 6.495 3.01 6.495 2 7 C2 5.35 2 3.7 2 2 C1.34 2 0.68 2 0 2 C0 1.34 0 0.68 0 0 Z " fill="#0E0E10" transform="translate(65,136)"/>
<path d="M0 0 C0.33 0.66 0.66 1.32 1 2 C1.99 2.33 2.98 2.66 4 3 C3.01 4.32 2.02 5.64 1 7 C0.67 6.34 0.34 5.68 0 5 C-0.66 5.66 -1.32 6.32 -2 7 C-1.42415568 4.61435923 -0.77772405 2.33317216 0 0 Z " fill="#0B0C0D" transform="translate(98,118)"/>
<path d="M0 0 C1.65 0 3.3 0 5 0 C4.67 1.32 4.34 2.64 4 4 C3.01 4 2.02 4 1 4 C0.67 2.68 0.34 1.36 0 0 Z " fill="#1C1C1E" transform="translate(111,104)"/>
<path d="M0 0 C1.98 0 3.96 0 6 0 C6.33 0.66 6.66 1.32 7 2 C5.68 2 4.36 2 3 2 C3.33 3.32 3.66 4.64 4 6 C1.2160817 4.60804085 1.02101003 2.84424221 0 0 Z " fill="#161618" transform="translate(123,101)"/>
<path d="M0 0 C0.66 0 1.32 0 2 0 C2.33 1.98 2.66 3.96 3 6 C1.68 5.67 0.36 5.34 -1 5 C-0.67 3.35 -0.34 1.7 0 0 Z " fill="#26262A" transform="translate(93,91)"/>
<path d="M0 0 C5.875 3.75 5.875 3.75 7 6 C4.69 5.67 2.38 5.34 0 5 C0 3.33333333 0 1.66666667 0 0 Z " fill="#7F7F83" transform="translate(85,50)"/>
</svg>
