<?xml version="1.0" encoding="UTF-8"?>
<svg version="1.1" xmlns="http://www.w3.org/2000/svg" width="202" height="200">
<path d="M0 0 C1.65 0.33 3.3 0.66 5 1 C5 2.65 5 4.3 5 6 C6.65 6.33 8.3 6.66 10 7 C10 7.66 10 8.32 10 9 C10.56074219 9.24105469 11.12148437 9.48210938 11.69921875 9.73046875 C14.47443007 11.2617823 16.50031351 13.14596305 18.8125 15.3125 C23.27391965 19.3890896 27.62345768 23.33711638 33.078125 26.0234375 C39.14742893 29.01564678 42.87829134 32.85455766 47.15234375 38.0859375 C54.03271018 45.66747105 63.48050626 49.93743736 72.625 54.125 C79.70855804 57.39628516 86.48403697 60.692838 93 65 C93 67.25 93 67.25 92 70 C90.0813477 71.20139911 88.10573402 72.06360934 86.03515625 72.9765625 C83.77128176 73.97619083 83.77128176 73.97619083 81.6875 76.375 C78.40446906 79.58168138 74.90164745 81.33366323 70.859375 83.453125 C66.25692329 85.94297593 61.3046945 88.63852554 57.62255859 92.41137695 C55.90544326 94.0925791 54.12837615 95.42962319 52.1640625 96.8125 C51.06191406 97.58980469 51.06191406 97.58980469 49.9375 98.3828125 C49.174375 98.91648437 48.41125 99.45015625 47.625 100 C46.86960938 100.53367187 46.11421875 101.06734375 45.3359375 101.6171875 C34.83104011 109 34.83104011 109 31 109 C30.505 110.485 30.505 110.485 30 112 C28.01030767 113.02035504 26.00699249 114.01410895 24 115 C17.94077563 118.69763226 13.97765547 121.41781423 11 128 C9.33985384 128.36442233 7.67293936 128.69972883 6 129 C4.83046584 131.42383077 4.83046584 131.42383077 4 134 C0.77626323 136.14915785 -0.26703674 136.38286803 -4 136 C-4.66 135.34 -5.32 134.68 -6 134 C-5.9765625 131.8359375 -5.9765625 131.8359375 -5.625 129.375 C-5.51414063 128.55773437 -5.40328125 127.74046875 -5.2890625 126.8984375 C-5.19367187 126.27195312 -5.09828125 125.64546875 -5 125 C-5.66 125 -6.32 125 -7 125 C-6.83701416 123.85797119 -6.67402832 122.71594238 -6.50610352 121.53930664 C-5.69358412 114.17503782 -5.8768529 106.76920244 -5.90234375 99.37109375 C-5.90421197 97.76969955 -5.90563397 96.16830477 -5.90663147 94.56690979 C-5.91042481 90.37977482 -5.92022743 86.1926753 -5.93133545 82.0055542 C-5.94161848 77.72180663 -5.94614377 73.43805326 -5.95117188 69.15429688 C-5.96185297 60.7695151 -5.97889054 52.38476198 -6 44 C-4.515 43.505 -4.515 43.505 -3 43 C-3.16757813 42.07703125 -3.33515625 41.1540625 -3.5078125 40.203125 C-4.82132067 32.14281828 -5.11610444 24.5764542 -4.3125 16.4375 C-4.19575928 15.18984863 -4.19575928 15.18984863 -4.07666016 13.91699219 C-3.48955119 8.76498113 -2.27202583 4.66297312 0 0 Z " fill="#909093" transform="translate(68,35)"/>
<path d="M0 0 C5.30744893 7.96117339 5.81574753 15.18779885 4.5 24.5625 C4.335 25.366875 4.17 26.17125 4 27 C3.34 27 2.68 27 2 27 C2 27.66 2 28.32 2 29 C2.99 29.33 3.98 29.66 5 30 C5.02492221 34.67732363 5.04296415 39.35460767 5.05493164 44.03198242 C5.05992654 45.61955439 5.06672475 47.20712183 5.07543945 48.79467773 C5.16225376 65.02895258 5.16225376 65.02895258 4 73 C3.01 73 2.02 73 1 73 C1 75.64 1 78.28 1 81 C2.95894361 80.88693303 2.95894361 80.88693303 5 80 C6.29660434 77.50965614 6.29660434 77.50965614 7 75 C7.66 75 8.32 75 9 75 C8.9278125 74.15179688 8.855625 73.30359375 8.78125 72.4296875 C8.10755866 63.91497755 7.88315219 55.54287336 8 47 C8.66 47 9.32 47 10 47 C10.65655389 55.68761489 11.16311941 64.28217363 11 73 C11.99 72.505 11.99 72.505 13 72 C13.46898963 69.1840151 13.46898963 69.1840151 13.625 65.9375 C13.69976562 64.83277344 13.77453125 63.72804687 13.8515625 62.58984375 C13.90054688 61.73519531 13.94953125 60.88054687 14 60 C14.33 60 14.66 60 15 60 C15.59121632 63.41234151 16.1428896 66.82993631 16.6875 70.25 C16.85572266 71.21808594 17.02394531 72.18617188 17.19726562 73.18359375 C17.34228516 74.11816406 17.48730469 75.05273438 17.63671875 76.015625 C17.77811279 76.87446289 17.91950684 77.73330078 18.06518555 78.61816406 C17.98291615 81.62423248 16.9786668 82.80592278 15 85 C17.475 84.505 17.475 84.505 20 84 C19.8445874 83.43627686 19.6891748 82.87255371 19.52905273 82.29174805 C18.98887765 79.95182028 18.73161459 77.72439844 18.53515625 75.33203125 C18.45716797 74.43806641 18.37917969 73.54410156 18.29882812 72.62304688 C18.14293413 70.76906788 17.98923973 68.91490243 17.83789062 67.06054688 C17.3828458 61.89227353 16.62200052 56.98936648 15.41674805 51.94458008 C14.62911657 48.26942791 14.88133982 44.73779561 15 41 C15.99 41 16.98 41 18 41 C18.29003906 41.95712891 18.29003906 41.95712891 18.5859375 42.93359375 C18.84632812 43.75988281 19.10671875 44.58617187 19.375 45.4375 C19.63023438 46.26121094 19.88546875 47.08492187 20.1484375 47.93359375 C20.80882227 50.17798016 20.80882227 50.17798016 23 51 C23.80502219 53.46207518 24.49598315 55.86825139 25.125 58.375 C25.30675781 59.06078125 25.48851563 59.7465625 25.67578125 60.453125 C26.43346214 63.38130529 27 65.96334729 27 69 C26.34 69 25.68 69 25 69 C25 69.66 25 70.32 25 71 C24.34 71 23.68 71 23 71 C22.67 73.97 22.34 76.94 22 80 C22.66 80 23.32 80 24 80 C24 79.01 24 78.02 24 77 C24.78375 77.04125 25.5675 77.0825 26.375 77.125 C29.16116119 77.28728734 29.16116119 77.28728734 31 75 C31.33 75.33 31.66 75.66 32 76 C32.99 74.02 33.98 72.04 35 70 C35.66 70 36.32 70 37 70 C36.5875 69.13375 36.175 68.2675 35.75 67.375 C35 64 35 64 36.5625 60.625 C39 58 39 58 41.75 57.625 C42.86375 57.810625 42.86375 57.810625 44 58 C44 57.34 44 56.68 44 56 C44.99 56 45.98 56 47 56 C47.33 56.99 47.66 57.98 48 59 C45.525 59.495 45.525 59.495 43 60 C43 61.32 43 62.64 43 64 C44.65 64.33 46.3 64.66 48 65 C47.505 66.485 47.505 66.485 47 68 C44.525 68.495 44.525 68.495 42 69 C42 70.32 42 71.64 42 73 C42.99 72.34 43.98 71.68 45 71 C45.99 71 46.98 71 48 71 C48.33 70.34 48.66 69.68 49 69 C51.1796875 68.18359375 51.1796875 68.18359375 53.875 67.4375 C54.75929687 67.18871094 55.64359375 66.93992187 56.5546875 66.68359375 C57.36164063 66.45800781 58.16859375 66.23242188 59 66 C59.99 65.67 60.98 65.34 62 65 C62 65.66 62 66.32 62 67 C60.55859375 68.15625 60.55859375 68.15625 58.4375 69.5 C55.31830008 71.49986981 52.22270829 73.52048773 49.16796875 75.6171875 C48.501604 76.07158203 47.83523926 76.52597656 47.14868164 76.99414062 C45.81009363 77.90752629 44.47457859 78.82543344 43.14233398 79.74804688 C38.33723709 83 38.33723709 83 35 83 C34.505 84.485 34.505 84.485 34 86 C32.01030767 87.02035504 30.00699249 88.01410895 28 89 C21.94077563 92.69763226 17.97765547 95.41781423 15 102 C13.33985384 102.36442233 11.67293936 102.69972883 10 103 C8.83046584 105.42383077 8.83046584 105.42383077 8 108 C4.77626323 110.14915785 3.73296326 110.38286803 0 110 C-0.66 109.34 -1.32 108.68 -2 108 C-1.9765625 105.8359375 -1.9765625 105.8359375 -1.625 103.375 C-1.51414063 102.55773437 -1.40328125 101.74046875 -1.2890625 100.8984375 C-1.19367187 100.27195312 -1.09828125 99.64546875 -1 99 C-1.66 99 -2.32 99 -3 99 C-2.83701416 97.85797119 -2.67402832 96.71594238 -2.50610352 95.53930664 C-1.69358412 88.17503782 -1.8768529 80.76920244 -1.90234375 73.37109375 C-1.90421197 71.76969955 -1.90563397 70.16830477 -1.90663147 68.56690979 C-1.91042481 64.37977482 -1.92022743 60.1926753 -1.93133545 56.0055542 C-1.94161848 51.72180663 -1.94614377 47.43805326 -1.95117188 43.15429688 C-1.96185297 34.7695151 -1.97889054 26.38476198 -2 18 C-1.01 17.67 -0.02 17.34 1 17 C0.84402344 15.85660156 0.68804687 14.71320313 0.52734375 13.53515625 C0.33043941 12.04430907 0.13384056 10.55342153 -0.0625 9.0625 C-0.16626953 8.30775391 -0.27003906 7.55300781 -0.37695312 6.77539062 C-0.62665638 4.85525872 -0.81790281 2.92771856 -1 1 C-0.67 0.67 -0.34 0.34 0 0 Z " fill="#88898A" transform="translate(64,61)"/>
<path d="M0 0 C0.598125 0.20625 1.19625 0.4125 1.8125 0.625 C2.26822917 2.64322917 2.72395833 4.66145833 3.1796875 6.6796875 C3.71724428 8.83219964 3.71724428 8.83219964 5.8125 10.625 C6.34484805 12.04366575 6.81795406 13.48514218 7.25 14.9375 C8.37870094 18.51939787 9.78890724 21.44506852 11.8125 24.625 C11.8125 25.285 11.8125 25.945 11.8125 26.625 C12.8025 26.955 13.7925 27.285 14.8125 27.625 C14.8125 28.285 14.8125 28.945 14.8125 29.625 C16.1325 29.955 17.4525 30.285 18.8125 30.625 C19.01166016 32.10613281 19.01166016 32.10613281 19.21484375 33.6171875 C19.39144531 34.89851563 19.56804687 36.17984375 19.75 37.5 C20.01103516 39.41425781 20.01103516 39.41425781 20.27734375 41.3671875 C20.62683227 44.50059454 20.62683227 44.50059454 21.8125 46.625 C24.84184491 47.28272428 24.84184491 47.28272428 27.8125 47.625 C27.1525 49.275 26.4925 50.925 25.8125 52.625 C25.4825 51.965 25.1525 51.305 24.8125 50.625 C24.1525 50.625 23.4925 50.625 22.8125 50.625 C22.78541433 52.22907328 22.76606517 53.8332785 22.75 55.4375 C22.73839844 56.33082031 22.72679688 57.22414062 22.71484375 58.14453125 C22.70240033 60.75913791 22.70240033 60.75913791 23.8125 63.625 C22.3275 64.615 22.3275 64.615 20.8125 65.625 C19.38991188 61.80179443 18.57207724 58.71218695 18.8125 54.625 C18.1525 54.625 17.4925 54.625 16.8125 54.625 C16.8125 52.645 16.8125 50.665 16.8125 48.625 C16.1525 48.295 15.4925 47.965 14.8125 47.625 C14.6875 42.875 14.6875 42.875 15.8125 40.625 C14.83734536 37.6245242 14.0599649 35.8724649 11.8125 33.625 C12.4725 33.625 13.1325 33.625 13.8125 33.625 C13.4825 31.645 13.1525 29.665 12.8125 27.625 C12.1525 27.625 11.4925 27.625 10.8125 27.625 C10.75854522 29.24963842 10.71972805 30.87478541 10.6875 32.5 C10.66429688 33.40492187 10.64109375 34.30984375 10.6171875 35.2421875 C10.56925164 37.81306994 10.56925164 37.81306994 12.8125 39.625 C12.95343169 42.72549725 12.80675432 45.7743878 12.6875 48.875 C12.50948014 51.77149305 12.50948014 51.77149305 14.8125 53.625 C14.9375 57.25 14.9375 57.25 14.8125 60.625 C14.1525 60.625 13.4925 60.625 12.8125 60.625 C12.1525 59.965 11.4925 59.305 10.8125 58.625 C9.4925 59.285 8.1725 59.945 6.8125 60.625 C6.97621094 61.6871875 7.13992187 62.749375 7.30859375 63.84375 C8.0276081 69.5958648 7.91999889 75.33745098 7.875 81.125 C7.87048828 82.23359375 7.86597656 83.3421875 7.86132812 84.484375 C7.84963158 87.19797399 7.83324086 89.91145761 7.8125 92.625 C6.3275 93.12 6.3275 93.12 4.8125 93.625 C3.79963247 84.92519136 3.70628456 76.37007107 3.8125 67.625 C3.1525 67.625 2.4925 67.625 1.8125 67.625 C1.8846875 68.47320312 1.956875 69.32140625 2.03125 70.1953125 C2.70494134 78.71002245 2.92934781 87.08212664 2.8125 95.625 C1.8225 96.12 1.8225 96.12 0.8125 96.625 C0.4825 97.45 0.1525 98.275 -0.1875 99.125 C-1.1875 101.625 -1.1875 101.625 -3.1875 102.625 C-5.1875 101.625 -5.1875 101.625 -5.875 99.8125 C-6.21438538 97.43680233 -5.91606341 95.89164171 -5.1875 93.625 C-4.1975 93.625 -3.2075 93.625 -2.1875 93.625 C-2.1875 79.435 -2.1875 65.245 -2.1875 50.625 C-2.8475 50.295 -3.5075 49.965 -4.1875 49.625 C-4.1875 48.965 -4.1875 48.305 -4.1875 47.625 C-3.5275 47.625 -2.8675 47.625 -2.1875 47.625 C-2.13295591 45.27051325 -2.0935721 42.91732125 -2.0625 40.5625 C-2.03929688 39.25152344 -2.01609375 37.94054687 -1.9921875 36.58984375 C-2.23056917 31.75069587 -3.23966454 27.62598597 -5.3125 23.25 C-6.61331648 19.34755057 -6.39259063 15.70117631 -6.1875 11.625 C-6.14625 10.72265625 -6.105 9.8203125 -6.0625 8.890625 C-5.70288845 3.7062251 -5.70288845 3.7062251 -5.1875 1.625 C-2.1875 -0.375 -2.1875 -0.375 0 0 Z " fill="#858687" transform="translate(70.1875,40.375)"/>
<path d="M0 0 C2.81107407 1.82574914 5.39252935 3.8976949 8 6 C8.87978516 6.64195313 8.87978516 6.64195313 9.77734375 7.296875 C13.49467409 10.09623379 15.08597451 12.42987253 16 17 C15.67 17.66 15.34 18.32 15 19 C12.93359375 19.4140625 12.93359375 19.4140625 10.4375 19.625 C9.61121094 19.69976562 8.78492188 19.77453125 7.93359375 19.8515625 C6.97646484 19.92503906 6.97646484 19.92503906 6 20 C6 20.66 6 21.32 6 22 C5.01 22 4.02 22 3 22 C2.505 23.485 2.505 23.485 2 25 C-1.5625 26.1875 -1.5625 26.1875 -5 27 C-5 27.66 -5 28.32 -5 29 C-3.35 29 -1.7 29 0 29 C0 29.66 0 30.32 0 31 C0.78375 30.34 1.5675 29.68 2.375 29 C5 27 5 27 7 27 C7.33 25.68 7.66 24.36 8 23 C9.98 23 11.96 23 14 23 C14 22.34 14 21.68 14 21 C14.66 21 15.32 21 16 21 C16 20.34 16 19.68 16 19 C16.639375 18.896875 17.27875 18.79375 17.9375 18.6875 C18.618125 18.460625 19.29875 18.23375 20 18 C20.495 16.515 20.495 16.515 21 15 C20.01 15 19.02 15 18 15 C18 13.68 18 12.36 18 11 C18.66 11 19.32 11 20 11 C20 11.66 20 12.32 20 13 C20.99 13 21.98 13 23 13 C23 13.66 23 14.32 23 15 C24.98 15.33 26.96 15.66 29 16 C28.34 17.98 27.68 19.96 27 22 C26.34 22 25.68 22 25 22 C24.67 22.66 24.34 23.32 24 24 C23.01 24.495 23.01 24.495 22 25 C22 25.99 22 26.98 22 28 C19.7265625 29.61328125 19.7265625 29.61328125 16.625 31.3125 C12.63157889 33.52950491 8.72423624 35.79212781 4.875 38.25 C0.8299509 40.70036628 -3.03864799 42.07370129 -7.59375 43.27734375 C-11.32384992 44.3975848 -14.57503431 46.16066657 -18 48 C-17.67 46.35 -17.34 44.7 -17 43 C-14.525 42.505 -14.525 42.505 -12 42 C-12 41.01 -12 40.02 -12 39 C-13.32 38.67 -14.64 38.34 -16 38 C-16.33 36.68 -16.66 35.36 -17 34 C-15.35 33.34 -13.7 32.68 -12 32 C-12 31.34 -12 30.68 -12 30 C-12.99 30 -13.98 30 -15 30 C-15 30.66 -15 31.32 -15 32 C-15.94875 32.20625 -16.8975 32.4125 -17.875 32.625 C-21.23588294 33.70680927 -21.23588294 33.70680927 -22.4375 36.875 C-22.96158564 39.78658691 -23.04421849 41.28503193 -22 44 C-22.66 44 -23.32 44 -24 44 C-24.28875 44.969375 -24.5775 45.93875 -24.875 46.9375 C-26 50 -26 50 -28 51 C-30.70238949 46.94641576 -30.22937614 44.81689896 -30 40 C-29.67 39.34 -29.34 38.68 -29 38 C-28.34 38 -27.68 38 -27 38 C-26.855625 37.401875 -26.71125 36.80375 -26.5625 36.1875 C-26.1127561 34.43849596 -25.57107659 32.71322977 -25 31 C-22.9375 30.3125 -22.9375 30.3125 -21 30 C-20.92523438 29.39671875 -20.85046875 28.7934375 -20.7734375 28.171875 C-19.71228984 21.72176178 -19.71228984 21.72176178 -17.53125 19.51171875 C-15.875 18.4375 -15.875 18.4375 -13 17 C-13.33 18.98 -13.66 20.96 -14 23 C-13.01 23 -12.02 23 -11 23 C-11 22.34 -11 21.68 -11 21 C-10.01 20.67 -9.02 20.34 -8 20 C-7.67 19.34 -7.34 18.68 -7 18 C-7.66 17.67 -8.32 17.34 -9 17 C-8.34 17 -7.68 17 -7 17 C-7.33 14.03 -7.66 11.06 -8 8 C-7.34 8 -6.68 8 -6 8 C-6 7.34 -6 6.68 -6 6 C-6.66 6 -7.32 6 -8 6 C-7.625 3.0625 -7.625 3.0625 -7 0 C-4.13007732 -1.43496134 -3.07236191 -1.00185715 0 0 Z " fill="#8C8D8F" transform="translate(123,87)"/>
<path d="M0 0 C5.30744893 7.96117339 5.81574753 15.18779885 4.5 24.5625 C4.335 25.366875 4.17 26.17125 4 27 C3.34 27 2.68 27 2 27 C2 27.66 2 28.32 2 29 C2.99 29.33 3.98 29.66 5 30 C5.02492221 34.67732363 5.04296415 39.35460767 5.05493164 44.03198242 C5.05992654 45.61955439 5.06672475 47.20712183 5.07543945 48.79467773 C5.16225376 65.02895258 5.16225376 65.02895258 4 73 C3.01 73 2.02 73 1 73 C1 75.64 1 78.28 1 81 C2.95894361 80.88693303 2.95894361 80.88693303 5 80 C6.29660434 77.50965614 6.29660434 77.50965614 7 75 C7.66 75 8.32 75 9 75 C8.9278125 74.15179688 8.855625 73.30359375 8.78125 72.4296875 C8.10755866 63.91497755 7.88315219 55.54287336 8 47 C8.66 47 9.32 47 10 47 C10.34128465 51.08270842 10.67152387 55.1662427 11 59.25 C11.09539062 60.38953125 11.19078125 61.5290625 11.2890625 62.703125 C11.88173949 70.15392141 12.12268329 77.52654296 12 85 C10.68 84.01 9.36 83.02 8 82 C7.93941406 82.83144531 7.87882812 83.66289062 7.81640625 84.51953125 C7.73261719 85.60621094 7.64882812 86.69289063 7.5625 87.8125 C7.48128906 88.89144531 7.40007812 89.97039062 7.31640625 91.08203125 C7 94 7 94 6 97 C8.97 97.99 11.94 98.98 15 100 C15 98.68 15 97.36 15 96 C15.66 96 16.32 96 17 96 C16.34 97.98 15.68 99.96 15 102 C13.824375 102.0928125 13.824375 102.0928125 12.625 102.1875 C11.75875 102.455625 10.8925 102.72375 10 103 C8.83046584 105.42383077 8.83046584 105.42383077 8 108 C4.77626323 110.14915785 3.73296326 110.38286803 0 110 C-0.66 109.34 -1.32 108.68 -2 108 C-1.9765625 105.8359375 -1.9765625 105.8359375 -1.625 103.375 C-1.51414063 102.55773437 -1.40328125 101.74046875 -1.2890625 100.8984375 C-1.19367187 100.27195312 -1.09828125 99.64546875 -1 99 C-1.66 99 -2.32 99 -3 99 C-2.83701416 97.85797119 -2.67402832 96.71594238 -2.50610352 95.53930664 C-1.69358412 88.17503782 -1.8768529 80.76920244 -1.90234375 73.37109375 C-1.90421197 71.76969955 -1.90563397 70.16830477 -1.90663147 68.56690979 C-1.91042481 64.37977482 -1.92022743 60.1926753 -1.93133545 56.0055542 C-1.94161848 51.72180663 -1.94614377 47.43805326 -1.95117188 43.15429688 C-1.96185297 34.7695151 -1.97889054 26.38476198 -2 18 C-1.01 17.67 -0.02 17.34 1 17 C0.84402344 15.85660156 0.68804687 14.71320313 0.52734375 13.53515625 C0.33043941 12.04430907 0.13384056 10.55342153 -0.0625 9.0625 C-0.16626953 8.30775391 -0.27003906 7.55300781 -0.37695312 6.77539062 C-0.62665638 4.85525872 -0.81790281 2.92771856 -1 1 C-0.67 0.67 -0.34 0.34 0 0 Z " fill="#ADADB0" transform="translate(64,61)"/>
<path d="M0 0 C2.81107407 1.82574914 5.39252935 3.8976949 8 6 C8.87978516 6.64195313 8.87978516 6.64195313 9.77734375 7.296875 C13.49467409 10.09623379 15.08597451 12.42987253 16 17 C15.67 17.66 15.34 18.32 15 19 C8.25 18.25 8.25 18.25 6 16 C4.97695052 14.34738161 3.97383946 12.68208635 3 11 C1.68 11.99 0.36 12.98 -1 14 C-0.34 14.33 0.32 14.66 1 15 C1 15.99 1 16.98 1 18 C-0.32 18 -1.64 18 -3 18 C-2.67 18.66 -2.34 19.32 -2 20 C-1.01 20 -0.02 20 1 20 C0.67 21.32 0.34 22.64 0 24 C-0.763125 23.67 -1.52625 23.34 -2.3125 23 C-4.99069135 21.82563314 -4.99069135 21.82563314 -8 22 C-8.77426109 24.80764728 -8.77426109 24.80764728 -9 28 C-7.68864588 30.36290685 -7.68864588 30.36290685 -6 32 C-9.17320782 35.53586014 -11.16743695 37.58578031 -16 38 C-16.33 36.68 -16.66 35.36 -17 34 C-15.35 33.34 -13.7 32.68 -12 32 C-12 31.34 -12 30.68 -12 30 C-12.99 30 -13.98 30 -15 30 C-15 30.66 -15 31.32 -15 32 C-15.94875 32.20625 -16.8975 32.4125 -17.875 32.625 C-21.23588294 33.70680927 -21.23588294 33.70680927 -22.4375 36.875 C-22.96158564 39.78658691 -23.04421849 41.28503193 -22 44 C-22.66 44 -23.32 44 -24 44 C-24.28875 44.969375 -24.5775 45.93875 -24.875 46.9375 C-26 50 -26 50 -28 51 C-30.70238949 46.94641576 -30.22937614 44.81689896 -30 40 C-29.67 39.34 -29.34 38.68 -29 38 C-28.34 38 -27.68 38 -27 38 C-26.855625 37.401875 -26.71125 36.80375 -26.5625 36.1875 C-26.1127561 34.43849596 -25.57107659 32.71322977 -25 31 C-22.9375 30.3125 -22.9375 30.3125 -21 30 C-20.92523438 29.39671875 -20.85046875 28.7934375 -20.7734375 28.171875 C-19.71228984 21.72176178 -19.71228984 21.72176178 -17.53125 19.51171875 C-15.875 18.4375 -15.875 18.4375 -13 17 C-13.33 18.98 -13.66 20.96 -14 23 C-13.01 23 -12.02 23 -11 23 C-11 22.34 -11 21.68 -11 21 C-10.01 20.67 -9.02 20.34 -8 20 C-7.67 19.34 -7.34 18.68 -7 18 C-7.66 17.67 -8.32 17.34 -9 17 C-8.34 17 -7.68 17 -7 17 C-7.33 14.03 -7.66 11.06 -8 8 C-7.34 8 -6.68 8 -6 8 C-6 7.34 -6 6.68 -6 6 C-6.66 6 -7.32 6 -8 6 C-7.625 3.0625 -7.625 3.0625 -7 0 C-4.13007732 -1.43496134 -3.07236191 -1.00185715 0 0 Z M-8 27 C-7.34 27 -6.68 27 -6 27 C-6.33 27.66 -6.66 28.32 -7 29 C-7.33 28.34 -7.66 27.68 -8 27 Z " fill="#858586" transform="translate(123,87)"/>
<path d="M0 0 C0.66 0 1.32 0 2 0 C3.0625 1.8125 3.0625 1.8125 4 4 C3.67 4.99 3.34 5.98 3 7 C3.66 7.66 4.32 8.32 5 9 C6.41164374 13.23493122 5.6148266 15.91543861 4 20 C4.99 20.33 5.98 20.66 7 21 C6.67 22.98 6.34 24.96 6 27 C6.66 27 7.32 27 8 27 C8.19532961 28.7699868 8.38098882 30.54104279 8.5625 32.3125 C8.66691406 33.29863281 8.77132812 34.28476563 8.87890625 35.30078125 C9 38 9 38 8 41 C8.66 41 9.32 41 10 41 C10.33 42.65 10.66 44.3 11 46 C13.64 46.33 16.28 46.66 19 47 C18.67 44.03 18.34 41.06 18 38 C18.66 38 19.32 38 20 38 C20.19477739 39.62414378 20.38059458 41.24936423 20.5625 42.875 C20.66691406 43.77992187 20.77132812 44.68484375 20.87890625 45.6171875 C21 48 21 48 20 50 C19.01 50 18.02 50 17 50 C16.855625 50.598125 16.71125 51.19625 16.5625 51.8125 C16.1127561 53.56150404 15.57107659 55.28677023 15 57 C14.34 57 13.68 57 13 57 C13 61.62 13 66.24 13 71 C11.02 70.67 9.04 70.34 7 70 C7 70.99 7 71.98 7 73 C6.34 73 5.68 73 5 73 C3.86983399 67.97703996 4.22083908 64.02125926 5 59 C5.33 59 5.66 59 6 59 C6 60.65 6 62.3 6 64 C6.66 64 7.32 64 8 64 C8 63.34 8 62.68 8 62 C8.66 62 9.32 62 10 62 C9.79503906 61.45472656 9.59007813 60.90945312 9.37890625 60.34765625 C7.41324021 54.84567235 6.46218398 49.8235181 6 44 C5.01 43.67 4.02 43.34 3 43 C2.05078125 40.93359375 2.05078125 40.93359375 1.3125 38.4375 C1.06113281 37.61121094 0.80976562 36.78492188 0.55078125 35.93359375 C0.27814453 34.97646484 0.27814453 34.97646484 0 34 C-0.33 34 -0.66 34 -1 34 C-1.34567918 40.45267804 -0.44881264 46.14348589 0.85595703 52.46484375 C2.4441628 60.58191926 2.72312217 68.7509503 3 77 C0.525 77.495 0.525 77.495 -2 78 C-1.64292969 77.18789062 -1.28585938 76.37578125 -0.91796875 75.5390625 C0.24755935 71.04557969 -0.41426682 67.85687222 -1.3125 63.375 C-3.14308184 53.26526401 -3.68661916 43.25511781 -4 33 C-2.35 32.01 -0.7 31.02 1 30 C1.33 30.99 1.66 31.98 2 33 C2.66 33 3.32 33 4 33 C3.41825155 27.6913151 3.41825155 27.6913151 1 23 C0.875 20.37109375 0.875 20.37109375 1 17.4375 C1.16722696 14.56999516 1.16722696 14.56999516 1 12 C0.34 11.34 -0.32 10.68 -1 10 C-0.9765625 7.6171875 -0.9765625 7.6171875 -0.625 4.875 C-0.51414062 3.96492188 -0.40328125 3.05484375 -0.2890625 2.1171875 C-0.19367188 1.41851562 -0.09828125 0.71984375 0 0 Z " fill="#99999D" transform="translate(81,68)"/>
<path d="M0 0 C1.66611905 -0.042721 3.33382885 -0.04063832 5 0 C6 1 6 1 6.0625 3.5625 C6.041875 4.366875 6.02125 5.17125 6 6 C6.99 5.67 7.98 5.34 9 5 C9.40992187 5.56589844 9.81984375 6.13179687 10.2421875 6.71484375 C10.78101562 7.44832031 11.31984375 8.18179688 11.875 8.9375 C12.67550781 10.03384766 12.67550781 10.03384766 13.4921875 11.15234375 C14.88012104 13.11098235 14.88012104 13.11098235 17 14 C17 14.66 17 15.32 17 16 C17.66 16 18.32 16 19 16 C19 17.65 19 19.3 19 21 C20.32 21.66 21.64 22.32 23 23 C23 23.66 23 24.32 23 25 C23.5775 25.0825 24.155 25.165 24.75 25.25 C27.70520475 26.23506825 29.06482323 27.58102904 31 30 C31 31.32 31 32.64 31 34 C30.01 34 29.02 34 28 34 C28.33 34.66 28.66 35.32 29 36 C29.66 36 30.32 36 31 36 C31 40.29 31 44.58 31 49 C30.67 48.01 30.34 47.02 30 46 C29.01 46 28.02 46 27 46 C26.67 43.03 26.34 40.06 26 37 C21.05 37.495 21.05 37.495 16 38 C15.80377759 33.78121808 16.19769832 30.82989106 18 27 C17.01 27 16.02 27 15 27 C14.15615325 25.58957044 13.32530504 24.17135868 12.5 22.75 C12.0359375 21.96109375 11.571875 21.1721875 11.09375 20.359375 C10 18 10 18 10 14 C8.02 14 6.04 14 4 14 C4 12.68 4 11.36 4 10 C3.34 9.67 2.68 9.34 2 9 C2 8.01 2 7.02 2 6 C1.34 6 0.68 6 0 6 C-1.125 2.25 -1.125 2.25 0 0 Z " fill="#848586" transform="translate(79,49)"/>
<path d="M0 0 C3.35498321 1.8398295 6.27786479 3.98584052 9.25 6.375 C12.21460741 8.73688557 15.03202722 10.59849639 18.4375 12.25 C24.55704856 15.45496568 28.57413349 20.83915205 33 26 C33.98698645 27.01284636 34.98046172 28.01992771 36 29 C34.35 29 32.7 29 31 29 C30.24572703 33.97906259 30.24572703 33.97906259 30 39 C28.68 39 27.36 39 26 39 C25.67 37.68 25.34 36.36 25 35 C23.515 35.495 23.515 35.495 22 36 C22 35.01 22 34.02 22 33 C22.99 33 23.98 33 25 33 C23.82191948 29.6470016 22.80593388 27.2447471 20 25 C19.01 24.67 18.02 24.34 17 24 C17 23.34 17 22.68 17 22 C16.360625 21.896875 15.72125 21.79375 15.0625 21.6875 C14.0415625 21.3471875 14.0415625 21.3471875 13 21 C12 18 12 18 13 15 C12.34 15 11.68 15 11 15 C11 14.34 11 13.68 11 13 C10.4225 12.79375 9.845 12.5875 9.25 12.375 C7 11 7 11 4.9375 7.875 C4.298125 6.92625 3.65875 5.9775 3 5 C2.01 5 1.02 5 0 5 C0 3.35 0 1.7 0 0 Z " fill="#9D9CA1" transform="translate(85,50)"/>
<path d="M0 0 C5.30744893 7.96117339 5.81574753 15.18779885 4.5 24.5625 C4.335 25.366875 4.17 26.17125 4 27 C3.34 27 2.68 27 2 27 C2 27.66 2 28.32 2 29 C2.99 29.33 3.98 29.66 5 30 C5.04950115 34.76886487 5.08576738 39.53757959 5.10986328 44.30664062 C5.11991023 45.92841192 5.13355015 47.55016516 5.15087891 49.171875 C5.17518493 51.50525374 5.18649613 53.8383926 5.1953125 56.171875 C5.20563507 56.89493835 5.21595764 57.61800171 5.22659302 58.36297607 C5.22741782 62.07798039 5.06235471 64.84581045 3 68 C2.93941406 66.73542969 2.87882812 65.47085938 2.81640625 64.16796875 C2.73199096 62.50780129 2.64734345 60.84764563 2.5625 59.1875 C2.52318359 58.35412109 2.48386719 57.52074219 2.44335938 56.66210938 C2.38051758 55.45844727 2.38051758 55.45844727 2.31640625 54.23046875 C2.27974854 53.49207764 2.24309082 52.75368652 2.20532227 51.99291992 C2.05157859 49.792505 2.05157859 49.792505 1 47 C0.67 56.57 0.34 66.14 0 76 C-0.33 76 -0.66 76 -1 76 C-1.70327725 56.65613473 -2.16350883 37.35944577 -2 18 C-1.01 17.67 -0.02 17.34 1 17 C0.84402344 15.85660156 0.68804687 14.71320313 0.52734375 13.53515625 C0.33043941 12.04430907 0.13384056 10.55342153 -0.0625 9.0625 C-0.16626953 8.30775391 -0.27003906 7.55300781 -0.37695312 6.77539062 C-0.62665638 4.85525872 -0.81790281 2.92771856 -1 1 C-0.67 0.67 -0.34 0.34 0 0 Z " fill="#9F9FA4" transform="translate(64,61)"/>
<path d="M0 0 C4.42323682 0.58265272 7.5155864 2.26766211 11.3125 4.5625 C12.91544922 5.52349609 12.91544922 5.52349609 14.55078125 6.50390625 C15.35902344 6.99761719 16.16726562 7.49132812 17 8 C16.734375 10.375 16.734375 10.375 16 13 C14.328125 14.1875 14.328125 14.1875 12.25 15 C8.33974027 16.70986268 5.94514948 18.88160644 3 22 C2.34 22 1.68 22 1 22 C0.67 21.01 0.34 20.02 0 19 C1.98 18.34 3.96 17.68 6 17 C6.33 15.35 6.66 13.7 7 12 C5.35 11.34 3.7 10.68 2 10 C2 9.34 2 8.68 2 8 C1.01 8 0.02 8 -1 8 C-1 7.34 -1 6.68 -1 6 C-1.66 6 -2.32 6 -3 6 C-3 7.32 -3 8.64 -3 10 C-2.01 10 -1.02 10 0 10 C-0.33 11.32 -0.66 12.64 -1 14 C-2.32 14 -3.64 14 -5 14 C-5 14.66 -5 15.32 -5 16 C-5.66 16 -6.32 16 -7 16 C-7 16.66 -7 17.32 -7 18 C-8.98 18 -10.96 18 -13 18 C-13.061875 18.5775 -13.12375 19.155 -13.1875 19.75 C-14.33384174 22.92448483 -16.25956842 24.12848575 -19 26 C-19.66 26 -20.32 26 -21 26 C-21 25.34 -21 24.68 -21 24 C-22.65 24 -24.3 24 -26 24 C-26 23.34 -26 22.68 -26 22 C-23.69 21.34 -21.38 20.68 -19 20 C-19 18.35 -19 16.7 -19 15 C-18.67 15.66 -18.34 16.32 -18 17 C-17.01 17 -16.02 17 -15 17 C-15 16.34 -15 15.68 -15 15 C-10.545 14.505 -10.545 14.505 -6 14 C-6.33 11.69 -6.66 9.38 -7 7 C-4.32521756 5.3372974 -2.0004856 4.00016187 1 3 C1.33 2.34 1.66 1.68 2 1 C1.34 0.67 0.68 0.34 0 0 Z " fill="#B8B8BB" transform="translate(144,92)"/>
<path d="M0 0 C3.45574116 2.67034544 3.86931309 5.92952713 5 10 C5.66 10.33 6.32 10.66 7 11 C7.80502219 13.46207518 8.49598315 15.86825139 9.125 18.375 C9.30675781 19.06078125 9.48851563 19.7465625 9.67578125 20.453125 C10.43346214 23.38130529 11 25.96334729 11 29 C10.34 29 9.68 29 9 29 C9 29.66 9 30.32 9 31 C8.34 31 7.68 31 7 31 C5.97296252 36.55493924 5.97296252 36.55493924 7 42 C6.01 42.66 5.02 43.32 4 44 C3.20032175 41.09935265 2.78125513 38.32889509 2.53515625 35.33203125 C2.45716797 34.43806641 2.37917969 33.54410156 2.29882812 32.62304688 C2.14293413 30.76906788 1.98923973 28.91490243 1.83789062 27.06054688 C1.38284892 21.89230893 0.62511782 16.98544184 -0.57885742 11.94018555 C-1.08670794 9.60054028 -1.23447467 7.3914376 -1.1875 5 C-1.18105469 4.2575 -1.17460938 3.515 -1.16796875 2.75 C-1 1 -1 1 0 0 Z " fill="#848586" transform="translate(80,101)"/>
<path d="M0 0 C2.86961279 1.42337367 5.7131402 2.88935767 8.546875 4.3828125 C9.39121094 4.82753906 10.23554688 5.27226563 11.10546875 5.73046875 C12.41451172 6.42076172 12.41451172 6.42076172 13.75 7.125 C15.08224609 7.82689453 15.08224609 7.82689453 16.44140625 8.54296875 C18.62780078 9.69494006 20.81399144 10.84729647 23 12 C23 12.66 23 13.32 23 14 C23.66 14 24.32 14 25 14 C25 15.32 25 16.64 25 18 C18.375 19 18.375 19 15 19 C13.2866438 17.72722111 11.63072616 16.37705764 10 15 C6.43043818 12.22689214 2.90796806 9.52964803 -1 7.25 C-1.66 6.8375 -2.32 6.425 -3 6 C-3 4 -3 4 -1 2 C-0.67 1.34 -0.34 0.68 0 0 Z " fill="#9B9A9E" transform="translate(121,79)"/>
<path d="M0 0 C0.66 0 1.32 0 2 0 C2 0.66 2 1.32 2 2 C2.99 2 3.98 2 5 2 C5 2.66 5 3.32 5 4 C7.97 4.495 7.97 4.495 11 5 C10.34 6.98 9.68 8.96 9 11 C8.34 11 7.68 11 7 11 C6.67 11.66 6.34 12.32 6 13 C5.01 13.495 5.01 13.495 4 14 C4 14.99 4 15.98 4 17 C1.8828125 18.640625 1.8828125 18.640625 -0.875 20.25 C-1.77992188 20.79140625 -2.68484375 21.3328125 -3.6171875 21.890625 C-4.40351563 22.25671875 -5.18984375 22.6228125 -6 23 C-6.66 22.67 -7.32 22.34 -8 22 C-7.34 21.01 -6.68 20.02 -6 19 C-6 17.68 -6 16.36 -6 15 C-6.99 14.34 -7.98 13.68 -9 13 C-7.35 12.67 -5.7 12.34 -4 12 C-4 11.34 -4 10.68 -4 10 C-3.34 10 -2.68 10 -2 10 C-2 9.34 -2 8.68 -2 8 C-1.360625 7.896875 -0.72125 7.79375 -0.0625 7.6875 C0.9584375 7.3471875 0.9584375 7.3471875 2 7 C2.33 6.01 2.66 5.02 3 4 C2.01 4 1.02 4 0 4 C0 2.68 0 1.36 0 0 Z " fill="#88888A" transform="translate(141,98)"/>
<path d="M0 0 C0.33 0 0.66 0 1 0 C1 1.98 1 3.96 1 6 C1.804375 5.814375 2.60875 5.62875 3.4375 5.4375 C4.7059375 5.2209375 4.7059375 5.2209375 6 5 C7 6 7 6 7.02734375 8.65234375 C6.96751709 10.8399185 6.90502318 13.02742195 6.83984375 15.21484375 C6.69828666 18.14185102 6.69828666 18.14185102 9 20 C9.125 23.625 9.125 23.625 9 27 C8.34 27 7.68 27 7 27 C6.34 26.34 5.68 25.68 5 25 C3.68 25 2.36 25 1 25 C-0.33106125 21.00681626 -0.13647721 17.16255487 0 13 C0.33 12.67 0.66 12.34 1 12 C0.34 11.67 -0.32 11.34 -1 11 C-1.125 3.375 -1.125 3.375 0 0 Z " fill="#89898A" transform="translate(76,74)"/>
<path d="M0 0 C1.67542976 0.28604898 3.34385343 0.61781233 5 1 C5 2.65 5 4.3 5 6 C6.65 6.33 8.3 6.66 10 7 C10 7.66 10 8.32 10 9 C10.8971875 9.433125 10.8971875 9.433125 11.8125 9.875 C14 11 14 11 17 13 C16.67 13.66 16.34 14.32 16 15 C13.525 14.505 13.525 14.505 11 14 C11 15.98 11 17.96 11 20 C11.66 20 12.32 20 13 20 C13 20.99 13 21.98 13 23 C13.99 23.33 14.98 23.66 16 24 C15.34 24.99 14.68 25.98 14 27 C14 26.01 14 25.02 14 24 C13.34 24 12.68 24 12 24 C12.33 25.65 12.66 27.3 13 29 C11 28 11 28 10.21875 26.07421875 C9.9815625 25.28660156 9.744375 24.49898437 9.5 23.6875 C8.33680414 19.86286144 6.88092981 16.51715689 4.875 13.0625 C3.82559469 10.58890178 3.85219641 8.66046462 4 6 C2.02 6.33 0.04 6.66 -2 7 C-1.125 1.125 -1.125 1.125 0 0 Z " fill="#8C8C8E" transform="translate(68,35)"/>
<path d="M0 0 C0.33 0 0.66 0 1 0 C1.144375 1.134375 1.28875 2.26875 1.4375 3.4375 C1.61171478 6.80777201 1.61171478 6.80777201 3 8 C3.33 6.02 3.66 4.04 4 2 C4.66 2 5.32 2 6 2 C6.99935649 9.4594824 7.13842707 16.92320805 7.1875 24.4375 C7.20039062 25.40896973 7.21328125 26.38043945 7.2265625 27.38134766 C7.22849609 28.76845947 7.22849609 28.76845947 7.23046875 30.18359375 C7.23457764 31.01431396 7.23868652 31.84503418 7.24291992 32.70092773 C6.9782197 35.20613576 6.25592945 36.83502277 5 39 C4.93941406 37.73542969 4.87882812 36.47085938 4.81640625 35.16796875 C4.73199096 33.50780129 4.64734345 31.84764563 4.5625 30.1875 C4.52318359 29.35412109 4.48386719 28.52074219 4.44335938 27.66210938 C4.38051758 26.45844727 4.38051758 26.45844727 4.31640625 25.23046875 C4.27974854 24.49207764 4.24309082 23.75368652 4.20532227 22.99291992 C4.05157859 20.792505 4.05157859 20.792505 3 18 C2.67 27.57 2.34 37.14 2 47 C1.67 47 1.34 47 1 47 C0.85436989 42.71746778 0.7121456 38.43483835 0.57275391 34.15209961 C0.5251326 32.70252612 0.47666321 31.25298018 0.42724609 29.8034668 C0.089145 19.86398469 -0.06509273 9.94562596 0 0 Z " fill="#DFE0E1" transform="translate(62,90)"/>
<path d="M0 0 C1.65 0.33 3.3 0.66 5 1 C5.33 1.99 5.66 2.98 6 4 C6 3.34 6 2.68 6 2 C6.66 2 7.32 2 8 2 C8.33 2.99 8.66 3.98 9 5 C7.6875 6.5 7.6875 6.5 6 8 C5.01 8 4.02 8 3 8 C3.33 11.3 3.66 14.6 4 18 C1.36 17.67 -1.28 17.34 -4 17 C-4.33 15.35 -4.66 13.7 -5 12 C-5.66 12 -6.32 12 -7 12 C-6.8125 10.125 -6.8125 10.125 -6 8 C-3.4375 6.75 -3.4375 6.75 -1 6 C-0.67 6.33 -0.34 6.66 0 7 C0 4.69 0 2.38 0 0 Z " fill="#8B8B8E" transform="translate(96,97)"/>
<path d="M0 0 C0.99 0 1.98 0 3 0 C3.33 0.99 3.66 1.98 4 3 C2.35 3.33 0.7 3.66 -1 4 C-1 5.32 -1 6.64 -1 8 C0.65 8.33 2.3 8.66 4 9 C3.67 9.99 3.34 10.98 3 12 C2.21625 12.0825 1.4325 12.165 0.625 12.25 C-0.24125 12.4975 -1.1075 12.745 -2 13 C-2.6837045 14.32467746 -3.34964186 15.65863633 -4 17 C-6.625 18.25 -6.625 18.25 -9 19 C-9 17.35 -9 15.7 -9 14 C-8.34 14 -7.68 14 -7 14 C-7.4125 13.13375 -7.825 12.2675 -8.25 11.375 C-9 8 -9 8 -7.4375 4.625 C-5 2 -5 2 -2.25 1.625 C-1.13625 1.810625 -1.13625 1.810625 0 2 C0 1.34 0 0.68 0 0 Z " fill="#9D9DA1" transform="translate(108,117)"/>
<path d="M0 0 C0.495 0.99 0.495 0.99 1 2 C-1.00271956 3.33514638 -3.00604886 4.66928441 -5.01171875 6 C-7.29524793 7.5283228 -9.56616468 9.07088013 -11.83203125 10.625 C-13.17967828 11.54168023 -14.52733455 12.45834687 -15.875 13.375 C-16.52927979 13.82794434 -17.18355957 14.28088867 -17.85766602 14.74755859 C-22.6616452 18 -22.6616452 18 -26 18 C-26.33 18.99 -26.66 19.98 -27 21 C-28.65 21.33 -30.3 21.66 -32 22 C-31.34 21.67 -30.68 21.34 -30 21 C-30 20.34 -30 19.68 -30 19 C-29.34 19 -28.68 19 -28 19 C-28 18.01 -28 17.02 -28 16 C-27.30132812 15.86464844 -26.60265625 15.72929687 -25.8828125 15.58984375 C-20.64419775 14.60058258 -20.64419775 14.60058258 -16.890625 11.2421875 C-16.26901699 9.10650786 -16.26901699 9.10650786 -16 6 C-15.01 6 -14.02 6 -13 6 C-12.67 5.34 -12.34 4.68 -12 4 C-9.78515625 3.18359375 -9.78515625 3.18359375 -7.0625 2.4375 C-3.44202679 1.450487 -3.44202679 1.450487 0 0 Z " fill="#9C9BA2" transform="translate(125,126)"/>
<path d="M0 0 C0.70125 0.721875 1.4025 1.44375 2.125 2.1875 C4.92770745 4.99823813 7.92262792 7.49516226 11 10 C9 11 9 11 6 11 C5.24572703 15.97906259 5.24572703 15.97906259 5 21 C3.68 21 2.36 21 1 21 C0.67 19.68 0.34 18.36 0 17 C-0.99 17.33 -1.98 17.66 -3 18 C-3 17.01 -3 16.02 -3 15 C-2.01 15 -1.02 15 0 15 C-0.66 12.69 -1.32 10.38 -2 8 C-0.35 7.67 1.3 7.34 3 7 C3 6.34 3 5.68 3 5 C2.34 5 1.68 5 1 5 C0.67 3.35 0.34 1.7 0 0 Z " fill="#B2B2B6" transform="translate(110,68)"/>
<path d="M0 0 C3.43145346 3.43145346 3.1339645 7.85423511 3.31640625 12.51953125 C3.35830078 13.54111328 3.40019531 14.56269531 3.44335938 15.61523438 C3.48267578 16.67033203 3.52199219 17.72542969 3.5625 18.8125 C3.60568359 19.88693359 3.64886719 20.96136719 3.69335938 22.06835938 C3.79910983 24.71212082 3.90120233 27.3559711 4 30 C3.01 30 2.02 30 1 30 C0.67 35.28 0.34 40.56 0 46 C-0.33 46 -0.66 46 -1 46 C-1.07955483 35.88438281 -0.82938884 25.79575815 -0.5 15.6875 C-0.45163644 14.15690692 -0.40345828 12.62630798 -0.35546875 11.09570312 C-0.23910907 7.39706552 -0.12026644 3.69851288 0 0 Z " fill="#B0AFB6" transform="translate(64,104)"/>
<path d="M0 0 C3.81088479 2.77155257 4.01507017 6.63816788 5 11 C5.33 11.33 5.66 11.66 6 12 C6 12.66 6 13.32 6 14 C5.34 14.66 4.68 15.32 4 16 C4.20254646 17.62037165 4.41820444 19.24041998 4.70703125 20.84765625 C5.25540138 24.8763488 5.07347682 28.94244693 5 33 C4.34 33 3.68 33 3 33 C2.91435791 32.44538086 2.82871582 31.89076172 2.74047852 31.31933594 C2.34972442 28.79592464 1.95614074 26.27296253 1.5625 23.75 C1.42779297 22.87730469 1.29308594 22.00460938 1.15429688 21.10546875 C1.02216797 20.26113281 0.89003906 19.41679688 0.75390625 18.546875 C0.63345947 17.77182617 0.5130127 16.99677734 0.38891602 16.19824219 C0.02684194 13.99879033 0.02684194 13.99879033 -0.53881836 11.86108398 C-1.09085427 9.63336047 -1.1325785 7.60499738 -1.125 5.3125 C-1.12757812 4.52488281 -1.13015625 3.73726563 -1.1328125 2.92578125 C-1 1 -1 1 0 0 Z " fill="#848586" transform="translate(80,101)"/>
<path d="M0 0 C2.67134521 2.67134521 2.9132213 5.4116331 3.5625 9 C3.69180908 9.69609375 3.82111816 10.3921875 3.9543457 11.109375 C5.38228903 19.35362363 5.71976051 27.65079583 6 36 C3.525 36.495 3.525 36.495 1 37 C1.35835938 36.19820312 1.71671875 35.39640625 2.0859375 34.5703125 C3.27179845 29.9383599 2.53839981 26.499173 1.625 21.875 C0.30089881 14.50599621 -0.40464449 7.50840331 0 0 Z " fill="#BEBEC2" transform="translate(78,109)"/>
<path d="M0 0 C0.66 0 1.32 0 2 0 C3.0625 1.8125 3.0625 1.8125 4 4 C3.67 4.99 3.34 5.98 3 7 C3.66 7.66 4.32 8.32 5 9 C5.6875 11.5625 5.6875 11.5625 6 14 C5.67 14.33 5.34 14.66 5 15 C5.06482148 17.08607309 5.20244935 19.17006513 5.375 21.25 C5.51035156 22.95929688 5.51035156 22.95929688 5.6484375 24.703125 C5.93852464 27.90674479 5.93852464 27.90674479 6.53515625 30.65234375 C7.22541525 34.13844171 7.06013583 37.45198624 7 41 C4.36619645 37.04929467 4.19983282 33.45592487 3.5625 28.8125 C3.14731391 25.80849191 3.14731391 25.80849191 1 23 C0.875 20.37109375 0.875 20.37109375 1 17.4375 C1.16722696 14.56999516 1.16722696 14.56999516 1 12 C0.34 11.34 -0.32 10.68 -1 10 C-0.9765625 7.6171875 -0.9765625 7.6171875 -0.625 4.875 C-0.51414062 3.96492188 -0.40328125 3.05484375 -0.2890625 2.1171875 C-0.19367188 1.41851562 -0.09828125 0.71984375 0 0 Z " fill="#B1B2B4" transform="translate(81,68)"/>
<path d="M0 0 C2 0.25 2 0.25 4 1 C4.33 1.99 4.66 2.98 5 4 C4.34 4 3.68 4 3 4 C3 8.62 3 13.24 3 18 C1.02 17.67 -0.96 17.34 -3 17 C-3 17.99 -3 18.98 -3 20 C-3.66 20 -4.32 20 -5 20 C-6.13016601 14.97703996 -5.77916092 11.02125926 -5 6 C-4.67 6 -4.34 6 -4 6 C-4 7.65 -4 9.3 -4 11 C-3.34 11 -2.68 11 -2 11 C-2 10.34 -2 9.68 -2 9 C-1.34 9 -0.68 9 0 9 C-0.33 7.35 -0.66 5.7 -1 4 C-0.01 4 0.98 4 2 4 C1.16666667 1.83333333 1.16666667 1.83333333 -1 1 C-0.67 0.67 -0.34 0.34 0 0 Z " fill="#A0A0A5" transform="translate(91,121)"/>
<path d="M0 0 C0.33 0 0.66 0 1 0 C1 1.98 1 3.96 1 6 C2.65 6 4.3 6 6 6 C5.71125 6.53625 5.4225 7.0725 5.125 7.625 C3.56411033 10.92021153 2 14.31322114 2 18 C3.32 18 4.64 18 6 18 C6.33 16.68 6.66 15.36 7 14 C7.99 14 8.98 14 10 14 C10 13.01 10 12.02 10 11 C12.31 11 14.62 11 17 11 C17 11.33 17 11.66 17 12 C15.824375 12.0928125 15.824375 12.0928125 14.625 12.1875 C13.75875 12.455625 12.8925 12.72375 12 13 C10.83046584 15.42383077 10.83046584 15.42383077 10 18 C6.77626323 20.14915785 5.73296326 20.38286803 2 20 C1.34 19.34 0.68 18.68 0 18 C0.0234375 15.8359375 0.0234375 15.8359375 0.375 13.375 C0.48585937 12.55773437 0.59671875 11.74046875 0.7109375 10.8984375 C0.80632813 10.27195313 0.90171875 9.64546875 1 9 C0.34 9 -0.32 9 -1 9 C-0.67 6.03 -0.34 3.06 0 0 Z " fill="#C3C2C8" transform="translate(62,151)"/>
<path d="M0 0 C3.30081791 1.61897259 6.52557433 3.35924309 9.75 5.125 C11.22726563 5.93324219 11.22726563 5.93324219 12.734375 6.7578125 C13.48203125 7.16773437 14.2296875 7.57765625 15 8 C12.92446352 8.5534764 11.15634036 9 9 9 C8.67 8.34 8.34 7.68 8 7 C8 8.32 8 9.64 8 11 C8.66 11.66 9.32 12.32 10 13 C6.55251042 12.35952602 4.15355815 11.00294981 1.25 9.0625 C0.45078125 8.53785156 -0.3484375 8.01320313 -1.171875 7.47265625 C-1.77515625 6.98667969 -2.3784375 6.50070313 -3 6 C-3 4 -3 4 -1 2 C-0.67 1.34 -0.34 0.68 0 0 Z " fill="#A6A6A9" transform="translate(121,79)"/>
<path d="M0 0 C2.31 0.66 4.62 1.32 7 2 C6.34 3.98 5.68 5.96 5 8 C4.34 8 3.68 8 3 8 C2.67 8.66 2.34 9.32 2 10 C1.01 10.495 1.01 10.495 0 11 C0 11.66 0 12.32 0 13 C-2.31 13.33 -4.62 13.66 -7 14 C-7.33 12.68 -7.66 11.36 -8 10 C-7.030625 9.690625 -6.06125 9.38125 -5.0625 9.0625 C-2.15934208 8.30476658 -2.15934208 8.30476658 -1 7 C-0.63239269 4.67182036 -0.29758419 2.3381615 0 0 Z " fill="#858586" transform="translate(145,101)"/>
<path d="M0 0 C3.35498321 1.8398295 6.27786479 3.98584052 9.25 6.375 C13.02205648 9.36989912 16.85104041 11.70493029 21.15234375 13.859375 C23 15 23 15 25 18 C23.02 18 21.04 18 19 18 C19 16.68 19 15.36 19 14 C17.35 14 15.7 14 14 14 C13.67 13.01 13.34 12.02 13 11 C11.00458132 10.31974363 9.00382009 9.65509503 7 9 C5.31110128 7.6949419 3.6396721 6.36639342 2 5 C1.34 5 0.68 5 0 5 C0 3.35 0 1.7 0 0 Z " fill="#C3C3C5" transform="translate(85,50)"/>
<path d="M0 0 C0.33 0 0.66 0 1 0 C1.12375 1.134375 1.2475 2.26875 1.375 3.4375 C1.58125 4.613125 1.7875 5.78875 2 7 C2.66 7.33 3.32 7.66 4 8 C4.125 15.75 4.125 15.75 3 18 C2.84530633 20.17674783 2.74997894 22.3578348 2.68359375 24.5390625 C2.64169922 25.84101562 2.59980469 27.14296875 2.55664062 28.484375 C2.51682701 29.86458045 2.47711478 31.24478883 2.4375 32.625 C2.39430593 34.01303415 2.35069135 35.40105528 2.30664062 36.7890625 C2.20028 40.19260256 2.09825286 43.59621778 2 47 C1.67 47 1.34 47 1 47 C0.85436989 42.71746778 0.7121456 38.43483835 0.57275391 34.15209961 C0.5251326 32.70252612 0.47666321 31.25298018 0.42724609 29.8034668 C0.089145 19.86398469 -0.06509273 9.94562596 0 0 Z " fill="#CDCDD1" transform="translate(62,90)"/>
<path d="M0 0 C1.67542976 0.28604898 3.34385343 0.61781233 5 1 C5 2.65 5 4.3 5 6 C6.65 6.33 8.3 6.66 10 7 C10 7.66 10 8.32 10 9 C10.8971875 9.433125 10.8971875 9.433125 11.8125 9.875 C14 11 14 11 17 13 C16.67 13.66 16.34 14.32 16 15 C12.99408312 14.02510804 11.34009578 13.46253026 9.4375 10.875 C8.963125 10.25625 8.48875 9.6375 8 9 C6.68 9 5.36 9 4 9 C4 8.01 4 7.02 4 6 C2.02 6.33 0.04 6.66 -2 7 C-1.125 1.125 -1.125 1.125 0 0 Z " fill="#CCCBCF" transform="translate(68,35)"/>
<path d="M0 0 C1.60568666 0.28317926 3.20952047 0.57687791 4.8125 0.875 C6.15248047 1.11863281 6.15248047 1.11863281 7.51953125 1.3671875 C10 2 10 2 13 4 C12.67 5.65 12.34 7.3 12 9 C10.02 9 8.04 9 6 9 C6.33 8.01 6.66 7.02 7 6 C6.05125 5.690625 5.1025 5.38125 4.125 5.0625 C1 4 1 4 -1 3 C-0.67 2.01 -0.34 1.02 0 0 Z " fill="#A6A6A9" transform="translate(148,96)"/>
<path d="M0 0 C2.9375 0.75 2.9375 0.75 6 2 C6.875 4.125 6.875 4.125 7 6 C6.34 6 5.68 6 5 6 C4.71125 6.969375 4.4225 7.93875 4.125 8.9375 C3 12 3 12 1 13 C-1.70238949 8.94641576 -1.22937614 6.81689896 -1 2 C-0.67 1.34 -0.34 0.68 0 0 Z " fill="#858587" transform="translate(94,125)"/>
<path d="M0 0 C0.515625 0.2475 1.03125 0.495 1.5625 0.75 C1.2325 1.74 0.9025 2.73 0.5625 3.75 C-0.613125 3.87375 -0.613125 3.87375 -1.8125 4 C-3.111875 4.37125 -3.111875 4.37125 -4.4375 4.75 C-5.1212045 6.07467746 -5.78714186 7.40863633 -6.4375 8.75 C-9.0625 10 -9.0625 10 -11.4375 10.75 C-11.4375 9.1 -11.4375 7.45 -11.4375 5.75 C-10.7775 5.75 -10.1175 5.75 -9.4375 5.75 C-9.4375 5.09 -9.4375 4.43 -9.4375 3.75 C-3.0375 -0.31153846 -3.0375 -0.31153846 0 0 Z " fill="#A3A3A7" transform="translate(110.4375,125.25)"/>
<path d="M0 0 C1.9375 0.5625 1.9375 0.5625 4 2 C5.00227105 6.34317457 5.10838961 10.55602598 5 15 C2.625 14.75 2.625 14.75 0 14 C-1.375 12.125 -1.375 12.125 -2 10 C-1.67 9.01 -1.34 8.02 -1 7 C-0.67 7.33 -0.34 7.66 0 8 C0 5.36 0 2.72 0 0 Z " fill="#929395" transform="translate(111,92)"/>
<path d="M0 0 C0.33 0 0.66 0 1 0 C1 2.97 1 5.94 1 9 C0.34 9 -0.32 9 -1 9 C-1.04898438 9.71027344 -1.09796875 10.42054688 -1.1484375 11.15234375 C-1.22320312 12.07144531 -1.29796875 12.99054688 -1.375 13.9375 C-1.47941406 15.31228516 -1.47941406 15.31228516 -1.5859375 16.71484375 C-1.72257812 17.46894531 -1.85921875 18.22304687 -2 19 C-2.66 19.33 -3.32 19.66 -4 20 C-4.054348 17.9377952 -4.09294961 15.87517184 -4.125 13.8125 C-4.14820312 12.66394531 -4.17140625 11.51539063 -4.1953125 10.33203125 C-4.00484152 7.08259628 -3.39360127 4.91339479 -2 2 C-1.34 2 -0.68 2 0 2 C0 1.34 0 0.68 0 0 Z " fill="#A2A2A6" transform="translate(73,134)"/>
<path d="M0 0 C0.33 0 0.66 0 1 0 C1.33 2.97 1.66 5.94 2 9 C2.99 8.67 3.98 8.34 5 8 C5.08333357 12.8333472 4.95261487 17.23692563 4 22 C3.01 21.67 2.02 21.34 1 21 C0.14626761 13.97195301 -0.12109311 7.07721931 0 0 Z " fill="#8F8F91" transform="translate(68,92)"/>
<path d="M0 0 C1.11375 0.556875 1.11375 0.556875 2.25 1.125 C2.25 1.785 2.25 2.445 2.25 3.125 C3.57 3.785 4.89 4.445 6.25 5.125 C5.198125 5.516875 4.14625 5.90875 3.0625 6.3125 C-0.67791983 7.88741361 -2.9614542 10.17710873 -5.75 13.125 C-6.41 13.125 -7.07 13.125 -7.75 13.125 C-8.08 12.135 -8.41 11.145 -8.75 10.125 C-6.77 9.465 -4.79 8.805 -2.75 8.125 C-2.42 6.475 -2.09 4.825 -1.75 3.125 C-4.225 2.135 -4.225 2.135 -6.75 1.125 C-4.02098495 -0.69434337 -3.21400584 -1.02263822 0 0 Z " fill="#A1A0A3" transform="translate(152.75,100.875)"/>
<path d="M0 0 C4.26289034 6.39433551 4.26289034 6.39433551 4.1875 11 C4.18105469 11.86625 4.17460938 12.7325 4.16796875 13.625 C4 16 4 16 3 19 C1.35 19.33 -0.3 19.66 -2 20 C-1.505 18.515 -1.505 18.515 -1 17 C-0.34 17 0.32 17 1 17 C0.84402344 15.85660156 0.68804687 14.71320313 0.52734375 13.53515625 C0.33043941 12.04430907 0.13384056 10.55342153 -0.0625 9.0625 C-0.16626953 8.30775391 -0.27003906 7.55300781 -0.37695312 6.77539062 C-0.62665638 4.85525872 -0.81790281 2.92771856 -1 1 C-0.67 0.67 -0.34 0.34 0 0 Z " fill="#C4C4CA" transform="translate(64,61)"/>
<path d="M0 0 C1.65 0 3.3 0 5 0 C1.60133279 3.82350061 -2.43530459 6.71296575 -7 9 C-7.99 9 -8.98 9 -10 9 C-10.33 9.99 -10.66 10.98 -11 12 C-12.65 12.33 -14.3 12.66 -16 13 C-15.34 12.67 -14.68 12.34 -14 12 C-14 11.34 -14 10.68 -14 10 C-13.34 10 -12.68 10 -12 10 C-12 9.01 -12 8.02 -12 7 C-10.95199219 6.74476563 -10.95199219 6.74476563 -9.8828125 6.484375 C-8.51769531 6.12085938 -8.51769531 6.12085938 -7.125 5.75 C-6.22007813 5.51796875 -5.31515625 5.2859375 -4.3828125 5.046875 C-1.85042396 4.20085821 -1.85042396 4.20085821 -0.6796875 1.890625 C-0.45539063 1.26671875 -0.23109375 0.6428125 0 0 Z " fill="#CECED2" transform="translate(109,135)"/>
<path d="M0 0 C1.65 0.33 3.3 0.66 5 1 C5 2.32 5 3.64 5 5 C4.01 5 3.02 5 2 5 C2 5.66 2 6.32 2 7 C2.66 7.33 3.32 7.66 4 8 C2.68 8.33 1.36 8.66 0 9 C0 9.99 0 10.98 0 12 C-1.65 12 -3.3 12 -5 12 C-3.68 11.67 -2.36 11.34 -1 11 C-1.20625 9.741875 -1.4125 8.48375 -1.625 7.1875 C-2.21335669 3.5985242 -2.16617415 3.24926122 0 0 Z " fill="#939396" transform="translate(116,78)"/>
<path d="M0 0 C0.33 0 0.66 0 1 0 C1.33 4.62 1.66 9.24 2 14 C1.34 14 0.68 14 0 14 C-0.33 18.29 -0.66 22.58 -1 27 C-2.32 26.67 -3.64 26.34 -5 26 C-4.505 24.515 -4.505 24.515 -4 23 C-3.67 23 -3.34 23 -3 23 C-2.93941406 22.28972656 -2.87882812 21.57945312 -2.81640625 20.84765625 C-2.69072266 19.46900391 -2.69072266 19.46900391 -2.5625 18.0625 C-2.48128906 17.14597656 -2.40007812 16.22945312 -2.31640625 15.28515625 C-2 13 -2 13 -1 12 C-0.76572222 9.98405418 -0.58663876 7.961526 -0.4375 5.9375 C-0.35371094 4.83277344 -0.26992187 3.72804688 -0.18359375 2.58984375 C-0.12300781 1.73519531 -0.06242187 0.88054687 0 0 Z " fill="#8F8F92" transform="translate(78,121)"/>
<path d="M0 0 C0.33 1.32 0.66 2.64 1 4 C1.66 3.67 2.32 3.34 3 3 C3.33 2.01 3.66 1.02 4 0 C5.32 0.66 6.64 1.32 8 2 C8 4.31 8 6.62 8 9 C7.34 9 6.68 9 6 9 C5.34 8.34 4.68 7.68 4 7 C2.68 7 1.36 7 0 7 C-0.38133299 5.0085944 -0.71325582 3.00720923 -1 1 C-0.67 0.67 -0.34 0.34 0 0 Z " fill="#919194" transform="translate(77,92)"/>
<path d="M0 0 C-0.34021964 3.17538332 -1.02466604 4.02276865 -3.4375 6.25 C-6 8 -6 8 -8 8 C-8 7.34 -8 6.68 -8 6 C-9.65 6 -11.3 6 -13 6 C-13 5.34 -13 4.68 -13 4 C-12.113125 3.71125 -11.22625 3.4225 -10.3125 3.125 C-8.2714776 2.43182258 -6.24503517 1.69115075 -4.25 0.875 C-2 0 -2 0 0 0 Z " fill="#A7A7AC" transform="translate(131,110)"/>
<path d="M0 0 C4.60853797 0.72008406 8.67237409 2.31295939 13 4 C13 5.32 13 6.64 13 8 C11.02 8 9.04 8 7 8 C6.938125 7.071875 6.938125 7.071875 6.875 6.125 C6.58625 5.42375 6.2975 4.7225 6 4 C3.00384054 2.6954344 3.00384054 2.6954344 0 2 C0 1.34 0 0.68 0 0 Z " fill="#878788" transform="translate(133,89)"/>
<path d="M0 0 C0.66 0.66 1.32 1.32 2 2 C1.9559884 4.50572698 1.81431775 6.88977057 1.5625 9.375 C0.90516057 15.25021564 0.90516057 15.25021564 2 21 C1.01 21.66 0.02 22.32 -1 23 C-2.17571451 19.32589215 -2.07366746 15.83070817 -2 12 C-1.34 12 -0.68 12 0 12 C0 8.04 0 4.08 0 0 Z " fill="#949498" transform="translate(85,122)"/>
<path d="M0 0 C0.33 0 0.66 0 1 0 C1 1.65 1 3.3 1 5 C1.66 5 2.32 5 3 5 C3 5.66 3 6.32 3 7 C4.32 7.33 5.64 7.66 7 8 C6.01 8.33 5.02 8.66 4 9 C4.061875 10.423125 4.061875 10.423125 4.125 11.875 C4 15 4 15 2 17 C0.7017874 11.23918159 -0.25706972 5.91260345 0 0 Z " fill="#A5A4AA" transform="translate(62,83)"/>
<path d="M0 0 C2 0.25 2 0.25 4 1 C4.33 1.99 4.66 2.98 5 4 C4.34 4 3.68 4 3 4 C2.87882812 4.71027344 2.75765625 5.42054687 2.6328125 6.15234375 C2.46523437 7.07144531 2.29765625 7.99054688 2.125 8.9375 C1.96257812 9.85402344 1.80015625 10.77054688 1.6328125 11.71484375 C1.42398438 12.46894531 1.21515625 13.22304687 1 14 C0.01 14.495 0.01 14.495 -1 15 C-1 11.37 -1 7.74 -1 4 C-0.01 4 0.98 4 2 4 C1.16666667 1.83333333 1.16666667 1.83333333 -1 1 C-0.67 0.67 -0.34 0.34 0 0 Z " fill="#BABBBF" transform="translate(91,121)"/>
<path d="M0 0 C0.66 0 1.32 0 2 0 C2.19477739 1.62414378 2.38059458 3.24936423 2.5625 4.875 C2.66691406 5.77992187 2.77132812 6.68484375 2.87890625 7.6171875 C3 10 3 10 2 12 C-0.32156597 12.40729228 -2.6568787 12.74438677 -5 13 C-4.34 11.68 -3.68 10.36 -3 9 C-1.68 9 -0.36 9 1 9 C0.67 6.03 0.34 3.06 0 0 Z " fill="#A9A9AF" transform="translate(99,106)"/>
<path d="M0 0 C0.66 0 1.32 0 2 0 C2.33 0.99 2.66 1.98 3 3 C5.97 3.33 8.94 3.66 12 4 C10.68 4.33 9.36 4.66 8 5 C8 5.99 8 6.98 8 8 C6.02 8 4.04 8 2 8 C0.74335022 5.09399739 0 3.20395416 0 0 Z " fill="#98989B" transform="translate(80,59)"/>
<path d="M0 0 C0.33 0 0.66 0 1 0 C1 1.98 1 3.96 1 6 C2.65 6 4.3 6 6 6 C5.71125 6.556875 5.4225 7.11375 5.125 7.6875 C3.9586747 10.08494645 2.9660119 12.51596939 2 15 C1.67 15 1.34 15 1 15 C1 13.02 1 11.04 1 9 C0.34 9 -0.32 9 -1 9 C-0.67 6.03 -0.34 3.06 0 0 Z " fill="#9F9EA2" transform="translate(62,151)"/>
<path d="M0 0 C1.65 0 3.3 0 5 0 C5 3.63 5 7.26 5 11 C4.67 10.01 4.34 9.02 4 8 C3.01 8 2.02 8 1 8 C0.67 5.36 0.34 2.72 0 0 Z " fill="#808081" transform="translate(105,87)"/>
<path d="M0 0 C-0.33 1.98 -0.66 3.96 -1 6 C-3.97 5.505 -3.97 5.505 -7 5 C-6.625 2.5625 -6.625 2.5625 -6 0 C-3.50907189 -1.24546405 -2.58919267 -0.7767578 0 0 Z " fill="#9C9CA0" transform="translate(106,86)"/>
<path d="M0 0 C1.65 0 3.3 0 5 0 C5 1.32 5 2.64 5 4 C5.99 3.67 6.98 3.34 8 3 C8.33 3.99 8.66 4.98 9 6 C2.84765625 6.09765625 2.84765625 6.09765625 1 6 C0 5 0 5 -0.0625 2.4375 C-0.041875 1.633125 -0.02125 0.82875 0 0 Z " fill="#909092" transform="translate(99,64)"/>
<path d="M0 0 C0.33 0.99 0.66 1.98 1 3 C1.66 3 2.32 3 3 3 C2.34 6.63 1.68 10.26 1 14 C1.66 14.33 2.32 14.66 3 15 C2.67 15.66 2.34 16.32 2 17 C1.01 16.67 0.02 16.34 -1 16 C-0.67 10.72 -0.34 5.44 0 0 Z " fill="#99999E" transform="translate(64,139)"/>
<path d="M0 0 C0.99 0.33 1.98 0.66 3 1 C3.79953138 4.28696233 4.09658936 5.71023192 3 9 C1.68 9 0.36 9 -1 9 C-2.25541557 5.23375329 -1.37061958 3.62811066 0 0 Z " fill="#8C8C8F" transform="translate(65,160)"/>
<path d="M0 0 C0.33 0.66 0.66 1.32 1 2 C0.34 2 -0.32 2 -1 2 C-1.33 2.66 -1.66 3.32 -2 4 C-3.84765625 5.0703125 -3.84765625 5.0703125 -6.0625 6.125 C-6.79597656 6.47820312 -7.52945313 6.83140625 -8.28515625 7.1953125 C-8.85105469 7.46085938 -9.41695313 7.72640625 -10 8 C-9.67 6.35 -9.34 4.7 -9 3 C-6.03 2.01 -3.06 1.02 0 0 Z " fill="#838385" transform="translate(115,127)"/>
<path d="M0 0 C-1.78614318 1.03046722 -3.57910018 2.04913236 -5.375 3.0625 C-6.87160156 3.91521484 -6.87160156 3.91521484 -8.3984375 4.78515625 C-9.25695312 5.18605469 -10.11546875 5.58695312 -11 6 C-11.66 5.67 -12.32 5.34 -13 5 C-12.67 3.35 -12.34 1.7 -12 0 C-11.67 0.66 -11.34 1.32 -11 2 C-10.01 2 -9.02 2 -8 2 C-8 1.34 -8 0.68 -8 0 C-4.71303767 -0.79953138 -3.28976808 -1.09658936 0 0 Z " fill="#D1D2D5" transform="translate(137,107)"/>
<path d="M0 0 C0.66 0 1.32 0 2 0 C2.33 0.66 2.66 1.32 3 2 C4.32 1.67 5.64 1.34 7 1 C7 1.99 7 2.98 7 4 C5.35 4.33 3.7 4.66 2 5 C2.33 5.99 2.66 6.98 3 8 C2.01 8.495 2.01 8.495 1 9 C0.63877119 7.68942607 0.28619689 6.37646376 -0.0625 5.0625 C-0.35833984 3.96615234 -0.35833984 3.96615234 -0.66015625 2.84765625 C-0.77230469 2.23792969 -0.88445312 1.62820312 -1 1 C-0.67 0.67 -0.34 0.34 0 0 Z " fill="#97979C" transform="translate(100,94)"/>
<path d="M0 0 C1.32 0.66 2.64 1.32 4 2 C4 1.34 4 0.68 4 0 C4.66 0 5.32 0 6 0 C5.375 2.4375 5.375 2.4375 4 5 C0.875 5.8125 0.875 5.8125 -2 6 C-2.33 4.68 -2.66 3.36 -3 2 C-2.01 1.34 -1.02 0.68 0 0 Z " fill="#868687" transform="translate(109,119)"/>
<path d="M0 0 C3.98175544 2.10148204 6.35039045 4.36905358 9 8 C8.01 8.495 8.01 8.495 7 9 C6.21625 8.34 5.4325 7.68 4.625 7 C2.28487188 4.79798559 2.28487188 4.79798559 0 5 C0 3.35 0 1.7 0 0 Z " fill="#B9B8BC" transform="translate(85,50)"/>
<path d="M0 0 C1.64826111 2.96687001 2.44271087 5.65626525 3 9 C2.34 9 1.68 9 1 9 C1 9.66 1 10.32 1 11 C0.34 11 -0.32 11 -1 11 C-1.33 8.03 -1.66 5.06 -2 2 C-1.34 2 -0.68 2 0 2 C0 1.34 0 0.68 0 0 Z " fill="#8D8D90" transform="translate(88,121)"/>
<path d="M0 0 C-3.23521742 2.48862878 -6.59260295 4.75421558 -10 7 C-10.66 6.67 -11.32 6.34 -12 6 C-8.84834792 0.14693185 -6.47215642 -0.1438257 0 0 Z " fill="#B4B4B6" transform="translate(145,114)"/>
<path d="M0 0 C2.375 -0.1875 2.375 -0.1875 5 0 C7 3 7 3 7 6 C5.35 6 3.7 6 2 6 C2.33 5.01 2.66 4.02 3 3 C2.01 2.67 1.02 2.34 0 2 C0 1.34 0 0.68 0 0 Z " fill="#88888A" transform="translate(152,99)"/>
<path d="M0 0 C2 1 2 1 3.0625 4 C3.371875 4.99 3.68125 5.98 4 7 C4.33 7.33 4.66 7.66 5 8 C5 8.99 5 9.98 5 11 C3.68 11 2.36 11 1 11 C-0.17571451 7.32589215 -0.07366746 3.83070817 0 0 Z " fill="#A0A0A5" transform="translate(88,114)"/>
<path d="M0 0 C3.46069717 5.19104576 4.17386794 6.77849991 3 13 C2.67 13 2.34 13 2 13 C2 11.35 2 9.7 2 8 C1.34 8 0.68 8 0 8 C-0.38063221 5.6739143 -0.71269945 3.33944736 -1 1 C-0.67 0.67 -0.34 0.34 0 0 Z " fill="#BDBDC3" transform="translate(64,61)"/>
<path d="M0 0 C0.33 0.66 0.66 1.32 1 2 C-0.43457328 2.9834496 -1.87277406 3.96160921 -3.3125 4.9375 C-4.11300781 5.48277344 -4.91351563 6.02804688 -5.73828125 6.58984375 C-8 8 -8 8 -11 9 C-11 8.34 -11 7.68 -11 7 C-10.34 7 -9.68 7 -9 7 C-9 6.34 -9 5.68 -9 5 C-8.34 5 -7.68 5 -7 5 C-6.67 4.01 -6.34 3.02 -6 2 C-2.9375 0.8125 -2.9375 0.8125 0 0 Z " fill="#C2C2C5" transform="translate(125,126)"/>
<path d="M0 0 C-0.280828 1.98073365 -0.57496614 3.95958448 -0.875 5.9375 C-1.11863281 7.59072266 -1.11863281 7.59072266 -1.3671875 9.27734375 C-1.57601562 10.17582031 -1.78484375 11.07429688 -2 12 C-2.99 12.495 -2.99 12.495 -4 13 C-4 9.04 -4 5.08 -4 1 C-2 0 -2 0 0 0 Z " fill="#8B8B8E" transform="translate(105,105)"/>
<path d="M0 0 C0.33 0 0.66 0 1 0 C1.33 3.63 1.66 7.26 2 11 C0.35 11.33 -1.3 11.66 -3 12 C-2.690625 11.13375 -2.38125 10.2675 -2.0625 9.375 C-1.07508101 6.23849262 -0.46418941 3.24932587 0 0 Z " fill="#A8A9AD" transform="translate(82,134)"/>
<path d="M0 0 C-2.6598561 3.44216672 -5.90288286 3.99504674 -10 5 C-10 4.34 -10 3.68 -10 3 C-8.68 3 -7.36 3 -6 3 C-6 2.01 -6 1.02 -6 0 C-3.50907189 -1.24546405 -2.58919267 -0.7767578 0 0 Z " fill="#99989E" transform="translate(108,137)"/>
<path d="M0 0 C0.66 0.33 1.32 0.66 2 1 C2 2.98 2 4.96 2 7 C0.35 6.67 -1.3 6.34 -3 6 C-3 4.68 -3 3.36 -3 2 C-2.01 1.34 -1.02 0.68 0 0 Z " fill="#9D9DA1" transform="translate(114,100)"/>
<path d="M0 0 C0.66 0 1.32 0 2 0 C2.19493195 2.27020744 2.38070418 4.54120289 2.5625 6.8125 C2.66691406 8.07707031 2.77132812 9.34164062 2.87890625 10.64453125 C3 14 3 14 2 17 C-0.49118953 13.2632157 -0.2065226 11.25548181 -0.125 6.8125 C-0.10695313 5.54019531 -0.08890625 4.26789063 -0.0703125 2.95703125 C-0.04710938 1.98121094 -0.02390625 1.00539063 0 0 Z " fill="#A9AAAD" transform="translate(82,77)"/>
<path d="M0 0 C0.33 0 0.66 0 1 0 C1 3.3 1 6.6 1 10 C0.34 10 -0.32 10 -1 10 C-1.33 7.36 -1.66 4.72 -2 2 C-1.34 2 -0.68 2 0 2 C0 1.34 0 0.68 0 0 Z " fill="#7F7F80" transform="translate(71,123)"/>
<path d="M0 0 C0.99 0.33 1.98 0.66 3 1 C2.67 3.97 2.34 6.94 2 10 C-0.4294516 6.3558226 -0.16179575 4.28758728 0 0 Z " fill="#818183" transform="translate(69,113)"/>
<path d="M0 0 C0.99 0.33 1.98 0.66 3 1 C-1.625 5.875 -1.625 5.875 -5 7 C-5.33 6.01 -5.66 5.02 -6 4 C-4.02 3.34 -2.04 2.68 0 2 C0 1.34 0 0.68 0 0 Z " fill="#B6B6B7" transform="translate(150,107)"/>
<path d="M0 0 C2 3 2 3 1.625 5.1875 C1.41875 5.785625 1.2125 6.38375 1 7 C-0.32 6.67 -1.64 6.34 -3 6 C-3 4.35 -3 2.7 -3 1 C-2.01 0.67 -1.02 0.34 0 0 Z " fill="#99999E" transform="translate(98,107)"/>
<path d="M0 0 C1.32 1.32 2.64 2.64 4 4 C2.68 4 1.36 4 0 4 C0 4.66 0 5.32 0 6 C-0.66 6 -1.32 6 -2 6 C-2 6.66 -2 7.32 -2 8 C-3.65 8 -5.3 8 -7 8 C-6.21625 7.4225 -5.4325 6.845 -4.625 6.25 C-2.19952756 4.17102363 -1.14305583 2.90959667 0 0 Z " fill="#A5A5AA" transform="translate(139,102)"/>
<path d="M0 0 C1.32 0.66 2.64 1.32 4 2 C3.01 3.32 2.02 4.64 1 6 C1.33 6.66 1.66 7.32 2 8 C-0.475 7.01 -0.475 7.01 -3 6 C-3 4 -3 4 -1 2 C-0.67 1.34 -0.34 0.68 0 0 Z " fill="#B7B8BA" transform="translate(121,79)"/>
<path d="M0 0 C0.66 0.99 1.32 1.98 2 3 C-2.625 6 -2.625 6 -6 6 C-6.33 4.68 -6.66 3.36 -7 2 C-5.02 2.99 -5.02 2.99 -3 4 C-2.67 3.01 -2.34 2.02 -2 1 C-1.34 0.67 -0.68 0.34 0 0 Z " fill="#939397" transform="translate(106,123)"/>
<path d="M0 0 C3.77545388 1.09068668 6.47043472 1.9083091 9 5 C8.01 5.66 7.02 6.32 6 7 C6 6.34 6 5.68 6 5 C5.38125 4.731875 4.7625 4.46375 4.125 4.1875 C2 3 2 3 0 0 Z " fill="#939396" transform="translate(90,58)"/>
<path d="M0 0 C0.99 0.33 1.98 0.66 3 1 C2.67 2.98 2.34 4.96 2 7 C1.01 6.67 0.02 6.34 -1 6 C-1.33 4.35 -1.66 2.7 -2 1 C-1.34 0.67 -0.68 0.34 0 0 Z " fill="#969698" transform="translate(74,43)"/>
<path d="M0 0 C2.625 0.9375 2.625 0.9375 5 2 C5 2.33 5 2.66 5 3 C3.35 3 1.7 3 0 3 C0 3.66 0 4.32 0 5 C-0.99 5 -1.98 5 -3 5 C-2.625 3.0625 -2.625 3.0625 -2 1 C-1.34 0.67 -0.68 0.34 0 0 Z " fill="#96969A" transform="translate(129,104)"/>
<path d="M0 0 C0.66 0 1.32 0 2 0 C1.67 1.65 1.34 3.3 1 5 C-1.64 5 -4.28 5 -7 5 C-7.33 3.68 -7.66 2.36 -8 1 C-6.515 1.99 -6.515 1.99 -5 3 C-3.34450469 3.38499891 -1.6777567 3.72793135 0 4 C0 2.68 0 1.36 0 0 Z " fill="#ABABAE" transform="translate(79,157)"/>
<path d="M0 0 C0.33 0 0.66 0 1 0 C1 3.96 1 7.92 1 12 C-0.32 11.67 -1.64 11.34 -3 11 C-2.67 10.01 -2.34 9.02 -2 8 C-1.67 8 -1.34 8 -1 8 C-0.67 5.36 -0.34 2.72 0 0 Z " fill="#9B9C9F" transform="translate(76,136)"/>
<path d="M0 0 C0.99 0.495 0.99 0.495 2 1 C3.67654729 0.72057545 5.34608154 0.39171753 7 0 C5.37660195 1.70884005 3.70680947 3.37446717 2 5 C1.34 5 0.68 5 0 5 C0 3.35 0 1.7 0 0 Z " fill="#98989C" transform="translate(99,131)"/>
<path d="M0 0 C1.32 0.33 2.64 0.66 4 1 C4.33 2.32 4.66 3.64 5 5 C3.68 5 2.36 5 1 5 C0.67 3.35 0.34 1.7 0 0 Z " fill="#E2E3E4" transform="translate(110,84)"/>
<path d="M0 0 C0.66 0.33 1.32 0.66 2 1 C1.67 3.97 1.34 6.94 1 10 C0.34 9.67 -0.32 9.34 -1 9 C-1.125 2.25 -1.125 2.25 0 0 Z " fill="#808181" transform="translate(87,70)"/>
<path d="M0 0 C0 0.99 0 1.98 0 3 C-1.98 3.33 -3.96 3.66 -6 4 C-6 2.68 -6 1.36 -6 0 C-3.50907189 -1.24546405 -2.58919267 -0.7767578 0 0 Z " fill="#AAAAAE" transform="translate(72,38)"/>
<path d="M0 0 C0.33 0 0.66 0 1 0 C1.33 3.96 1.66 7.92 2 12 C1.67 11.01 1.34 10.02 1 9 C0.34 9 -0.32 9 -1 9 C-0.67 6.03 -0.34 3.06 0 0 Z " fill="#CECED2" transform="translate(62,151)"/>
<path d="M0 0 C1.98 0.66 3.96 1.32 6 2 C3.702779 3.74271938 1.40133271 5.39911152 -1 7 C-0.67 4.69 -0.34 2.38 0 0 Z " fill="#8B8B8D" transform="translate(94,125)"/>
<path d="M0 0 C0.66 0.33 1.32 0.66 2 1 C2.125 3.875 2.125 3.875 2 7 C1.34 7.66 0.68 8.32 0 9 C-0.87890625 2.84765625 -0.87890625 2.84765625 -1 1 C-0.67 0.67 -0.34 0.34 0 0 Z " fill="#8A8A8C" transform="translate(84,115)"/>
<path d="M0 0 C2.475 0.495 2.475 0.495 5 1 C5 2.65 5 4.3 5 6 C4.34 6 3.68 6 3 6 C2.67 4.68 2.34 3.36 2 2 C1.34 2 0.68 2 0 2 C0 1.34 0 0.68 0 0 Z " fill="#828283" transform="translate(89,107)"/>
<path d="M0 0 C2 2 2 2 2.125 5.125 C2.08375 6.07375 2.0425 7.0225 2 8 C1.01 7.67 0.02 7.34 -1 7 C-0.67 4.69 -0.34 2.38 0 0 Z " fill="#949497" transform="translate(85,104)"/>
<path d="M0 0 C0.66 0 1.32 0 2 0 C2 0.66 2 1.32 2 2 C2.99 2.33 3.98 2.66 5 3 C4.34 4.98 3.68 6.96 3 9 C2.67 8.34 2.34 7.68 2 7 C2.33 6.01 2.66 5.02 3 4 C2.01 4 1.02 4 0 4 C0 2.68 0 1.36 0 0 Z " fill="#949497" transform="translate(141,98)"/>
<path d="M0 0 C1.485 0.99 1.485 0.99 3 2 C3 2.66 3 3.32 3 4 C3.66 4 4.32 4 5 4 C5 4.66 5 5.32 5 6 C4.34 6 3.68 6 3 6 C2.67 6.66 2.34 7.32 2 8 C2 7.34 2 6.68 2 6 C1.34 6 0.68 6 0 6 C0 4.02 0 2.04 0 0 Z " fill="#939397" transform="translate(63,82)"/>
<path d="M0 0 C1.9375 0.6875 1.9375 0.6875 4 2 C4.75 4.625 4.75 4.625 5 7 C4.01 7.66 3.02 8.32 2 9 C2 6.69 2 4.38 2 2 C1.34 2 0.68 2 0 2 C0 1.34 0 0.68 0 0 Z " fill="#99999D" transform="translate(82,75)"/>
<path d="M0 0 C1.65 0.33 3.3 0.66 5 1 C3.68 1.33 2.36 1.66 1 2 C1 2.99 1 3.98 1 5 C-0.32 5 -1.64 5 -3 5 C-3 4.01 -3 3.02 -3 2 C-2.01 2 -1.02 2 0 2 C0 1.34 0 0.68 0 0 Z " fill="#B0B0B4" transform="translate(87,62)"/>
<path d="M0 0 C1.98 0.495 1.98 0.495 4 1 C4 2.32 4 3.64 4 5 C2.35 4.67 0.7 4.34 -1 4 C-0.67 2.68 -0.34 1.36 0 0 Z " fill="#909093" transform="translate(131,110)"/>
<path d="M0 0 C0.66 0.33 1.32 0.66 2 1 C1.01 2.485 1.01 2.485 0 4 C0.66 4.33 1.32 4.66 2 5 C0.68 5.33 -0.64 5.66 -2 6 C-1.125 1.125 -1.125 1.125 0 0 Z " fill="#919093" transform="translate(79,142)"/>
<path d="M0 0 C1.65 0 3.3 0 5 0 C3.1875 2 3.1875 2 1 4 C0.01 4 -0.98 4 -2 4 C-1.34 2.68 -0.68 1.36 0 0 Z " fill="#D5D5D8" transform="translate(109,135)"/>
<path d="M0 0 C0.33 0.66 0.66 1.32 1 2 C1.66 2 2.32 2 3 2 C2.67 2.99 2.34 3.98 2 5 C0.35 4.67 -1.3 4.34 -3 4 C-2.67 3.34 -2.34 2.68 -2 2 C-1.34 2 -0.68 2 0 2 C0 1.34 0 0.68 0 0 Z " fill="#7E7F7F" transform="translate(110,111)"/>
<path d="M0 0 C0.66 0.33 1.32 0.66 2 1 C1.67 2.32 1.34 3.64 1 5 C-0.32 5 -1.64 5 -3 5 C-3 4.01 -3 3.02 -3 2 C-2.01 1.34 -1.02 0.68 0 0 Z " fill="#919193" transform="translate(137,101)"/>
<path d="M0 0 C0.33 0 0.66 0 1 0 C1 1.65 1 3.3 1 5 C-0.98 5.99 -0.98 5.99 -3 7 C-3 5.35 -3 3.7 -3 2 C-2.01 2 -1.02 2 0 2 C0 1.34 0 0.68 0 0 Z " fill="#878789" transform="translate(105,90)"/>
<path d="M0 0 C0.66 0 1.32 0 2 0 C2.185625 1.2065625 2.185625 1.2065625 2.375 2.4375 C2.58125 3.283125 2.7875 4.12875 3 5 C3.66 5.33 4.32 5.66 5 6 C5 6.66 5 7.32 5 8 C3.0625 7.6875 3.0625 7.6875 1 7 C0 4 0 4 0 0 Z " fill="#A7A8AD" transform="translate(97,64)"/>
</svg>
