<?xml version="1.0" encoding="UTF-8"?>
<svg version="1.1" xmlns="http://www.w3.org/2000/svg" width="200" height="202">
<path d="M0 0 C1.9316262 0.23141152 3.86284159 0.46780915 5.78990173 0.73458672 C9.03762451 1.12460954 12.24859074 1.11928065 15.51757812 1.11352539 C16.22100342 1.11367142 16.92442871 1.11381744 17.64916992 1.1139679 C19.94322948 1.11327869 22.23720487 1.10553345 24.53125 1.09765625 C26.13407344 1.09578854 27.73689746 1.0943663 29.33972168 1.09336853 C33.53509122 1.08957117 37.73042552 1.07976496 41.92578125 1.06866455 C46.21614099 1.05839031 50.50650648 1.05385809 54.796875 1.04882812 C63.19793274 1.03813991 71.59896197 1.02109732 80 1 C80 1.99 80 2.98 80 4 C80.99515625 3.83242187 81.9903125 3.66484375 83.015625 3.4921875 C91.39140896 2.22125288 99.24538719 1.87446362 107.6875 2.75 C108.5237793 2.83620605 109.36005859 2.92241211 110.22167969 3.01123047 C114.68199974 3.53878551 118.82990386 4.23724643 123 6 C123.9375 8 123.9375 8 124 10 C123.67 10.66 123.34 11.32 123 12 C121.35 12 119.7 12 118 12 C117.938125 12.721875 117.87625 13.44375 117.8125 14.1875 C116.72938094 17.93675828 114.84971923 19.33613203 112 22 C109.61612735 24.62334844 107.31328266 27.31446495 105 30 C104.29810547 30.77537109 104.29810547 30.77537109 103.58203125 31.56640625 C100.18070137 35.4072926 98.14801515 39.38574522 96 44 C95.34 44 94.68 44 94 44 C93.938125 44.556875 93.87625 45.11375 93.8125 45.6875 C92.6519231 48.99068042 90.59786554 50.71894733 88 53 C87.34 53 86.68 53 86 53 C86 53.66 86 54.32 86 55 C84.3563186 56.68933922 82.6857124 58.35259924 81 60 C77.68215447 63.78608986 75.41877479 67.80332473 73.25 72.3125 C72.55479363 73.72921875 71.85947773 75.14588376 71.1640625 76.5625 C70.80989258 77.28953125 70.45572266 78.0165625 70.09082031 78.765625 C68.28838097 82.45764042 66.45745765 86.13531755 64.625 89.8125 C64.29145508 90.48772705 63.95791016 91.1629541 63.61425781 91.85864258 C62.20174721 94.69926963 60.76281637 97.35577545 59 100 C57.35 99.67 55.7 99.34 54 99 C53.82984375 98.36191406 53.6596875 97.72382813 53.484375 97.06640625 C53.24203125 96.24011719 52.9996875 95.41382813 52.75 94.5625 C52.51796875 93.73878906 52.2859375 92.91507812 52.046875 92.06640625 C51.70140625 91.38449219 51.3559375 90.70257813 51 90 C50.06994141 89.80664062 50.06994141 89.80664062 49.12109375 89.609375 C47 89 47 89 45.17578125 86.26171875 C44.54455879 85.07564771 43.92410268 83.88380617 43.3125 82.6875 C39.48686386 75.60409559 34.94017742 69.35907251 30 63 C24.45973159 55.63660853 18.88030982 48.16126423 14.9609375 39.77734375 C14.12395095 37.82276695 14.12395095 37.82276695 12 37 C11.608125 36.195625 11.21625 35.39125 10.8125 34.5625 C7.07194831 27.21038116 3.66255688 21.46639478 -4 18 C-4.36442233 16.33985384 -4.69972883 14.67293936 -5 13 C-7.42383077 11.83046584 -7.42383077 11.83046584 -10 11 C-12.14915785 7.77626323 -12.38286803 6.73296326 -12 3 C-10 1 -10 1 -7.87109375 0.83984375 C-6.66646484 0.88818359 -6.66646484 0.88818359 -5.4375 0.9375 C-3.95918728 0.99190191 -2.47917459 1.02026267 -1 1 C-0.67 0.67 -0.34 0.34 0 0 Z M71 51 C71 51.66 71 52.32 71 53 C71.66 53 72.32 53 73 53 C73 52.34 73 51.68 73 51 C72.34 51 71.68 51 71 51 Z " fill="#0B0C0D" transform="translate(41,61)"/>
<path d="M0 0 C1.32 0 2.64 0 4 0 C4 0.66 4 1.32 4 2 C4.99 2.495 4.99 2.495 6 3 C6.33 2.01 6.66 1.02 7 0 C7.99 0.33 8.98 0.66 10 1 C10 1.66 10 2.32 10 3 C9.01 3 8.02 3 7 3 C7 4.32 7 5.64 7 7 C6.34 7 5.68 7 5 7 C5 7.66 5 8.32 5 9 C3.35 9.33 1.7 9.66 0 10 C0 11.65 0 13.3 0 15 C-1.32 15 -2.64 15 -4 15 C-3.505 16.485 -3.505 16.485 -3 18 C-3.99 18 -4.98 18 -6 18 C-5.896875 18.78375 -5.79375 19.5675 -5.6875 20.375 C-6.22984349 26.66618451 -9.31466448 32.55694861 -13.6875 37.125 C-16 39 -16 39 -18 39 C-18 39.66 -18 40.32 -18 41 C-19.6436814 42.68933922 -21.3142876 44.35259924 -23 46 C-26.31784553 49.78608986 -28.58122521 53.80332473 -30.75 58.3125 C-31.44520637 59.72921875 -32.14052227 61.14588376 -32.8359375 62.5625 C-33.19010742 63.28953125 -33.54427734 64.0165625 -33.90917969 64.765625 C-35.71161903 68.45764042 -37.54254235 72.13531755 -39.375 75.8125 C-39.70854492 76.48772705 -40.04208984 77.1629541 -40.38574219 77.85864258 C-41.79825279 80.69926963 -43.23718363 83.35577545 -45 86 C-46.65 85.67 -48.3 85.34 -50 85 C-50.25523438 84.04287109 -50.25523438 84.04287109 -50.515625 83.06640625 C-50.75796875 82.24011719 -51.0003125 81.41382813 -51.25 80.5625 C-51.59804687 79.32693359 -51.59804687 79.32693359 -51.953125 78.06640625 C-52.29859375 77.38449219 -52.6440625 76.70257813 -53 76 C-53.61875 75.87238281 -54.2375 75.74476563 -54.875 75.61328125 C-57 75 -57 75 -58.859375 72.2265625 C-59.50066324 71.03192355 -60.1302327 69.83094416 -60.75 68.625 C-63.86334056 62.84657471 -67.31054823 57.60648246 -71.3359375 52.40234375 C-73.42595679 49.38506238 -75.19019714 46.6166757 -74.75 42.875 C-74 41 -74 41 -72 38 C-71.01 38.33 -70.02 38.66 -69 39 C-69.66 39 -70.32 39 -71 39 C-71 39.66 -71 40.32 -71 41 C-69.35 41 -67.7 41 -66 41 C-66.66 40.01 -67.32 39.02 -68 38 C-68 37.01 -68 36.02 -68 35 C-65.03 34.505 -65.03 34.505 -62 34 C-63.61268692 31.28775382 -65.24901874 28.62647188 -67 26 C-69.02796864 25.49218782 -69.02796864 25.49218782 -71.3125 25.4375 C-74.91468607 25.15418199 -77.69973626 24.55306529 -81 23 C-81.99 22.67 -82.98 22.34 -84 22 C-84.33 21.01 -84.66 20.02 -85 19 C-81.01633599 17.008168 -76.32871791 17.46601118 -72 18 C-68.74755489 19.33266375 -65.88730056 21.00384159 -63 23 C-63 23.99 -63 24.98 -63 26 C-59.04 26 -55.08 26 -51 26 C-51 25.34 -51 24.68 -51 24 C-52.32 23.67 -53.64 23.34 -55 23 C-54.67 22.34 -54.34 21.68 -54 21 C-55.65 20.34 -57.3 19.68 -59 19 C-58.67 18.01 -58.34 17.02 -58 16 C-57.34 16 -56.68 16 -56 16 C-56 15.34 -56 14.68 -56 14 C-46.6416621 11.94194229 -37.59441508 10.46920411 -28 10 C-27.505 11.98 -27.505 11.98 -27 14 C-28.65 14.99 -30.3 15.98 -32 17 C-31.34 17.33 -30.68 17.66 -30 18 C-30 18.66 -30 19.32 -30 20 C-26.0132894 20.71901741 -26.0132894 20.71901741 -22 21 C-20.33378575 19.8354799 -20.33378575 19.8354799 -19 18 C-15.31116388 15.45597509 -12.6019718 14 -8 14 C-7.67 13.34 -7.34 12.68 -7 12 C-7.66 12 -8.32 12 -9 12 C-9 11.01 -9 10.02 -9 9 C-9.99 9 -10.98 9 -12 9 C-12 8.34 -12 7.68 -12 7 C-9.09399739 5.74335022 -7.20395416 5 -4 5 C-3.0409375 3.7625 -3.0409375 3.7625 -2.0625 2.5 C-1.381875 1.675 -0.70125 0.85 0 0 Z M-33 37 C-33 37.66 -33 38.32 -33 39 C-32.34 39 -31.68 39 -31 39 C-31 38.34 -31 37.68 -31 37 C-31.66 37 -32.32 37 -33 37 Z " fill="#191A1B" transform="translate(145,75)"/>
<path d="M0 0 C0.495 0.165 0.99 0.33 1.5 0.5 C5.03444089 1.20688818 8.39690701 1.06005155 12 1 C12.33 1.66 12.66 2.32 13 3 C16.23097953 3.86159454 18.22486274 4.30597523 21.375 3.0625 C21.91125 2.711875 22.4475 2.36125 23 2 C23.495 4.97 23.495 4.97 24 8 C24.5775 7.67 25.155 7.34 25.75 7 C28 6 28 6 32 6 C32.33 5.34 32.66 4.68 33 4 C32.67 5.65 32.34 7.3 32 9 C32.66 8.34 33.32 7.68 34 7 C35.32 7 36.64 7 38 7 C38 6.01 38 5.02 38 4 C38.66 4 39.32 4 40 4 C39.52794881 8.24846075 37.11122478 10.26819288 34 13 C33.34 13 32.68 13 32 13 C32 13.66 32 14.32 32 15 C30.3563186 16.68933922 28.6857124 18.35259924 27 20 C23.68215447 23.78608986 21.41877479 27.80332473 19.25 32.3125 C18.55479363 33.72921875 17.85947773 35.14588376 17.1640625 36.5625 C16.80989258 37.28953125 16.45572266 38.0165625 16.09082031 38.765625 C14.28838097 42.45764042 12.45745765 46.13531755 10.625 49.8125 C10.29145508 50.48772705 9.95791016 51.1629541 9.61425781 51.85864258 C8.20174721 54.69926963 6.76281637 57.35577545 5 60 C3.35 59.67 1.7 59.34 0 59 C-0.25523438 58.04287109 -0.25523438 58.04287109 -0.515625 57.06640625 C-0.75796875 56.24011719 -1.0003125 55.41382813 -1.25 54.5625 C-1.48203125 53.73878906 -1.7140625 52.91507813 -1.953125 52.06640625 C-2.29859375 51.38449219 -2.6440625 50.70257813 -3 50 C-3.60972656 49.88398438 -4.21945313 49.76796875 -4.84765625 49.6484375 C-7.90044589 48.72872229 -8.66003514 46.71327389 -10.14648438 44.03320312 C-10.49001953 43.38287109 -10.83355469 42.73253906 -11.1875 42.0625 C-11.54263672 41.41603516 -11.89777344 40.76957031 -12.26367188 40.10351562 C-13.54876999 37.75522438 -14.80280771 35.39438458 -16 33 C-14.35 33.66 -12.7 34.32 -11 35 C-11 36.32 -11 37.64 -11 39 C-10.4225 39.20625 -9.845 39.4125 -9.25 39.625 C-6.15522364 41.51625222 -4.8081237 43.90035937 -3 47 C-3 47.66 -3 48.32 -3 49 C-2.01 49 -1.02 49 0 49 C0 49.66 0 50.32 0 51 C0.66 51 1.32 51 2 51 C2.33 49.35 2.66 47.7 3 46 C1.02 46.495 1.02 46.495 -1 47 C-1 46.01 -1 45.02 -1 44 C-1.99 43.67 -2.98 43.34 -4 43 C-4.6875 40.9375 -4.6875 40.9375 -5 39 C-4.34 39 -3.68 39 -3 39 C-3 39.99 -3 40.98 -3 42 C-3 40.68 -3 39.36 -3 38 C-3.31151288 35.66365343 -3.64159778 33.32961443 -4 31 C-5.65 30.67 -7.3 30.34 -9 30 C-9 29.01 -9 28.02 -9 27 C-9.66 27 -10.32 27 -11 27 C-11 26.34 -11 25.68 -11 25 C-11.66 25 -12.32 25 -13 25 C-13 23.68 -13 22.36 -13 21 C-12.34 21 -11.68 21 -11 21 C-11.66 18.36 -12.32 15.72 -13 13 C-11.865625 12.54625 -10.73125 12.0925 -9.5625 11.625 C-5.95278308 10.42904194 -5.95278308 10.42904194 -5 8 C-3.02 8 -1.04 8 1 8 C-0.32 6.68 -1.64 5.36 -3 4 C-2.01 3.67 -1.02 3.34 0 3 C0 3.99 0 4.98 0 6 C0.99 5.67 1.98 5.34 3 5 C3 4.34 3 3.68 3 3 C2.34 3 1.68 3 1 3 C0.67 2.01 0.34 1.02 0 0 Z M17 11 C17 11.66 17 12.32 17 13 C17.66 13 18.32 13 19 13 C19 12.34 19 11.68 19 11 C18.34 11 17.68 11 17 11 Z " fill="#111113" transform="translate(95,101)"/>
<path d="M0 0 C0 0.66 0 1.32 0 2 C-6.06310158 3.72629975 -11.71236944 4.39319795 -18 4.625 C-19.30517578 4.68300781 -19.30517578 4.68300781 -20.63671875 4.7421875 C-22.75750486 4.83540887 -24.87872185 4.91874136 -27 5 C-27 5.99 -27 6.98 -27 8 C-24.36 8 -21.72 8 -19 8 C-19.66 8.61875 -20.32 9.2375 -21 9.875 C-23.2284549 11.75637427 -23.2284549 11.75637427 -23 14 C-21.8759375 13.55914062 -20.751875 13.11828125 -19.59375 12.6640625 C-12.12732567 10.17817553 -4.26886495 9.4189864 3.5 8.375 C5.06911539 8.15700423 6.6381269 7.93825942 8.20703125 7.71875 C15.46050371 6.71087609 22.71483484 5.75190925 30 5 C30 5.66 30 6.32 30 7 C25.80148069 7.71626282 21.60226012 8.42821704 17.40234375 9.13623047 C15.97441001 9.37756682 14.54667269 9.62006848 13.11914062 9.86376953 C11.06431098 10.2143498 9.00880569 10.56069948 6.953125 10.90625 C5.09929199 11.22045898 5.09929199 11.22045898 3.20800781 11.54101562 C0 12 0 12 -4 12 C-4 12.66 -4 13.32 -4 14 C-5.5 15.625 -5.5 15.625 -7 17 C-5.35 17.33 -3.7 17.66 -2 18 C-2 18.99 -2 19.98 -2 21 C-1.01 21.33 -0.02 21.66 1 22 C1 22.66 1 23.32 1 24 C-0.62414378 24.19477739 -2.24936423 24.38059458 -3.875 24.5625 C-4.77992187 24.66691406 -5.68484375 24.77132812 -6.6171875 24.87890625 C-9 25 -9 25 -11 24 C-11 23.01 -11 22.02 -11 21 C-11.53625 20.896875 -12.0725 20.79375 -12.625 20.6875 C-15 20 -15 20 -17.625 18.4375 C-22.15727474 16.50708669 -26.14437607 16.74090544 -31 17 C-31 17.99 -31 18.98 -31 20 C-28.35806459 20.54392788 -25.73114946 21.04004157 -23.0625 21.4375 C-15.0554177 22.90818859 -15.0554177 22.90818859 -12.1875 25.875 C-11.03219877 27.94238115 -10.41475371 29.67737921 -10 32 C-12.97 32.495 -12.97 32.495 -16 33 C-15.505 33.763125 -15.01 34.52625 -14.5 35.3125 C-13 38 -13 38 -13 41 C-18.875 39.125 -18.875 39.125 -20 38 C-20.66 38.66 -21.32 39.32 -22 40 C-21.67673447 43.59679066 -21.67673447 43.59679066 -21 47 C-27.50531667 40.81146397 -32.47906944 33.39619113 -36.375 25.3125 C-37.61412092 21.94042153 -37.61412092 21.94042153 -40 21 C-41.01765927 19.00892752 -42.01577854 17.00781177 -43 15 C-43.556875 14.2575 -44.11375 13.515 -44.6875 12.75 C-46 11 -46 11 -46 9 C-45.01 9 -44.02 9 -43 9 C-41.3125 11 -41.3125 11 -40 13 C-38.74335022 10.09399739 -38 8.20395416 -38 5 C-31.78793989 3.61205598 -25.69912812 2.69389536 -19.34765625 2.24609375 C-16.84905665 2.06946358 -16.84905665 2.06946358 -14 1 C-11.98289989 0.77587777 -9.9610929 0.59240444 -7.9375 0.4375 C-6.34228516 0.31181641 -6.34228516 0.31181641 -4.71484375 0.18359375 C-3.14562225 0.07747373 -1.57280564 0 0 0 Z " fill="#1E1F22" transform="translate(93,77)"/>
<path d="M0 0 C1.02673828 0.14236084 2.05347656 0.28472168 3.11132812 0.43139648 C9.77729383 1.35161366 16.50451895 1.12287018 23.21875 1.09765625 C24.68705192 1.09578817 26.15535446 1.09436611 27.62365723 1.09336853 C31.46392578 1.08957409 35.30415574 1.07977049 39.14440918 1.06866455 C43.07282998 1.05838392 47.00125709 1.05385674 50.9296875 1.04882812 C58.61980915 1.03814508 66.30989914 1.02110614 74 1 C74 1.33 74 1.66 74 2 C70.04 2 66.08 2 62 2 C62 2.66 62 3.32 62 4 C63.65 4 65.3 4 67 4 C67 5.32 67 6.64 67 8 C64.36 8.33 61.72 8.66 59 9 C59 9.99 59 10.98 59 12 C53.73102955 13.03482235 48.53680063 13.28427018 43.1875 13.5 C37.43038133 13.7353402 31.75108892 14.11006899 26.02905273 14.79052734 C23.32488514 15.06969661 20.65429695 15.09688983 17.9375 15.0625 C16.99777344 15.05347656 16.05804688 15.04445313 15.08984375 15.03515625 C14.40019531 15.02355469 13.71054687 15.01195313 13 15 C13.99 14.01 14.98 13.02 16 12 C13.56348622 11.63737003 11.12623023 11.28461036 8.6875 10.9375 C7.65206055 10.7818457 7.65206055 10.7818457 6.59570312 10.62304688 C3.30415164 10.16191164 1.19783876 9.93405375 -2 11 C-2 12.98 -2 14.96 -2 17 C-1.05125 17.268125 -0.1025 17.53625 0.875 17.8125 C4 19 4 19 6 22 C5.67 22.99 5.34 23.98 5 25 C4.2575 24.21625 3.515 23.4325 2.75 22.625 C0.28216753 19.97398801 0.28216753 19.97398801 -2.25 19 C-2.8275 18.67 -3.405 18.34 -4 18 C-4.144375 17.175 -4.28875 16.35 -4.4375 15.5 C-4.623125 14.675 -4.80875 13.85 -5 13 C-7.42383077 11.83046584 -7.42383077 11.83046584 -10 11 C-12.14915785 7.77626323 -12.38286803 6.73296326 -12 3 C-10 1 -10 1 -7.87109375 0.83984375 C-6.66646484 0.88818359 -6.66646484 0.88818359 -5.4375 0.9375 C-3.95918728 0.99190191 -2.47917459 1.02026267 -1 1 C-0.67 0.67 -0.34 0.34 0 0 Z " fill="#19191C" transform="translate(41,61)"/>
<path d="M0 0 C1.32 0 2.64 0 4 0 C4 0.66 4 1.32 4 2 C4.66 2.33 5.32 2.66 6 3 C6.33 2.01 6.66 1.02 7 0 C7.99 0.33 8.98 0.66 10 1 C10 1.66 10 2.32 10 3 C9.01 3 8.02 3 7 3 C7 4.32 7 5.64 7 7 C6.34 7 5.68 7 5 7 C5 7.66 5 8.32 5 9 C3.35 9.33 1.7 9.66 0 10 C0 11.65 0 13.3 0 15 C-1.32 15 -2.64 15 -4 15 C-3.505 16.485 -3.505 16.485 -3 18 C-3.99 18 -4.98 18 -6 18 C-5.938125 18.86625 -5.87625 19.7325 -5.8125 20.625 C-6.02455502 24.44199033 -7.12044307 26.71077536 -9 30 C-9.99 30 -10.98 30 -12 30 C-12 30.99 -12 31.98 -12 33 C-15 35 -15 35 -18 35 C-18 34.01 -18 33.02 -18 32 C-19.11375 32.495 -19.11375 32.495 -20.25 33 C-23 34 -23 34 -27 34 C-26.67 31.03 -26.34 28.06 -26 25 C-33.29446909 23.73139668 -39.79042556 24.42290559 -47 26 C-46.67 24.35 -46.34 22.7 -46 21 C-42.7 20.67 -39.4 20.34 -36 20 C-36.33 19.34 -36.66 18.68 -37 18 C-38.11375 18.020625 -39.2275 18.04125 -40.375 18.0625 C-44 18 -44 18 -46 17 C-45.67 16.01 -45.34 15.02 -45 14 C-43.35 14 -41.7 14 -40 14 C-40 13.34 -40 12.68 -40 12 C-37.69 12.33 -35.38 12.66 -33 13 C-32.67 12.01 -32.34 11.02 -32 10 C-30.68 10 -29.36 10 -28 10 C-27.67 11.32 -27.34 12.64 -27 14 C-28.65 14.99 -30.3 15.98 -32 17 C-31.34 17.33 -30.68 17.66 -30 18 C-30 18.66 -30 19.32 -30 20 C-26.0132894 20.71901741 -26.0132894 20.71901741 -22 21 C-20.33378575 19.8354799 -20.33378575 19.8354799 -19 18 C-15.31116388 15.45597509 -12.6019718 14 -8 14 C-7.67 13.34 -7.34 12.68 -7 12 C-7.66 12 -8.32 12 -9 12 C-9 11.01 -9 10.02 -9 9 C-9.99 9 -10.98 9 -12 9 C-12 8.34 -12 7.68 -12 7 C-9.09399739 5.74335022 -7.20395416 5 -4 5 C-3.0409375 3.7625 -3.0409375 3.7625 -2.0625 2.5 C-1.381875 1.675 -0.70125 0.85 0 0 Z " fill="#0A0B0C" transform="translate(145,75)"/>
<path d="M0 0 C0.33 1.32 0.66 2.64 1 4 C1.99 4 2.98 4 4 4 C5.125 8.75 5.125 8.75 4 11 C4.99 11 5.98 11 7 11 C6.67 13.31 6.34 15.62 6 18 C4.68 18.33 3.36 18.66 2 19 C2 20.98 2 22.96 2 25 C0.68 25.33 -0.64 25.66 -2 26 C-2.33 25.34 -2.66 24.68 -3 24 C-2.34 24 -1.68 24 -1 24 C-0.814375 22.3603125 -0.814375 22.3603125 -0.625 20.6875 C0 17 0 17 2 14 C-0.84774154 17.51018515 -0.84774154 17.51018515 -3.375 21.25 C-5 23 -5 23 -8 23.9375 C-11 24 -11 24 -12.875 22.9375 C-14.44071111 20.24099753 -14.20391303 18.05869541 -14 15 C-14.66 15 -15.32 15 -16 15 C-16 14.34 -16 13.68 -16 13 C-17.32 13 -18.64 13 -20 13 C-19.67 10.03 -19.34 7.06 -19 4 C-15.06329512 2.68776504 -12.87511856 3.75703744 -9 5 C-8.67 4.01 -8.34 3.02 -8 2 C-6.68 2.33 -5.36 2.66 -4 3 C-4 3.66 -4 4.32 -4 5 C-3.34 5 -2.68 5 -2 5 C-1.855625 4.360625 -1.71125 3.72125 -1.5625 3.0625 C-1 1 -1 1 0 0 Z " fill="#0B0C0D" transform="translate(109,112)"/>
<path d="M0 0 C0 0.66 0 1.32 0 2 C-6.06310158 3.72629975 -11.71236944 4.39319795 -18 4.625 C-19.30517578 4.68300781 -19.30517578 4.68300781 -20.63671875 4.7421875 C-22.75750486 4.83540887 -24.87872185 4.91874136 -27 5 C-27 5.99 -27 6.98 -27 8 C-24.36 8 -21.72 8 -19 8 C-19.66 8.61875 -20.32 9.2375 -21 9.875 C-23.2284549 11.75637427 -23.2284549 11.75637427 -23 14 C-21.8759375 13.55914062 -20.751875 13.11828125 -19.59375 12.6640625 C-12.12732567 10.17817553 -4.26886495 9.4189864 3.5 8.375 C5.06911539 8.15700423 6.6381269 7.93825942 8.20703125 7.71875 C15.46050371 6.71087609 22.71483484 5.75190925 30 5 C30 5.66 30 6.32 30 7 C25.80148069 7.71626282 21.60226012 8.42821704 17.40234375 9.13623047 C15.97441001 9.37756682 14.54667269 9.62006848 13.11914062 9.86376953 C11.06431098 10.2143498 9.00880569 10.56069948 6.953125 10.90625 C5.09929199 11.22045898 5.09929199 11.22045898 3.20800781 11.54101562 C0 12 0 12 -4 12 C-4 12.66 -4 13.32 -4 14 C-5.5 15.625 -5.5 15.625 -7 17 C-5.35 17.33 -3.7 17.66 -2 18 C-2 18.99 -2 19.98 -2 21 C-1.01 21.33 -0.02 21.66 1 22 C1 22.66 1 23.32 1 24 C-0.62414378 24.19477739 -2.24936423 24.38059458 -3.875 24.5625 C-4.77992187 24.66691406 -5.68484375 24.77132812 -6.6171875 24.87890625 C-9 25 -9 25 -11 24 C-11 23.01 -11 22.02 -11 21 C-11.53625 20.896875 -12.0725 20.79375 -12.625 20.6875 C-15.62754086 19.81834344 -18.20356365 18.39821817 -21 17 C-23.64891188 15.9433041 -26.31780994 14.97113778 -29 14 C-29 13.34 -29 12.68 -29 12 C-30.98 11.34 -32.96 10.68 -35 10 C-34.67 9.34 -34.34 8.68 -34 8 C-32.35 8.33 -30.7 8.66 -29 9 C-29.33 8.34 -29.66 7.68 -30 7 C-32.64 7 -35.28 7 -38 7 C-38 6.34 -38 5.68 -38 5 C-31.78793989 3.61205598 -25.69912812 2.69389536 -19.34765625 2.24609375 C-16.84905665 2.06946358 -16.84905665 2.06946358 -14 1 C-11.98289989 0.77587777 -9.9610929 0.59240444 -7.9375 0.4375 C-6.34228516 0.31181641 -6.34228516 0.31181641 -4.71484375 0.18359375 C-3.14562225 0.07747373 -1.57280564 0 0 0 Z " fill="#404047" transform="translate(93,77)"/>
<path d="M0 0 C-1.54036837 5.00817204 -3.57573936 9.65114967 -5.8125 14.375 C-6.16634766 15.12579834 -6.52019531 15.87659668 -6.88476562 16.65014648 C-9.28215998 21.66818982 -11.86561783 26.39637619 -15 31 C-16.65 30.67 -18.3 30.34 -20 30 C-20.17015625 29.36191406 -20.3403125 28.72382813 -20.515625 28.06640625 C-20.75796875 27.24011719 -21.0003125 26.41382813 -21.25 25.5625 C-21.48203125 24.73878906 -21.7140625 23.91507813 -21.953125 23.06640625 C-22.29859375 22.38449219 -22.6440625 21.70257813 -23 21 C-23.60972656 20.88398438 -24.21945313 20.76796875 -24.84765625 20.6484375 C-27.90044589 19.72872229 -28.66003514 17.71327389 -30.14648438 15.03320312 C-30.49001953 14.38287109 -30.83355469 13.73253906 -31.1875 13.0625 C-31.54263672 12.41603516 -31.89777344 11.76957031 -32.26367188 11.10351562 C-33.54876999 8.75522438 -34.80280771 6.39438458 -36 4 C-33.525 4.99 -33.525 4.99 -31 6 C-31 7.32 -31 8.64 -31 10 C-30.4225 10.20625 -29.845 10.4125 -29.25 10.625 C-26.15522364 12.51625222 -24.8081237 14.90035937 -23 18 C-23 18.66 -23 19.32 -23 20 C-22.01 20 -21.02 20 -20 20 C-20 20.66 -20 21.32 -20 22 C-19.34 22 -18.68 22 -18 22 C-17.896875 21.071875 -17.79375 20.14375 -17.6875 19.1875 C-16.97641216 15.89063819 -16.49186196 15.07655163 -14 13 C-13.67 12.34 -13.34 11.68 -13 11 C-14.32 11 -15.64 11 -17 11 C-17 11.99 -17 12.98 -17 14 C-17.99 14 -18.98 14 -20 14 C-20 11 -20 11 -18.125 8.8125 C-16 7 -16 7 -14 7 C-14 7.66 -14 8.32 -14 9 C-13.34 9 -12.68 9 -12 9 C-12 8.34 -12 7.68 -12 7 C-9.69 7 -7.38 7 -5 7 C-4.87625 6.030625 -4.7525 5.06125 -4.625 4.0625 C-4.315625 2.5465625 -4.315625 2.5465625 -4 1 C-2 0 -2 0 0 0 Z " fill="#5C5C61" transform="translate(115,130)"/>
<path d="M0 0 C-0.33 0.66 -0.66 1.32 -1 2 C-3.31 1.67 -5.62 1.34 -8 1 C-8 1.66 -8 2.32 -8 3 C-8.804375 3.12375 -9.60875 3.2475 -10.4375 3.375 C-11.283125 3.58125 -12.12875 3.7875 -13 4 C-13.33 4.66 -13.66 5.32 -14 6 C-11.03 6 -8.06 6 -5 6 C-4.67 6.99 -4.34 7.98 -4 9 C-4.66 9 -5.32 9 -6 9 C-6.33 9.66 -6.66 10.32 -7 11 C-7 10.34 -7 9.68 -7 9 C-9.31 9.66 -11.62 10.32 -14 11 C-13.67 11.99 -13.34 12.98 -13 14 C-11.20676747 13.71812064 -9.41542874 13.4241719 -7.625 13.125 C-6.12839844 12.88136719 -6.12839844 12.88136719 -4.6015625 12.6328125 C-1.8574885 12.2041198 -1.8574885 12.2041198 0 10 C0 10.99 0 11.98 0 13 C2.97 13.495 2.97 13.495 6 14 C6 14.99 6 15.98 6 17 C5.01 17.33 4.02 17.66 3 18 C2.34 18.66 1.68 19.32 1 20 C-1.31 19.34 -3.62 18.68 -6 18 C-6 17.34 -6 16.68 -6 16 C-6.93972656 16.12568359 -6.93972656 16.12568359 -7.8984375 16.25390625 C-8.71570313 16.35574219 -9.53296875 16.45757812 -10.375 16.5625 C-11.18710938 16.66691406 -11.99921875 16.77132812 -12.8359375 16.87890625 C-15 17 -15 17 -17 16 C-17 16.66 -17 17.32 -17 18 C-16.34 18 -15.68 18 -15 18 C-15 18.66 -15 19.32 -15 20 C-14.34 20.33 -13.68 20.66 -13 21 C-14.65 21 -16.3 21 -18 21 C-18 20.01 -18 19.02 -18 18 C-18.99 18.33 -19.98 18.66 -21 19 C-23.35188447 18.40206327 -25.68925595 17.74118205 -28 17 C-28 16.67 -28 16.34 -28 16 C-25.03 15.67 -22.06 15.34 -19 15 C-19 14.34 -19 13.68 -19 13 C-20.32 12.67 -21.64 12.34 -23 12 C-22.67 11.34 -22.34 10.68 -22 10 C-24.475 9.01 -24.475 9.01 -27 8 C-26.67 7.01 -26.34 6.02 -26 5 C-25.34 5 -24.68 5 -24 5 C-24 4.34 -24 3.68 -24 3 C-21.64631607 2.51835812 -19.29209845 2.03963352 -16.9375 1.5625 C-16.28072266 1.42779297 -15.62394531 1.29308594 -14.94726562 1.15429688 C-2.65625 -1.328125 -2.65625 -1.328125 0 0 Z " fill="#202023" transform="translate(113,86)"/>
<path d="M0 0 C2.69082872 0.17635452 5.32851446 0.61835921 8 1 C8 1.33 8 1.66 8 2 C6.02 2 4.04 2 2 2 C2 3.65 2 5.3 2 7 C2.60062256 7.0501123 3.20124512 7.10022461 3.82006836 7.15185547 C6.52681499 7.38316547 9.23206122 7.62888405 11.9375 7.875 C13.35579102 7.99294922 13.35579102 7.99294922 14.80273438 8.11328125 C16.15141602 8.23896484 16.15141602 8.23896484 17.52734375 8.3671875 C18.77632446 8.47716064 18.77632446 8.47716064 20.05053711 8.58935547 C20.69385986 8.72486816 21.33718262 8.86038086 22 9 C22.495 9.99 22.495 9.99 23 11 C32.24 11 41.48 11 51 11 C48.45715817 13.54284183 47.26087898 13.36451963 43.72265625 13.6328125 C42.65080078 13.71660156 41.57894531 13.80039063 40.47460938 13.88671875 C39.34861328 13.96535156 38.22261719 14.04398438 37.0625 14.125 C35.97130859 14.21136719 34.88011719 14.29773438 33.75585938 14.38671875 C26.82469264 14.90624701 19.94938999 15.109796 13 15 C13.99 14.01 14.98 13.02 16 12 C13.56348622 11.63737003 11.12623023 11.28461036 8.6875 10.9375 C7.65206055 10.7818457 7.65206055 10.7818457 6.59570312 10.62304688 C3.30415164 10.16191164 1.19783876 9.93405375 -2 11 C-2 12.98 -2 14.96 -2 17 C-1.05125 17.268125 -0.1025 17.53625 0.875 17.8125 C4 19 4 19 6 22 C5.67 22.99 5.34 23.98 5 25 C4.2575 24.21625 3.515 23.4325 2.75 22.625 C0.28216753 19.97398801 0.28216753 19.97398801 -2.25 19 C-2.8275 18.67 -3.405 18.34 -4 18 C-4.144375 17.175 -4.28875 16.35 -4.4375 15.5 C-4.623125 14.675 -4.80875 13.85 -5 13 C-7.42383077 11.83046584 -7.42383077 11.83046584 -10 11 C-12.14915785 7.77626323 -12.38286803 6.73296326 -12 3 C-10 1 -10 1 -7.87109375 0.83984375 C-6.66646484 0.88818359 -6.66646484 0.88818359 -5.4375 0.9375 C-3.95918728 0.99190191 -2.47917459 1.02026267 -1 1 C-0.67 0.67 -0.34 0.34 0 0 Z " fill="#707176" transform="translate(41,61)"/>
<path d="M0 0 C0 0.66 0 1.32 0 2 C1.32 2 2.64 2 4 2 C5.46726798 5.81489674 4.43336419 8.29011622 3 12 C4.32 12 5.64 12 7 12 C7 12.66 7 13.32 7 14 C7.66 14 8.32 14 9 14 C9.66 16.31 10.32 18.62 11 21 C13.29715009 21.82041075 14.62684659 22.1049494 17 21.4375 C19.77123465 19.44567509 21.14422881 16.84164963 23 14 C25.25 12.125 25.25 12.125 27 11 C25.79618552 13.49361571 24.54571278 15.68143083 23 18 C22.61500109 19.65549531 22.27206865 21.3222433 22 23 C20.35 23.33 18.7 23.66 17 24 C17 24.66 17 25.32 17 26 C16.34 26 15.68 26 15 26 C15 25.34 15 24.68 15 24 C14.38125 24.66 13.7625 25.32 13.125 26 C11 28 11 28 9 28 C9 28.99 9 29.98 9 31 C9.99 31 10.98 31 12 31 C12 30.01 12 29.02 12 28 C13.32 28 14.64 28 16 28 C15.375 30.375 15.375 30.375 14 33 C10.875 34.3125 10.875 34.3125 8 35 C8 34.01 8 33.02 8 32 C7.01 31.67 6.02 31.34 5 31 C4.3125 28.9375 4.3125 28.9375 4 27 C4.66 27 5.32 27 6 27 C6 27.99 6 28.98 6 30 C6 28.68 6 27.36 6 26 C5.68848712 23.66365343 5.35840222 21.32961443 5 19 C3.35 18.67 1.7 18.34 0 18 C0 17.01 0 16.02 0 15 C-0.66 15 -1.32 15 -2 15 C-2 14.34 -2 13.68 -2 13 C-2.66 13 -3.32 13 -4 13 C-4 11.68 -4 10.36 -4 9 C-3.34 9 -2.68 9 -2 9 C-2.66 6.36 -3.32 3.72 -4 1 C-2 0 -2 0 0 0 Z " fill="#2B2B2F" transform="translate(86,113)"/>
<path d="M0 0 C0.68900391 0.08765625 1.37800781 0.1753125 2.08789062 0.265625 C3.84256666 0.5140747 5.58067522 0.87397049 7.3125 1.25 C7.6425 1.91 7.9725 2.57 8.3125 3.25 C6.9925 3.58 5.6725 3.91 4.3125 4.25 C3.9825 6.23 3.6525 8.21 3.3125 10.25 C3.9725 10.25 4.6325 10.25 5.3125 10.25 C6.37601675 13.63391693 6.52692982 14.8304634 4.875 18.0625 C4.359375 18.784375 3.84375 19.50625 3.3125 20.25 C1.8125 18.875 1.8125 18.875 0.3125 17.25 C0.3125 16.59 0.3125 15.93 0.3125 15.25 C-0.6775 15.25 -1.6675 15.25 -2.6875 15.25 C-2.873125 14.30125 -3.05875 13.3525 -3.25 12.375 C-4.42150805 8.86628301 -4.42150805 8.86628301 -8.3125 7.875 C-9.42625 7.66875 -10.54 7.4625 -11.6875 7.25 C-11.6875 5.27 -11.6875 3.29 -11.6875 1.25 C-7.87265961 -1.37821909 -4.33408479 -0.65980358 0 0 Z " fill="#0B0C0D" transform="translate(49.6875,70.75)"/>
<path d="M0 0 C2.5 1.375 2.5 1.375 5 3 C5 3.66 5 4.32 5 5 C3.03533587 6.06775224 1.03144641 7.06553465 -1 8 C-1.66 7.67 -2.32 7.34 -3 7 C-3 7.66 -3 8.32 -3 9 C-2.34 9.33 -1.68 9.66 -1 10 C-2.16917969 10.20496094 -3.33835937 10.40992187 -4.54296875 10.62109375 C-6.09115122 10.89319855 -7.639328 11.16533567 -9.1875 11.4375 C-9.95642578 11.57220703 -10.72535156 11.70691406 -11.51757812 11.84570312 C-15.35465574 12.52089704 -19.18399568 13.21232777 -23 14 C-23 13.34 -23 12.68 -23 12 C-23.66 11.67 -24.32 11.34 -25 11 C-23.35 10.34 -21.7 9.68 -20 9 C-22.31 8.67 -24.62 8.34 -27 8 C-27 7.01 -27 6.02 -27 5 C-25.081875 4.80083984 -25.081875 4.80083984 -23.125 4.59765625 C-21.41666223 4.4193133 -19.70832915 4.24092549 -18 4.0625 C-17.16082031 3.97548828 -16.32164063 3.88847656 -15.45703125 3.79882812 C-10.29593708 3.25871362 -5.14700198 2.66124678 0 2 C0 1.34 0 0.68 0 0 Z " fill="#0F1011" transform="translate(93,77)"/>
<path d="M0 0 C3.25244511 1.33266375 6.11269944 3.00384159 9 5 C9 5.99 9 6.98 9 8 C9.67546875 8.17015625 10.3509375 8.3403125 11.046875 8.515625 C19.82644628 10.90082645 19.82644628 10.90082645 23 15 C23.66 15.66 24.32 16.32 25 17 C19.25 17.125 19.25 17.125 17 16 C16.67 16.99 16.34 17.98 16 19 C14 19.75 14 19.75 12 20 C11 19 11 19 10.90234375 17.15234375 C10.93489583 15.1015625 10.96744792 13.05078125 11 11 C6.41092125 9.11037934 1.91167493 7.31861249 -3 6.5 C-6.19403794 5.96766034 -9.01099287 5.25121229 -12 4 C-12.33 3.01 -12.66 2.02 -13 1 C-9.01633599 -0.991832 -4.32871791 -0.53398882 0 0 Z " fill="#09090A" transform="translate(73,93)"/>
<path d="M0 0 C0 0.33 0 0.66 0 1 C-3.96 1 -7.92 1 -12 1 C-12 1.66 -12 2.32 -12 3 C-10.35 3 -8.7 3 -7 3 C-7 3.99 -7 4.98 -7 6 C-14.60352814 6.81772387 -22.104826 7.15537817 -29.75 7.125 C-30.73871094 7.12886719 -31.72742188 7.13273437 -32.74609375 7.13671875 C-37.93940258 7.12978509 -42.88332906 6.90041975 -48 6 C-48 5.67 -48 5.34 -48 5 C-39.72406434 3.81772348 -31.34708609 3.463727 -23 3 C-36.86 2.67 -50.72 2.34 -65 2 C-65 1.67 -65 1.34 -65 1 C-58.95758757 0.85454884 -52.91511013 0.71230694 -46.87255859 0.57275391 C-44.82664056 0.52508514 -42.78074106 0.47661221 -40.73486328 0.42724609 C-27.15358471 0.10022759 -13.5852308 -0.0674577 0 0 Z " fill="#C4C5C9" transform="translate(115,62)"/>
<path d="M0 0 C0 0.66 0 1.32 0 2 C-4.19851931 2.71626282 -8.39773988 3.42821704 -12.59765625 4.13623047 C-14.02558999 4.37756682 -15.45332731 4.62006848 -16.88085938 4.86376953 C-18.93568902 5.2143498 -20.99119431 5.56069948 -23.046875 5.90625 C-24.28276367 6.11572266 -25.51865234 6.32519531 -26.79199219 6.54101562 C-30 7 -30 7 -34 7 C-34 7.66 -34 8.32 -34 9 C-35.5 10.625 -35.5 10.625 -37 12 C-35.35 12.33 -33.7 12.66 -32 13 C-32 13.99 -32 14.98 -32 16 C-31.01 16.33 -30.02 16.66 -29 17 C-29 17.66 -29 18.32 -29 19 C-30.62414378 19.19477739 -32.24936423 19.38059458 -33.875 19.5625 C-34.77992187 19.66691406 -35.68484375 19.77132812 -36.6171875 19.87890625 C-39 20 -39 20 -41 19 C-41 18.01 -41 17.02 -41 16 C-42.32 15.67 -43.64 15.34 -45 15 C-44.67 14.34 -44.34 13.68 -44 13 C-43.34 13 -42.68 13 -42 13 C-42 13.66 -42 14.32 -42 15 C-41.01 14.67 -40.02 14.34 -39 14 C-39.66 13.67 -40.32 13.34 -41 13 C-41 12.34 -41 11.68 -41 11 C-41.66 11 -42.32 11 -43 11 C-42 8 -42 8 -39.9375 6.8125 C-39.298125 6.544375 -38.65875 6.27625 -38 6 C-38 5.67 -38 5.34 -38 5 C-37.1529248 4.88406494 -36.30584961 4.76812988 -35.43310547 4.64868164 C-32.26845917 4.21512986 -29.10392128 3.78079718 -25.93945312 3.34594727 C-24.57393571 3.15846315 -23.20837642 2.97128373 -21.84277344 2.78442383 C-19.8716329 2.51465094 -17.90065853 2.24366477 -15.9296875 1.97265625 C-14.74616699 1.81031494 -13.56264648 1.64797363 -12.34326172 1.48071289 C-10.14233836 1.16425181 -7.94548627 0.81779615 -5.75439453 0.43920898 C-3 0 -3 0 0 0 Z " fill="#545559" transform="translate(123,82)"/>
<path d="M0 0 C0.33 0.99 0.66 1.98 1 3 C0.67 3.66 0.34 4.32 0 5 C0.66 4.34 1.32 3.68 2 3 C3.32 3 4.64 3 6 3 C6 2.01 6 1.02 6 0 C6.66 0 7.32 0 8 0 C7.52794881 4.24846075 5.11122478 6.26819288 2 9 C1.34 9 0.68 9 0 9 C0 9.66 0 10.32 0 11 C-1.6436814 12.68933922 -3.3142876 14.35259924 -5 16 C-7.45148884 18.87174407 -9.46425212 21.54456727 -11 25 C-12.33332095 22.3333581 -11.67102033 20.83319697 -11 18 C-11.99 18 -12.98 18 -14 18 C-14 15.69 -14 13.38 -14 11 C-14.66 11 -15.32 11 -16 11 C-16 9.35 -16 7.7 -16 6 C-14.35 5.67 -12.7 5.34 -11 5 C-10.67 6.65 -10.34 8.3 -10 10 C-9.34 9.67 -8.68 9.34 -8 9 C-8.33 10.98 -8.66 12.96 -9 15 C-8.67 14.34 -8.34 13.68 -8 13 C-7.01 12.34 -6.02 11.68 -5 11 C-4.67 10.34 -4.34 9.68 -4 9 C-3.01 9.33 -2.02 9.66 -1 10 C-0.67 8.68 -0.34 7.36 0 6 C-3.465 7.485 -3.465 7.485 -7 9 C-6.25 4.25 -6.25 4.25 -4 2 C-2.68 2 -1.36 2 0 2 C0 1.34 0 0.68 0 0 Z M-15 7 C-15 7.66 -15 8.32 -15 9 C-14.34 9 -13.68 9 -13 9 C-13 8.34 -13 7.68 -13 7 C-13.66 7 -14.32 7 -15 7 Z " fill="#7B7A7E" transform="translate(127,105)"/>
<path d="M0 0 C-0.33 0.66 -0.66 1.32 -1 2 C-3.31 1.67 -5.62 1.34 -8 1 C-8 1.66 -8 2.32 -8 3 C-8.804375 3.12375 -9.60875 3.2475 -10.4375 3.375 C-11.7059375 3.684375 -11.7059375 3.684375 -13 4 C-13.33 4.66 -13.66 5.32 -14 6 C-11.03 6 -8.06 6 -5 6 C-4.67 6.99 -4.34 7.98 -4 9 C-4.66 9 -5.32 9 -6 9 C-6.33 9.66 -6.66 10.32 -7 11 C-7 10.34 -7 9.68 -7 9 C-7.845625 9.185625 -8.69125 9.37125 -9.5625 9.5625 C-13.2773282 10.03529632 -16.32974273 9.66064631 -20 9 C-20 10.32 -20 11.64 -20 13 C-20.99 12.67 -21.98 12.34 -23 12 C-22.67 11.34 -22.34 10.68 -22 10 C-24.475 9.01 -24.475 9.01 -27 8 C-26.67 7.01 -26.34 6.02 -26 5 C-25.34 5 -24.68 5 -24 5 C-24 4.34 -24 3.68 -24 3 C-21.64631607 2.51835812 -19.29209845 2.03963352 -16.9375 1.5625 C-16.28072266 1.42779297 -15.62394531 1.29308594 -14.94726562 1.15429688 C-2.65625 -1.328125 -2.65625 -1.328125 0 0 Z " fill="#141417" transform="translate(113,86)"/>
<path d="M0 0 C0 0.66 0 1.32 0 2 C1.32 2 2.64 2 4 2 C5.46726798 5.81489674 4.43336419 8.29011622 3 12 C4.32 12.33 5.64 12.66 7 13 C6.34 13 5.68 13 5 13 C5 13.99 5 14.98 5 16 C5.66 16 6.32 16 7 16 C7.66 18.64 8.32 21.28 9 24 C8.01 24 7.02 24 6 24 C5.67 22.35 5.34 20.7 5 19 C3.35 18.67 1.7 18.34 0 18 C0 17.01 0 16.02 0 15 C-0.66 15 -1.32 15 -2 15 C-2 14.34 -2 13.68 -2 13 C-2.66 13 -3.32 13 -4 13 C-4 11.68 -4 10.36 -4 9 C-3.34 9 -2.68 9 -2 9 C-2.66 6.36 -3.32 3.72 -4 1 C-2 0 -2 0 0 0 Z " fill="#202023" transform="translate(86,113)"/>
<path d="M0 0 C0.66 0 1.32 0 2 0 C3.125 3.75 3.125 3.75 2 6 C0.35 6 -1.3 6 -3 6 C-3.0928125 7.0828125 -3.0928125 7.0828125 -3.1875 8.1875 C-4.27061906 11.93675828 -6.15028077 13.33613203 -9 16 C-11.38387265 18.62334844 -13.68671734 21.31446495 -16 24 C-16.70189453 24.77537109 -16.70189453 24.77537109 -17.41796875 25.56640625 C-20.81929863 29.4072926 -22.85198485 33.38574522 -25 38 C-25.495 36.515 -25.495 36.515 -26 35 C-25.34 34.01 -24.68 33.02 -24 32 C-23.7525 30.453125 -23.7525 30.453125 -23.5 28.875 C-23.335 27.92625 -23.17 26.9775 -23 26 C-22.34 25.67 -21.68 25.34 -21 25 C-21 24.34 -21 23.68 -21 23 C-19.68 23 -18.36 23 -17 23 C-17 21.35 -17 19.7 -17 18 C-15.35 17.67 -13.7 17.34 -12 17 C-12 16.34 -12 15.68 -12 15 C-11.34 15 -10.68 15 -10 15 C-10 13.68 -10 12.36 -10 11 C-9.01 11 -8.02 11 -7 11 C-7 10.34 -7 9.68 -7 9 C-7.99 9 -8.98 9 -10 9 C-10.33 9.66 -10.66 10.32 -11 11 C-11.99 10.67 -12.98 10.34 -14 10 C-12.33400078 7.20248596 -11.46797784 6.14357642 -8.30078125 5.171875 C-7.31464844 5.03265625 -6.32851562 4.8934375 -5.3125 4.75 C-4.31863281 4.60046875 -3.32476562 4.4509375 -2.30078125 4.296875 C-1.54152344 4.19890625 -0.78226563 4.1009375 0 4 C0 2.68 0 1.36 0 0 Z " fill="#757579" transform="translate(162,67)"/>
<path d="M0 0 C2.475 0.99 2.475 0.99 5 2 C5 3.32 5 4.64 5 6 C5.5775 6.20625 6.155 6.4125 6.75 6.625 C9.84477636 8.51625222 11.1918763 10.90035937 13 14 C13 14.66 13 15.32 13 16 C13.99 16 14.98 16 16 16 C16 16.66 16 17.32 16 18 C16.66 18 17.32 18 18 18 C18.33 17.01 18.66 16.02 19 15 C19.33 15.66 19.66 16.32 20 17 C20.99 17 21.98 17 23 17 C22.67 19.97 22.34 22.94 22 26 C20.35 26.33 18.7 26.66 17 27 C14.80902348 23.6659053 13.56545837 20.95820859 13 17 C12.42636719 16.97808594 11.85273437 16.95617187 11.26171875 16.93359375 C7.70529193 15.46556955 6.53106269 12.31583912 4.8125 9.0625 C4.45736328 8.41603516 4.10222656 7.76957031 3.73632812 7.10351562 C2.45123001 4.75522438 1.19719229 2.39438458 0 0 Z " fill="#4A4A4D" transform="translate(79,134)"/>
<path d="M0 0 C0 0.99 0 1.98 0 3 C0.66 3 1.32 3 2 3 C1.67 4.65 1.34 6.3 1 8 C0.67 7.01 0.34 6.02 0 5 C-1.60781893 5.7631861 -3.21113138 6.53587058 -4.8125 7.3125 C-5.70582031 7.74175781 -6.59914062 8.17101562 -7.51953125 8.61328125 C-10.01931754 9.8384556 -10.01931754 9.8384556 -11.5625 11.71875 C-12.036875 12.1415625 -12.51125 12.564375 -13 13 C-15.84875378 12.79846293 -18.25099253 11.85624823 -21 11 C-21 10.34 -21 9.68 -21 9 C-21.99 8.67 -22.98 8.34 -24 8 C-20.4602993 5.64019954 -18.00893712 5.41399192 -13.8125 4.875 C-12.54019531 4.70742187 -11.26789063 4.53984375 -9.95703125 4.3671875 C-8.98121094 4.24601562 -8.00539063 4.12484375 -7 4 C-6.67 3.01 -6.34 2.02 -6 1 C-4 0 -4 0 0 0 Z " fill="#1A1A1C" transform="translate(136,84)"/>
<path d="M0 0 C1.918125 0.1546875 1.918125 0.1546875 3.875 0.3125 C4.95394531 0.39951172 4.95394531 0.39951172 6.0546875 0.48828125 C8 1 8 1 10 4 C12.05925139 4.72382467 12.05925139 4.72382467 14 5 C14 5.66 14 6.32 14 7 C15.65 7 17.3 7 19 7 C19 7.33 19 7.66 19 8 C15.37640521 8.53094431 11.75096814 9.04803488 8.125 9.5625 C7.09246094 9.71396484 6.05992188 9.86542969 4.99609375 10.02148438 C4.00996094 10.16005859 3.02382812 10.29863281 2.0078125 10.44140625 C1.09660645 10.57232666 0.18540039 10.70324707 -0.75341797 10.83813477 C-3 11 -3 11 -5 10 C-5 9.34 -5 8.68 -5 8 C-2.33333333 7.33333333 0.33333333 6.66666667 3 6 C3 5.34 3 4.68 3 4 C1.68 3.67 0.36 3.34 -1 3 C-0.67 2.01 -0.34 1.02 0 0 Z " fill="#141417" transform="translate(95,76)"/>
<path d="M0 0 C2.69082872 0.17635452 5.32851446 0.61835921 8 1 C8 1.33 8 1.66 8 2 C5.69 2 3.38 2 1 2 C1 2.66 1 3.32 1 4 C-2.63 4 -6.26 4 -10 4 C-9.67 5.98 -9.34 7.96 -9 10 C-6.56282742 9.72965366 -6.56282742 9.72965366 -4 9 C-3.34 8.01 -2.68 7.02 -2 6 C-1.01 6.33 -0.02 6.66 1 7 C1 7.99 1 8.98 1 10 C0.01 10.33 -0.98 10.66 -2 11 C-2 12.98 -2 14.96 -2 17 C-1.05125 17.268125 -0.1025 17.53625 0.875 17.8125 C4 19 4 19 6 22 C5.67 22.99 5.34 23.98 5 25 C4.2575 24.21625 3.515 23.4325 2.75 22.625 C0.28216753 19.97398801 0.28216753 19.97398801 -2.25 19 C-2.8275 18.67 -3.405 18.34 -4 18 C-4.144375 17.175 -4.28875 16.35 -4.4375 15.5 C-4.623125 14.675 -4.80875 13.85 -5 13 C-7.42383077 11.83046584 -7.42383077 11.83046584 -10 11 C-12.14915785 7.77626323 -12.38286803 6.73296326 -12 3 C-10 1 -10 1 -7.87109375 0.83984375 C-6.66646484 0.88818359 -6.66646484 0.88818359 -5.4375 0.9375 C-3.95918728 0.99190191 -2.47917459 1.02026267 -1 1 C-0.67 0.67 -0.34 0.34 0 0 Z " fill="#909097" transform="translate(41,61)"/>
<path d="M0 0 C0.99 0.66 1.98 1.32 3 2 C2.01 3.98 1.02 5.96 0 8 C-0.99 8 -1.98 8 -3 8 C-3 8.99 -3 9.98 -3 11 C-6 13 -6 13 -9 13 C-9 12.01 -9 11.02 -9 10 C-9.99 9.67 -10.98 9.34 -12 9 C-11.21448343 7.68381002 -10.4213763 6.37214772 -9.625 5.0625 C-9.18414062 4.33160156 -8.74328125 3.60070312 -8.2890625 2.84765625 C-6.0236715 -0.39940418 -3.75019535 -0.27440454 0 0 Z " fill="#242428" transform="translate(136,97)"/>
<path d="M0 0 C0 0.33 0 0.66 0 1 C-3.96 1 -7.92 1 -12 1 C-12 1.66 -12 2.32 -12 3 C-10.35 3 -8.7 3 -7 3 C-7 3.33 -7 3.66 -7 4 C-9.10409639 4.02701408 -11.20829178 4.04640223 -13.3125 4.0625 C-14.48425781 4.07410156 -15.65601563 4.08570312 -16.86328125 4.09765625 C-20 4 -20 4 -23 3 C-24.39579273 2.88705254 -25.79599909 2.82410813 -27.19604492 2.79467773 C-28.03668991 2.77473251 -28.8773349 2.75478729 -29.74345398 2.73423767 C-30.64666885 2.71752518 -31.54988373 2.70081268 -32.48046875 2.68359375 C-33.87245232 2.6524221 -33.87245232 2.6524221 -35.29255676 2.62062073 C-38.2574624 2.55522677 -41.22245672 2.49628738 -44.1875 2.4375 C-46.1972748 2.39430513 -48.20704063 2.35069053 -50.21679688 2.30664062 C-55.14444032 2.19955573 -60.07217299 2.09825955 -65 2 C-65 1.67 -65 1.34 -65 1 C-58.95758757 0.85454884 -52.91511013 0.71230694 -46.87255859 0.57275391 C-44.82664056 0.52508514 -42.78074106 0.47661221 -40.73486328 0.42724609 C-27.15358471 0.10022759 -13.5852308 -0.0674577 0 0 Z " fill="#A1A1AA" transform="translate(115,62)"/>
<path d="M0 0 C-0.99 0.66 -1.98 1.32 -3 2 C-0.03 2.66 2.94 3.32 6 4 C6 4.33 6 4.66 6 5 C4.87980469 5.13277344 3.75960937 5.26554687 2.60546875 5.40234375 C1.13279271 5.58056569 -0.33986247 5.75896011 -1.8125 5.9375 C-2.55048828 6.02451172 -3.28847656 6.11152344 -4.04882812 6.20117188 C-7.16733121 6.58216546 -10.01108122 7.00369374 -13 8 C-15.1875 7.0625 -15.1875 7.0625 -17 6 C-16.67 4.35 -16.34 2.7 -16 1 C-14.27111445 0.83044205 -12.54187557 0.66448486 -10.8125 0.5 C-9.84957031 0.4071875 -8.88664062 0.314375 -7.89453125 0.21875 C-5.24812333 0.01875156 -2.65239135 -0.03879183 0 0 Z " fill="#232326" transform="translate(70,75)"/>
<path d="M0 0 C3.48331435 3.01887244 4.79157144 5.56909529 6 10 C5.34 10 4.68 10 4 10 C4 9.01 4 8.02 4 7 C3.34 7 2.68 7 2 7 C3.13499394 10.29148243 3.99283376 10.9959869 7.125 12.75 C8.07375 13.1625 9.0225 13.575 10 14 C9.67 15.65 9.34 17.3 9 19 C8.34 19 7.68 19 7 19 C7 18.34 7 17.68 7 17 C6.01 17 5.02 17 4 17 C2.75390625 15.390625 2.75390625 15.390625 1.5625 13.25 C0.03400142 10.61113315 -1.13335669 8.87366209 -3.375 6.75 C-3.91125 6.1725 -4.4475 5.595 -5 5 C-4.75 2.75 -4.75 2.75 -4 1 C-2.02 1.495 -2.02 1.495 0 2 C0 1.34 0 0.68 0 0 Z " fill="#0B0B0C" transform="translate(88,133)"/>
<path d="M0 0 C-0.33 0.66 -0.66 1.32 -1 2 C-2.33333333 2.33333333 -3.66666667 2.66666667 -5 3 C-5.33 3.66 -5.66 4.32 -6 5 C-5.34 5 -4.68 5 -4 5 C-4 5.66 -4 6.32 -4 7 C-3.01 7.33 -2.02 7.66 -1 8 C-2.32 8.33 -3.64 8.66 -5 9 C-5 8.34 -5 7.68 -5 7 C-6.0828125 7.309375 -6.0828125 7.309375 -7.1875 7.625 C-10.57439313 8.07658575 -11.9369053 7.45861652 -15 6 C-16.26907204 5.45421954 -17.53997721 4.91268568 -18.8125 4.375 C-19.864375 3.92125 -20.91625 3.4675 -22 3 C-22 2.67 -22 2.34 -22 2 C-21.41992188 2.02320312 -20.83984375 2.04640625 -20.2421875 2.0703125 C-13.15195909 2.23411316 -7.07414705 -0.28296588 0 0 Z " fill="#46464F" transform="translate(86,88)"/>
<path d="M0 0 C1.45212891 -0.03867188 1.45212891 -0.03867188 2.93359375 -0.078125 C5.5625 0.25 5.5625 0.25 7.41015625 1.765625 C7.98056641 2.50039062 7.98056641 2.50039062 8.5625 3.25 C8.2325 4.24 7.9025 5.23 7.5625 6.25 C3.11092814 7.28524927 0.67218826 7.2493078 -3.4375 5.25 C-4.4275 4.92 -5.4175 4.59 -6.4375 4.25 C-6.7675 3.26 -7.0975 2.27 -7.4375 1.25 C-4.85741408 -0.04004296 -2.88008426 0.04589776 0 0 Z " fill="#0E0F10" transform="translate(67.4375,92.75)"/>
<path d="M0 0 C11.88 0 23.76 0 36 0 C32.86843493 2.08771005 31.98551048 2.26825584 28.39453125 2.37890625 C27.49283203 2.41306641 26.59113281 2.44722656 25.66210938 2.48242188 C24.25155273 2.52206055 24.25155273 2.52206055 22.8125 2.5625 C16.47785485 2.77084732 10.27843338 3.10729678 4 4 C4 3.34 4 2.68 4 2 C2.68 1.34 1.36 0.68 0 0 Z " fill="#5A5966" transform="translate(62,64)"/>
<path d="M0 0 C1.8125 0.1875 1.8125 0.1875 4 1 C5.75 3.5625 5.75 3.5625 7 6 C7.99 5.34 8.98 4.68 10 4 C10.99 4 11.98 4 13 4 C12.6875 5.9375 12.6875 5.9375 12 8 C11.01 8.33 10.02 8.66 9 9 C7.18218133 10.60807036 6.0892574 11.8214852 5 14 C4.34 14 3.68 14 3 14 C3.33 12.35 3.66 10.7 4 9 C3.34 8.67 2.68 8.34 2 8 C2 6.35 2 4.7 2 3 C1.01 2.67 0.02 2.34 -1 2 C-0.67 1.34 -0.34 0.68 0 0 Z " fill="#29282D" transform="translate(114,107)"/>
<path d="M0 0 C0.33 1.65 0.66 3.3 1 5 C1.66 4.67 2.32 4.34 3 4 C2.76110725 5.63812169 2.52191546 7.27620031 2.28125 8.9140625 C2.08857247 10.34308754 1.92322382 11.7759878 1.78125 13.2109375 C1.58542105 15.14824535 1.29857541 17.07584735 1 19 C0.34 19.33 -0.32 19.66 -1 20 C-0.67 17.69 -0.34 15.38 0 13 C-0.99 13 -1.98 13 -3 13 C-3 10.69 -3 8.38 -3 6 C-3.66 6 -4.32 6 -5 6 C-5 4.35 -5 2.7 -5 1 C-3 0 -3 0 0 0 Z M-4 2 C-4 2.66 -4 3.32 -4 4 C-3.34 4 -2.68 4 -2 4 C-2 3.34 -2 2.68 -2 2 C-2.66 2 -3.32 2 -4 2 Z " fill="#606164" transform="translate(116,110)"/>
<path d="M0 0 C1.32 0.33 2.64 0.66 4 1 C3.62671065 6.35048061 2.0042343 8.50912907 -2 12 C-2.99 11.67 -3.98 11.34 -5 11 C-5 9.02 -5 7.04 -5 5 C-4.01 4.67 -3.02 4.34 -2 4 C-0.79117904 1.99983534 -0.79117904 1.99983534 0 0 Z " fill="#040605" transform="translate(123,98)"/>
<path d="M0 0 C0.33 0.99 0.66 1.98 1 3 C9.415 2.01 9.415 2.01 18 1 C18.33 1.66 18.66 2.32 19 3 C17.35 3.33 15.7 3.66 14 4 C14 4.66 14 5.32 14 6 C7.4 6 0.8 6 -6 6 C-6 5.34 -6 4.68 -6 4 C-4.02 4 -2.04 4 0 4 C0 2.68 0 1.36 0 0 Z " fill="#84838E" transform="translate(120,62)"/>
<path d="M0 0 C3.3 0 6.6 0 10 0 C10 0.66 10 1.32 10 2 C6.44239635 4.61588503 3.35522853 5.49357808 -1 6 C-0.34 6.66 0.32 7.32 1 8 C-1.31 8.33 -3.62 8.66 -6 9 C-5.67 8.34 -5.34 7.68 -5 7 C-5.39938767 4.90178785 -5.39938767 4.90178785 -6 3 C-3.69 3 -1.38 3 1 3 C0.67 2.01 0.34 1.02 0 0 Z " fill="#19181B" transform="translate(122,81)"/>
<path d="M0 0 C1.32 0 2.64 0 4 0 C4.33 1.32 4.66 2.64 5 4 C1.6322098 6.24519347 -0.01002931 6.05643094 -3.93359375 5.93359375 C-6.82702915 6.0265775 -9.29284032 7.03315726 -12 8 C-12.66 7.67 -13.32 7.34 -14 7 C-13.67 6.01 -13.34 5.02 -13 4 C-11.35 4 -9.7 4 -8 4 C-8 3.34 -8 2.68 -8 2 C-5.69 2.33 -3.38 2.66 -1 3 C-0.67 2.01 -0.34 1.02 0 0 Z " fill="#09090A" transform="translate(113,85)"/>
<path d="M0 0 C0 0.33 0 0.66 0 1 C-2.64 1.33 -5.28 1.66 -8 2 C-8 2.99 -8 3.98 -8 5 C-9.58013217 5.25028811 -11.16442306 5.47440946 -12.75 5.6875 C-13.63171875 5.81511719 -14.5134375 5.94273438 -15.421875 6.07421875 C-18.55676517 5.98397191 -19.71823587 5.07384637 -22 3 C-21.67 2.34 -21.34 1.68 -21 1 C-14.19925464 -0.48329014 -6.92054682 -0.1184124 0 0 Z " fill="#29292D" transform="translate(108,68)"/>
<path d="M0 0 C0 0.66 0 1.32 0 2 C-10.43336759 5.06863753 -21.19030865 5.19496437 -32 5 C-28.77480358 3.11672928 -26.14525022 2.67459423 -22.4375 2.4375 C-19.33400708 2.23116194 -16.96590813 1.98863604 -14 1 C-11.98289989 0.77587777 -9.9610929 0.59240444 -7.9375 0.4375 C-6.34228516 0.31181641 -6.34228516 0.31181641 -4.71484375 0.18359375 C-3.14562225 0.07747373 -1.57280564 0 0 0 Z " fill="#AFB1B6" transform="translate(93,77)"/>
<path d="M0 0 C0 1.32 0 2.64 0 4 C-1.98 4 -3.96 4 -6 4 C-6 4.66 -6 5.32 -6 6 C-6.66 6 -7.32 6 -8 6 C-8 5.34 -8 4.68 -8 4 C-8.66 4 -9.32 4 -10 4 C-10.33 4.99 -10.66 5.98 -11 7 C-11.33 5.68 -11.66 4.36 -12 3 C-13.65 3 -15.3 3 -17 3 C-17 2.34 -17 1.68 -17 1 C-15.10440036 0.83069605 -13.20850769 0.66467136 -11.3125 0.5 C-10.25675781 0.4071875 -9.20101562 0.314375 -8.11328125 0.21875 C-5.39363975 0.0276585 -2.72460144 -0.04043935 0 0 Z " fill="#393841" transform="translate(120,62)"/>
<path d="M0 0 C1.32 0.33 2.64 0.66 4 1 C3.67 3.31 3.34 5.62 3 8 C1.68 8.33 0.36 8.66 -1 9 C-1 10.98 -1 12.96 -1 15 C-2.32 15.33 -3.64 15.66 -5 16 C-5.33 15.34 -5.66 14.68 -6 14 C-5.34 14 -4.68 14 -4 14 C-3.896875 12.906875 -3.79375 11.81375 -3.6875 10.6875 C-2.97920402 6.88845793 -2.64635355 6.41623585 0 4 C0 2.68 0 1.36 0 0 Z " fill="#1B1C1E" transform="translate(112,122)"/>
<path d="M0 0 C0.66 0 1.32 0 2 0 C2 0.99 2 1.98 2 3 C3.32 3.66 4.64 4.32 6 5 C6 5.99 6 6.98 6 8 C7.32 8.33 8.64 8.66 10 9 C10.99 12.63 11.98 16.26 13 20 C9.36710986 16.55161741 6.46111741 13.04326119 3.6875 8.875 C2.64142578 7.32425781 2.64142578 7.32425781 1.57421875 5.7421875 C0 3 0 3 0 0 Z " fill="#93929A" transform="translate(59,104)"/>
<path d="M0 0 C0.66 0 1.32 0 2 0 C3.125 3.75 3.125 3.75 2 6 C0.35 6 -1.3 6 -3 6 C-3 7.32 -3 8.64 -3 10 C-5.31 9.67 -7.62 9.34 -10 9 C-10.33 9.66 -10.66 10.32 -11 11 C-11.99 10.67 -12.98 10.34 -14 10 C-12.33400078 7.20248596 -11.46797784 6.14357642 -8.30078125 5.171875 C-7.31464844 5.03265625 -6.32851562 4.8934375 -5.3125 4.75 C-4.31863281 4.60046875 -3.32476562 4.4509375 -2.30078125 4.296875 C-1.54152344 4.19890625 -0.78226563 4.1009375 0 4 C0 2.68 0 1.36 0 0 Z " fill="#242427" transform="translate(162,67)"/>
<path d="M0 0 C1.13598633 0.00483398 1.13598633 0.00483398 2.29492188 0.00976562 C3.47344727 0.02233398 3.47344727 0.02233398 4.67578125 0.03515625 C5.47306641 0.03966797 6.27035156 0.04417969 7.09179688 0.04882812 C9.05732382 0.06059775 11.0228121 0.07853277 12.98828125 0.09765625 C12.65828125 1.08765625 12.32828125 2.07765625 11.98828125 3.09765625 C5.40644763 3.99080695 -0.43322383 4.05259906 -7.01171875 3.09765625 C-7.01171875 2.43765625 -7.01171875 1.77765625 -7.01171875 1.09765625 C-4.30455633 0.19526878 -2.77395107 -0.02085677 0 0 Z " fill="#131315" transform="translate(74.01171875,68.90234375)"/>
<path d="M0 0 C5.76082132 -0.12001711 11.31648386 -0.0149136 17 1 C17.33 1.66 17.66 2.32 18 3 C20.32156597 3.40729228 22.6568787 3.74438677 25 4 C25 4.33 25 4.66 25 5 C22.9377952 5.054348 20.87517184 5.09294961 18.8125 5.125 C17.66394531 5.14820312 16.51539062 5.17140625 15.33203125 5.1953125 C12.03552404 5.0020823 9.96912344 4.36419185 7 3 C4.67251306 2.31320058 2.34013344 1.64238957 0 1 C0 0.67 0 0.34 0 0 Z " fill="#4F4F54" transform="translate(46,69)"/>
<path d="M0 0 C2.475 0.99 2.475 0.99 5 2 C5 3.32 5 4.64 5 6 C5.5775 6.20625 6.155 6.4125 6.75 6.625 C9.863127 8.5274665 11.20739939 10.86294893 13 14 C13 14.99 13 15.98 13 17 C11.26171875 16.93359375 11.26171875 16.93359375 9 16 C7.42881068 13.69422866 6.10723801 11.51351435 4.8125 9.0625 C4.45736328 8.41603516 4.10222656 7.76957031 3.73632812 7.10351562 C2.45123001 4.75522438 1.19719229 2.39438458 0 0 Z " fill="#58585A" transform="translate(79,134)"/>
<path d="M0 0 C2.02045442 0.60183749 4.02111039 1.27306096 6 2 C6.33 2.66 6.66 3.32 7 4 C5.68 4.33 4.36 4.66 3 5 C3.7425 6.1446875 3.7425 6.1446875 4.5 7.3125 C6 10 6 10 6 13 C0.125 11.125 0.125 11.125 -1 10 C-1.36162029 8.67405895 -1.69728039 7.34061543 -2 6 C-1.34 6 -0.68 6 0 6 C0 4.02 0 2.04 0 0 Z M-4 10 C-3.01 10.495 -3.01 10.495 -2 11 C-2.99 11.495 -2.99 11.495 -4 12 C-4 11.34 -4 10.68 -4 10 Z " fill="#222226" transform="translate(74,105)"/>
<path d="M0 0 C1 3 1 3 -0.21484375 5.69921875 C-0.78332031 6.68535156 -1.35179688 7.67148438 -1.9375 8.6875 C-2.50339844 9.68136719 -3.06929688 10.67523438 -3.65234375 11.69921875 C-4.09707031 12.45847656 -4.54179688 13.21773437 -5 14 C-5.33 14 -5.66 14 -6 14 C-5.67 11.69 -5.34 9.38 -5 7 C-6.32 7.33 -7.64 7.66 -9 8 C-9 6.02 -9 4.04 -9 2 C-7.68 1.67 -6.36 1.34 -5 1 C-4.67 2.32 -4.34 3.64 -4 5 C-2.68 3.35 -1.36 1.7 0 0 Z " fill="#636367" transform="translate(107,144)"/>
<path d="M0 0 C0.33 0.99 0.66 1.98 1 3 C-0.8253125 3.2165625 -0.8253125 3.2165625 -2.6875 3.4375 C-5.82670377 3.82780953 -8.9075134 4.32351856 -12 5 C-11.67 3.35 -11.34 1.7 -11 0 C-7.01803543 -1.05404945 -4.01804691 -0.84098656 0 0 Z " fill="#151618" transform="translate(110,96)"/>
<path d="M0 0 C-0.60830861 6.44807122 -0.60830861 6.44807122 -2.375 8.9375 C-4 10 -4 10 -7 10 C-6.71872579 8.51882199 -6.42466268 7.04006751 -6.125 5.5625 C-5.96257812 4.73878906 -5.80015625 3.91507813 -5.6328125 3.06640625 C-5.42398438 2.38449219 -5.21515625 1.70257813 -5 1 C-3 0 -3 0 0 0 Z " fill="#19181B" transform="translate(108,139)"/>
<path d="M0 0 C2.64 0 5.28 0 8 0 C8 0.66 8 1.32 8 2 C7.01 2 6.02 2 5 2 C5 2.66 5 3.32 5 4 C5.66 4.33 6.32 4.66 7 5 C4.03 5.66 1.06 6.32 -2 7 C-2 6.34 -2 5.68 -2 5 C-2.66 4.67 -3.32 4.34 -4 4 C-2.35 3.34 -0.7 2.68 1 2 C0.67 1.34 0.34 0.68 0 0 Z " fill="#1A1A1D" transform="translate(72,84)"/>
<path d="M0 0 C0.66 0.33 1.32 0.66 2 1 C1.67 2.32 1.34 3.64 1 5 C0.34 5 -0.32 5 -1 5 C-1.33 5.66 -1.66 6.32 -2 7 C-2 6.01 -2 5.02 -2 4 C-3.65 3.67 -5.3 3.34 -7 3 C-7 2.01 -7 1.02 -7 0 C-4.30919898 -1.34540051 -2.86443593 -0.71610898 0 0 Z " fill="#29292D" transform="translate(99,112)"/>
<path d="M0 0 C2.40905271 0.38037674 3.66795222 0.62008947 5.30078125 2.48828125 C8.05581084 7.45584426 8.05581084 7.45584426 7.75 10.4375 C7.5025 10.953125 7.255 11.46875 7 12 C6.01 11.67 5.02 11.34 4 11 C2.83203125 8.49609375 2.83203125 8.49609375 1.8125 5.4375 C1.46832031 4.42558594 1.12414062 3.41367188 0.76953125 2.37109375 C0.51558594 1.58863281 0.26164062 0.80617188 0 0 Z " fill="#4A4A52" transform="translate(67,100)"/>
<path d="M0 0 C-0.33 0.66 -0.66 1.32 -1 2 C-3.31 1.67 -5.62 1.34 -8 1 C-8 1.66 -8 2.32 -8 3 C-11.63 3.33 -15.26 3.66 -19 4 C-19.33 3.34 -19.66 2.68 -20 2 C-17.04287371 1.47130166 -14.0846444 0.9517326 -11.125 0.4375 C-10.28324219 0.28603516 -9.44148438 0.13457031 -8.57421875 -0.02148438 C-7.76855469 -0.16005859 -6.96289062 -0.29863281 -6.1328125 -0.44140625 C-5.38918457 -0.57232666 -4.64555664 -0.70324707 -3.87939453 -0.83813477 C-2 -1 -2 -1 0 0 Z " fill="#2B2B2F" transform="translate(113,86)"/>
<path d="M0 0 C0.66 0 1.32 0 2 0 C2 0.99 2 1.98 2 3 C4.97 3.495 4.97 3.495 8 4 C8 3.01 8 2.02 8 1 C9.32 1 10.64 1 12 1 C11.375 3.375 11.375 3.375 10 6 C6.875 7.3125 6.875 7.3125 4 8 C4 7.01 4 6.02 4 5 C3.01 4.67 2.02 4.34 1 4 C0.3125 1.9375 0.3125 1.9375 0 0 Z " fill="#151517" transform="translate(90,140)"/>
<path d="M0 0 C3.63 0.33 7.26 0.66 11 1 C11 1.66 11 2.32 11 3 C11.66 3 12.32 3 13 3 C13.33 2.01 13.66 1.02 14 0 C14.33 1.32 14.66 2.64 15 4 C14.01 4.66 13.02 5.32 12 6 C9.75 5.3125 9.75 5.3125 7 4 C5.73106193 3.45390815 4.46016555 2.91234768 3.1875 2.375 C2.135625 1.92125 1.08375 1.4675 0 1 C0 0.67 0 0.34 0 0 Z " fill="#83848B" transform="translate(64,90)"/>
<path d="M0 0 C0 3 0 3 -1.4375 4.875 C-3.2010399 7.27341427 -3.59478146 9.08242648 -4 12 C-5.65 12.33 -7.3 12.66 -9 13 C-9 13.66 -9 14.32 -9 15 C-9.66 15 -10.32 15 -11 15 C-9.52834523 11.77707606 -7.69245806 9.15273288 -5.5 6.375 C-4.8915625 5.59898437 -4.283125 4.82296875 -3.65625 4.0234375 C-2 2 -2 2 0 0 Z " fill="#343439" transform="translate(112,124)"/>
<path d="M0 0 C0.33 0.99 0.66 1.98 1 3 C0.67 3.66 0.34 4.32 0 5 C0.99 5.33 1.98 5.66 3 6 C2.34 6 1.68 6 1 6 C0.67 6.66 0.34 7.32 0 8 C0 7.34 0 6.68 0 6 C-3.465 7.485 -3.465 7.485 -7 9 C-6.25 4.25 -6.25 4.25 -4 2 C-2.68 2 -1.36 2 0 2 C0 1.34 0 0.68 0 0 Z " fill="#696971" transform="translate(127,105)"/>
<path d="M0 0 C1.65 0 3.3 0 5 0 C4.67 1.32 4.34 2.64 4 4 C5.32 4.33 6.64 4.66 8 5 C8 6.65 8 8.3 8 10 C7.67 8.68 7.34 7.36 7 6 C5.68 6.33 4.36 6.66 3 7 C3 6.34 3 5.68 3 5 C1.68 5 0.36 5 -1 5 C-0.67 3.35 -0.34 1.7 0 0 Z " fill="#17181A" transform="translate(90,120)"/>
<path d="M0 0 C2.0625 0.4375 2.0625 0.4375 4 1 C3.67 1.66 3.34 2.32 3 3 C3.99 3.33 4.98 3.66 6 4 C6 4.66 6 5.32 6 6 C1.545 6.495 1.545 6.495 -3 7 C-1.125 1.125 -1.125 1.125 0 0 Z " fill="#5C5D64" transform="translate(88,95)"/>
<path d="M0 0 C1.65 0 3.3 0 5 0 C4.01 0.495 4.01 0.495 3 1 C3 1.99 3 2.98 3 4 C3.66 4 4.32 4 5 4 C5.66 6.64 6.32 9.28 7 12 C6.01 12 5.02 12 4 12 C3.3291288 10.3767313 2.66342971 8.75132422 2 7.125 C1.62875 6.22007812 1.2575 5.31515625 0.875 4.3828125 C0 2 0 2 0 0 Z " fill="#ABACB0" transform="translate(88,125)"/>
<path d="M0 0 C-0.66 0 -1.32 0 -2 0 C-2 1.65 -2 3.3 -2 5 C-2.66 4.01 -3.32 3.02 -4 2 C-4.66 3.32 -5.32 4.64 -6 6 C-6.66 6 -7.32 6 -8 6 C-8 5.34 -8 4.68 -8 4 C-8.99 3.67 -9.98 3.34 -11 3 C-10.34 2.67 -9.68 2.34 -9 2 C-9 1.34 -9 0.68 -9 0 C-5.62182575 -0.84454356 -3.32534757 -1.10844919 0 0 Z " fill="#1B1B1E" transform="translate(113,111)"/>
<path d="M0 0 C0.99 0.495 0.99 0.495 2 1 C1.67 1.66 1.34 2.32 1 3 C5.455 2.505 5.455 2.505 10 2 C9.67 2.99 9.34 3.98 9 5 C2.25 6.125 2.25 6.125 0 5 C0 3.35 0 1.7 0 0 Z " fill="#131315" transform="translate(43,63)"/>
<path d="M0 0 C0.99 0.66 1.98 1.32 3 2 C1.68 3.65 0.36 5.3 -1 7 C-1 5.68 -1 4.36 -1 3 C-2.65 3 -4.3 3 -6 3 C-6 3.66 -6 4.32 -6 5 C-6.66 5 -7.32 5 -8 5 C-7.625 3.0625 -7.625 3.0625 -7 1 C-4.47454232 -0.26272884 -2.80127043 -0.20497101 0 0 Z " fill="#414147" transform="translate(136,97)"/>
<path d="M0 0 C0.99 0.495 0.99 0.495 2 1 C2 2.32 2 3.64 2 5 C2.66 5.33 3.32 5.66 4 6 C4.40729228 8.32156597 4.74438677 10.6568787 5 13 C3.68 12.67 2.36 12.34 1 12 C0.13443723 7.88857686 0 4.19161906 0 0 Z " fill="#505058" transform="translate(85,119)"/>
<path d="M0 0 C0 0.66 0 1.32 0 2 C1.32 2.33 2.64 2.66 4 3 C4 3.66 4 4.32 4 5 C4.66 5.33 5.32 5.66 6 6 C4.35 6 2.7 6 1 6 C1 5.01 1 4.02 1 3 C0.01 3.33 -0.98 3.66 -2 4 C-4.35188447 3.40206327 -6.68925595 2.74118205 -9 2 C-9 1.67 -9 1.34 -9 1 C-5.846632 0.29925156 -3.27275026 0 0 0 Z " fill="#222225" transform="translate(94,101)"/>
<path d="M0 0 C1.65 0 3.3 0 5 0 C5 0.66 5 1.32 5 2 C5.66 2 6.32 2 7 2 C6.34 3.32 5.68 4.64 5 6 C2.03 5.505 2.03 5.505 -1 5 C-0.67 3.35 -0.34 1.7 0 0 Z " fill="#35353A" transform="translate(109,100)"/>
<path d="M0 0 C0 0.99 0 1.98 0 3 C0.99 3.33 1.98 3.66 3 4 C1.37585622 4.19477739 -0.24936423 4.38059458 -1.875 4.5625 C-2.77992187 4.66691406 -3.68484375 4.77132812 -4.6171875 4.87890625 C-7 5 -7 5 -9 4 C-9 3.34 -9 2.68 -9 2 C-8.38125 1.855625 -7.7625 1.71125 -7.125 1.5625 C-1.22222222 0 -1.22222222 0 0 0 Z " fill="#252529" transform="translate(99,82)"/>
<path d="M0 0 C-3.1749094 1.9078584 -5.10585211 2.1609041 -8.75 1.625 C-9.54921875 1.51414062 -10.3484375 1.40328125 -11.171875 1.2890625 C-11.77515625 1.19367188 -12.3784375 1.09828125 -13 1 C-13 0.34 -13 -0.32 -13 -1 C-8.03045858 -2.65651381 -4.73482302 -2.16449052 0 0 Z " fill="#09090A" transform="translate(80,71)"/>
<path d="M0 0 C-0.33 1.32 -0.66 2.64 -1 4 C-3.97 3.67 -6.94 3.34 -10 3 C-9.67 2.34 -9.34 1.68 -9 1 C-5.93090555 0.33280556 -3.14213983 0 0 0 Z " fill="#050607" transform="translate(130,85)"/>
<path d="M0 0 C0 0.66 0 1.32 0 2 C-8.42857143 4.28571429 -8.42857143 4.28571429 -13 4 C-13.33 3.01 -13.66 2.02 -14 1 C-12.04175306 0.83232136 -10.08339945 0.66588795 -8.125 0.5 C-6.48917969 0.36078125 -6.48917969 0.36078125 -4.8203125 0.21875 C-3.21670436 0.09437042 -1.60842449 0 0 0 Z " fill="#7F8185" transform="translate(93,77)"/>
<path d="M0 0 C0.97582031 0.00902344 1.95164062 0.01804687 2.95703125 0.02734375 C4.06111328 0.04474609 4.06111328 0.04474609 5.1875 0.0625 C5.1875 0.3925 5.1875 0.7225 5.1875 1.0625 C3.95 1.206875 2.7125 1.35125 1.4375 1.5 C-0.72014971 1.76404804 -2.71896011 2.03619191 -4.8125 2.625 C-8.125551 3.34972991 -11.4296693 3.11888051 -14.8125 3.0625 C-9.96948724 0.37193735 -5.48471626 -0.06608092 0 0 Z " fill="#232325" transform="translate(102.8125,67.9375)"/>
<path d="M0 0 C0.66 0 1.32 0 2 0 C1.52794881 4.24846075 -0.88877522 6.26819288 -4 9 C-4.66 9 -5.32 9 -6 9 C-6 9.66 -6 10.32 -6 11 C-6.66 10.67 -7.32 10.34 -8 10 C-7.67 9.34 -7.34 8.68 -7 8 C-6.34 8 -5.68 8 -5 8 C-5 7.34 -5 6.68 -5 6 C-4.34 6 -3.68 6 -3 6 C-3.33 5.01 -3.66 4.02 -4 3 C-2.68 3 -1.36 3 0 3 C0 2.01 0 1.02 0 0 Z " fill="#98989D" transform="translate(133,105)"/>
<path d="M0 0 C-4.73995055 3.15996703 -9.41157419 3.13305776 -15 3 C-15 2.34 -15 1.68 -15 1 C-9.91913204 0.15318867 -5.15171623 -0.09038099 0 0 Z " fill="#070708" transform="translate(81,82)"/>
<path d="M0 0 C5.28 0.33 10.56 0.66 16 1 C16 1.33 16 1.66 16 2 C10.27959989 2.8320582 4.77759884 3.12036664 -1 3 C-0.67 2.01 -0.34 1.02 0 0 Z " fill="#3B3B42" transform="translate(45,63)"/>
<path d="M0 0 C0.66 0 1.32 0 2 0 C3.125 3.75 3.125 3.75 2 6 C0.35 6 -1.3 6 -3 6 C-3.33 7.32 -3.66 8.64 -4 10 C-4 8.68 -4 7.36 -4 6 C-4.66 5.67 -5.32 5.34 -6 5 C-4.02 4.67 -2.04 4.34 0 4 C0 2.68 0 1.36 0 0 Z " fill="#A6A5AD" transform="translate(162,67)"/>
<path d="M0 0 C0.8353125 0.37125 0.8353125 0.37125 1.6875 0.75 C1.6875 1.74 1.6875 2.73 1.6875 3.75 C-1.63784757 4.85844919 -3.93432575 4.59454356 -7.3125 3.75 C-2.88173077 -0.31153846 -2.88173077 -0.31153846 0 0 Z " fill="#212025" transform="translate(57.3125,65.25)"/>
<path d="M0 0 C1.32 0 2.64 0 4 0 C4 0.99 4 1.98 4 3 C4.66 3 5.32 3 6 3 C5.67 4.65 5.34 6.3 5 8 C4.67 6.68 4.34 5.36 4 4 C2.35 4 0.7 4 -1 4 C-0.67 2.68 -0.34 1.36 0 0 Z " fill="#4A4A4E" transform="translate(132,84)"/>
<path d="M0 0 C0 0.33 0 0.66 0 1 C-2.64 1 -5.28 1 -8 1 C-8 1.66 -8 2.32 -8 3 C-9.32 3.33 -10.64 3.66 -12 4 C-12.33 3.34 -12.66 2.68 -13 2 C-12 0 -12 0 -10.4375 -0.6875 C-6.83532854 -1.14931685 -3.58833068 -0.5382496 0 0 Z " fill="#1E1E22" transform="translate(126,68)"/>
<path d="M0 0 C2.475 0.99 2.475 0.99 5 2 C4.67 2.66 4.34 3.32 4 4 C4.27942455 5.67654729 4.60828247 7.34608154 5 9 C0.125 4.375 0.125 4.375 -1 1 C-0.67 0.67 -0.34 0.34 0 0 Z " fill="#232327" transform="translate(64,97)"/>
<path d="M0 0 C0.33 0.99 0.66 1.98 1 3 C0.34 3 -0.32 3 -1 3 C-1.33 3.66 -1.66 4.32 -2 5 C-2 4.34 -2 3.68 -2 3 C-2.99 3.33 -3.98 3.66 -5 4 C-5.66 3.67 -6.32 3.34 -7 3 C-7 2.34 -7 1.68 -7 1 C-4.53721199 -0.231394 -2.7204945 -0.07159196 0 0 Z " fill="#242428" transform="translate(108,92)"/>
<path d="M0 0 C2 1 4 2 6 3 C6 4.32 6 5.64 6 7 C3.0625 6.1875 3.0625 6.1875 0 5 C-0.33 4.01 -0.66 3.02 -1 2 C-0.67 1.34 -0.34 0.68 0 0 Z " fill="#404145" transform="translate(77,102)"/>
<path d="M0 0 C1.32 0 2.64 0 4 0 C4 0.66 4 1.32 4 2 C5.65 2 7.3 2 9 2 C9 2.33 9 2.66 9 3 C4.545 3.495 4.545 3.495 0 4 C0 2.68 0 1.36 0 0 Z " fill="#28282B" transform="translate(105,81)"/>
<path d="M0 0 C1.65 0 3.3 0 5 0 C5 0.99 5 1.98 5 3 C4.34 3.66 3.68 4.32 3 5 C1.68 4.34 0.36 3.68 -1 3 C-0.67 2.01 -0.34 1.02 0 0 Z " fill="#2B2C2E" transform="translate(95,76)"/>
<path d="M0 0 C0.66 0.33 1.32 0.66 2 1 C1.979375 1.78375 1.95875 2.5675 1.9375 3.375 C1.81315937 5.98114961 1.81315937 5.98114961 3 8 C2.34 8 1.68 8 1 8 C0.67 8.66 0.34 9.32 0 10 C0 9.34 0 8.68 0 8 C-0.66 8 -1.32 8 -2 8 C-2 6.68 -2 5.36 -2 4 C-1.34 4 -0.68 4 0 4 C0 2.68 0 1.36 0 0 Z " fill="#333338" transform="translate(84,118)"/>
<path d="M0 0 C0.8353125 0.2475 0.8353125 0.2475 1.6875 0.5 C4.18691249 1.04041351 6.45045662 1.07082065 9 1 C9 2.32 9 3.64 9 5 C5.65626525 4.44271087 2.96687001 3.64826111 0 2 C0 1.34 0 0.68 0 0 Z " fill="#4F5059" transform="translate(58,85)"/>
<path d="M0 0 C0 0.66 0 1.32 0 2 C-3.02121511 2.97110486 -5.00463263 3.13617383 -8 2 C-8.33 1.34 -8.66 0.68 -9 0 C-5.62182575 -0.84454356 -3.32534757 -1.10844919 0 0 Z " fill="#212126" transform="translate(64,84)"/>
<path d="M0 0 C-1.2065625 1.175625 -1.2065625 1.175625 -2.4375 2.375 C-4.98690417 4.71982856 -4.98690417 4.71982856 -6 7 C-6.66 7 -7.32 7 -8 7 C-8 6.01 -8 5.02 -8 4 C-7.34 4 -6.68 4 -6 4 C-6 2.68 -6 1.36 -6 0 C-3 -1 -3 -1 0 0 Z " fill="#86858B" transform="translate(158,78)"/>
<path d="M0 0 C-1.15585285 3.91211733 -2.35534962 6.8745041 -5 10 C-4.88637738 8.5199159 -4.75877092 7.04089926 -4.625 5.5625 C-4.55539063 4.73878906 -4.48578125 3.91507813 -4.4140625 3.06640625 C-4.27742188 2.38449219 -4.14078125 1.70257813 -4 1 C-2 0 -2 0 0 0 Z " fill="#727274" transform="translate(115,130)"/>
<path d="M0 0 C1.485 0.99 1.485 0.99 3 2 C5.64632287 1.6878236 5.64632287 1.6878236 8 1 C8 1.99 8 2.98 8 4 C5.69 4.33 3.38 4.66 1 5 C0.34 3.68 -0.32 2.36 -1 1 C-0.67 0.67 -0.34 0.34 0 0 Z " fill="#2D2D34" transform="translate(97,98)"/>
<path d="M0 0 C0.33 0.66 0.66 1.32 1 2 C2.32 2 3.64 2 5 2 C5.33 4.31 5.66 6.62 6 9 C3 7 3 7 2 4 C1.34 3.67 0.68 3.34 0 3 C0 2.01 0 1.02 0 0 Z " fill="#A2A2A8" transform="translate(53,95)"/>
<path d="M0 0 C0.66 0 1.32 0 2 0 C2 0.66 2 1.32 2 2 C3.32 2 4.64 2 6 2 C6 3.65 6 5.3 6 7 C5.01 6.67 4.02 6.34 3 6 C3 5.01 3 4.02 3 3 C1.68 2.67 0.36 2.34 -1 2 C-0.67 1.34 -0.34 0.68 0 0 Z " fill="#333239" transform="translate(79,95)"/>
<path d="M0 0 C0.99 0 1.98 0 3 0 C3 1.65 3 3.3 3 5 C1.68 5.33 0.36 5.66 -1 6 C-1.33 5.34 -1.66 4.68 -2 4 C-1.34 4 -0.68 4 0 4 C0 2.68 0 1.36 0 0 Z " fill="#101112" transform="translate(108,132)"/>
<path d="M0 0 C3.65316671 1.24976756 4.78065836 1.67098753 7 5 C4.69 5.33 2.38 5.66 0 6 C0.33 5.34 0.66 4.68 1 4 C0.60061233 1.90178785 0.60061233 1.90178785 0 0 Z " fill="#101113" transform="translate(116,84)"/>
<path d="M0 0 C0.33 0 0.66 0 1 0 C1 1.65 1 3.3 1 5 C2.32 5.66 3.64 6.32 5 7 C4.01 7.495 4.01 7.495 3 8 C-0.39914975 6.86695008 -1.05254451 5.87481525 -3 3 C-2.01 2.67 -1.02 2.34 0 2 C0 1.34 0 0.68 0 0 Z " fill="#3E3F46" transform="translate(42,63)"/>
<path d="M0 0 C1.32 0.33 2.64 0.66 4 1 C4 2.98 4 4.96 4 7 C3.01 7.495 3.01 7.495 2 8 C2 6.35 2 4.7 2 3 C1.34 3 0.68 3 0 3 C0 2.01 0 1.02 0 0 Z " fill="#313036" transform="translate(91,126)"/>
<path d="M0 0 C0.66 0 1.32 0 2 0 C2 0.99 2 1.98 2 3 C2.99 3.33 3.98 3.66 5 4 C5 5.65 5 7.3 5 9 C0.57142857 3.85714286 0.57142857 3.85714286 0 0 Z " fill="#BEBDC4" transform="translate(59,104)"/>
<path d="M0 0 C0.99 0.33 1.98 0.66 3 1 C3 3.31 3 5.62 3 8 C1.68 8.33 0.36 8.66 -1 9 C-0.67 8.01 -0.34 7.02 0 6 C0.66 6 1.32 6 2 6 C1.01 4.35 0.02 2.7 -1 1 C-0.67 0.67 -0.34 0.34 0 0 Z " fill="#222225" transform="translate(81,103)"/>
<path d="M0 0 C1.98 0.495 1.98 0.495 4 1 C4 1.66 4 2.32 4 3 C4.66 3.33 5.32 3.66 6 4 C3 5 3 5 0.8125 4.0625 C0.214375 3.711875 -0.38375 3.36125 -1 3 C-0.67 2.01 -0.34 1.02 0 0 Z " fill="#232326" transform="translate(54,78)"/>
<path d="M0 0 C0.99 0 1.98 0 3 0 C3 1.32 3 2.64 3 4 C3.66 4 4.32 4 5 4 C5 4.66 5 5.32 5 6 C5.66 6.33 6.32 6.66 7 7 C4.5625 6.625 4.5625 6.625 2 6 C1.67 5.34 1.34 4.68 1 4 C1.33 3.34 1.66 2.68 2 2 C1.34 2 0.68 2 0 2 C0 1.34 0 0.68 0 0 Z " fill="#131416" transform="translate(79,122)"/>
<path d="M0 0 C2 3 2 3 2 7 C1.01 7 0.02 7 -1 7 C-1.33 5.35 -1.66 3.7 -2 2 C-1.34 2 -0.68 2 0 2 C0 1.34 0 0.68 0 0 Z " fill="#111113" transform="translate(70,108)"/>
<path d="M0 0 C1.32 0 2.64 0 4 0 C4.33 1.98 4.66 3.96 5 6 C4.01 5.67 3.02 5.34 2 5 C2 4.01 2 3.02 2 2 C1.34 2 0.68 2 0 2 C0 1.34 0 0.68 0 0 Z " fill="#3C3B45" transform="translate(59,102)"/>
<path d="M0 0 C0.66 0 1.32 0 2 0 C2.33 0.66 2.66 1.32 3 2 C3.99 2.66 4.98 3.32 6 4 C3.36 4.33 0.72 4.66 -2 5 C-1.34 3.35 -0.68 1.7 0 0 Z " fill="#2B2B2E" transform="translate(62,89)"/>
<path d="M0 0 C0 0.66 0 1.32 0 2 C-3.08809695 3.76462683 -4.23312136 4 -8 4 C-8 3.34 -8 2.68 -8 2 C-5.09399739 0.74335022 -3.20395416 0 0 0 Z " fill="#202023" transform="translate(141,80)"/>
<path d="M0 0 C1.953125 0.35807292 3.90625 0.71614583 5.859375 1.07421875 C5.859375 1.40421875 5.859375 1.73421875 5.859375 2.07421875 C-0.080625 2.56921875 -0.080625 2.56921875 -6.140625 3.07421875 C-2.140625 0.07421875 -2.140625 0.07421875 0 0 Z " fill="#A4A4AC" transform="translate(43.140625,60.92578125)"/>
<path d="M0 0 C0.99 0 1.98 0 3 0 C2.67 1.98 2.34 3.96 2 6 C1.01 5.67 0.02 5.34 -1 5 C-0.67 3.35 -0.34 1.7 0 0 Z " fill="#0D0E0F" transform="translate(99,151)"/>
<path d="M0 0 C1 3 1 3 -0.4375 6.1875 C-1.2109375 7.5796875 -1.2109375 7.5796875 -2 9 C-2.66 7.68 -3.32 6.36 -4 5 C-2.68 3.35 -1.36 1.7 0 0 Z " fill="#848487" transform="translate(107,144)"/>
<path d="M0 0 C1.32 0 2.64 0 4 0 C3.34 1.65 2.68 3.3 2 5 C0.68 4.34 -0.64 3.68 -2 3 C-1.34 3 -0.68 3 0 3 C0 2.01 0 1.02 0 0 Z " fill="#27272B" transform="translate(98,141)"/>
<path d="M0 0 C1.32 0.66 2.64 1.32 4 2 C3.01 2.66 2.02 3.32 1 4 C0.67 4.66 0.34 5.32 0 6 C-0.66 6 -1.32 6 -2 6 C-1.49396008 3.83125748 -1.00016187 2.00032373 0 0 Z " fill="#161518" transform="translate(119,115)"/>
<path d="M0 0 C2.31 0 4.62 0 7 0 C7 0.99 7 1.98 7 3 C3 3 3 3 0 2 C0 1.34 0 0.68 0 0 Z " fill="#29282E" transform="translate(120,89)"/>
<path d="M0 0 C0.66 0.33 1.32 0.66 2 1 C1.67 1.66 1.34 2.32 1 3 C2.65 3 4.3 3 6 3 C3 5 3 5 0 6 C-0.66 5.34 -1.32 4.68 -2 4 C-1.34 2.68 -0.68 1.36 0 0 Z " fill="#111113" transform="translate(130,85)"/>
<path d="M0 0 C1.65 0 3.3 0 5 0 C5 1.32 5 2.64 5 4 C3.0625 3.6875 3.0625 3.6875 1 3 C0.67 2.01 0.34 1.02 0 0 Z " fill="#3D3D43" transform="translate(115,62)"/>
</svg>
