<?xml version="1.0" encoding="UTF-8" standalone="no"?>
<svg
   width="48"
   height="48"
   viewBox="0 0 48 48"
   version="1.1"
   id="svg48"
   sodipodi:docname="mbr.svg"
   inkscape:version="1.2.2 (b0a8486541, 2022-12-01)"
   xmlns:inkscape="http://www.inkscape.org/namespaces/inkscape"
   xmlns:sodipodi="http://sodipodi.sourceforge.net/DTD/sodipodi-0.dtd"
   xmlns="http://www.w3.org/2000/svg"
   xmlns:svg="http://www.w3.org/2000/svg">
  <defs
     id="defs52" />
  <sodipodi:namedview
     id="namedview50"
     pagecolor="#ffffff"
     bordercolor="#666666"
     borderopacity="1.0"
     inkscape:showpageshadow="2"
     inkscape:pageopacity="0.0"
     inkscape:pagecheckerboard="0"
     inkscape:deskcolor="#d1d1d1"
     showgrid="false"
     inkscape:zoom="36.453217"
     inkscape:cx="32.493703"
     inkscape:cy="42.328226"
     inkscape:window-width="1430"
     inkscape:window-height="824"
     inkscape:window-x="0"
     inkscape:window-y="0"
     inkscape:window-maximized="0"
     inkscape:current-layer="svg48" />
  <path
     id="background"
     fill="#ffffff"
     stroke="none"
     d="M 0 0 L 48 0 L 48 48 L 0 48 Z" />
  <path
     style="fill:none;stroke:#000000;stroke-width:2;stroke-linecap:butt;stroke-linejoin:miter;stroke-opacity:1;stroke-dasharray:none"
     d="m 4.8813559,19.932203 c 0,-11.7968665 0.1473124,1.725909 -0.4067796,-9.355932 -0.060941,-1.2188162 -0.081176,-2.4433806 0,-3.6610167 0.054864,-0.8229546 0.2901379,-1.6241861 0.4067796,-2.440678 0.019176,-0.1342305 0,-0.2711865 0,-0.4067797 0,-0.6054573 -0.060639,-0.5192108 0.4067797,-1.220339 0.2127361,-0.3191042 0.642046,-0.4705325 0.8135593,-0.8135593 0.060639,-0.1212783 -0.1212782,-0.4674188 0,-0.4067797 C 7.0991071,2.1258247 7.4058256,3.6671063 7.7288136,4.4745763 8,5.1525424 8.3114659,5.8157538 8.5423729,6.5084746 c 0.4175822,1.2527466 0.4911564,2.3714052 0.8135593,3.6610164 0.052952,0.21181 0.5330121,1.753352 0.8135598,2.033899 0.09588,0.09588 0.271186,0 0.406779,0 0.135593,0 0.296443,0.07881 0.40678,0 0.861757,-0.615541 1.613725,-1.372336 2.440678,-2.033899 0.529402,-0.4235215 1.147724,-0.740944 1.627118,-1.2203384 1.087972,-1.087972 0.41948,-1.2288059 1.627119,-2.0338983 0.11282,-0.075214 0.310901,0.095879 0.40678,0 0.214391,-0.2143918 0.192388,-0.5991677 0.406779,-0.8135594 0.09588,-0.095879 0.310901,0.095879 0.40678,0 0.09588,-0.095879 -0.06064,-0.2855014 0,-0.4067796 0.930835,-1.8616708 -0.168599,1.7261355 0.813559,-1.220339 0.04288,-0.128635 0.02942,-0.539144 0,-0.4067797 -0.299968,1.3498568 -0.423384,2.7412005 -0.813559,4.0677966 -0.291378,0.9906861 -0.823167,1.8942448 -1.220339,2.8474578 -0.280843,0.674023 -0.557172,1.350198 -0.813559,2.033898 -0.150556,0.401483 -0.302785,0.804358 -0.40678,1.220339 -0.167687,0.670749 -0.164015,1.386528 -0.40678,2.033898 -0.328084,0.874891 -1.000303,1.153756 -1.220339,2.033899 -0.06577,0.263089 0.08576,0.556289 0,0.813559 -0.502658,1.507976 -0.406779,-0.495845 -0.406779,0.813559"
     id="path588" />
  <path
     style="fill:none;stroke:#000000;stroke-width:3;stroke-linecap:butt;stroke-linejoin:miter;stroke-dasharray:none;stroke-opacity:1"
     d="m 31.520358,46.155145 c 0.290284,-6.835361 -0.171863,6.028741 -0.718712,-11.837765 -0.07052,-2.304006 0.01227,-4.621152 0.293412,-6.909026 0.05887,-0.479108 0.941321,-3.379533 1.409096,-4.418769 0.124447,-0.276479 0.354982,-0.504809 0.440932,-0.795567 0.07687,-0.260061 -0.0299,-0.549402 0.03452,-0.812826 0.114464,-0.468077 0.569752,-1.546226 0.899125,-1.997549 0.113042,-0.154895 0.282449,-0.259435 0.423673,-0.389153 0.141224,-0.129718 0.248675,-0.310751 0.423673,-0.389154 0.123742,-0.05544 0.270942,0.01151 0.406413,0.01726 0.406413,0.01726 0.812827,0.03452 1.21924,0.05178 1.522163,0.06464 0.863451,-0.145411 2.014807,0.492712 1.158225,0.64193 1.666878,0.704604 2.369441,1.72921 0.171463,0.250057 0.24793,0.553391 0.371895,0.830087 0.123964,0.276695 0.310905,0.533088 0.371894,0.830086 0.05455,0.265643 -0.02301,0.541885 -0.03452,0.812826 -0.01151,0.270943 0.09694,0.575635 -0.03452,0.812828 -0.407149,0.73461 -2.618305,1.787806 -2.931191,1.911249 -0.520054,0.205177 -1.095276,0.224916 -1.642913,0.337375 -0.547637,0.112459 -1.086611,0.281866 -1.642913,0.337375 -0.404769,0.04039 -0.815519,-0.101564 -1.21924,-0.05178 -1.703367,0.21007 -0.721151,0.340652 -2.066585,0.72653 -0.130339,0.03738 -0.282672,-0.0727 -0.406414,-0.01726 -0.174997,0.07841 -0.553391,0.247929 -0.423673,0.389153 0.183449,0.199722 0.583292,-0.109896 0.812827,0.03452 0.73487,0.462355 1.314995,1.134146 1.963028,1.711952 0.78406,0.711874 1.568122,1.423749 2.352182,2.135624 0.518872,0.564897 0.995946,1.171254 1.556615,1.694692 0.357358,0.333627 0.88796,0.476089 1.184721,0.864605 0.368087,0.481895 0.495859,1.106782 0.743789,1.660173 0.247929,0.55339 0.465544,1.121385 0.743788,1.660171 0.224328,0.434384 0.484573,0.850556 0.761047,1.25376 0.108443,0.15815 0.310752,0.248676 0.389155,0.423673 0.07757,0.173136 -0.125116,0.714193 -0.03452,0.812826 0.09173,0.09986 0.31469,-0.0826 0.406414,0.01726 0.09173,0.09986 -0.108985,0.306553 -0.01726,0.406413 0.09173,0.09986 0.31469,-0.0826 0.406413,0.01726 0.09173,0.09986 -0.0727,0.282671 -0.01726,0.406414 0.459551,1.025739 0.412371,-0.123026 0.371894,0.830086"
     id="path596" />
  <path
     style="fill:none;stroke:#000000;stroke-width:3;stroke-linecap:butt;stroke-linejoin:miter;stroke-dasharray:none;stroke-opacity:1"
     d="m 18.305085,36.31312 c 0,-1.898305 0,-3.79661 0,-5.694915 0,-0.677967 -0.06746,-1.359297 0,-2.033899 0.0688,-0.687961 0.256795,-1.35897 0.406779,-2.033898 0.121279,-0.545752 0.351151,-1.070828 0.40678,-1.627119 0.08095,-0.809521 0,-1.627118 0,-2.440678 0,-0.406779 -0.06687,-0.819094 0,-1.220339 0.07049,-0.422949 0.336288,-0.797389 0.40678,-1.220339 0.06687,-0.401245 0,-0.813559 0,-1.220339 0,-1.220339 0,-2.440678 0,-3.661017 0,-0.271186 0,-0.542372 0,-0.813559 0,-0.271186 -0.121279,-0.571003 0,-0.813559 0.06064,-0.121278 0.278144,0.04288 0.406779,0 2.304686,-1.152343 -0.606391,0.151598 1.627119,-0.40678 0.294143,-0.07354 0.519416,-0.333244 0.813559,-0.40678 0.26309,-0.06577 0.542373,0 0.81356,0 0.271186,0 0.556289,-0.08576 0.813559,0 0.181917,0.06064 0.247228,0.300412 0.40678,0.40678 0.252274,0.168183 0.599167,0.192388 0.813559,0.40678 0.02607,0.02607 0.763045,1.551347 0.813559,1.627118 0.4962,0.7443 0.518621,0.04058 0.81356,1.220339 0.06577,0.26309 0,0.542373 0,0.81356 0,0.271186 0,0.542373 0,0.813559 0,0.271187 0.06577,0.55047 0,0.813559 -0.07354,0.294143 -0.271187,0.542373 -0.40678,0.81356 -0.813559,1.627118 0.135593,0.135593 -1.220339,1.220339 -0.449213,0.35937 -0.771126,0.860968 -1.220339,1.220339 -0.236756,0.189405 -0.542373,0.271186 -0.813559,0.406779 -0.271187,0.135594 -0.542373,0.271187 -0.81356,0.40678 -0.271186,0.135593 -0.525922,0.310901 -0.813559,0.40678 -0.128635,0.04288 -0.271186,0 -0.40678,0 -0.542373,0 -1.084745,0 -1.627118,0 -0.135593,0 -0.271187,0 -0.40678,0 -0.135593,0 -0.40678,-0.135594 -0.40678,0 0,0.135593 0.278145,-0.04288 0.40678,0 0.287637,0.09588 0.519416,0.333244 0.813559,0.406779 0.26309,0.06577 0.54764,-0.05318 0.81356,0 0.198571,0.03972 1.762712,0.542373 2.033898,0.81356 0.660703,0.660702 1.201727,2.103022 1.627119,2.847457 0.19442,0.340236 1.083198,1.485335 1.220339,2.033899 0.06577,0.263089 0,0.542372 0,0.813559 0,0.135593 0,0.271186 0,0.40678 0,1.220339 0,2.440678 0,3.661017 0,0.271186 0,0.542372 0,0.813559 0,0.8806 0.121278,0.835032 -0.40678,1.627118 -0.106368,0.159553 -0.224862,0.346141 -0.40678,0.40678 -0.03956,0.01319 -1.986428,0.01187 -2.033898,0 -0.294143,-0.07354 -0.525923,-0.310901 -0.813559,-0.40678 -0.112125,-0.03737 -1.047733,0 -1.220339,0 -0.135594,0 -0.285502,0.06064 -0.40678,0 -0.171513,-0.08576 -0.235266,-0.321022 -0.40678,-0.406779 -0.02983,-0.01492 -1.606274,0 -1.627118,0 z"
     id="path655" />
</svg>
