<?xml version="1.0" encoding="UTF-8" standalone="no"?>
<svg
   width="48"
   height="48"
   viewBox="0 0 48 48"
   version="1.1"
   id="svg48"
   sodipodi:docname="dogear.mbr.svg"
   inkscape:version="1.2.2 (b0a8486541, 2022-12-01)"
   xmlns:inkscape="http://www.inkscape.org/namespaces/inkscape"
   xmlns:sodipodi="http://sodipodi.sourceforge.net/DTD/sodipodi-0.dtd"
   xmlns="http://www.w3.org/2000/svg"
   xmlns:svg="http://www.w3.org/2000/svg">
  <defs
     id="defs52" />
  <sodipodi:namedview
     id="namedview50"
     pagecolor="#ffffff"
     bordercolor="#666666"
     borderopacity="1.0"
     inkscape:showpageshadow="2"
     inkscape:pageopacity="0.0"
     inkscape:pagecheckerboard="0"
     inkscape:deskcolor="#d1d1d1"
     showgrid="false"
     inkscape:zoom="4.9166667"
     inkscape:cx="30.610169"
     inkscape:cy="23.898305"
     inkscape:window-width="1490"
     inkscape:window-height="862"
     inkscape:window-x="0"
     inkscape:window-y="0"
     inkscape:window-maximized="0"
     inkscape:current-layer="svg48" />
  <path
     id="background"
     fill="#ffffff"
     stroke="none"
     d="M 0 0 L 48 0 L 48 48 L 0 48 Z" />
  <path
     style="fill:none;stroke:#000000;stroke-width:1px;stroke-linecap:butt;stroke-linejoin:miter;stroke-opacity:1"
     d="m 4.8813559,19.932203 c 0,-11.7968665 0.1473124,1.725909 -0.4067796,-9.355932 -0.060941,-1.2188162 -0.081176,-2.4433806 0,-3.6610167 0.054864,-0.8229546 0.2901379,-1.6241861 0.4067796,-2.440678 0.019176,-0.1342305 0,-0.2711865 0,-0.4067797 0,-0.6054573 -0.060639,-0.5192108 0.4067797,-1.220339 0.2127361,-0.3191042 0.642046,-0.4705325 0.8135593,-0.8135593 0.060639,-0.1212783 -0.1212782,-0.4674188 0,-0.4067797 C 7.0991071,2.1258247 7.4058256,3.6671063 7.7288136,4.4745763 8,5.1525424 8.3114659,5.8157538 8.5423729,6.5084746 c 0.4175822,1.2527466 0.4911564,2.3714052 0.8135593,3.6610164 0.052952,0.21181 0.5330121,1.753352 0.8135598,2.033899 0.09588,0.09588 0.271186,0 0.406779,0 0.135593,0 0.296443,0.07881 0.40678,0 0.861757,-0.615541 1.613725,-1.372336 2.440678,-2.033899 0.529402,-0.4235215 1.147724,-0.740944 1.627118,-1.2203384 1.087972,-1.087972 0.41948,-1.2288059 1.627119,-2.0338983 0.11282,-0.075214 0.310901,0.095879 0.40678,0 0.214391,-0.2143918 0.192388,-0.5991677 0.406779,-0.8135594 0.09588,-0.095879 0.310901,0.095879 0.40678,0 0.09588,-0.095879 -0.06064,-0.2855014 0,-0.4067796 0.930835,-1.8616708 -0.168599,1.7261355 0.813559,-1.220339 0.04288,-0.128635 0.02942,-0.539144 0,-0.4067797 -0.299968,1.3498568 -0.423384,2.7412005 -0.813559,4.0677966 -0.291378,0.9906861 -0.823167,1.8942448 -1.220339,2.8474578 -0.280843,0.674023 -0.557172,1.350198 -0.813559,2.033898 -0.150556,0.401483 -0.302785,0.804358 -0.40678,1.220339 -0.167687,0.670749 -0.164015,1.386528 -0.40678,2.033898 -0.328084,0.874891 -1.000303,1.153756 -1.220339,2.033899 -0.06577,0.263089 0.08576,0.556289 0,0.813559 -0.502658,1.507976 -0.406779,-0.495845 -0.406779,0.813559"
     id="path588" />
  <path
     style="fill:none;stroke:#000000;stroke-width:1px;stroke-linecap:butt;stroke-linejoin:miter;stroke-opacity:1"
     d="m 32.135593,46.372881 c 0,-6.841522 0.08409,6.030604 -1.220339,-11.79661 -0.168215,-2.298939 -0.183819,-4.617511 0,-6.915254 0.03849,-0.481174 0.79708,-3.416429 1.220339,-4.474577 0.112604,-0.28151 0.333244,-0.519416 0.40678,-0.813559 0.06577,-0.263089 -0.05318,-0.547639 0,-0.813559 0.0945,-0.472512 0.503632,-1.569008 0.813559,-2.033899 0.106368,-0.159552 0.271187,-0.271186 0.40678,-0.406779 0.135593,-0.135594 0.235266,-0.321023 0.40678,-0.40678 0.121278,-0.06064 0.271186,0 0.406779,0 0.40678,0 0.81356,0 1.220339,0 1.523535,0 0.856504,-0.181917 2.033898,0.40678 1.184419,0.592209 1.695273,0.633244 2.440678,1.627118 0.181918,0.242557 0.271187,0.542373 0.40678,0.81356 0.135593,0.271186 0.333244,0.519416 0.40678,0.813559 0.06577,0.263089 0,0.542373 0,0.813559 0,0.271187 0.121278,0.571003 0,0.81356 -0.375613,0.751224 -2.540091,1.89729 -2.847458,2.033898 -0.51088,0.227058 -1.084746,0.271186 -1.627118,0.40678 -0.542373,0.135593 -1.073673,0.327716 -1.627119,0.406779 -0.402691,0.05753 -0.819094,-0.06687 -1.220339,0 -1.69292,0.282154 -0.706048,0.370943 -2.033898,0.81356 -0.128635,0.04288 -0.285502,-0.06064 -0.40678,0 -0.171513,0.08576 -0.542373,0.271186 -0.40678,0.406779 0.191758,0.191758 0.578104,-0.134546 0.81356,0 0.753826,0.430758 1.361932,1.077329 2.033898,1.627119 0.813559,0.677966 1.627119,1.355932 2.440678,2.033898 0.542373,0.542373 1.044745,1.127942 1.627118,1.627119 0.371192,0.318164 0.907361,0.437985 1.220339,0.813559 0.388203,0.465843 0.542373,1.084746 0.81356,1.627119 0.271186,0.542373 0.512705,1.100623 0.813559,1.627118 0.242557,0.424474 0.520226,0.829229 0.813559,1.220339 0.115055,0.153407 0.321023,0.235267 0.40678,0.40678 0.08485,0.169689 -0.0947,0.718859 0,0.813559 0.09588,0.09588 0.310901,-0.09588 0.40678,0 0.09588,0.09588 -0.09588,0.310901 0,0.40678 0.09588,0.09588 0.310901,-0.09588 0.406779,0 0.09588,0.09588 -0.06064,0.285501 0,0.40678 0.502659,1.005317 0.40678,-0.140412 0.40678,0.813559"
     id="path596" />
  <path
     style="fill:none;stroke:#000000;stroke-width:1px;stroke-linecap:butt;stroke-linejoin:miter;stroke-opacity:1"
     d="m 18.305085,36.20339 c 0,-1.898305 0,-3.79661 0,-5.694915 0,-0.677967 -0.06746,-1.359297 0,-2.033899 0.0688,-0.687961 0.256795,-1.35897 0.406779,-2.033898 0.121279,-0.545752 0.351151,-1.070828 0.40678,-1.627119 0.08095,-0.809521 0,-1.627118 0,-2.440678 0,-0.406779 -0.06687,-0.819094 0,-1.220339 0.07049,-0.422949 0.336288,-0.797389 0.40678,-1.220339 0.06687,-0.401245 0,-0.813559 0,-1.220339 0,-1.220339 0,-2.440678 0,-3.661017 0,-0.271186 0,-0.542372 0,-0.813559 0,-0.271186 -0.121279,-0.571003 0,-0.813559 0.06064,-0.121278 0.278144,0.04288 0.406779,0 2.304686,-1.152343 -0.606391,0.151598 1.627119,-0.40678 0.294143,-0.07354 0.519416,-0.333244 0.813559,-0.40678 0.26309,-0.06577 0.542373,0 0.81356,0 0.271186,0 0.556289,-0.08576 0.813559,0 0.181917,0.06064 0.247228,0.300412 0.40678,0.40678 0.252274,0.168183 0.599167,0.192388 0.813559,0.40678 0.02607,0.02607 0.763045,1.551347 0.813559,1.627118 0.4962,0.7443 0.518621,0.04058 0.81356,1.220339 0.06577,0.26309 0,0.542373 0,0.81356 0,0.271186 0,0.542373 0,0.813559 0,0.271187 0.06577,0.55047 0,0.813559 -0.07354,0.294143 -0.271187,0.542373 -0.40678,0.81356 -0.813559,1.627118 0.135593,0.135593 -1.220339,1.220339 -0.449213,0.35937 -0.771126,0.860968 -1.220339,1.220339 -0.236756,0.189405 -0.542373,0.271186 -0.813559,0.406779 -0.271187,0.135594 -0.542373,0.271187 -0.81356,0.40678 -0.271186,0.135593 -0.525922,0.310901 -0.813559,0.40678 -0.128635,0.04288 -0.271186,0 -0.40678,0 -0.542373,0 -1.084745,0 -1.627118,0 -0.135593,0 -0.271187,0 -0.40678,0 -0.135593,0 -0.40678,-0.135594 -0.40678,0 0,0.135593 0.278145,-0.04288 0.40678,0 0.287637,0.09588 0.519416,0.333244 0.813559,0.406779 0.26309,0.06577 0.54764,-0.05318 0.81356,0 0.198571,0.03972 1.762712,0.542373 2.033898,0.81356 0.660703,0.660702 1.201727,2.103022 1.627119,2.847457 0.19442,0.340236 1.083198,1.485335 1.220339,2.033899 0.06577,0.263089 0,0.542372 0,0.813559 0,0.135593 0,0.271186 0,0.40678 0,1.220339 0,2.440678 0,3.661017 0,0.271186 0,0.542372 0,0.813559 0,0.8806 0.121278,0.835032 -0.40678,1.627118 -0.106368,0.159553 -0.224862,0.346141 -0.40678,0.40678 -0.03956,0.01319 -1.986428,0.01187 -2.033898,0 -0.294143,-0.07354 -0.525923,-0.310901 -0.813559,-0.40678 -0.112125,-0.03737 -1.047733,0 -1.220339,0 -0.135594,0 -0.285502,0.06064 -0.40678,0 -0.171513,-0.08576 -0.235266,-0.321022 -0.40678,-0.406779 -0.02983,-0.01492 -1.606274,0 -1.627118,0 z"
     id="path655" />
</svg>
