<?xml version="1.0" encoding="UTF-8"?>
<svg version="1.1" xmlns="http://www.w3.org/2000/svg" width="200" height="192">
<path d="M0 0 C1.61455078 0.18755859 1.61455078 0.18755859 3.26171875 0.37890625 C9.89210277 1.30233489 15.59271733 2.48038933 20.421875 7.46875 C22.77046941 9.74758418 25.53590854 11.18563359 28.35546875 12.81640625 C28.89816406 13.20699219 29.44085938 13.59757812 30 14 C30 14.66 30 15.32 30 16 C31.485 16.495 31.485 16.495 33 17 C33.495 15.515 33.495 15.515 34 14 C37.79643099 14.31583212 41.37748795 14.79069642 45 16 C46.75 19.0625 46.75 19.0625 47.26171875 20.93359375 C48.50843485 24.42307955 51.02042275 26.97917033 53.37890625 29.7890625 C55.07965609 32.10863939 56.04686459 34.29707868 57 37 C57.66 37 58.32 37 59 37 C60.09187195 38.12709363 61.18052034 39.25740024 62.2578125 40.3984375 C64.44875806 42.41253544 66.84410098 43.96344609 69.3125 45.625 C74.36513891 49.22822239 77.62475918 53.05515494 81.07421875 58.17578125 C83.66672106 61.97776739 86.59010507 65.46887629 89.53125 69.00390625 C91 71 91 71 91 73 C91.66 73 92.32 73 93 73 C93 73.66 93 74.32 93 75 C94.65 75.33 96.3 75.66 98 76 C98.33 78.31 98.66 80.62 99 83 C98.01 83.33 97.02 83.66 96 84 C96.66 85.65 97.32 87.3 98 89 C98.763125 88.938125 99.52625 88.87625 100.3125 88.8125 C103 89 103 89 104.875 90.25 C106 92 106 92 106 93.8125 C104.51715195 97.05623011 102.71420108 99.70282461 100 102 C95.60114632 103.40763318 92.2699769 102.90209522 87.875 101.9375 C81.33092113 100.56315242 75.47578395 101.66160268 69 103 C68.67 104.32 68.34 105.64 68 107 C69.65 107.33 71.3 107.66 73 108 C74.03459705 112.11505144 73.98942349 115.71507747 73.6875 119.9375 C73.64117432 120.60080322 73.59484863 121.26410645 73.54711914 121.94750977 C73.22582546 126.16141929 72.65257948 130.26960816 71.9375 134.4375 C70.7246717 142.1099573 70.91338848 149.72396627 71.16186523 157.47436523 C71.29069765 163.80371062 70.62571445 168.2272428 68 174 C67.67257813 174.81210938 67.34515625 175.62421875 67.0078125 176.4609375 C64.63261727 181.61069706 64.63261727 181.61069706 61.5625 183.5 C58.94306408 184.01110945 56.66023698 184.22168641 54 184 C53.67 183.67 53.34 183.34 53 183 C50.56698373 183.06527605 48.1746216 183.19235431 45.75 183.375 C45.08097656 183.41882813 44.41195312 183.46265625 43.72265625 183.5078125 C40.9514643 183.70381036 38.25062988 183.94852783 35.52734375 184.5078125 C31.97810039 185.19900982 28.41590951 185.32556439 24.8125 185.5 C19.0764364 185.79911233 13.39020681 186.20122415 7.6875 186.9140625 C7.130625 186.94242188 6.57375 186.97078125 6 187 C5.67 186.67 5.34 186.34 5 186 C0.86699731 185.80776732 -2.94241601 186.22712686 -7 187 C-7 185.68 -7 184.36 -7 183 C-7.61713867 183.14074951 -8.23427734 183.28149902 -8.87011719 183.42651367 C-17.02300326 185.11375359 -24.94346819 185.33297961 -33.25 185.3125 C-34.58594381 185.32824946 -35.92188155 185.34452294 -37.2578125 185.36132812 C-49.39562826 185.36743367 -49.39562826 185.36743367 -55 182 C-59 177.79487179 -59 177.79487179 -59 175 C-59.66 175 -60.32 175 -61 175 C-61.66 174.01 -62.32 173.02 -63 172 C-65.52733235 171.34444881 -65.52733235 171.34444881 -68 171 C-72.74314601 166.25685399 -71.2172267 149.5531656 -71.25 143.125 C-71.259104 142.27067383 -71.26820801 141.41634766 -71.27758789 140.53613281 C-71.25268756 135.27352441 -70.57210375 130.48599341 -69.4453125 125.35205078 C-68.80346398 121.96193642 -68.80733343 118.82599497 -68.875 115.375 C-68.89304687 114.16585937 -68.91109375 112.95671875 -68.9296875 111.7109375 C-68.95289062 110.81632812 -68.97609375 109.92171875 -69 109 C-70.7325 109.309375 -70.7325 109.309375 -72.5 109.625 C-77.19692949 110.19962435 -80.52681499 109.56561475 -85 108 C-87.5 106 -87.5 106 -89 104 C-89 103.34 -89 102.68 -89 102 C-89.99 102 -90.98 102 -92 102 C-92.495 99.03 -92.495 99.03 -93 96 C-92.34 96 -91.68 96 -91 96 C-90.95875 95.195625 -90.9175 94.39125 -90.875 93.5625 C-89.8456987 89.37177326 -88.00079936 86.78574706 -85.55078125 83.2890625 C-83.3333938 80.01604224 -81.64711603 76.58612605 -80 73 C-79.68417969 72.31421875 -79.36835937 71.6284375 -79.04296875 70.921875 C-77.55740575 67.6311458 -76.13119698 64.33446599 -74.8125 60.97265625 C-72.47823233 55.0713358 -70.30717398 50.64721403 -66 46 C-64.9935725 44.33720673 -63.99414593 42.67016516 -63 41 C-62.04222719 39.56878267 -61.06110139 38.15303495 -60.0625 36.75 C-59.57910156 36.06421875 -59.09570312 35.3784375 -58.59765625 34.671875 C-56.74761396 32.73588942 -55.5689108 32.51701349 -53 32 C-52.71125 31.4225 -52.4225 30.845 -52.125 30.25 C-49.67876617 25.35753234 -44.28323485 22.49733963 -39.875 19.5 C-36.22660168 16.98047829 -33.58624829 14.63990501 -31 11 C-20.96953233 0.44161297 -14.26483441 -1.71178013 0 0 Z M-17.5625 12.875 C-18.32691406 13.36742187 -19.09132813 13.85984375 -19.87890625 14.3671875 C-22.05889687 15.87272847 -22.05889687 15.87272847 -23.33984375 17.9453125 C-25 20 -25 20 -28.32421875 21.78515625 C-32.67793498 24.13508915 -35.01763496 27.44151634 -37.8125 31.4375 C-38.85745967 32.87804921 -39.90304154 34.31814727 -40.94921875 35.7578125 C-41.46274902 36.47356445 -41.9762793 37.18931641 -42.50537109 37.92675781 C-48.42227317 46.13426066 -54.70122254 53.88075992 -61.60546875 61.28515625 C-64.80909781 64.91732949 -67.56783356 68.79703548 -70.30859375 72.78515625 C-72 75 -72 75 -75 77 C-76.57580314 80.21221409 -77.86717834 83.07024838 -78.375 86.625 C-79.27662926 90.05119118 -81.41571722 91.68077187 -84 94 C-80.82460444 97.42578949 -80.82460444 97.42578949 -77 100 C-74.86701318 99.80164947 -72.74153163 99.51805943 -70.625 99.1875 C-68.91183594 98.93033203 -68.91183594 98.93033203 -67.1640625 98.66796875 C-64.11864939 98.16724498 -64.11864939 98.16724498 -62.01953125 96.99609375 C-59.11443919 95.56321469 -56.26211862 95.30525821 -53.0625 94.875 C-51.85722656 94.70742187 -50.65195312 94.53984375 -49.41015625 94.3671875 C-45.19798383 93.91364316 -42.03406884 93.65531039 -38 95 C-35.36195411 94.60602665 -35.36195411 94.60602665 -33 94 C-33 94.99 -33 95.98 -33 97 C-31.80503906 97.18175781 -31.80503906 97.18175781 -30.5859375 97.3671875 C-21.62120458 98.78496765 -21.62120458 98.78496765 -17.75 100.125 C-12.76809189 101.71015258 -9.07006006 101.93077153 -4.32421875 99.796875 C-1.51133697 98.25620946 1.24544189 96.64229485 4 95 C12.30495127 90.48154346 12.30495127 90.48154346 17 90 C18.546875 89.814375 18.546875 89.814375 20.125 89.625 C24.81188342 90.07856936 28.11401197 91.7410152 32.32421875 93.7578125 C35.83647362 95.38831914 39.19830524 96.39665936 43 97 C43.96164063 97.19207031 44.92328125 97.38414063 45.9140625 97.58203125 C60.17105114 99.56127459 77.51855518 95.10718475 90 88 C89.47731534 85.23723823 88.89130413 82.6739124 88 80 C86.02 80 84.04 80 82 80 C81.814375 79.34 81.62875 78.68 81.4375 78 C79.39191226 73.73094732 76.42815357 70.25836294 73 67 C72.34 67 71.68 67 71 67 C70.773125 66.4225 70.54625 65.845 70.3125 65.25 C68.66511725 62.42591529 66.56545162 61.0023037 64 59 C63 57.66666667 62 56.33333333 61 55 C60.34 55 59.68 55 59 55 C58.62875 54.195625 58.62875 54.195625 58.25 53.375 C55.50884228 48.16680034 52.29986052 44.00668821 48 40 C47.42378906 39.44183594 46.84757813 38.88367188 46.25390625 38.30859375 C42.68361285 34.98254577 39.39606865 32.57495424 34.9375 30.5625 C29.55971925 28.06331662 26.62907299 24.5709698 23 20 C21.37570767 18.28289097 19.69659284 16.64669305 18 15 C17.505 14.505 17.505 14.505 17 14 C14.22907624 13.50358043 11.4498336 13.09958007 8.6640625 12.6953125 C5.80276542 11.94852235 4.87497805 11.20207702 3 9 C-4.69839058 5.86361865 -11.09705259 8.65222047 -17.5625 12.875 Z M-52.625 37.375 C-54.21531408 38.89968321 -54.21531408 38.89968321 -54 41 C-54.66 41 -55.32 41 -56 41 C-57.38938077 42.96147874 -58.7260411 44.96166576 -60 47 C-59.67 47.66 -59.34 48.32 -59 49 C-57.32722165 47.21371169 -55.66175557 45.4214925 -54 43.625 C-53.52304687 43.11710937 -53.04609375 42.60921875 -52.5546875 42.0859375 C-49.83882286 39.47137235 -49.83882286 39.47137235 -49 36 C-51.10031679 35.78468592 -51.10031679 35.78468592 -52.625 37.375 Z M-61 49 C-61.66 50.32 -62.32 51.64 -63 53 C-62.34 53 -61.68 53 -61 53 C-60.67 51.68 -60.34 50.36 -60 49 C-60.33 49 -60.66 49 -61 49 Z M75 61 C75.66 61.66 76.32 62.32 77 63 C77 62.34 77 61.68 77 61 C76.34 61 75.68 61 75 61 Z M5.07421875 104.27734375 C-1.05000595 108.03019903 -6.77980597 108.5998634 -13.8125 108.9375 C-14.73240723 108.98277832 -15.65231445 109.02805664 -16.60009766 109.07470703 C-21.23285348 109.20944421 -24.78933682 109.16458107 -29 107 C-31.32206525 106.29508733 -33.65593068 105.62787571 -36 105 C-36.825 104.7525 -37.65 104.505 -38.5 104.25 C-41.97431246 103.90256875 -44.72132217 104.90710739 -48 106 C-47.01 104.68 -46.02 103.36 -45 102 C-49.02992782 102.55312735 -53.02022924 103.1558062 -57 104 C-57 106.64 -57 109.28 -57 112 C-55.35 111.34 -53.7 110.68 -52 110 C-51.6875 112.25 -51.6875 112.25 -52 115 C-52.825 115.45375 -53.65 115.9075 -54.5 116.375 C-58.08176715 120.13585551 -57.51227359 123.19910501 -57.43945312 128.23828125 C-57.39755859 129.39714844 -57.35566406 130.55601562 -57.3125 131.75 C-57.28994141 132.92433594 -57.26738281 134.09867188 -57.24414062 135.30859375 C-57.1852296 138.20701637 -57.10301631 141.10286427 -57 144 C-55.02 142.35 -53.04 140.7 -51 139 C-51.66 139.99 -52.32 140.98 -53 142 C-53.5807525 144.07296379 -54.0050213 146.14947884 -54.4375 148.2578125 C-54.623125 148.83273438 -54.80875 149.40765625 -55 150 C-55.99 150.495 -55.99 150.495 -57 151 C-57 152.65 -57 154.3 -57 156 C-55.02 155.505 -55.02 155.505 -53 155 C-52.67 156.98 -52.34 158.96 -52 161 C-53.98 161.495 -53.98 161.495 -56 162 C-55.67 163.32 -55.34 164.64 -55 166 C-53.68 166.33 -52.36 166.66 -51 167 C-51 166.34 -51 165.68 -51 165 C-50.34 165 -49.68 165 -49 165 C-48.67 166.32 -48.34 167.64 -48 169 C-49.32 168.67 -50.64 168.34 -52 168 C-51.67 168.99 -51.34 169.98 -51 171 C-46.83513802 171.30017023 -44.34984273 170.45324946 -40.6875 168.5 C-39.36298828 167.80390625 -39.36298828 167.80390625 -38.01171875 167.09375 C-37.34785156 166.7328125 -36.68398438 166.371875 -36 166 C-36.66 167.32 -37.32 168.64 -38 170 C-32.06 170 -26.12 170 -20 170 C-20 171.32 -20 172.64 -20 174 C-15.05 173.505 -15.05 173.505 -10 173 C-9.93941406 171.51628906 -9.87882812 170.03257812 -9.81640625 168.50390625 C-9.73193099 166.52343066 -9.64728656 164.54296228 -9.5625 162.5625 C-9.52318359 161.58861328 -9.48386719 160.61472656 -9.44335938 159.61132812 C-9.18631833 153.69938401 -8.72280379 147.87354003 -8 142 C-4.93793523 141.75058746 -1.87716917 141.52485855 1.1875 141.3125 C2.05181641 141.23966797 2.91613281 141.16683594 3.80664062 141.09179688 C4.64775391 141.03701172 5.48886719 140.98222656 6.35546875 140.92578125 C7.12528076 140.86817627 7.89509277 140.81057129 8.68823242 140.7512207 C11.87905358 141.09459875 13.54884314 141.92495788 16 144 C16.56762695 146.91088867 16.56762695 146.91088867 16.48828125 150.41796875 C16.47216797 151.67158203 16.45605469 152.92519531 16.43945312 154.21679688 C16.39755859 155.52712891 16.35566406 156.83746094 16.3125 158.1875 C16.28741661 159.52274529 16.26460348 160.85803529 16.24414062 162.19335938 C16.18511522 165.46336707 16.10281476 168.73112333 16 172 C16.94149902 172.31243652 17.88299805 172.62487305 18.85302734 172.94677734 C20.69244958 173.56239158 22.52775768 174.19111491 24.3515625 174.8515625 C34.10960368 178.17130847 45.13723614 178.16352803 55 175 C57.4623941 173.04440737 57.97806079 172.06581763 59 169 C60.62358993 154.64519101 60.03329236 140.07649442 59.25 125.6875 C59.21329193 124.93540253 59.17658386 124.18330505 59.13876343 123.40841675 C59.03008618 121.25409868 58.90140035 119.10198046 58.765625 116.94921875 C58.69118164 115.70487061 58.61673828 114.46052246 58.54003906 113.1784668 C57.97599319 109.85870495 57.49706752 108.25420791 55 106 C53.00533139 105.80022555 53.00533139 105.80022555 50.8828125 106.359375 C45.82577114 107.1657183 41.8043789 106.46754813 36.875 105.25 C36.11574219 105.07984375 35.35648437 104.9096875 34.57421875 104.734375 C30.95049171 103.88613597 27.56879348 102.8943258 24.1640625 101.3828125 C17.20060268 98.33952265 11.1443168 100.25113267 5.07421875 104.27734375 Z M67 112 C65.55792059 114.88415883 65.90605113 117.41721528 65.9375 120.625 C65.94652344 121.81351563 65.95554688 123.00203125 65.96484375 124.2265625 C65.97644531 125.14179688 65.98804688 126.05703125 66 127 C68.32866229 125.11153817 68.32866229 125.11153817 68.1953125 121.9609375 C68.17210937 120.77757813 68.14890625 119.59421875 68.125 118.375 C68.10695312 117.18648438 68.08890625 115.99796875 68.0703125 114.7734375 C68.04710937 113.85820313 68.02390625 112.94296875 68 112 C67.67 112 67.34 112 67 112 Z M-63 124 C-62 128 -62 128 -62 128 Z M-4 149 C-4 157.91 -4 166.82 -4 176 C5.21417472 176.92450033 5.21417472 176.92450033 9 174 C9.57921306 171.03301066 9.97505974 168.24590079 10.25 165.25 C10.34023437 164.45078125 10.43046875 163.6515625 10.5234375 162.828125 C11.34039198 155.18925255 11.34039198 155.18925255 8.8125 148.125 C4.40553078 145.38963979 0.48919157 147.20432337 -4 149 Z " fill="#131313" transform="translate(93,3)"/>
<path d="M0 0 C-1 3 -1 3 -3.3125 4.1875 C-6 5 -6 5 -10 5 C-10.33 6.98 -10.66 8.96 -11 11 C-9.35 11.33 -7.7 11.66 -6 12 C-4.96540295 16.11505144 -5.01057651 19.71507747 -5.3125 23.9375 C-5.35882568 24.60080322 -5.40515137 25.26410645 -5.45288086 25.94750977 C-5.77417454 30.16141929 -6.34742052 34.26960816 -7.0625 38.4375 C-8.2753283 46.1099573 -8.08661152 53.72396627 -7.83813477 61.47436523 C-7.70930235 67.80371062 -8.37428555 72.2272428 -11 78 C-11.32742187 78.81210938 -11.65484375 79.62421875 -11.9921875 80.4609375 C-14.36738273 85.61069706 -14.36738273 85.61069706 -17.4375 87.5 C-20.05693592 88.01110945 -22.33976302 88.22168641 -25 88 C-25.33 87.67 -25.66 87.34 -26 87 C-28.43301627 87.06527605 -30.8253784 87.19235431 -33.25 87.375 C-33.91902344 87.41882813 -34.58804688 87.46265625 -35.27734375 87.5078125 C-38.0485357 87.70381036 -40.74937012 87.94852783 -43.47265625 88.5078125 C-47.02189961 89.19900982 -50.58409049 89.32556439 -54.1875 89.5 C-59.9235636 89.79911233 -65.60979319 90.20122415 -71.3125 90.9140625 C-71.869375 90.94242187 -72.42625 90.97078125 -73 91 C-73.33 90.67 -73.66 90.34 -74 90 C-78.13300269 89.80776732 -81.94241601 90.22712686 -86 91 C-86 89.68 -86 88.36 -86 87 C-86.61713867 87.14074951 -87.23427734 87.28149902 -87.87011719 87.42651367 C-96.02300326 89.11375359 -103.94346819 89.33297961 -112.25 89.3125 C-113.58594381 89.32824946 -114.92188155 89.34452294 -116.2578125 89.36132812 C-128.39562826 89.36743367 -128.39562826 89.36743367 -134 86 C-138 81.79487179 -138 81.79487179 -138 79 C-138.66 79 -139.32 79 -140 79 C-140.66 78.01 -141.32 77.02 -142 76 C-144.52733235 75.34444881 -144.52733235 75.34444881 -147 75 C-148.93918805 73.06081195 -148.72797 69.64893146 -149.0625 67 C-149.15192871 66.29681641 -149.24135742 65.59363281 -149.33349609 64.86914062 C-150.25501381 56.91424863 -150.17809381 48.99443343 -150 41 C-148.0085944 40.61866701 -146.00720923 40.28674418 -144 40 C-143 41 -143 41 -142.90234375 43.06640625 C-142.93489583 45.37760417 -142.96744792 47.68880208 -143 50 C-141.68 47.03 -140.36 44.06 -139 41 C-138.34 41.33 -137.68 41.66 -137 42 C-137 43.98 -137 45.96 -137 48 C-136.21625 47.175 -135.4325 46.35 -134.625 45.5 C-132 43 -132 43 -130 43 C-130.42188459 44.8161982 -130.86299165 46.62794073 -131.3125 48.4375 C-131.67794922 49.95150391 -131.67794922 49.95150391 -132.05078125 51.49609375 C-132.36402344 52.32238281 -132.67726563 53.14867187 -133 54 C-134.485 54.495 -134.485 54.495 -136 55 C-135.67 56.32 -135.34 57.64 -135 59 C-133.68 59 -132.36 59 -131 59 C-130 62 -130 62 -131 65 C-133.0625 65.6875 -133.0625 65.6875 -135 66 C-134.67 67.32 -134.34 68.64 -134 70 C-132.68 70.33 -131.36 70.66 -130 71 C-130 70.34 -130 69.68 -130 69 C-129.34 69 -128.68 69 -128 69 C-127.67 70.32 -127.34 71.64 -127 73 C-128.485 73.495 -128.485 73.495 -130 74 C-125.46118854 74.56735143 -122.62956545 73.00060201 -118.76953125 70.875 C-117 70 -117 70 -115 70 C-115.495 71.485 -115.495 71.485 -116 73 C-110.39 73.33 -104.78 73.66 -99 74 C-99 75.32 -99 76.64 -99 78 C-94.545 77.01 -94.545 77.01 -90 76 C-89.93941406 74.58847656 -89.87882812 73.17695313 -89.81640625 71.72265625 C-89.73192599 69.83593055 -89.64728183 67.94921218 -89.5625 66.0625 C-89.52318359 65.13630859 -89.48386719 64.21011719 -89.44335938 63.25585938 C-88.68761489 46.68761489 -88.68761489 46.68761489 -87 45 C-83.95673117 44.53585829 -80.88271987 44.38975727 -77.8125 44.1875 C-76.96107422 44.11080078 -76.10964844 44.03410156 -75.23242188 43.95507812 C-71.112838 43.69063461 -68.33709078 43.87698757 -64.4140625 45.30859375 C-60.66664177 49.4865434 -61.31217028 53.46646768 -61.5625 58.875 C-61.59053711 60.34646484 -61.59053711 60.34646484 -61.61914062 61.84765625 C-61.73895549 66.64672721 -62.03287507 71.28426688 -63 76 C-62.236875 75.95875 -61.47375 75.9175 -60.6875 75.875 C-58 76 -58 76 -55 78 C-45.69694423 81.04463643 -33.21263569 81.74510233 -24 78 C-19.959959 73.60084424 -20.35507298 67.96965636 -20.1875 62.3125 C-20.14963379 61.24628418 -20.11176758 60.18006836 -20.07275391 59.08154297 C-19.83132371 49.23593569 -20.28636995 39.44918992 -20.875 29.625 C-20.92006683 28.86845123 -20.96513367 28.11190247 -21.01156616 27.33242798 C-21.30126289 19.04167803 -21.30126289 19.04167803 -23 11 C-22.67 10.34 -22.34 9.68 -22 9 C-24.31 9.66 -26.62 10.32 -29 11 C-29 10.34 -29 9.68 -29 9 C-29.66 9 -30.32 9 -31 9 C-31 8.34 -31 7.68 -31 7 C-29.02 6.34 -27.04 5.68 -25 5 C-25 4.34 -25 3.68 -25 3 C-5.42882562 -1.80960854 -5.42882562 -1.80960854 0 0 Z M-12 16 C-13.44207941 18.88415883 -13.09394887 21.41721528 -13.0625 24.625 C-13.05347656 25.81351563 -13.04445312 27.00203125 -13.03515625 28.2265625 C-13.02355469 29.14179688 -13.01195312 30.05703125 -13 31 C-10.67133771 29.11153817 -10.67133771 29.11153817 -10.8046875 25.9609375 C-10.82789063 24.77757812 -10.85109375 23.59421875 -10.875 22.375 C-10.89304688 21.18648437 -10.91109375 19.99796875 -10.9296875 18.7734375 C-10.95289063 17.85820313 -10.97609375 16.94296875 -11 16 C-11.33 16 -11.66 16 -12 16 Z M-83 53 C-83 61.91 -83 70.82 -83 80 C-73.78582528 80.92450033 -73.78582528 80.92450033 -70 78 C-69.42078694 75.03301066 -69.02494026 72.24590079 -68.75 69.25 C-68.65976563 68.45078125 -68.56953125 67.6515625 -68.4765625 66.828125 C-67.65960802 59.18925255 -67.65960802 59.18925255 -70.1875 52.125 C-74.59446922 49.38963979 -78.51080843 51.20432337 -83 53 Z " fill="#111111" transform="translate(172,99)"/>
<path d="M0 0 C1.61455078 0.18755859 1.61455078 0.18755859 3.26171875 0.37890625 C9.89210277 1.30233489 15.59271733 2.48038933 20.421875 7.46875 C22.77046941 9.74758418 25.53590854 11.18563359 28.35546875 12.81640625 C28.89816406 13.20699219 29.44085938 13.59757812 30 14 C30 14.66 30 15.32 30 16 C31.485 16.495 31.485 16.495 33 17 C33.495 15.515 33.495 15.515 34 14 C37.79643099 14.31583212 41.37748795 14.79069642 45 16 C46.75 19.0625 46.75 19.0625 47.26171875 20.93359375 C48.50843485 24.42307955 51.02042275 26.97917033 53.37890625 29.7890625 C55.07965609 32.10863939 56.04686459 34.29707868 57 37 C57.66 37 58.32 37 59 37 C60.09187195 38.12709363 61.18052034 39.25740024 62.2578125 40.3984375 C64.44875806 42.41253544 66.84410098 43.96344609 69.3125 45.625 C74.36513891 49.22822239 77.62475918 53.05515494 81.07421875 58.17578125 C83.66672106 61.97776739 86.59010507 65.46887629 89.53125 69.00390625 C91 71 91 71 91 73 C91.66 73 92.32 73 93 73 C93 73.66 93 74.32 93 75 C94.65 75.33 96.3 75.66 98 76 C98.33 78.31 98.66 80.62 99 83 C98.01 83.33 97.02 83.66 96 84 C96.66 85.65 97.32 87.3 98 89 C98.763125 88.938125 99.52625 88.87625 100.3125 88.8125 C103 89 103 89 104.875 90.25 C106 92 106 92 106 93.8125 C104.51715195 97.05623011 102.71420108 99.70282461 100 102 C95.63077161 103.39815309 92.25566137 102.91688261 87.875 102 C81.46460692 100.662644 75.45958906 101.24004835 69 102 C72.00887781 100.41841038 74.63672037 99.56054661 78 99 C78 98.01 78 97.02 78 96 C70.08 96.495 70.08 96.495 62 97 C64.77497971 95.15001352 66.59727366 94.40794854 69.74609375 93.52734375 C70.66583984 93.26759766 71.58558594 93.00785156 72.53320312 92.74023438 C73.49162109 92.47533203 74.45003906 92.21042969 75.4375 91.9375 C76.39205078 91.66873047 77.34660156 91.39996094 78.33007812 91.12304688 C82.20935409 90.03446069 86.08689895 88.96094445 90 88 C89.67 87.236875 89.34 86.47375 89 85.6875 C88 83 88 83 88 80 C86.64068359 80.16048828 86.64068359 80.16048828 85.25390625 80.32421875 C82 80 82 80 79.83984375 77.76953125 C79.21207031 76.79371094 78.58429688 75.81789063 77.9375 74.8125 C74.45049997 69.64485859 70.99639487 65.60579588 66.125 61.6875 C60.71375561 57.25503366 56.55720782 51.98257678 53 46 C50.77152212 43.52056045 50.77152212 43.52056045 48 41 C47.4225 40.44054688 46.845 39.88109375 46.25 39.3046875 C42.68097815 35.98031635 39.39417032 33.57409739 34.9375 31.5625 C29.55971925 29.06331662 26.62907299 25.5709698 23 21 C21.37570767 19.28289097 19.69659284 17.64669305 18 16 C17.67 15.67 17.34 15.34 17 15 C14.22907624 14.50358043 11.4498336 14.09958007 8.6640625 13.6953125 C5.80276542 12.94852235 4.87497805 12.20207702 3 10 C-0.65509755 8.51088618 -5.11353728 8.5521459 -9 9 C-12.05585579 10.29403038 -14.78821417 12.0630299 -17.5625 13.875 C-18.32691406 14.36742187 -19.09132812 14.85984375 -19.87890625 15.3671875 C-22.06876401 17.05293435 -23.39125576 18.77320712 -25 21 C-29.39285714 24 -29.39285714 24 -32 24 C-32.24492188 24.54140625 -32.48984375 25.0828125 -32.7421875 25.640625 C-34.29353788 28.55061143 -36.16714304 31.0974196 -38.125 33.75 C-38.84945312 34.73484375 -39.57390625 35.7196875 -40.3203125 36.734375 C-40.87460937 37.48203125 -41.42890625 38.2296875 -42 39 C-43.231394 36.53721199 -43.07159196 34.7204945 -43 32 C-46.15831622 33.05277207 -46.81762951 33.64975486 -49 36 C-50.62652316 37.70586575 -52.29006566 39.3777546 -54 41 C-54.66 41 -55.32 41 -56 41 C-56.25523438 41.71542969 -56.51046875 42.43085937 -56.7734375 43.16796875 C-58.0876888 46.20246618 -59.69496016 48.63188911 -61.625 51.3125 C-62.25664063 52.19550781 -62.88828125 53.07851563 -63.5390625 53.98828125 C-64.02117187 54.65214844 -64.50328125 55.31601562 -65 56 C-65.33 55.34 -65.66 54.68 -66 54 C-65.67 53.34 -65.34 52.68 -65 52 C-66.65 52 -68.3 52 -70 52 C-59.61053436 33.77086431 -59.61053436 33.77086431 -54.84375 32.36328125 C-54.2353125 32.24339844 -53.626875 32.12351563 -53 32 C-52.71125 31.4225 -52.4225 30.845 -52.125 30.25 C-49.67876617 25.35753234 -44.28323485 22.49733963 -39.875 19.5 C-36.22660168 16.98047829 -33.58624829 14.63990501 -31 11 C-20.96953233 0.44161297 -14.26483441 -1.71178013 0 0 Z M75 61 C75.66 61.66 76.32 62.32 77 63 C77 62.34 77 61.68 77 61 C76.34 61 75.68 61 75 61 Z " fill="#262626" transform="translate(93,3)"/>
<path d="M0 0 C3.31652445 3.13725286 5.69222559 6.08681731 8 10 C9.31266518 11.35368596 10.64567325 12.68799596 12 14 C15 17.64285714 15 17.64285714 15 20 C15.66 20 16.32 20 17 20 C17 20.66 17 21.32 17 22 C18.65 22.33 20.3 22.66 22 23 C22.495 26.465 22.495 26.465 23 30 C22.01 30.33 21.02 30.66 20 31 C20.66 32.65 21.32 34.3 22 36 C22.763125 35.938125 23.52625 35.87625 24.3125 35.8125 C27 36 27 36 28.875 37.25 C30 39 30 39 30 40.8125 C28.51715195 44.05623011 26.71420108 46.70282461 24 49 C19.63077161 50.39815309 16.25566137 49.91688261 11.875 49 C5.46460692 47.662644 -0.54041094 48.24004835 -7 49 C-3.99112219 47.41841038 -1.36327963 46.56054661 2 46 C2 45.01 2 44.02 2 43 C-5.92 43.495 -5.92 43.495 -14 44 C-11.22502029 42.15001352 -9.40272634 41.40794854 -6.25390625 40.52734375 C-5.33416016 40.26759766 -4.41441406 40.00785156 -3.46679688 39.74023438 C-2.50837891 39.47533203 -1.54996094 39.21042969 -0.5625 38.9375 C0.39205078 38.66873047 1.34660156 38.39996094 2.33007812 38.12304688 C6.20935409 37.03446069 10.08689895 35.96094445 14 35 C13.67 34.236875 13.34 33.47375 13 32.6875 C12 30 12 30 12 27 C11.13375 27.185625 10.2675 27.37125 9.375 27.5625 C6 27 6 27 4.265625 24.99609375 C2.75871146 22.70343244 1.33947767 20.39396009 0 18 C0.66 17.67 1.32 17.34 2 17 C2 17.66 2 18.32 2 19 C2.99 19 3.98 19 5 19 C3.68 16.36 2.36 13.72 1 11 C2.32 10.67 3.64 10.34 5 10 C3.33075929 6.95865509 3.33075929 6.95865509 1 6 C0.375 2.9375 0.375 2.9375 0 0 Z " fill="#1F1F1F" transform="translate(169,56)"/>
<path d="M0 0 C0.495 0.99 0.495 0.99 1 2 C0.01 2 -0.98 2 -2 2 C-2 2.99 -2 3.98 -2 5 C-1.01 5.33 -0.02 5.66 1 6 C0.0409375 6.7115625 0.0409375 6.7115625 -0.9375 7.4375 C-2.88293306 8.83738726 -2.88293306 8.83738726 -4 10 C-0.70924004 9.62095792 -0.70924004 9.62095792 2 8 C3.85287502 7.92773498 5.70833878 7.9161878 7.5625 7.9375 C8.57441406 7.94652344 9.58632812 7.95554687 10.62890625 7.96484375 C11.41136719 7.97644531 12.19382812 7.98804688 13 8 C13.495 8.99 13.495 8.99 14 10 C12.98679688 9.96519531 12.98679688 9.96519531 11.953125 9.9296875 C11.06109375 9.91164063 10.1690625 9.89359375 9.25 9.875 C8.36828125 9.85179687 7.4865625 9.82859375 6.578125 9.8046875 C2.18474362 10.13751942 -0.9381146 12.50780412 -4.5625 14.875 C-5.32691406 15.36742187 -6.09132812 15.85984375 -6.87890625 16.3671875 C-9.06876401 18.05293435 -10.39125576 19.77320712 -12 22 C-16.39285714 25 -16.39285714 25 -19 25 C-19.24492188 25.54140625 -19.48984375 26.0828125 -19.7421875 26.640625 C-21.29353788 29.55061143 -23.16714304 32.0974196 -25.125 34.75 C-25.84945312 35.73484375 -26.57390625 36.7196875 -27.3203125 37.734375 C-27.87460937 38.48203125 -28.42890625 39.2296875 -29 40 C-30.231394 37.53721199 -30.07159196 35.7204945 -30 33 C-33.15831622 34.05277207 -33.81762951 34.64975486 -36 37 C-37.62652316 38.70586575 -39.29006566 40.3777546 -41 42 C-41.66 42 -42.32 42 -43 42 C-43.25523438 42.71542969 -43.51046875 43.43085937 -43.7734375 44.16796875 C-45.0876888 47.20246618 -46.69496016 49.63188911 -48.625 52.3125 C-49.25664063 53.19550781 -49.88828125 54.07851563 -50.5390625 54.98828125 C-51.02117188 55.65214844 -51.50328125 56.31601562 -52 57 C-52.33 56.34 -52.66 55.68 -53 55 C-52.67 54.34 -52.34 53.68 -52 53 C-53.65 53 -55.3 53 -57 53 C-46.61053436 34.77086431 -46.61053436 34.77086431 -41.84375 33.36328125 C-41.2353125 33.24339844 -40.626875 33.12351563 -40 33 C-39.71125 32.4225 -39.4225 31.845 -39.125 31.25 C-36.67876617 26.35753234 -31.28323485 23.49733963 -26.875 20.5 C-23.22660168 17.98047829 -20.58624829 15.63990501 -18 12 C-12.47325765 6.18237647 -7.90917208 1.74001786 0 0 Z " fill="#1A1A1A" transform="translate(80,2)"/>
<path d="M0 0 C0.99 0.66 1.98 1.32 3 2 C5.30285441 2.55416283 7.60644924 2.94493312 9.94140625 3.33984375 C12 4 12 4 14 7 C14.3359375 9.77734375 14.3359375 9.77734375 14.375 12.9375 C14.40335938 13.97777344 14.43171875 15.01804688 14.4609375 16.08984375 C13.89589852 19.65725087 12.82361504 20.82193264 10 23 C9.34 23 8.68 23 8 23 C8 23.99 8 24.98 8 26 C6.35 26 4.7 26 3 26 C3 25.34 3 24.68 3 24 C0.36 24.66 -2.28 25.32 -5 26 C-5 26.66 -5 27.32 -5 28 C-7.31 28 -9.62 28 -12 28 C-12 27.01 -12 26.02 -12 25 C-14.31 24.67 -16.62 24.34 -19 24 C-20.96924349 18.33842496 -21.79619085 12.99238373 -21 7 C-18.92696473 3.32507384 -16.03688421 2.53312807 -12.1875 1.25 C-8.03014065 0.12788088 -4.32510897 -0.44133765 0 0 Z M-15 10 C-14.67 12.31 -14.34 14.62 -14 17 C-10.535 16.505 -10.535 16.505 -7 16 C-7 16.99 -7 17.98 -7 19 C-5.06183265 18.8858134 -3.12444901 18.75826577 -1.1875 18.625 C-0.10855469 18.55539063 0.97039063 18.48578125 2.08203125 18.4140625 C5.18626186 18.18804267 5.18626186 18.18804267 8 16 C8.2502157 12.91634129 8.2502157 12.91634129 8 10 C0.31565126 5.72700974 -7.16996146 6.65237483 -15 10 Z " fill="#0C0C0C" transform="translate(63,116)"/>
<path d="M0 0 C6.88537063 3.0174931 13.52443365 3.64062572 20.94140625 3.9140625 C21.81152344 3.95273438 22.68164062 3.99140625 23.578125 4.03125 C25.69891111 4.12447137 27.8201281 4.20780386 29.94140625 4.2890625 C27.94140625 6.2890625 27.94140625 6.2890625 24.81640625 6.4140625 C23.86765625 6.3728125 22.91890625 6.3315625 21.94140625 6.2890625 C22.43640625 7.7740625 22.43640625 7.7740625 22.94140625 9.2890625 C20.63140625 9.6190625 18.32140625 9.9490625 15.94140625 10.2890625 C15.94140625 10.9490625 15.94140625 11.6090625 15.94140625 12.2890625 C19.4196374 13.44847288 21.40036203 12.99727134 24.94140625 12.2890625 C23.94140625 14.2890625 23.94140625 14.2890625 22.2890625 14.84375 C12.39178905 16.23106012 1.21127662 13.71155061 -7.890625 9.671875 C-12.85925642 7.50307657 -16.4390896 7.7001519 -21.49609375 9.5390625 C-22.67171875 10.1165625 -23.84734375 10.6940625 -25.05859375 11.2890625 C-25.79078125 11.64871094 -26.52296875 12.00835937 -27.27734375 12.37890625 C-29.21110639 13.33557404 -31.13569342 14.31074479 -33.05859375 15.2890625 C-33.05859375 14.6290625 -33.05859375 13.9690625 -33.05859375 13.2890625 C-32.39859375 13.2890625 -31.73859375 13.2890625 -31.05859375 13.2890625 C-30.83171875 12.6496875 -30.60484375 12.0103125 -30.37109375 11.3515625 C-29.05859375 9.2890625 -29.05859375 9.2890625 -26.43359375 8.5390625 C-25.64984375 8.4565625 -24.86609375 8.3740625 -24.05859375 8.2890625 C-23.72859375 7.2990625 -23.39859375 6.3090625 -23.05859375 5.2890625 C-21.92421875 5.1653125 -20.78984375 5.0415625 -19.62109375 4.9140625 C-18.44546875 4.7078125 -17.26984375 4.5015625 -16.05859375 4.2890625 C-15.72859375 3.6290625 -15.39859375 2.9690625 -15.05859375 2.2890625 C-17.03859375 2.6190625 -19.01859375 2.9490625 -21.05859375 3.2890625 C-21.05859375 2.9590625 -21.05859375 2.6290625 -21.05859375 2.2890625 C-22.70859375 1.9590625 -24.35859375 1.6290625 -26.05859375 1.2890625 C-19.97460509 -7.07642191 -7.53419912 -3.84008361 0 0 Z " fill="#0B0B0B" transform="translate(125.05859375,95.7109375)"/>
<path d="M0 0 C1.6875 2 1.6875 2 3 4 C1.79618552 6.49361571 0.54571278 8.68143083 -1 11 C-3.78537511 11.78561862 -6.1003917 12 -9 12 C-11.0609964 13.86722751 -12.96846862 15.73572852 -14.875 17.75 C-17.73967588 20.736121 -20.51948547 23.61613286 -23.7578125 26.203125 C-26.20328309 27.97733084 -26.20328309 27.97733084 -28 31 C-28.66 31 -29.32 31 -30 31 C-30.309375 31.8353125 -30.309375 31.8353125 -30.625 32.6875 C-32.17322134 35.2913268 -34.07820514 36.85219251 -36.4296875 38.7265625 C-40.99341514 42.42749586 -44.7027099 46.93163205 -48.44921875 51.42578125 C-48.96097656 51.94527344 -49.47273438 52.46476562 -50 53 C-50.66 53 -51.32 53 -52 53 C-52.33 53.99 -52.66 54.98 -53 56 C-55.31 56 -57.62 56 -60 56 C-58.33536962 51.71357676 -55.20924163 48.91382783 -52 45.75 C-51.18015625 44.91855469 -51.18015625 44.91855469 -50.34375 44.0703125 C-46.2533867 40 -46.2533867 40 -44 40 C-43.34 38.68 -42.68 37.36 -42 36 C-41.34 36 -40.68 36 -40 36 C-40 35.34 -40 34.68 -40 34 C-38.35648543 32.63823078 -36.68477344 31.31037934 -35 30 C-33.31126121 28.35570171 -31.64694485 26.68615782 -30 25 C-29.39414063 24.40445313 -28.78828125 23.80890625 -28.1640625 23.1953125 C-27.53242187 22.57398437 -26.90078125 21.95265625 -26.25 21.3125 C-25.65703125 20.73113281 -25.0640625 20.14976563 -24.453125 19.55078125 C-22.90358196 18.04486026 -22.90358196 18.04486026 -22 16 C-21.236875 15.5875 -20.47375 15.175 -19.6875 14.75 C-16.36305644 12.58524605 -14.8777774 10.47736556 -13 7 C-12.66290938 4.24741188 -12.66290938 4.24741188 -13 2 C-10 1 -10 1 -8 1.5625 C-7.34 1.706875 -6.68 1.85125 -6 2 C-3 0 -3 0 0 0 Z " fill="#424242" transform="translate(115,33)"/>
<path d="M0 0 C2.77068191 2.44083883 4.3192192 3.8560214 5.625 7.3125 C5.80869284 10.46867695 5.7780241 13.35233235 4.625 16.3125 C0.35716089 20.07824039 -4.12267618 19.70060141 -9.5 19.5625 C-10.31082031 19.55734375 -11.12164062 19.5521875 -11.95703125 19.546875 C-15.41366011 19.50116751 -18.06491265 19.41586245 -21.375 18.3125 C-23.35077258 13.94500272 -23.89393913 10.06944202 -23.375 5.3125 C-21.39004742 1.73958536 -19.97171587 0.55820653 -16.1875 -1 C-10.22345433 -2.07548365 -5.53733204 -2.76866602 0 0 Z M-15.375 5.3125 C-16.365 6.7975 -16.365 6.7975 -17.375 8.3125 C-16.57338209 10.98395537 -16.57338209 10.98395537 -15.375 13.3125 C-13.22923363 13.33935938 -11.08337355 13.35883088 -8.9375 13.375 C-7.14505859 13.39240234 -7.14505859 13.39240234 -5.31640625 13.41015625 C-2.48626659 13.65151792 -2.48626659 13.65151792 -1.375 12.3125 C-0.87457854 9.39711971 -0.87457854 9.39711971 -1.375 6.3125 C-6.43073905 2.32112707 -9.4825527 3.31327681 -15.375 5.3125 Z " fill="#1D1D1C" transform="translate(142.375,116.6875)"/>
<path d="M0 0 C0.99 0 1.98 0 3 0 C4.2547888 3.45066919 4.09327781 4.79316659 2.5625 8.1875 C-2.92736568 16.87352036 -10.07168503 24.46224992 -17 32 C-17.598125 31.690625 -18.19625 31.38125 -18.8125 31.0625 C-21.08956772 29.89790296 -21.08956772 29.89790296 -24 29 C-23.67 28.34 -23.34 27.68 -23 27 C-23.33 26.67 -23.66 26.34 -24 26 C-24 24 -24 22 -24 20 C-22.35 20 -20.7 20 -19 20 C-19 20.99 -19 21.98 -19 23 C-18.34 23 -17.68 23 -17 23 C-17 22.34 -17 21.68 -17 21 C-16.34 21 -15.68 21 -15 21 C-14.76410156 20.28199219 -14.52820312 19.56398438 -14.28515625 18.82421875 C-12.78786671 15.53382258 -10.91219474 13.4381392 -8.4375 10.8125 C-5.35814202 7.65811063 -5.35814202 7.65811063 -3 4 C-2.34 4 -1.68 4 -1 4 C-0.67 2.68 -0.34 1.36 0 0 Z " fill="#151514" transform="translate(47,35)"/>
<path d="M0 0 C0.598125 0.20625 1.19625 0.4125 1.8125 0.625 C1.8125 1.945 1.8125 3.265 1.8125 4.625 C0.125 6.30078125 0.125 6.30078125 -2.1875 7.9375 C-9.26067747 13.13116962 -16.01433137 18.79073535 -21.765625 25.453125 C-24.85604535 28.87764485 -26.92664452 30.98973228 -31.625 31.5625 C-33.3884375 31.5934375 -33.3884375 31.5934375 -35.1875 31.625 C-31.03183115 26.48509379 -26.5274224 22.18552868 -21.5703125 17.8203125 C-19.02599835 15.47620667 -16.87637058 12.99473071 -14.69140625 10.32421875 C-4.82223054 -0.82666809 -4.82223054 -0.82666809 0 0 Z " fill="#353534" transform="translate(97.1875,27.375)"/>
<path d="M0 0 C3.31652445 3.13725286 5.69222559 6.08681731 8 10 C9.31266518 11.35368596 10.64567325 12.68799596 12 14 C15 17.64285714 15 17.64285714 15 20 C15.66 20 16.32 20 17 20 C17 20.66 17 21.32 17 22 C18.65 22.33 20.3 22.66 22 23 C22 23.66 22 24.32 22 25 C19.36 24.67 16.72 24.34 14 24 C13.67 25.98 13.34 27.96 13 30 C12.67 29.01 12.34 28.02 12 27 C11.13375 27.185625 10.2675 27.37125 9.375 27.5625 C6 27 6 27 4.265625 24.99609375 C2.75871146 22.70343244 1.33947767 20.39396009 0 18 C0.66 17.67 1.32 17.34 2 17 C2 17.66 2 18.32 2 19 C2.99 19 3.98 19 5 19 C3.68 16.36 2.36 13.72 1 11 C2.32 10.67 3.64 10.34 5 10 C3.33075929 6.95865509 3.33075929 6.95865509 1 6 C0.375 2.9375 0.375 2.9375 0 0 Z " fill="#383837" transform="translate(169,56)"/>
<path d="M0 0 C0.99 0.66 1.98 1.32 3 2 C5.27538323 2.66613335 5.27538323 2.66613335 7.6875 3.125 C8.49574219 3.29257813 9.30398437 3.46015625 10.13671875 3.6328125 C10.75160156 3.75398438 11.36648437 3.87515625 12 4 C12.33 6.64 12.66 9.28 13 12 C11.68 11.67 10.36 11.34 9 11 C9 10.01 9 9.02 9 8 C-5.11749391 7.73008682 -5.11749391 7.73008682 -19 10 C-15.56521739 2.60200669 -15.56521739 2.60200669 -10.75 0.75 C-7.00492999 0.000986 -3.80550969 -0.29273151 0 0 Z " fill="#111111" transform="translate(63,116)"/>
<path d="M0 0 C0.76957031 0.38414063 1.53914063 0.76828125 2.33203125 1.1640625 C2.88246094 1.43992187 3.43289062 1.71578125 4 2 C-3.625 1.125 -3.625 1.125 -7 0 C-7 0.66 -7 1.32 -7 2 C-4.525 2.495 -4.525 2.495 -2 3 C-2 3.66 -2 4.32 -2 5 C-2.825 4.67 -3.65 4.34 -4.5 4 C-8.68711258 2.80368212 -11.66102559 2.6384188 -16 3 C-16.99 4.485 -16.99 4.485 -18 6 C-20.1015625 7.02734375 -20.1015625 7.02734375 -22.625 7.9375 C-27.2654705 9.68442131 -31.59958354 11.71830257 -36 14 C-36 13.34 -36 12.68 -36 12 C-35.34 12 -34.68 12 -34 12 C-33.773125 11.360625 -33.54625 10.72125 -33.3125 10.0625 C-32 8 -32 8 -29.375 7.25 C-28.59125 7.1675 -27.8075 7.085 -27 7 C-26.67 6.01 -26.34 5.02 -26 4 C-24.865625 3.87625 -23.73125 3.7525 -22.5625 3.625 C-21.386875 3.41875 -20.21125 3.2125 -19 3 C-18.67 2.34 -18.34 1.68 -18 1 C-19.98 1.33 -21.96 1.66 -24 2 C-24 1.67 -24 1.34 -24 1 C-25.65 0.67 -27.3 0.34 -29 0 C-22.03778701 -9.57304286 -8.2324909 -4.16037059 0 0 Z " fill="#403F40" transform="translate(128,97)"/>
<path d="M0 0 C2.75 0.4375 2.75 0.4375 4.75 1.4375 C5.74 1.4375 6.73 1.4375 7.75 1.4375 C7.42 2.4275 7.09 3.4175 6.75 4.4375 C5.615625 4.56125 4.48125 4.685 3.3125 4.8125 C1.5490625 5.121875 1.5490625 5.121875 -0.25 5.4375 C-0.58 6.0975 -0.91 6.7575 -1.25 7.4375 C-1.91 7.4375 -2.57 7.4375 -3.25 7.4375 C-3.58 8.0975 -3.91 8.7575 -4.25 9.4375 C-5.24 9.7675 -6.23 10.0975 -7.25 10.4375 C-7.58 11.0975 -7.91 11.7575 -8.25 12.4375 C-8.91 12.4375 -9.57 12.4375 -10.25 12.4375 C-10.25 13.0975 -10.25 13.7575 -10.25 14.4375 C-14.48207903 16.55353951 -19.68047529 16.21632711 -24.25 15.4375 C-26.85559508 13.29738084 -27.70915627 11.51918746 -29.25 8.4375 C-26.65678451 7.14089225 -25.90780083 7.72769869 -23.1875 8.5625 C-17.90645032 9.8021033 -13.99152258 9.05072551 -9.25 6.4375 C-7.5455348 4.92576057 -7.5455348 4.92576057 -6.0625 3.25 C-3.25 0.4375 -3.25 0.4375 0 0 Z " fill="#0C0C0C" transform="translate(102.25,96.5625)"/>
<path d="M0 0 C18.42170819 1.42170819 18.42170819 1.42170819 20 3 C20.125 6 20.125 6 20 9 C19 10 19 10 16 10.125 C13 10 13 10 12 9 C10.21162378 8.87475541 8.41771786 8.82426324 6.625 8.8125 C5.64789063 8.79832031 4.67078125 8.78414062 3.6640625 8.76953125 C0.77212978 8.80458017 0.77212978 8.80458017 -2 11 C-4.1875 10.625 -4.1875 10.625 -6 10 C-5.67 9.01 -5.34 8.02 -5 7 C-2.9375 6.3125 -2.9375 6.3125 -1 6 C-1.66 5.67 -2.32 5.34 -3 5 C-3 4.01 -3 3.02 -3 2 C-2.01 2 -1.02 2 0 2 C0 1.34 0 0.68 0 0 Z " fill="#171717" transform="translate(81,2)"/>
<path d="M0 0 C1.98 0 3.96 0 6 0 C5.99476318 0.65597168 5.98952637 1.31194336 5.98413086 1.98779297 C5.96338728 4.95018563 5.95034824 7.91256303 5.9375 10.875 C5.92912109 11.90753906 5.92074219 12.94007812 5.91210938 14.00390625 C5.90888672 14.99003906 5.90566406 15.97617188 5.90234375 16.9921875 C5.89710693 17.90339355 5.89187012 18.81459961 5.88647461 19.75341797 C5.85114435 22.03687509 5.85114435 22.03687509 7 24 C5.625 25.5 5.625 25.5 4 27 C3.34 27 2.68 27 2 27 C2 25.68 2 24.36 2 23 C1.360625 22.360625 0.72125 21.72125 0.0625 21.0625 C-3.55405305 17.44594695 -3.04188506 13.55949641 -3.0625 8.6875 C-3.04653226 7.1249427 -3.02730408 5.56240032 -3 4 C-2.34 4 -1.68 4 -1 4 C-0.67 2.68 -0.34 1.36 0 0 Z " fill="#0F100F" transform="translate(154,114)"/>
<path d="M0 0 C0 3.10551666 -0.5393715 4.35261084 -2 7 C-1.67 6.67 -1.34 6.34 -1 6 C0.99172182 5.30899447 2.99161804 4.64097297 5 4 C3.49111169 8.22488728 0.67376036 9.65504658 -3 12 C-3.33 12.66 -3.66 13.32 -4 14 C-4.66 14 -5.32 14 -6 14 C-6.25523438 14.71542969 -6.51046875 15.43085937 -6.7734375 16.16796875 C-8.0876888 19.20246618 -9.69496016 21.63188911 -11.625 24.3125 C-12.25664062 25.19550781 -12.88828125 26.07851563 -13.5390625 26.98828125 C-14.26222656 27.98408203 -14.26222656 27.98408203 -15 29 C-15.33 28.34 -15.66 27.68 -16 27 C-15.67 26.34 -15.34 25.68 -15 25 C-16.65 25 -18.3 25 -20 25 C-9.60230735 6.75642938 -9.60230735 6.75642938 -4.86328125 5.37890625 C-3.94095703 5.19134766 -3.94095703 5.19134766 -3 5 C-1.77472052 3.04978917 -1.77472052 3.04978917 -1 1 C-0.67 0.67 -0.34 0.34 0 0 Z " fill="#2C2C2B" transform="translate(43,30)"/>
<path d="M0 0 C-0.33 0.99 -0.66 1.98 -1 3 C-2.9609375 3.94921875 -2.9609375 3.94921875 -5.375 4.6875 C-6.56222656 5.06455078 -6.56222656 5.06455078 -7.7734375 5.44921875 C-10 6 -10 6 -13 6 C-13 7.32 -13 8.64 -13 10 C-13.66 10 -14.32 10 -15 10 C-15 9.01 -15 8.02 -15 7 C-16.32 7 -17.64 7 -19 7 C-19 7.99 -19 8.98 -19 10 C-18.34 10.33 -17.68 10.66 -17 11 C-17.99 11.99 -18.98 12.98 -20 14 C-20.99 13.01 -21.98 12.02 -23 11 C-22.67 10.34 -22.34 9.68 -22 9 C-24.31 9.66 -26.62 10.32 -29 11 C-29 10.34 -29 9.68 -29 9 C-29.66 9 -30.32 9 -31 9 C-31 8.34 -31 7.68 -31 7 C-29.02 6.34 -27.04 5.68 -25 5 C-25 4.34 -25 3.68 -25 3 C-5.42882562 -1.80960854 -5.42882562 -1.80960854 0 0 Z " fill="#070707" transform="translate(172,99)"/>
<path d="M0 0 C1.32 0.33 2.64 0.66 4 1 C1.97241259 6.744831 -0.10331977 9.18058942 -5 13 C-5.94281804 14.08192234 -6.86058869 15.1862632 -7.75 16.3125 C-8.4925 17.199375 -9.235 18.08625 -10 19 C-10.66 19 -11.32 19 -12 19 C-12.33 19.99 -12.66 20.98 -13 22 C-15.31 22 -17.62 22 -20 22 C-18.33536962 17.71357676 -15.20924163 14.91382783 -12 11.75 C-11.4534375 11.19570312 -10.906875 10.64140625 -10.34375 10.0703125 C-6.2533867 6 -6.2533867 6 -4 6 C-3.34 4.68 -2.68 3.36 -2 2 C-1.34 2 -0.68 2 0 2 C0 1.34 0 0.68 0 0 Z " fill="#6A6968" transform="translate(75,67)"/>
<path d="M0 0 C4.29 0 8.58 0 13 0 C11 2 11 2 7.875 2.125 C6.92625 2.08375 5.9775 2.0425 5 2 C5.495 3.485 5.495 3.485 6 5 C3.69 5.33 1.38 5.66 -1 6 C-1 6.66 -1 7.32 -1 8 C2.47823115 9.15941038 4.45895578 8.70820884 8 8 C7 10 7 10 5.34765625 10.5546875 C-0.7654385 11.41156574 -6.15714563 10.61335126 -12.125 9.3125 C-12.87644287 9.15185059 -13.62788574 8.99120117 -14.40209961 8.82568359 C-19.72603079 7.57292535 -24.1856801 5.59274598 -29 3 C-25.30566406 0.91943359 -25.30566406 0.91943359 -22.5546875 1.64453125 C-21.67039062 2.02996094 -20.78609375 2.41539063 -19.875 2.8125 C-14.54690129 4.94230527 -9.70858642 5.75233898 -4 6 C-3.67 5.01 -3.34 4.02 -3 3 C-0.03 3.495 -0.03 3.495 3 4 C3 3.01 3 2.02 3 1 C2.01 0.67 1.02 0.34 0 0 Z " fill="#2C2C2C" transform="translate(142,100)"/>
<path d="M0 0 C1.6875 2 1.6875 2 3 4 C1.79618552 6.49361571 0.54571278 8.68143083 -1 11 C-3.78537511 11.78561862 -6.1003917 12 -9 12 C-10.67099977 12.31088368 -12.33871537 12.64080332 -14 13 C-14.1234711 8.55504028 -13.39748841 5.19246523 -12 1 C-11.071875 1.20625 -10.14375 1.4125 -9.1875 1.625 C-5.13523885 2.10173661 -3.99345914 0 0 0 Z " fill="#262525" transform="translate(115,33)"/>
<path d="M0 0 C5.625 -0.25 5.625 -0.25 9 2 C8.67 3.65 8.34 5.3 8 7 C7.34 7 6.68 7 6 7 C6.33 9.31 6.66 11.62 7 14 C8.65 13.67 10.3 13.34 12 13 C12.66 14.32 13.32 15.64 14 17 C10.34543185 17.75241109 6.68266103 18.40049704 3 19 C2.67 18.01 2.34 17.02 2 16 C1.34 15.67 0.68 15.34 0 15 C0 14.34 0 13.68 0 13 C0.66 13 1.32 13 2 13 C1.67 11.02 1.34 9.04 1 7 C0.34 7 -0.32 7 -1 7 C-0.67 4.69 -0.34 2.38 0 0 Z " fill="#161616" transform="translate(183,80)"/>
<path d="M0 0 C4.47537146 0.36683373 6.49290396 1.31676699 9.8125 4.3125 C10.1875 7.0625 10.1875 7.0625 9.8125 9.3125 C7.8325 9.3125 5.8525 9.3125 3.8125 9.3125 C3.4825 10.3025 3.1525 11.2925 2.8125 12.3125 C2.503125 11.673125 2.19375 11.03375 1.875 10.375 C-1.28518575 7.21481425 -4.87083908 7.49349207 -9.1875 7.3125 C-9.1875 5.6625 -9.1875 4.0125 -9.1875 2.3125 C-7.9809375 2.0959375 -7.9809375 2.0959375 -6.75 1.875 C-3.61999516 1.18792577 -3.36702906 0.33010089 0 0 Z " fill="#262525" transform="translate(100.1875,142.6875)"/>
<path d="M0 0 C3.58467459 0.15585542 5.40220562 0.38292193 7.9375 3 C9.38154579 7.07730575 9.28654416 10.85537357 8 15 C5 17 5 17 2 17 C2 16.34 2 15.68 2 15 C0.02 15.99 0.02 15.99 -2 17 C-2.33 16.01 -2.66 15.02 -3 14 C-2 12 -2 12 1 11 C1.29562367 5.67829506 1.29562367 5.67829506 -1 1 C-0.67 0.67 -0.34 0.34 0 0 Z " fill="#0C0C0C" transform="translate(139,118)"/>
<path d="M0 0 C2.73265577 2.32726178 3.54403498 4.12933449 4.25 7.625 C4.50523438 8.81996094 4.50523438 8.81996094 4.765625 10.0390625 C4.88164062 11.00972656 4.88164062 11.00972656 5 12 C4.67 12.33 4.34 12.66 4 13 C3.76924918 14.34747084 3.58846937 15.70377565 3.4375 17.0625 C3.293125 18.361875 3.14875 19.66125 3 21 C2.34 21 1.68 21 1 21 C1 23.31 1 25.62 1 28 C2.98 28 4.96 28 7 28 C8.07999887 31.2399966 7.92129428 32.38363535 7.1875 35.625 C7.01605469 36.42164063 6.84460937 37.21828125 6.66796875 38.0390625 C6 40 6 40 4 41 C4 37.7 4 34.4 4 31 C2.02 31 0.04 31 -2 31 C-1.855625 30.071875 -1.71125 29.14375 -1.5625 28.1875 C-0.38833303 19.71307749 0.1221502 11.87537334 -0.84375 3.3359375 C-0.8953125 2.56507812 -0.946875 1.79421875 -1 1 C-0.67 0.67 -0.34 0.34 0 0 Z " fill="#252525" transform="translate(24,109)"/>
<path d="M0 0 C0.22429687 0.64453125 0.44859375 1.2890625 0.6796875 1.953125 C1.82889456 4.24388852 1.82889456 4.24388852 4.3828125 4.609375 C5.28773438 4.65578125 6.19265625 4.7021875 7.125 4.75 C8.03507813 4.80671875 8.94515625 4.8634375 9.8828125 4.921875 C10.58148438 4.94765625 11.28015625 4.9734375 12 5 C12.33 6.32 12.66 7.64 13 9 C13.99 8.67 14.98 8.34 16 8 C16.33 8.99 16.66 9.98 17 11 C14.06243881 11.0269501 11.12512445 11.04681474 8.1875 11.0625 C7.35412109 11.07087891 6.52074219 11.07925781 5.66210938 11.08789062 C4.45844727 11.09272461 4.45844727 11.09272461 3.23046875 11.09765625 C2.49207764 11.10289307 1.75368652 11.10812988 0.99291992 11.11352539 C-1 11 -1 11 -4 10 C-5.1875 6.4375 -5.1875 6.4375 -6 3 C-3.83125748 3.50603992 -2.00032373 3.99983813 0 5 C0 3.35 0 1.7 0 0 Z " fill="#1D1D1D" transform="translate(125,125)"/>
<path d="M0 0 C-0.33 0.99 -0.66 1.98 -1 3 C-3.64 3.33 -6.28 3.66 -9 4 C-8.67 6.31 -8.34 8.62 -8 11 C-6.68 10.67 -5.36 10.34 -4 10 C-3.67 11.65 -3.34 13.3 -3 15 C-4.98 16.65 -6.96 18.3 -9 20 C-9 17 -9 17 -8 15 C-9.98 15 -11.96 15 -14 15 C-14 16.32 -14 17.64 -14 19 C-13.34 19 -12.68 19 -12 19 C-12.99 21.475 -12.99 21.475 -14 24 C-14.33 24 -14.66 24 -15 24 C-15.33 19.71 -15.66 15.42 -16 11 C-14.68 10.34 -13.36 9.68 -12 9 C-11.731875 8.030625 -11.46375 7.06125 -11.1875 6.0625 C-10 3 -10 3 -6.5625 1.125 C-3 0 -3 0 0 0 Z " fill="#363636" transform="translate(45,103)"/>
<path d="M0 0 C2.9425963 0.30652045 5.34542308 0.67271154 8 2 C8.7425 1.67 9.485 1.34 10.25 1 C13.57496185 -0.20907704 15.60107451 0.20955221 19 1 C19.33 1.99 19.66 2.98 20 4 C22.00016466 5.20882096 22.00016466 5.20882096 24 6 C24 6.66 24 7.32 24 8 C22.41705218 8.05437607 20.83355744 8.09296271 19.25 8.125 C18.36828125 8.14820312 17.4865625 8.17140625 16.578125 8.1953125 C13.84143457 7.98798747 12.36803094 7.32374401 10 6 C7.66989091 5.32215008 5.33640176 4.65583207 3 4 C1.32367583 3.35800351 -0.34750513 2.70105843 -2 2 C-1.34 1.34 -0.68 0.68 0 0 Z " fill="#101011" transform="translate(54,105)"/>
<path d="M0 0 C5.43806647 -0.36253776 5.43806647 -0.36253776 7.9375 1.25 C9 3 9 3 9 4.8125 C7.52061682 8.0486507 5.73199011 10.73034668 3 13 C-1.30820794 14.15398427 -4.70735238 14.17072208 -9 13 C-9 12.67 -9 12.34 -9 12 C-6.36 11.67 -3.72 11.34 -1 11 C-1 10.34 -1 9.68 -1 9 C-5.455 8.01 -5.455 8.01 -10 7 C-10 6.34 -10 5.68 -10 5 C-8.02 4.67 -6.04 4.34 -4 4 C-4 4.99 -4 5.98 -4 7 C-1.03 6.34 1.94 5.68 5 5 C5 4.01 5 3.02 5 2 C3.35 2 1.7 2 0 2 C0 1.34 0 0.68 0 0 Z " fill="#202020" transform="translate(190,92)"/>
<path d="M0 0 C0.99 0.33 1.98 0.66 3 1 C2.67 2.32 2.34 3.64 2 5 C3.2065625 5.185625 3.2065625 5.185625 4.4375 5.375 C5.7059375 5.684375 5.7059375 5.684375 7 6 C7.33 6.66 7.66 7.32 8 8 C7.01 8 6.02 8 5 8 C4.67 8.66 4.34 9.32 4 10 C1.03 10 -1.94 10 -5 10 C-5.33 10.99 -5.66 11.98 -6 13 C-6.66 13 -7.32 13 -8 13 C-8.66 10.69 -9.32 8.38 -10 6 C-8.68 6 -7.36 6 -6 6 C-6 5.34 -6 4.68 -6 4 C-6 3.01 -6 2.02 -6 1 C-4.68 1 -3.36 1 -2 1 C-2 1.99 -2 2.98 -2 4 C-1.34 4 -0.68 4 0 4 C0 2.68 0 1.36 0 0 Z " fill="#323332" transform="translate(159,105)"/>
<path d="M0 0 C-0.350625 0.86625 -0.70125 1.7325 -1.0625 2.625 C-2.09383845 6.33781842 -1.68575462 8.26644708 -1 12 C-1.2644354 14.34214207 -1.58244638 16.68025766 -2 19 C-2.66 19 -3.32 19 -4 19 C-4.5625 17.0625 -4.5625 17.0625 -5 15 C-4.67 14.67 -4.34 14.34 -4 14 C-4.66 13.67 -5.32 13.34 -6 13 C-6.33 14.98 -6.66 16.96 -7 19 C-7.66 19 -8.32 19 -9 19 C-9.23926553 12.77909633 -8.37191712 10.05787568 -5 5 C-5.66 5 -6.32 5 -7 5 C-7 3.68 -7 2.36 -7 1 C-4.53721199 -0.231394 -2.7204945 -0.07159196 0 0 Z " fill="#2B2B2B" transform="translate(38,117)"/>
<path d="M0 0 C0.99 0.33 1.98 0.66 3 1 C3 1.66 3 2.32 3 3 C1.34918039 4.02594951 -0.32077354 5.02123738 -2 6 C-3.53075226 7.2765006 -5.03116894 8.59020954 -6.5 9.9375 C-8.93706864 12.15154239 -11.34851368 14.27436183 -13.9375 16.3125 C-16.21872261 18.01097679 -16.21872261 18.01097679 -18 21 C-18.66 21 -19.32 21 -20 21 C-20.33 21.99 -20.66 22.98 -21 24 C-24.44444444 27 -24.44444444 27 -27 27 C-26.34 25.68 -25.68 24.36 -25 23 C-24.34 23 -23.68 23 -23 23 C-23 22.34 -23 21.68 -23 21 C-22.34 21 -21.68 21 -21 21 C-20.731875 20.360625 -20.46375 19.72125 -20.1875 19.0625 C-19 17 -19 17 -16 16 C-15.71125 15.360625 -15.4225 14.72125 -15.125 14.0625 C-13.60640292 11.27840535 -11.8782279 11.15129116 -9 10 C-8.32550843 8.6706079 -7.65984041 7.33672467 -7 6 C-5.37890625 4.26171875 -5.37890625 4.26171875 -3.5625 2.6875 C-2.96566406 2.15511719 -2.36882812 1.62273438 -1.75390625 1.07421875 C-1.17511719 0.71972656 -0.59632812 0.36523438 0 0 Z " fill="#848483" transform="translate(104,53)"/>
<path d="M0 0 C0.99 0.33 1.98 0.66 3 1 C2.69073032 3.75039833 2.3777116 6.50028178 2.0625 9.25 C1.97548828 10.02730469 1.88847656 10.80460937 1.79882812 11.60546875 C1.71181641 12.35957031 1.62480469 13.11367187 1.53515625 13.890625 C1.456604 14.58188477 1.37805176 15.27314453 1.29711914 15.98535156 C0.99455017 18.03695313 0.53587616 19.99782535 0 22 C-0.66 22 -1.32 22 -2 22 C-3.26582219 18.13276369 -3.1118765 14.26848738 -3.0625 10.25 C-3.05798828 9.55261719 -3.05347656 8.85523437 -3.04882812 8.13671875 C-3.0371002 6.42444197 -3.01916653 4.71220967 -3 3 C-2.34 3 -1.68 3 -1 3 C-0.67 2.01 -0.34 1.02 0 0 Z " fill="#101010" transform="translate(164,112)"/>
<path d="M0 0 C2.67471043 2.67471043 2.32943834 4.14805618 2.375 7.875 C2.40335938 8.92429688 2.43171875 9.97359375 2.4609375 11.0546875 C1.89682213 14.65928908 0.82883505 15.77659828 -2 18 C-4.25 18.75 -4.25 18.75 -6 19 C-6.33 18.01 -6.66 17.02 -7 16 C-6.01 16 -5.02 16 -4 16 C-4 15.34 -4 14.68 -4 14 C-3.34 14 -2.68 14 -2 14 C-2.33 13.34 -2.66 12.68 -3 12 C-3.99 12.66 -4.98 13.32 -6 14 C-8.33199388 14.07905064 -10.66832622 14.08798769 -13 14 C-13 13.67 -13 13.34 -13 13 C-10.36 12.34 -7.72 11.68 -5 11 C-4.7497843 8.08365871 -4.7497843 8.08365871 -5 5 C-5.99 4.34 -6.98 3.68 -8 3 C-6.35 3 -4.7 3 -3 3 C-3 3.99 -3 4.98 -3 6 C-1.68 6.33 -0.36 6.66 1 7 C0.67 4.69 0.34 2.38 0 0 Z " fill="#393938" transform="translate(75,121)"/>
<path d="M0 0 C0 1.32 0 2.64 0 4 C-1.4298086 5.299826 -2.87255141 6.59263276 -4.4140625 7.7578125 C-6.19427432 9.07730211 -6.19427432 9.07730211 -8.125 11.375 C-8.74375 11.91125 -9.3625 12.4475 -10 13 C-12.25 12.75 -12.25 12.75 -14 12 C-13.67 10.35 -13.34 8.7 -13 7 C-12.34 7 -11.68 7 -11 7 C-10.67 6.01 -10.34 5.02 -10 4 C-6.31082874 1.13064457 -4.75567676 0 0 0 Z " fill="#333332" transform="translate(77,159)"/>
<path d="M0 0 C0.87591797 0.33064453 0.87591797 0.33064453 1.76953125 0.66796875 C1.76953125 4.66796875 1.76953125 4.66796875 -0.05859375 6.51953125 C-0.8578125 7.10476562 -1.65703125 7.69 -2.48046875 8.29296875 C-3.269375 8.88335937 -4.05828125 9.47375 -4.87109375 10.08203125 C-6.94296017 11.47470967 -8.96916787 12.62030183 -11.23046875 13.66796875 C-11.23046875 13.00796875 -11.23046875 12.34796875 -11.23046875 11.66796875 C-11.89046875 11.33796875 -12.55046875 11.00796875 -13.23046875 10.66796875 C-12.24046875 10.33796875 -11.25046875 10.00796875 -10.23046875 9.66796875 C-9.8859431 8.33748351 -9.5540611 7.00369959 -9.23046875 5.66796875 C-7.7421875 3.9296875 -7.7421875 3.9296875 -5.91796875 2.35546875 C-5.32371094 1.82308594 -4.72945312 1.29070313 -4.1171875 0.7421875 C-2.23046875 -0.33203125 -2.23046875 -0.33203125 0 0 Z " fill="#2C2C2B" transform="translate(97.23046875,27.33203125)"/>
<path d="M0 0 C0.33 0.66 0.66 1.32 1 2 C0.01 2 -0.98 2 -2 2 C-2 2.99 -2 3.98 -2 5 C-1.01 5.33 -0.02 5.66 1 6 C-0.96382007 7.50559539 -2.78263366 8.89131683 -5 10 C-5.66 9.34 -6.32 8.68 -7 8 C-6.67 7.34 -6.34 6.68 -6 6 C-7.98 6.33 -9.96 6.66 -12 7 C-8.17819158 2.5991297 -5.52628901 1.19194469 0 0 Z M4.50390625 7.90234375 C6.01791016 7.91974609 6.01791016 7.91974609 7.5625 7.9375 C8.57441406 7.94652344 9.58632812 7.95554687 10.62890625 7.96484375 C11.80259766 7.98224609 11.80259766 7.98224609 13 8 C13.33 8.66 13.66 9.32 14 10 C12.98679687 9.96519531 12.98679687 9.96519531 11.953125 9.9296875 C11.06109375 9.91164063 10.1690625 9.89359375 9.25 9.875 C8.36828125 9.85179687 7.4865625 9.82859375 6.578125 9.8046875 C3.83409317 10.0125687 2.3537208 10.6269962 0 12 C-2 13 -4 14 -6 15 C-6 13.35 -6 11.7 -6 10 C-4.865625 9.855625 -3.73125 9.71125 -2.5625 9.5625 C0.71746535 9.04461073 1.45872846 8.02111043 4.50390625 7.90234375 Z " fill="#565656" transform="translate(80,2)"/>
<path d="M0 0 C1.51400391 0.01740234 1.51400391 0.01740234 3.05859375 0.03515625 C4.07050781 0.04417969 5.08242187 0.05320313 6.125 0.0625 C7.29869141 0.07990234 7.29869141 0.07990234 8.49609375 0.09765625 C7.83609375 0.75765625 7.17609375 1.41765625 6.49609375 2.09765625 C5.50609375 1.76765625 4.51609375 1.43765625 3.49609375 1.09765625 C3.82609375 2.08765625 4.15609375 3.07765625 4.49609375 4.09765625 C4.16609375 4.75765625 3.83609375 5.41765625 3.49609375 6.09765625 C4.48609375 6.42765625 5.47609375 6.75765625 6.49609375 7.09765625 C5.36171875 7.53078125 4.22734375 7.96390625 3.05859375 8.41015625 C1.88296875 8.96703125 0.70734375 9.52390625 -0.50390625 10.09765625 C-0.83390625 11.08765625 -1.16390625 12.07765625 -1.50390625 13.09765625 C-2.16390625 13.09765625 -2.82390625 13.09765625 -3.50390625 13.09765625 C-3.83390625 13.75765625 -4.16390625 14.41765625 -4.50390625 15.09765625 C-4.36364342 12.78481169 -4.21655067 10.47238034 -4.06640625 8.16015625 C-3.98519531 6.87238281 -3.90398437 5.58460938 -3.8203125 4.2578125 C-3.40731041 0.13289042 -3.40731041 0.13289042 0 0 Z " fill="#1D1D1D" transform="translate(87.50390625,143.90234375)"/>
<path d="M0 0 C0 0.66 0 1.32 0 2 C-3.66305234 2.74926071 -6.42355152 3.2380014 -10 2 C-10 2.66 -10 3.32 -10 4 C-11.98 4.33 -13.96 4.66 -16 5 C-16 4.67 -16 4.34 -16 4 C-17.65 3.67 -19.3 3.34 -21 3 C-16.7283119 -2.87357114 -5.64706161 -3.76470774 0 0 Z " fill="#363636" transform="translate(120,94)"/>
<path d="M0 0 C0.99 0.33 1.98 0.66 3 1 C2.34 1 1.68 1 1 1 C1 1.66 1 2.32 1 3 C0.34 3 -0.32 3 -1 3 C-1 3.66 -1 4.32 -1 5 C-1.99 5.495 -1.99 5.495 -3 6 C-3 6.66 -3 7.32 -3 8 C-2.34 8 -1.68 8 -1 8 C-1 8.66 -1 9.32 -1 10 C-2.65 10 -4.3 10 -6 10 C-6 9.34 -6 8.68 -6 8 C-8.31 8.33 -10.62 8.66 -13 9 C-13 7.02 -13 5.04 -13 3 C-11.96939453 2.92652344 -11.96939453 2.92652344 -10.91796875 2.8515625 C-9.56638672 2.73941406 -9.56638672 2.73941406 -8.1875 2.625 C-7.29417969 2.55539063 -6.40085937 2.48578125 -5.48046875 2.4140625 C-2.75601501 2.13354964 -2.75601501 2.13354964 0 0 Z " fill="#181817" transform="translate(72,132)"/>
<path d="M0 0 C6.02900687 0.51241107 12.02004643 1.069785 18 2 C17.67 2.66 17.34 3.32 17 4 C16.34 4 15.68 4 15 4 C14.67 4.99 14.34 5.98 14 7 C13.38511719 6.91621094 12.77023438 6.83242187 12.13671875 6.74609375 C11.32847656 6.64425781 10.52023438 6.54242187 9.6875 6.4375 C8.88699219 6.33308594 8.08648437 6.22867187 7.26171875 6.12109375 C4.83182884 5.85244822 4.83182884 5.85244822 2 7 C2 5.68 2 4.36 2 3 C1.34 3 0.68 3 0 3 C0 2.01 0 1.02 0 0 Z " fill="#272727" transform="translate(82,2)"/>
<path d="M0 0 C0.66 0 1.32 0 2 0 C1.57811541 1.8161982 1.13700835 3.62794073 0.6875 5.4375 C0.44386719 6.44683594 0.20023438 7.45617187 -0.05078125 8.49609375 C-0.36402344 9.32238281 -0.67726563 10.14867187 -1 11 C-1.99 11.33 -2.98 11.66 -4 12 C-3.67 13.32 -3.34 14.64 -3 16 C-1.68 16 -0.36 16 1 16 C2 19 2 19 1 22 C-1.5625 23.1875 -1.5625 23.1875 -4 24 C-4.93619813 20.84493858 -5.1057123 18.03413498 -5.0625 14.75 C-5.05347656 13.85796875 -5.04445312 12.9659375 -5.03515625 12.046875 C-5.02355469 11.37140625 -5.01195312 10.6959375 -5 10 C-4.34 10 -3.68 10 -3 10 C-3 9.34 -3 8.68 -3 8 C-2.34 8 -1.68 8 -1 8 C-1 7.34 -1 6.68 -1 6 C-1.99 5.67 -2.98 5.34 -4 5 C-2.71937515 3.2925002 -1.38232443 1.62626404 0 0 Z " fill="#4B4A4A" transform="translate(40,142)"/>
<path d="M0 0 C1.32 0.33 2.64 0.66 4 1 C1.95107207 6.80529581 -0.12096095 9.28768768 -5 13 C-5.33 13.66 -5.66 14.32 -6 15 C-7.32 14.67 -8.64 14.34 -10 14 C-8.59808647 11.00745382 -6.96632511 8.4045389 -5 5.75 C-4.484375 5.04359375 -3.96875 4.3371875 -3.4375 3.609375 C-2.963125 3.07828125 -2.48875 2.5471875 -2 2 C-1.34 2 -0.68 2 0 2 C0 1.34 0 0.68 0 0 Z " fill="#3C3C3B" transform="translate(75,67)"/>
<path d="M0 0 C1.32 0.33 2.64 0.66 4 1 C4 1.66 4 2.32 4 3 C5.32 3 6.64 3 8 3 C8.268125 4.134375 8.53625 5.26875 8.8125 6.4375 C9.204375 7.613125 9.59625 8.78875 10 10 C10.99 10.33 11.98 10.66 13 11 C13 11.99 13 12.98 13 14 C12.01 14.66 11.02 15.32 10 16 C10.495 16.598125 10.99 17.19625 11.5 17.8125 C13 20 13 20 13 23 C12.01 23 11.02 23 10 23 C10 22.34 10 21.68 10 21 C9.34 21 8.68 21 8 21 C7.875 14.25 7.875 14.25 9 12 C7.68 12 6.36 12 5 12 C5.66 10.02 6.32 8.04 7 6 C6.34 6 5.68 6 5 6 C5 5.34 5 4.68 5 4 C4.34 4 3.68 4 3 4 C3 3.34 3 2.68 3 2 C2.01 2 1.02 2 0 2 C0 1.34 0 0.68 0 0 Z " fill="#1A1A1A" transform="translate(161,52)"/>
<path d="M0 0 C0.66 0.33 1.32 0.66 2 1 C-2.35583002 6.02595772 -6.27422806 9.06280227 -13 10 C-17.32791109 9.65619398 -20.87928345 9.12071655 -24 6 C-22.78376953 6.10441406 -22.78376953 6.10441406 -21.54296875 6.2109375 C-13.63505329 6.59758762 -8.8112504 5.51941644 -2.14453125 1.21484375 C-1.43683594 0.81394531 -0.72914062 0.41304688 0 0 Z " fill="#484848" transform="translate(97,97)"/>
<path d="M0 0 C1.32 0.33 2.64 0.66 4 1 C4 2.32 4 3.64 4 5 C5.65 4.67 7.3 4.34 9 4 C9.66 5.32 10.32 6.64 11 8 C7.34543185 8.75241109 3.68266103 9.40049704 0 10 C-0.33 9.01 -0.66 8.02 -1 7 C-1.66 6.67 -2.32 6.34 -3 6 C-3 5.34 -3 4.68 -3 4 C-2.34 3.67 -1.68 3.34 -1 3 C-0.67 2.01 -0.34 1.02 0 0 Z " fill="#080808" transform="translate(186,89)"/>
<path d="M0 0 C0.33 0.99 0.66 1.98 1 3 C1.99 3.33 2.98 3.66 4 4 C0.7 7.3 -2.6 10.6 -6 14 C-7.32 12.68 -8.64 11.36 -10 10 C-7.76533179 6.58919063 -5.47679327 5.05041654 -2 3 C-1.34 2.01 -0.68 1.02 0 0 Z " fill="#5D5D5C" transform="translate(100,43)"/>
<path d="M0 0 C3.31652445 3.13725286 5.69222559 6.08681731 8 10 C9.29579647 11.36984198 10.61992749 12.7151049 12 14 C10.68 14.33 9.36 14.66 8 15 C7.67 14.01 7.34 13.02 7 12 C6.01 11.67 5.02 11.34 4 11 C4.6496875 12.0828125 4.6496875 12.0828125 5.3125 13.1875 C7.65625 17.09375 7.65625 17.09375 10 21 C7.07176325 20.34928072 5.41562022 19.65065146 3.77734375 17.0859375 C2.78790585 15.07869072 1.85994693 13.0657943 1 11 C2.32 10.67 3.64 10.34 5 10 C3.33075929 6.95865509 3.33075929 6.95865509 1 6 C0.375 2.9375 0.375 2.9375 0 0 Z " fill="#4F4F4E" transform="translate(169,56)"/>
<path d="M0 0 C0.33 0 0.66 0 1 0 C1 1.98 1 3.96 1 6 C-0.98 6.33 -2.96 6.66 -5 7 C-5 7.66 -5 8.32 -5 9 C-3.948125 8.814375 -2.89625 8.62875 -1.8125 8.4375 C1.65249139 8.03987804 3.69664298 8.13069552 7 9 C7.928125 9.185625 8.85625 9.37125 9.8125 9.5625 C10.534375 9.706875 11.25625 9.85125 12 10 C10 12 10 12 7.1796875 12.1953125 C6.08914062 12.17210937 4.99859375 12.14890625 3.875 12.125 C2.77929688 12.10695312 1.68359375 12.08890625 0.5546875 12.0703125 C-0.28835937 12.04710937 -1.13140625 12.02390625 -2 12 C-2 11.34 -2 10.68 -2 10 C-3.65 9.67 -5.3 9.34 -7 9 C-7 8.34 -7 7.68 -7 7 C-7.99 6.67 -8.98 6.34 -10 6 C-7.03 5.34 -4.06 4.68 -1 4 C-0.67 2.68 -0.34 1.36 0 0 Z " fill="#414140" transform="translate(102,173)"/>
<path d="M0 0 C-0.33 0.99 -0.66 1.98 -1 3 C-1.66 3 -2.32 3 -3 3 C-4.88391785 6.26545761 -5.49287967 9.28111761 -6 13 C-7.98 12.34 -9.96 11.68 -12 11 C-11.67 10.01 -11.34 9.02 -11 8 C-10.34 8 -9.68 8 -9 8 C-8.896875 7.05125 -8.79375 6.1025 -8.6875 5.125 C-7.5463369 -0.062105 -4.75621621 -0.25709277 0 0 Z " fill="#151615" transform="translate(131,117)"/>
<path d="M0 0 C0 3.10551666 -0.5393715 4.35261084 -2 7 C-1.67 6.67 -1.34 6.34 -1 6 C0.99172182 5.30899447 2.99161804 4.64097297 5 4 C3.98330284 6.72451991 3.3484301 7.80878836 0.7578125 9.23046875 C-0.54542969 9.70419922 -0.54542969 9.70419922 -1.875 10.1875 C-3.17050781 10.67283203 -3.17050781 10.67283203 -4.4921875 11.16796875 C-6.65097142 11.8842008 -8.78483403 12.48999667 -11 13 C-9.55922954 9.63820226 -7.75249979 7.40843732 -5 5 C-4.34 5 -3.68 5 -3 5 C-2.690625 4.360625 -2.38125 3.72125 -2.0625 3.0625 C-1 1 -1 1 0 0 Z " fill="#555555" transform="translate(43,30)"/>
<path d="M0 0 C1.32 0 2.64 0 4 0 C5.25541557 3.76624671 4.37061958 5.37188934 3 9 C0.69 9 -1.62 9 -4 9 C-4 8.01 -4 7.02 -4 6 C-6.31 5.67 -8.62 5.34 -11 5 C-10.67 3.68 -10.34 2.36 -10 1 C-9.67 1.99 -9.34 2.98 -9 4 C-3.555 3.505 -3.555 3.505 2 3 C1.34 2.01 0.68 1.02 0 0 Z " fill="#454544" transform="translate(55,135)"/>
<path d="M0 0 C0 3.90838866 -1.50567876 5.11594107 -4 8 C-2.02 7.34 -0.04 6.68 2 6 C1.835 6.556875 1.67 7.11375 1.5 7.6875 C0.95958649 10.18691249 0.92917935 12.45045662 1 15 C-1 12 -1 12 -1 10 C-1.66 10 -2.32 10 -3 10 C-3.33 12.31 -3.66 14.62 -4 17 C-6.49040942 14.50959058 -6.32391014 13.56845643 -6.375 10.125 C-6.31332098 6.56303656 -6.27475404 5.37549719 -4.125 2.4375 C-2 1 -2 1 0 0 Z " fill="#363535" transform="translate(48,118)"/>
<path d="M0 0 C2.475 0.495 2.475 0.495 5 1 C5.33 2.32 5.66 3.64 6 5 C10.95 5 15.9 5 21 5 C21.33 5.99 21.66 6.98 22 8 C16.354818 9.05847163 10.35825136 10.00622808 5.1953125 6.921875 C2.49861635 4.7800015 1.09857729 3.29573188 0 0 Z " fill="#343433" transform="translate(34,179)"/>
<path d="M0 0 C0.33 0 0.66 0 1 0 C0.45136137 6.7857936 -0.54267938 13.35009036 -2 20 C-5.2571802 16.06861853 -5.8710605 13.00880346 -6 8 C-5.5625 5 -5.5625 5 -5 3 C-3 5 -3 5 -3 9 C-2.34 9 -1.68 9 -1 9 C-0.67 6.03 -0.34 3.06 0 0 Z " fill="#252524" transform="translate(165,125)"/>
<path d="M0 0 C0.185625 0.639375 0.37125 1.27875 0.5625 1.9375 C1.94246056 4.42126213 1.94246056 4.42126213 5.625 4.75 C6.73875 4.8325 7.8525 4.915 9 5 C9 5.33 9 5.66 9 6 C6.69 6.33 4.38 6.66 2 7 C2 7.99 2 8.98 2 10 C3.32 10.33 4.64 10.66 6 11 C-0.625 11.125 -0.625 11.125 -4 10 C-5.1875 6.4375 -5.1875 6.4375 -6 3 C-3.83125748 3.50603992 -2.00032373 3.99983813 0 5 C0 3.35 0 1.7 0 0 Z " fill="#353535" transform="translate(125,125)"/>
<path d="M0 0 C2.75 1.8125 2.75 1.8125 3.75 4.8125 C0.56365031 6.49939101 -0.90036225 6.87973803 -4.5 6.1875 C-7.25 4.8125 -7.25 4.8125 -8.125 2.6875 C-8.16625 2.06875 -8.2075 1.45 -8.25 0.8125 C-4.84911586 -1.08799408 -3.74764621 -1.36933227 0 0 Z " fill="#030303" transform="translate(9.25,99.1875)"/>
<path d="M0 0 C0 0.66 0 1.32 0 2 C-2.95803435 2.19421438 -5.91620163 2.38066186 -8.875 2.5625 C-9.71675781 2.61857422 -10.55851562 2.67464844 -11.42578125 2.73242188 C-12.23144531 2.78076172 -13.03710938 2.82910156 -13.8671875 2.87890625 C-14.98262939 2.94960327 -14.98262939 2.94960327 -16.12060547 3.02172852 C-18 3 -18 3 -20 2 C-20.33 2.99 -20.66 3.98 -21 5 C-21.33 4.34 -21.66 3.68 -22 3 C-23.65 3.33 -25.3 3.66 -27 4 C-23.56701796 0.87521585 -20.60963248 0.38028495 -16.0625 -0.1875 C-14.85722656 -0.34605469 -13.65195312 -0.50460938 -12.41015625 -0.66796875 C-8.01555299 -1.09585108 -4.25025889 -1.25933597 0 0 Z " fill="#4D4D4C" transform="translate(56,97)"/>
<path d="M0 0 C0.66 0.33 1.32 0.66 2 1 C-0.22345803 4.33518704 -1.00414295 4.63152524 -4.625 5.9375 C-9.2654705 7.68442131 -13.59958354 9.71830257 -18 12 C-18 11.34 -18 10.68 -18 10 C-17.34 10 -16.68 10 -16 10 C-15.773125 9.360625 -15.54625 8.72125 -15.3125 8.0625 C-14 6 -14 6 -11.375 5.25 C-10.199375 5.12625 -10.199375 5.12625 -9 5 C-8.67 4.01 -8.34 3.02 -8 2 C-6.2984375 1.7834375 -6.2984375 1.7834375 -4.5625 1.5625 C-1.19222799 1.38828522 -1.19222799 1.38828522 0 0 Z " fill="#1F1F1F" transform="translate(110,99)"/>
<path d="M0 0 C0.66 0.33 1.32 0.66 2 1 C1.67 2.65 1.34 4.3 1 6 C0.236875 5.79375 -0.52625 5.5875 -1.3125 5.375 C-4.21885944 4.66608797 -4.21885944 4.66608797 -7 7 C-7 7.99 -7 8.98 -7 10 C-8.32 10 -9.64 10 -11 10 C-10.67 7.36 -10.34 4.72 -10 2 C-7 1 -7 1 -5 1.5625 C-4.01 1.7790625 -4.01 1.7790625 -3 2 C-2.01 1.34 -1.02 0.68 0 0 Z " fill="#444443" transform="translate(112,33)"/>
<path d="M0 0 C0.66 0.99 1.32 1.98 2 3 C2 2.34 2 1.68 2 1 C2.66 1 3.32 1 4 1 C2.70268494 3.89401051 1.62285333 6.16400267 -1 8 C-3.67931112 8.55177892 -6.26287955 8.77564586 -9 9 C-8.06725891 7.87105124 -7.12859878 6.74699124 -6.1875 5.625 C-5.66542969 4.99851562 -5.14335938 4.37203125 -4.60546875 3.7265625 C-3 2 -3 2 0 0 Z " fill="#555555" transform="translate(71,50)"/>
<path d="M0 0 C3 3 3 3 3.328125 6.46875 C3.31752176 7.81271049 3.29094106 9.1566214 3.25 10.5 C3.24226562 11.51513672 3.24226562 11.51513672 3.234375 12.55078125 C3.18595218 15.61957737 2.97638936 18.07083192 2 21 C1.34 20.67 0.68 20.34 0 20 C0 13.4 0 6.8 0 0 Z " fill="#454545" transform="translate(152,133)"/>
<path d="M0 0 C-0.33 0.99 -0.66 1.98 -1 3 C-2.98 3 -4.96 3 -7 3 C-6.34 3.33 -5.68 3.66 -5 4 C-5 4.66 -5 5.32 -5 6 C-6.65 6.33 -8.3 6.66 -10 7 C-10.33 5.68 -10.66 4.36 -11 3 C-11.33 3.66 -11.66 4.32 -12 5 C-12.99 4.34 -13.98 3.68 -15 3 C-14.67 2.34 -14.34 1.68 -14 1 C-11.6015625 0.5859375 -11.6015625 0.5859375 -8.625 0.375 C-7.15933594 0.26285156 -7.15933594 0.26285156 -5.6640625 0.1484375 C-3.77831835 0.04336671 -1.88866907 0 0 0 Z " fill="#414140" transform="translate(29,101)"/>
<path d="M0 0 C7.425 0.99 7.425 0.99 15 2 C14.67 2.66 14.34 3.32 14 4 C13.34 4 12.68 4 12 4 C12.33 4.99 12.66 5.98 13 7 C10.36 6.67 7.72 6.34 5 6 C5 5.01 5 4.02 5 3 C3.35 2.67 1.7 2.34 0 2 C0 1.34 0 0.68 0 0 Z " fill="#181818" transform="translate(121,97)"/>
<path d="M0 0 C0.66 0 1.32 0 2 0 C2.33 1.98 2.66 3.96 3 6 C2.34 6 1.68 6 1 6 C1 6.66 1 7.32 1 8 C1.66 8.33 2.32 8.66 3 9 C2.195625 9.12375 1.39125 9.2475 0.5625 9.375 C-0.283125 9.58125 -1.12875 9.7875 -2 10 C-2.33 10.66 -2.66 11.32 -3 12 C-3.66 11.67 -4.32 11.34 -5 11 C-5.1875 8.625 -5.1875 8.625 -5 6 C-2 4 -2 4 1 4 C0.67 2.68 0.34 1.36 0 0 Z " fill="#343433" transform="translate(182,87)"/>
<path d="M0 0 C0.556875 0.226875 1.11375 0.45375 1.6875 0.6875 C0.6975 2.1725 0.6975 2.1725 -0.3125 3.6875 C-0.9725 3.6875 -1.6325 3.6875 -2.3125 3.6875 C-2.7146875 4.863125 -2.7146875 4.863125 -3.125 6.0625 C-4.3125 8.6875 -4.3125 8.6875 -7.3125 10.6875 C-8.4375 4.9375 -8.4375 4.9375 -7.3125 2.6875 C-3.0625 -0.41385135 -3.0625 -0.41385135 0 0 Z " fill="#141414" transform="translate(39.3125,40.3125)"/>
<path d="M0 0 C2.625 0.375 2.625 0.375 5 1 C5 3 5 3 3.609375 4.5078125 C2.68898438 5.30832031 2.68898438 5.30832031 1.75 6.125 C1.14671875 6.66382813 0.5434375 7.20265625 -0.078125 7.7578125 C-2 9 -2 9 -6 9 C-6 8.01 -6 7.02 -6 6 C-5.01 5.67 -4.02 5.34 -3 5 C-2.67 4.01 -2.34 3.02 -2 2 C-1.34 1.34 -0.68 0.68 0 0 Z " fill="#181818" transform="translate(107,37)"/>
<path d="M0 0 C-3 9 -3 9 -6 11 C-6 7 -6 7 -5 5 C-5.66 5 -6.32 5 -7 5 C-7 3.68 -7 2.36 -7 1 C-4.53721199 -0.231394 -2.7204945 -0.07159196 0 0 Z " fill="#0D0D0D" transform="translate(38,117)"/>
<path d="M0 0 C0.33 1.32 0.66 2.64 1 4 C0.34 4 -0.32 4 -1 4 C-0.67 5.32 -0.34 6.64 0 8 C0.763125 7.95875 1.52625 7.9175 2.3125 7.875 C5 8 5 8 8 10 C7.67 11.32 7.34 12.64 7 14 C7.66 14 8.32 14 9 14 C8.67 14.66 8.34 15.32 8 16 C3.2 13.53846154 3.2 13.53846154 2.1875 10.8125 C2.0946875 9.9153125 2.0946875 9.9153125 2 9 C1.01 9 0.02 9 -1 9 C-1.33 7.02 -1.66 5.04 -2 3 C-1.34 3 -0.68 3 0 3 C0 2.01 0 1.02 0 0 Z " fill="#535252" transform="translate(2,96)"/>
<path d="M0 0 C-1.52708963 3.43595166 -3.59927045 6.11912454 -6 9 C-6.99 8.67 -7.98 8.34 -9 8 C-8.8125 5.6875 -8.8125 5.6875 -8 3 C-5.10451959 0.79029126 -3.66842255 0 0 0 Z " fill="#4A4949" transform="translate(58,78)"/>
<path d="M0 0 C0 1.32 0 2.64 0 4 C-2.875 6.625 -2.875 6.625 -6 9 C-6.66 9.66 -7.32 10.32 -8 11 C-8.33 9.68 -8.66 8.36 -9 7 C-8.01 6.34 -7.02 5.68 -6 5 C-6.66 4.34 -7.32 3.68 -8 3 C-4.93882432 0.37613513 -4.26826873 0 0 0 Z " fill="#3B3A3A" transform="translate(77,159)"/>
<path d="M0 0 C0.99 0.33 1.98 0.66 3 1 C2.67 3.31 2.34 5.62 2 8 C1.01 8 0.02 8 -1 8 C-1 7.34 -1 6.68 -1 6 C-2.32 5.67 -3.64 5.34 -5 5 C-5.33 3.68 -5.66 2.36 -6 1 C-4.68 1 -3.36 1 -2 1 C-2 1.99 -2 2.98 -2 4 C-1.34 4 -0.68 4 0 4 C0 2.68 0 1.36 0 0 Z " fill="#212121" transform="translate(159,105)"/>
<path d="M0 0 C1.98 0.495 1.98 0.495 4 1 C3.32829194 4.8063457 2.27253436 8.35206816 1 12 C0.34 12 -0.32 12 -1 12 C-0.67 8.04 -0.34 4.08 0 0 Z " fill="#0B0C0C" transform="translate(159,150)"/>
<path d="M0 0 C-0.99 1.32 -1.98 2.64 -3 4 C-3.99 3.67 -4.98 3.34 -6 3 C-7.1446875 4.485 -7.1446875 4.485 -8.3125 6 C-9.61328125 7.6875 -9.61328125 7.6875 -11 9 C-11.99 9 -12.98 9 -14 9 C-12.55499943 4.66499828 -9.70657677 2.13771785 -5.9375 -0.375 C-3.58376417 -1.13426962 -2.29943113 -0.8212254 0 0 Z " fill="#353535" transform="translate(75,8)"/>
<path d="M0 0 C-0.33 0.99 -0.66 1.98 -1 3 C0.32 3.66 1.64 4.32 3 5 C-2.4296922 5.70060545 -7.52365264 6 -13 6 C-9.40464172 2.97989905 -4.81374718 0 0 0 Z " fill="#373736" transform="translate(57,169)"/>
<path d="M0 0 C4.75 -0.125 4.75 -0.125 7 1 C7.99 1 8.98 1 10 1 C9.67 1.99 9.34 2.98 9 4 C5.26513121 4.5745952 1.78706732 5 -2 5 C-1.67 4.34 -1.34 3.68 -1 3 C-0.34 3 0.32 3 1 3 C0.67 2.01 0.34 1.02 0 0 Z " fill="#050606" transform="translate(100,97)"/>
<path d="M0 0 C0.99 0.33 1.98 0.66 3 1 C3 1.66 3 2.32 3 3 C1.34634594 4.02137457 -0.32376502 5.01612294 -2 6 C-4.05629871 7.60843974 -6.02012519 9.29638679 -8 11 C-7.91601729 8.14458787 -7.39043615 6.43760967 -5.48046875 4.296875 C-2.00244352 1.16299122 -2.00244352 1.16299122 0 0 Z " fill="#40403F" transform="translate(104,53)"/>
<path d="M0 0 C-0.93972656 0.22042969 -0.93972656 0.22042969 -1.8984375 0.4453125 C-4.40717493 1.13383034 -6.6700166 1.83713809 -9 3 C-10.68036511 6.02884844 -10.68036511 6.02884844 -11 9 C-11.66 9 -12.32 9 -13 9 C-13.33 9.66 -13.66 10.32 -14 11 C-13.76284882 6.88937957 -13.63415913 4.66939019 -10.75 1.625 C-6.78237466 -0.71950588 -4.41156023 -1.47052008 0 0 Z " fill="#434242" transform="translate(133,116)"/>
<path d="M0 0 C2.00720923 0.28674418 4.0085944 0.61866701 6 1 C6.33 3.31 6.66 5.62 7 8 C5.68 7.67 4.36 7.34 3 7 C3 6.01 3 5.02 3 4 C2.34 4 1.68 4 1 4 C1 3.34 1 2.68 1 2 C0.34 1.67 -0.32 1.34 -1 1 C-0.67 0.67 -0.34 0.34 0 0 Z " fill="#020303" transform="translate(69,120)"/>
<path d="M0 0 C0.33 0.99 0.66 1.98 1 3 C1.85464844 3.04898438 2.70929687 3.09796875 3.58984375 3.1484375 C5.24693359 3.26058594 5.24693359 3.26058594 6.9375 3.375 C8.03964844 3.44460937 9.14179687 3.51421875 10.27734375 3.5859375 C11.62505859 3.79089844 11.62505859 3.79089844 13 4 C13.33 4.66 13.66 5.32 14 6 C8.06 6.495 8.06 6.495 2 7 C0 4 0 4 0 0 Z " fill="#363636" transform="translate(59,97)"/>
<path d="M0 0 C0.66 0.33 1.32 0.66 2 1 C-4.14285714 7.57142857 -4.14285714 7.57142857 -9 9 C-9 7.68 -9 6.36 -9 5 C-7.54735962 4.1361871 -6.0876837 3.28419546 -4.625 2.4375 C-3.40683594 1.72400391 -3.40683594 1.72400391 -2.1640625 0.99609375 C-1.44992188 0.66738281 -0.73578125 0.33867188 0 0 Z " fill="#373737" transform="translate(97,97)"/>
<path d="M0 0 C0 0.99 0 1.98 0 3 C2.31 2.34 4.62 1.68 7 1 C7 1.66 7 2.32 7 3 C4.65887549 4.44977894 3.4203071 5.04314411 0.640625 4.7578125 C-0.54273438 4.44457031 -0.54273438 4.44457031 -1.75 4.125 C-2.54921875 3.92132813 -3.3484375 3.71765625 -4.171875 3.5078125 C-5.07679688 3.25644531 -5.07679688 3.25644531 -6 3 C-6 2.34 -6 1.68 -6 1 C-4 0 -4 0 0 0 Z " fill="#6A6A6A" transform="translate(186,96)"/>
<path d="M0 0 C0.99 0 1.98 0 3 0 C3.66 2.31 4.32 4.62 5 7 C3.68 7.33 2.36 7.66 1 8 C0.01 6.68 -0.98 5.36 -2 4 C-1.34 2.68 -0.68 1.36 0 0 Z " fill="#6E6E6E" transform="translate(31,87)"/>
<path d="M0 0 C0.66 0.33 1.32 0.66 2 1 C2 1.66 2 2.32 2 3 C1.01 3 0.02 3 -1 3 C-1 4.65 -1 6.3 -1 8 C-3.31 8 -5.62 8 -8 8 C-6.74157232 4.22471696 -5.37506571 3.89332955 -2 2 C-1.34 1.34 -0.68 0.68 0 0 Z " fill="#222222" transform="translate(63,81)"/>
<path d="M0 0 C1.50539661 0.94983358 3.00420347 1.91011891 4.5 2.875 C5.3353125 3.40867188 6.170625 3.94234375 7.03125 4.4921875 C7.6809375 4.98976563 8.330625 5.48734375 9 6 C9 6.66 9 7.32 9 8 C8.01 8 7.02 8 6 8 C5.67 7.34 5.34 6.68 5 6 C2.36 6 -0.28 6 -3 6 C-2.67 4.68 -2.34 3.36 -2 2 C-1.34 2 -0.68 2 0 2 C0 1.34 0 0.68 0 0 Z " fill="#5A5A5A" transform="translate(159,47)"/>
<path d="M0 0 C0.66 0.33 1.32 0.66 2 1 C1.85795259 2.58367747 1.71119847 4.16693318 1.5625 5.75 C1.48128906 6.63171875 1.40007812 7.5134375 1.31640625 8.421875 C1.03761535 10.69350452 0.61209423 12.79851823 0 15 C-0.66 15 -1.32 15 -2 15 C-1.85930804 12.87465341 -1.71229079 10.74972471 -1.5625 8.625 C-1.48128906 7.44164063 -1.40007812 6.25828125 -1.31640625 5.0390625 C-1 2 -1 2 0 0 Z " fill="#050606" transform="translate(164,119)"/>
<path d="M0 0 C0.99 0.66 1.98 1.32 3 2 C3 2.99 3 3.98 3 5 C3.66 5 4.32 5 5 5 C4.67 5.99 4.34 6.98 4 8 C3.01 7.01 2.02 6.02 1 5 C1.33 4.34 1.66 3.68 2 3 C-0.31 3.66 -2.62 4.32 -5 5 C-5 4.34 -5 3.68 -5 3 C-5.66 3 -6.32 3 -7 3 C-7 2.34 -7 1.68 -7 1 C-4.47454232 -0.26272884 -2.80127043 -0.20497101 0 0 Z " fill="#0E0E0E" transform="translate(148,105)"/>
<path d="M0 0 C3.75561867 0.32657554 6.73602552 1.1169378 10 3 C10 3.66 10 4.32 10 5 C5.12335991 5.34833144 2.22949995 4.41685712 -2 2 C-1.34 1.34 -0.68 0.68 0 0 Z " fill="#3B3B3B" transform="translate(54,105)"/>
<path d="M0 0 C1.32 0.33 2.64 0.66 4 1 C3.34 1 2.68 1 2 1 C1.773125 1.5775 1.54625 2.155 1.3125 2.75 C-0.33038023 5.5663661 -2.39533227 7.08077114 -5 9 C-6.125 3.25 -6.125 3.25 -5 1 C-3.35 1.33 -1.7 1.66 0 2 C0 1.34 0 0.68 0 0 Z " fill="#585757" transform="translate(83,63)"/>
<path d="M0 0 C0.66 0 1.32 0 2 0 C2 0.66 2 1.32 2 2 C5.465 1.505 5.465 1.505 9 1 C9.66 2.98 10.32 4.96 11 7 C10.01 6.34 9.02 5.68 8 5 C6.11845117 4.55888435 4.21937362 4.1890733 2.3125 3.875 C1.31863281 3.70742188 0.32476562 3.53984375 -0.69921875 3.3671875 C-1.45847656 3.24601562 -2.21773438 3.12484375 -3 3 C-2.01 2.67 -1.02 2.34 0 2 C0 1.34 0 0.68 0 0 Z " fill="#464645" transform="translate(102,13)"/>
<path d="M0 0 C0.33 0.99 0.66 1.98 1 3 C-3.94367454 4.20577428 -7.20862412 3.6290678 -12 2 C-12 1.67 -12 1.34 -12 1 C-7.9472484 0.01751476 -4.16138263 -0.08159574 0 0 Z " fill="#111111" transform="translate(119,93)"/>
<path d="M0 0 C0.66 0 1.32 0 2 0 C2 2.31 2 4.62 2 7 C1.01 7.33 0.02 7.66 -1 8 C-1.66 7.67 -2.32 7.34 -3 7 C-2.25 2.25 -2.25 2.25 0 0 Z " fill="#4D4D4C" transform="translate(21,84)"/>
<path d="M0 0 C0.66 0.33 1.32 0.66 2 1 C-0.66775205 4.55700273 -3.2825095 7.521673 -7 10 C-7.99 9.67 -8.98 9.34 -10 9 C-6.83047153 5.73991357 -3.60062011 2.77762123 0 0 Z " fill="#6D6D6B" transform="translate(44,68)"/>
<path d="M0 0 C0.98484375 0.10183594 1.9696875 0.20367187 2.984375 0.30859375 C4.10585937 0.43427734 4.10585937 0.43427734 5.25 0.5625 C4.92 1.2225 4.59 1.8825 4.25 2.5625 C-0.37 2.5625 -4.99 2.5625 -9.75 2.5625 C-9.75 1.9025 -9.75 1.2425 -9.75 0.5625 C-6.33860997 -0.53401823 -3.54344419 -0.37965473 0 0 Z " fill="#393939" transform="translate(125.75,185.4375)"/>
<path d="M0 0 C3.63 0.33 7.26 0.66 11 1 C8.3144406 3.6855594 5.62378672 4.06049974 2 5 C2 4.34 2 3.68 2 3 C1.34 3 0.68 3 0 3 C0 2.01 0 1.02 0 0 Z " fill="#363535" transform="translate(82,2)"/>
<path d="M0 0 C0 1.98 0 3.96 0 6 C-1.65 6.33 -3.3 6.66 -5 7 C-4.625 4.0625 -4.625 4.0625 -4 1 C-2 0 -2 0 0 0 Z " fill="#060607" transform="translate(101,5)"/>
<path d="M0 0 C2.26171875 0.14453125 2.26171875 0.14453125 4.6875 0.8125 C5.49574219 1.02519531 6.30398437 1.23789063 7.13671875 1.45703125 C8.05904297 1.72580078 8.05904297 1.72580078 9 2 C9 2.99 9 3.98 9 5 C3.06 4.01 3.06 4.01 -3 3 C-2.01 2.01 -1.02 1.02 0 0 Z " fill="#191919" transform="translate(87,7)"/>
<path d="M0 0 C-0.33 0.99 -0.66 1.98 -1 3 C-1.66 3 -2.32 3 -3 3 C-3 3.66 -3 4.32 -3 5 C-4.65 4.67 -6.3 4.34 -8 4 C-7.67 3.01 -7.34 2.02 -7 1 C-4.53721199 -0.231394 -2.7204945 -0.07159196 0 0 Z " fill="#040505" transform="translate(131,117)"/>
<path d="M0 0 C2.97 0.33 5.94 0.66 9 1 C9 1.99 9 2.98 9 4 C6.69 4 4.38 4 2 4 C2 3.34 2 2.68 2 2 C1.34 2 0.68 2 0 2 C0 1.34 0 0.68 0 0 Z " fill="#181818" transform="translate(136,100)"/>
<path d="M0 0 C3.6875 0.875 3.6875 0.875 7 2 C6.67 3.32 6.34 4.64 6 6 C1.545 4.02 1.545 4.02 -3 2 C-2.01 1.34 -1.02 0.68 0 0 Z " fill="#434343" transform="translate(116,101)"/>
<path d="M0 0 C2.31 0.33 4.62 0.66 7 1 C6.67 1.99 6.34 2.98 6 4 C5.01 3.67 4.02 3.34 3 3 C3 3.99 3 4.98 3 6 C2.01 6 1.02 6 0 6 C0 4.02 0 2.04 0 0 Z " fill="#0F0F0F" transform="translate(59,135)"/>
<path d="M0 0 C0.99 0 1.98 0 3 0 C3 0.66 3 1.32 3 2 C3.66 2 4.32 2 5 2 C5 2.66 5 3.32 5 4 C5.66 4 6.32 4 7 4 C6.67 5.32 6.34 6.64 6 8 C3.44288177 6.72144088 1.88638659 5.13790481 0 3 C0 2.01 0 1.02 0 0 Z " fill="#323232" transform="translate(161,54)"/>
<path d="M0 0 C2.31 0 4.62 0 7 0 C7.33 1.32 7.66 2.64 8 4 C5 5 5 5 2.875 4.25 C1 3 1 3 0 0 Z " fill="#1B1B1B" transform="translate(63,108)"/>
<path d="M0 0 C2.64 0.33 5.28 0.66 8 1 C8 1.66 8 2.32 8 3 C6.25181409 3.22304441 4.50129677 3.4278645 2.75 3.625 C1.77546875 3.74101563 0.8009375 3.85703125 -0.203125 3.9765625 C-3.13429393 4.00112537 -4.54528964 3.5312717 -7 2 C-4.69 2 -2.38 2 0 2 C0 1.34 0 0.68 0 0 Z " fill="#2B2B2A" transform="translate(48,96)"/>
<path d="M0 0 C1.32 0.33 2.64 0.66 4 1 C4 1.99 4 2.98 4 4 C5.32 4 6.64 4 8 4 C7.67 4.99 7.34 5.98 7 7 C6.34 7 5.68 7 5 7 C5 6.34 5 5.68 5 5 C3.68 4.67 2.36 4.34 1 4 C0.67 2.68 0.34 1.36 0 0 Z " fill="#181918" transform="translate(173,67)"/>
<path d="M0 0 C2.475 0.495 2.475 0.495 5 1 C5.0825 1.61875 5.165 2.2375 5.25 2.875 C5.81258459 5.18437567 5.81258459 5.18437567 8.0625 6.25 C8.701875 6.4975 9.34125 6.745 10 7 C9.01 7.33 8.02 7.66 7 8 C1.29824561 3.89473684 1.29824561 3.89473684 0 0 Z " fill="#686868" transform="translate(34,179)"/>
<path d="M0 0 C1.65 0 3.3 0 5 0 C4.67 2.97 4.34 5.94 4 9 C3.34 8.34 2.68 7.68 2 7 C2 5.68 2 4.36 2 3 C1.34 3 0.68 3 0 3 C0 2.01 0 1.02 0 0 Z " fill="#151515" transform="translate(155,114)"/>
<path d="M0 0 C4.29 0 8.58 0 13 0 C11 2 11 2 7.875 2.125 C6.92625 2.08375 5.9775 2.0425 5 2 C5.33 2.99 5.66 3.98 6 5 C5.01 4.67 4.02 4.34 3 4 C3 3.01 3 2.02 3 1 C2.01 0.67 1.02 0.34 0 0 Z " fill="#5D5D5C" transform="translate(142,100)"/>
<path d="M0 0 C5.43806647 -0.36253776 5.43806647 -0.36253776 7.9375 1.25 C9 3 9 3 8.8125 5.0625 C8 7 8 7 6 9 C5.67 6.69 5.34 4.38 5 2 C3.35 2 1.7 2 0 2 C0 1.34 0 0.68 0 0 Z " fill="#767574" transform="translate(190,92)"/>
<path d="M0 0 C0.33 0.99 0.66 1.98 1 3 C1.99 3.33 2.98 3.66 4 4 C1.525 5.485 1.525 5.485 -1 7 C-1.99 6.34 -2.98 5.68 -4 5 C-2.68 3.35 -1.36 1.7 0 0 Z " fill="#474746" transform="translate(100,43)"/>
<path d="M0 0 C0.99 0 1.98 0 3 0 C3 1.32 3 2.64 3 4 C3.66 4 4.32 4 5 4 C5 4.99 5 5.98 5 7 C4.34 7 3.68 7 3 7 C2.34 6.01 1.68 5.02 1 4 C-1.56282742 3.27034634 -1.56282742 3.27034634 -4 3 C-3.34 2.67 -2.68 2.34 -2 2 C-1.34 2.33 -0.68 2.66 0 3 C0 2.01 0 1.02 0 0 Z " fill="#4B4B4A" transform="translate(29,171)"/>
<path d="M0 0 C-2.72478774 3.36591427 -6.06856792 4.44226276 -10 6 C-10 5.34 -10 4.68 -10 4 C-9.34 4 -8.68 4 -8 4 C-7.731875 3.360625 -7.46375 2.72125 -7.1875 2.0625 C-5.22591378 -1.34446554 -3.54735467 -1.18245156 0 0 Z " fill="#4D4C4C" transform="translate(102,105)"/>
<path d="M0 0 C0.8353125 0.556875 0.8353125 0.556875 1.6875 1.125 C1.6875 1.455 1.6875 1.785 1.6875 2.125 C-4.7475 2.62 -4.7475 2.62 -11.3125 3.125 C-2.88173077 -1.09038462 -2.88173077 -1.09038462 0 0 Z " fill="#4A4A49" transform="translate(173.3125,101.875)"/>
<path d="M0 0 C0.66 0.33 1.32 0.66 2 1 C1.01 3.31 0.02 5.62 -1 8 C-1.66 8 -2.32 8 -3 8 C-3.33 6.68 -3.66 5.36 -4 4 C-3.01 3.67 -2.02 3.34 -1 3 C-0.67 2.01 -0.34 1.02 0 0 Z " fill="#151615" transform="translate(77,67)"/>
<path d="M0 0 C0.66 0.99 1.32 1.98 2 3 C2.99 3.66 3.98 4.32 5 5 C3.68 6.32 2.36 7.64 1 9 C1.33 7.68 1.66 6.36 2 5 C0.35 5 -1.3 5 -3 5 C-2.01 3.35 -1.02 1.7 0 0 Z " fill="#4F4E4E" transform="translate(26,50)"/>
<path d="M0 0 C-0.33 1.65 -0.66 3.3 -1 5 C0.32 5.33 1.64 5.66 3 6 C1.02 6 -0.96 6 -3 6 C-3.33 4.35 -3.66 2.7 -4 1 C-2 0 -2 0 0 0 Z " fill="#1A1B1B" transform="translate(43,179)"/>
<path d="M0 0 C0.33 0.66 0.66 1.32 1 2 C3.02463255 2.65213292 3.02463255 2.65213292 5 3 C5 2.34 5 1.68 5 1 C5.66 1 6.32 1 7 1 C7.33 2.32 7.66 3.64 8 5 C7.01 5.33 6.02 5.66 5 6 C4.01 6.495 4.01 6.495 3 7 C2.67 6.01 2.34 5.02 2 4 C1.34 3.67 0.68 3.34 0 3 C0 2.01 0 1.02 0 0 Z " fill="#767574" transform="translate(37,167)"/>
<path d="M0 0 C0.66 0.99 1.32 1.98 2 3 C0.54744301 6.82946843 -1.42895561 8.12050295 -5 10 C-4.1875 7.5625 -4.1875 7.5625 -3 5 C-2.01 4.67 -1.02 4.34 0 4 C0 2.68 0 1.36 0 0 Z " fill="#292828" transform="translate(40,113)"/>
<path d="M0 0 C-0.66 1.65 -1.32 3.3 -2 5 C-2.66 5 -3.32 5 -4 5 C-4.66 6.32 -5.32 7.64 -6 9 C-6.8125 7.3125 -6.8125 7.3125 -7 5 C-2.79545455 0 -2.79545455 0 0 0 Z " fill="#8A8A89" transform="translate(50,70)"/>
<path d="M0 0 C0.33 0.66 0.66 1.32 1 2 C0.01 2.495 0.01 2.495 -1 3 C-0.34 4.32 0.32 5.64 1 7 C0.01 7.66 -0.98 8.32 -2 9 C-2 8.01 -2 7.02 -2 6 C-2.99 5.67 -3.98 5.34 -5 5 C-3.35 3.35 -1.7 1.7 0 0 Z " fill="#636362" transform="translate(86,35)"/>
<path d="M0 0 C2.64 0 5.28 0 8 0 C5.75 2.0625 5.75 2.0625 3 4 C0.6875 3.75 0.6875 3.75 -1 3 C-0.67 2.01 -0.34 1.02 0 0 Z " fill="#0A0A0A" transform="translate(76,9)"/>
<path d="M0 0 C1.65 0.33 3.3 0.66 5 1 C4.67 1.66 4.34 2.32 4 3 C1.6859378 3.73075648 -0.64828869 4.40138258 -3 5 C-3 4.34 -3 3.68 -3 3 C-2.34 3 -1.68 3 -1 3 C-0.67 2.01 -0.34 1.02 0 0 Z " fill="#262625" transform="translate(67,163)"/>
<path d="M0 0 C0.66 0 1.32 0 2 0 C3.7265625 1.96875 3.7265625 1.96875 5.625 4.5 C6.25664062 5.3353125 6.88828125 6.170625 7.5390625 7.03125 C8.02117187 7.6809375 8.50328125 8.330625 9 9 C6 9 6 9 4 8 C2.9296875 6.15234375 2.9296875 6.15234375 1.875 3.9375 C1.52179688 3.20402344 1.16859375 2.47054687 0.8046875 1.71484375 C0.53914062 1.14894531 0.27359375 0.58304687 0 0 Z " fill="#A1A09F" transform="translate(170,67)"/>
<path d="M0 0 C-0.66 0.66 -1.32 1.32 -2 2 C-4.6015625 1.9765625 -4.6015625 1.9765625 -7.625 1.625 C-8.62789063 1.51414063 -9.63078125 1.40328125 -10.6640625 1.2890625 C-11.82035156 1.14597656 -11.82035156 1.14597656 -13 1 C-13 0.67 -13 0.34 -13 0 C-4.57142857 -1.28571429 -4.57142857 -1.28571429 0 0 Z " fill="#646363" transform="translate(114,183)"/>
<path d="M0 0 C-0.33 1.65 -0.66 3.3 -1 5 C-3.31 4.34 -5.62 3.68 -8 3 C-7 1 -7 1 -4.5625 -0.1875 C-2 -1 -2 -1 0 0 Z " fill="#555454" transform="translate(114,34)"/>
<path d="M0 0 C0.99 0 1.98 0 3 0 C3 0.99 3 1.98 3 3 C3.99 3 4.98 3 6 3 C6 3.66 6 4.32 6 5 C4.35 5 2.7 5 1 5 C0.67 3.35 0.34 1.7 0 0 Z " fill="#1D1D1E" transform="translate(45,130)"/>
<path d="M0 0 C0 3 0 3 -2.5 5.6875 C-3.325 6.450625 -4.15 7.21375 -5 8 C-5.3125 5.6875 -5.3125 5.6875 -5 3 C-2.5 1.1875 -2.5 1.1875 0 0 Z " fill="#515150" transform="translate(48,118)"/>
<path d="M0 0 C-0.99 1.485 -0.99 1.485 -2 3 C-4.64 2.67 -7.28 2.34 -10 2 C-3.75 -1.125 -3.75 -1.125 0 0 Z " fill="#4D4C4C" transform="translate(176,95)"/>
<path d="M0 0 C1.65 0 3.3 0 5 0 C5.99 2.64 6.98 5.28 8 8 C7.01 7.67 6.02 7.34 5 7 C5 5.68 5 4.36 5 3 C2.525 2.01 2.525 2.01 0 1 C0 0.67 0 0.34 0 0 Z " fill="#767575" transform="translate(133,19)"/>
<path d="M0 0 C0 1.32 0 2.64 0 4 C-1.65 4 -3.3 4 -5 4 C-5.33 3.01 -5.66 2.02 -6 1 C-3.92446352 0.4465236 -2.15634036 0 0 0 Z " fill="#545453" transform="translate(53,179)"/>
<path d="M0 0 C1.32 0 2.64 0 4 0 C5 3 5 3 4 6 C2.68 5.67 1.36 5.34 0 5 C0.66 4.34 1.32 3.68 2 3 C1.34 2.01 0.68 1.02 0 0 Z " fill="#2C2B2B" transform="translate(55,135)"/>
<path d="M0 0 C0.66 0 1.32 0 2 0 C2 0.66 2 1.32 2 2 C1.34 2 0.68 2 0 2 C0 1.34 0 0.68 0 0 Z M-1 2 C1 5 1 5 1 7 C1.66 7.33 2.32 7.66 3 8 C2.34 8.66 1.68 9.32 1 10 C-1 8 -1 8 -1.125 4.875 C-1.08375 3.92625 -1.0425 2.9775 -1 2 Z " fill="#131313" transform="translate(45,128)"/>
<path d="M0 0 C1.32 0.33 2.64 0.66 4 1 C3.67 2.65 3.34 4.3 3 6 C3.99 6.33 4.98 6.66 6 7 C4.68 7 3.36 7 2 7 C1.34 4.69 0.68 2.38 0 0 Z " fill="#525251" transform="translate(119,128)"/>
<path d="M0 0 C2.4375 0.375 2.4375 0.375 5 1 C5.33 1.66 5.66 2.32 6 3 C5.01 3 4.02 3 3 3 C2.67 3.66 2.34 4.32 2 5 C1.34 5 0.68 5 0 5 C0 3.35 0 1.7 0 0 Z " fill="#454444" transform="translate(161,110)"/>
<path d="M0 0 C1.65 0 3.3 0 5 0 C5.33 0.99 5.66 1.98 6 3 C3.69 3 1.38 3 -1 3 C-0.67 2.01 -0.34 1.02 0 0 Z " fill="#4D4D4D" transform="translate(72,110)"/>
<path d="M0 0 C1.32 0.33 2.64 0.66 4 1 C4.33 2.32 4.66 3.64 5 5 C4.01 5 3.02 5 2 5 C2 4.34 2 3.68 2 3 C1.34 3 0.68 3 0 3 C0 2.01 0 1.02 0 0 Z " fill="#0A0A0A" transform="translate(169,70)"/>
<path d="M0 0 C1.32 0 2.64 0 4 0 C4 0.99 4 1.98 4 3 C2.68 3 1.36 3 0 3 C-0.33 3.66 -0.66 4.32 -1 5 C-1 1 -1 1 0 0 Z " fill="#1B1B1B" transform="translate(80,41)"/>
<path d="M0 0 C1.65 0 3.3 0 5 0 C3.68 2.31 2.36 4.62 1 7 C-0.231394 4.53721199 -0.07159196 2.7204945 0 0 Z " fill="#444444" transform="translate(50,35)"/>
<path d="M0 0 C2.71232939 4.06849409 2.30699887 6.16476784 2 11 C1.34 11.66 0.68 12.32 0 13 C-0.19397476 11.02145742 -0.38001321 9.0421352 -0.5625 7.0625 C-0.66691406 5.96035156 -0.77132813 4.85820313 -0.87890625 3.72265625 C-0.91886719 2.82417969 -0.95882813 1.92570312 -1 1 C-0.67 0.67 -0.34 0.34 0 0 Z " fill="#444443" transform="translate(24,109)"/>
<path d="M0 0 C3.37462715 0.54723683 5.08235 1.0549 8 3 C5.36 3 2.72 3 0 3 C0 2.01 0 1.02 0 0 Z " fill="#636262" transform="translate(110,96)"/>
<path d="M0 0 C2.5 2.3125 2.5 2.3125 5 5 C5 5.99 5 6.98 5 8 C3.0625 7.375 3.0625 7.375 1 6 C0.25 2.875 0.25 2.875 0 0 Z " fill="#5D5D5C" transform="translate(169,56)"/>
<path d="M0 0 C0.99 0.33 1.98 0.66 3 1 C3 1.66 3 2.32 3 3 C1.1875 4.0625 1.1875 4.0625 -1 5 C-1.99 4.67 -2.98 4.34 -4 4 C-2.68 2.68 -1.36 1.36 0 0 Z " fill="#636262" transform="translate(104,53)"/>
<path d="M0 0 C0.66 0 1.32 0 2 0 C2 0.99 2 1.98 2 3 C2.66 3.33 3.32 3.66 4 4 C2.35 4.33 0.7 4.66 -1 5 C-1 1 -1 1 0 0 Z " fill="#70706F" transform="translate(110,40)"/>
<path d="M0 0 C0.33 0.66 0.66 1.32 1 2 C-0.25 3.5625 -0.25 3.5625 -2 5 C-4.1875 4.6875 -4.1875 4.6875 -6 4 C-4.02 2.68 -2.04 1.36 0 0 Z " fill="#504F4F" transform="translate(50,25)"/>
<path d="M0 0 C1.65 0.33 3.3 0.66 5 1 C5 1.66 5 2.32 5 3 C3.02 3 1.04 3 -1 3 C-0.67 2.01 -0.34 1.02 0 0 Z " fill="#494948" transform="translate(86,18)"/>
<path d="M0 0 C0.99 0.33 1.98 0.66 3 1 C1.71034824 2.37562854 0.37310707 3.70766393 -1 5 C-1.66 5 -2.32 5 -3 5 C-3 3 -3 3 -1.5 1.375 C-1.005 0.92125 -0.51 0.4675 0 0 Z " fill="#D2D1D0" transform="translate(57,62)"/>
<path d="M0 0 C0 0.99 0 1.98 0 3 C-0.66 2.67 -1.32 2.34 -2 2 C-1.34 1.34 -0.68 0.68 0 0 Z " fill="#EEEDEC" transform="translate(52,67)"/>
<path d="M0 0 C0.66 0 1.32 0 2 0 C1.67 0.99 1.34 1.98 1 3 C0.67 2.01 0.34 1.02 0 0 Z " fill="#CAC9C8" transform="translate(60,59)"/>
</svg>
