<?xml version="1.0" encoding="UTF-8"?>
<svg version="1.1" xmlns="http://www.w3.org/2000/svg" width="200" height="202">
<path d="M0 0 C1.65 0.33 3.3 0.66 5 1 C5.17015625 1.63808594 5.3403125 2.27617188 5.515625 2.93359375 C5.75796875 3.75988281 6.0003125 4.58617187 6.25 5.4375 C6.48203125 6.26121094 6.7140625 7.08492187 6.953125 7.93359375 C7.29859375 8.61550781 7.6440625 9.29742187 8 10 C8.93005859 10.19335938 8.93005859 10.19335938 9.87890625 10.390625 C12 11 12 11 13.82421875 13.73828125 C14.45544121 14.92435229 15.07589732 16.11619383 15.6875 17.3125 C19.51313614 24.39590441 24.05982258 30.64092749 29 37 C34.54026841 44.36339147 40.11969018 51.83873577 44.0390625 60.22265625 C44.87604905 62.17723305 44.87604905 62.17723305 47 63 C47.5878125 64.2065625 47.5878125 64.2065625 48.1875 65.4375 C51.92805169 72.78961884 55.33744312 78.53360522 63 82 C63.36442233 83.66014616 63.69972883 85.32706064 64 87 C66.42383077 88.16953416 66.42383077 88.16953416 69 89 C71.14915785 92.22373677 71.38286803 93.26703674 71 97 C69 99 69 99 67.01171875 99.16015625 C65.86123047 99.11181641 65.86123047 99.11181641 64.6875 99.0625 C61.99961551 98.99357988 59.83940022 99.03211996 57.1875 99.5625 C55 100 55 100 53.30474854 99.53443909 C50.15102767 98.80313514 47.17360984 98.88081537 43.93652344 98.88647461 C43.23368225 98.88632858 42.53084106 98.88618256 41.80670166 98.8860321 C39.49089437 98.88672701 37.17516819 98.89449962 34.859375 98.90234375 C33.25083459 98.90420943 31.64229362 98.90563263 30.03375244 98.90663147 C25.80544458 98.91044484 21.57717121 98.92026505 17.34887695 98.93133545 C13.03206855 98.94157494 8.71525456 98.94613453 4.3984375 98.95117188 C-4.06772414 98.96188838 -12.53385778 98.97895063 -21 99 C-21 98.01 -21 97.02 -21 96 C-21.99515625 96.16757813 -22.9903125 96.33515625 -24.015625 96.5078125 C-32.39140896 97.77874712 -40.24538719 98.12553638 -48.6875 97.25 C-49.5237793 97.16379395 -50.36005859 97.07758789 -51.22167969 96.98876953 C-55.68199974 96.46121449 -59.82990386 95.76275357 -64 94 C-64.9375 92 -64.9375 92 -65 90 C-64.505 89.01 -64.505 89.01 -64 88 C-62.35 88 -60.7 88 -59 88 C-58.938125 87.278125 -58.87625 86.55625 -58.8125 85.8125 C-57.72938094 82.06324172 -55.84971923 80.66386797 -53 78 C-50.61612735 75.37665156 -48.31328266 72.68553505 -46 70 C-45.53207031 69.48308594 -45.06414063 68.96617188 -44.58203125 68.43359375 C-41.18070137 64.5927074 -39.14801515 60.61425478 -37 56 C-36.34 56 -35.68 56 -35 56 C-34.938125 55.443125 -34.87625 54.88625 -34.8125 54.3125 C-33.6519231 51.00931958 -31.59786554 49.28105267 -29 47 C-28.34 47 -27.68 47 -27 47 C-27 46.34 -27 45.68 -27 45 C-25.3563186 43.31066078 -23.6857124 41.64740076 -22 40 C-18.68215447 36.21391014 -16.41877479 32.19667527 -14.25 27.6875 C-13.55479363 26.27078125 -12.85947773 24.85411624 -12.1640625 23.4375 C-11.80989258 22.71046875 -11.45572266 21.9834375 -11.09082031 21.234375 C-9.28838097 17.54235958 -7.45745765 13.86468245 -5.625 10.1875 C-5.29145508 9.51227295 -4.95791016 8.8370459 -4.61425781 8.14135742 C-3.20174721 5.30073037 -1.76281637 2.64422455 0 0 Z M-14 47 C-14 47.66 -14 48.32 -14 49 C-13.34 49 -12.68 49 -12 49 C-12 48.34 -12 47.68 -12 47 C-12.66 47 -13.32 47 -14 47 Z " fill="#090A0A" transform="translate(100,41)"/>
<path d="M0 0 C2.475 0.495 2.475 0.495 5 1 C5.17015625 1.63808594 5.3403125 2.27617188 5.515625 2.93359375 C5.75796875 3.75988281 6.0003125 4.58617187 6.25 5.4375 C6.59804687 6.67306641 6.59804687 6.67306641 6.953125 7.93359375 C7.29859375 8.61550781 7.6440625 9.29742187 8 10 C8.93005859 10.19335938 8.93005859 10.19335938 9.87890625 10.390625 C12 11 12 11 13.82421875 13.73828125 C14.45544121 14.92435229 15.07589732 16.11619383 15.6875 17.3125 C19.51313614 24.39590441 24.05982258 30.64092749 29 37 C34.54026841 44.36339147 40.11969018 51.83873577 44.0390625 60.22265625 C44.87604905 62.17723305 44.87604905 62.17723305 47 63 C47 63.99 47 64.98 47 66 C45 66 45 66 43.375 64.625 C42 63 42 63 42 61 C41.34 61 40.68 61 40 61 C39.67 60.01 39.34 59.02 39 58 C36.98491642 57.26676204 36.98491642 57.26676204 35 57 C35 56.01 35 55.02 35 54 C34.34 54 33.68 54 33 54 C32.34 51.69 31.68 49.38 31 47 C30.01 47.66 29.02 48.32 28 49 C29.65 52.63 31.3 56.26 33 60 C31.68 60.33 30.36 60.66 29 61 C28.35417969 61.22558594 27.70835938 61.45117188 27.04296875 61.68359375 C23.43571528 62.24226972 20.95706782 60.43666376 17.91015625 58.66796875 C16 57 16 57 15.37109375 54.98828125 C15.31115234 53.94220703 15.31115234 53.94220703 15.25 52.875 C15.1675 51.59625 15.085 50.3175 15 49 C12.57327433 47.21030974 12.57327433 47.21030974 10 46 C8.51602344 43.13097865 9.02830474 41.90187689 9.9375 38.75 C10.4634375 37.38875 10.4634375 37.38875 11 36 C9.68 35.67 8.36 35.34 7 35 C7.66 35 8.32 35 9 35 C9 34.01 9 33.02 9 32 C8.34 32 7.68 32 7 32 C6.505 27.545 6.505 27.545 6 23 C-0.38732906 24.37573241 -3.24791323 25.6842556 -6.9375 31.1875 C-7.48277344 32.08855469 -8.02804688 32.98960938 -8.58984375 33.91796875 C-9.05519531 34.60503906 -9.52054688 35.29210937 -10 36 C-10.66 36 -11.32 36 -12 36 C-12.33 38.97 -12.66 41.94 -13 45 C-12.34 45 -11.68 45 -11 45 C-11 46.65 -11 48.3 -11 50 C-11.66 50 -12.32 50 -13 50 C-13.33 51.32 -13.66 52.64 -14 54 C-14.99 53.67 -15.98 53.34 -17 53 C-17 52.01 -17 51.02 -17 50 C-21.59255287 51.96823694 -24.32989379 54.43641885 -26.3125 59.0625 C-28.64117099 63.11611246 -30.61924114 63.5662971 -35 65 C-35.66 65 -36.32 65 -37 65 C-37.226875 65.598125 -37.45375 66.19625 -37.6875 66.8125 C-39 69 -39 69 -41.5625 70.5 C-44.16513821 71.75667017 -44.16513821 71.75667017 -44.8125 74.1875 C-44.9053125 75.0846875 -44.9053125 75.0846875 -45 76 C-48.465 76.99 -48.465 76.99 -52 78 C-52 76 -52 76 -49.875 73.8125 C-49.41996094 73.37164062 -48.96492188 72.93078125 -48.49609375 72.4765625 C-43.41001147 67.45687816 -39.96886303 62.50866126 -37 56 C-36.34 56 -35.68 56 -35 56 C-34.938125 55.443125 -34.87625 54.88625 -34.8125 54.3125 C-33.6519231 51.00931958 -31.59786554 49.28105267 -29 47 C-28.34 47 -27.68 47 -27 47 C-27 46.34 -27 45.68 -27 45 C-25.3563186 43.31066078 -23.6857124 41.64740076 -22 40 C-18.68215447 36.21391014 -16.41877479 32.19667527 -14.25 27.6875 C-13.55479363 26.27078125 -12.85947773 24.85411624 -12.1640625 23.4375 C-11.80989258 22.71046875 -11.45572266 21.9834375 -11.09082031 21.234375 C-9.28838097 17.54235958 -7.45745765 13.86468245 -5.625 10.1875 C-5.29145508 9.51227295 -4.95791016 8.8370459 -4.61425781 8.14135742 C-3.20174721 5.30073037 -1.76281637 2.64422455 0 0 Z M-14 47 C-14 47.66 -14 48.32 -14 49 C-13.34 49 -12.68 49 -12 49 C-12 48.34 -12 47.68 -12 47 C-12.66 47 -13.32 47 -14 47 Z " fill="#18181A" transform="translate(100,41)"/>
<path d="M0 0 C0.2475 0.639375 0.495 1.27875 0.75 1.9375 C1.78004532 4.1513572 1.78004532 4.1513572 3.8125 4.5625 C4.8953125 4.7790625 4.8953125 4.7790625 6 5 C6.721875 5.45375 7.44375 5.9075 8.1875 6.375 C11.94023812 8.54324869 15.87125424 9.73169248 20 11 C20 11.66 20 12.32 20 13 C21.11375 13.28875 22.2275 13.5775 23.375 13.875 C27 15 27 15 29 17 C29 17.99 29 18.98 29 20 C25.7 20.33 22.4 20.66 19 21 C19 21.99 19 22.98 19 24 C23.29 24.33 27.58 24.66 32 25 C32.495 26.485 32.495 26.485 33 28 C29.25 29.125 29.25 29.125 27 28 C27 28.66 27 29.32 27 30 C28.12148437 30.09087891 28.12148437 30.09087891 29.265625 30.18359375 C30.74289063 30.30927734 30.74289063 30.30927734 32.25 30.4375 C33.71179688 30.55931641 33.71179688 30.55931641 35.203125 30.68359375 C38 31 38 31 42 32 C42.99 29.03 43.98 26.06 45 23 C44.2575 22.855625 43.515 22.71125 42.75 22.5625 C41.8425 22.376875 40.935 22.19125 40 22 C38.9171875 21.9071875 38.9171875 21.9071875 37.8125 21.8125 C36 21 36 21 34.6875 18.1875 C34.01727233 15.08008079 34.11975179 13.91938434 35 11 C35.36351562 11.61488281 35.72703125 12.22976562 36.1015625 12.86328125 C39.29155022 17.99179997 41.4421348 20.41494642 47 23 C47.36442233 24.66014616 47.69972883 26.32706064 48 28 C50.42383077 29.16953416 50.42383077 29.16953416 53 30 C55.14915785 33.22373677 55.38286803 34.26703674 55 38 C53 40 53 40 51.01171875 40.16015625 C49.86123047 40.11181641 49.86123047 40.11181641 48.6875 40.0625 C45.99961551 39.99357988 43.83940022 40.03211996 41.1875 40.5625 C39 41 39 41 37.30474854 40.53443909 C34.15102767 39.80313514 31.17360984 39.88081537 27.93652344 39.88647461 C27.23368225 39.88632858 26.53084106 39.88618256 25.80670166 39.8860321 C23.49089437 39.88672701 21.17516819 39.89449962 18.859375 39.90234375 C17.25083459 39.90420943 15.64229362 39.90563263 14.03375244 39.90663147 C9.80544458 39.91044484 5.57717121 39.92026505 1.34887695 39.93133545 C-2.96793145 39.94157494 -7.28474544 39.94613453 -11.6015625 39.95117188 C-20.06772414 39.96188838 -28.53385778 39.97895063 -37 40 C-37 39.01 -37 38.02 -37 37 C-38.49273437 37.25136719 -38.49273437 37.25136719 -40.015625 37.5078125 C-51.65892587 39.27045342 -62.3627887 38.56446481 -74 37 C-74 36.67 -74 36.34 -74 36 C-73.02389771 36.01571045 -73.02389771 36.01571045 -72.02807617 36.03173828 C-69.0812567 36.07329835 -66.13449889 36.09932608 -63.1875 36.125 C-62.16333984 36.14175781 -61.13917969 36.15851563 -60.08398438 36.17578125 C-59.10107422 36.18222656 -58.11816406 36.18867188 -57.10546875 36.1953125 C-56.19949951 36.20578613 -55.29353027 36.21625977 -54.36010742 36.22705078 C-51.73063552 36.16165391 -51.73063552 36.16165391 -49 34 C-42.52170166 32.45754802 -35.46554234 32.33147295 -29 34 C-29 34.66 -29 35.32 -29 36 C-27.02463255 35.65213292 -27.02463255 35.65213292 -25 35 C-24.505 34.01 -24.505 34.01 -24 33 C-22.35 33 -20.7 33 -19 33 C-19.66 31.68 -20.32 30.36 -21 29 C-20.38253906 28.93941406 -19.76507813 28.87882812 -19.12890625 28.81640625 C-17.85853516 28.69072266 -17.85853516 28.69072266 -16.5625 28.5625 C-15.63824219 28.47226563 -14.71398437 28.38203125 -13.76171875 28.2890625 C-12.13679457 28.11898557 -10.51314859 27.93315955 -8.89453125 27.7109375 C-1.29242943 26.68163938 6.34574984 26.91547454 14 27 C14 26.34 14 25.68 14 25 C4.76 25 -4.48 25 -14 25 C-14 24.34 -14 23.68 -14 23 C-13.20078125 22.87882812 -12.4015625 22.75765625 -11.578125 22.6328125 C-10.47984375 22.46523437 -9.3815625 22.29765625 -8.25 22.125 C-7.06664063 21.94453125 -5.88328125 21.7640625 -4.6640625 21.578125 C-1.3096368 21.04885527 2.03131454 20.46755185 5.375 19.875 C9.6699669 19.14588095 13.65195374 18.80236153 18 19 C18 18.34 18 17.68 18 17 C15.36 17 12.72 17 10 17 C10.99 16.071875 10.99 16.071875 12 15.125 C14.2284549 13.24362573 14.2284549 13.24362573 14 11 C13.43152344 11.2165625 12.86304688 11.433125 12.27734375 11.65625 C7.2757781 13.45981958 3.31037964 14.3389604 -2 14 C-1.67 13.34 -1.34 12.68 -1 12 C0.33333333 11.66666667 1.66666667 11.33333333 3 11 C3.33 10.34 3.66 9.68 4 9 C3.01 9 2.02 9 1 9 C1 9.66 1 10.32 1 11 C0.34 11 -0.32 11 -1 11 C-1.59732819 8.23735711 -2 5.83967231 -2 3 C-2.66 4.32 -3.32 5.64 -4 7 C-5.32 6.67 -6.64 6.34 -8 6 C-7.34 5.67 -6.68 5.34 -6 5 C-6 4.34 -6 3.68 -6 3 C-7.32 3 -8.64 3 -10 3 C-10 2.34 -10 1.68 -10 1 C-6.61981469 -0.04005702 -3.5219721 -0.08004482 0 0 Z M-23 30 C-22.34 30.33 -21.68 30.66 -21 31 C-21.99 31 -22.98 31 -24 31 C-23.67 30.67 -23.34 30.34 -23 30 Z " fill="#1C1C1F" transform="translate(116,100)"/>
<path d="M0 0 C1.98 0 3.96 0 6 0 C6.23460937 0.64453125 6.46921875 1.2890625 6.7109375 1.953125 C7.81161073 4.2077908 7.81161073 4.2077908 10.1640625 4.609375 C10.97617188 4.65578125 11.78828125 4.7021875 12.625 4.75 C13.85089844 4.83507812 13.85089844 4.83507812 15.1015625 4.921875 C15.72804687 4.94765625 16.35453125 4.9734375 17 5 C17 5.99 17 6.98 17 8 C16.505 7.505 16.505 7.505 16 7 C14.31391034 6.92794489 12.62499341 6.91613932 10.9375 6.9375 C10.01839844 6.94652344 9.09929687 6.95554687 8.15234375 6.96484375 C7.44207031 6.97644531 6.73179688 6.98804687 6 7 C6 7.66 6 8.32 6 9 C7.32 9 8.64 9 10 9 C9.67 9.99 9.34 10.98 9 12 C9.99 12 10.98 12 12 12 C12.33 11.34 12.66 10.68 13 10 C12.34 9.67 11.68 9.34 11 9 C12.32 8.67 13.64 8.34 15 8 C15 10.97 15 13.94 15 17 C15.66 17 16.32 17 17 17 C17 16.34 17 15.68 17 15 C17.99 15 18.98 15 20 15 C19.67 15.99 19.34 16.98 19 18 C16.9375 18.6875 16.9375 18.6875 15 19 C22.55038422 18.34650367 22.55038422 18.34650367 30 17 C30 17.66 30 18.32 30 19 C30.66 19.33 31.32 19.66 32 20 C30.35 20.66 28.7 21.32 27 22 C29.31 22.33 31.62 22.66 34 23 C34 23.66 34 24.32 34 25 C33.44538086 25.08564209 32.89076172 25.17128418 32.31933594 25.25952148 C29.79592464 25.65027558 27.27296253 26.04385926 24.75 26.4375 C23.87730469 26.57220703 23.00460938 26.70691406 22.10546875 26.84570312 C20.83896484 27.04389648 20.83896484 27.04389648 19.546875 27.24609375 C18.77182617 27.36654053 17.99677734 27.4869873 17.19824219 27.61108398 C14.9989414 27.97267526 14.9989414 27.97267526 12.86328125 28.54101562 C10.60920311 29.09626548 8.5678483 29.096586 6.25 29.0625 C5.45078125 29.05347656 4.6515625 29.04445313 3.828125 29.03515625 C3.22484375 29.02355469 2.6215625 29.01195313 2 29 C2 29.66 2 30.32 2 31 C2.99 31.33 3.98 31.66 5 32 C2.03 31.67 -0.94 31.34 -4 31 C-4 30.01 -4 29.02 -4 28 C-4.66 28 -5.32 28 -6 28 C-6.33 28.66 -6.66 29.32 -7 30 C-6.34 30 -5.68 30 -5 30 C-5 30.66 -5 31.32 -5 32 C-6.32 32 -7.64 32 -9 32 C-9 29.69 -9 27.38 -9 25 C-10.79206547 25.14084796 -12.58364917 25.28783701 -14.375 25.4375 C-15.87160156 25.55931641 -15.87160156 25.55931641 -17.3984375 25.68359375 C-19.97927613 25.84965626 -19.97927613 25.84965626 -22 27 C-25.21753678 27.07110579 -28.42304486 26.99681023 -31.640625 26.9375 C-34.86750594 26.99753499 -37.83641958 27.38645713 -41 28 C-41 27.34 -41 26.68 -41 26 C-40.360625 25.731875 -39.72125 25.46375 -39.0625 25.1875 C-36.66868314 24.11332248 -36.66868314 24.11332248 -36 21 C-36.66 21 -37.32 21 -38 21 C-37.67 19.35 -37.34 17.7 -37 16 C-36.34 16 -35.68 16 -35 16 C-35 15.34 -35 14.68 -35 14 C-34.34 14 -33.68 14 -33 14 C-33.66 15.65 -34.32 17.3 -35 19 C-34.360625 18.525625 -33.72125 18.05125 -33.0625 17.5625 C-29.15048831 15.56657567 -25.39640027 14.83484006 -21 15 C-18.72265625 15.98828125 -18.72265625 15.98828125 -17 17 C-16.34 15.68 -15.68 14.36 -15 13 C-15 13.66 -15 14.32 -15 15 C-14.01 15.33 -13.02 15.66 -12 16 C-15.22791555 18.1519437 -16.28400809 18.20086443 -20 18 C-20 18.66 -20 19.32 -20 20 C-16.81237635 22.12508244 -14.73487777 22.5020163 -11 23 C-11 22.01 -11 21.02 -11 20 C-9.02 20.33 -7.04 20.66 -5 21 C-5 20.34 -5 19.68 -5 19 C-1.7 18.34 1.6 17.68 5 17 C4.34 16.34 3.68 15.68 3 15 C0.99019869 15.26797351 -1.0103005 15.60986284 -3 16 C-4.66627298 16.03622333 -6.33405374 16.04899842 -8 16 C-8.495 14.515 -8.495 14.515 -9 13 C-8.01 12.34 -7.02 11.68 -6 11 C-7.98 10.67 -9.96 10.34 -12 10 C-12.33 10.99 -12.66 11.98 -13 13 C-13.33 10.69 -13.66 8.38 -14 6 C-14.66 6 -15.32 6 -16 6 C-15.34 4.68 -14.68 3.36 -14 2 C-11.69 2.66 -9.38 3.32 -7 4 C-6.34 3.01 -5.68 2.02 -5 1 C-3.68 1.33 -2.36 1.66 -1 2 C-0.67 1.34 -0.34 0.68 0 0 Z " fill="#111214" transform="translate(100,94)"/>
<path d="M0 0 C0.66 0 1.32 0 2 0 C2.33 1.98 2.66 3.96 3 6 C3.78375 6.061875 4.5675 6.12375 5.375 6.1875 C6.24125 6.455625 7.1075 6.72375 8 7 C9.3125 9.5625 9.3125 9.5625 10 12 C10.66 12 11.32 12 12 12 C12 13.65 12 15.3 12 17 C13.65 16.67 15.3 16.34 17 16 C17 16.99 17 17.98 17 19 C17.66 19.33 18.32 19.66 19 20 C20.33333333 20.66666667 21.66666667 21.33333333 23 22 C22.60348083 20.68127338 22.18201309 19.37002899 21.75 18.0625 C21.51796875 17.33160156 21.2859375 16.60070312 21.046875 15.84765625 C20.1492447 13.79429444 20.1492447 13.79429444 17.890625 13.24609375 C17.26671875 13.16488281 16.6428125 13.08367187 16 13 C15.67 10.36 15.34 7.72 15 5 C18.96734457 8.76646637 22.23338664 12.76025364 25.4375 17.1875 C25.91759521 17.84661377 26.39769043 18.50572754 26.89233398 19.18481445 C31.02743192 24.92136245 35.03545948 30.77959926 38.02734375 37.20703125 C38.87363123 39.17554267 38.87363123 39.17554267 41 40 C41 40.99 41 41.98 41 43 C39 43 39 43 37.375 41.625 C36 40 36 40 36 38 C35.34 38 34.68 38 34 38 C33.67 37.01 33.34 36.02 33 35 C30.98491642 34.26676204 30.98491642 34.26676204 29 34 C29 33.01 29 32.02 29 31 C28.34 31 27.68 31 27 31 C26.34 28.69 25.68 26.38 25 24 C24.01 24.66 23.02 25.32 22 26 C23.65 29.63 25.3 33.26 27 37 C25.02 37.495 25.02 37.495 23 38 C22.35417969 38.22558594 21.70835938 38.45117188 21.04296875 38.68359375 C17.43571528 39.24226972 14.95706782 37.43666376 11.91015625 35.66796875 C10 34 10 34 9.37109375 31.98828125 C9.33113281 31.29089844 9.29117188 30.59351562 9.25 29.875 C9.1675 28.59625 9.085 27.3175 9 26 C6.57327433 24.21030974 6.57327433 24.21030974 4 23 C2.51602344 20.13097865 3.02830474 18.90187689 3.9375 15.75 C4.288125 14.8425 4.63875 13.935 5 13 C3.68 12.67 2.36 12.34 1 12 C1.66 12 2.32 12 3 12 C3 11.01 3 10.02 3 9 C2.34 9 1.68 9 1 9 C0.67 6.03 0.34 3.06 0 0 Z " fill="#131315" transform="translate(106,64)"/>
<path d="M0 0 C0 0.66 0 1.32 0 2 C0.680625 1.690625 1.36125 1.38125 2.0625 1.0625 C9.5931298 -1.66134482 17.53443648 -1.15061771 25.4375 -1.125 C26.62666016 -1.12886719 27.81582031 -1.13273438 29.04101562 -1.13671875 C35.12235848 -1.12996545 40.98904031 -0.93851415 47 0 C46.67 0.66 46.34 1.32 46 2 C51.61 2.66 57.22 3.32 63 4 C63 4.33 63 4.66 63 5 C14.02893891 6.20900322 14.02893891 6.20900322 -8 6 C-8 5.01 -8 4.02 -8 3 C-9.49273437 3.25136719 -9.49273437 3.25136719 -11.015625 3.5078125 C-22.65892587 5.27045342 -33.3627887 4.56446481 -45 3 C-45 2.67 -45 2.34 -45 2 C-44.02389771 2.01571045 -44.02389771 2.01571045 -43.02807617 2.03173828 C-40.0812567 2.07329835 -37.13449889 2.09932608 -34.1875 2.125 C-33.16333984 2.14175781 -32.13917969 2.15851563 -31.08398438 2.17578125 C-30.10107422 2.18222656 -29.11816406 2.18867188 -28.10546875 2.1953125 C-27.19949951 2.20578613 -26.29353027 2.21625977 -25.36010742 2.22705078 C-22.73063552 2.16165391 -22.73063552 2.16165391 -20 0 C-13.52170166 -1.54245198 -6.46554234 -1.66852705 0 0 Z " fill="#9F9FA7" transform="translate(87,134)"/>
<path d="M0 0 C1.00016187 2.00032373 1.49396008 3.83125748 2 6 C2.99 5.01 3.98 4.02 5 3 C4.855625 3.62648438 4.71125 4.25296875 4.5625 4.8984375 C4.2840625 6.12433594 4.2840625 6.12433594 4 7.375 C3.7215625 8.59316406 3.7215625 8.59316406 3.4375 9.8359375 C2.93394761 11.95874951 2.93394761 11.95874951 3 14 C3.66 14 4.32 14 5 14 C5 15.65 5 17.3 5 19 C4.34 19 3.68 19 3 19 C2.67 20.32 2.34 21.64 2 23 C1.01 22.67 0.02 22.34 -1 22 C-1 21.01 -1 20.02 -1 19 C-5.59255287 20.96823694 -8.32989379 23.43641885 -10.3125 28.0625 C-12.64117099 32.11611246 -14.61924114 32.5662971 -19 34 C-19.66 34 -20.32 34 -21 34 C-21.226875 34.598125 -21.45375 35.19625 -21.6875 35.8125 C-23 38 -23 38 -25.5625 39.5 C-28.16513821 40.75667017 -28.16513821 40.75667017 -28.8125 43.1875 C-28.874375 43.785625 -28.93625 44.38375 -29 45 C-31.31 45.66 -33.62 46.32 -36 47 C-36 45 -36 45 -33.875 42.8125 C-33.41996094 42.37164062 -32.96492188 41.93078125 -32.49609375 41.4765625 C-27.41001147 36.45687816 -23.96886303 31.50866126 -21 25 C-20.34 25 -19.68 25 -19 25 C-18.9071875 24.1646875 -18.9071875 24.1646875 -18.8125 23.3125 C-17.6519231 20.00931958 -15.59786554 18.28105267 -13 16 C-12.34 16 -11.68 16 -11 16 C-11 15.34 -11 14.68 -11 14 C-9.3563186 12.31066078 -7.6857124 10.64740076 -6 9 C-3.54851116 6.12825593 -1.53574788 3.45543273 0 0 Z M2 16 C2 16.66 2 17.32 2 18 C2.66 18 3.32 18 4 18 C4 17.34 4 16.68 4 16 C3.34 16 2.68 16 2 16 Z " fill="#5B5C63" transform="translate(84,72)"/>
<path d="M0 0 C0.33 0.66 0.66 1.32 1 2 C1.99 2.33 2.98 2.66 4 3 C0.77208445 5.1519437 -0.28400809 5.20086443 -4 5 C-4 5.66 -4 6.32 -4 7 C-0.81237635 9.12508244 1.26512223 9.5020163 5 10 C5 9.01 5 8.02 5 7 C7.97 7.495 7.97 7.495 11 8 C11 7.34 11 6.68 11 6 C22.52164009 4.66742597 22.52164009 4.66742597 28 6 C28 6.66 28 7.32 28 8 C26.56164795 8.21934204 26.56164795 8.21934204 25.09423828 8.44311523 C21.54162866 8.98578023 17.98971158 9.53286538 14.43798828 10.08129883 C12.89976272 10.31818621 11.36135122 10.55386938 9.82275391 10.78833008 C7.61310808 11.12526189 5.40416397 11.46649801 3.1953125 11.80859375 C2.50567413 11.91280136 1.81603577 12.01700897 1.10549927 12.12437439 C-2.56028215 12.67994692 -2.56028215 12.67994692 -6 14 C-9.21753678 14.07110579 -12.42304486 13.99681023 -15.640625 13.9375 C-18.86750594 13.99753499 -21.83641958 14.38645713 -25 15 C-25 14.34 -25 13.68 -25 13 C-24.0409375 12.5978125 -24.0409375 12.5978125 -23.0625 12.1875 C-20.66868314 11.11332248 -20.66868314 11.11332248 -20 8 C-20.66 8 -21.32 8 -22 8 C-21.67 6.35 -21.34 4.7 -21 3 C-20.34 3 -19.68 3 -19 3 C-19 2.34 -19 1.68 -19 1 C-18.34 1 -17.68 1 -17 1 C-17.66 2.65 -18.32 4.3 -19 6 C-18.360625 5.525625 -17.72125 5.05125 -17.0625 4.5625 C-13.15048831 2.56657567 -9.39640027 1.83484006 -5 2 C-2.72265625 2.98828125 -2.72265625 2.98828125 -1 4 C-0.67 2.68 -0.34 1.36 0 0 Z " fill="#17171A" transform="translate(84,107)"/>
<path d="M0 0 C1.98 0 3.96 0 6 0 C6.23460938 0.64453125 6.46921875 1.2890625 6.7109375 1.953125 C7.81161073 4.2077908 7.81161073 4.2077908 10.1640625 4.609375 C10.97617188 4.65578125 11.78828125 4.7021875 12.625 4.75 C13.85089844 4.83507812 13.85089844 4.83507812 15.1015625 4.921875 C15.72804688 4.94765625 16.35453125 4.9734375 17 5 C17 5.99 17 6.98 17 8 C16.505 7.505 16.505 7.505 16 7 C14.31391034 6.92794489 12.62499341 6.91613932 10.9375 6.9375 C10.01839844 6.94652344 9.09929687 6.95554687 8.15234375 6.96484375 C7.44207031 6.97644531 6.73179688 6.98804687 6 7 C6 7.66 6 8.32 6 9 C7.32 9 8.64 9 10 9 C9.60196439 11.88575819 9.20990931 12.82189513 6.9375 14.75 C6.298125 15.1625 5.65875 15.575 5 16 C4.34 15.67 3.68 15.34 3 15 C0.99650739 15.31165441 -1.00326516 15.64763503 -3 16 C-4.66627298 16.03622333 -6.33405374 16.04899842 -8 16 C-8.33 15.01 -8.66 14.02 -9 13 C-8.01 12.34 -7.02 11.68 -6 11 C-8.97 10.505 -8.97 10.505 -12 10 C-12.33 10.99 -12.66 11.98 -13 13 C-13.33 10.69 -13.66 8.38 -14 6 C-14.66 6 -15.32 6 -16 6 C-15.34 4.68 -14.68 3.36 -14 2 C-11.69 2.66 -9.38 3.32 -7 4 C-6.34 3.01 -5.68 2.02 -5 1 C-3.68 1.33 -2.36 1.66 -1 2 C-0.67 1.34 -0.34 0.68 0 0 Z " fill="#1E1E21" transform="translate(100,94)"/>
<path d="M0 0 C0.99 0.33 1.98 0.66 3 1 C3 2.98 3 4.96 3 7 C2.01 7.33 1.02 7.66 0 8 C0.33 9.65 0.66 11.3 1 13 C0.01 13.33 -0.98 13.66 -2 14 C-2.4125 14.433125 -2.825 14.86625 -3.25 15.3125 C-6.05528688 18.01759806 -10.02917179 21 -14 21 C-13.34 19.35 -12.68 17.7 -12 16 C-12.66 16 -13.32 16 -14 16 C-14 16.66 -14 17.32 -14 18 C-14.66 18 -15.32 18 -16 18 C-16.33 19.65 -16.66 21.3 -17 23 C-16.34 23 -15.68 23 -15 23 C-15.25 24.875 -15.25 24.875 -16 27 C-18 28.125 -18 28.125 -20 29 C-20.33 29.66 -20.66 30.32 -21 31 C-23.06640625 31.4140625 -23.06640625 31.4140625 -25.5625 31.625 C-26.38878906 31.69976562 -27.21507812 31.77453125 -28.06640625 31.8515625 C-29.02353516 31.92503906 -29.02353516 31.92503906 -30 32 C-29.67 30.02 -29.34 28.04 -29 26 C-27.35 25.67 -25.7 25.34 -24 25 C-23.938125 24.236875 -23.87625 23.47375 -23.8125 22.6875 C-23 20 -23 20 -20.6875 18.4375 C-19.800625 17.963125 -18.91375 17.48875 -18 17 C-17.071875 16.01 -17.071875 16.01 -16.125 15 C-14 13 -14 13 -10.4375 11.625 C-6.25911172 9.64976191 -5.77607803 8.14418208 -4 4 C-1.8125 1.625 -1.8125 1.625 0 0 Z " fill="#060707" transform="translate(79,92)"/>
<path d="M0 0 C2.8125 0.5625 2.8125 0.5625 6 2 C7.6875 5.5 7.6875 5.5 9 9 C9.99 9.66 10.98 10.32 12 11 C12.309375 11.804375 12.61875 12.60875 12.9375 13.4375 C13.76600071 16.12815961 13.76600071 16.12815961 16.0625 17.3125 C18.40568257 19.35333643 18.38628223 20.18287491 18.75 23.1875 C18.87375 25.0746875 18.87375 25.0746875 19 27 C20.175625 27.0928125 20.175625 27.0928125 21.375 27.1875 C24 28 24 28 25.3125 30.375 C26 33 26 33 26 36 C23.625 35.75 23.625 35.75 21 35 C19.6875 32.9375 19.6875 32.9375 19 31 C17.35 31.33 15.7 31.66 14 32 C14.33 30.02 14.66 28.04 15 26 C14.34 26 13.68 26 13 26 C12.6596875 24.7934375 12.6596875 24.7934375 12.3125 23.5625 C11.879375 22.716875 11.44625 21.87125 11 21 C8.45224694 20.10613836 8.45224694 20.10613836 6 20 C5.67 18.02 5.34 16.04 5 14 C4.34 14 3.68 14 3 14 C2.67 11.69 2.34 9.38 2 7 C1.34 7 0.68 7 0 7 C-1.125 2.25 -1.125 2.25 0 0 Z " fill="#0A0B0B" transform="translate(103,50)"/>
<path d="M0 0 C2 2 2 2 2.125 5.125 C2.08375 6.07375 2.0425 7.0225 2 8 C2.66 8 3.32 8 4 8 C4 8.99 4 9.98 4 11 C4.66 11.33 5.32 11.66 6 12 C5.67 15.3 5.34 18.6 5 22 C6.32 22.33 7.64 22.66 9 23 C7.4375 25.5625 7.4375 25.5625 5 28 C1.5 27.75 1.5 27.75 -2 27 C-4.32158065 27.34659295 -4.32158065 27.34659295 -6 28 C-6 27.34 -6 26.68 -6 26 C-8.64 26 -11.28 26 -14 26 C-13.67 25.34 -13.34 24.68 -13 24 C-12.34 24 -11.68 24 -11 24 C-11 23.34 -11 22.68 -11 22 C-8.03 21.67 -5.06 21.34 -2 21 C-2 20.01 -2 19.02 -2 18 C-2.99 18 -3.98 18 -5 18 C-5.12375 17.360625 -5.2475 16.72125 -5.375 16.0625 C-5.58125 15.381875 -5.7875 14.70125 -6 14 C-6.66 13.67 -7.32 13.34 -8 13 C-6.52553146 9.11276476 -4.4947072 8.06098117 -1 6 C-0.67 5.01 -0.34 4.02 0 3 C-0.66 3 -1.32 3 -2 3 C-1 1 -1 1 0 0 Z " fill="#131315" transform="translate(105,65)"/>
<path d="M0 0 C2 2 2 2 2 5 C2.66 5 3.32 5 4 5 C4.33 4.34 4.66 3.68 5 3 C5 3.99 5 4.98 5 6 C5.66 6 6.32 6 7 6 C7 5.34 7 4.68 7 4 C8.32 4.33 9.64 4.66 11 5 C11 6.65 11 8.3 11 10 C10.43152344 10.10054687 9.86304687 10.20109375 9.27734375 10.3046875 C2.47842091 11.961854 -0.10689971 15.08780703 -3.78515625 20.91796875 C-4.18605469 21.60503906 -4.58695312 22.29210937 -5 23 C-5.66 22.67 -6.32 22.34 -7 22 C-7.99 22.99 -8.98 23.98 -10 25 C-11.61973509 19.14805387 -9.61108423 15.25663822 -7 10 C-4.875 6.875 -4.875 6.875 -3 5 C-2.34 5 -1.68 5 -1 5 C-0.67 3.35 -0.34 1.7 0 0 Z " fill="#2E2E33" transform="translate(95,54)"/>
<path d="M0 0 C-1.32 0.33 -2.64 0.66 -4 1 C-4 1.99 -4 2.98 -4 4 C0.29 4.33 4.58 4.66 9 5 C9.495 6.485 9.495 6.485 10 8 C5.48702957 9.49266205 0.79286565 9.04892705 -3.89257812 8.9609375 C-8.37245718 8.91007795 -12.55596884 9.35149319 -17 10 C-19.4784122 10.06460929 -21.95835823 10.08611087 -24.4375 10.0625 C-25.67371094 10.05347656 -26.90992187 10.04445312 -28.18359375 10.03515625 C-29.11300781 10.02355469 -30.04242188 10.01195312 -31 10 C-28.56085508 7.56085508 -27.78553569 7.71337477 -24.4296875 7.5859375 C-23.08583984 7.52792969 -23.08583984 7.52792969 -21.71484375 7.46875 C-20.77769531 7.4378125 -19.84054688 7.406875 -18.875 7.375 C-17.93011719 7.33632812 -16.98523438 7.29765625 -16.01171875 7.2578125 C-13.67467625 7.16338654 -11.33764499 7.07781606 -9 7 C-9 6.34 -9 5.68 -9 5 C-18.24 5 -27.48 5 -37 5 C-37 4.34 -37 3.68 -37 3 C-24.6574572 0.91934221 -12.52102075 -0.22583003 0 0 Z " fill="#7C7D82" transform="translate(139,120)"/>
<path d="M0 0 C0.8353125 1.0828125 0.8353125 1.0828125 1.6875 2.1875 C5.81825318 7.39066012 5.81825318 7.39066012 11.25 11 C11.8275 11.33 12.405 11.66 13 12 C13.144375 12.825 13.28875 13.65 13.4375 14.5 C13.623125 15.325 13.80875 16.15 14 17 C16.42383077 18.16953416 16.42383077 18.16953416 19 19 C21.14915785 22.22373677 21.38286803 23.26703674 21 27 C19 29 19 29 17.01171875 29.16015625 C16.24472656 29.12792969 15.47773438 29.09570312 14.6875 29.0625 C11.96272675 28.9882674 9.86700648 29.02955412 7.1875 29.625 C4.47022338 30.09081885 3.29156595 29.44283782 1 28 C2.7015625 27.7834375 2.7015625 27.7834375 4.4375 27.5625 C7.80777201 27.38828522 7.80777201 27.38828522 9 26 C10.68608966 25.92794489 12.37500659 25.91613932 14.0625 25.9375 C14.98160156 25.94652344 15.90070313 25.95554688 16.84765625 25.96484375 C17.55792969 25.97644531 18.26820313 25.98804688 19 26 C18.67 25.01 18.34 24.02 18 23 C16.74316406 23.19464844 15.48632812 23.38929688 14.19140625 23.58984375 C8.6040467 24.21066148 3.45584971 23.46494411 -2.0625 22.5625 C-3.02349609 22.41490234 -3.98449219 22.26730469 -4.97460938 22.11523438 C-7.31822235 21.75378163 -9.65964705 21.38189592 -12 21 C-12 20.67 -12 20.34 -12 20 C-9.41659616 19.97296438 -6.83347692 19.95314389 -4.25 19.9375 C-3.52039063 19.92912109 -2.79078125 19.92074219 -2.0390625 19.91210938 C1.55734353 19.89576207 4.48454408 20.12113602 8 21 C8.99 18.03 9.98 15.06 11 12 C10.2575 11.855625 9.515 11.71125 8.75 11.5625 C7.8425 11.376875 6.935 11.19125 6 11 C4.9171875 10.9071875 4.9171875 10.9071875 3.8125 10.8125 C2 10 2 10 0.75 7.1875 C0 4 0 4 0 0 Z " fill="#64636C" transform="translate(150,111)"/>
<path d="M0 0 C0.66 0.33 1.32 0.66 2 1 C1.67 1.66 1.34 2.32 1 3 C3.31 3 5.62 3 8 3 C7.67 2.34 7.34 1.68 7 1 C9.20857055 1.14219564 11.41684987 1.28891847 13.625 1.4375 C14.85476562 1.51871094 16.08453125 1.59992188 17.3515625 1.68359375 C21 2 21 2 24.21875 2.5625 C27.65998613 3.10381804 30.59015229 2.61377259 34 2 C34.495 3.98 34.495 3.98 35 6 C34.28972656 6.06058594 33.57945312 6.12117187 32.84765625 6.18359375 C31.92855469 6.26738281 31.00945312 6.35117188 30.0625 6.4375 C29.14597656 6.51871094 28.22945312 6.59992188 27.28515625 6.68359375 C25.03840268 6.76044976 25.03840268 6.76044976 24 8 C22.57943029 8.02880418 21.15727604 7.98687574 19.73828125 7.9140625 C18.43020508 7.84832031 18.43020508 7.84832031 17.09570312 7.78125 C16.17724609 7.7296875 15.25878906 7.678125 14.3125 7.625 C12.96381836 7.55925781 12.96381836 7.55925781 11.58789062 7.4921875 C6.99109729 7.24936349 2.52774027 6.88602546 -2 6 C-1.34 4.02 -0.68 2.04 0 0 Z " fill="#201F23" transform="translate(134,131)"/>
<path d="M0 0 C0 0.66 0 1.32 0 2 C1.65 1.67 3.3 1.34 5 1 C5 1.66 5 2.32 5 3 C6.65 3 8.3 3 10 3 C10 3.66 10 4.32 10 5 C4.06 5.33 -1.88 5.66 -8 6 C-8 5.01 -8 4.02 -8 3 C-9.49273437 3.25136719 -9.49273437 3.25136719 -11.015625 3.5078125 C-22.65892587 5.27045342 -33.3627887 4.56446481 -45 3 C-45 2.67 -45 2.34 -45 2 C-44.02389771 2.01571045 -44.02389771 2.01571045 -43.02807617 2.03173828 C-40.0812567 2.07329835 -37.13449889 2.09932608 -34.1875 2.125 C-33.16333984 2.14175781 -32.13917969 2.15851563 -31.08398438 2.17578125 C-30.10107422 2.18222656 -29.11816406 2.18867188 -28.10546875 2.1953125 C-27.19949951 2.20578613 -26.29353027 2.21625977 -25.36010742 2.22705078 C-22.73063552 2.16165391 -22.73063552 2.16165391 -20 0 C-13.52170166 -1.54245198 -6.46554234 -1.66852705 0 0 Z " fill="#42424A" transform="translate(87,134)"/>
<path d="M0 0 C3.96734457 3.76646637 7.23338664 7.76025364 10.4375 12.1875 C10.91759521 12.84661377 11.39769043 13.50572754 11.89233398 14.18481445 C16.02743192 19.92136245 20.03545948 25.77959926 23.02734375 32.20703125 C23.87363123 34.17554267 23.87363123 34.17554267 26 35 C26 35.99 26 36.98 26 38 C24 38 24 38 22.375 36.625 C21 35 21 35 21 33 C20.34 33 19.68 33 19 33 C18.67 32.01 18.34 31.02 18 30 C15.98491642 29.26676204 15.98491642 29.26676204 14 29 C14 28.01 14 27.02 14 26 C13.34 26 12.68 26 12 26 C11.62488281 24.86820313 11.24976563 23.73640625 10.86328125 22.5703125 C10.3473537 21.08819335 9.83037129 19.6064411 9.3125 18.125 C8.94608398 17.00544922 8.94608398 17.00544922 8.57226562 15.86328125 C7.02964228 11.32009809 7.02964228 11.32009809 3.29296875 8.4921875 C2.53628906 8.32976562 1.77960938 8.16734375 1 8 C0.67 5.36 0.34 2.72 0 0 Z " fill="#403F47" transform="translate(121,69)"/>
<path d="M0 0 C0.33 0.66 0.66 1.32 1 2 C1.66 2 2.32 2 3 2 C3.33 2.99 3.66 3.98 4 5 C4.66 5.66 5.32 6.32 6 7 C5.34 8.32 4.68 9.64 4 11 C4.66 11 5.32 11 6 11 C6.66 13.64 7.32 16.28 8 19 C6.68 19.33 5.36 19.66 4 20 C3.67 20.66 3.34 21.32 3 22 C-4.625 21.125 -4.625 21.125 -8 20 C-7.360625 19.896875 -6.72125 19.79375 -6.0625 19.6875 C-5.0415625 19.3471875 -5.0415625 19.3471875 -4 19 C-3.67 18.01 -3.34 17.02 -3 16 C-2.34 15.67 -1.68 15.34 -1 15 C-1 13.68 -1 12.36 -1 11 C-0.34 10.67 0.32 10.34 1 10 C1.08004482 6.4780279 1.04005702 3.38018531 0 0 Z " fill="#121214" transform="translate(80,89)"/>
<path d="M0 0 C0 0.99 0 1.98 0 3 C0.61746094 2.855625 1.23492187 2.71125 1.87109375 2.5625 C7.72140455 1.2802401 13.01449037 0.80691904 19 1 C19 1.66 19 2.32 19 3 C7.35619131 4.89844707 -4.28224589 6.62619435 -16 8 C-16.33 6.35 -16.66 4.7 -17 3 C-15.515 3.99 -15.515 3.99 -14 5 C-12.9275 4.360625 -11.855 3.72125 -10.75 3.0625 C-7.02694008 0.93825412 -4.31514918 0 0 0 Z " fill="#08090A" transform="translate(115,116)"/>
<path d="M0 0 C3.58128772 3.38232729 6.60604303 6.67246241 9 11 C8.79427896 13.46865248 8.10063084 14.79873832 7 17 C6.34 17 5.68 17 5 17 C4.67 16.34 4.34 15.68 4 15 C1.65613191 14.08968728 1.65613191 14.08968728 -1.0625 13.375 C-1.98160156 13.11460938 -2.90070313 12.85421875 -3.84765625 12.5859375 C-4.91306641 12.29589844 -4.91306641 12.29589844 -6 12 C-4.79618552 9.50638429 -3.54571278 7.31856917 -2 5 C-1.01 5 -0.02 5 1 5 C0.67 3.35 0.34 1.7 0 0 Z " fill="#131315" transform="translate(131,96)"/>
<path d="M0 0 C0 0.66 0 1.32 0 2 C-1.0828125 2.1546875 -1.0828125 2.1546875 -2.1875 2.3125 C-5.24491993 3.05986932 -7.38329635 4.28045189 -10 6 C-10.33 5.67 -10.66 5.34 -11 5 C-11 5.99 -11 6.98 -11 8 C-8.03 8.495 -8.03 8.495 -5 9 C-5 9.33 -5 9.66 -5 10 C-7.97 9.67 -10.94 9.34 -14 9 C-14 8.01 -14 7.02 -14 6 C-14.66 6 -15.32 6 -16 6 C-16.33 6.66 -16.66 7.32 -17 8 C-16.34 8 -15.68 8 -15 8 C-15 8.66 -15 9.32 -15 10 C-16.32 10 -17.64 10 -19 10 C-19 7.69 -19 5.38 -19 3 C-20.65 3 -22.3 3 -24 3 C-24 2.67 -24 2.34 -24 2 C-20.75198175 1.46626918 -17.50138509 0.95028732 -14.25 0.4375 C-13.32960938 0.28603516 -12.40921875 0.13457031 -11.4609375 -0.02148438 C-10.12675781 -0.2293457 -10.12675781 -0.2293457 -8.765625 -0.44140625 C-7.94868164 -0.57232666 -7.13173828 -0.70324707 -6.29003906 -0.83813477 C-3.93889793 -1.00431883 -2.23573504 -0.70259545 0 0 Z " fill="#151518" transform="translate(110,116)"/>
<path d="M0 0 C4.12435615 0.71383087 7.9075202 1.97786168 11.25 4.5625 C11.98046875 6.703125 11.98046875 6.703125 12.25 8.5625 C6.92132017 9.67191367 1.78718145 9.67798069 -3.625 9.625 C-4.50414062 9.62048828 -5.38328125 9.61597656 -6.2890625 9.61132812 C-8.44273803 9.59962337 -10.59637817 9.58169069 -12.75 9.5625 C-12.75 9.2325 -12.75 8.9025 -12.75 8.5625 C-8.13 8.2325 -3.51 7.9025 1.25 7.5625 C1.25 6.9025 1.25 6.2425 1.25 5.5625 C-1.39 5.5625 -4.03 5.5625 -6.75 5.5625 C-3.61500655 0.73943316 -3.61500655 0.73943316 0 0 Z " fill="#38383E" transform="translate(132.75,111.4375)"/>
<path d="M0 0 C0.33 0.99 0.66 1.98 1 3 C1.66 3.33 2.32 3.66 3 4 C2.01 4.495 2.01 4.495 1 5 C0.731875 5.825 0.46375 6.65 0.1875 7.5 C-0.204375 8.325 -0.59625 9.15 -1 10 C-2.65821773 10.37309899 -4.32577014 10.70700977 -6 11 C-6.70151152 12.3153341 -7.36525925 13.65117592 -8 15 C-8.845625 15.495 -9.69125 15.99 -10.5625 16.5 C-13.16513821 17.75667017 -13.16513821 17.75667017 -13.8125 20.1875 C-13.874375 20.785625 -13.93625 21.38375 -14 22 C-16.31 22.66 -18.62 23.32 -21 24 C-21 22 -21 22 -18.9375 19.75 C-16.22942739 17.13504164 -13.35751534 14.72499633 -10.453125 12.33203125 C-8.87220817 11.0420309 -8.87220817 11.0420309 -8 9 C-7.34 9 -6.68 9 -6 9 C-5.67 7.02 -5.34 5.04 -5 3 C-3.68 3 -2.36 3 -1 3 C-0.67 2.01 -0.34 1.02 0 0 Z " fill="#212125" transform="translate(69,95)"/>
<path d="M0 0 C1.20591797 -0.00386719 2.41183594 -0.00773438 3.65429688 -0.01171875 C5.40516602 -0.00978516 5.40516602 -0.00978516 7.19140625 -0.0078125 C8.77417358 -0.00612061 8.77417358 -0.00612061 10.38891602 -0.00439453 C13.47879105 0.12675256 16.40093437 0.55285638 19.4375 1.125 C19.4375 1.455 19.4375 1.785 19.4375 2.125 C14.73546986 3.05447107 10.18937765 3.25723651 5.4140625 3.22265625 C4.66788666 3.2212413 3.92171082 3.21982635 3.15292358 3.21836853 C0.78940682 3.21280874 -1.57401227 3.20026389 -3.9375 3.1875 C-5.54817571 3.1824798 -7.15885291 3.1779178 -8.76953125 3.17382812 C-12.70055799 3.16285251 -16.63151248 3.14561596 -20.5625 3.125 C-20.5625 2.465 -20.5625 1.805 -20.5625 1.125 C-13.72889403 -0.14309183 -6.93200547 -0.02230136 0 0 Z " fill="#C1C1C6" transform="translate(112.5625,132.875)"/>
<path d="M0 0 C1.65 0 3.3 0 5 0 C6.65 3.63 8.3 7.26 10 11 C8.68 11.33 7.36 11.66 6 12 C5.360625 12.2475 4.72125 12.495 4.0625 12.75 C2 13 2 13 -0.625 12 C-3.76777181 9.35345532 -4.18039229 6.94901898 -5 3 C-4.34 3 -3.68 3 -3 3 C-2.01 4.485 -2.01 4.485 -1 6 C-0.01 6 0.98 6 2 6 C2 4.35 2 2.7 2 1 C1.34 0.67 0.68 0.34 0 0 Z " fill="#34353A" transform="translate(123,90)"/>
<path d="M0 0 C0.66 0 1.32 0 2 0 C2.33 1.98 2.66 3.96 3 6 C3.78375 6.061875 4.5675 6.12375 5.375 6.1875 C6.24125 6.455625 7.1075 6.72375 8 7 C9.3125 9.5625 9.3125 9.5625 10 12 C10.66 12 11.32 12 12 12 C12 13.32 12 14.64 12 16 C11.34 16 10.68 16 10 16 C10 17.32 10 18.64 10 20 C9.34 20 8.68 20 8 20 C8 19.34 8 18.68 8 18 C7.34 18 6.68 18 6 18 C5.87625 17.071875 5.87625 17.071875 5.75 16.125 C5.18741541 13.81562433 5.18741541 13.81562433 2.9375 12.75 C2.298125 12.5025 1.65875 12.255 1 12 C1.66 12 2.32 12 3 12 C3 11.01 3 10.02 3 9 C2.34 9 1.68 9 1 9 C0.67 6.03 0.34 3.06 0 0 Z " fill="#333338" transform="translate(106,64)"/>
<path d="M0 0 C1.60294922 0.15275391 1.60294922 0.15275391 3.23828125 0.30859375 C4.45064453 0.43427734 4.45064453 0.43427734 5.6875 0.5625 C5.6875 1.2225 5.6875 1.8825 5.6875 2.5625 C1.18559916 3.27751002 -3.31676329 3.9895115 -7.81958008 4.69873047 C-9.3512863 4.94041661 -10.88286317 5.18292403 -12.41430664 5.42626953 C-14.61571285 5.77592562 -16.81756751 6.1226246 -19.01953125 6.46875 C-19.70400833 6.5781189 -20.38848541 6.68748779 -21.09370422 6.8001709 C-23.87271518 7.23454499 -26.49400795 7.5625 -29.3125 7.5625 C-29.3125 6.9025 -29.3125 6.2425 -29.3125 5.5625 C-23.3725 5.0675 -23.3725 5.0675 -17.3125 4.5625 C-17.3125 3.5725 -17.3125 2.5825 -17.3125 1.5625 C-14.3425 2.0575 -14.3425 2.0575 -11.3125 2.5625 C-11.3125 1.9025 -11.3125 1.2425 -11.3125 0.5625 C-7.36602382 -0.42594951 -4.03857036 -0.39941905 0 0 Z " fill="#696A6E" transform="translate(106.3125,112.4375)"/>
<path d="M0 0 C1.65 0.33 3.3 0.66 5 1 C5.66 2.98 6.32 4.96 7 7 C6.4225 6.67 5.845 6.34 5.25 6 C2.80116138 4.72924102 2.80116138 4.72924102 -1 5 C-1.66 7.31 -2.32 9.62 -3 12 C-1.68 11.67 -0.36 11.34 1 11 C0.125 15.75 0.125 15.75 -1 18 C-1.66 18 -2.32 18 -3 18 C-3.66 16.68 -4.32 15.36 -5 14 C-5.33 15.32 -5.66 16.64 -6 18 C-6.66 18 -7.32 18 -8 18 C-8.33 18.99 -8.66 19.98 -9 21 C-9.33 20.34 -9.66 19.68 -10 19 C-8.80407001 16.28627245 -7.55273934 13.68902645 -6.1875 11.0625 C-5.81818359 10.33353516 -5.44886719 9.60457031 -5.06835938 8.85351562 C-3.49624101 5.77419581 -1.92201329 2.88301994 0 0 Z " fill="#707074" transform="translate(100,41)"/>
<path d="M0 0 C-0.33 0.33 -0.66 0.66 -1 1 C4.61 1.66 10.22 2.32 16 3 C16 3.33 16 3.66 16 4 C5.88438281 4.07955483 -4.20424185 3.82938884 -14.3125 3.5 C-15.84309308 3.45163644 -17.37369202 3.40345828 -18.90429688 3.35546875 C-22.60293448 3.23910907 -26.30148712 3.12026644 -30 3 C-27.59394499 0.59394499 -26.93522639 0.72568961 -23.640625 0.62109375 C-22.33738281 0.56985352 -22.33738281 0.56985352 -21.0078125 0.51757812 C-20.09773438 0.49115234 -19.18765625 0.46472656 -18.25 0.4375 C-11.33939228 0.22991429 -11.33939228 0.22991429 -4.484375 -0.58984375 C-2 -1 -2 -1 0 0 Z " fill="#656470" transform="translate(134,135)"/>
<path d="M0 0 C0.33 1.32 0.66 2.64 1 4 C1.66 4 2.32 4 3 4 C3.33 3.34 3.66 2.68 4 2 C4.33 3.32 4.66 4.64 5 6 C5.66 6 6.32 6 7 6 C7 7.65 7 9.3 7 11 C6.34 11 5.68 11 5 11 C4.67 12.32 4.34 13.64 4 15 C3.01 14.67 2.02 14.34 1 14 C1 13.01 1 12.02 1 11 C0.34 11 -0.32 11 -1 11 C-1 9.68 -1 8.36 -1 7 C-1.66 7 -2.32 7 -3 7 C-3.33 6.01 -3.66 5.02 -4 4 C-2.68 2.68 -1.36 1.36 0 0 Z M4 8 C4 8.66 4 9.32 4 10 C4.66 10 5.32 10 6 10 C6 9.34 6 8.68 6 8 C5.34 8 4.68 8 4 8 Z " fill="#18181A" transform="translate(82,80)"/>
<path d="M0 0 C0.86625 0.00644531 1.7325 0.01289063 2.625 0.01953125 C5 0.1875 5 0.1875 8 1.1875 C8.495 3.6625 8.495 3.6625 9 6.1875 C8.34 6.1875 7.68 6.1875 7 6.1875 C7 5.1975 7 4.2075 7 3.1875 C5.50726563 3.43886719 5.50726563 3.43886719 3.984375 3.6953125 C-7.65892587 5.45795342 -18.3627887 4.75196481 -30 3.1875 C-30 2.8575 -30 2.5275 -30 2.1875 C-29.02389771 2.20321045 -29.02389771 2.20321045 -28.02807617 2.21923828 C-25.0812567 2.26079835 -22.13449889 2.28682608 -19.1875 2.3125 C-18.16333984 2.32925781 -17.13917969 2.34601563 -16.08398438 2.36328125 C-15.10107422 2.36972656 -14.11816406 2.37617188 -13.10546875 2.3828125 C-12.19949951 2.39328613 -11.29353027 2.40375977 -10.36010742 2.41455078 C-6.39604316 2.03319361 -4.27532478 -0.06998299 0 0 Z " fill="#7D7E85" transform="translate(72,133.8125)"/>
<path d="M0 0 C0 0.99 0 1.98 0 3 C-0.71027344 3.06058594 -1.42054688 3.12117187 -2.15234375 3.18359375 C-3.07144531 3.26738281 -3.99054688 3.35117188 -4.9375 3.4375 C-5.85402344 3.51871094 -6.77054688 3.59992188 -7.71484375 3.68359375 C-9.96159732 3.76044976 -9.96159732 3.76044976 -11 5 C-12.41844613 5.0165911 -13.83787607 4.9633054 -15.25390625 4.87890625 C-16.53491211 4.80639648 -16.53491211 4.80639648 -17.84179688 4.73242188 C-18.73962891 4.67634766 -19.63746094 4.62027344 -20.5625 4.5625 C-21.46419922 4.51029297 -22.36589844 4.45808594 -23.29492188 4.40429688 C-25.5302655 4.27419751 -27.7652089 4.13922064 -30 4 C-30 3.67 -30 3.34 -30 3 C-23.95170514 2.10395632 -18.1105424 1.88730557 -12 2 C-12 1.34 -12 0.68 -12 0 C-7.6835078 -0.76173392 -4.25566547 -1.16063604 0 0 Z " fill="#38373E" transform="translate(169,134)"/>
<path d="M0 0 C0.33 1.32 0.66 2.64 1 4 C0.01 4.33 -0.98 4.66 -2 5 C-1.7215625 5.928125 -1.7215625 5.928125 -1.4375 6.875 C-1 9 -1 9 -2 11 C-3.32 11 -4.64 11 -6 11 C-5.67 12.98 -5.34 14.96 -5 17 C-6.98 16.67 -8.96 16.34 -11 16 C-12.125 12.25 -12.125 12.25 -11 10 C-9.35 10 -7.7 10 -6 10 C-5.938125 9.278125 -5.87625 8.55625 -5.8125 7.8125 C-4.75543353 4.15342375 -2.79449929 2.50788398 0 0 Z " fill="#828287" transform="translate(47,119)"/>
<path d="M0 0 C-3.26620257 1.89077976 -6.09726057 2.43126486 -9.83203125 2.8515625 C-11.52489258 3.04492188 -11.52489258 3.04492188 -13.25195312 3.2421875 C-14.42693359 3.36851563 -15.60191406 3.49484375 -16.8125 3.625 C-17.97587891 3.7590625 -19.13925781 3.893125 -20.33789062 4.03125 C-25.92078542 4.65404304 -31.38195051 5.18043371 -37 5 C-37 4.34 -37 3.68 -37 3 C-24.6574572 0.91934221 -12.52102075 -0.22583003 0 0 Z " fill="#8E9095" transform="translate(139,120)"/>
<path d="M0 0 C5.76290142 5.25441012 9.86610116 11.49319087 13.25 18.5 C14.58333333 22.04166667 14.58333333 22.04166667 17 23 C17 23.99 17 24.98 17 26 C15 26 15 26 13.375 24.625 C12 23 12 23 12 21 C11.34 21 10.68 21 10 21 C9.67 18.69 9.34 16.38 9 14 C8.01 13.67 7.02 13.34 6 13 C5.67 12.01 5.34 11.02 5 10 C4.525625 9.5875 4.05125 9.175 3.5625 8.75 C1.25897767 6.170055 0.81120597 3.30722434 0 0 Z " fill="#B3B2B9" transform="translate(130,81)"/>
<path d="M0 0 C2.66666667 0.66666667 5.33333333 1.33333333 8 2 C7.67 2.99 7.34 3.98 7 5 C7.99 5 8.98 5 10 5 C10 5.99 10 6.98 10 8 C9.04287109 8.07347656 9.04287109 8.07347656 8.06640625 8.1484375 C6.82697266 8.26058594 6.82697266 8.26058594 5.5625 8.375 C4.73878906 8.44460937 3.91507812 8.51421875 3.06640625 8.5859375 C2.04353516 8.79089844 2.04353516 8.79089844 1 9 C0.67 9.66 0.34 10.32 0 11 C-0.07427838 7.65747276 -0.06546953 5.1964086 1 2 C0.67 1.34 0.34 0.68 0 0 Z " fill="#121213" transform="translate(93,78)"/>
<path d="M0 0 C0.66 0 1.32 0 2 0 C2 4 2 4 0.1875 6.25 C-2 8 -2 8 -5 8 C-5.33 8.66 -5.66 9.32 -6 10 C-7.32 10 -8.64 10 -10 10 C-10.33 11.98 -10.66 13.96 -11 16 C-11.66 16 -12.32 16 -13 16 C-13.66 17.32 -14.32 18.64 -15 20 C-15 16.80389448 -14.45328458 15.58282374 -13 12.8125 C-12.62875 12.09707031 -12.2575 11.38164063 -11.875 10.64453125 C-11.58625 10.10183594 -11.2975 9.55914062 -11 9 C-10.34 9 -9.68 9 -9 9 C-9 8.01 -9 7.02 -9 6 C-7.6078125 5.62875 -7.6078125 5.62875 -6.1875 5.25 C-2.77824707 3.91303807 -1.96587748 2.94881621 0 0 Z " fill="#26252A" transform="translate(74,88)"/>
<path d="M0 0 C0.33 0.66 0.66 1.32 1 2 C1.59296875 2.06445312 2.1859375 2.12890625 2.796875 2.1953125 C6.3593942 3.49651632 7.53648378 6.69547545 9.25 9.875 C9.61351563 10.51308594 9.97703125 11.15117188 10.3515625 11.80859375 C11.97129628 14.7253324 13 16.61457647 13 20 C10.5 18.25 10.5 18.25 8 16 C8 14.68 8 13.36 8 12 C7.38125 11.7525 6.7625 11.505 6.125 11.25 C3.60474173 9.76749514 2.98768341 8.71612936 2 6 C2 5.01 2 4.02 2 3 C1.34 3 0.68 3 0 3 C0 2.01 0 1.02 0 0 Z " fill="#4B4B4D" transform="translate(107,49)"/>
<path d="M0 0 C0.125 2.375 0.125 2.375 0 5 C-0.66 5.66 -1.32 6.32 -2 7 C-2.99 7 -3.98 7 -5 7 C-5 6.34 -5 5.68 -5 5 C-7.64 5 -10.28 5 -13 5 C-12.67 4.34 -12.34 3.68 -12 3 C-11.34 3 -10.68 3 -10 3 C-10 2.34 -10 1.68 -10 1 C-6.52674819 -0.1577506 -3.63932552 -0.06866652 0 0 Z " fill="#19191B" transform="translate(104,86)"/>
<path d="M0 0 C1.00016187 2.00032373 1.49396008 3.83125748 2 6 C2.99 5.01 3.98 4.02 5 3 C3.94124926 6.40312738 2.99097846 9.01353231 1 12 C0.34 12 -0.32 12 -1 12 C-1.66 11.34 -2.32 10.68 -3 10 C-4.32 11.32 -5.64 12.64 -7 14 C-7.66 13.67 -8.32 13.34 -9 13 C-8.51789063 12.39671875 -8.03578125 11.7934375 -7.5390625 11.171875 C-6.90742187 10.37265625 -6.27578125 9.5734375 -5.625 8.75 C-4.99851562 7.96109375 -4.37203125 7.1721875 -3.7265625 6.359375 C-2.21089263 4.28818811 -1.05780366 2.32930503 0 0 Z " fill="#5D5E61" transform="translate(84,72)"/>
<path d="M0 0 C0.66 0.33 1.32 0.66 2 1 C2.125 3.375 2.125 3.375 2 6 C0 8 0 8 -1.98828125 8.16015625 C-3.13876953 8.11181641 -3.13876953 8.11181641 -4.3125 8.0625 C-7.03727325 7.9882674 -9.13299352 8.02955412 -11.8125 8.625 C-14.52977662 9.09081885 -15.70843405 8.44283782 -18 7 C-16.865625 6.855625 -15.73125 6.71125 -14.5625 6.5625 C-11.19222799 6.38828522 -11.19222799 6.38828522 -10 5 C-8.31391034 4.92794489 -6.62499341 4.91613932 -4.9375 4.9375 C-4.01839844 4.94652344 -3.09929687 4.95554688 -2.15234375 4.96484375 C-1.44207031 4.97644531 -0.73179687 4.98804688 0 5 C0 3.35 0 1.7 0 0 Z " fill="#818189" transform="translate(169,132)"/>
<path d="M0 0 C0.33 0.66 0.66 1.32 1 2 C2.65 1.67 4.3 1.34 6 1 C6.33 2.98 6.66 4.96 7 7 C5.68 6.67 4.36 6.34 3 6 C2.67 6.99 2.34 7.98 2 9 C1.67 7.02 1.34 5.04 1 3 C0.34 3 -0.32 3 -1 3 C-0.34 4.65 0.32 6.3 1 8 C0.01 8.495 0.01 8.495 -1 9 C-1.66 8.67 -2.32 8.34 -3 8 C-3 5.69 -3 3.38 -3 1 C-2.01 0.67 -1.02 0.34 0 0 Z " fill="#1D1C20" transform="translate(119,90)"/>
<path d="M0 0 C2 2 2 2 2.125 5.125 C2.08375 6.07375 2.0425 7.0225 2 8 C1.34 8 0.68 8 0 8 C-0.33 9.32 -0.66 10.64 -1 12 C-1.66 12 -2.32 12 -3 12 C-3 13.32 -3 14.64 -3 16 C-3.99 16 -4.98 16 -6 16 C-5.67 14.35 -5.34 12.7 -5 11 C-4.01 11 -3.02 11 -2 11 C-2.33 9.02 -2.66 7.04 -3 5 C-2.34 5 -1.68 5 -1 5 C-0.67 3.35 -0.34 1.7 0 0 Z " fill="#131315" transform="translate(95,54)"/>
<path d="M0 0 C1.65 0 3.3 0 5 0 C6.65 3.63 8.3 7.26 10 11 C9.01 11.495 9.01 11.495 8 12 C6.62437146 10.71034824 5.29233607 9.37310707 4 8 C4 7.34 4 6.68 4 6 C3.34 6 2.68 6 2 6 C2 4.35 2 2.7 2 1 C1.34 0.67 0.68 0.34 0 0 Z " fill="#46464D" transform="translate(123,90)"/>
<path d="M0 0 C0.33 1.32 0.66 2.64 1 4 C1.66 4 2.32 4 3 4 C3 4.66 3 5.32 3 6 C3.99 6 4.98 6 6 6 C6.33 7.32 6.66 8.64 7 10 C4.55492066 10.87324262 3.32299678 11.10151327 0.8125 10.3125 C-1 9 -1 9 -1.875 7.1875 C-2.0358641 4.37237823 -1.19164995 2.523494 0 0 Z " fill="#1D1E21" transform="translate(111,78)"/>
<path d="M0 0 C16.8929385 -0.18451025 16.8929385 -0.18451025 24 1 C23.67 1.99 23.34 2.98 23 4 C15.41 3.01 7.82 2.02 0 1 C0 0.67 0 0.34 0 0 Z " fill="#7A7B81" transform="translate(138,131)"/>
<path d="M0 0 C1.9375 0.125 1.9375 0.125 4 1 C5.52164099 3.89111788 6 5.71823412 6 9 C4.35 8.67 2.7 8.34 1 8 C0.34 5.69 -0.32 3.38 -1 1 C-0.67 0.67 -0.34 0.34 0 0 Z " fill="#060707" transform="translate(123,77)"/>
<path d="M0 0 C0.66 1.32 1.32 2.64 2 4 C1.01 4.33 0.02 4.66 -1 5 C-1.73323796 7.01508358 -1.73323796 7.01508358 -2 9 C-1.01 9.33 -0.02 9.66 1 10 C0.01 11.485 0.01 11.485 -1 13 C-1.66 13 -2.32 13 -3 13 C-3.33 12.34 -3.66 11.68 -4 11 C-4.66 11 -5.32 11 -6 11 C-3.76687117 3.98159509 -3.76687117 3.98159509 -2 1 C-1.34 0.67 -0.68 0.34 0 0 Z " fill="#4A494C" transform="translate(91,61)"/>
<path d="M0 0 C1.41791408 0.45445964 2.83428046 0.91374944 4.25 1.375 C5.43335938 1.75785156 5.43335938 1.75785156 6.640625 2.1484375 C8.86627958 2.95173667 10.90931672 3.89711662 13 5 C13 5.33 13 5.66 13 6 C9.37 6 5.74 6 2 6 C2 5.01 2 4.02 2 3 C1.34 3 0.68 3 0 3 C-0.33 3.99 -0.66 4.98 -1 6 C-1.625 4.125 -1.625 4.125 -2 2 C-1.34 1.34 -0.68 0.68 0 0 Z " fill="#82838B" transform="translate(123,106)"/>
<path d="M0 0 C2.31 0.33 4.62 0.66 7 1 C7 2.98 7 4.96 7 7 C5.35 7 3.7 7 2 7 C1.67 6.01 1.34 5.02 1 4 C0.34 4 -0.32 4 -1 4 C-0.67 2.68 -0.34 1.36 0 0 Z " fill="#313136" transform="translate(85,96)"/>
<path d="M0 0 C1.65 0 3.3 0 5 0 C5 1.65 5 3.3 5 5 C4.34 5 3.68 5 3 5 C2.67 6.32 2.34 7.64 2 9 C1.01 8.67 0.02 8.34 -1 8 C-1 7.01 -1 6.02 -1 5 C-1.66 5 -2.32 5 -3 5 C-3 4.34 -3 3.68 -3 3 C-2.01 3 -1.02 3 0 3 C0 2.01 0 1.02 0 0 Z M2 2 C2 2.66 2 3.32 2 4 C2.66 4 3.32 4 4 4 C4 3.34 4 2.68 4 2 C3.34 2 2.68 2 2 2 Z " fill="#69696D" transform="translate(84,86)"/>
<path d="M0 0 C0 0.66 0 1.32 0 2 C0.66 2.33 1.32 2.66 2 3 C0.35 3.66 -1.3 4.32 -3 5 C-2.67 5.66 -2.34 6.32 -2 7 C-3.98 7 -5.96 7 -8 7 C-8.33 6.34 -8.66 5.68 -9 5 C-8.34 4.67 -7.68 4.34 -7 4 C-7.66 3.34 -8.32 2.68 -9 2 C-3.375 0 -3.375 0 0 0 Z " fill="#1B1B1E" transform="translate(130,111)"/>
<path d="M0 0 C4.455 0.99 4.455 0.99 9 2 C9.33 1.34 9.66 0.68 10 0 C10.33 1.32 10.66 2.64 11 4 C8.51229865 5.56633048 7.34447796 6.04100928 4.375 5.6875 C2 5 2 5 0 4 C0 2.68 0 1.36 0 0 Z " fill="#161618" transform="translate(120,84)"/>
<path d="M0 0 C0.66 0.66 1.32 1.32 2 2 C1.34 3.65 0.68 5.3 0 7 C-1.65 6.67 -3.3 6.34 -5 6 C-5.33 4.35 -5.66 2.7 -6 1 C-3.125 0.375 -3.125 0.375 0 0 Z " fill="#18181A" transform="translate(114,64)"/>
<path d="M0 0 C0.556875 0.721875 1.11375 1.44375 1.6875 2.1875 C4.81171524 5.98722123 7.8988088 9.26587253 12 12 C8.16652105 12.21905594 5.33768239 11.98456791 2 10 C0.35002837 6.38577643 0 4.00165194 0 0 Z " fill="#828286" transform="translate(150,111)"/>
<path d="M0 0 C1.65 0.33 3.3 0.66 5 1 C5 2.98 5 4.96 5 7 C2.09399739 8.25664978 0.20395416 9 -3 9 C-3 8.34 -3 7.68 -3 7 C-2.360625 6.731875 -1.72125 6.46375 -1.0625 6.1875 C1.33131686 5.11332248 1.33131686 5.11332248 2 2 C1.34 2 0.68 2 0 2 C0 1.34 0 0.68 0 0 Z " fill="#3F3F43" transform="translate(62,113)"/>
<path d="M0 0 C0.33 1.32 0.66 2.64 1 4 C0.01 4.495 0.01 4.495 -1 5 C-1.65213292 7.02463255 -1.65213292 7.02463255 -2 9 C-4.31 9.66 -6.62 10.32 -9 11 C-9 9 -9 9 -6.75 6.625 C-5.8425 5.75875 -4.935 4.8925 -4 4 C-3.236875 3.236875 -2.47375 2.47375 -1.6875 1.6875 C-1.130625 1.130625 -0.57375 0.57375 0 0 Z " fill="#6F6E73" transform="translate(57,108)"/>
<path d="M0 0 C-0.75 2.9375 -0.75 2.9375 -2 6 C-4.125 6.875 -4.125 6.875 -6 7 C-6.33 6.34 -6.66 5.68 -7 5 C-6.34 5 -5.68 5 -5 5 C-5 4.34 -5 3.68 -5 3 C-6.32 3 -7.64 3 -9 3 C-9 2.34 -9 1.68 -9 1 C-5.92677456 0.08941469 -3.19902639 -0.08886184 0 0 Z " fill="#5D5F66" transform="translate(115,100)"/>
<path d="M0 0 C0.66 0 1.32 0 2 0 C1.34 1.65 0.68 3.3 0 5 C1.65 4.34 3.3 3.68 5 3 C6 6 6 6 5 9 C4.01 9.33 3.02 9.66 2 10 C2 8.68 2 7.36 2 6 C0.35 5.67 -1.3 5.34 -3 5 C-2.67 4.01 -2.34 3.02 -2 2 C-1.34 2 -0.68 2 0 2 C0 1.34 0 0.68 0 0 Z " fill="#131415" transform="translate(65,108)"/>
<path d="M0 0 C1.8671875 0.25 1.8671875 0.25 4 1 C5.1953125 2.8125 5.1953125 2.8125 6.125 5 C7.33799788 8.15762198 7.33799788 8.15762198 10 10 C10 10.99 10 11.98 10 13 C8 13 8 13 6.375 11.625 C5 10 5 10 5 8 C4.34 8 3.68 8 3 8 C2.87625 6.865625 2.7525 5.73125 2.625 4.5625 C2.41875 3.386875 2.2125 2.21125 2 1 C1.34 0.67 0.68 0.34 0 0 Z " fill="#9D9DA5" transform="translate(137,94)"/>
<path d="M0 0 C4.62 0 9.24 0 14 0 C14 0.66 14 1.32 14 2 C15.32 2.33 16.64 2.66 18 3 C14.7 3.33 11.4 3.66 8 4 C7.67 3.34 7.34 2.68 7 2 C4.67843403 1.59270772 2.3431213 1.25561323 0 1 C0 0.67 0 0.34 0 0 Z " fill="#333338" transform="translate(129,128)"/>
<path d="M0 0 C0.66 0.33 1.32 0.66 2 1 C2 2.32 2 3.64 2 5 C2.66 5 3.32 5 4 5 C4 5.66 4 6.32 4 7 C0.37 7.33 -3.26 7.66 -7 8 C-5.68 7.34 -4.36 6.68 -3 6 C-2.67 5.01 -2.34 4.02 -2 3 C-1.34 2.67 -0.68 2.34 0 2 C0 1.34 0 0.68 0 0 Z " fill="#18181A" transform="translate(79,102)"/>
<path d="M0 0 C0.66 0 1.32 0 2 0 C2.67057887 1.7902061 3.3363469 3.58221489 4 5.375 C4.556875 6.87160156 4.556875 6.87160156 5.125 8.3984375 C6 11 6 11 6 13 C4.35 13 2.7 13 1 13 C1.66 12.67 2.32 12.34 3 12 C3 11.01 3 10.02 3 9 C2.34 9 1.68 9 1 9 C0.67 6.03 0.34 3.06 0 0 Z " fill="#ABADB1" transform="translate(106,64)"/>
<path d="M0 0 C0.33 0.66 0.66 1.32 1 2 C2.32 1.67 3.64 1.34 5 1 C5.12375 2.134375 5.2475 3.26875 5.375 4.4375 C5.684375 6.2009375 5.684375 6.2009375 6 8 C6.66 8.33 7.32 8.66 8 9 C7.01 9 6.02 9 5 9 C5 9.66 5 10.32 5 11 C4.34 11 3.68 11 3 11 C3 8.69 3 6.38 3 4 C1.68 4 0.36 4 -1 4 C-0.67 2.68 -0.34 1.36 0 0 Z " fill="#232226" transform="translate(97,49)"/>
<path d="M0 0 C0.33 0.66 0.66 1.32 1 2 C1.66 2 2.32 2 3 2 C3 1.34 3 0.68 3 0 C3.99 0 4.98 0 6 0 C5 3 5 3 3.0625 4.125 C2.381875 4.41375 1.70125 4.7025 1 5 C0.01 5.495 0.01 5.495 -1 6 C-1 5.34 -1 4.68 -1 4 C-2.32 4 -3.64 4 -5 4 C-4.67 3.01 -4.34 2.02 -4 1 C-1.9375 0.3125 -1.9375 0.3125 0 0 Z " fill="#202024" transform="translate(114,109)"/>
<path d="M0 0 C3.26008643 3.16952847 6.22237877 6.39937989 9 10 C8.67 10.66 8.34 11.32 8 12 C7.38125 11.2884375 7.38125 11.2884375 6.75 10.5625 C4.817815 8.83733482 3.51807725 8.43415125 1 8 C0.67 5.36 0.34 2.72 0 0 Z " fill="#707073" transform="translate(121,69)"/>
<path d="M0 0 C0 0.99 0 1.98 0 3 C-2.97 3 -5.94 3 -9 3 C-8.67 2.01 -8.34 1.02 -8 0 C-4.71023192 -1.09658936 -3.28696233 -0.79953138 0 0 Z " fill="#201F24" transform="translate(169,134)"/>
<path d="M0 0 C0 0.66 0 1.32 0 2 C-0.7425 2.144375 -1.485 2.28875 -2.25 2.4375 C-4.52027739 2.90187492 -6.75759479 3.41863569 -9 4 C-9 3.01 -9 2.02 -9 1 C-9.99 0.67 -10.98 0.34 -12 0 C-3.42857143 -1.28571429 -3.42857143 -1.28571429 0 0 Z " fill="#262629" transform="translate(110,116)"/>
<path d="M0 0 C0.33 0.99 0.66 1.98 1 3 C1.66 3.33 2.32 3.66 3 4 C2.01 4.495 2.01 4.495 1 5 C1 5.66 1 6.32 1 7 C-0.98 7 -2.96 7 -5 7 C-5 5.68 -5 4.36 -5 3 C-3.68 3 -2.36 3 -1 3 C-0.67 2.01 -0.34 1.02 0 0 Z " fill="#17171A" transform="translate(69,95)"/>
<path d="M0 0 C1.32 0.33 2.64 0.66 4 1 C4 2.65 4 4.3 4 6 C2.02 6 0.04 6 -2 6 C-2 5.01 -2 4.02 -2 3 C-1.34 3 -0.68 3 0 3 C0 2.01 0 1.02 0 0 Z " fill="#7D7D83" transform="translate(102,58)"/>
<path d="M0 0 C0.33 0.99 0.66 1.98 1 3 C1.66 3.33 2.32 3.66 3 4 C2.34 4 1.68 4 1 4 C1.33 5.32 1.66 6.64 2 8 C0.35 8.33 -1.3 8.66 -3 9 C-2.67 8.01 -2.34 7.02 -2 6 C-2.66 5.67 -3.32 5.34 -4 5 C-3.34 5 -2.68 5 -2 5 C-2.33 4.01 -2.66 3.02 -3 2 C-2.01 2 -1.02 2 0 2 C0 1.34 0 0.68 0 0 Z " fill="#2A292E" transform="translate(99,57)"/>
<path d="M0 0 C0.66 0 1.32 0 2 0 C2 1.32 2 2.64 2 4 C-1.67410785 5.17571451 -5.16929183 5.07366746 -9 5 C-8.67 4.34 -8.34 3.68 -8 3 C-5.66666667 2.66666667 -3.33333333 2.33333333 -1 2 C-0.67 1.34 -0.34 0.68 0 0 Z " fill="#46474F" transform="translate(123,109)"/>
<path d="M0 0 C0.33 1.32 0.66 2.64 1 4 C0.34 4 -0.32 4 -1 4 C-1.33 5.98 -1.66 7.96 -2 10 C-2.66 10 -3.32 10 -4 10 C-4.66 11.32 -5.32 12.64 -6 14 C-6 10.80389448 -5.45328458 9.58282374 -4 6.8125 C-3.62875 6.09707031 -3.2575 5.38164063 -2.875 4.64453125 C-2.441875 3.83048828 -2.441875 3.83048828 -2 3 C-1.34 3 -0.68 3 0 3 C0 2.01 0 1.02 0 0 Z " fill="#9B9A9E" transform="translate(65,94)"/>
<path d="M0 0 C2.48862878 3.23521742 4.75421558 6.59260295 7 10 C6.67 10.66 6.34 11.32 6 12 C1.30021142 9.10782241 1.30021142 9.10782241 0.4453125 5.953125 C0.21402785 3.97669255 0.09937182 1.98743631 0 0 Z " fill="#727274" transform="translate(114,57)"/>
<path d="M0 0 C1.60875 0.3403125 1.60875 0.3403125 3.25 0.6875 C3.58 2.3375 3.91 3.9875 4.25 5.6875 C3.59 5.6875 2.93 5.6875 2.25 5.6875 C2.25 4.6975 2.25 3.7075 2.25 2.6875 C-1.05 2.6875 -4.35 2.6875 -7.75 2.6875 C-3.75 -0.3125 -3.75 -0.3125 0 0 Z " fill="#92919E" transform="translate(76.75,134.3125)"/>
<path d="M0 0 C4.87664009 -0.34833144 7.77050005 0.58314288 12 3 C11.67 3.66 11.34 4.32 11 5 C10.01 4.67 9.02 4.34 8 4 C6.33378384 3.96125079 4.66605828 3.9549714 3 4 C3 3.34 3 2.68 3 2 C2.01 1.34 1.02 0.68 0 0 Z " fill="#4D4E57" transform="translate(130,112)"/>
<path d="M0 0 C0.66 0.33 1.32 0.66 2 1 C2 1.99 2 2.98 2 4 C2.66 4 3.32 4 4 4 C4.33 4.99 4.66 5.98 5 7 C2.03 6.67 -0.94 6.34 -4 6 C-3.34 5.67 -2.68 5.34 -2 5 C-1.67 4.01 -1.34 3.02 -1 2 C-0.67 1.34 -0.34 0.68 0 0 Z " fill="#18171B" transform="translate(100,94)"/>
<path d="M0 0 C0.66 0.33 1.32 0.66 2 1 C-1.32307692 6.78461538 -1.32307692 6.78461538 -4.75 7.875 C-5.4925 7.91625 -6.235 7.9575 -7 8 C-5.38405168 5.95880212 -3.7143618 3.95927063 -2 2 C-1.34 2 -0.68 2 0 2 C0 1.34 0 0.68 0 0 Z " fill="#93939A" transform="translate(73,86)"/>
<path d="M0 0 C2.4375 0.375 2.4375 0.375 5 1 C5.33 1.66 5.66 2.32 6 3 C3 5 3 5 -0.1875 4.625 C-1.115625 4.41875 -2.04375 4.2125 -3 4 C-2.01 3.67 -1.02 3.34 0 3 C0 2.01 0 1.02 0 0 Z " fill="#0A0A0B" transform="translate(132,104)"/>
<path d="M0 0 C0 0.66 0 1.32 0 2 C-2.97 2 -5.94 2 -9 2 C-9 1.34 -9 0.68 -9 0 C-5.93109813 -1.53445094 -3.29905734 -0.54984289 0 0 Z " fill="#101113" transform="translate(157,134)"/>
<path d="M0 0 C0.99 0.33 1.98 0.66 3 1 C3 1.66 3 2.32 3 3 C3.804375 3.12375 4.60875 3.2475 5.4375 3.375 C6.7059375 3.684375 6.7059375 3.684375 8 4 C8.33 4.66 8.66 5.32 9 6 C2.84765625 5.4140625 2.84765625 5.4140625 1 5 C0 3 0 3 0 0 Z " fill="#0F1011" transform="translate(134,129)"/>
<path d="M0 0 C0 0.99 0 1.98 0 3 C0.31088368 4.67099977 0.64080332 6.33871537 1 8 C0.01 8.495 0.01 8.495 -1 9 C-1.66 8.67 -2.32 8.34 -3 8 C-3 5.69 -3 3.38 -3 1 C-2.01 0.67 -1.02 0.34 0 0 Z " fill="#232327" transform="translate(119,90)"/>
<path d="M0 0 C0.33 0 0.66 0 1 0 C1.36923077 5.53846154 1.36923077 5.53846154 -0.5 7.875 C-1.2425 8.431875 -1.2425 8.431875 -2 9 C-3.125 4.25 -3.125 4.25 -2 2 C-1.34 2 -0.68 2 0 2 C0 1.34 0 0.68 0 0 Z " fill="#141416" transform="translate(87,70)"/>
<path d="M0 0 C2 2 2 2 2.125 5.125 C2.08375 6.07375 2.0425 7.0225 2 8 C2.66 8 3.32 8 4 8 C4 8.99 4 9.98 4 11 C3.34 11 2.68 11 2 11 C0.23537317 7.91190305 0 6.76687864 0 3 C-0.66 3 -1.32 3 -2 3 C-1 1 -1 1 0 0 Z " fill="#39393E" transform="translate(105,65)"/>
<path d="M0 0 C3.96 0 7.92 0 12 0 C12.33 0.99 12.66 1.98 13 3 C11.68 3.33 10.36 3.66 9 4 C8.67 3.34 8.34 2.68 8 2 C6.10466658 1.53476937 6.10466658 1.53476937 3.9375 1.375 C2.638125 1.25125 1.33875 1.1275 0 1 C0 0.67 0 0.34 0 0 Z " fill="#303034" transform="translate(136,125)"/>
<path d="M0 0 C1 2 1 2 0.0625 5.125 C-0.288125 6.07375 -0.63875 7.0225 -1 8 C-0.34 8 0.32 8 1 8 C0.67 8.99 0.34 9.98 0 11 C-0.99 10.67 -1.98 10.34 -3 10 C-3.6875 7.9375 -3.6875 7.9375 -4 6 C-3.34 5.67 -2.68 5.34 -2 5 C-1.27840576 3.35636866 -0.60648579 1.68949614 0 0 Z " fill="#212224" transform="translate(49,118)"/>
<path d="M0 0 C3.63 0.33 7.26 0.66 11 1 C11 1.66 11 2.32 11 3 C7.04 3 3.08 3 -1 3 C-0.67 2.01 -0.34 1.02 0 0 Z " fill="#424347" transform="translate(101,112)"/>
<path d="M0 0 C2.79872437 2.52788007 4.45773019 4.20411134 5 8 C2.525 7.01 2.525 7.01 0 6 C0 4.02 0 2.04 0 0 Z " fill="#42424C" transform="translate(115,100)"/>
<path d="M0 0 C0 0.66 0 1.32 0 2 C0.66 2 1.32 2 2 2 C0.768606 4.46278801 -0.78064923 5.42497687 -3 7 C-3 5.68 -3 4.36 -3 3 C-3.66 2.67 -4.32 2.34 -5 2 C-2 0 -2 0 0 0 Z " fill="#424149" transform="translate(79,85)"/>
<path d="M0 0 C1.32 0.33 2.64 0.66 4 1 C4.33 2.32 4.66 3.64 5 5 C4.34 5 3.68 5 3 5 C3 5.66 3 6.32 3 7 C2.34 7 1.68 7 1 7 C0.67 4.69 0.34 2.38 0 0 Z " fill="#151518" transform="translate(105,57)"/>
<path d="M0 0 C1.32 0 2.64 0 4 0 C4.33 1.98 4.66 3.96 5 6 C3.68 6 2.36 6 1 6 C0.67 4.02 0.34 2.04 0 0 Z " fill="#59585F" transform="translate(37,130)"/>
<path d="M0 0 C-0.66 0 -1.32 0 -2 0 C-1.67 0.99 -1.34 1.98 -1 3 C-3.64 3 -6.28 3 -9 3 C-6.07868595 -0.19953443 -4.37453972 -1.45817991 0 0 Z " fill="#2E2F35" transform="translate(135,114)"/>
<path d="M0 0 C-0.33 0.99 -0.66 1.98 -1 3 C-1.99 2.34 -2.98 1.68 -4 1 C-6.64632287 1.3121764 -6.64632287 1.3121764 -9 2 C-9 1.01 -9 0.02 -9 -1 C-3.375 -2.25 -3.375 -2.25 0 0 Z " fill="#2D2D34" transform="translate(104,101)"/>
<path d="M0 0 C3.26954202 0.56371414 4.82575883 1.49962266 7 4 C6.67 4.66 6.34 5.32 6 6 C4.68 5.67 3.36 5.34 2 5 C2 4.01 2 3.02 2 2 C1.34 2 0.68 2 0 2 C0 1.34 0 0.68 0 0 Z " fill="#36353E" transform="translate(133,93)"/>
<path d="M0 0 C1.67542976 0.28604898 3.34385343 0.61781233 5 1 C4.34 2.98 3.68 4.96 3 7 C2.01 6.67 1.02 6.34 0 6 C-0.38218767 4.34385343 -0.71395102 2.67542976 -1 1 C-0.67 0.67 -0.34 0.34 0 0 Z " fill="#5E5E64" transform="translate(112,76)"/>
<path d="M0 0 C0 0.99 0 1.98 0 3 C-3.3 2.67 -6.6 2.34 -10 2 C-10 1.67 -10 1.34 -10 1 C-6.59437148 0.22157062 -3.49234244 -0.09978121 0 0 Z " fill="#29292C" transform="translate(96,117)"/>
<path d="M0 0 C1.98 0 3.96 0 6 0 C6 0.66 6 1.32 6 2 C5.360625 2.12375 4.72125 2.2475 4.0625 2.375 C3.381875 2.58125 2.70125 2.7875 2 3 C1.67 3.66 1.34 4.32 1 5 C0.34 5 -0.32 5 -1 5 C-0.67 3.35 -0.34 1.7 0 0 Z " fill="#090A0B" transform="translate(108,108)"/>
<path d="M0 0 C3.3 0 6.6 0 10 0 C6 3 6 3 2 3 C2 2.34 2 1.68 2 1 C1.34 0.67 0.68 0.34 0 0 Z " fill="#1B1C1E" transform="translate(128,124)"/>
<path d="M0 0 C1.70884005 1.62339805 3.37446717 3.29319053 5 5 C5 5.66 5 6.32 5 7 C3.35 7 1.7 7 0 7 C0.33 6.34 0.66 5.68 1 5 C0.72057545 3.32345271 0.39171753 1.65391846 0 0 Z " fill="#27272B" transform="translate(131,96)"/>
<path d="M0 0 C-2 3 -2 3 -4 4 C-4 3.34 -4 2.68 -4 2 C-5.98 2.66 -7.96 3.32 -10 4 C-7.16124653 -0.25813021 -4.8137938 -0.13010254 0 0 Z " fill="#0F1011" transform="translate(106,64)"/>
<path d="M0 0 C-1.5 1.5625 -1.5 1.5625 -4 3 C-6.77437543 2.96823234 -9.25286467 2.50364148 -12 2 C-12 1.67 -12 1.34 -12 1 C-7.95858806 0.36605303 -4.0934693 -0.12404452 0 0 Z " fill="#A4A4AC" transform="translate(163,138)"/>
<path d="M0 0 C1.98 0 3.96 0 6 0 C5.01 0.495 5.01 0.495 4 1 C4 1.66 4 2.32 4 3 C5.65 3 7.3 3 9 3 C9 3.33 9 3.66 9 4 C3.48 4.368 3.48 4.368 1.125 2.5625 C0 1 0 1 0 0 Z " fill="#18181C" transform="translate(144,133)"/>
<path d="M0 0 C2.625 1.4375 2.625 1.4375 5 3 C4.67 3.66 4.34 4.32 4 5 C2.68 4.67 1.36 4.34 0 4 C0 3.34 0 2.68 0 2 C-0.66 1.67 -1.32 1.34 -2 1 C-1.34 0.67 -0.68 0.34 0 0 Z " fill="#242328" transform="translate(142,119)"/>
<path d="M0 0 C1.32 0.66 2.64 1.32 4 2 C1.6875 3.5625 1.6875 3.5625 -1 5 C-1.99 4.67 -2.98 4.34 -4 4 C-3.34 3.01 -2.68 2.02 -2 1 C-1.34 1.33 -0.68 1.66 0 2 C0 1.34 0 0.68 0 0 Z " fill="#0D0E0F" transform="translate(58,121)"/>
<path d="M0 0 C0 1.65 0 3.3 0 5 C-2.475 4.01 -2.475 4.01 -5 3 C-5 2.34 -5 1.68 -5 1 C-3 0 -3 0 0 0 Z " fill="#3B3B40" transform="translate(104,86)"/>
<path d="M0 0 C2 0.66666667 4 1.33333333 6 2 C6 2.66 6 3.32 6 4 C2.25 5.125 2.25 5.125 0 4 C0 2.68 0 1.36 0 0 Z " fill="#2B2B31" transform="translate(120,84)"/>
<path d="M0 0 C0.33 0.66 0.66 1.32 1 2 C-0.8125 5 -0.8125 5 -3 8 C-3.99 8 -4.98 8 -6 8 C-4.02 5.36 -2.04 2.72 0 0 Z " fill="#99999B" transform="translate(81,77)"/>
<path d="M0 0 C-0.33 1.65 -0.66 3.3 -1 5 C-1.66 5 -2.32 5 -3 5 C-3.33 4.34 -3.66 3.68 -4 3 C-4.99 2.34 -5.98 1.68 -7 1 C-4 0 -4 0 0 0 Z " fill="#2C2C30" transform="translate(139,108)"/>
<path d="M0 0 C2.475 0.99 2.475 0.99 5 2 C4.67 2.99 4.34 3.98 4 5 C4.66 5 5.32 5 6 5 C6 5.66 6 6.32 6 7 C5.01 7 4.02 7 3 7 C3 5.68 3 4.36 3 3 C2.34 3 1.68 3 1 3 C0.67 2.01 0.34 1.02 0 0 Z " fill="#131315" transform="translate(115,73)"/>
<path d="M0 0 C1.9375 0.3125 1.9375 0.3125 4 1 C4.33 1.99 4.66 2.98 5 4 C4.34 4 3.68 4 3 4 C2.67 4.66 2.34 5.32 2 6 C0 3 0 3 0 0 Z " fill="#3B3A42" transform="translate(110,70)"/>
</svg>
