<?xml version="1.0" encoding="UTF-8"?>
<svg version="1.1" xmlns="http://www.w3.org/2000/svg" width="200" height="202">
<path d="M0 0 C3.68355875 0.25849535 7.32595516 0.23557387 11.015625 0.1875 C13.47244107 0.22403258 15.74400187 0.5859005 18.1171875 1.21875 C19.1171875 4.21875 19.1171875 4.21875 18.4921875 6.40625 C17.84352856 9.37551345 17.84352856 9.37551345 19.5859375 12.45703125 C22.07491712 18.79360066 21.39598712 25.52603821 21.2421875 32.21875 C20.97617538 43.75935364 20.97617538 43.75935364 22.1171875 55.21875 C23.08205078 55.20134766 23.08205078 55.20134766 24.06640625 55.18359375 C30.11046683 55.12323936 36.02879537 55.40876082 42.046875 55.9453125 C45.36430516 56.20343109 48.67355881 56.29462207 52 56.3671875 C53.58421753 56.40888062 53.58421753 56.40888062 55.20043945 56.45141602 C57.31323536 56.50364889 59.42645848 56.54118719 61.53979492 56.56225586 C67.64631729 56.72955104 73.20970827 57.24825964 78.1171875 61.21875 C80.11600415 64.25853211 80.36453487 66.6857727 80.34765625 70.28125 C80.34572266 71.24289063 80.34378906 72.20453125 80.34179688 73.1953125 C80.32955078 74.19304687 80.31730469 75.19078125 80.3046875 76.21875 C80.3037207 77.71535156 80.3037207 77.71535156 80.30273438 79.2421875 C80.25407681 87.30853122 80.25407681 87.30853122 79.1171875 91.21875 C68.0305149 93.3162286 57.35590518 93.17331384 46.140625 92.53515625 C37.70316457 92.12036503 29.52517763 92.51298045 21.1171875 93.21875 C21.13289795 94.25281982 21.1486084 95.28688965 21.16479492 96.35229492 C21.21922804 100.20068527 21.25358599 104.04904179 21.28198242 107.89770508 C21.29703864 109.56117481 21.31748813 111.22460505 21.34350586 112.88793945 C21.38002957 115.28346522 21.39694532 117.67846467 21.41015625 120.07421875 C21.42564011 120.8139946 21.44112396 121.55377045 21.45707703 122.31596375 C21.458542 126.84385958 20.78608548 129.56162134 18.1171875 133.21875 C17.7871875 133.87875 17.4571875 134.53875 17.1171875 135.21875 C16.1271875 135.21875 15.1371875 135.21875 14.1171875 135.21875 C14.1171875 135.87875 14.1171875 136.53875 14.1171875 137.21875 C8.43797259 139.83582574 3.4337457 139.32381532 -2.6953125 139.03125 C-3.75041016 138.99966797 -4.80550781 138.96808594 -5.89257812 138.93554688 C-12.17871137 138.66530189 -17.13227556 137.79227136 -22.8828125 135.21875 C-22.33557567 131.84412285 -21.8279125 130.1364 -19.8828125 127.21875 C-20.5428125 126.22875 -21.2028125 125.23875 -21.8828125 124.21875 C-21.859375 122.1875 -21.859375 122.1875 -21.5078125 119.71875 C-20.53565638 111.2438361 -20.80338268 102.73539178 -20.8828125 94.21875 C-21.46023193 94.27933594 -22.03765137 94.33992188 -22.63256836 94.40234375 C-32.55514286 95.42437777 -42.46275282 96.41507431 -52.4453125 96.46875 C-53.12779053 96.47777344 -53.81026855 96.48679687 -54.51342773 96.49609375 C-58.45015875 96.47226186 -61.30994593 95.81062125 -64.8828125 94.21875 C-66.6443253 93.80215865 -68.41594383 93.42589882 -70.1953125 93.09375 C-71.07832031 92.92617187 -71.96132812 92.75859375 -72.87109375 92.5859375 C-73.86689453 92.40417969 -73.86689453 92.40417969 -74.8828125 92.21875 C-74.8209375 91.47625 -74.7590625 90.73375 -74.6953125 89.96875 C-74.61881105 87.17569158 -74.61881105 87.17569158 -76.40136719 85.36547852 C-78.27558792 82.64958813 -78.11602038 81.36407335 -77.7734375 78.12109375 C-77.67804688 77.15494141 -77.58265625 76.18878906 -77.484375 75.19335938 C-77.36835937 74.19111328 -77.25234375 73.18886719 -77.1328125 72.15625 C-76.98199219 70.64708008 -76.98199219 70.64708008 -76.828125 69.10742188 C-76.06211279 61.75665087 -76.06211279 61.75665087 -74.8828125 58.21875 C-71.40458135 57.05933962 -69.42385672 57.51054116 -65.8828125 58.21875 C-65.5528125 59.53875 -65.2228125 60.85875 -64.8828125 62.21875 C-63.3978125 61.72375 -63.3978125 61.72375 -61.8828125 61.21875 C-59.29735707 61.0622314 -56.72038488 60.94212479 -54.1328125 60.84375 C-46.95711548 60.512126 -40.23943395 59.46656056 -33.25 57.83984375 C-29.72278432 57.18923204 -26.4613522 57.11403446 -22.8828125 57.21875 C-22.8828125 56.55875 -22.8828125 55.89875 -22.8828125 55.21875 C-23.5428125 55.21875 -24.2028125 55.21875 -24.8828125 55.21875 C-25.3778125 51.25875 -25.3778125 51.25875 -25.8828125 47.21875 C-25.2228125 47.21875 -24.5628125 47.21875 -23.8828125 47.21875 C-23.59447072 43.09300864 -23.3097837 38.96703529 -23.02832031 34.84082031 C-22.93229259 33.44036232 -22.83530744 32.03996961 -22.73730469 30.63964844 C-21.98649106 19.93994399 -21.98649106 19.93994399 -21.8828125 9.21875 C-20.5628125 8.88875 -19.2428125 8.55875 -17.8828125 8.21875 C-17.8828125 7.55875 -17.8828125 6.89875 -17.8828125 6.21875 C-19.8628125 5.88875 -21.8428125 5.55875 -23.8828125 5.21875 C-23.8828125 3.56875 -23.8828125 1.91875 -23.8828125 0.21875 C-17.42423025 -3.01054113 -6.9893699 -0.60339884 0 0 Z M-6.8828125 15.21875 C-9.37242929 18.67747936 -9.15058885 22.19501935 -9.2578125 26.34375 C-9.72578212 38.42500658 -11.90658225 50.3105551 -13.8828125 62.21875 C-15.5328125 62.21875 -17.1828125 62.21875 -18.8828125 62.21875 C-18.975625 63.146875 -18.975625 63.146875 -19.0703125 64.09375 C-19.8828125 66.21875 -19.8828125 66.21875 -21.99902344 67.33007812 C-25.38615821 68.37386161 -28.29195599 68.50799167 -31.8359375 68.5625 C-32.82542389 68.5844342 -32.82542389 68.5844342 -33.8348999 68.60681152 C-35.93414287 68.65304408 -38.03329855 68.6873563 -40.1328125 68.71875 C-52.63044964 68.90237958 -52.63044964 68.90237958 -64.8828125 71.21875 C-64.9240625 72.435625 -64.9653125 73.6525 -65.0078125 74.90625 C-65.03101563 75.59074219 -65.05421875 76.27523437 -65.078125 76.98046875 C-64.84345727 79.66976091 -63.97471899 81.76410982 -62.8828125 84.21875 C-62.01527344 84.20714844 -61.14773437 84.19554688 -60.25390625 84.18359375 C-50.76262042 84.11761659 -41.27844298 84.27361257 -31.79104614 84.53713989 C-30.39991325 84.57471727 -29.00869162 84.60914852 -27.61740112 84.64035034 C-25.62881805 84.68599696 -23.64055945 84.74515119 -21.65234375 84.8046875 C-19.91368042 84.85181885 -19.91368042 84.85181885 -18.13989258 84.89990234 C-10.4487452 85.6528173 -10.4487452 85.6528173 -7.8828125 88.21875 C-7.75556155 89.9026056 -7.7069261 91.59263293 -7.6953125 93.28125 C-7.68113281 94.20035156 -7.66695312 95.11945313 -7.65234375 96.06640625 C-7.88089017 99.1924564 -8.56554821 101.99704524 -9.37280273 105.01733398 C-10.30328682 109.0336935 -10.62377774 113.12028065 -11.0078125 117.21875 C-11.09417969 118.08886719 -11.18054688 118.95898438 -11.26953125 119.85546875 C-11.47925857 121.97604499 -11.68179092 124.09733079 -11.8828125 126.21875 C-8.71000485 125.98826784 -5.53831361 125.7488145 -2.3671875 125.49609375 C-0.27442654 125.32951748 1.81919104 125.17266876 3.9140625 125.03515625 C5.99294944 124.86870942 8.05911932 124.55613823 10.1171875 124.21875 C13.74803571 118.77247768 12.59210631 111.44492262 11.6640625 105.140625 C11.19930922 102.81685858 10.69798402 100.51600767 10.1171875 98.21875 C10.7771875 98.21875 11.4371875 98.21875 12.1171875 98.21875 C11.7871875 96.23875 11.4571875 94.25875 11.1171875 92.21875 C9.4671875 92.21875 7.8171875 92.21875 6.1171875 92.21875 C6.1171875 90.56875 6.1171875 88.91875 6.1171875 87.21875 C7.0865625 86.97125 8.0559375 86.72375 9.0546875 86.46875 C10.0653125 86.05625 11.0759375 85.64375 12.1171875 85.21875 C12.85313952 83.19320397 12.85313952 83.19320397 13.1171875 81.21875 C19.89378942 81.03022012 26.16418397 80.99174447 32.73828125 82.7109375 C36.8009455 83.57817289 40.92000259 83.73294634 45.05859375 83.99609375 C47.45921558 84.17085166 49.74866664 84.44816195 52.1171875 84.84375 C57.75587531 85.63365239 63.48520121 84.77679742 69.1171875 84.21875 C68.7871875 82.56875 68.4571875 80.91875 68.1171875 79.21875 C69.1071875 78.88875 70.0971875 78.55875 71.1171875 78.21875 C71.045 77.54328125 70.9728125 76.8678125 70.8984375 76.171875 C70.805625 75.27984375 70.7128125 74.3878125 70.6171875 73.46875 C70.524375 72.58703125 70.4315625 71.7053125 70.3359375 70.796875 C70.1171875 68.21875 70.1171875 68.21875 70.1171875 64.21875 C65.50210976 63.17660309 65.50210976 63.17660309 61.1171875 64.21875 C58.7648133 64.31960841 56.4092183 64.34838947 54.0546875 64.34375 C53.34658936 64.3425415 52.63849121 64.34133301 51.90893555 64.34008789 C46.7309193 64.303098 41.59351962 64.02164879 36.4296875 63.65625 C29.24115009 63.15044497 22.28935859 63.40798283 15.1171875 64.21875 C14.1271875 62.23875 14.1271875 62.23875 13.1171875 60.21875 C12.4571875 60.21875 11.7971875 60.21875 11.1171875 60.21875 C11.12504272 58.42473755 11.12504272 58.42473755 11.13305664 56.59448242 C11.15114462 52.16089627 11.16263345 47.72731339 11.17211914 43.29370117 C11.17715065 41.37409924 11.18397648 39.45450114 11.19262695 37.53491211 C11.20474419 34.77717136 11.21042761 32.01948124 11.21484375 29.26171875 C11.22000504 28.40225143 11.22516632 27.54278412 11.23048401 26.65727234 C11.23059731 25.45636711 11.23059731 25.45636711 11.23071289 24.23120117 C11.2329335 23.5272673 11.23515411 22.82333344 11.23744202 22.09806824 C11.18278284 19.99053344 11.18278284 19.99053344 10.1171875 17.21875 C8.1371875 17.21875 6.1571875 17.21875 4.1171875 17.21875 C4.1171875 16.22875 4.1171875 15.23875 4.1171875 14.21875 C2.23 14.1878125 2.23 14.1878125 0.3046875 14.15625 C-0.75685547 14.13884766 -0.75685547 14.13884766 -1.83984375 14.12109375 C-4.08586711 14.13611783 -4.08586711 14.13611783 -6.8828125 15.21875 Z " fill="#0E0E0E" transform="translate(101.8828125,26.78125)"/>
<path d="M0 0 C7.92 0 15.84 0 24 0 C23.67 1.65 23.34 3.3 23 5 C22.34 5 21.68 5 21 5 C21.30808594 5.65355469 21.61617188 6.30710937 21.93359375 6.98046875 C23.25211112 10.71385311 23.66668405 14.39908489 24.0625 18.3125 C24.21977375 19.76695721 24.37732485 21.22138445 24.53515625 22.67578125 C24.61032471 23.3912915 24.68549316 24.10680176 24.76293945 24.84399414 C24.99873172 26.98846535 25.26852626 29.12630185 25.546875 31.265625 C26.47690713 38.93037253 25.97649175 45.53521419 24 53 C23.34 53 22.68 53 22 53 C22 52.01 22 51.02 22 50 C21.34 50 20.68 50 20 50 C18.50016915 47.0003383 18.76097945 43.88053039 18.68359375 40.5859375 C18.66281265 39.85629791 18.64203156 39.12665833 18.62062073 38.37490845 C18.55518083 36.04170237 18.49626632 33.70838279 18.4375 31.375 C18.39430947 29.79425905 18.35069501 28.21352961 18.30664062 26.6328125 C18.19950519 22.75532496 18.09822218 18.87772315 18 15 C17.401875 15.185625 16.80375 15.37125 16.1875 15.5625 C14 16 14 16 11 15 C11 14.01 11 13.02 11 12 C7.37 12.33 3.74 12.66 0 13 C-0.98133702 16.92534807 -1.17410278 20.21670956 -1.3125 24.25 C-1.66214264 31.90871636 -2.72686316 39.38118138 -4 46.9375 C-4.17829346 47.99807617 -4.35658691 49.05865234 -4.5402832 50.15136719 C-5.85592547 57.71185094 -5.85592547 57.71185094 -7 60 C-8.65 60 -10.3 60 -12 60 C-12.061875 60.78375 -12.12375 61.5675 -12.1875 62.375 C-13 65 -13 65 -15.11621094 66.14038086 C-18.49195496 67.14664522 -21.43080308 67.30628346 -24.953125 67.37890625 C-25.94261139 67.40439796 -25.94261139 67.40439796 -26.9520874 67.43040466 C-29.0512953 67.48322106 -31.15049167 67.52362022 -33.25 67.5625 C-45.65521251 67.81604816 -45.65521251 67.81604816 -58 69 C-57.34 72.96 -56.68 76.92 -56 81 C-50.39 81 -44.78 81 -39 81 C-39 81.66 -39 82.32 -39 83 C-38.30438965 82.98952637 -37.6087793 82.97905273 -36.89208984 82.96826172 C-33.71976377 82.92651363 -30.54749569 82.90061415 -27.375 82.875 C-25.73337891 82.84986328 -25.73337891 82.84986328 -24.05859375 82.82421875 C-13.71178492 82.76151082 -13.71178492 82.76151082 -9 85 C-8.01 85.99 -8.01 85.99 -7 87 C-7.99 87.495 -7.99 87.495 -9 88 C-9 89.65 -9 91.3 -9 93 C-9.99 93 -10.98 93 -12 93 C-12.66 91.02 -13.32 89.04 -14 87 C-15.32 87 -16.64 87 -18 87 C-18 87.66 -18 88.32 -18 89 C-20.31 88.67 -22.62 88.34 -25 88 C-25.33 88.66 -25.66 89.32 -26 90 C-30.29 90 -34.58 90 -39 90 C-39 90.66 -39 91.32 -39 92 C-41.64458379 93.32229189 -43.67761301 93.09677194 -46.625 93.0625 C-47.62789062 93.05347656 -48.63078125 93.04445313 -49.6640625 93.03515625 C-50.43492188 93.02355469 -51.20578125 93.01195313 -52 93 C-52.33 92.01 -52.66 91.02 -53 90 C-53.99 90.495 -53.99 90.495 -55 91 C-56.83128771 91.09608608 -58.66619959 91.12982579 -60.5 91.125 C-61.4796875 91.12757812 -62.459375 91.13015625 -63.46875 91.1328125 C-66 91 -66 91 -68 90 C-67.938125 89.2575 -67.87625 88.515 -67.8125 87.75 C-67.73599855 84.95694158 -67.73599855 84.95694158 -69.51855469 83.14672852 C-71.39277542 80.43083813 -71.23320788 79.14532335 -70.890625 75.90234375 C-70.79523438 74.93619141 -70.69984375 73.97003906 -70.6015625 72.97460938 C-70.48554687 71.97236328 -70.36953125 70.97011719 -70.25 69.9375 C-70.09917969 68.42833008 -70.09917969 68.42833008 -69.9453125 66.88867188 C-69.17930029 59.53790087 -69.17930029 59.53790087 -68 56 C-64.52176885 54.84058962 -62.54104422 55.29179116 -59 56 C-58.67 57.32 -58.34 58.64 -58 60 C-56.515 59.505 -56.515 59.505 -55 59 C-52.41454457 58.8434814 -49.83757238 58.72337479 -47.25 58.625 C-40.07430298 58.293376 -33.35662145 57.24781056 -26.3671875 55.62109375 C-22.83997182 54.97048204 -19.5785397 54.89528446 -16 55 C-16 54.34 -16 53.68 -16 53 C-16.66 53 -17.32 53 -18 53 C-18.495 49.04 -18.495 49.04 -19 45 C-18.34 45 -17.68 45 -17 45 C-16.94465088 44.30028076 -16.88930176 43.60056152 -16.83227539 42.87963867 C-16.57633892 39.64887349 -16.31942433 36.41818677 -16.0625 33.1875 C-15.97548828 32.08728516 -15.88847656 30.98707031 -15.79882812 29.85351562 C-15.24483527 22.89782755 -14.64873602 15.94750004 -14 9 C-12.35 8.67 -10.7 8.34 -9 8 C-8.67 7.01 -8.34 6.02 -8 5 C-5.36 5 -2.72 5 0 5 C-0.495 3.515 -0.495 3.515 -1 2 C-0.67 1.34 -0.34 0.68 0 0 Z " fill="#0B0C0B" transform="translate(95,29)"/>
<path d="M0 0 C3.68355875 0.25849535 7.32595516 0.23557387 11.015625 0.1875 C13.47244107 0.22403258 15.74400187 0.5859005 18.1171875 1.21875 C19.1171875 4.21875 19.1171875 4.21875 18.4921875 6.40625 C17.84352856 9.37551345 17.84352856 9.37551345 19.5859375 12.45703125 C22.07491712 18.79360066 21.39598712 25.52603821 21.2421875 32.21875 C20.97617538 43.75935364 20.97617538 43.75935364 22.1171875 55.21875 C23.08205078 55.20134766 23.08205078 55.20134766 24.06640625 55.18359375 C30.11046683 55.12323936 36.02879537 55.40876082 42.046875 55.9453125 C45.36430516 56.20343109 48.67355881 56.29462207 52 56.3671875 C53.05614502 56.39498291 54.11229004 56.42277832 55.20043945 56.45141602 C57.31323536 56.50364889 59.42645848 56.54118719 61.53979492 56.56225586 C67.64631729 56.72955104 73.20970827 57.24825964 78.1171875 61.21875 C80.11600415 64.25853211 80.36453487 66.6857727 80.34765625 70.28125 C80.34572266 71.24289063 80.34378906 72.20453125 80.34179688 73.1953125 C80.32955078 74.19304687 80.31730469 75.19078125 80.3046875 76.21875 C80.3037207 77.71535156 80.3037207 77.71535156 80.30273438 79.2421875 C80.25407681 87.30853122 80.25407681 87.30853122 79.1171875 91.21875 C77.12494034 91.59566162 75.12158873 91.91299388 73.1171875 92.21875 C72.07304687 92.37923828 72.07304687 92.37923828 71.0078125 92.54296875 C61.07460204 93.76089424 51.07037625 92.82999582 41.1171875 92.21875 C41.1171875 91.88875 41.1171875 91.55875 41.1171875 91.21875 C51.3471875 90.55875 61.5771875 89.89875 72.1171875 89.21875 C71.4571875 88.88875 70.7971875 88.55875 70.1171875 88.21875 C70.1171875 87.55875 70.1171875 86.89875 70.1171875 86.21875 C69.49150879 86.22398682 68.86583008 86.22922363 68.22119141 86.23461914 C65.39486693 86.25536618 62.56855845 86.26840286 59.7421875 86.28125 C58.75734375 86.28962891 57.7725 86.29800781 56.7578125 86.30664062 C55.34628906 86.31147461 55.34628906 86.31147461 53.90625 86.31640625 C52.60228271 86.32426147 52.60228271 86.32426147 51.27197266 86.33227539 C49.1171875 86.21875 49.1171875 86.21875 47.1171875 85.21875 C45.76610984 85.10342281 44.41028703 85.04038753 43.0546875 85.0078125 C42.25804687 84.97945313 41.46140625 84.95109375 40.640625 84.921875 C38.95855687 84.86979859 37.27622902 84.82552489 35.59375 84.7890625 C34.79710937 84.758125 34.00046875 84.7271875 33.1796875 84.6953125 C32.08333984 84.6655835 32.08333984 84.6655835 30.96484375 84.63525391 C29.1171875 84.21875 29.1171875 84.21875 27.1171875 81.21875 C28.1690625 81.363125 29.2209375 81.5075 30.3046875 81.65625 C35.19677621 82.27319192 40.10226164 82.61091372 45.01953125 82.9609375 C47.44289163 83.16262954 49.78358842 83.45357103 52.1796875 83.84375 C57.56858507 84.35697834 62.74933967 83.80026685 68.1171875 83.21875 C68.1171875 81.89875 68.1171875 80.57875 68.1171875 79.21875 C68.7771875 78.88875 69.4371875 78.55875 70.1171875 78.21875 C70.03339844 77.54328125 69.94960937 76.8678125 69.86328125 76.171875 C69.71052734 74.83382812 69.71052734 74.83382812 69.5546875 73.46875 C69.45027344 72.58703125 69.34585938 71.7053125 69.23828125 70.796875 C69.12262074 68.33442549 69.38080055 66.55336936 70.1171875 64.21875 C65.46665878 63.94942479 65.46665878 63.94942479 61.1171875 65.21875 C58.7648133 65.31960841 56.4092183 65.34838947 54.0546875 65.34375 C53.34658936 65.3425415 52.63849121 65.34133301 51.90893555 65.34008789 C46.7309193 65.303098 41.59351962 65.02164879 36.4296875 64.65625 C29.24115009 64.15044497 22.28935859 64.40798283 15.1171875 65.21875 C14.4571875 63.56875 13.7971875 61.91875 13.1171875 60.21875 C12.4571875 60.21875 11.7971875 60.21875 11.1171875 60.21875 C10.24452538 54.97975772 9.98308573 49.96552147 10.01953125 44.66015625 C10.0209462 43.87100327 10.02236115 43.08185028 10.02381897 42.26878357 C10.02937195 39.77289885 10.04191542 37.27710715 10.0546875 34.78125 C10.05970859 33.07877735 10.06427043 31.37630327 10.06835938 29.67382812 C10.07932592 25.52210012 10.09655759 21.37044078 10.1171875 17.21875 C12.94725752 20.04882002 12.46964676 22.83827852 12.53125 26.6328125 C12.55061615 27.36245209 12.5699823 28.09209167 12.5899353 28.84384155 C12.64977172 31.17702502 12.69613173 33.51025773 12.7421875 35.84375 C12.78036364 37.42450082 12.81941515 39.00523076 12.859375 40.5859375 C12.95547628 44.4633723 13.03949162 48.34090449 13.1171875 52.21875 C13.7771875 52.21875 14.4371875 52.21875 15.1171875 52.21875 C15.1171875 53.20875 15.1171875 54.19875 15.1171875 55.21875 C15.7771875 55.21875 16.4371875 55.21875 17.1171875 55.21875 C18.53190853 44.9620225 18.99598021 34.73276181 16.625 24.59765625 C15.9059273 21.22907722 15.63815536 17.85271595 15.3359375 14.42578125 C15.09358652 11.980633 14.67547526 9.61141182 14.1171875 7.21875 C14.7771875 6.88875 15.4371875 6.55875 16.1171875 6.21875 C16.4471875 4.89875 16.7771875 3.57875 17.1171875 2.21875 C9.1971875 2.21875 1.2771875 2.21875 -6.8828125 2.21875 C-6.5528125 4.19875 -6.2228125 6.17875 -5.8828125 8.21875 C-8.8528125 8.21875 -11.8228125 8.21875 -14.8828125 8.21875 C-15.2128125 8.87875 -15.5428125 9.53875 -15.8828125 10.21875 C-17.9453125 10.84375 -17.9453125 10.84375 -19.8828125 11.21875 C-19.8828125 13.19875 -19.8828125 15.17875 -19.8828125 17.21875 C-20.5428125 17.21875 -21.2028125 17.21875 -21.8828125 17.21875 C-21.8828125 14.57875 -21.8828125 11.93875 -21.8828125 9.21875 C-20.5628125 8.88875 -19.2428125 8.55875 -17.8828125 8.21875 C-17.8828125 7.55875 -17.8828125 6.89875 -17.8828125 6.21875 C-20.8528125 5.72375 -20.8528125 5.72375 -23.8828125 5.21875 C-23.8828125 3.56875 -23.8828125 1.91875 -23.8828125 0.21875 C-17.42423025 -3.01054113 -6.9893699 -0.60339884 0 0 Z " fill="#242525" transform="translate(101.8828125,26.78125)"/>
<path d="M0 0 C0.33 1.32 0.66 2.64 1 4 C2.30324219 3.98259766 2.30324219 3.98259766 3.6328125 3.96484375 C4.78523438 3.95582031 5.93765625 3.94679688 7.125 3.9375 C8.26195313 3.92589844 9.39890625 3.91429688 10.5703125 3.90234375 C13.8129156 3.994673 16.81932612 4.38610094 20 5 C20 5.66 20 6.32 20 7 C20.7425 6.505 21.485 6.01 22.25 5.5 C25 4 25 4 29 4 C29 3.34 29 2.68 29 2 C29.67546875 2.01160156 30.3509375 2.02320312 31.046875 2.03515625 C31.93890625 2.04417969 32.8309375 2.05320312 33.75 2.0625 C34.63171875 2.07410156 35.5134375 2.08570312 36.421875 2.09765625 C38.7818838 2.00826198 40.74498524 1.66912821 43 1 C42.45276317 4.37462715 41.9451 6.08235 40 9 C37.08251953 9.44824219 37.08251953 9.44824219 33.3828125 9.546875 C32.40246536 9.57735931 32.40246536 9.57735931 31.40231323 9.60845947 C30.01887991 9.64868095 28.63522605 9.68184207 27.25146484 9.70849609 C25.13957922 9.74971545 23.02919283 9.81236055 20.91796875 9.87890625 C10.48878977 10.16131755 10.48878977 10.16131755 6 9 C5.01 9.495 5.01 9.495 4 10 C4 10.66 4 11.32 4 12 C3.01 12 2.02 12 1 12 C1.66 16.29 2.32 20.58 3 25 C8.61 25 14.22 25 20 25 C20 25.66 20 26.32 20 27 C20.69561035 26.98952637 21.3912207 26.97905273 22.10791016 26.96826172 C25.28023623 26.92651363 28.45250431 26.90061415 31.625 26.875 C33.26662109 26.84986328 33.26662109 26.84986328 34.94140625 26.82421875 C45.28821508 26.76151082 45.28821508 26.76151082 50 29 C50.66 29.66 51.32 30.32 52 31 C51.01 31.495 51.01 31.495 50 32 C50 33.65 50 35.3 50 37 C49.01 37 48.02 37 47 37 C46.34 35.02 45.68 33.04 45 31 C43.68 31 42.36 31 41 31 C41 31.66 41 32.32 41 33 C38.69 32.67 36.38 32.34 34 32 C33.505 32.99 33.505 32.99 33 34 C28.71 34 24.42 34 20 34 C20 34.66 20 35.32 20 36 C17.35541621 37.32229189 15.32238699 37.09677194 12.375 37.0625 C11.37210938 37.05347656 10.36921875 37.04445312 9.3359375 37.03515625 C8.56507812 37.02355469 7.79421875 37.01195312 7 37 C6.67 36.01 6.34 35.02 6 34 C5.01 34.495 5.01 34.495 4 35 C2.16871229 35.09608608 0.33380041 35.12982579 -1.5 35.125 C-2.4796875 35.12757812 -3.459375 35.13015625 -4.46875 35.1328125 C-7 35 -7 35 -9 34 C-8.9071875 32.88625 -8.9071875 32.88625 -8.8125 31.75 C-8.73599855 28.95694158 -8.73599855 28.95694158 -10.51855469 27.14672852 C-12.39277542 24.43083813 -12.23320788 23.14532335 -11.890625 19.90234375 C-11.79523437 18.93619141 -11.69984375 17.97003906 -11.6015625 16.97460938 C-11.48554688 15.97236328 -11.36953125 14.97011719 -11.25 13.9375 C-11.14945313 12.93138672 -11.04890625 11.92527344 -10.9453125 10.88867188 C-10.17930029 3.53790087 -10.17930029 3.53790087 -9 0 C-5.93109813 -1.53445094 -3.29905734 -0.54984289 0 0 Z " fill="#111211" transform="translate(36,85)"/>
<path d="M0 0 C4.30499734 -0.04967599 8.60983993 -0.08584945 12.91503906 -0.10986328 C14.37763376 -0.11988105 15.84020863 -0.13349912 17.30273438 -0.15087891 C19.41281039 -0.17531439 21.52262012 -0.18652537 23.6328125 -0.1953125 C24.90012207 -0.20578613 26.16743164 -0.21625977 27.47314453 -0.22705078 C32.07261594 0.06905253 35.68422532 0.68422532 39 4 C39.64877442 9.66723539 39.18641167 15.08923915 37.57421875 20.5546875 C36.57893347 24.79311323 36.18162567 29.13202524 35.69775391 33.45385742 C35.35442496 36.45276736 34.95805515 39.12583454 34 42 C36.31 42 38.62 42 41 42 C41 42.33 41 42.66 41 43 C38.525 43.495 38.525 43.495 36 44 C36 44.99 36 45.98 36 47 C33.69 47.66 31.38 48.32 29 49 C29 49.99 29 50.98 29 52 C30.175625 51.814375 31.35125 51.62875 32.5625 51.4375 C39.05516528 50.70111145 49.05818799 50.02909399 55 53 C55.495 52.01 55.495 52.01 56 51 C57.485 51.495 57.485 51.495 59 52 C59 51.01 59 50.02 59 49 C59.99 48.67 60.98 48.34 62 48 C63.15835673 45.02496878 63.15835673 45.02496878 64 42 C64.33 41.67 64.66 41.34 65 41 C65.15988491 38.48119483 65.25934225 35.98657734 65.31640625 33.46484375 C65.3475779 32.33496788 65.3475779 32.33496788 65.37937927 31.18226624 C65.44495425 28.7674401 65.50379621 26.35250202 65.5625 23.9375 C65.6056777 22.30402471 65.64929173 20.6705609 65.69335938 19.03710938 C65.80146797 15.02485282 65.90048114 11.01251576 66 7 C71.28 7 76.56 7 82 7 C82 7.33 82 7.66 82 8 C77.05 8.33 72.1 8.66 67 9 C67.03480469 11.46855469 67.06960937 13.93710938 67.10546875 16.48046875 C67.12888687 18.87995244 67.14709056 21.27942323 67.16479492 23.67895508 C67.17985114 25.34242481 67.20030063 27.00585505 67.22631836 28.66918945 C67.26284207 31.06471522 67.27975782 33.45971467 67.29296875 35.85546875 C67.30845261 36.5952446 67.32393646 37.33502045 67.33988953 38.09721375 C67.3413545 42.62510958 66.66889798 45.34287134 64 49 C63.505 49.99 63.505 49.99 63 51 C62.01 51 61.02 51 60 51 C60 51.66 60 52.32 60 53 C54.32078509 55.61707574 49.3165582 55.10506532 43.1875 54.8125 C42.13240234 54.78091797 41.07730469 54.74933594 39.99023438 54.71679688 C33.70410113 54.44655189 28.75053694 53.57352136 23 51 C23.54723683 47.62537285 24.0549 45.91765 26 43 C25.34 42.01 24.68 41.02 24 40 C24.0234375 37.96875 24.0234375 37.96875 24.375 35.5 C25.34715612 27.0250861 25.07942982 18.51664178 25 10 C24.42258057 10.06058594 23.84516113 10.12117188 23.25024414 10.18359375 C13.32766964 11.20562777 3.42005968 12.19632431 -6.5625 12.25 C-7.24497803 12.25902344 -7.92745605 12.26804687 -8.63061523 12.27734375 C-12.51849352 12.2538076 -15.4966532 11.69451707 -19 10 C-16 8 -16 8 -14 8 C-13.67 8.66 -13.34 9.32 -13 10 C-8.71 10 -4.42 10 0 10 C0 9.34 0 8.68 0 8 C1.39025391 7.90912109 1.39025391 7.90912109 2.80859375 7.81640625 C4.00613281 7.73261719 5.20367187 7.64882812 6.4375 7.5625 C8.22994141 7.44068359 8.22994141 7.44068359 10.05859375 7.31640625 C12.88570244 7.32343886 12.88570244 7.32343886 14 6 C16.33944736 6.28730055 18.6739143 6.61936779 21 7 C21 6.34 21 5.68 21 5 C22.32 4.67 23.64 4.34 25 4 C26.4606285 6.64738916 27 7.89448334 27 11 C27.99 11 28.98 11 30 11 C29.7525 9.576875 29.7525 9.576875 29.5 8.125 C29 5 29 5 29 3 C23.0827441 1.78174143 17.14248484 1.66352622 11.125 1.4375 C10.05507812 1.39431641 8.98515625 1.35113281 7.8828125 1.30664062 C5.25532246 1.20107183 2.62774578 1.09896209 0 1 C0 0.67 0 0.34 0 0 Z " fill="#1F1F20" transform="translate(56,111)"/>
<path d="M0 0 C3.68355875 0.25849535 7.32595516 0.23557387 11.015625 0.1875 C13.47244107 0.22403258 15.74400187 0.5859005 18.1171875 1.21875 C19.1171875 4.21875 19.1171875 4.21875 18.4921875 6.40625 C17.84352856 9.37551345 17.84352856 9.37551345 19.5859375 12.45703125 C22.07491712 18.79360066 21.39598712 25.52603821 21.2421875 32.21875 C20.97617538 43.75935364 20.97617538 43.75935364 22.1171875 55.21875 C25.7471875 55.21875 29.3771875 55.21875 33.1171875 55.21875 C33.1171875 55.54875 33.1171875 55.87875 33.1171875 56.21875 C29.8171875 56.21875 26.5171875 56.21875 23.1171875 56.21875 C22.7871875 57.86875 22.4571875 59.51875 22.1171875 61.21875 C28.7171875 61.87875 35.3171875 62.53875 42.1171875 63.21875 C42.1171875 63.54875 42.1171875 63.87875 42.1171875 64.21875 C40.82748047 64.20134766 40.82748047 64.20134766 39.51171875 64.18359375 C31.3246823 64.12109729 23.26854667 64.46048403 15.1171875 65.21875 C14.4571875 63.56875 13.7971875 61.91875 13.1171875 60.21875 C12.4571875 60.21875 11.7971875 60.21875 11.1171875 60.21875 C10.24452538 54.97975772 9.98308573 49.96552147 10.01953125 44.66015625 C10.0209462 43.87100327 10.02236115 43.08185028 10.02381897 42.26878357 C10.02937195 39.77289885 10.04191542 37.27710715 10.0546875 34.78125 C10.05970859 33.07877735 10.06427043 31.37630327 10.06835938 29.67382812 C10.07932592 25.52210012 10.09655759 21.37044078 10.1171875 17.21875 C12.94725752 20.04882002 12.46964676 22.83827852 12.53125 26.6328125 C12.55061615 27.36245209 12.5699823 28.09209167 12.5899353 28.84384155 C12.64977172 31.17702502 12.69613173 33.51025773 12.7421875 35.84375 C12.78036364 37.42450082 12.81941515 39.00523076 12.859375 40.5859375 C12.95547628 44.4633723 13.03949162 48.34090449 13.1171875 52.21875 C13.7771875 52.21875 14.4371875 52.21875 15.1171875 52.21875 C15.1171875 53.20875 15.1171875 54.19875 15.1171875 55.21875 C15.7771875 55.21875 16.4371875 55.21875 17.1171875 55.21875 C18.53190853 44.9620225 18.99598021 34.73276181 16.625 24.59765625 C15.9059273 21.22907722 15.63815536 17.85271595 15.3359375 14.42578125 C15.09358652 11.980633 14.67547526 9.61141182 14.1171875 7.21875 C14.7771875 6.88875 15.4371875 6.55875 16.1171875 6.21875 C16.4471875 4.89875 16.7771875 3.57875 17.1171875 2.21875 C9.1971875 2.21875 1.2771875 2.21875 -6.8828125 2.21875 C-6.5528125 4.19875 -6.2228125 6.17875 -5.8828125 8.21875 C-8.8528125 8.21875 -11.8228125 8.21875 -14.8828125 8.21875 C-15.2128125 8.87875 -15.5428125 9.53875 -15.8828125 10.21875 C-17.9453125 10.84375 -17.9453125 10.84375 -19.8828125 11.21875 C-19.8828125 13.19875 -19.8828125 15.17875 -19.8828125 17.21875 C-20.5428125 17.21875 -21.2028125 17.21875 -21.8828125 17.21875 C-21.8828125 14.57875 -21.8828125 11.93875 -21.8828125 9.21875 C-20.5628125 8.88875 -19.2428125 8.55875 -17.8828125 8.21875 C-17.8828125 7.55875 -17.8828125 6.89875 -17.8828125 6.21875 C-20.8528125 5.72375 -20.8528125 5.72375 -23.8828125 5.21875 C-23.8828125 3.56875 -23.8828125 1.91875 -23.8828125 0.21875 C-17.42423025 -3.01054113 -6.9893699 -0.60339884 0 0 Z " fill="#4D4E4D" transform="translate(101.8828125,26.78125)"/>
<path d="M0 0 C0.66 0 1.32 0 2 0 C2.02472359 4.50235595 2.04287119 9.00467236 2.05493164 13.50708008 C2.0599596 15.0386626 2.06678284 16.57024033 2.07543945 18.10180664 C2.08757229 20.30356022 2.09324367 22.50525033 2.09765625 24.70703125 C2.10281754 25.39150833 2.10797882 26.07598541 2.11329651 26.78120422 C2.11391101 31.99165062 0.63612184 36.09163449 -1 41 C-1.99 41 -2.98 41 -4 41 C-4 41.99 -4 42.98 -4 44 C-8.0474246 44.77956232 -11.72205649 45.07796501 -15.8359375 44.87890625 C-16.89941406 44.83056641 -17.96289062 44.78222656 -19.05859375 44.73242188 C-20.15300781 44.67634766 -21.24742188 44.62027344 -22.375 44.5625 C-23.49261719 44.51029297 -24.61023438 44.45808594 -25.76171875 44.40429688 C-28.50813492 44.27519184 -31.25413422 44.14025096 -34 44 C-34.33 42.68 -34.66 41.36 -35 40 C-32.36 39.67 -29.72 39.34 -27 39 C-27.33 37.68 -27.66 36.36 -28 35 C-25.79248152 34.66131223 -23.58394089 34.32928311 -21.375 34 C-20.14523438 33.814375 -18.91546875 33.62875 -17.6484375 33.4375 C-14.3833973 33.04597484 -11.28287549 32.91919076 -8 33 C-7.67 33.99 -7.34 34.98 -7 36 C-5.07074944 32.76299924 -4.79775494 30.49412652 -4.9453125 26.75390625 C-4.96980469 25.75166016 -4.99429688 24.74941406 -5.01953125 23.71679688 C-5.08972251 21.61755825 -5.16782129 19.51856882 -5.25390625 17.41992188 C-5.42326245 9.66440401 -5.42326245 9.66440401 -3.0390625 5.921875 C-2.36617187 5.28765625 -1.69328125 4.6534375 -1 4 C-0.22166466 1.81785432 -0.22166466 1.81785432 0 0 Z " fill="#080808" transform="translate(119,119)"/>
<path d="M0 0 C0.33 0 0.66 0 1 0 C1.08333357 4.8333472 0.95261487 9.23692563 0 14 C0.66 14 1.32 14 2 14 C2 14.99 2 15.98 2 17 C2.66 17 3.32 17 4 17 C4.495 17.99 4.495 17.99 5 19 C7.56296049 17.71851975 7.59318218 16.84388481 8.5 14.1875 C9.48535419 11.33318596 10.60317396 8.67925684 12 6 C11.48446121 12.49850211 10.53332291 18.66226532 9 25 C7.35 25 5.7 25 4 25 C3.9071875 26.175625 3.9071875 26.175625 3.8125 27.375 C3 30 3 30 0.88378906 31.14038086 C-2.49195496 32.14664522 -5.43080308 32.30628346 -8.953125 32.37890625 C-9.94261139 32.40439796 -9.94261139 32.40439796 -10.9520874 32.43040466 C-13.0512953 32.48322106 -15.15049167 32.52362022 -17.25 32.5625 C-29.65521251 32.81604816 -29.65521251 32.81604816 -42 34 C-40.515 33.505 -40.515 33.505 -39 33 C-39 31.68 -39 30.36 -39 29 C-38.32839844 29.0721875 -37.65679687 29.144375 -36.96484375 29.21875 C-25.65449801 30.2695176 -14.34821776 30.09453212 -3 30 C-1.62420173 27.33788628 -0.62936439 24.93703384 0 22 C-0.639375 22.350625 -1.27875 22.70125 -1.9375 23.0625 C-6.1430267 24.34990613 -9.71464763 23.6908847 -14 23 C-14 23.66 -14 24.32 -14 25 C-18.455 26.485 -18.455 26.485 -23 28 C-23 27.34 -23 26.68 -23 26 C-28.28 25.67 -33.56 25.34 -39 25 C-39 24.67 -39 24.34 -39 24 C-37.94683594 23.96261719 -36.89367188 23.92523438 -35.80859375 23.88671875 C-27.0741565 23.51063855 -18.90137751 22.60733619 -10.3671875 20.62109375 C-6.83997182 19.97048204 -3.5785397 19.89528446 0 20 C0 19.34 0 18.68 0 18 C-0.66 18 -1.32 18 -2 18 C-2.495 14.04 -2.495 14.04 -3 10 C-2.34 10 -1.68 10 -1 10 C-0.67 6.7 -0.34 3.4 0 0 Z " fill="#1E1E1F" transform="translate(79,64)"/>
<path d="M0 0 C3.3 0 6.6 0 10 0 C10 0.66 10 1.32 10 2 C11.06959961 1.98428955 12.13919922 1.9685791 13.24121094 1.95239258 C17.21444145 1.89803949 21.18763916 1.86363049 25.16113281 1.83520508 C26.87993905 1.82013067 28.59870691 1.79966771 30.31738281 1.77368164 C32.78980997 1.73723835 35.261728 1.72026042 37.734375 1.70703125 C38.50118591 1.69154739 39.26799683 1.67606354 40.05804443 1.66011047 C44.32234178 1.65876927 46.91928048 1.9228297 50 5 C48.45627868 6.54372132 46.67572274 6.56721198 44.5625 7 C42.15670855 7.49428781 40.19915754 7.90042123 38 9 C35.50706995 9.12655961 33.0558379 9.19006986 30.5625 9.1875 C29.4782373 9.18737915 29.4782373 9.18737915 28.37207031 9.18725586 C23.3273953 9.13398284 18.61750484 8.57701853 13.6796875 7.50390625 C9.59316921 6.73545019 5.48363186 6.55699907 1.3359375 6.34375 C0.56507812 6.2303125 -0.20578125 6.116875 -1 6 C-1.33 5.34 -1.66 4.68 -2 4 C-1.34 4 -0.68 4 0 4 C0 2.68 0 1.36 0 0 Z " fill="#262628" transform="translate(125,83)"/>
<path d="M0 0 C5.28 0 10.56 0 16 0 C16 0.33 16 0.66 16 1 C11.05 1.33 6.1 1.66 1 2 C1.03480469 4.46855469 1.06960937 6.93710938 1.10546875 9.48046875 C1.12888687 11.87995244 1.14709056 14.27942323 1.16479492 16.67895508 C1.17985114 18.34242481 1.20030063 20.00585505 1.22631836 21.66918945 C1.26284207 24.06471522 1.27975782 26.45971467 1.29296875 28.85546875 C1.30845261 29.5952446 1.32393646 30.33502045 1.33988953 31.09721375 C1.3413545 35.62510958 0.66889798 38.34287134 -2 42 C-2.495 42.99 -2.495 42.99 -3 44 C-3.99 44 -4.98 44 -6 44 C-6 44.66 -6 45.32 -6 46 C-11.67921491 48.61707574 -16.6834418 48.10506532 -22.8125 47.8125 C-23.86759766 47.78091797 -24.92269531 47.74933594 -26.00976562 47.71679688 C-32.29589887 47.44655189 -37.24946306 46.57352136 -43 44 C-42.45276317 40.62537285 -41.9451 38.91765 -40 36 C-40.66 35.01 -41.32 34.02 -42 33 C-41.9765625 30.51953125 -41.9765625 30.51953125 -41.625 27.8125 C-41.51414062 26.91144531 -41.40328125 26.01039063 -41.2890625 25.08203125 C-41.19367188 24.39496094 -41.09828125 23.70789063 -41 23 C-40.67 23 -40.34 23 -40 23 C-39.92652344 24.06541016 -39.92652344 24.06541016 -39.8515625 25.15234375 C-39.77679688 26.07144531 -39.70203125 26.99054688 -39.625 27.9375 C-39.55539063 28.85402344 -39.48578125 29.77054688 -39.4140625 30.71484375 C-39.27742188 31.46894531 -39.14078125 32.22304687 -39 33 C-38.34 33.33 -37.68 33.66 -37 34 C-36.375 36.0625 -36.375 36.0625 -36 38 C-35.01 38 -34.02 38 -33 38 C-33.061875 36.865625 -33.12375 35.73125 -33.1875 34.5625 C-33.2242247 26.94824534 -31.43623378 19.44618822 -30 12 C-28.50739586 16.02582666 -29.30173067 19.92677127 -29.875 24.0625 C-29.96652344 24.78244141 -30.05804688 25.50238281 -30.15234375 26.24414062 C-30.55394171 29.29006315 -31.02616515 32.07849544 -32 35 C-29.69 35 -27.38 35 -25 35 C-25 35.33 -25 35.66 -25 36 C-27.475 36.495 -27.475 36.495 -30 37 C-30 37.99 -30 38.98 -30 40 C-32.31 40.66 -34.62 41.32 -37 42 C-37 42.99 -37 43.98 -37 45 C-35.824375 44.814375 -34.64875 44.62875 -33.4375 44.4375 C-26.94483472 43.70111145 -16.94181201 43.02909399 -11 46 C-10.505 45.01 -10.505 45.01 -10 44 C-9.01 44.33 -8.02 44.66 -7 45 C-7 44.01 -7 43.02 -7 42 C-6.01 41.67 -5.02 41.34 -4 41 C-2.84164327 38.02496878 -2.84164327 38.02496878 -2 35 C-1.67 34.67 -1.34 34.34 -1 34 C-0.84011509 31.48119483 -0.74065775 28.98657734 -0.68359375 26.46484375 C-0.66281265 25.71159317 -0.64203156 24.95834259 -0.62062073 24.18226624 C-0.55504575 21.7674401 -0.49620379 19.35250202 -0.4375 16.9375 C-0.3943223 15.30402471 -0.35070827 13.6705609 -0.30664062 12.03710938 C-0.19853203 8.02485282 -0.09951886 4.01251576 0 0 Z " fill="#636464" transform="translate(122,118)"/>
<path d="M0 0 C0.66 0 1.32 0 2 0 C2 1.32 2 2.64 2 4 C4.31 3.34 6.62 2.68 9 2 C9 4.64 9 7.28 9 10 C9.66 9.67 10.32 9.34 11 9 C11 11.31 11 13.62 11 16 C10.67 16 10.34 16 10 16 C9.67 19.96 9.34 23.92 9 28 C9.99 28 10.98 28 12 28 C12.33 26.35 12.66 24.7 13 23 C16.58122622 28.37183933 15.53425431 35.63327671 14.546875 41.85546875 C14.08800561 43.91710339 13.552802 45.96154263 13 48 C12.34 48 11.68 48 11 48 C11 47.01 11 46.02 11 45 C10.34 45 9.68 45 9 45 C7.50016915 42.0003383 7.76097945 38.88053039 7.68359375 35.5859375 C7.66281265 34.85629791 7.64203156 34.12665833 7.62062073 33.37490845 C7.55518083 31.04170237 7.49626632 28.70838279 7.4375 26.375 C7.39430947 24.79425905 7.35069501 23.21352961 7.30664062 21.6328125 C7.19950519 17.75532496 7.09822218 13.87772315 7 10 C6.1028125 10.2784375 6.1028125 10.2784375 5.1875 10.5625 C3 11 3 11 0 10 C0 9.01 0 8.02 0 7 C-3.63 7.33 -7.26 7.66 -11 8 C-11.33 8.99 -11.66 9.98 -12 11 C-12 8.69 -12 6.38 -12 4 C-11.46375 4.185625 -10.9275 4.37125 -10.375 4.5625 C-7.38009386 5.11419324 -4.96254171 4.60597444 -2 4 C-2 3.34 -2 2.68 -2 2 C-1.34 2 -0.68 2 0 2 C0 1.34 0 0.68 0 0 Z " fill="#282829" transform="translate(106,34)"/>
<path d="M0 0 C7.92 0 15.84 0 24 0 C23.67 1.65 23.34 3.3 23 5 C22.34 5 21.68 5 21 5 C21.30421875 5.64066406 21.6084375 6.28132813 21.921875 6.94140625 C23.32140054 10.91179937 23.78708065 14.76782207 24.25 18.9375 C24.353125 19.72318359 24.45625 20.50886719 24.5625 21.31835938 C25.10548127 26.089408 24.94493083 29.47876155 23 34 C21.515 33.505 21.515 33.505 20 33 C20 27.33333333 20 21.66666667 20 16 C19.67 16 19.34 16 19 16 C18.875 9.25 18.875 9.25 20 7 C19.34 7 18.68 7 18 7 C17.67 7.66 17.34 8.32 17 9 C14.4375 9.625 14.4375 9.625 12 10 C12.33 8.35 12.66 6.7 13 5 C12.34 5 11.68 5 11 5 C11 5.66 11 6.32 11 7 C10.34 7 9.68 7 9 7 C9 7.66 9 8.32 9 9 C8.01 8.67 7.02 8.34 6 8 C6.33 7.01 6.66 6.02 7 5 C4.69 5 2.38 5 0 5 C-0.33 4.01 -0.66 3.02 -1 2 C-0.67 1.34 -0.34 0.68 0 0 Z " fill="#070808" transform="translate(95,29)"/>
<path d="M0 0 C0.33 0 0.66 0 1 0 C1.33 1.65 1.66 3.3 2 5 C2.33 5 2.66 5 3 5 C3 7.64 3 10.28 3 13 C3.66 13 4.32 13 5 13 C5.33 11.68 5.66 10.36 6 9 C6.99 9 7.98 9 9 9 C9.42875409 16.86049172 7.60639707 23.03808566 4 30 C3.34 30 2.68 30 2 30 C1.67 30.66 1.34 31.32 1 32 C1 30.68 1 29.36 1 28 C0.34 28 -0.32 28 -1 28 C-1 27.01 -1 26.02 -1 25 C-1.66 25 -2.32 25 -3 25 C-2.67 20.05 -2.34 15.1 -2 10 C-1.34 10 -0.68 10 0 10 C0 6.7 0 3.4 0 0 Z " fill="#090A0A" transform="translate(82,53)"/>
<path d="M0 0 C0.99 0 1.98 0 3 0 C2.45276317 3.37462715 1.9451 5.08235 0 8 C-2.90161133 8.46411133 -2.90161133 8.46411133 -6.58203125 8.58203125 C-7.23322433 8.6047258 -7.88441742 8.62742035 -8.55534363 8.65080261 C-9.93455311 8.69541236 -11.31401354 8.73276304 -12.69360352 8.76342773 C-14.79484796 8.81209119 -16.89384937 8.88761972 -18.99414062 8.96679688 C-30.22515542 9.30184451 -30.22515542 9.30184451 -35 7 C-34.67 6.34 -34.34 5.68 -34 5 C-28.86140501 3.34519822 -25.3413638 2.66465905 -20 4 C-20 4.66 -20 5.32 -20 6 C-19.2575 5.505 -18.515 5.01 -17.75 4.5 C-15 3 -15 3 -11 3 C-11 2.34 -11 1.68 -11 1 C-10.28972656 1.01160156 -9.57945313 1.02320312 -8.84765625 1.03515625 C-7.92855469 1.04417969 -7.00945312 1.05320312 -6.0625 1.0625 C-4.68771484 1.07990234 -4.68771484 1.07990234 -3.28515625 1.09765625 C-1.03406673 1.25949049 -1.03406673 1.25949049 0 0 Z " fill="#080808" transform="translate(76,86)"/>
<path d="M0 0 C1.32 0.33 2.64 0.66 4 1 C7.0255515 10.0766545 5.30036172 18.72742068 4 28 C2.35 28.33 0.7 28.66 -1 29 C-0.67 27.35 -0.34 25.7 0 24 C-0.99 23.67 -1.98 23.34 -3 23 C-3.02721176 21.10424749 -3.04649136 19.20838021 -3.0625 17.3125 C-3.07410156 16.25675781 -3.08570312 15.20101562 -3.09765625 14.11328125 C-3.00865425 11.27589738 -2.64939838 8.7561081 -2 6 C-1.34 6 -0.68 6 0 6 C0 4.02 0 2.04 0 0 Z " fill="#0A0B0B" transform="translate(85,128)"/>
<path d="M0 0 C2 2 2 2 2.22705078 5.80712891 C2.22673346 7.4469742 2.21539681 9.08684017 2.1953125 10.7265625 C2.1924826 11.58937836 2.18965271 12.45219421 2.18673706 13.34115601 C2.17552333 16.1025772 2.15041684 18.8636765 2.125 21.625 C2.11497173 23.49478699 2.10584562 25.36457905 2.09765625 27.234375 C2.07558012 31.82304109 2.04104234 36.41146593 2 41 C2.763125 40.814375 3.52625 40.62875 4.3125 40.4375 C7 40 7 40 10 41 C10 37.37 10 33.74 10 30 C10.33 30 10.66 30 11 30 C11.33 32.64 11.66 35.28 12 38 C15.63 38 19.26 38 23 38 C23 38.33 23 38.66 23 39 C19.7 39 16.4 39 13 39 C12.505 41.475 12.505 41.475 12 44 C18.6 44.66 25.2 45.32 32 46 C32 46.33 32 46.66 32 47 C31.14019531 46.98839844 30.28039062 46.97679687 29.39453125 46.96484375 C21.2074948 46.90234729 13.15135917 47.24173403 5 48 C4.34 46.35 3.68 44.7 3 43 C2.34 43 1.68 43 1 43 C0.12733788 37.76100772 -0.13410177 32.74677147 -0.09765625 27.44140625 C-0.0962413 26.65225327 -0.09482635 25.86310028 -0.09336853 25.05003357 C-0.08781555 22.55414885 -0.07527208 20.05835715 -0.0625 17.5625 C-0.05747891 15.86002735 -0.05291707 14.15755327 -0.04882812 12.45507812 C-0.03786158 8.30335012 -0.02062991 4.15169078 0 0 Z " fill="#CBCBCB" transform="translate(112,44)"/>
<path d="M0 0 C2.31 0.33 4.62 0.66 7 1 C7.66 3.97 8.32 6.94 9 10 C9.99 9.01 10.98 8.02 12 7 C12.11138159 12.45769811 11.91657981 17.61509359 11 23 C10.67 23 10.34 23 10 23 C9.67 20.69 9.34 18.38 9 16 C8.34 16 7.68 16 7 16 C6.67 16.99 6.34 17.98 6 19 C5.34 19 4.68 19 4 19 C3.67 17.02 3.34 15.04 3 13 C2.01 14.485 2.01 14.485 1 16 C0.34 16 -0.32 16 -1 16 C-1.02692484 13.70839681 -1.04636124 11.41670454 -1.0625 9.125 C-1.07410156 7.84882812 -1.08570312 6.57265625 -1.09765625 5.2578125 C-1 2 -1 2 0 0 Z " fill="#3C3C3B" transform="translate(81,47)"/>
<path d="M0 0 C5.28 0 10.56 0 16 0 C16 0.33 16 0.66 16 1 C11.05 1.33 6.1 1.66 1 2 C1.03480469 4.46855469 1.06960937 6.93710938 1.10546875 9.48046875 C1.12888687 11.87995244 1.14709056 14.27942323 1.16479492 16.67895508 C1.17985114 18.34242481 1.20030063 20.00585505 1.22631836 21.66918945 C1.26284207 24.06471522 1.27975782 26.45971467 1.29296875 28.85546875 C1.30845261 29.5952446 1.32393646 30.33502045 1.33988953 31.09721375 C1.3413545 35.62510958 0.66889798 38.34287134 -2 42 C-2.33 42.66 -2.66 43.32 -3 44 C-3.99 44 -4.98 44 -6 44 C-6 44.66 -6 45.32 -6 46 C-10.89176638 48.65350475 -15.45652407 48.02440164 -20.8125 47.625 C-22.13797852 47.53992188 -22.13797852 47.53992188 -23.49023438 47.453125 C-25.6608451 47.31232863 -27.83054071 47.1575466 -30 47 C-30 46.67 -30 46.34 -30 46 C-23.73 46 -17.46 46 -11 46 C-10.67 45.34 -10.34 44.68 -10 44 C-8.515 44.495 -8.515 44.495 -7 45 C-7 44.01 -7 43.02 -7 42 C-5.515 41.505 -5.515 41.505 -4 41 C-2.84164327 38.02496878 -2.84164327 38.02496878 -2 35 C-1.67 34.67 -1.34 34.34 -1 34 C-0.84011509 31.48119483 -0.74065775 28.98657734 -0.68359375 26.46484375 C-0.66281265 25.71159317 -0.64203156 24.95834259 -0.62062073 24.18226624 C-0.55504575 21.7674401 -0.49620379 19.35250202 -0.4375 16.9375 C-0.3943223 15.30402471 -0.35070827 13.6705609 -0.30664062 12.03710938 C-0.19853203 8.02485282 -0.09951886 4.01251576 0 0 Z " fill="#989898" transform="translate(122,118)"/>
<path d="M0 0 C4.30499734 -0.04967599 8.60983993 -0.08584945 12.91503906 -0.10986328 C14.37763376 -0.11988105 15.84020863 -0.13349912 17.30273438 -0.15087891 C19.41281039 -0.17531439 21.52262012 -0.18652537 23.6328125 -0.1953125 C24.90012207 -0.20578613 26.16743164 -0.21625977 27.47314453 -0.22705078 C32.07261594 0.06905253 35.68422532 0.68422532 39 4 C39.1953125 6.6015625 39.1953125 6.6015625 39.125 9.625 C39.10695312 10.62789062 39.08890625 11.63078125 39.0703125 12.6640625 C39.04710937 13.43492188 39.02390625 14.20578125 39 15 C38.67 15 38.34 15 38 15 C37.67 11.7 37.34 8.4 37 5 C36.01 5.33 35.02 5.66 34 6 C34 7.98 34 9.96 34 12 C32.35 12 30.7 12 29 12 C29 9 29 6 29 3 C23.0827441 1.78174143 17.14248484 1.66352622 11.125 1.4375 C10.05507812 1.39431641 8.98515625 1.35113281 7.8828125 1.30664062 C5.25532246 1.20107183 2.62774578 1.09896209 0 1 C0 0.67 0 0.34 0 0 Z " fill="#767676" transform="translate(56,111)"/>
<path d="M0 0 C3.3 0 6.6 0 10 0 C10 0.66 10 1.32 10 2 C10.89203125 1.97679688 11.7840625 1.95359375 12.703125 1.9296875 C13.87359375 1.91164063 15.0440625 1.89359375 16.25 1.875 C17.99023438 1.84019531 17.99023438 1.84019531 19.765625 1.8046875 C22.82786046 1.9896051 24.44202751 2.39176977 27 4 C25.02 4.66 23.04 5.32 21 6 C20.67 5.67 20.34 5.34 20 5 C20 5.33 20 5.66 20 6 C13.07 6 6.14 6 -1 6 C-1.33 5.34 -1.66 4.68 -2 4 C-1.34 4 -0.68 4 0 4 C0 2.68 0 1.36 0 0 Z " fill="#171718" transform="translate(125,83)"/>
<path d="M0 0 C2 3.875 2 3.875 2 5 C0.02 5.33 -1.96 5.66 -4 6 C-4 6.99 -4 7.98 -4 9 C-1.525 9.99 -1.525 9.99 1 11 C1.04966189 15.44741318 1.08584293 19.8946768 1.10986328 24.34228516 C1.11988339 25.85338149 1.13350321 27.36445862 1.15087891 28.87548828 C1.17530392 31.05506142 1.18652307 33.23437684 1.1953125 35.4140625 C1.20578613 36.7232666 1.21625977 38.0324707 1.22705078 39.38134766 C1.00366763 42.9415466 0.2935223 45.69234262 -1 49 C-1.66 48.34 -2.32 47.68 -3 47 C-3 46.01 -3 45.02 -3 44 C-4.2375 44.2475 -4.2375 44.2475 -5.5 44.5 C-9.41272317 45.05896045 -13.05183173 45.06807187 -17 45 C-17 44.67 -17 44.34 -17 44 C-15.06302033 43.66365624 -13.12539514 43.33102835 -11.1875 43 C-10.10855469 42.814375 -9.02960938 42.62875 -7.91796875 42.4375 C-5 42 -5 42 -2 42 C1.346746 35.306508 -1.08031955 24.2753293 -2 17 C-1.34 17 -0.68 17 0 17 C-0.33 15.02 -0.66 13.04 -1 11 C-2.65 11 -4.3 11 -6 11 C-6.625 8.625 -6.625 8.625 -7 6 C-5 4 -5 4 -2.9375 3 C-0.83134399 2.15410058 -0.83134399 2.15410058 0 0 Z " fill="#A3A3A2" transform="translate(114,108)"/>
<path d="M0 0 C0.66 0 1.32 0 2 0 C2.077475 4.57102507 1.93777474 8.5187996 1 13 C-2.62498334 13.02893932 -6.24993713 13.04677792 -9.875 13.0625 C-11.42380859 13.07506836 -11.42380859 13.07506836 -13.00390625 13.08789062 C-13.99003906 13.09111328 -14.97617188 13.09433594 -15.9921875 13.09765625 C-16.90339355 13.10289307 -17.81459961 13.10812988 -18.75341797 13.11352539 C-21 13 -21 13 -23 12 C-24.35107766 11.88467281 -25.70690047 11.82163753 -27.0625 11.7890625 C-27.85914063 11.76070312 -28.65578125 11.73234375 -29.4765625 11.703125 C-31.15863063 11.65104859 -32.84095848 11.60677489 -34.5234375 11.5703125 C-35.32007813 11.539375 -36.11671875 11.5084375 -36.9375 11.4765625 C-37.66839844 11.45674316 -38.39929688 11.43692383 -39.15234375 11.41650391 C-41 11 -41 11 -43 8 C-41.948125 8.144375 -40.89625 8.28875 -39.8125 8.4375 C-34.92041129 9.05444192 -30.01492586 9.39216372 -25.09765625 9.7421875 C-22.67429587 9.94387954 -20.33359908 10.23482103 -17.9375 10.625 C-12.54860243 11.13822834 -7.36784783 10.58151685 -2 10 C-2 8.68 -2 7.36 -2 6 C-1.34 5.67 -0.68 5.34 0 5 C0 3.35 0 1.7 0 0 Z " fill="#959595" transform="translate(172,100)"/>
<path d="M0 0 C9.56340636 -0.09542201 19.12921144 -0.1135755 28.6875 0.25 C29.40405762 0.26409912 30.12061523 0.27819824 30.85888672 0.29272461 C36.40253944 0.55236076 40.16717292 2.28797582 45 5 C44.67 5.66 44.34 6.32 44 7 C42.35 7 40.7 7 39 7 C38.814375 8.6396875 38.814375 8.6396875 38.625 10.3125 C38 14 38 14 36 17 C36.33 14.03 36.66 11.06 37 8 C34.525 7.505 34.525 7.505 32 7 C32 6.67 32 6.34 32 6 C35.465 5.505 35.465 5.505 39 5 C35.24336832 2.49557888 32.18991875 2.65114563 27.83203125 2.5859375 C27.03721848 2.56657135 26.2424057 2.5472052 25.42350769 2.5272522 C22.88661405 2.46750558 20.34967491 2.42109117 17.8125 2.375 C16.09177716 2.33681565 14.37107335 2.29776365 12.65039062 2.2578125 C8.43374835 2.16180821 4.2170166 2.07775924 0 2 C0 1.34 0 0.68 0 0 Z " fill="#A1A1A1" transform="translate(135,83)"/>
<path d="M0 0 C6.27 0 12.54 0 19 0 C19 0.66 19 1.32 19 2 C20.32 2.66 21.64 3.32 23 4 C11.66112404 4.60465428 0.35858317 5.18966094 -11 5 C-11 4.67 -11 4.34 -11 4 C-6.38 3.67 -1.76 3.34 3 3 C3 2.34 3 1.68 3 1 C2.01 0.67 1.02 0.34 0 0 Z " fill="#242525" transform="translate(153,113)"/>
<path d="M0 0 C-1.32 0.33 -2.64 0.66 -4 1 C-4 1.99 -4 2.98 -4 4 C-5.32 4.33 -6.64 4.66 -8 5 C-8.33 4.01 -8.66 3.02 -9 2 C-9 3.32 -9 4.64 -9 6 C-6.03 6.495 -6.03 6.495 -3 7 C-2.67 6.34 -2.34 5.68 -2 5 C-1.34 5.66 -0.68 6.32 0 7 C-2.48434437 9.34290892 -3.77731593 9.97982934 -7.234375 10.29296875 C-8.39453125 10.25816406 -9.5546875 10.22335938 -10.75 10.1875 C-11.92046875 10.16042969 -13.0909375 10.13335937 -14.296875 10.10546875 C-15.18890625 10.07066406 -16.0809375 10.03585938 -17 10 C-17.33 8.68 -17.66 7.36 -18 6 C-15.36 5.67 -12.72 5.34 -10 5 C-10.33 3.68 -10.66 2.36 -11 1 C-7.27569643 0.30710631 -3.78916254 -0.11144596 0 0 Z " fill="#111212" transform="translate(102,153)"/>
<path d="M0 0 C1.45880109 0.14107747 2.91703551 0.28802415 4.375 0.4375 C5.59316406 0.55931641 5.59316406 0.55931641 6.8359375 0.68359375 C9 1 9 1 11 2 C11 4.64 11 7.28 11 10 C10.67 10 10.34 10 10 10 C10 7.69 10 5.38 10 3 C9.13387085 3.09087891 9.13387085 3.09087891 8.25024414 3.18359375 C-1.67233036 4.20562777 -11.57994032 5.19632431 -21.5625 5.25 C-22.24497803 5.25902344 -22.92745605 5.26804687 -23.63061523 5.27734375 C-27.51849352 5.2538076 -30.4966532 4.69451707 -34 3 C-31 1 -31 1 -29 1 C-28.67 1.66 -28.34 2.32 -28 3 C-23.71 3 -19.42 3 -15 3 C-15 2.34 -15 1.68 -15 1 C-10.05 1.33 -5.1 1.66 0 2 C0 1.34 0 0.68 0 0 Z " fill="#888888" transform="translate(71,118)"/>
<path d="M0 0 C0.33 0 0.66 0 1 0 C1.11252038 13.7084449 1.04037621 27.32648416 0 41 C-2.64 41 -5.28 41 -8 41 C-8 38.36 -8 35.72 -8 33 C-7.67 33.66 -7.34 34.32 -7 35 C-6.34 35 -5.68 35 -5 35 C-5 35.99 -5 36.98 -5 38 C-4.34 38 -3.68 38 -3 38 C-1.13361957 25.35210155 -0.43435929 12.76945698 0 0 Z " fill="#605F61" transform="translate(122,44)"/>
<path d="M0 0 C0.77239014 0.0714624 1.54478027 0.1429248 2.34057617 0.21655273 C10.68446707 0.93095901 18.94134867 1.12199971 27.3125 1.0625 C28.54162109 1.05798828 29.77074219 1.05347656 31.03710938 1.04882812 C34.02479356 1.03720289 37.01236855 1.02086559 40 1 C36.37895671 3.41402886 34.55567322 3.29073128 30.2421875 3.37890625 C29.24845627 3.40439796 29.24845627 3.40439796 28.23464966 3.43040466 C26.11486375 3.48345767 23.99509094 3.52371197 21.875 3.5625 C9.40701151 3.81187989 9.40701151 3.81187989 -3 5 C-2.01 4.67 -1.02 4.34 0 4 C0 2.68 0 1.36 0 0 Z " fill="#7B7B7B" transform="translate(40,93)"/>
<path d="M0 0 C0.66 0 1.32 0 2 0 C1.67 1.65 1.34 3.3 1 5 C2.98 5 4.96 5 7 5 C6.67 6.65 6.34 8.3 6 10 C3 11 3 11 0 10 C0 9.01 0 8.02 0 7 C-3.63 7.33 -7.26 7.66 -11 8 C-11.33 8.99 -11.66 9.98 -12 11 C-12 8.69 -12 6.38 -12 4 C-11.46375 4.185625 -10.9275 4.37125 -10.375 4.5625 C-7.38009386 5.11419324 -4.96254171 4.60597444 -2 4 C-2 3.34 -2 2.68 -2 2 C-1.34 2 -0.68 2 0 2 C0 1.34 0 0.68 0 0 Z " fill="#5D5D5D" transform="translate(106,34)"/>
<path d="M0 0 C0 0.66 0 1.32 0 2 C-2.64 2.66 -5.28 3.32 -8 4 C-8.33 11.26 -8.66 18.52 -9 26 C-8.01 26.33 -7.02 26.66 -6 27 C-6 27.99 -6 28.98 -6 30 C-6.66 30 -7.32 30 -8 30 C-8 30.99 -8 31.98 -8 33 C-5.03 33.33 -2.06 33.66 1 34 C1 34.33 1 34.66 1 35 C-6.75 35.125 -6.75 35.125 -9 34 C-8.9071875 32.88625 -8.9071875 32.88625 -8.8125 31.75 C-8.73599855 28.95694158 -8.73599855 28.95694158 -10.51855469 27.14672852 C-12.39277542 24.43083813 -12.23320788 23.14532335 -11.890625 19.90234375 C-11.79523437 18.93619141 -11.69984375 17.97003906 -11.6015625 16.97460938 C-11.48554688 15.97236328 -11.36953125 14.97011719 -11.25 13.9375 C-11.14945313 12.93138672 -11.04890625 11.92527344 -10.9453125 10.88867188 C-10.17930029 3.53790087 -10.17930029 3.53790087 -9 0 C-5.93109813 -1.53445094 -3.29905734 -0.54984289 0 0 Z " fill="#9E9E9D" transform="translate(36,85)"/>
<path d="M0 0 C3.63 0 7.26 0 11 0 C11 0.33 11 0.66 11 1 C7.7 1 4.4 1 1 1 C0.67 2.65 0.34 4.3 0 6 C6.6 6.66 13.2 7.32 20 8 C20 8.33 20 8.66 20 9 C19.14019531 8.98839844 18.28039062 8.97679688 17.39453125 8.96484375 C9.2074948 8.90234729 1.15135917 9.24173403 -7 10 C-7 8.35 -7 6.7 -7 5 C-3.535 4.505 -3.535 4.505 0 4 C0 2.68 0 1.36 0 0 Z " fill="#979698" transform="translate(124,82)"/>
<path d="M0 0 C2.12508244 3.18762365 2.5020163 5.26512223 3 9 C3.99 8.01 4.98 7.02 6 6 C6.11138159 11.45769811 5.91657981 16.61509359 5 22 C4.67 22 4.34 22 4 22 C3.67 19.69 3.34 17.38 3 15 C2.34 15 1.68 15 1 15 C0.67 15.99 0.34 16.98 0 18 C-0.66 18 -1.32 18 -2 18 C-1.34 12.06 -0.68 6.12 0 0 Z " fill="#737373" transform="translate(87,48)"/>
<path d="M0 0 C3.33194944 -0.13752887 5.44008468 -0.07110544 8.33203125 1.6640625 C8.82703125 2.1590625 9.32203125 2.6540625 9.83203125 3.1640625 C8.05497499 4.94111876 5.43195628 4.54278647 3.01953125 4.7265625 C1.43205078 4.85224609 1.43205078 4.85224609 -0.1875 4.98046875 C-2.51072408 5.12357692 -4.84034119 5.1640625 -7.16796875 5.1640625 C-7.16796875 4.5040625 -7.16796875 3.8440625 -7.16796875 3.1640625 C-8.48796875 3.1640625 -9.80796875 3.1640625 -11.16796875 3.1640625 C-10.83796875 2.5040625 -10.50796875 1.8440625 -10.16796875 1.1640625 C-6.76113011 0.56637151 -3.44236955 0.26050364 0 0 Z " fill="#101111" transform="translate(165.16796875,84.8359375)"/>
<path d="M0 0 C0.66 0 1.32 0 2 0 C2 1.32 2 2.64 2 4 C0.00775284 4.37691162 -1.99559877 4.69424388 -4 5 C-4.69609375 5.10699219 -5.3921875 5.21398437 -6.109375 5.32421875 C-16.04258546 6.54214424 -26.04681125 5.61124582 -36 5 C-36 4.67 -36 4.34 -36 4 C-24.371343 2.59955959 -12.69063004 2.90342006 -1 3 C-0.67 2.01 -0.34 1.02 0 0 Z " fill="#A2A2A2" transform="translate(179,114)"/>
<path d="M0 0 C0.33 0 0.66 0 1 0 C1.08333357 4.8333472 0.95261487 9.23692563 0 14 C0.66 14 1.32 14 2 14 C2.33 15.98 2.66 17.96 3 20 C1.58622218 20.36552803 0.16879424 20.71695495 -1.25 21.0625 C-2.43335937 21.35833984 -2.43335937 21.35833984 -3.640625 21.66015625 C-6.10394822 22.01497267 -7.65604132 21.76877544 -10 21 C-6.52674819 19.8422494 -3.63932552 19.93133348 0 20 C0 19.34 0 18.68 0 18 C-0.66 18 -1.32 18 -2 18 C-2.33 15.36 -2.66 12.72 -3 10 C-2.34 10 -1.68 10 -1 10 C-0.67 6.7 -0.34 3.4 0 0 Z " fill="#878787" transform="translate(79,64)"/>
<path d="M0 0 C1.98 0 3.96 0 6 0 C6.33 1.65 6.66 3.3 7 5 C6.01 5.33 5.02 5.66 4 6 C4.66 6.66 5.32 7.32 6 8 C5.01 9.485 5.01 9.485 4 11 C2.68 10.67 1.36 10.34 0 10 C-0.33 7.69 -0.66 5.38 -1 3 C-0.34 2.67 0.32 2.34 1 2 C0.67 1.34 0.34 0.68 0 0 Z " fill="#141515" transform="translate(105,152)"/>
<path d="M0 0 C-0.99 0 -1.98 0 -3 0 C-3 0.66 -3 1.32 -3 2 C-5.97 2.99 -8.94 3.98 -12 5 C-12 4.34 -12 3.68 -12 3 C-17.28 2.67 -22.56 2.34 -28 2 C-28 1.67 -28 1.34 -28 1 C-26.85402344 0.93941406 -25.70804688 0.87882812 -24.52734375 0.81640625 C-22.99738703 0.73193011 -21.46743959 0.64728573 -19.9375 0.5625 C-18.80924805 0.50352539 -18.80924805 0.50352539 -17.65820312 0.44335938 C-14.09280708 0.24270938 -10.63372824 -0.05274313 -7.09375 -0.5625 C-4.26117598 -0.96306602 -2.6518449 -0.95466416 0 0 Z " fill="#919091" transform="translate(68,87)"/>
<path d="M0 0 C2 2 2 2 2.22705078 4.61376953 C2.21657715 5.69255371 2.20610352 6.77133789 2.1953125 7.8828125 C2.18886719 9.04941406 2.18242188 10.21601562 2.17578125 11.41796875 C2.15902344 12.64128906 2.14226562 13.86460938 2.125 15.125 C2.11597656 16.35605469 2.10695313 17.58710937 2.09765625 18.85546875 C2.07402548 21.90383815 2.04108054 24.95182382 2 28 C-0.84439863 25.15560137 -0.44167057 22.89898074 -0.6875 18.9375 C-0.77386719 17.66777344 -0.86023438 16.39804687 -0.94921875 15.08984375 C-0.96597656 14.07019531 -0.98273438 13.05054688 -1 12 C-0.67 11.67 -0.34 11.34 0 11 C0.07226502 9.14712498 0.0838122 7.29166122 0.0625 5.4375 C0.05347656 4.42558594 0.04445313 3.41367187 0.03515625 2.37109375 C0.02355469 1.58863281 0.01195313 0.80617187 0 0 Z " fill="#3A3A3C" transform="translate(120,38)"/>
<path d="M0 0 C0.33 0 0.66 0 1 0 C0.48446121 6.49850211 -0.46667709 12.66226532 -2 19 C-3.65 19 -5.3 19 -7 19 C-7.33 20.32 -7.66 21.64 -8 23 C-8.33 21.02 -8.66 19.04 -9 17 C-7.02 17 -5.04 17 -3 17 C-3.226875 16.34 -3.45375 15.68 -3.6875 15 C-4.06544072 11.37176907 -3.18852838 9.26732165 -1.7890625 5.96484375 C-0.99840145 3.99601946 -0.46944597 2.06648273 0 0 Z " fill="#838384" transform="translate(90,70)"/>
<path d="M0 0 C1.32 0.66 2.64 1.32 4 2 C3.34 4.64 2.68 7.28 2 10 C1.34 10 0.68 10 0 10 C0 11.65 0 13.3 0 15 C-0.99 15.495 -0.99 15.495 -2 16 C-2.2358396 10.22192976 -1.86783046 5.48675196 0 0 Z " fill="#0E0F0F" transform="translate(83,124)"/>
<path d="M0 0 C0.66 1.32 1.32 2.64 2 4 C-0.97 3.67 -3.94 3.34 -7 3 C-5.40442685 -0.19114631 -3.35905282 0 0 0 Z M-14 1 C-11.625 0.8125 -11.625 0.8125 -9 1 C-8.34 1.99 -7.68 2.98 -7 4 C-7.33 4.66 -7.66 5.32 -8 6 C-10.0625 6.625 -10.0625 6.625 -12 7 C-12 8.98 -12 10.96 -12 13 C-12.66 13 -13.32 13 -14 13 C-14 10.36 -14 7.72 -14 5 C-12.68 4.67 -11.36 4.34 -10 4 C-10 3.34 -10 2.68 -10 2 C-11.32 1.67 -12.64 1.34 -14 1 Z " fill="#787878" transform="translate(94,31)"/>
<path d="M0 0 C0.99 0 1.98 0 3 0 C3 0.66 3 1.32 3 2 C5.64 1.67 8.28 1.34 11 1 C10.00390625 2.48046875 10.00390625 2.48046875 8 4 C5.22223238 4.27107281 2.70662166 4.37370959 -0.0625 4.3125 C-1.16174805 4.31733398 -1.16174805 4.31733398 -2.28320312 4.32226562 C-7.73278061 4.26721939 -7.73278061 4.26721939 -10 2 C-2.25 1 -2.25 1 0 1 C0 0.67 0 0.34 0 0 Z " fill="#4A4A4B" transform="translate(155,88)"/>
<path d="M0 0 C0.66 0.33 1.32 0.66 2 1 C1.74476126 2.62752231 1.47025506 4.25203196 1.1875 5.875 C1.03667969 6.77992187 0.88585937 7.68484375 0.73046875 8.6171875 C0 11 0 11 -3 13 C-3.66 9.37 -4.32 5.74 -5 2 C-3.35 1.34 -1.7 0.68 0 0 Z " fill="#242425" transform="translate(92,45)"/>
<path d="M0 0 C2.97 0.495 2.97 0.495 6 1 C6 1.99 6 2.98 6 4 C4.35 4 2.7 4 1 4 C0.814375 5.6396875 0.814375 5.6396875 0.625 7.3125 C0 11 0 11 -2 14 C-1.67 11.03 -1.34 8.06 -1 5 C-2.65 4.67 -4.3 4.34 -6 4 C-6 3.67 -6 3.34 -6 3 C-2.535 2.505 -2.535 2.505 1 2 C0.67 1.34 0.34 0.68 0 0 Z " fill="#707070" transform="translate(173,86)"/>
<path d="M0 0 C0.33 0 0.66 0 1 0 C1 2.97 1 5.94 1 9 C1.66 9 2.32 9 3 9 C2.67 10.98 2.34 12.96 2 15 C1.34 15 0.68 15 0 15 C0 14.01 0 13.02 0 12 C-0.66 12 -1.32 12 -2 12 C-2.79953138 8.71303767 -3.09658936 7.28976808 -2 4 C-1.34 4 -0.68 4 0 4 C0 2.68 0 1.36 0 0 Z " fill="#0C0D0C" transform="translate(117,67)"/>
<path d="M0 0 C0.99 0 1.98 0 3 0 C3.28571429 8.57142857 3.28571429 8.57142857 1 12 C0.34 10.35 -0.32 8.7 -1 7 C-1.99 7 -2.98 7 -4 7 C-3.67 6.01 -3.34 5.02 -3 4 C-2.34 4 -1.68 4 -1 4 C-0.67 2.68 -0.34 1.36 0 0 Z " fill="#222223" transform="translate(88,62)"/>
<path d="M0 0 C3.3 0 6.6 0 10 0 C10 0.66 10 1.32 10 2 C13.96 2 17.92 2 22 2 C22 2.33 22 2.66 22 3 C15.73 3 9.46 3 3 3 C3 2.34 3 1.68 3 1 C2.34 1 1.68 1 1 1 C0.67 1.99 0.34 2.98 0 4 C0 2.68 0 1.36 0 0 Z " fill="#242526" transform="translate(125,83)"/>
<path d="M0 0 C0 2.64 0 5.28 0 8 C0.66 7.67 1.32 7.34 2 7 C2 9.31 2 11.62 2 14 C1.01 14.33 0.02 14.66 -1 15 C-1.09796875 14.31292969 -1.1959375 13.62585937 -1.296875 12.91796875 C-1.44640625 12.01691406 -1.5959375 11.11585937 -1.75 10.1875 C-1.88921875 9.29417969 -2.0284375 8.40085937 -2.171875 7.48046875 C-3.168841 4.49427342 -4.3582435 3.61619656 -7 2 C-2.25 0 -2.25 0 0 0 Z " fill="#1B1C1C" transform="translate(115,36)"/>
<path d="M0 0 C0 0.66 0 1.32 0 2 C-2.64 2.66 -5.28 3.32 -8 4 C-8.33 6.64 -8.66 9.28 -9 12 C-9.33 12 -9.66 12 -10 12 C-10.02712066 10.56260487 -10.04645067 9.12506137 -10.0625 7.6875 C-10.07410156 6.88699219 -10.08570312 6.08648437 -10.09765625 5.26171875 C-10 3 -10 3 -9 0 C-5.93109813 -1.53445094 -3.29905734 -0.54984289 0 0 Z " fill="#656564" transform="translate(36,85)"/>
<path d="M0 0 C0 0.66 0 1.32 0 2 C-2 4 -2 4 -3.9453125 4.1953125 C-5.96354167 4.13020833 -7.98177083 4.06510417 -10 4 C-10.33 3.01 -10.66 2.02 -11 1 C-6.8204355 -1.78637633 -4.85331323 -0.79562512 0 0 Z " fill="#111212" transform="translate(69,90)"/>
<path d="M0 0 C7.56334232 -0.37196765 7.56334232 -0.37196765 9.6875 1.4375 C10.120625 1.953125 10.55375 2.46875 11 3 C13.60611077 3.72197162 13.60611077 3.72197162 16 4 C16 4.33 16 4.66 16 5 C13.03 5 10.06 5 7 5 C7 4.01 7 3.02 7 2 C4.36 2 1.72 2 -1 2 C-0.67 1.34 -0.34 0.68 0 0 Z " fill="#595959" transform="translate(120,107)"/>
<path d="M0 0 C7.38461538 -0.36923077 7.38461538 -0.36923077 10.5 1.5 C10.995 1.995 11.49 2.49 12 3 C9.95301586 5.04698414 5.69588759 4.70045693 3 5 C3 3.68 3 2.36 3 1 C2.01 0.67 1.02 0.34 0 0 Z " fill="#181818" transform="translate(163,85)"/>
<path d="M0 0 C1.45880109 0.14107747 2.91703551 0.28802415 4.375 0.4375 C5.59316406 0.55931641 5.59316406 0.55931641 6.8359375 0.68359375 C9 1 9 1 11 2 C11 4.64 11 7.28 11 10 C10.67 10 10.34 10 10 10 C10 7.69 10 5.38 10 3 C5.71 3 1.42 3 -3 3 C-2.01 2.67 -1.02 2.34 0 2 C0 1.34 0 0.68 0 0 Z " fill="#757576" transform="translate(71,118)"/>
<path d="M0 0 C3.63 0 7.26 0 11 0 C11.33 1.32 11.66 2.64 12 4 C11 5 11 5 8.4375 5.0625 C7.2309375 5.0315625 7.2309375 5.0315625 6 5 C6.33 3.68 6.66 2.36 7 1 C6.401875 1.20625 5.80375 1.4125 5.1875 1.625 C3 2 3 2 0 0 Z " fill="#121313" transform="translate(65,87)"/>
<path d="M0 0 C0.33 0 0.66 0 1 0 C1.07347656 1.06541016 1.07347656 1.06541016 1.1484375 2.15234375 C1.22320312 3.07144531 1.29796875 3.99054688 1.375 4.9375 C1.44460937 5.85402344 1.51421875 6.77054688 1.5859375 7.71484375 C1.72257812 8.46894531 1.85921875 9.22304687 2 10 C2.66 10.33 3.32 10.66 4 11 C4 11.99 4 12.98 4 14 C1 13 1 13 -1 10 C-0.9765625 7.51953125 -0.9765625 7.51953125 -0.625 4.8125 C-0.51414062 3.91144531 -0.40328125 3.01039063 -0.2890625 2.08203125 C-0.19367188 1.39496094 -0.09828125 0.70789063 0 0 Z " fill="#9C9B9C" transform="translate(81,141)"/>
<path d="M0 0 C3.63 0 7.26 0 11 0 C11 0.33 11 0.66 11 1 C7.7 1 4.4 1 1 1 C1 2.32 1 3.64 1 5 C0.34 5 -0.32 5 -1 5 C-1 5.66 -1 6.32 -1 7 C-1.66 7 -2.32 7 -3 7 C-3 7.66 -3 8.32 -3 9 C-3.66 9 -4.32 9 -5 9 C-4.67 7.68 -4.34 6.36 -4 5 C-2.68 4.67 -1.36 4.34 0 4 C0 2.68 0 1.36 0 0 Z " fill="#7A797B" transform="translate(124,82)"/>
<path d="M0 0 C4.47971204 -0.3632199 4.47971204 -0.3632199 6.65625 1.15625 C8.53015399 3.72742059 8.29842721 5.5445625 8.1875 8.6875 C8.16042969 9.68136719 8.13335937 10.67523438 8.10546875 11.69921875 C8.07066406 12.45847656 8.03585938 13.21773437 8 14 C7.67 14 7.34 14 7 14 C6.67 10.7 6.34 7.4 6 4 C4.02 3.34 2.04 2.68 0 2 C0 1.34 0 0.68 0 0 Z " fill="#9A9A9A" transform="translate(87,112)"/>
<path d="M0 0 C1.65 0 3.3 0 5 0 C5.5625 1.9375 5.5625 1.9375 6 4 C5 5 5 5 1.4375 5.0625 C0.303125 5.041875 -0.83125 5.02125 -2 5 C-1.01 4.01 -0.02 3.02 1 2 C0.67 1.34 0.34 0.68 0 0 Z " fill="#0A0C0B" transform="translate(100,158)"/>
<path d="M0 0 C0.33 0 0.66 0 1 0 C1.33 1.65 1.66 3.3 2 5 C2.33 5 2.66 5 3 5 C3 6.98 3 8.96 3 11 C2.01 11 1.02 11 0 11 C-0.33 11.99 -0.66 12.98 -1 14 C-0.67 9.38 -0.34 4.76 0 0 Z " fill="#040404" transform="translate(82,53)"/>
<path d="M0 0 C3 3.75 3 3.75 3 6 C2.34 6 1.68 6 1 6 C1 7.65 1 9.3 1 11 C0.01 11.495 0.01 11.495 -1 12 C-1.02712066 10.56260487 -1.04645067 9.12506137 -1.0625 7.6875 C-1.07410156 6.88699219 -1.08570312 6.08648437 -1.09765625 5.26171875 C-1 3 -1 3 0 0 Z " fill="#707170" transform="translate(82,128)"/>
<path d="M0 0 C1.32 0 2.64 0 4 0 C3.67 1.65 3.34 3.3 3 5 C2.34 5 1.68 5 1 5 C0.67 5.66 0.34 6.32 0 7 C-1.04449911 3.86650268 -0.93423645 3.01031744 0 0 Z " fill="#111212" transform="translate(115,29)"/>
<path d="M0 0 C-0.33 0.66 -0.66 1.32 -1 2 C-4.0625 2.625 -4.0625 2.625 -7 3 C-7.33 2.01 -7.66 1.02 -8 0 C-4.71023192 -1.09658936 -3.28696233 -0.79953138 0 0 Z " fill="#060707" transform="translate(92,159)"/>
<path d="M0 0 C0.33 0 0.66 0 1 0 C1.02712066 1.43739513 1.04645067 2.87493863 1.0625 4.3125 C1.07410156 5.11300781 1.08570312 5.91351563 1.09765625 6.73828125 C1 9 1 9 0 12 C-0.66 12 -1.32 12 -2 12 C-2 10.02 -2 8.04 -2 6 C-1.34 6 -0.68 6 0 6 C0 4.02 0 2.04 0 0 Z " fill="#5A5A5A" transform="translate(114,119)"/>
<path d="M0 0 C1.32 0.33 2.64 0.66 4 1 C3.67 3.31 3.34 5.62 3 8 C2.01 7.67 1.02 7.34 0 7 C0 4.69 0 2.38 0 0 Z " fill="#101110" transform="translate(90,115)"/>
<path d="M0 0 C0.66 0 1.32 0 2 0 C2 0.66 2 1.32 2 2 C3.98 2 5.96 2 8 2 C8 2.66 8 3.32 8 4 C5.03 4 2.06 4 -1 4 C-0.67 2.68 -0.34 1.36 0 0 Z " fill="#0B0C0C" transform="translate(126,84)"/>
<path d="M0 0 C-1.32 0.33 -2.64 0.66 -4 1 C-4 1.99 -4 2.98 -4 4 C-5.32 4.33 -6.64 4.66 -8 5 C-8 4.34 -8 3.68 -8 3 C-8.99 2.34 -9.98 1.68 -11 1 C-7.27569643 0.30710631 -3.78916254 -0.11144596 0 0 Z " fill="#1D1E1E" transform="translate(102,153)"/>
<path d="M0 0 C0.99 0.33 1.98 0.66 3 1 C2.67 3.64 2.34 6.28 2 9 C1.34 8.67 0.68 8.34 0 8 C0 5.36 0 2.72 0 0 Z " fill="#1F2021" transform="translate(82,143)"/>
<path d="M0 0 C1.98 0 3.96 0 6 0 C6 0.66 6 1.32 6 2 C6.66 2.33 7.32 2.66 8 3 C5.69 3 3.38 3 1 3 C0.67 2.01 0.34 1.02 0 0 Z " fill="#131314" transform="translate(166,113)"/>
<path d="M0 0 C0.99 0 1.98 0 3 0 C3 0.66 3 1.32 3 2 C3.99 2.33 4.98 2.66 6 3 C4.35 3.33 2.7 3.66 1 4 C0.67 4.99 0.34 5.98 0 7 C0 4.69 0 2.38 0 0 Z " fill="#5D5E5E" transform="translate(94,38)"/>
<path d="M0 0 C0.33 0.99 0.66 1.98 1 3 C-2.375 3.125 -2.375 3.125 -6 3 C-6.66 2.34 -7.32 1.68 -8 1 C-2.25 0 -2.25 0 0 0 Z " fill="#6E6E6F" transform="translate(153,89)"/>
<path d="M0 0 C0.99 0 1.98 0 3 0 C3.66 1.32 4.32 2.64 5 4 C3.35 4 1.7 4 0 4 C0 2.68 0 1.36 0 0 Z " fill="#585858" transform="translate(91,31)"/>
</svg>
